<?xml version="1.0" standalone="no"?>
<!DOCTYPE svg PUBLIC "-//W3C//DTD SVG 1.1//EN" "http://www.w3.org/Graphics/SVG/1.1/DTD/svg11.dtd" >
<svg xmlns="http://www.w3.org/2000/svg">
<metadata></metadata>
<defs>
<font id="hackmanbold" horiz-adv-x="587" >
<font-face units-per-em="1000" ascent="750" descent="-250" />
<missing-glyph horiz-adv-x="300" />
<glyph unicode="&#xfb01;" horiz-adv-x="691" d="M109 500v25q0 126 78 165q41 20 106 20q60 0 149 -17l-15 -88q-65 10 -92 10q-21 0 -36 -4q-33 -4 -48.5 -23.5t-15.5 -62.5v-25h394v-500h-126v405h-268v-405h-126v405h-92v95h92zM631 575h-130v116h130v-116z" />
<glyph unicode="&#xfb02;" horiz-adv-x="772" d="M109 500v25q0 126 78 165q40 20 106 20q45 0 109 -10h226v-546q0 -36 10.5 -51t33.5 -16q23 -3 61 7l16 -88q-73 -16 -112 -16q-71 2 -103.5 39t-32.5 119v457h-74q-65 10 -92 10q-21 0 -36 -4q-33 -4 -48.5 -23.5t-15.5 -62.5v-25h173v-95h-173v-405h-126v405h-92v95h92 z" />
<glyph horiz-adv-x="0" />
<glyph horiz-adv-x="333" />
<glyph unicode=" "  horiz-adv-x="300" />
<glyph unicode="&#x09;" horiz-adv-x="300" />
<glyph unicode="&#xa0;" horiz-adv-x="300" />
<glyph unicode="!" horiz-adv-x="209" d="M159 203h-108l-13 497h133zM171 1h-132v145h132v-145z" />
<glyph unicode="&#x22;" horiz-adv-x="384" d="M139 516h-91l-11 234h112zM336 516h-91l-11 234h112z" />
<glyph unicode="#" horiz-adv-x="678" d="M558 524h83v-90h-97l-23 -147h84v-89h-98l-32 -198h-111l32 198h-158l-32 -198h-110l31 198h-90v89h104l24 147h-92v90h106l28 176h110l-28 -176h158l28 176h111zM275 434l-23 -147h158l23 147h-158z" />
<glyph unicode="$" horiz-adv-x="599" d="M355 787v-81q82 -4 182 -29l-20 -103q-121 31 -209 31q-142 0 -142 -82q0 -39 30.5 -57t144.5 -47q44 -12 71.5 -20.5t55.5 -21.5t43 -27.5t28 -36t17.5 -49.5t4.5 -66q0 -49 -16.5 -87t-46 -61t-65 -36.5t-78.5 -18.5v-82h-117v78l-18 2q-77 4 -182 20l19 107 q118 -24 210 -24q46 0 80.5 8.5t58.5 33t24 62.5q0 17 -3.5 29.5t-13.5 22.5t-18.5 16.5t-29.5 13.5t-35.5 10.5t-45.5 10.5q-10 3 -15 4q-139 37 -185 78.5t-46 130.5q0 162 200 185v86h117z" />
<glyph unicode="%" horiz-adv-x="926" d="M278 -17h-122l492 734h122zM200 710q50 0 83.5 -15t50 -43.5t22.5 -59.5t6 -73t-6 -73.5t-22.5 -60t-50 -43.5t-83.5 -15q-41 0 -70.5 10.5t-47 27.5t-28 43t-14 51.5t-3.5 59t3.5 59.5t14 51.5t28 42.5t47 27.5t70.5 10.5zM199.5 626q-41.5 0 -55.5 -25.5t-14 -82 t14 -81.5t55.5 -25t55.5 25t14 81.5t-14 82t-55.5 25.5zM725 373q50 0 84 -15t50.5 -43.5t22.5 -59.5t6 -73q0 -34 -3.5 -60t-14 -51.5t-27.5 -42.5t-47 -27.5t-70 -10.5t-70 10.5t-47 27.5t-27.5 42.5t-14 51.5t-3.5 60q0 42 6 73t22.5 59.5t50 43.5t82.5 15zM726.5 288 q-41.5 0 -55.5 -25t-14 -81.5t14 -81.5t55.5 -25t55.5 25t14 81.5t-14 81.5t-55.5 25z" />
<glyph unicode="&#x26;" horiz-adv-x="753" d="M190 375l-57 59q-19 20 -28.5 42t-10.5 33.5t-1 32.5q0 71 51.5 113.5t147.5 42.5q95 0 146.5 -41t51.5 -115q0 -30 -11 -52.5t-37 -45.5l-85 -74l133 -138q24 50 25 117h107q0 -120 -45 -206l139 -144h-162l-52 53q-80 -74 -203 -74q-133 0 -197.5 51t-64.5 139 q0 73 54 120zM279 451l74 66q15 13 15 34q0 31 -19 46t-59 15q-79 0 -79 -62q0 -29 12 -42zM270 293l-72 -64q-31 -27 -31 -61q0 -43 35 -65t101 -22q83 0 123 50z" />
<glyph unicode="'" horiz-adv-x="187" d="M139 516h-91l-11 234h112z" />
<glyph unicode="(" horiz-adv-x="293" d="M191 745l65 -76q-57 -51 -73 -98.5t-16 -150.5v-261q0 -97 16.5 -143.5t72.5 -98.5l-65 -75q-91 58 -122.5 124.5t-31.5 192.5v261q0 132 31.5 199t122.5 126z" />
<glyph unicode=")" horiz-adv-x="293" d="M37 669l65 75q92 -59 123 -126t31 -199v-260q0 -126 -31.5 -192.5t-122.5 -124.5l-65 75q57 52 73 98.5t16 143.5v261q0 103 -16 150.5t-73 98.5z" />
<glyph unicode="*" horiz-adv-x="453" d="M267 587l123 40l25 -77l-123 -40l76 -105l-66 -48l-76 105l-76 -105l-66 48l77 105l-124 40l25 77l124 -40v130h81v-130z" />
<glyph unicode="+" horiz-adv-x="549" d="M328 342h184v-103h-184v-186h-106v186h-185v103h185v186h106v-186z" />
<glyph unicode="," horiz-adv-x="251" d="M150 -97h-113l49 234h127z" />
<glyph unicode="-" horiz-adv-x="427" d="M390 240h-353v103h353v-103z" />
<glyph unicode="." horiz-adv-x="207" d="M170 0h-133v145h133v-145z" />
<glyph unicode="/" horiz-adv-x="426" d="M152 -17h-121l243 734h121z" />
<glyph unicode="0" horiz-adv-x="650" d="M325 689q69 0 118.5 -18t79 -47t47 -75.5t23 -95t5.5 -113.5t-5.5 -113.5t-23 -95t-47 -75.5t-79 -47t-118.5 -18t-118.5 18t-79 47t-47 75.5t-23 95t-5.5 113.5t5.5 113.5t23 95t47 75.5t79 47t118.5 18zM325 587q-45 0 -73.5 -13t-44 -44.5t-21 -75t-5.5 -114.5 t5.5 -114.5t21 -75t44 -44.5t73.5 -13t73.5 13t44 44.5t21 75t5.5 114.5t-5.5 114.5t-21 75t-44 44.5t-73.5 13z" />
<glyph unicode="1" horiz-adv-x="434" d="M364 0h-129v523l-146 -97l-65 89l249 165h91v-680z" />
<glyph unicode="2" horiz-adv-x="538" d="M59 550l-19 102q110 38 222 38q236 0 236 -196q0 -81 -40.5 -123.5t-156.5 -70.5q-39 -9 -62 -17.5t-41 -23.5t-24.5 -38t-6.5 -58v-61h332v-102h-463l2 163q0 108 59.5 164t177.5 81q59 13 76.5 29.5t17.5 56.5q0 52 -27.5 73t-83.5 21q-15 0 -33.5 -2t-32.5 -4.5 t-37 -7.5t-32 -7.5t-34.5 -9t-29.5 -7.5z" />
<glyph unicode="3" horiz-adv-x="565" d="M490 591l-184 -190q25 4 48 4q15 0 30 -1q64 -11 99.5 -58.5t35.5 -132.5q0 -120 -63.5 -171t-197.5 -51q-90 0 -225 21l17 98q145 -19 185 -19q82 0 118.5 28t36.5 94q0 115 -105 115q-46 0 -117 -24l-39 69l207 205h-283v102h437v-89z" />
<glyph unicode="4" horiz-adv-x="612" d="M485 270h87v-102h-87v-169h-129v169h-326v81l286 431h169v-410zM165 270h191v286z" />
<glyph unicode="5" horiz-adv-x="558" d="M494 578h-305v-150q65 18 115 18q101 0 156.5 -58.5t55.5 -174.5q0 -121 -62.5 -172t-189.5 -51q-77 0 -224 23l18 104q139 -24 186 -24q77 0 110 27.5t33 92.5q0 69 -25.5 99.5t-77.5 30.5q-56 0 -177 -42l-46 66v313h433v-102z" />
<glyph unicode="6" horiz-adv-x="593" d="M538 667l-16 -102q-142 22 -198 22q-50 0 -78 -14.5t-44 -55t-19 -115.5q105 37 175 37q89 0 141 -54.5t52 -171.5q0 -51 -11 -89t-37.5 -69t-76 -47.5t-120.5 -16.5q-65 0 -112 18.5t-74 48t-43 77t-20.5 94.5t-4.5 111q0 102 17 171t53.5 107.5t84.5 54.5t116 16 q74 0 215 -22zM327 343q-27 0 -56.5 -7.5t-87.5 -28.5q0 -43 2.5 -73.5t10 -59t21 -45t36 -26.5t53.5 -10q68 0 92.5 28.5t24.5 92.5q0 68 -24 98.5t-72 30.5z" />
<glyph unicode="7" horiz-adv-x="526" d="M500 592l-262 -593h-136l256 579h-327v102h469v-88z" />
<glyph unicode="8" horiz-adv-x="602" d="M68 489v22q0 84 59 131t174 47q117 0 175.5 -47.5t58.5 -130.5v-22q0 -100 -90 -132q105 -31 105 -136v-52q0 -178 -249 -178t-249 178v52q0 106 105 136q-89 33 -89 132zM408 493v14q0 40 -25 60t-82 20q-56 0 -81 -20t-25 -60v-14q0 -80 106 -80q56 0 81.5 20t25.5 60z M427 176v37q0 46 -29 71t-97 25q-126 0 -126 -96v-37q0 -44 28 -65t98 -21q69 0 97.5 21t28.5 65z" />
<glyph unicode="9" horiz-adv-x="595" d="M56 13l17 102q142 -22 197 -22q50 0 78.5 14.5t44.5 55t19 115.5q-105 -38 -175 -38q-90 0 -142 55t-52 171q0 51 11.5 89t37.5 69.5t75.5 48t121.5 16.5q65 0 111.5 -18.5t74 -48t43 -77t20.5 -94.5t5 -111q0 -102 -17.5 -170.5t-53 -107.5t-83.5 -55t-116 -16 q-77 0 -217 22zM289 586q-69 0 -93 -28.5t-24 -92.5q0 -68 23.5 -98.5t71.5 -30.5q28 0 57.5 7.5t87.5 28.5q0 44 -2.5 74.5t-10.5 58.5t-21.5 45t-35.5 26.5t-53 9.5z" />
<glyph unicode=":" horiz-adv-x="207" d="M170 360h-132v145h132v-145zM170 0h-133v145h133v-145z" />
<glyph unicode=";" horiz-adv-x="257" d="M219 360h-132v145h132v-145zM150 -97h-113l49 234h127z" />
<glyph unicode="&#x3c;" horiz-adv-x="565" d="M528 395l-359 -132l359 -131v-116l-491 193v109l491 192v-115z" />
<glyph unicode="=" horiz-adv-x="585" d="M547 308h-510v102h510v-102zM547 89h-510v102h510v-102z" />
<glyph unicode="&#x3e;" horiz-adv-x="565" d="M528 318v-109l-491 -193v116l360 131l-360 132v115z" />
<glyph unicode="?" horiz-adv-x="516" d="M56 574l-19 103q107 33 205 33q237 0 237 -197q0 -28 -9 -52.5t-21 -40.5t-33 -31.5t-35 -23.5t-37 -19q-3 -2 -7 -4q-18 -8 -26.5 -13.5t-20 -14.5t-16 -20t-4.5 -26v-65h-130v65q0 28 10 52.5t22 40t34.5 31.5t36 23.5t37.5 18.5q4 3 6 4q22 10 33.5 17.5t21 22.5 t9.5 35q0 52 -28 73t-83 21q-54 0 -183 -33zM271 4h-132v142h132v-142z" />
<glyph unicode="@" horiz-adv-x="797" d="M606 33l18 -89q-91 -52 -226 -52q-132 0 -209.5 40.5t-114.5 132t-37 247.5q0 108 24 185t71.5 123.5t113 68t153 21.5t152.5 -21.5t112.5 -68t71.5 -123.5t24 -185q0 -32 -5 -59t-12.5 -46.5t-21 -34.5t-25.5 -24.5t-31 -16.5t-32 -10.5t-35 -5t-33 -2t-33 -0.5h-2h-51 l-4 24q-75 -31 -126 -31q-64 0 -100 46.5t-36 140.5q0 189 141 189q50 0 116 -25l4 20h80v-274h3q27 1 43 4.5t31 14t22 33t7 57.5q0 89 -16 148.5t-49.5 95t-80 50t-115 14.5t-115.5 -14.5t-80.5 -50t-49 -95t-15.5 -148.5q0 -101 12.5 -163.5t44.5 -100.5t79.5 -52 t123.5 -14q132 0 208 51zM454 201v191q-51 14 -82 14q-32 0 -46.5 -26t-14.5 -87t14 -86.5t40 -25.5q31 0 89 20z" />
<glyph unicode="A" horiz-adv-x="699" d="M675 0h-139l-51 150h-271l-50 -150h-140l254 700h143zM244 252h211l-105 309z" />
<glyph unicode="B" horiz-adv-x="632" d="M70 700h318q82 0 131 -42.5t49 -128.5q0 -29 -3 -50.5t-11 -43t-25 -36.5t-42 -23q109 -29 109 -166q0 -110 -50 -160t-147 -50h-329v700zM200 598v-179h164q34 0 53.5 22t19.5 68q0 44 -19.5 66.5t-53.5 22.5h-164zM200 317v-215h181q41 0 64.5 26.5t23.5 81.5 q0 53 -23.5 80t-64.5 27h-181z" />
<glyph unicode="C" horiz-adv-x="582" d="M526 121l18 -102q-127 -27 -211 -27q-67 0 -116.5 17.5t-87.5 57.5t-57.5 111t-19.5 173t19.5 173t58.5 110.5t88.5 57t116.5 17.5q82 0 210 -27l-19 -102q-132 26 -179 26q-58 0 -92.5 -21.5t-54 -78.5t-19.5 -155.5t19.5 -155.5t54 -79t92.5 -22q47 0 179 27z" />
<glyph unicode="D" horiz-adv-x="676" d="M70 700h252q75 0 130 -17.5t88 -46t52 -75t25.5 -95.5t6.5 -116t-6.5 -116.5t-25.5 -95.5t-52 -75t-88 -46t-130 -17h-252v700zM200 597v-494h122q55 0 89 12t52.5 43.5t25 74.5t6.5 116.5t-6.5 117t-25 75t-52.5 43.5t-89 12h-122z" />
<glyph unicode="E" horiz-adv-x="574" d="M531 597h-331v-178h310v-102h-310v-214h336v-103h-466v700h461v-103z" />
<glyph unicode="F" horiz-adv-x="558" d="M520 597h-320v-188h300v-103h-300v-306h-130v700h450v-103z" />
<glyph unicode="G" horiz-adv-x="668" d="M603 409v-352q-152 -65 -269 -66q-61 0 -109.5 18t-88.5 57.5t-62 111.5t-22 171.5t20 170t59 111.5t91 59.5t120 18.5q101 -1 253 -41l-25 -100q-60 14 -87 20t-66 12t-66 6q-58 0 -94 -22.5t-56 -79.5t-20 -154q0 -75 12 -127.5t34.5 -79.5t48 -38t58.5 -11 q53 0 139 28v184h-146v103h276z" />
<glyph unicode="H" horiz-adv-x="677" d="M607 0h-130v310h-277v-310h-130v700h130v-287h277v287h130v-700z" />
<glyph unicode="I" horiz-adv-x="263" d="M198 0h-130v700h130v-700z" />
<glyph unicode="J" horiz-adv-x="281" d="M211 700v-557q0 -93 -12 -150t-43 -91q-50 -54 -178 -67l-15 86q34 10 55 21t34 30q29 42 29 171v557h130z" />
<glyph unicode="K" horiz-adv-x="669" d="M393 411l244 -411h-142l-183 314l-112 -136v-178h-130v700h130v-350l281 350h153z" />
<glyph unicode="L" horiz-adv-x="539" d="M200 103h315v-103h-445v700h130v-597z" />
<glyph unicode="M" horiz-adv-x="885" d="M815 0h-130v498l-205 -405h-80l-205 405v-498h-130v700h158l217 -430l217 430h158v-700z" />
<glyph unicode="N" horiz-adv-x="704" d="M638 0h-132l-311 479v-479h-130v700h133l311 -479v479h129v-700z" />
<glyph unicode="O" horiz-adv-x="691" d="M345.5 708q54.5 0 98 -9.5t74 -25.5t53 -42.5t35.5 -54.5t20.5 -67t10.5 -75.5t3 -84t-3 -84t-10.5 -75.5t-20.5 -67.5t-35.5 -54.5t-53 -42t-74 -25.5t-98 -9.5t-98 9.5t-74 25.5t-53 42t-35.5 54.5t-20.5 67.5t-10 75.5t-2.5 84t2.5 84t10 75.5t20.5 67t35.5 54.5 t53 42.5t74 25.5t98 9.5zM346 605q-44 0 -73.5 -9t-48 -26t-27.5 -50t-12.5 -71t-3.5 -99.5t3.5 -99.5t12.5 -71t27.5 -50t48 -26t73.5 -9t73 9t47.5 26t28 50t12.5 71t3 99.5t-3 99.5t-12.5 71t-28 50t-47.5 26t-73 9z" />
<glyph unicode="P" horiz-adv-x="620" d="M70 700h307q95 0 151.5 -59t56.5 -163q0 -108 -56.5 -165.5t-151.5 -57.5h-177v-255h-130v700zM200 597v-239h156q47 0 73 29.5t26 90.5q0 59 -26 89t-73 30h-156z" />
<glyph unicode="Q" horiz-adv-x="717" d="M634 -81l-336 77q-61 6 -105.5 27t-71.5 51t-43 75t-21 92t-5 108q0 68 6.5 117.5t25.5 97.5t52 77.5t88 48t130.5 18.5t130.5 -18.5t88 -48t52 -77.5t25.5 -97.5t6.5 -117.5q0 -61 -5.5 -106.5t-20.5 -87.5t-43 -72t-70 -48l133 -23zM354 605q-55 0 -89 -13.5 t-52.5 -46.5t-25 -77.5t-6.5 -118t6.5 -118t25 -77.5t52.5 -46.5t89 -13.5t89 13.5t53 46.5t25 77.5t6 118t-6 118t-25 77.5t-53 46.5t-89 13.5z" />
<glyph unicode="R" horiz-adv-x="657" d="M70 700h313q92 0 146.5 -57t54.5 -158q0 -75 -30 -124t-84 -69l150 -292h-139l-138 270h-143v-270h-130v700zM200 598v-225h162q43 0 68 28t25 84t-24.5 84.5t-68.5 28.5h-162z" />
<glyph unicode="S" horiz-adv-x="595" d="M34 13l19 107q117 -24 210 -24q46 0 80.5 8.5t58.5 33t24 62.5q0 17 -3.5 29.5t-13.5 22.5t-19 16.5t-30 13.5t-35 10.5t-45 10.5q-10 3 -16 4q-139 37 -185 78.5t-46 130.5q0 192 274 192q104 0 225 -31l-19 -103q-122 31 -210 31q-141 0 -141 -82q0 -39 30 -57t144 -47 q45 -12 72 -20.5t55.5 -21.5t43 -27.5t27.5 -36t18 -49.5t5 -66q0 -48 -16 -85t-42.5 -60t-63.5 -38t-76 -20.5t-83 -5.5q-93 0 -242 24z" />
<glyph unicode="T" horiz-adv-x="582" d="M557 597h-201v-597h-130v597h-202v103h533v-103z" />
<glyph unicode="U" horiz-adv-x="683" d="M618 700v-385q0 -49 -2 -82.5t-8.5 -70t-18.5 -60.5t-32 -47t-49 -36t-70 -20.5t-94 -7.5t-94 7.5t-70 20.5t-49 36t-32 47t-18.5 60.5t-8.5 70t-2 82.5v385h130v-385q0 -53 1 -82.5t6.5 -58.5t14 -41.5t25.5 -23t39.5 -13t58 -2.5t57.5 2.5t39.5 13t26 23t13.5 41.5 t6.5 58.5t1.5 82.5v385h129z" />
<glyph unicode="V" horiz-adv-x="679" d="M415 0h-150l-241 700h139l177 -560l176 560h139z" />
<glyph unicode="W" horiz-adv-x="1016" d="M820 0h-175l-137 495l-137 -495h-175l-170 700h137l123 -560l153 560h138l153 -560l123 560h137z" />
<glyph unicode="X" horiz-adv-x="696" d="M444 358l228 -358h-148l-174 275l-179 -275h-147l233 359l-218 341h147l165 -256l159 256h146z" />
<glyph unicode="Y" horiz-adv-x="684" d="M407 246v-246h-130v246l-253 454h143l175 -338l175 338h143z" />
<glyph unicode="Z" horiz-adv-x="591" d="M547 614l-342 -511h349v-103h-516v86l342 511h-329v103h496v-86z" />
<glyph unicode="[" horiz-adv-x="339" d="M296 633h-139v-654h144v-96h-264v847h259v-97z" />
<glyph unicode="\" horiz-adv-x="426" d="M395 -17h-121l-243 734h121z" />
<glyph unicode="]" horiz-adv-x="339" d="M301 -117h-264v96h145v654h-139v97h258v-847z" />
<glyph unicode="^" horiz-adv-x="636" d="M598 307h-145l-135 277l-135 -277h-146l203 393h156z" />
<glyph unicode="_" horiz-adv-x="560" d="M522 -151h-485v83h485v-83z" />
<glyph unicode="`" horiz-adv-x="286" d="M248 570h-97l-114 147h109z" />
<glyph unicode="a" horiz-adv-x="555" d="M92 395l-14 87q125 27 204 27q216 0 216 -175v-334h-95l-6 38q-111 -47 -193 -47q-77 0 -122 40.5t-45 124.5q0 85 59.5 120.5t175.5 35.5q44 0 99 -5v26q0 81 -117 81q-47 0 -162 -19zM371 122v115q-54 5 -93 5q-72 0 -96 -18t-24 -60q0 -79 77 -79q55 0 136 37z" />
<glyph unicode="b" horiz-adv-x="570" d="M187 750v-268q87 28 150 28q191 0 191 -261q0 -63 -10 -108.5t-33.5 -80.5t-66.5 -52.5t-106 -17.5q-104 0 -252 51v709h127zM187 392v-287q77 -20 123 -20q49 0 70 37.5t21 126t-21 126.5t-70 38q-46 0 -123 -21z" />
<glyph unicode="c" horiz-adv-x="507" d="M456 103l16 -91q-124 -22 -196 -22q-121 1 -177.5 61t-56.5 199q0 140 57.5 200t179.5 60q75 0 193 -22l-16 -91q-115 20 -158 20q-73 0 -101.5 -37.5t-28.5 -129.5t28.5 -129.5t101.5 -37.5q43 0 158 20z" />
<glyph unicode="d" horiz-adv-x="570" d="M509 0h-94l-7 36q-108 -46 -181 -46q-88 0 -136.5 63.5t-48.5 195.5q0 261 191 261q63 0 150 -28v268h126v-750zM383 114v278q-77 21 -123 21q-50 0 -71 -38t-21 -126q0 -90 21 -127t62 -37q45 0 132 29z" />
<glyph unicode="e" horiz-adv-x="569" d="M495 120l16 -92q-127 -37 -224 -37q-245 2 -245 259q0 48 5 83.5t20.5 70.5t42.5 56.5t73 35t110 13.5q47 0 83 -7.5t61.5 -19t43 -31t28 -39.5t16 -48.5t7.5 -54t2 -59.5v-37h-364q0 -64 32.5 -94.5t101.5 -30.5q77 0 191 32zM169 284h238q0 41 -4 65t-16 42.5 t-34.5 25.5t-59.5 7q-74 0 -99 -31t-25 -109z" />
<glyph unicode="f" horiz-adv-x="436" d="M109 500v25q0 126 78 165q41 20 106 20q60 0 149 -17l-15 -88q-65 10 -92 10q-21 0 -36 -4q-33 -4 -48.5 -23.5t-15.5 -62.5v-25h173v-95h-173v-405h-126v405h-92v95h92z" />
<glyph unicode="g" horiz-adv-x="610" d="M574 434l-96 1q41 -23 41 -78q0 -81 -51.5 -117.5t-182.5 -36.5q-34 0 -62 4q-32 -28 -32 -50q0 -18 28 -24q40 4 91 4q104 0 161.5 -16.5t80 -48t22.5 -87.5q0 -75 -63.5 -113.5t-211.5 -38.5q-152 0 -213 31.5t-61 103.5q0 41 24.5 67.5t69.5 32.5q-44 14 -44 54 q0 25 18 51.5t50 46.5q-50 17 -71 50.5t-21 85.5q0 81 52 117.5t182 36.5q56 0 105 -6h184v-70zM285 429q-63 0 -90 -17.5t-27 -55.5t26.5 -55.5t90.5 -17.5t90 17.5t26 55.5t-26.5 55.5t-89.5 17.5zM298 53q-84 0 -114.5 -15.5t-30.5 -52t30.5 -52t115.5 -15.5t115.5 15.5 t30.5 52t-30.5 52t-116.5 15.5z" />
<glyph unicode="h" horiz-adv-x="606" d="M192 750v-286q96 44 177 44q80 0 131 -41t51 -125v-342h-127v307q0 49 -23 77.5t-69 28.5q-54 0 -140 -40v-373h-127v750h127z" />
<glyph unicode="i" horiz-adv-x="256" d="M195 575h-130v116h130v-116zM194 0h-127v500h127v-500z" />
<glyph unicode="j" horiz-adv-x="253" d="M193 575h-130v116h130v-116zM192 500v-484q0 -125 -67 -171q-41 -31 -142 -42l-15 91q41 8 63 23q34 25 34 99v484h127z" />
<glyph unicode="k" horiz-adv-x="578" d="M190 289l208 211h144l-198 -195l211 -305h-133l-159 228l-73 -71v-157h-127v750h127v-461z" />
<glyph unicode="l" horiz-adv-x="336" d="M192 750v-596q0 -36 11 -51t34 -17q22 -2 61 8l15 -88q-72 -16 -111 -16q-72 2 -104.5 39t-32.5 119v602h127z" />
<glyph unicode="m" horiz-adv-x="887" d="M158 501l11 -41q101 50 184 50q86 0 125 -56q113 56 195 56q72 0 115.5 -41.5t43.5 -128.5v-340h-127v319q0 94 -71 94q-43 0 -127 -37q4 -17 4 -38v-338h-126v319q0 94 -72 94q-42 0 -126 -37v-376h-127v501h98z" />
<glyph unicode="n" horiz-adv-x="601" d="M158 500l11 -44q110 52 198 52q80 0 129.5 -42.5t49.5 -125.5v-340h-127v307q0 106 -90 106q-54 0 -142 -40v-373h-127v500h98z" />
<glyph unicode="o" d="M293 509q64 0 110.5 -13.5t73.5 -35t42.5 -56.5t20.5 -70.5t5 -83.5t-5 -83.5t-20.5 -70.5t-42.5 -56.5t-73.5 -35t-110.5 -13.5t-110 13.5t-73 35t-42.5 56.5t-20.5 70.5t-5 83.5t5 83.5t20.5 70.5t42.5 56.5t73 35t110 13.5zM293.5 424q-41.5 0 -66 -8.5t-38 -31 t-17.5 -52.5t-4 -82t4 -82t17.5 -52.5t38 -31t66 -8.5t66 8.5t37.5 31t17 52.5t4 82t-4 82t-17 52.5t-37.5 31t-66 8.5z" />
<glyph unicode="p" horiz-adv-x="575" d="M160 500l6 -36q109 46 183 46q87 0 135.5 -63.5t48.5 -195.5q0 -261 -191 -261q-63 0 -150 28v-198h-127v680h95zM192 386v-278q77 -21 123 -21q49 0 70 38t21 126q0 90 -20.5 127t-61.5 37q-45 0 -132 -29z" />
<glyph unicode="q" horiz-adv-x="570" d="M383 -180v198q-88 -28 -150 -28q-191 0 -191 261q0 63 10 108.5t33.5 80.5t66.5 52.5t106 17.5q104 0 251 -51v-639h-126zM383 108v286q-77 21 -123 21q-50 0 -71 -37.5t-21 -126.5t21 -126.5t71 -37.5q46 0 123 21z" />
<glyph unicode="r" horiz-adv-x="396" d="M148 501l16 -59q54 68 141 68q28 0 76 -9l-17 -94q-28 8 -58 8q-76 0 -119 -57v-357h-127v500h88z" />
<glyph unicode="s" horiz-adv-x="525" d="M38 8l14 95q107 -20 187 -20q123 0 126 62q3 34 -22 46.5t-100 24.5q-3 0 -9 1q-27 4 -39.5 6t-33.5 6t-30.5 7t-25 8.5t-22 10.5t-16.5 12.5t-13.5 16.5t-8.5 20.5t-6.5 25.5t-1.5 32q0 43 17 72.5t49 45.5t70 22.5t89 6.5q28 0 61 -2.5t54 -5t51.5 -6t37.5 -4.5 l-15 -93q-120 18 -178 18q-55 0 -81.5 -12t-26.5 -40q0 -26 23 -36t102 -21q117 -15 159.5 -47.5t42.5 -112.5q0 -45 -22 -77t-60.5 -49t-80 -24t-90.5 -7q-32 0 -69 2.5t-60.5 5.5t-47 6.5t-24.5 3.5z" />
<glyph unicode="t" horiz-adv-x="483" d="M246 500h191v-95h-191v-247q0 -40 17 -56t51 -16q31 0 118 20l15 -87q-110 -29 -175 -29q-153 0 -153 168v247h-107v95h107v146h127v-146z" />
<glyph unicode="u" horiz-adv-x="590" d="M182 500v-307q0 -106 90 -106q55 0 136 37v376h127v-500h-98l-11 41q-105 -50 -191 -50q-81 0 -130.5 43t-49.5 126v340h127z" />
<glyph unicode="v" horiz-adv-x="573" d="M364 0h-154l-194 500h128l143 -395l142 395h129z" />
<glyph unicode="w" horiz-adv-x="875" d="M704 0h-162l-105 352l-105 -352h-162l-154 500h128l109 -392l115 392h139l115 -392l109 392h128z" />
<glyph unicode="x" d="M370 255l202 -255h-137l-145 179l-137 -179h-137l203 262l-190 238h138l131 -162l122 163h137z" />
<glyph unicode="y" horiz-adv-x="560" d="M279 123l136 377h129l-209 -539q-33 -88 -106 -122q-44 -22 -135 -37l-16 89q70 12 103 31q36 20 52 60l7 18h-33l-191 500h128z" />
<glyph unicode="z" horiz-adv-x="521" d="M476 436l-272 -341h282v-95h-454v64l273 341h-259v95h430v-64z" />
<glyph unicode="{" horiz-adv-x="423" d="M385 730v-97q-33 0 -52.5 -1.5t-38 -6.5t-27.5 -14.5t-14 -26t-5 -41.5v-125q0 -86 -55 -112q55 -26 55 -112v-125q0 -25 5 -41t14 -26t27.5 -14.5t37.5 -6t53 -1.5v-97h-63q-97 1 -145.5 42.5t-48.5 143.5v125q0 35 -13.5 47t-43.5 13h-34v105h34q31 0 44 12.5t13 47.5 v125q0 102 48 143.5t147 42.5h62z" />
<glyph unicode="|" horiz-adv-x="204" d="M167 -120h-130v870h130v-870z" />
<glyph unicode="}" horiz-adv-x="422" d="M37 730h63q98 -1 146.5 -42.5t48.5 -143.5v-125q0 -34 13 -46.5t44 -13.5h33v-105h-33q-31 0 -44 -12.5t-13 -47.5v-125q0 -102 -48.5 -143.5t-145.5 -42.5h-64v97q34 0 53.5 1.5t38 6t27 14.5t14 26t5.5 41v125q0 86 55 112q-55 26 -55 113v124q0 25 -5.5 41.5t-14 26.5 t-27 14.5t-38 6t-53.5 1.5v97z" />
<glyph unicode="~" horiz-adv-x="557" d="M87 276l-50 71q90 76 147 76q31 0 66.5 -14.5t66.5 -29t50 -14.5q37 0 101 54l52 -75q-24 -22 -67 -46.5t-73 -24.5q-24 0 -87.5 27t-99.5 27q-21 0 -48.5 -14t-39.5 -23t-18 -14z" />
<glyph unicode="&#xa1;" horiz-adv-x="209" d="M171 374h-132v145h132v-145zM171 -180h-133l13 497h107z" />
<glyph unicode="&#xa2;" horiz-adv-x="492" d="M319 574v-67q58 -4 136 -19l-16 -91q-111 20 -152 20q-68 0 -95 -37.5t-27 -129.5t26.5 -129.5t94.5 -37.5q40 0 153 20l16 -91q-80 -15 -136 -19v-67h-104v68q-93 11 -135.5 71.5t-42.5 184.5t42.5 184.5t135.5 71.5v68h104z" />
<glyph unicode="&#xa3;" horiz-adv-x="576" d="M106 419l-8 66q-2 16 -2 32q0 92 67.5 142.5t169.5 50.5q58 0 179 -23l-18 -104q-117 25 -162 25q-107 0 -107 -89q0 -10 1 -21l11 -79h245v-102h-230l8 -63q4 -31 4 -48q0 -64 -53 -103h328v-103h-502v103q58 27 78.5 50t20.5 56q0 15 -4 45l-8 63h-87v102h69z" />
<glyph unicode="&#xa4;" horiz-adv-x="738" />
<glyph unicode="&#xa5;" horiz-adv-x="711" d="M493 379h108v-81h-151l-30 -52v-33h181v-81h-181v-132h-130v132h-180v81h180v33l-30 52h-150v81h107l-180 321h143l175 -338l175 338h143z" />
<glyph unicode="&#xa6;" horiz-adv-x="204" d="M167 369h-130v381h130v-381zM167 -120h-130v381h130v-381z" />
<glyph unicode="&#xa7;" horiz-adv-x="508" d="M38 -103l12 95q111 -20 176 -20q58 0 99.5 20t43.5 62q3 46 -27 63.5t-109 31.5q-42 7 -65.5 12.5t-48 14t-37 18.5t-23 26t-14 36.5t-3.5 49.5q0 91 66 124q-37 17 -51.5 44.5t-14.5 77.5q0 46 14.5 78t43.5 49t64.5 24t83.5 7q26 0 57.5 -2.5t48.5 -4.5t49.5 -7 t34.5 -5l-13 -93q-110 18 -164 18q-117 0 -117 -62q0 -31 26 -43t106 -24q57 -9 91.5 -20.5t59 -32t34.5 -51.5t10 -80q0 -71 -41 -114q41 -38 41 -131q0 -42 -14.5 -74t-37.5 -51.5t-56 -32t-66 -17t-71 -4.5q-62 0 -188 18zM236 382l-18 3q-40 -3 -59.5 -18t-19.5 -48 q0 -29 19 -41t79 -22q4 -1 10 -2q66 -11 94 -25q23 24 23 63q0 21 -6 35.5t-14 23t-27 15t-34.5 9z" />
<glyph unicode="&#xa8;" horiz-adv-x="412" d="M156 588h-119v108h119v-108zM375 588h-118v108h118v-108z" />
<glyph unicode="&#xa9;" horiz-adv-x="794" d="M397 710q98 0 181 -48t131 -131t48 -181t-48 -181t-131 -131t-181 -48t-180.5 48t-131 131t-48.5 181t48.5 181t131 131t180.5 48zM397 626q-113 0 -194 -81t-81 -194t81 -194t194 -81t194 81t81 194t-81 194t-194 81zM496 238l12 -69q-74 -16 -122 -16 q-74 0 -115.5 45.5t-41.5 152.5t42 152t117 45q46 0 120 -16l-12 -68q-80 15 -103 15q-42 0 -61 -27t-19 -101.5t19 -101.5t61 -27q23 0 103 16z" />
<glyph unicode="&#xaa;" horiz-adv-x="363" d="M69 628l-9 61q80 18 130 18q138 0 138 -112v-210h-67l-3 22q-66 -27 -116 -27q-49 0 -78.5 26.5t-29.5 79.5q0 54 39 76.5t111 22.5q25 0 57 -2v12q0 46 -68 46q-28 0 -104 -13zM241 467v65q-31 3 -53 3q-43 0 -56.5 -10t-13.5 -35q0 -44 44 -44q31 0 79 21z" />
<glyph unicode="&#xab;" horiz-adv-x="579" d="M166 252l133 -186h-128l-134 186l134 186h128zM409 252l132 -186h-127l-134 186l134 186h127z" />
<glyph unicode="&#xac;" horiz-adv-x="738" />
<glyph unicode="&#xad;" horiz-adv-x="427" d="M390 240h-353v103h353v-103z" />
<glyph unicode="&#xae;" horiz-adv-x="794" d="M397 710q98 0 181 -48t131 -131t48 -181t-48 -181t-131 -131t-181 -48t-180.5 48t-131 131t-48.5 181t48.5 181t131 131t180.5 48zM397 626q-113 0 -194 -81t-81 -194t81 -194t194 -81t194 81t81 194t-81 194t-194 81zM263 537h160q48 0 77.5 -31t29.5 -83q0 -75 -56 -98 l78 -152h-83l-65 136h-65v-136h-76v364zM339 474v-102h75q40 0 40 51t-40 51h-75z" />
<glyph unicode="&#xaf;" horiz-adv-x="438" d="M401 594h-364v90h364v-90z" />
<glyph unicode="&#xb0;" horiz-adv-x="431" d="M216 831q74 0 126 -52t52 -126t-52 -126.5t-126 -52.5t-126.5 52.5t-52.5 126.5t52.5 126t126.5 52zM216 738q-35 0 -60 -25t-25 -60.5t25 -60.5t60 -25t59.5 25t24.5 60.5t-24.5 60.5t-59.5 25z" />
<glyph unicode="&#xb1;" horiz-adv-x="549" d="M339 435h173v-102h-173v-137h-128v137h-174v102h174v137h128v-137zM512 0h-475v103h475v-103z" />
<glyph unicode="&#xb2;" horiz-adv-x="352" d="M50 605l-14 76q64 25 137 25q64 0 104.5 -28.5t40.5 -90.5q0 -48 -26 -75t-94 -43q-37 -9 -50.5 -21t-13.5 -39v-29h184v-78h-284l1 101q0 63 36.5 97t104.5 49q27 5 35 12.5t8 25.5q0 23 -13.5 32.5t-40.5 9.5q-40 0 -115 -24z" />
<glyph unicode="&#xb3;" horiz-adv-x="366" d="M317 637l-90 -94q20 1 36 -4q70 -21 70 -109q0 -70 -40.5 -101.5t-118.5 -32.5q-52 0 -140 15l13 74q13 -1 37 -4.5t43 -5.5t34 -2q41 0 56.5 13t15.5 44q0 30 -10.5 42t-33.5 12t-72 -17l-30 54l100 102h-140v77h270v-63z" />
<glyph unicode="&#xb4;" horiz-adv-x="286" d="M135 570h-98l103 147h108z" />
<glyph unicode="&#xb6;" horiz-adv-x="619" d="M581 597h-61v-717h-96v717h-85v-717h-95v421h-22q-84 0 -134.5 52t-50.5 148q0 93 51 146t137 53h356v-103z" />
<glyph unicode="&#xb7;" horiz-adv-x="207" d="M170 230h-133v145h133v-145z" />
<glyph unicode="&#xb8;" horiz-adv-x="345" d="M201 12l-38 -60q23 7 48 7q43 0 69.5 -22t26.5 -66q0 -100 -138 -100q-68 0 -132 18l23 62q65 -12 98 -12q38 0 54 8.5t16 28.5q0 35 -52 35q-43 0 -86 -11l-17 25l47 87h81z" />
<glyph unicode="&#xb9;" horiz-adv-x="287" d="M253 302h-99v277l-71 -47l-49 69l150 99h69v-398z" />
<glyph unicode="&#xba;" horiz-adv-x="389" d="M194.5 707q50.5 0 83.5 -12.5t49 -36.5t21.5 -50.5t5.5 -64.5t-5.5 -64.5t-21.5 -50.5t-49 -36t-83.5 -12t-83.5 12t-49 36t-22 50.5t-6 64.5t6 64.5t22 50.5t49 36.5t83.5 12.5zM194.5 647q-46.5 0 -59.5 -21t-13 -82.5t13 -82.5t59.5 -21t59.5 21t13 82.5t-13 82.5 t-59.5 21z" />
<glyph unicode="&#xbb;" horiz-adv-x="579" d="M298 252l-133 -186h-128l133 186l-133 186h128zM541 252l-133 -186h-128l132 186l-132 186h128z" />
<glyph unicode="&#xbc;" horiz-adv-x="937" d="M276 -17h-122l493 734h122zM257 302h-99v277l-71 -47l-50 69l151 99h69v-398zM851 171h48v-77h-48v-94h-95v94h-209v57l182 248h122v-228zM648 171h108v148z" />
<glyph unicode="&#xbd;" horiz-adv-x="947" d="M271 -17h-122l492 734h122zM257 302h-99v277l-71 -47l-50 69l151 99h69v-398zM641 303l-15 76q65 25 138 25q64 0 104.5 -28.5t40.5 -90.5q0 -48 -26 -75t-94 -43q-38 -9 -51 -21t-14 -40v-28h185v-78h-284l1 101q0 62 36.5 96.5t104.5 49.5q27 5 35 12t8 26 q0 23 -13.5 32.5t-40.5 9.5q-41 0 -115 -24z" />
<glyph unicode="&#xbe;" horiz-adv-x="950" d="M290 -17h-122l492 734h122zM321 637l-91 -94q22 0 40 -5q66 -23 66 -108q0 -70 -40 -101.5t-118 -32.5q-52 0 -141 15l13 74q13 -1 37.5 -4.5t43.5 -5.5t34 -2q41 0 56.5 13t15.5 44q0 30 -11 42t-33 12q-24 0 -72 -17l-31 54l101 102h-141v77h271v-63zM864 171h49v-77 h-49v-94h-95v94h-209v57l182 248h122v-228zM661 171h108v148z" />
<glyph unicode="&#xbf;" horiz-adv-x="516" d="M378 390h-132v142h132v-142zM376 332v-64q0 -28 -9.5 -52.5t-22 -40.5t-35 -32t-35.5 -23t-37 -19q-5 -2 -7 -3q-22 -11 -33 -18.5t-20.5 -22.5t-9.5 -35q0 -51 27 -72.5t81 -21.5q50 0 185 33l19 -103q-109 -32 -204 -32q-238 0 -238 196q0 29 9 53.5t21 40t33 31.5 t35 24t38 19q2 1 7 3q18 9 26.5 14t20 14t16 20.5t4.5 26.5v64h129z" />
<glyph unicode="&#xc0;" horiz-adv-x="699" d="M445 770h-97l-114 147h109zM675 0h-139l-51 150h-271l-50 -150h-140l254 700h143zM244 252h211l-105 309z" />
<glyph unicode="&#xc1;" horiz-adv-x="699" d="M331 770h-98l103 147h108zM675 0h-139l-51 150h-271l-50 -150h-140l254 700h143zM244 252h211l-105 309z" />
<glyph unicode="&#xc2;" horiz-adv-x="699" d="M556 821l-56 -67l-151 98l-150 -98l-56 67l206 134zM675 0h-139l-51 150h-271l-50 -150h-140l254 700h143zM244 252h211l-105 309z" />
<glyph unicode="&#xc3;" horiz-adv-x="699" d="M198 784l-43 62q74 62 120 62q32 0 81.5 -23.5t65.5 -23.5q30 0 82 44l44 -64q-19 -19 -54.5 -39t-60.5 -20q-20 0 -70.5 21.5t-79.5 21.5q-17 0 -39 -11t-31.5 -18t-14.5 -12zM675 0h-139l-51 150h-271l-50 -150h-140l254 700h143zM244 252h211l-105 309z" />
<glyph unicode="&#xc4;" horiz-adv-x="699" d="M298 788h-118v108h118v-108zM518 788h-118v108h118v-108zM675 0h-139l-51 150h-271l-50 -150h-140l254 700h143zM244 252h211l-105 309z" />
<glyph unicode="&#xc5;" horiz-adv-x="699" d="M349 964q47 0 79.5 -33t32.5 -79.5t-32.5 -79.5t-79.5 -33t-79.5 33t-32.5 79.5t32.5 79.5t79.5 33zM348.5 900q-19.5 0 -33.5 -14t-14 -34t14 -34.5t33.5 -14.5t34 14.5t14.5 34.5t-14.5 34t-34 14zM675 0h-139l-51 150h-271l-50 -150h-140l254 700h143zM244 252h211 l-105 309z" />
<glyph unicode="&#xc6;" horiz-adv-x="853" d="M810 597h-331v-178h310v-102h-310v-214h336v-103h-465v150h-136l-50 -150h-140l254 700h532v-103zM244 252h106v309z" />
<glyph unicode="&#xc7;" horiz-adv-x="582" d="M200 -65l37 68q-91 24 -138 106.5t-47 241.5q0 102 19.5 173t58.5 110.5t88.5 57t116.5 17.5q82 0 210 -27l-19 -102q-132 26 -179 26q-58 0 -92.5 -21.5t-54 -78.5t-19.5 -155.5t19.5 -155.5t54 -79t92.5 -22q47 0 179 27l18 -102q-92 -19 -163 -25q-17 -1 -31 -1 q-23 0 -42 2l-19 -33q26 6 49 6q43 0 69.5 -22t26.5 -66q0 -100 -142 -100q-58 0 -128 18l23 63q56 -12 104 -12q34 0 49 8.5t15 27.5q0 37 -57 35q-30 1 -81 -10z" />
<glyph unicode="&#xc8;" horiz-adv-x="574" d="M391 770h-97l-114 147h108zM531 597h-331v-178h310v-102h-310v-214h336v-103h-466v700h461v-103z" />
<glyph unicode="&#xc9;" horiz-adv-x="574" d="M276 770h-97l103 147h108zM531 597h-331v-178h310v-102h-310v-214h336v-103h-466v700h461v-103z" />
<glyph unicode="&#xca;" horiz-adv-x="574" d="M501 821l-56 -67l-150 98l-150 -98l-56 67l206 134zM531 597h-331v-178h310v-102h-310v-214h336v-103h-466v700h461v-103z" />
<glyph unicode="&#xcb;" horiz-adv-x="574" d="M244 788h-118v108h118v-108zM464 788h-119v108h119v-108zM531 597h-331v-178h310v-102h-310v-214h336v-103h-466v700h461v-103z" />
<glyph unicode="&#xcc;" horiz-adv-x="263" d="M230 770h-97l-113 147h108zM198 0h-130v700h130v-700z" />
<glyph unicode="&#xcd;" horiz-adv-x="263" d="M116 770h-97l102 147h108zM198 0h-130v700h130v-700z" />
<glyph unicode="&#xce;" horiz-adv-x="263" d="M341 821l-56 -67l-150 98l-151 -98l-55 67l206 134zM198 0h-130v700h130v-700z" />
<glyph unicode="&#xcf;" horiz-adv-x="263" d="M84 788h-118v108h118v-108zM303 788h-118v108h118v-108zM198 0h-130v700h130v-700z" />
<glyph unicode="&#xd0;" horiz-adv-x="731" d="M126 700h251q76 0 130.5 -17.5t87.5 -46t52.5 -75t26 -95.5t6.5 -116t-6.5 -116.5t-26 -95.5t-52.5 -75t-87.5 -46t-130.5 -17h-251v299h-99v102h99v299zM255 597v-196h125v-102h-125v-196h122q56 0 89.5 12t52.5 43.5t25 74.5t6 116.5t-6 117t-25 75t-52.5 43.5 t-89.5 12h-122z" />
<glyph unicode="&#xd1;" horiz-adv-x="704" d="M210 784l-42 62q73 62 120 62q32 0 81 -23.5t65 -23.5q31 0 82 44l45 -64q-20 -19 -55.5 -39t-60.5 -20q-19 0 -69.5 21.5t-80.5 21.5q-16 0 -38 -11t-31.5 -18t-15.5 -12zM638 0h-132l-311 479v-479h-130v700h133l311 -479v479h129v-700z" />
<glyph unicode="&#xd2;" horiz-adv-x="691" d="M442 770h-97l-113 147h108zM345.5 708q54.5 0 98 -9.5t74 -25.5t53 -42.5t35.5 -54.5t20.5 -67t10.5 -75.5t3 -84t-3 -84t-10.5 -75.5t-20.5 -67.5t-35.5 -54.5t-53 -42t-74 -25.5t-98 -9.5t-98 9.5t-74 25.5t-53 42t-35.5 54.5t-20.5 67.5t-10 75.5t-2.5 84t2.5 84 t10 75.5t20.5 67t35.5 54.5t53 42.5t74 25.5t98 9.5zM346 605q-44 0 -73.5 -9t-48 -26t-27.5 -50t-12.5 -71t-3.5 -99.5t3.5 -99.5t12.5 -71t27.5 -50t48 -26t73.5 -9t73 9t47.5 26t28 50t12.5 71t3 99.5t-3 99.5t-12.5 71t-28 50t-47.5 26t-73 9z" />
<glyph unicode="&#xd3;" horiz-adv-x="691" d="M328 770h-98l103 147h108zM345.5 708q54.5 0 98 -9.5t74 -25.5t53 -42.5t35.5 -54.5t20.5 -67t10.5 -75.5t3 -84t-3 -84t-10.5 -75.5t-20.5 -67.5t-35.5 -54.5t-53 -42t-74 -25.5t-98 -9.5t-98 9.5t-74 25.5t-53 42t-35.5 54.5t-20.5 67.5t-10 75.5t-2.5 84t2.5 84 t10 75.5t20.5 67t35.5 54.5t53 42.5t74 25.5t98 9.5zM346 605q-44 0 -73.5 -9t-48 -26t-27.5 -50t-12.5 -71t-3.5 -99.5t3.5 -99.5t12.5 -71t27.5 -50t48 -26t73.5 -9t73 9t47.5 26t28 50t12.5 71t3 99.5t-3 99.5t-12.5 71t-28 50t-47.5 26t-73 9z" />
<glyph unicode="&#xd4;" horiz-adv-x="691" d="M553 821l-56 -67l-150 98l-151 -98l-56 67l207 134zM345.5 708q54.5 0 98 -9.5t74 -25.5t53 -42.5t35.5 -54.5t20.5 -67t10.5 -75.5t3 -84t-3 -84t-10.5 -75.5t-20.5 -67.5t-35.5 -54.5t-53 -42t-74 -25.5t-98 -9.5t-98 9.5t-74 25.5t-53 42t-35.5 54.5t-20.5 67.5 t-10 75.5t-2.5 84t2.5 84t10 75.5t20.5 67t35.5 54.5t53 42.5t74 25.5t98 9.5zM346 605q-44 0 -73.5 -9t-48 -26t-27.5 -50t-12.5 -71t-3.5 -99.5t3.5 -99.5t12.5 -71t27.5 -50t48 -26t73.5 -9t73 9t47.5 26t28 50t12.5 71t3 99.5t-3 99.5t-12.5 71t-28 50t-47.5 26t-73 9z " />
<glyph unicode="&#xd5;" horiz-adv-x="691" d="M195 784l-43 62q74 62 120 62q32 0 81.5 -23.5t65.5 -23.5q30 0 82 44l45 -64q-20 -19 -55.5 -39t-60.5 -20q-20 0 -70.5 21.5t-79.5 21.5q-17 0 -38.5 -11t-31.5 -18t-15 -12zM345.5 708q54.5 0 98 -9.5t74 -25.5t53 -42.5t35.5 -54.5t20.5 -67t10.5 -75.5t3 -84t-3 -84 t-10.5 -75.5t-20.5 -67.5t-35.5 -54.5t-53 -42t-74 -25.5t-98 -9.5t-98 9.5t-74 25.5t-53 42t-35.5 54.5t-20.5 67.5t-10 75.5t-2.5 84t2.5 84t10 75.5t20.5 67t35.5 54.5t53 42.5t74 25.5t98 9.5zM346 605q-44 0 -73.5 -9t-48 -26t-27.5 -50t-12.5 -71t-3.5 -99.5 t3.5 -99.5t12.5 -71t27.5 -50t48 -26t73.5 -9t73 9t47.5 26t28 50t12.5 71t3 99.5t-3 99.5t-12.5 71t-28 50t-47.5 26t-73 9z" />
<glyph unicode="&#xd6;" horiz-adv-x="691" d="M296 788h-119v108h119v-108zM515 788h-118v108h118v-108zM345.5 708q54.5 0 98 -9.5t74 -25.5t53 -42.5t35.5 -54.5t20.5 -67t10.5 -75.5t3 -84t-3 -84t-10.5 -75.5t-20.5 -67.5t-35.5 -54.5t-53 -42t-74 -25.5t-98 -9.5t-98 9.5t-74 25.5t-53 42t-35.5 54.5t-20.5 67.5 t-10 75.5t-2.5 84t2.5 84t10 75.5t20.5 67t35.5 54.5t53 42.5t74 25.5t98 9.5zM346 605q-44 0 -73.5 -9t-48 -26t-27.5 -50t-12.5 -71t-3.5 -99.5t3.5 -99.5t12.5 -71t27.5 -50t48 -26t73.5 -9t73 9t47.5 26t28 50t12.5 71t3 99.5t-3 99.5t-12.5 71t-28 50t-47.5 26t-73 9z " />
<glyph unicode="&#xd7;" horiz-adv-x="486" d="M244 364l130 131l73 -73l-130 -130l131 -132l-75 -75l-132 132l-130 -131l-72 73l130 130l-132 132l76 75z" />
<glyph unicode="&#xd8;" horiz-adv-x="691" d="M539 750l-25 -76q39 -20 65 -52.5t38.5 -77t17.5 -89t5 -106.5q0 -47 -3 -83.5t-10.5 -75.5t-20.5 -67.5t-35.5 -54.5t-53 -42t-74 -25.5t-97.5 -9.5q-31 0 -58 3l-15 -44h-121l25 75q-39 20 -65 52.5t-38.5 77t-17 89t-4.5 105.5q0 48 2.5 84.5t10 75.5t20.5 67 t35.5 54.5t53 42.5t74 25.5t98.5 9.5q30 0 57 -3l15 45h121zM369 604l-23 1q-44 0 -73.5 -9t-48 -26t-27.5 -50t-12.5 -71t-3.5 -100q0 -83 7 -131.5t27 -76.5zM321 95l25 -1q44 0 73 9t47.5 26t28 50t12.5 71t3 99q0 85 -7 133.5t-28 76.5z" />
<glyph unicode="&#xd9;" horiz-adv-x="683" d="M438 770h-97l-113 147h108zM618 700v-385q0 -49 -2 -82.5t-8.5 -70t-18.5 -60.5t-32 -47t-49 -36t-70 -20.5t-94 -7.5t-94 7.5t-70 20.5t-49 36t-32 47t-18.5 60.5t-8.5 70t-2 82.5v385h130v-385q0 -53 1 -82.5t6.5 -58.5t14 -41.5t25.5 -23t39.5 -13t58 -2.5t57.5 2.5 t39.5 13t26 23t13.5 41.5t6.5 58.5t1.5 82.5v385h129z" />
<glyph unicode="&#xda;" horiz-adv-x="683" d="M324 770h-98l103 147h108zM618 700v-385q0 -49 -2 -82.5t-8.5 -70t-18.5 -60.5t-32 -47t-49 -36t-70 -20.5t-94 -7.5t-94 7.5t-70 20.5t-49 36t-32 47t-18.5 60.5t-8.5 70t-2 82.5v385h130v-385q0 -53 1 -82.5t6.5 -58.5t14 -41.5t25.5 -23t39.5 -13t58 -2.5t57.5 2.5 t39.5 13t26 23t13.5 41.5t6.5 58.5t1.5 82.5v385h129z" />
<glyph unicode="&#xdb;" horiz-adv-x="683" d="M549 821l-56 -67l-150 98l-151 -98l-56 67l207 134zM618 700v-385q0 -49 -2 -82.5t-8.5 -70t-18.5 -60.5t-32 -47t-49 -36t-70 -20.5t-94 -7.5t-94 7.5t-70 20.5t-49 36t-32 47t-18.5 60.5t-8.5 70t-2 82.5v385h130v-385q0 -53 1 -82.5t6.5 -58.5t14 -41.5t25.5 -23 t39.5 -13t58 -2.5t57.5 2.5t39.5 13t26 23t13.5 41.5t6.5 58.5t1.5 82.5v385h129z" />
<glyph unicode="&#xdc;" horiz-adv-x="683" d="M292 788h-119v108h119v-108zM511 788h-118v108h118v-108zM618 700v-385q0 -49 -2 -82.5t-8.5 -70t-18.5 -60.5t-32 -47t-49 -36t-70 -20.5t-94 -7.5t-94 7.5t-70 20.5t-49 36t-32 47t-18.5 60.5t-8.5 70t-2 82.5v385h130v-385q0 -53 1 -82.5t6.5 -58.5t14 -41.5t25.5 -23 t39.5 -13t58 -2.5t57.5 2.5t39.5 13t26 23t13.5 41.5t6.5 58.5t1.5 82.5v385h129z" />
<glyph unicode="&#xdd;" horiz-adv-x="684" d="M323 770h-97l103 147h108zM407 246v-246h-130v246l-253 454h143l175 -338l175 338h143z" />
<glyph unicode="&#xde;" horiz-adv-x="615" d="M200 582h172q95 0 151.5 -59t56.5 -164q0 -107 -56.5 -165t-151.5 -58h-172v-136h-130v750h130v-168zM200 479v-240h151q46 0 72.5 30t26.5 91q0 59 -26 89t-73 30h-151z" />
<glyph unicode="&#xdf;" horiz-adv-x="659" d="M64 0v526q0 87 67.5 135t197.5 48q134 0 200.5 -48.5t66.5 -134.5q0 -105 -100 -139q122 -31 119 -149v-65q0 -49 -21.5 -85.5t-60.5 -57t-88 -30.5t-109 -10q-24 0 -62 4l17 100q12 -1 38 -1q88 0 122 17t34 63v64q0 54 -35 73.5t-135 20.5v103q88 0 120 20.5t32 71.5 q0 46 -32 63t-106 17q-72 0 -104 -17t-32 -63v-526h-129z" />
<glyph unicode="&#xe0;" horiz-adv-x="555" d="M369 570h-98l-113 147h108zM92 395l-14 87q125 27 204 27q216 0 216 -175v-334h-95l-6 38q-111 -47 -193 -47q-77 0 -122 40.5t-45 124.5q0 85 59.5 120.5t175.5 35.5q44 0 99 -5v26q0 81 -117 81q-47 0 -162 -19zM371 122v115q-54 5 -93 5q-72 0 -96 -18t-24 -60 q0 -79 77 -79q55 0 136 37z" />
<glyph unicode="&#xe1;" horiz-adv-x="555" d="M254 570h-97l102 147h109zM92 395l-14 87q125 27 204 27q216 0 216 -175v-334h-95l-6 38q-111 -47 -193 -47q-77 0 -122 40.5t-45 124.5q0 85 59.5 120.5t175.5 35.5q44 0 99 -5v26q0 81 -117 81q-47 0 -162 -19zM371 122v115q-54 5 -93 5q-72 0 -96 -18t-24 -60 q0 -79 77 -79q55 0 136 37z" />
<glyph unicode="&#xe2;" horiz-adv-x="555" d="M479 621l-56 -67l-150 98l-150 -98l-56 67l206 134zM92 395l-14 87q125 27 204 27q216 0 216 -175v-334h-95l-6 38q-111 -47 -193 -47q-77 0 -122 40.5t-45 124.5q0 85 59.5 120.5t175.5 35.5q44 0 99 -5v26q0 81 -117 81q-47 0 -162 -19zM371 122v115q-54 5 -93 5 q-72 0 -96 -18t-24 -60q0 -79 77 -79q55 0 136 37z" />
<glyph unicode="&#xe3;" horiz-adv-x="555" d="M122 584l-43 62q74 62 120 62q32 0 81 -23.5t65 -23.5q30 0 83 44l44 -64q-20 -19 -55.5 -39t-60.5 -20q-19 0 -69.5 21.5t-79.5 21.5q-17 0 -39 -11t-31.5 -18t-14.5 -12zM92 395l-14 87q125 27 204 27q216 0 216 -175v-334h-95l-6 38q-111 -47 -193 -47 q-77 0 -122 40.5t-45 124.5q0 85 59.5 120.5t175.5 35.5q44 0 99 -5v26q0 81 -117 81q-47 0 -162 -19zM371 122v115q-54 5 -93 5q-72 0 -96 -18t-24 -60q0 -79 77 -79q55 0 136 37z" />
<glyph unicode="&#xe4;" horiz-adv-x="555" d="M222 588h-118v108h118v-108zM441 588h-118v108h118v-108zM92 395l-14 87q125 27 204 27q216 0 216 -175v-334h-95l-6 38q-111 -47 -193 -47q-77 0 -122 40.5t-45 124.5q0 85 59.5 120.5t175.5 35.5q44 0 99 -5v26q0 81 -117 81q-47 0 -162 -19zM371 122v115q-54 5 -93 5 q-72 0 -96 -18t-24 -60q0 -79 77 -79q55 0 136 37z" />
<glyph unicode="&#xe5;" horiz-adv-x="555" d="M272 764q47 0 80 -33t33 -79.5t-33 -79.5t-80 -33t-79.5 33t-32.5 79.5t32.5 79.5t79.5 33zM272.5 700q-19.5 0 -33.5 -14t-14 -34t14 -34.5t33.5 -14.5t33.5 14.5t14 34.5t-14 34t-33.5 14zM92 395l-14 87q125 27 204 27q216 0 216 -175v-334h-95l-6 38 q-111 -47 -193 -47q-77 0 -122 40.5t-45 124.5q0 85 59.5 120.5t175.5 35.5q44 0 99 -5v26q0 81 -117 81q-47 0 -162 -19zM371 122v115q-54 5 -93 5q-72 0 -96 -18t-24 -60q0 -79 77 -79q55 0 136 37z" />
<glyph unicode="&#xe6;" horiz-adv-x="944" d="M92 395l-14 87q125 27 204 27q143 0 184 -83q52 83 202 83q47 0 83 -7t61.5 -18.5t43 -31t28 -39.5t16 -49t7.5 -54t2 -60v-37h-364q0 -63 32.5 -94t101.5 -31q77 0 191 33l16 -93q-127 -37 -224 -37q-112 1 -164 69v-60h-95l-6 38q-111 -47 -193 -47q-77 0 -122 40.5 t-45 124.5q0 85 59.5 120.5t175.5 35.5q44 0 99 -5v26q0 81 -117 81q-47 0 -162 -19zM544 284h238q0 41 -4 65t-16 42.5t-34.5 25.5t-59.5 7q-74 0 -99 -31t-25 -109zM371 123v115q-54 5 -93 5q-72 0 -96 -18.5t-24 -60.5q0 -78 77 -78q55 0 136 37z" />
<glyph unicode="&#xe7;" horiz-adv-x="507" d="M164 -70l36 67q-82 17 -120 77t-38 176q0 140 57.5 200t179.5 60q75 0 193 -22l-16 -91q-115 20 -158 20q-73 0 -101.5 -37.5t-28.5 -129.5t28.5 -129.5t101.5 -37.5q43 0 158 20l16 -91q-82 -15 -142 -19q-20 -1 -57 -1l-20 -35q31 7 49 6q43 0 69.5 -22t26.5 -65 q0 -101 -142 -101q-58 0 -128 18l23 63q56 -12 98 -12q37 0 53.5 8.5t16.5 27.5q0 38 -60 35q-33 0 -78 -10z" />
<glyph unicode="&#xe8;" horiz-adv-x="569" d="M380 570h-97l-114 147h108zM495 120l16 -92q-127 -37 -224 -37q-245 2 -245 259q0 48 5 83.5t20.5 70.5t42.5 56.5t73 35t110 13.5q47 0 83 -7.5t61.5 -19t43 -31t28 -39.5t16 -48.5t7.5 -54t2 -59.5v-37h-364q0 -64 32.5 -94.5t101.5 -30.5q77 0 191 32zM169 284h238 q0 41 -4 65t-16 42.5t-34.5 25.5t-59.5 7q-74 0 -99 -31t-25 -109z" />
<glyph unicode="&#xe9;" horiz-adv-x="569" d="M265 570h-97l103 147h108zM495 120l16 -92q-127 -37 -224 -37q-245 2 -245 259q0 48 5 83.5t20.5 70.5t42.5 56.5t73 35t110 13.5q47 0 83 -7.5t61.5 -19t43 -31t28 -39.5t16 -48.5t7.5 -54t2 -59.5v-37h-364q0 -64 32.5 -94.5t101.5 -30.5q77 0 191 32zM169 284h238 q0 41 -4 65t-16 42.5t-34.5 25.5t-59.5 7q-74 0 -99 -31t-25 -109z" />
<glyph unicode="&#xea;" horiz-adv-x="569" d="M491 621l-57 -67l-150 98l-150 -98l-56 67l206 134zM495 120l16 -92q-127 -37 -224 -37q-245 2 -245 259q0 48 5 83.5t20.5 70.5t42.5 56.5t73 35t110 13.5q47 0 83 -7.5t61.5 -19t43 -31t28 -39.5t16 -48.5t7.5 -54t2 -59.5v-37h-364q0 -64 32.5 -94.5t101.5 -30.5 q77 0 191 32zM169 284h238q0 41 -4 65t-16 42.5t-34.5 25.5t-59.5 7q-74 0 -99 -31t-25 -109z" />
<glyph unicode="&#xeb;" horiz-adv-x="569" d="M233 588h-118v108h118v-108zM453 588h-119v108h119v-108zM495 120l16 -92q-127 -37 -224 -37q-245 2 -245 259q0 48 5 83.5t20.5 70.5t42.5 56.5t73 35t110 13.5q47 0 83 -7.5t61.5 -19t43 -31t28 -39.5t16 -48.5t7.5 -54t2 -59.5v-37h-364q0 -64 32.5 -94.5t101.5 -30.5 q77 0 191 32zM169 284h238q0 41 -4 65t-16 42.5t-34.5 25.5t-59.5 7q-74 0 -99 -31t-25 -109z" />
<glyph unicode="&#xec;" horiz-adv-x="252" d="M222 570h-97l-114 147h108zM192 0h-127v500h127v-500z" />
<glyph unicode="&#xed;" horiz-adv-x="252" d="M107 570h-97l103 147h108zM192 0h-127v500h127v-500z" />
<glyph unicode="&#xee;" horiz-adv-x="252" d="M332 621l-56 -67l-150 98l-150 -98l-56 67l206 134zM192 0h-127v500h127v-500z" />
<glyph unicode="&#xef;" horiz-adv-x="252" d="M75 588h-118v108h118v-108zM295 588h-119v108h119v-108zM192 0h-127v500h127v-500z" />
<glyph unicode="&#xf0;" horiz-adv-x="617" d="M552 674l-43 -27q43 -54 43 -134v-318q0 -40 -14.5 -75.5t-44 -65t-80 -47t-116.5 -17.5t-116.5 17.5t-80 47t-44 65t-14.5 75.5v81q0 93 62 146.5t164 53.5q98 0 154 -55v92q0 42 -14 70l-99 -62l-40 64l78 50q-25 8 -59 8q-33 0 -112 -14l-16 89q66 16 130 16 q93 0 158 -36l64 40zM422 195v81q0 51 -28.5 76.5t-96.5 25.5q-69 0 -97.5 -25.5t-28.5 -76.5v-81q0 -50 28.5 -76t97.5 -26q68 0 96.5 26t28.5 76z" />
<glyph unicode="&#xf1;" horiz-adv-x="601" d="M152 584l-42 62q73 62 120 62q31 0 80.5 -23.5t65.5 -23.5q30 0 82 44l45 -64q-20 -19 -55.5 -39t-60.5 -20q-19 0 -70 21.5t-80 21.5q-16 0 -38 -11t-32 -18t-15 -12zM158 500l11 -44q110 52 198 52q80 0 129.5 -42.5t49.5 -125.5v-340h-127v307q0 106 -90 106 q-54 0 -142 -40v-373h-127v500h98z" />
<glyph unicode="&#xf2;" d="M390 570h-98l-113 147h108zM293 509q64 0 110.5 -13.5t73.5 -35t42.5 -56.5t20.5 -70.5t5 -83.5t-5 -83.5t-20.5 -70.5t-42.5 -56.5t-73.5 -35t-110.5 -13.5t-110 13.5t-73 35t-42.5 56.5t-20.5 70.5t-5 83.5t5 83.5t20.5 70.5t42.5 56.5t73 35t110 13.5zM293.5 424 q-41.5 0 -66 -8.5t-38 -31t-17.5 -52.5t-4 -82t4 -82t17.5 -52.5t38 -31t66 -8.5t66 8.5t37.5 31t17 52.5t4 82t-4 82t-17 52.5t-37.5 31t-66 8.5z" />
<glyph unicode="&#xf3;" d="M275 570h-97l102 147h109zM293 509q64 0 110.5 -13.5t73.5 -35t42.5 -56.5t20.5 -70.5t5 -83.5t-5 -83.5t-20.5 -70.5t-42.5 -56.5t-73.5 -35t-110.5 -13.5t-110 13.5t-73 35t-42.5 56.5t-20.5 70.5t-5 83.5t5 83.5t20.5 70.5t42.5 56.5t73 35t110 13.5zM293.5 424 q-41.5 0 -66 -8.5t-38 -31t-17.5 -52.5t-4 -82t4 -82t17.5 -52.5t38 -31t66 -8.5t66 8.5t37.5 31t17 52.5t4 82t-4 82t-17 52.5t-37.5 31t-66 8.5z" />
<glyph unicode="&#xf4;" d="M500 621l-56 -67l-150 98l-150 -98l-56 67l206 134zM293 509q64 0 110.5 -13.5t73.5 -35t42.5 -56.5t20.5 -70.5t5 -83.5t-5 -83.5t-20.5 -70.5t-42.5 -56.5t-73.5 -35t-110.5 -13.5t-110 13.5t-73 35t-42.5 56.5t-20.5 70.5t-5 83.5t5 83.5t20.5 70.5t42.5 56.5t73 35 t110 13.5zM293.5 424q-41.5 0 -66 -8.5t-38 -31t-17.5 -52.5t-4 -82t4 -82t17.5 -52.5t38 -31t66 -8.5t66 8.5t37.5 31t17 52.5t4 82t-4 82t-17 52.5t-37.5 31t-66 8.5z" />
<glyph unicode="&#xf5;" d="M142 584l-42 62q73 62 120 62q32 0 81 -23.5t65 -23.5q31 0 82 44l45 -64q-20 -19 -55.5 -39t-60.5 -20q-19 0 -69.5 21.5t-80.5 21.5q-16 0 -38 -11t-31.5 -18t-15.5 -12zM293 509q64 0 110.5 -13.5t73.5 -35t42.5 -56.5t20.5 -70.5t5 -83.5t-5 -83.5t-20.5 -70.5 t-42.5 -56.5t-73.5 -35t-110.5 -13.5t-110 13.5t-73 35t-42.5 56.5t-20.5 70.5t-5 83.5t5 83.5t20.5 70.5t42.5 56.5t73 35t110 13.5zM293.5 424q-41.5 0 -66 -8.5t-38 -31t-17.5 -52.5t-4 -82t4 -82t17.5 -52.5t38 -31t66 -8.5t66 8.5t37.5 31t17 52.5t4 82t-4 82t-17 52.5 t-37.5 31t-66 8.5z" />
<glyph unicode="&#xf6;" d="M243 588h-118v108h118v-108zM462 588h-118v108h118v-108zM293 509q64 0 110.5 -13.5t73.5 -35t42.5 -56.5t20.5 -70.5t5 -83.5t-5 -83.5t-20.5 -70.5t-42.5 -56.5t-73.5 -35t-110.5 -13.5t-110 13.5t-73 35t-42.5 56.5t-20.5 70.5t-5 83.5t5 83.5t20.5 70.5t42.5 56.5 t73 35t110 13.5zM293.5 424q-41.5 0 -66 -8.5t-38 -31t-17.5 -52.5t-4 -82t4 -82t17.5 -52.5t38 -31t66 -8.5t66 8.5t37.5 31t17 52.5t4 82t-4 82t-17 52.5t-37.5 31t-66 8.5z" />
<glyph unicode="&#xf7;" horiz-adv-x="585" d="M360 459h-132v106h132v-106zM547 242h-510v102h510v-102zM360 21h-132v106h132v-106z" />
<glyph unicode="&#xf8;" d="M438 550l-20 -59q39 -13 65 -36.5t39 -56.5t18 -67.5t5 -80.5q0 -48 -5 -83.5t-20.5 -70.5t-42.5 -56.5t-73.5 -35t-110.5 -13.5q-21 0 -40 1l-14 -42h-90l19 58q-39 14 -65 37t-39 56.5t-17.5 68t-4.5 80.5q0 48 5 83.5t20.5 70.5t42.5 56.5t73 35t110 13.5q22 0 41 -2 l14 43h90zM306 423l-13 1q-41 0 -65.5 -8.5t-38 -31t-17.5 -52.5t-4 -82q0 -61 6.5 -95t25.5 -52zM281 77l12 -1q42 0 66.5 8.5t37.5 31t17 52.5t4 82q0 61 -6 95t-25 52z" />
<glyph unicode="&#xf9;" horiz-adv-x="590" d="M391 570h-97l-114 147h108zM182 500v-307q0 -106 90 -106q55 0 136 37v376h127v-500h-98l-11 41q-105 -50 -191 -50q-81 0 -130.5 43t-49.5 126v340h127z" />
<glyph unicode="&#xfa;" horiz-adv-x="590" d="M276 570h-97l103 147h108zM182 500v-307q0 -106 90 -106q55 0 136 37v376h127v-500h-98l-11 41q-105 -50 -191 -50q-81 0 -130.5 43t-49.5 126v340h127z" />
<glyph unicode="&#xfb;" horiz-adv-x="590" d="M502 621l-57 -67l-150 98l-150 -98l-56 67l206 134zM182 500v-307q0 -106 90 -106q55 0 136 37v376h127v-500h-98l-11 41q-105 -50 -191 -50q-81 0 -130.5 43t-49.5 126v340h127z" />
<glyph unicode="&#xfc;" horiz-adv-x="590" d="M244 588h-118v108h118v-108zM464 588h-119v108h119v-108zM182 500v-307q0 -106 90 -106q55 0 136 37v376h127v-500h-98l-11 41q-105 -50 -191 -50q-81 0 -130.5 43t-49.5 126v340h127z" />
<glyph unicode="&#xfd;" horiz-adv-x="560" d="M262 570h-98l103 147h108zM279 123l136 377h129l-209 -539q-33 -88 -106 -122q-44 -22 -135 -37l-16 89q70 12 103 31q36 20 52 60l7 18h-33l-191 500h128z" />
<glyph unicode="&#xfe;" horiz-adv-x="577" d="M194 750v-276q95 36 157 36q87 0 135.5 -63.5t48.5 -195.5q0 -261 -192 -261q-62 0 -149 28v-198h-127v930h127zM194 386v-278q76 -21 123 -21q49 0 70 38t21 126q0 90 -20.5 127t-61.5 37q-45 0 -132 -29z" />
<glyph unicode="&#xff;" horiz-adv-x="560" d="M230 588h-119v108h119v-108zM449 588h-118v108h118v-108zM279 123l136 377h129l-209 -539q-33 -88 -106 -122q-44 -22 -135 -37l-16 89q70 12 103 31q36 20 52 60l7 18h-33l-191 500h128z" />
<glyph unicode="&#x152;" horiz-adv-x="1044" d="M541 0v74q-55 -83 -195 -83q-55 0 -98.5 9.5t-74 25.5t-53 42t-35.5 54.5t-20.5 67.5t-10 75.5t-2.5 84t2.5 84t10 75.5t20.5 67t35.5 54.5t53 42.5t74 25.5t98.5 9.5q140 0 195 -83v75h460v-103h-331v-178h310v-102h-310v-214h337v-103h-466zM346 605q-44 0 -73.5 -9 t-48 -26t-27.5 -50t-12.5 -71t-3.5 -99.5t3.5 -99.5t12.5 -71t27.5 -50t48 -26t73.5 -9t73 9t47.5 26t28 50t12.5 71t3 99.5t-3 99.5t-12.5 71t-28 50t-47.5 26t-73 9z" />
<glyph unicode="&#x153;" horiz-adv-x="959" d="M885 120l17 -92q-128 -37 -225 -37q-130 1 -183 89q-25 -44 -72.5 -66.5t-128.5 -22.5q-64 0 -110 13.5t-73 35t-42.5 56.5t-20.5 70.5t-5 83.5t5 83.5t20.5 70.5t42.5 56.5t73 35t110 13.5q78 0 124.5 -21.5t70.5 -63.5q25 42 71 63.5t125 21.5q46 0 82.5 -7.5t61.5 -19 t43 -31t28 -39.5t16 -48.5t7.5 -54t1.5 -59.5v-37h-364q0 -64 33 -94.5t101 -30.5q77 0 191 32zM293.5 424q-41.5 0 -66 -8.5t-38 -31t-17.5 -52t-4 -82t4 -82t17.5 -52t38 -31t66 -8.5t66 8.5t37.5 31t17 52t4 82t-4 82t-17 52t-37.5 31t-66 8.5zM559 284h238q0 41 -4 65 t-15.5 42.5t-34 25.5t-59.5 7q-75 0 -100 -31t-25 -109z" />
<glyph unicode="&#x178;" horiz-adv-x="684" d="M291 788h-118v108h118v-108zM511 788h-119v108h119v-108zM407 246v-246h-130v246l-253 454h143l175 -338l175 338h143z" />
<glyph unicode="&#x2c6;" horiz-adv-x="487" d="M450 621l-56 -67l-150 98l-151 -98l-56 67l207 134z" />
<glyph unicode="&#x2dc;" horiz-adv-x="468" d="M80 584l-43 62q74 62 120 62q32 0 81.5 -23.5t65.5 -23.5q30 0 82 44l44 -64q-19 -19 -54.5 -39t-60.5 -20q-20 0 -70.5 21.5t-79.5 21.5q-17 0 -39 -11t-31.5 -18t-14.5 -12z" />
<glyph unicode="&#x2000;" horiz-adv-x="482" />
<glyph unicode="&#x2001;" horiz-adv-x="964" />
<glyph unicode="&#x2002;" horiz-adv-x="482" />
<glyph unicode="&#x2003;" horiz-adv-x="964" />
<glyph unicode="&#x2004;" horiz-adv-x="321" />
<glyph unicode="&#x2005;" horiz-adv-x="241" />
<glyph unicode="&#x2006;" horiz-adv-x="160" />
<glyph unicode="&#x2007;" horiz-adv-x="160" />
<glyph unicode="&#x2008;" horiz-adv-x="120" />
<glyph unicode="&#x2009;" horiz-adv-x="192" />
<glyph unicode="&#x200a;" horiz-adv-x="53" />
<glyph unicode="&#x2010;" horiz-adv-x="427" d="M390 240h-353v103h353v-103z" />
<glyph unicode="&#x2011;" horiz-adv-x="427" d="M390 240h-353v103h353v-103z" />
<glyph unicode="&#x2012;" horiz-adv-x="427" d="M390 240h-353v103h353v-103z" />
<glyph unicode="&#x2013;" horiz-adv-x="507" d="M469 240h-432v103h432v-103z" />
<glyph unicode="&#x2014;" horiz-adv-x="594" d="M556 240h-519v103h519v-103z" />
<glyph unicode="&#x2018;" horiz-adv-x="251" d="M164 546h-127l63 234h113z" />
<glyph unicode="&#x2019;" horiz-adv-x="251" d="M150 546h-113l50 234h126z" />
<glyph unicode="&#x201a;" horiz-adv-x="251" d="M150 -97h-113l49 234h127z" />
<glyph unicode="&#x201c;" horiz-adv-x="466" d="M164 546h-127l63 234h113zM379 546h-127l63 234h113z" />
<glyph unicode="&#x201d;" horiz-adv-x="466" d="M150 546h-113l49 234h127zM365 546h-113l49 234h127z" />
<glyph unicode="&#x201e;" horiz-adv-x="466" d="M150 -97h-113l49 234h127zM365 -97h-113l49 234h127z" />
<glyph unicode="&#x2022;" horiz-adv-x="258" d="M118 373h23q39 0 59.5 -20.5t20.5 -59.5v-23q0 -39 -20.5 -59.5t-59.5 -20.5h-23q-39 0 -60 20.5t-21 59.5v23q0 39 21 59.5t60 20.5z" />
<glyph unicode="&#x2026;" horiz-adv-x="757" d="M169 0h-132v145h132v-145zM444 0h-132v145h132v-145zM719 0h-132v145h132v-145z" />
<glyph unicode="&#x202f;" horiz-adv-x="192" />
<glyph unicode="&#x2039;" horiz-adv-x="336" d="M166 252l132 -186h-127l-134 186l134 186h127z" />
<glyph unicode="&#x203a;" horiz-adv-x="336" d="M298 252l-133 -186h-128l133 186l-133 186h128z" />
<glyph unicode="&#x205f;" horiz-adv-x="241" />
<glyph unicode="&#x20ac;" horiz-adv-x="655" d="M64 469h71q21 131 90 185.5t184 54.5q82 0 209 -27l-18 -102q-132 26 -180 26q-65 0 -102.5 -30.5t-50.5 -106.5h302v-77h-313l-1 -39v-35h288v-78h-277q12 -80 49.5 -113t104.5 -33q48 0 180 27l18 -102q-127 -27 -212 -27q-115 0 -183.5 57t-88.5 191h-97v78h89l-1 33 q0 23 1 41h-62v77z" />
<glyph unicode="&#x2122;" horiz-adv-x="850" d="M341 630h-111v-328h-88v328h-111v70h310v-70zM813 302h-88v245l-99 -194h-55l-99 194v-245h-88v398h101l113 -225l114 225h101v-398z" />
<glyph unicode="&#x25fc;" horiz-adv-x="500" d="M0 500h500v-500h-500v500z" />
<glyph unicode="&#xfb03;" horiz-adv-x="1127" d="M109 500v25q0 126 78 165q41 20 106 20q60 0 149 -17l-15 -88q-65 10 -92 10q-21 0 -36 -4q-33 -4 -48.5 -23.5t-15.5 -62.5v-25h309v25q0 126 79 165q40 20 106 20q59 0 149 -17l-16 -88q-64 10 -92 10q-20 0 -35 -4q-33 -4 -48.5 -23.5t-15.5 -62.5v-25h394v-500h-127 v405h-267v-405h-127v405h-309v-405h-126v405h-92v95h92zM1067 575h-130v116h130v-116z" />
<glyph unicode="&#xfb04;" horiz-adv-x="1208" d="M1063 700v-546q0 -36 11 -51t34 -16q22 -3 61 7l16 -88q-73 -16 -112 -16q-71 2 -103.5 39t-32.5 119v457h-75q-64 10 -92 10q-20 0 -35 -4q-33 -4 -48.5 -23.5t-15.5 -62.5v-25h173v-95h-173v-405h-127v405h-309v-405h-126v405h-92v95h92v25q0 126 78 165q41 20 106 20 q60 0 149 -17l-15 -88q-65 10 -92 10q-21 0 -36 -4q-33 -4 -48.5 -23.5t-15.5 -62.5v-25h309v25q0 126 79 165q40 20 106 20q45 0 108 -10h226z" />
</font>
</defs>
</svg>
