<?xml version="1.0" standalone="no"?> <!DOCTYPE svg PUBLIC "-//W3C//DTD SVG 1.0//EN" "http://www.w3.org/TR/2001/REC-SVG-20010904/DTD/svg10.dtd" > <svg xmlns="http://www.w3.org/2000/svg" width="100%" height="100%">
<defs >
<font id="Sanchez-Semibold" horiz-adv-x="594" ><font-face
    font-family="Sanchez"
    units-per-em="1000"
    panose-1="2 0 0 0 0 0 0 0 0 0"
    ascent="1205"
    descent="-329"
    alphabetic="0" />
<missing-glyph horiz-adv-x="313" />
<glyph unicode=" " glyph-name="space" horiz-adv-x="250" />
<glyph unicode="!" glyph-name="exclam" horiz-adv-x="292" d="M114 148Q100 148 100 161L89 747Q89 760 103 760H189Q202 760 202 747L191 161Q191 148 178 148H114ZM213 -9Q213 -37 194 -55T147 -74Q119 -74 100 -56T81 -9Q81 19 100 38T147 57Q174 57 193 38T213 -9Z" />
<glyph unicode="&quot;" glyph-name="quotedbl" horiz-adv-x="351" d="M78 551Q62 551 62 565L57 735Q57 750 71 750H131Q146 750 146 735L139 565Q137 551 124 551H78ZM226 551Q211 551 211 565L205 735Q205 750 220 750H280Q286 750 290 746T295 735L287 565Q287
551 273 551H226Z" />
<glyph unicode="#" glyph-name="numbersign" horiz-adv-x="621" d="M424 106L395 6Q392 -7 378 -7H311Q300 -7 300 2Q300 3 300 3T301 6L330 106H215L187 6Q183 -7 170 -7H103Q92 -7 92 1Q92 4 93 6L121 106H50Q37 106 37 119V169Q37 182 50 182H143L175 292H103Q89
292 89 306V355Q89 369 103 369H197L227 469Q230 483 243 483H311Q321 483 321 474Q321 471 320 469L291 369H406L435 469Q440 483 452 483H520Q529 483 529 475Q529 471 528 469L499 369H571Q584 369 584 355V306Q584 292 571 292H477L445 182H518Q531 182 531
169V119Q531 106 518 106H424ZM384 292H269L237 182H351L384 292Z" />
<glyph unicode="$" glyph-name="dollar" horiz-adv-x="666" d="M306 -83Q293 -83 293 -70V0Q237 14 203 42T151 96H147L149 44V42Q149 31 137 31H60Q47 31 47 44V241Q47 255 60 255H148Q160 255 160 241V233Q160 229 169 208T200 163T258 120T350 100Q413 100
449 126T485 200Q485 238 454 259T377 295T276 324T176 361T98 421T67 522Q67 564 82 599T125 662T193 705T286 724V792Q286 805 299 805H375Q387 805 387 792V718Q458 698 491 651L488 683Q488 696 502 696H578Q591 696 591 683V487Q591 473 578 473H491Q478 473
478 487V504Q478 519 469 538T441 574T390 603T315 615Q258 615 225 589T192 522Q192 491 210 471T259 436T328 412T407 390T487 365T556 329T605 276T624 199Q624 160 611 124T570 60T499 14T395 -7V-70Q395 -83 381 -83H306Z" />
<glyph unicode="%" glyph-name="percent" horiz-adv-x="782" d="M183 359Q114 359 74 408T33 544Q33 628 74 676T183 724Q250 724 290 676T331 544Q331 457 292 408T183 359ZM183 428Q218 428 237 457T257 542Q257 655 183 655Q147 655 128 626T108 542Q108 488
128 458T183 428ZM599 -7Q530 -7 490 42T449 178Q449 220 460 253T491 309T538 345T599 358Q666 358 706 310T747 178Q747 91 708 42T599 -7ZM599 62Q634 62 653 91T673 176Q673 232 654 260T599 289Q563 289 544 260T524 176Q524 122 544 92T599 62ZM231 -74Q221
-74 221 -66Q221 -63 222 -61L460 747Q464 760 478 760H533Q543 760 543 751V747L303 -61Q300 -74 287 -74H231Z" />
<glyph unicode="&amp;" glyph-name="ampersand" horiz-adv-x="684" d="M517 0Q489 0 467 34L454 54Q423 25 384 9T287 -7Q225 -7 180 10T103 56T57 122T42 197Q42 245 57 279T96 339T147 380T199 407Q190 417 180 432T162 467T147 508T141 555Q141 594 154 625T190
678T246 712T317 724Q354 724 386 714T442 683T480 631T494 560Q494 524 481 496T448 446T401 407T349 376L457 225Q467 248 469 277T472 357Q472 370 486 370H640Q653 370 653 357V298Q653 286 640 286H569Q567 252 556 212T523 132L550 92H617Q631 92 631 79V13Q631
0 617 0H517ZM257 328Q242 321 224 311T191 286T166 251T155 202Q155 174 165 153T193 117T235 95T288 87Q326 87 352 96T399 129L257 328ZM297 448Q315 457 332 465T362 486T382 514T390 555Q390 586 373 608T323 631Q288 631 268 610T248 551Q248 534 253 520T265
493T281 469T297 448Z" />
<glyph unicode="&apos;" glyph-name="quotesingle" horiz-adv-x="202" d="M78 551Q62 551 62 565L57 735Q57 750 71 750H131Q146 750 146 735L139 565Q137 551 124 551H78Z" />
<glyph unicode="(" glyph-name="parenleft" horiz-adv-x="420" d="M390 -53Q390 -68 375 -68Q319 -68 261 -44T154 32T76 162T45 351Q45 460 75 538T154 667T260 741T375 765Q390 765 390 750V677Q390 663 375 663Q338 663 299 644T227 586T173 488T152 348Q152
267 173 208T226 110T298 53T375 34Q390 34 390 20V-53Z" />
<glyph unicode=")" glyph-name="parenright" horiz-adv-x="420" d="M30 19Q30 34 44 34Q81 34 120 52T193 109T247 207T268 347Q268 427 247 486T194 585T121 643T44 662Q37 662 34 666T30 677V750Q30 764 44 764Q100 764 159 741T266 667T344 538T375 350Q375
240 345 161T266 31T159 -44T44 -69Q30 -69 30 -53V19Z" />
<glyph unicode="*" glyph-name="asterisk" horiz-adv-x="438" d="M196 416Q181 416 181 430L196 539L135 450Q130 444 124 444Q118 444 113 449L82 481Q77 486 77 492Q77 497 83 502L173 566L62 550H59Q47 550 47 564V609Q47 615 50 619T59 624H62L173 605L82
671Q77 673 77 681Q77 688 82 692L113 724Q118 729 124 729Q129 729 134 724L200 635L181 744Q181 758 196 758H241Q246 758 251 755T256 746V744L240 634L303 724Q306 729 313 729Q319 729 324 724L356 693Q361 688 361 681Q361 674 356 671L267 604L375 624H378Q383
624 386 620T390 610V565Q390 550 375 550L268 564L356 502Q361 497 361 493Q361 487 356 482L324 450Q320 445 313 445Q305 445 303 450L238 537L256 430V428Q256 423 251 420T241 416H196Z" />
<glyph unicode="+" glyph-name="plus" horiz-adv-x="506" d="M215 65Q202 65 202 78V226H56Q40 226 40 240V313Q40 328 56 328H202V482Q202 496 215 496H297Q310 496 310 482V328H451Q457 328 461 324T466 313V240Q466 234 462 230T451 226H310V78Q310 65 297 65H215Z" />
<glyph unicode="," glyph-name="comma" horiz-adv-x="238" d="M85 -71Q85 -67 92 -65T109 -59T125 -45T133 -16Q133 -12 133 -10T132 -6Q131 -4 131 -3Q130 -4 127 -5Q121 -7 113 -7Q91 -7 76 8T60 47Q60 70 76 86T115 102Q145 102 162 81T180 20Q180 -45 156
-73T92 -101Q85 -101 85 -96V-71Z" />
<glyph unicode="-" glyph-name="hyphen" horiz-adv-x="482" d="M81 211Q75 211 71 215T66 226V299Q66 305 70 309T81 313H401Q416 313 416 299V226Q416 211 401 211H81Z" />
<glyph unicode="." glyph-name="period" horiz-adv-x="229" d="M171 48Q171 24 155 9T115 -7Q92 -7 76 8T60 48Q60 71 76 87T115 103Q138 103 154 87T171 48Z" />
<glyph unicode="/" glyph-name="slash" horiz-adv-x="419" d="M44 -74Q34 -74 34 -66Q34 -63 35 -61L273 747Q276 760 290 760H374Q384 760 384 752Q384 749 383 747L145 -61Q141 -74 128 -74H44Z" />
<glyph unicode="0" glyph-name="zero" horiz-adv-x="698" d="M350 -7Q281 -7 226 18T133 92T73 208T52 363Q52 447 73 513T134 627T228 699T350 724Q417 724 471 699T565 627T625 514T647 363Q647 277 627 209T568 92T474 19T350 -7ZM350 99Q434 99 480 165T526
360Q526 485 480 552T350 619Q265 619 218 552T171 360Q171 235 219 167T350 99Z" />
<glyph unicode="1" glyph-name="one" horiz-adv-x="501" d="M66 0Q52 0 52 13V83Q52 96 66 96H224V593L97 503Q91 499 89 499Q83 499 79 506L38 565Q35 569 35 573Q35 578 41 583L223 712Q232 718 239 718H323Q337 718 337 705V96H478Q491 96 491 83V13Q491 0 478 0H66Z" />
<glyph unicode="2" glyph-name="two" horiz-adv-x="643" d="M64 0Q50 0 50 13V52Q50 110 67 152T114 225T179 279T254 320T329 356T395 392T441 437T459 497Q459 522 449 544T421 583T377 609T320 619Q283 619 255 609T208 581T180 539T170 488Q170 476 157 476H68Q55
476 55 488Q55 534 71 577T119 652T202 704T320 724Q385 724 433 706T514 657T563 587T580 505Q580 442 552 400T480 326T385 272T288 225T210 171T171 96H479V165Q479 178 492 178H572Q586 178 586 165V13Q586 0 572 0H64Z" />
<glyph unicode="3" glyph-name="three" horiz-adv-x="614" d="M428 370Q436 370 457 363T502 337T543 284T561 198Q561 152 542 115T487 50T403 8T292 -7Q229 -7 185 8T111 44T64 85T38 113Q33 118 33 122Q33 127 39 132L101 189Q106 194 110 194Q114 194 119
189Q131 178 146 163T181 133T229 109T292 99Q360 99 400 130T441 216Q441 322 295 322H248Q235 322 235 335V398Q235 413 248 413H282Q303 413 327 417T373 432T408 463T422 515Q422 557 392 588T296 620Q265 620 242 611T204 587T181 553T173 515Q173 502 160
502H77Q63 502 63 515Q63 612 123 668T296 724Q363 724 409 706T485 658T528 595T542 529Q542 487 527 457T492 409T453 381T428 372V370Z" />
<glyph unicode="4" glyph-name="four" horiz-adv-x="605" d="M226 0Q213 0 213 13V83Q213 96 226 96H351V221H31Q18 221 18 233V293Q18 303 20 310T32 329L338 701Q347 712 353 715T367 718H450Q463 718 463 705V313H541Q554 313 554 299V233Q554 221 541 221H463V96H546Q559
96 559 83V13Q559 0 546 0H226ZM351 573L133 306H351V573Z" />
<glyph unicode="5" glyph-name="five" horiz-adv-x="617" d="M295 -7Q233 -7 189 8T115 44T67 84T41 113Q36 118 36 122Q36 127 41 132L104 189Q109 194 113 194Q118 194 123 189Q134 177 148 162T182 132T230 109T295 99Q369 99 409 136T450 240Q450 297 411
334T293 371Q259 371 230 366T176 354T134 343T105 337Q97 337 90 343T83 366V708Q83 721 97 721H515Q528 721 528 708V564Q528 551 515 551H435Q422 551 422 564V622H197V450Q211 453 242 460T321 468Q383 468 430 451T508 402T554 328T570 234Q570 181 551 137T496
61T409 11T295 -7Z" />
<glyph unicode="6" glyph-name="six" horiz-adv-x="652" d="M357 464Q419 464 465 447T542 400T588 327T603 234Q603 183 585 139T533 63T449 12T336 -7Q270 -7 218 18T129 90T73 204T53 356Q53 443 73 511T132 627T226 699T351 724Q406 724 449 710T521 669T566
607T581 529Q581 516 568 516H485Q472 516 472 529Q472 543 465 559T443 588T405 611T351 620Q273 620 230 567T176 418Q187 424 204 432T245 447T296 459T357 464ZM335 99Q407 99 445 138T483 238Q483 295 445 331T329 367Q298 367 273 362T227 349T194 335T174
323Q179 217 219 158T335 99Z" />
<glyph unicode="7" glyph-name="seven" horiz-adv-x="564" d="M208 0Q195 0 195 13Q195 120 211 193T251 317T303 403T356 471T398 537T419 622H130V545Q130 532 116 532H36Q23 532 23 545V705Q23 718 36 718H535Q548 718 548 705V663Q548 598 531 553T487 470T429
395T372 307T329 187T311 14Q311 0 298 0H208Z" />
<glyph unicode="8" glyph-name="eight" horiz-adv-x="649" d="M464 382Q472 382 494 373T539 343T581 288T599 205Q599 160 581 121T529 54T443 9T325 -7Q259 -7 208 9T121 53T68 121T50 205Q50 254 68 288T109 343T154 373T184 382V384Q178 384 161 392T125 417T92
463T77 534Q77 565 90 598T132 660T209 706T324 724Q392 724 439 706T515 661T558 599T571 534Q571 492 557 464T524 418T488 392T464 384V382ZM313 332Q239 332 205 301T170 217Q170 160 210 127T325 94Q399 94 439 127T479 217Q479 269 444 300T337 332H313ZM452
516Q452 560 421 591T324 623Q291 623 267 615T227 591T204 557T196 516Q196 483 209 463T241 432T283 418T323 414Q342 414 365 417T407 432T439 463T452 516Z" />
<glyph unicode="9" glyph-name="nine" horiz-adv-x="650" d="M294 253Q232 253 186 270T109 317T63 390T48 483Q48 534 66 578T118 654T202 705T315 724Q381 724 433 699T522 627T578 513T598 361Q598 274 578 206T519 90T425 18T300 -7Q244 -7 202 7T130 48T85
110T70 188Q70 201 83 201H166Q179 201 179 188Q179 174 186 158T208 129T246 106T300 97Q378 97 421 150T475 299Q464 293 447 285T406 270T355 258T294 253ZM316 618Q244 618 206 579T168 479Q168 422 206 386T322 350Q352 350 378 355T423 368T457 382T477 394Q472
500 432 559T316 618Z" />
<glyph unicode=":" glyph-name="colon" horiz-adv-x="244" d="M177 48Q177 24 161 9T121 -7Q98 -7 82 8T66 48Q66 71 82 87T121 103Q145 103 161 87T177 48ZM177 432Q177 409 161 393T121 377Q98 377 82 393T66 432Q66 455 82 471T121 488Q145 488 161 472T177 432Z" />
<glyph unicode=";" glyph-name="semicolon" horiz-adv-x="259" d="M182 432Q182 409 166 393T126 377Q103 377 87 393T71 432Q71 455 87 471T126 488Q149 488 165 472T182 432ZM95 -71Q95 -67 102 -65T119 -59T135 -45T143 -16Q143 -12 143 -10T142 -6Q141 -4
141 -3Q140 -4 137 -5Q131 -7 123 -7Q101 -7 86 8T70 47Q70 70 86 86T125 102Q155 102 172 81T190 20Q190 -43 166 -70T102 -98Q95 -98 95 -93V-71Z" />
<glyph unicode="&lt;" glyph-name="less" horiz-adv-x="478" d="M52 223Q37 230 37 245V265Q37 280 52 288L394 450Q400 452 401 452Q409 452 409 442V383Q409 377 405 371T394 361L172 255L394 150Q401 147 405 141T409 128V69Q409 59 401 59Q400 59 394 61L52 223Z" />
<glyph unicode="=" glyph-name="equal" horiz-adv-x="504" d="M85 323Q79 323 75 327T71 338V411Q71 417 75 421T85 426H419Q426 426 430 422T434 411V338Q434 332 430 328T419 323H85ZM85 89Q71 89 71 103V176Q71 191 85 191H419Q434 191 434 176V103Q434 89 419 89H85Z" />
<glyph unicode="&gt;" glyph-name="greater" horiz-adv-x="479" d="M442 245Q442 229 426 223L84 61Q80 59 77 59Q70 59 70 69V128Q70 134 74 140T84 150L307 255L84 361Q78 364 74 370T70 383V442Q70 452 77 452Q80 452 84 450L426 288Q442 280 442 265V245Z" />
<glyph unicode="?" glyph-name="question" horiz-adv-x="551" d="M201 131Q187 131 187 144Q187 202 202 242T240 312T289 364T339 406T377 449T392 503Q392 555 362 587T276 619Q241 619 217 608T177 576T154 528T146 468Q146 455 133 455H47Q33 455 33 468Q33
518 45 564T85 646T160 703T276 724Q335 724 379 707T452 659T497 590T512 508Q512 459 496 426T456 366T405 319T353 273T313 218T297 144Q297 131 283 131H201ZM317 -4Q317 -33 297 -53T247 -74Q218 -74 197 -54T176 -4Q176 25 197 46T247 67Q276 67 296 46T317
-4Z" />
<glyph unicode="@" glyph-name="at" horiz-adv-x="800" d="M642 -59Q643 -62 643 -66Q643 -73 636 -76Q609 -90 574 -101Q544 -111 502 -118T406 -126Q331 -126 266 -100T153 -26T77 86T49 230Q49 314 80 386T165 512T290 595T440 625Q516 625 576 602T678 540T741
449T763 338Q763 271 742 221T685 136T605 85T514 68Q491 68 480 75T468 99V106L470 123Q470 123 464 114T446 94T415 74T371 65Q347 65 322 74T277 103T244 155T231 235Q231 283 247 322T290 388T352 429T426 444Q447 444 461 440T485 429T500 417T507 407L510
423Q513 434 523 434H566Q577 434 577 424V421L541 143H554Q579 143 601 156T641 195T669 255T680 335Q680 380 664 417T616 482T541 524T440 539Q373 539 318 513T224 445T163 346T141 230Q141 167 162 118T220 33T304 -20T406 -39Q457 -39 494 -34T555 -21Q583
-13 603 -3Q607 -1 609 -1Q615 -1 620 -9L642 -59ZM492 321Q492 325 489 334T478 352T458 368T427 375Q404 375 383 366T346 339T319 296T309 237Q309 211 316 193T335 163T362 147T392 142Q408 142 423 149T451 168T470 194T480 221L492 321Z" />
<glyph unicode="A" glyph-name="A" horiz-adv-x="725" d="M480 0Q467 0 467 13V83Q467 96 480 96H547L497 234H239L189 96H257Q270 96 270 83V13Q270 0 257 0H10Q-3 0 -3 13V83Q-3 96 10 96H77L276 622H214Q200 622 200 635V705Q200 718 214 718H377Q405 718 419
706T444 668L661 96H727Q741 96 741 83V13Q741 0 727 0H480ZM371 577H364L273 321H465L371 577Z" />
<glyph unicode="B" glyph-name="B" horiz-adv-x="680" d="M58 0Q45 0 45 13V83Q45 96 58 96H131V622H58Q45 622 45 635V705Q45 718 58 718H386Q435 718 474 704T542 664T584 602T599 522Q599 473 577 435T516 373Q582 351 610 307T638 206Q638 109 577 55T388
0H58ZM374 96Q441 96 481 125T522 216Q522 270 485 297T378 324H243V96H374ZM366 411Q388 411 409 417T446 435T473 467T483 512Q483 543 473 564T444 599T404 617T357 623H243V411H366Z" />
<glyph unicode="C" glyph-name="C" horiz-adv-x="754" d="M710 191Q716 185 716 180Q716 176 713 170Q710 164 701 149T675 113T634 72T575 34T495 5T393 -7Q321 -7 258 18T148 92T73 208T46 363Q46 450 74 517T149 631T258 700T386 724Q431 724 466 715T526 691T569
660T597 627L595 705Q595 718 608 718H685Q698 718 698 705V476Q698 463 685 463H598Q584 463 584 476V486Q584 504 571 527T533 571T473 605T393 619Q350 619 309 603T237 554T186 473T166 360Q166 296 186 247T240 165T315 115T401 98Q468 98 511 119T582 166T622
213T642 235Q644 235 649 232L710 191Z" />
<glyph unicode="D" glyph-name="D" horiz-adv-x="740" d="M58 0Q45 0 45 13V83Q45 96 58 96H131V622H58Q45 622 45 635V705Q45 718 58 718H329Q408 718 475 694T590 624T666 511T694 357Q694 273 669 207T600 95T494 25T359 0H58ZM320 96Q443 96 508 158T574 355Q574
485 508 553T314 622H243V96H320Z" />
<glyph unicode="E" glyph-name="E" horiz-adv-x="673" d="M58 0Q45 0 45 13V83Q45 96 58 96H131V622H58Q45 622 45 635V705Q45 718 58 718H604Q617 718 617 705V525Q617 512 604 512H524Q511 512 511 525V622H243V407H466Q480 407 480 394V324Q480 311 466 311H243V96H510V193Q510
206 524 206H604Q617 206 617 193V13Q617 0 604 0H58Z" />
<glyph unicode="F" glyph-name="F" horiz-adv-x="627" d="M58 0Q45 0 45 13V83Q45 96 58 96H131V622H58Q45 622 45 635V705Q45 718 58 718H592Q606 718 606 705V525Q606 512 592 512H512Q499 512 499 525V622H243V407H454Q467 407 467 394V324Q467 311 454 311H243V96H360Q373
96 373 83V13Q373 0 360 0H58Z" />
<glyph unicode="G" glyph-name="G" horiz-adv-x="774" d="M626 0Q613 0 613 13L614 74Q582 43 530 18T396 -7Q322 -7 259 18T148 92T73 208T46 363Q46 451 75 518T152 631T261 700T389 724Q434 724 468 716T528 695T570 667T597 636L595 705Q595 718 608 718H685Q698
718 698 705V484Q698 472 685 472H598Q584 472 584 484V496Q584 514 571 535T534 575T474 606T396 619Q351 619 309 601T236 550T185 468T166 360Q166 297 186 248T240 166T316 116T403 98Q442 98 473 106T529 126T572 153T602 183V251H421Q408 251 408 265V330Q408
344 421 344H698Q711 344 711 330V13Q711 0 698 0H626Z" />
<glyph unicode="H" glyph-name="H" horiz-adv-x="819" d="M503 0Q490 0 490 13V83Q490 96 503 96H576V311H243V96H316Q330 96 330 83V13Q330 0 316 0H58Q45 0 45 13V83Q45 96 58 96H131V622H58Q45 622 45 635V705Q45 718 58 718H316Q330 718 330 705V635Q330 622
316 622H243V406H576V622H503Q490 622 490 635V705Q490 718 503 718H761Q774 718 774 705V635Q774 622 761 622H688V96H761Q774 96 774 83V13Q774 0 761 0H503Z" />
<glyph unicode="I" glyph-name="I" horiz-adv-x="375" d="M58 0Q45 0 45 13V83Q45 96 58 96H131V622H58Q45 622 45 635V705Q45 718 58 718H316Q330 718 330 705V635Q330 622 316 622H243V96H316Q330 96 330 83V13Q330 0 316 0H58Z" />
<glyph unicode="J" glyph-name="J" horiz-adv-x="453" d="M232 622H159Q146 622 146 635V705Q146 718 159 718H417Q430 718 430 705V635Q430 622 417 622H344V285Q344 206 326 152T270 64T176 15T45 0Q32 0 32 13V83Q32 96 45 96Q99 96 135 107T192 141T223 197T232
273V622Z" />
<glyph unicode="K" glyph-name="K" horiz-adv-x="745" d="M602 0Q579 0 564 14T536 55L450 233Q446 241 441 249T426 264T403 275T367 280H243V96H335Q348 96 348 83V13Q348 0 335 0H58Q45 0 45 13V83Q45 96 58 96H131V622H58Q45 622 45 635V705Q45 718 58 718H298Q311
718 311 705V635Q311 622 298 622H243V371H327Q375 371 411 383T472 425T508 503T521 622H453Q440 622 440 635V705Q440 718 453 718H699Q712 718 712 705V635Q712 622 699 622H632Q631 507 599 435T507 325Q530 314 543 294T570 247L642 96H705Q718 96 718 83V13Q718
0 705 0H602Z" />
<glyph unicode="L" glyph-name="L" horiz-adv-x="639" d="M58 0Q45 0 45 13V83Q45 96 58 96H131V622H58Q45 622 45 635V705Q45 718 58 718H314Q330 718 330 703V637Q330 622 314 622H243V96H516V193Q516 206 529 206H609Q622 206 622 193V15Q622 0 607 0H58Z" />
<glyph unicode="M" glyph-name="M" horiz-adv-x="922" d="M621 0Q608 0 608 13V83Q608 96 621 96H678V538H676L513 101Q499 66 460 66Q442 66 428 75T407 101L246 538H243V96H300Q314 96 314 83V13Q314 0 300 0H58Q45 0 45 13V83Q45 96 58 96H131V622H58Q45 622
45 635V705Q45 718 58 718H242Q264 718 277 707T297 677L415 364Q422 344 429 323T444 282Q452 260 459 239H463Q470 260 478 281Q485 299 493 320T509 362L628 677Q635 696 648 707T684 718H863Q877 718 877 705V635Q877 622 863 622H791V96H863Q877 96 877 83V13Q877
0 863 0H621Z" />
<glyph unicode="N" glyph-name="N" horiz-adv-x="804" d="M601 0Q578 0 567 9T544 36L290 431Q280 446 272 461T258 488Q251 502 246 515H243V96H316Q330 96 330 83V13Q330 0 316 0H58Q45 0 45 13V83Q45 96 58 96H131V619H58Q45 619 45 632V705Q45 718 58 718H210Q234
718 245 706T268 677L515 294Q527 275 537 256T554 222T565 198T570 188H573V622H500Q487 622 487 635V705Q487 718 500 718H758Q772 718 772 705V635Q772 622 758 622H685V13Q685 0 672 0H601Z" />
<glyph unicode="O" glyph-name="O" horiz-adv-x="796" d="M398 -7Q324 -7 260 20T148 96T73 213T45 363Q45 450 75 517T154 631T267 700T398 724Q465 724 529 701T642 631T721 518T751 363Q751 278 724 210T650 93T538 19T398 -7ZM398 98Q443 98 485 115T559 167T611
249T631 360Q631 424 611 472T558 553T483 602T398 619Q355 619 314 603T239 554T186 473T165 360Q165 298 184 250T236 167T311 116T398 98Z" />
<glyph unicode="P" glyph-name="P" horiz-adv-x="643" d="M58 0Q45 0 45 13V83Q45 96 58 96H131V622H58Q45 622 45 635V705Q45 718 58 718H376Q429 718 473 701T550 653T601 579T619 482Q619 376 551 317T363 258H243V96H336Q349 96 349 83V13Q349 0 336 0H58ZM351
350Q426 350 464 381T503 482Q503 518 491 544T459 588T411 614T352 622H243V350H351Z" />
<glyph unicode="Q" glyph-name="Q" horiz-adv-x="796" d="M732 -91Q732 -93 732 -93T733 -96Q733 -104 725 -107Q720 -109 708 -114T678 -123T638 -131T589 -135Q514 -135 460 -113T371 -63Q330 -31 302 10Q246 24 199 55T117 132T64 236T45 363Q45 450 75 517T154
631T267 700T398 724Q465 724 529 701T642 631T721 518T751 363Q751 284 728 219T662 107T563 31T438 -5Q439 -7 449 -12T478 -24T525 -34T592 -39Q632 -39 654 -34T694 -21Q698 -19 701 -19Q707 -19 710 -25L732 -91ZM398 98Q443 98 485 115T559 167T611 249T631
360Q631 424 611 472T558 553T483 602T398 619Q355 619 314 603T239 554T186 473T165 360Q165 298 184 250T236 167T311 116T398 98Z" />
<glyph unicode="R" glyph-name="R" horiz-adv-x="706" d="M563 0Q539 0 524 14T496 55L410 230Q400 249 387 264T348 279H243V96H333Q346 96 346 83V13Q346 0 333 0H58Q45 0 45 13V83Q45 96 58 96H131V622H58Q45 622 45 635V705Q45 718 58 718H378Q431 718 475
703T552 660T603 589T622 494Q622 419 588 371T488 300Q508 283 531 240L605 96H668Q681 96 681 83V13Q681 0 668 0H563ZM350 368Q424 368 465 395T506 490Q506 527 494 552T461 593T412 615T350 622H243V368H350Z" />
<glyph unicode="S" glyph-name="S" horiz-adv-x="675" d="M67 0Q53 0 53 13V248Q53 261 67 261H154Q167 261 167 248V234Q167 230 176 209T208 163T269 119T364 99Q432 99 468 125T505 197Q505 234 473 255T393 291T289 320T185 358T105 420T73 522Q73 565 89
602T135 666T209 708T308 724Q380 724 425 703T497 651L495 706Q495 719 508 719H585Q597 719 597 706V480Q597 466 585 466H497Q484 466 484 480V504Q484 519 476 538T448 575T398 605T322 618Q260 618 227 591T193 522Q193 492 212 473T261 439T331 414T411 392T491
366T561 329T611 276T630 199Q630 159 616 122T572 56T496 10T383 -7Q330 -7 290 6T223 38T179 74T155 104L156 13Q156 0 143 0H67Z" />
<glyph unicode="T" glyph-name="T" horiz-adv-x="677" d="M213 0Q198 0 198 15V81Q198 96 213 96H284V622H125V526Q125 510 111 510H34Q19 510 19 526V703Q19 718 34 718H643Q657 718 657 703V526Q657 510 643 510H566Q551 510 551 526V622H396V96H464Q478 96
478 81V15Q478 0 464 0H213Z" />
<glyph unicode="U" glyph-name="U" horiz-adv-x="762" d="M542 622H469Q456 622 456 635V705Q456 718 469 718H727Q740 718 740 705V635Q740 622 727 622H654V269Q654 132 581 63T382 -7Q319 -7 268 10T182 62T127 148T107 269V622H35Q22 622 22 635V705Q22 718
35 718H293Q306 718 306 705V635Q306 622 293 622H220V265Q220 231 227 201T253 148T303 112T382 98Q424 98 454 110T503 144T532 195T542 260V622Z" />
<glyph unicode="V" glyph-name="V" horiz-adv-x="734" d="M344 0Q319 0 308 11T285 48L63 622H0Q-13 622 -13 635V705Q-13 718 0 718H251Q264 718 264 705V635Q264 622 251 622H185L364 144H371L548 622H484Q470 622 470 635V705Q470 718 484 718H734Q747 718
747 705V635Q747 622 734 622H670L449 48Q439 23 428 12T391 0H344Z" />
<glyph unicode="W" glyph-name="W" horiz-adv-x="1011" d="M670 0Q645 0 632 11T611 48L507 506H502L400 48Q393 22 380 11T341 0H295Q270 0 258 11T237 48L67 622H6Q-7 622 -7 635V705Q-7 718 6 718H256Q270 718 270 705V635Q270 622 256 622H188L315 144H322L453
718H557L689 144H696L823 622H755Q741 622 741 635V705Q741 718 755 718H1005Q1019 718 1019 705V635Q1019 622 1005 622H943L774 48Q766 22 754 11T716 0H670Z" />
<glyph unicode="X" glyph-name="X" horiz-adv-x="769" d="M469 0Q456 0 456 13V83Q456 96 469 96H525L381 280L238 96H297Q309 96 309 83V13Q309 0 297 0H36Q23 0 23 13V83Q23 96 36 96H110L316 351L106 622H36Q23 622 23 635V705Q23 718 36 718H297Q310 718 310
705V635Q310 622 297 622H236L385 426L533 623H475Q462 623 462 636V706Q462 719 475 719H736Q748 719 748 706V636Q748 623 736 623H660L451 355L654 96H730Q744 96 744 83V13Q744 0 730 0H469Z" />
<glyph unicode="Y" glyph-name="Y" horiz-adv-x="671" d="M204 0Q191 0 191 13V83Q191 96 204 96H279V282Q278 283 267 302T237 352T196 421T150 496T107 567T72 622H4Q-9 622 -9 635V705Q-9 718 4 718H262Q275 718 275 705V635Q275 622 262 622H201L337 380H342L476
622H412Q399 622 399 635V705Q399 718 412 718H667Q681 718 681 705V635Q681 622 667 622H599Q585 601 565 568T521 497T475 421T434 353T404 303T391 282V96H466Q479 96 479 83V13Q479 0 466 0H204Z" />
<glyph unicode="Z" glyph-name="Z" horiz-adv-x="658" d="M64 0Q49 0 49 15V76Q49 85 57 96T73 118L461 622H156V537Q156 523 141 523H64Q49 523 49 537V703Q49 718 64 718H595Q609 718 609 703V651Q609 637 602 625T585 601L197 96H502V181Q502 195 517 195H595Q609
195 609 181V15Q609 0 595 0H64Z" />
<glyph unicode="[" glyph-name="bracketleft" horiz-adv-x="385" d="M109 -71Q95 -71 95 -58V753Q95 766 109 766H338Q344 766 348 762T353 750V677Q353 670 349 666T338 662H205V33H338Q344 33 348 29T353 17V-56Q353 -63 349 -67T338 -71H109Z" />
<glyph unicode="\" glyph-name="backslash" horiz-adv-x="419" d="M383 -61Q384 -63 384 -66Q384 -74 374 -74H290Q277 -74 273 -61L35 747Q34 749 34 752Q34 760 44 760H128Q141 760 145 747L383 -61Z" />
<glyph unicode="]" glyph-name="bracketright" horiz-adv-x="385" d="M290 -58Q290 -71 276 -71H47Q32 -71 32 -56V17Q32 33 47 33H180V662H47Q32 662 32 677V750Q32 766 47 766H276Q290 766 290 753V-58Z" />
<glyph unicode="_" glyph-name="underscore" horiz-adv-x="619" d="M79 -125Q64 -125 64 -110V-37Q64 -22 79 -22H540Q555 -22 555 -37V-110Q555 -125 540 -125H79Z" />
<glyph unicode="`" glyph-name="grave" horiz-adv-x="311" d="M239 567Q234 561 228 561Q224 561 218 565L37 707Q32 712 32 717Q32 722 35 728L80 780Q84 786 92 786Q97 786 101 782L272 630Q278 625 278 619Q278 613 274 609L239 567Z" />
<glyph unicode="a" glyph-name="a" horiz-adv-x="560" d="M430 0Q385 0 385 44V89H383Q378 82 366 67T332 35T276 6T198 -7Q125 -7 79 30T33 133Q33 173 51 202T104 251T186 280T294 289H371V299Q371 357 341 380T259 404Q222 404 196 398T153 383T127 368T115
361Q113 361 113 361T110 360Q104 360 100 366L61 416Q57 420 57 424Q57 427 62 432Q63 433 75 444T113 467T175 489T265 499Q313 499 353 488T421 453T464 390T480 296V88H533Q546 88 546 75V13Q546 0 533 0H430ZM371 217H301Q268 217 240 214T192 204T159 183T147
150Q147 121 170 103T234 85Q260 85 282 92T321 111T350 135T371 158V217Z" />
<glyph unicode="b" glyph-name="b" horiz-adv-x="597" d="M87 0Q74 0 74 13V630H23Q10 630 10 643V705Q10 718 23 718H168Q181 718 181 705V457Q181 455 181 449T179 434L177 414H181Q186 426 197 441T228 469T273 490T333 499Q384 499 425 481T496 429T541 350T557
249Q557 189 541 142T494 61T423 11T332 -7Q297 -7 271 1T225 23T193 51T175 79H174V13Q174 0 161 0H87ZM313 85Q374 85 411 130T449 248Q449 285 439 314T410 364T366 396T313 407Q286 407 262 397T220 367T192 316T181 247Q181 209 191 179T219 128T261 96T313
85Z" />
<glyph unicode="c" glyph-name="c" horiz-adv-x="559" d="M506 118Q513 112 513 106Q513 101 510 98Q505 91 490 74T448 38T382 7T291 -7Q239 -7 194 10T114 60T59 140T39 248Q39 309 59 355T113 434T190 482T279 499Q315 499 341 491T385 472T415 449T432 429H433L432
479Q432 493 445 493H499Q512 493 512 479V301Q512 288 499 288H434Q420 288 420 301V317Q420 332 411 348T386 377T347 398T295 406Q270 406 244 396T197 366T163 317T150 247Q150 208 162 178T196 127T244 96T300 85Q330 85 355 94T400 115T431 139T447 157Q451
163 457 163Q461 163 466 160L506 118Z" />
<glyph unicode="d" glyph-name="d" horiz-adv-x="615" d="M470 0Q425 0 425 44V85H423Q418 72 406 56T374 26T327 3T265 -7Q215 -7 174 10T103 61T57 141T40 249Q40 304 56 350T101 429T173 480T267 499Q300 499 325 491T369 471T399 444T416 418H417Q416 423
416 429V453V630H364Q350 630 350 643V705Q350 718 364 718H510Q523 718 523 705V88H573Q586 88 586 75V13Q586 0 573 0H470ZM284 85Q312 85 336 96T378 128T406 179T416 247Q416 286 405 316T376 366T334 397T284 407Q226 407 187 365T148 248Q148 175 185 130T284
85Z" />
<glyph unicode="e" glyph-name="e" horiz-adv-x="551" d="M151 226Q154 189 167 163T201 119T247 93T300 85Q331 85 357 94T402 114T433 138T449 156Q452 162 458 162Q464 162 468 158L506 118Q512 112 512 106Q512 101 509 98Q505 91 490 74T448 38T382 7T291
-7Q239 -7 194 10T114 60T59 140T39 248Q39 309 60 355T115 434T193 482T281 499Q396 499 452 432T509 241Q509 226 495 226H151ZM404 298Q402 343 373 376T285 410Q235 410 199 383T154 298H404Z" />
<glyph unicode="f" glyph-name="f" horiz-adv-x="375" d="M52 0Q39 0 39 13V75Q39 88 52 88H104V404H51Q38 404 38 417V479Q38 492 51 492H104V544Q104 635 149 680T278 725Q304 725 324 719T358 705T383 689T398 676Q405 669 405 665Q405 663 401 657L367 611Q360
606 356 606Q352 606 348 609T336 617T318 626T290 630Q252 630 233 608T214 544V492H342Q355 492 355 479V417Q355 404 342 404H214V88H299Q312 88 312 75V13Q312 0 299 0H52Z" />
<glyph unicode="g" glyph-name="g" horiz-adv-x="611" d="M272 -235Q223 -235 188 -226T128 -204T90 -181T72 -165Q65 -161 65 -153Q65 -150 68 -145L105 -92Q108 -88 113 -88Q119 -88 127 -96T153 -114T197 -132T268 -141Q300 -141 327 -134T374 -111T405 -71T416
-13V80Q410 67 398 52T368 24T323 2T263 -7Q212 -7 171 11T100 64T56 144T40 246Q40 305 56 352T103 431T174 481T265 499Q299 499 325 491T371 469T403 442T421 415H423L422 479Q422 492 435 492H570Q583 492 583 479V417Q583 404 570 404H521V-13Q521 -70 502
-112T449 -181T370 -221T272 -235ZM283 85Q310 85 334 95T376 126T405 176T416 245Q416 284 406 314T377 365T335 395T283 406Q253 406 229 395T186 362T158 311T148 244Q148 171 186 128T283 85Z" />
<glyph unicode="h" glyph-name="h" horiz-adv-x="600" d="M450 0Q404 0 404 44V292Q404 343 383 373T310 403Q277 403 256 392T223 366T206 341T201 329V88H249Q262 88 262 75V13Q262 0 249 0H39Q26 0 26 13V75Q26 88 39 88H92V630H39Q26 630 26 643V705Q26 718
39 718H188Q201 718 201 705V494Q201 488 201 479T199 460T197 442T195 429H198Q205 439 216 451T245 474T286 492T343 499Q424 499 469 451T514 324V88H566Q580 88 580 75V13Q580 0 566 0H450Z" />
<glyph unicode="i" glyph-name="i" horiz-adv-x="304" d="M51 0Q38 0 38 13V75Q38 88 51 88H104V404H51Q38 404 38 417V479Q38 492 51 492H199Q213 492 213 479V88H261Q274 88 274 75V13Q274 0 261 0H51ZM228 642Q228 612 207 591T155 570Q125 570 104 591T83
642Q83 672 104 693T155 715Q185 715 206 694T228 642Z" />
<glyph unicode="j" glyph-name="j" horiz-adv-x="278" d="M93 404H40Q27 404 27 417V479Q27 492 40 492H189Q202 492 202 479V-54Q202 -145 157 -190T28 -235Q-8 -235 -32 -226T-71 -205Q-88 -192 -97 -175Q-97 -170 -93 -166L-60 -121Q-55 -116 -48 -116Q-44
-116 -40 -120T-28 -128T-11 -137T17 -141Q55 -141 74 -118T93 -54V404ZM216 642Q216 612 195 591T144 570Q113 570 92 591T71 642Q71 672 92 693T144 715Q174 715 195 694T216 642Z" />
<glyph unicode="k" glyph-name="k" horiz-adv-x="600" d="M492 0Q474 0 460 9T434 35L285 237L201 163V88H249Q262 88 262 75V13Q262 0 249 0H39Q26 0 26 13V75Q26 88 39 88H92V630H39Q26 630 26 643V705Q26 718 39 718H188Q201 718 201 705V265L355 404H321Q308
404 308 417V479Q308 492 321 492H530Q543 492 543 479V417Q543 404 530 404H479L359 300L517 88H568Q581 88 581 75V13Q581 0 568 0H492Z" />
<glyph unicode="l" glyph-name="l" horiz-adv-x="301" d="M44 0Q30 0 30 13V75Q30 88 44 88H96V630H44Q30 630 30 643V705Q30 718 44 718H181Q205 718 205 696V88H252Q266 88 266 75V13Q266 0 252 0H44Z" />
<glyph unicode="m" glyph-name="m" horiz-adv-x="914" d="M765 0Q719 0 719 44V292Q719 343 697 373T624 404Q600 404 583 397T553 380T534 359T522 341Q524 335 525 327T526 312V88H579Q592 88 592 75V13Q592 0 579 0H370Q357 0 357 13V75Q357 88 370 88H417V292Q417
343 396 373T323 404Q290 404 269 392T236 366T219 341T214 329V88H254Q267 88 267 75V13Q267 0 254 0H52Q39 0 39 13V75Q39 88 52 88H104V404H52Q39 404 39 417V479Q39 492 52 492H173Q187 492 193 487T200 467L199 413H202Q205 418 214 432T242 461T288 487T358
499Q412 499 449 477T505 416Q509 423 519 436T547 464T593 488T660 499Q741 499 784 451T828 324V88H881Q894 88 894 75V13Q894 0 881 0H765Z" />
<glyph unicode="n" glyph-name="n" horiz-adv-x="612" d="M463 0Q417 0 417 44V292Q417 343 396 373T323 404Q291 404 270 393T237 368T219 343T214 330V88H261Q274 88 274 75V13Q274 0 261 0H52Q39 0 39 13V75Q39 88 52 88H104V404H52Q39 404 39 417V479Q39 492
52 492H187Q200 492 200 479L199 413H202Q205 418 214 432T242 461T288 487T357 499Q438 499 482 451T526 324V88H579Q593 88 593 75V13Q593 0 579 0H463Z" />
<glyph unicode="o" glyph-name="o" horiz-adv-x="588" d="M294 -7Q238 -7 191 11T111 62T59 142T40 248Q40 306 59 353T113 432T193 481T294 499Q348 499 394 482T475 432T528 353T548 248Q548 189 530 142T478 62T397 11T294 -7ZM294 85Q324 85 350 96T396 129T426
180T437 247Q437 284 426 314T395 364T349 395T294 406Q265 406 239 395T194 364T163 314T151 247Q151 210 162 180T192 129T237 97T294 85Z" />
<glyph unicode="p" glyph-name="p" horiz-adv-x="612" d="M38 -225Q25 -225 25 -212V-150Q25 -137 38 -137H90V404H42Q29 404 29 417V479Q29 492 42 492H176Q189 492 189 479L188 415H191Q196 427 208 441T239 469T285 490T347 499Q396 499 437 482T509 432T555
352T572 246Q572 190 557 144T512 64T442 12T348 -7Q315 -7 289 1T244 21T214 47T196 74H193Q193 65 194 57Q195 50 195 43T196 30V-137H264Q277 -137 277 -150V-212Q277 -225 264 -225H38ZM329 85Q388 85 426 128T464 244Q464 281 454 311T426 362T383 394T329
406Q303 406 279 396T237 366T207 315T196 240Q196 201 207 172T237 124T280 95T329 85Z" />
<glyph unicode="q" glyph-name="q" horiz-adv-x="597" d="M349 -225Q335 -225 335 -212V-150Q335 -137 349 -137H416V34Q416 39 416 46T417 61Q418 70 419 80H416Q411 68 399 53T369 24T324 2T264 -7Q212 -7 171 11T100 64T56 144T40 246Q40 306 56 353T103 432T174
482T265 499Q299 499 326 491T372 470T403 443T421 416H423V479Q423 492 436 492H510Q523 492 523 479V-137H574Q587 -137 587 -150V-212Q587 -225 574 -225H349ZM284 85Q311 85 335 95T377 126T405 177T416 245Q416 284 406 314T377 365T335 396T284 407Q224 407
186 364T148 245Q148 171 186 128T284 85Z" />
<glyph unicode="r" glyph-name="r" horiz-adv-x="439" d="M52 0Q39 0 39 13V75Q39 88 52 88H104V404H52Q39 404 39 417V479Q39 492 52 492H187Q200 492 200 479V361H203Q216 398 243 428Q255 441 270 453T306 474T353 490T411 496Q426 496 426 481V403Q426 388
411 388H383Q344 388 313 375T260 339T226 289T214 231V88H261Q274 88 274 75V13Q274 0 261 0H52Z" />
<glyph unicode="s" glyph-name="s" horiz-adv-x="505" d="M275 -7Q238 -7 211 1T165 21T136 43T123 58H121Q121 47 122 38Q123 30 123 24T124 15Q124 0 109 0H58Q43 0 43 15V166Q43 181 57 181H117Q131 181 131 166V152Q140 132 157 116Q171 102 195 92T258 81Q302
81 325 96T348 140Q348 163 327 175T273 197T204 215T135 240T82 282T60 352Q60 419 107 459T233 499Q287 499 320 483T372 443H374Q373 452 372 460Q371 466 371 471T371 478Q371 485 375 488T386 492H434Q448 492 448 478V331Q448 325 444 321T433 317H374Q359
317 359 331V342Q359 352 353 364T333 386T298 403T248 410Q216 410 192 395T168 351Q168 325 190 312T245 289T316 271T387 247T442 206T464 136Q464 109 454 84T422 38T363 5T275 -7Z" />
<glyph unicode="t" glyph-name="t" horiz-adv-x="387" d="M383 62Q386 57 386 53Q386 54 381 45T361 24T322 3T261 -7Q178 -7 133 38T88 174V404H36Q20 404 20 419V477Q20 492 36 492H88V599Q88 605 92 609T102 614H182Q189 614 193 610T197 599V492H323Q329 492
333 488T338 477V419Q338 412 334 408T323 404H197V175Q197 133 215 110T272 87Q289 87 299 91T317 99T328 108T337 112Q342 112 349 107L383 62Z" />
<glyph unicode="u" glyph-name="u" horiz-adv-x="601" d="M458 0Q413 0 413 44V78H410Q407 72 399 58T374 30T330 4T262 -7Q221 -7 189 5T134 41T99 97T87 168V404H34Q21 404 21 417V479Q21 492 34 492H151Q196 492 196 448V200Q196 149 217 119T291 88Q322 88
343 99T376 123T394 149T400 162V404H351Q339 404 339 417V479Q339 492 351 492H496Q509 492 509 479V88H561Q574 88 574 75V13Q574 0 561 0H458Z" />
<glyph unicode="v" glyph-name="v" horiz-adv-x="598" d="M246 0Q232 0 227 4T217 22L73 404H21Q8 404 8 417V479Q8 492 21 492H228Q241 492 241 479V417Q241 404 228 404H190L297 104H299L411 404H370Q357 404 357 417V479Q357 492 370 492H578Q591 492 591 479V417Q591
404 578 404H523L379 22Q374 8 369 4T350 0H246Z" />
<glyph unicode="w" glyph-name="w" horiz-adv-x="833" d="M519 0Q504 0 497 6T486 26L418 319H415L345 26Q341 0 313 0H229Q215 0 209 6T198 26L74 404H22Q9 404 9 417V479Q9 492 22 492H230Q243 492 243 479V417Q243 404 230 404H188L273 104H275L354 404H325Q312
404 312 417V479Q312 492 325 492H508Q521 492 521 479V417Q521 404 508 404H481L558 104H560L644 404H603Q589 404 589 417V479Q589 492 603 492H810Q823 492 823 479V417Q823 404 810 404H756L634 26Q629 13 623 7T602 0H519Z" />
<glyph unicode="x" glyph-name="x" horiz-adv-x="584" d="M335 0Q322 0 322 13V75Q322 88 335 88H375L277 196L188 88H218Q232 88 232 75V13Q232 0 218 0H45Q31 0 31 13V75Q31 88 45 88H86L226 249L86 404H45Q32 404 32 417V479Q32 492 45 492H250Q263 492 263
479V417Q263 404 250 404H209L309 293L395 403H365Q352 403 352 416V478Q352 491 365 491H539Q552 491 552 478V416Q552 403 539 403H498L362 239L500 88H539Q553 88 553 75V13Q553 0 539 0H335Z" />
<glyph unicode="y" glyph-name="y" horiz-adv-x="584" d="M509 -13Q509 -70 490 -112T437 -181T357 -221T259 -235Q211 -235 176 -226T116 -204T78 -181T59 -165Q53 -161 53 -152Q53 -147 55 -145L92 -92Q95 -88 100 -88Q106 -88 115 -96T141 -113T185 -131T256
-139Q288 -139 316 -132T366 -110T399 -71T412 -13V78H410Q407 72 399 58T373 30T329 4T261 -7Q180 -7 134 41T87 168L86 404H33Q20 404 20 417V479Q20 492 33 492H150Q195 492 195 448V200Q195 149 217 119T290 89Q321 89 342 100T376 124T394 149T399 162V404H351Q338
404 338 417V479Q338 492 351 492H495Q508 492 508 479L509 -13Z" />
<glyph unicode="z" glyph-name="z" horiz-adv-x="549" d="M61 0Q48 0 48 13V67Q48 84 53 91T67 107L365 404H135V333Q135 320 122 320H61Q48 320 48 333V479Q48 492 61 492H488Q501 492 501 479V430Q501 407 482 390L183 88H414V158Q414 171 427 171H488Q501 171
501 158V13Q501 0 488 0H61Z" />
<glyph unicode="{" glyph-name="braceleft" horiz-adv-x="366" d="M329 -57Q329 -72 313 -72Q272 -72 236 -64T173 -37T129 16T113 101V202Q113 230 106 251T87 285T64 305T44 312Q38 312 34 316T30 327V368Q30 383 44 383Q52 383 64 390T87 410T105 444T113 493V590Q113
641 129 674T172 728T236 757T313 765Q329 765 329 750V677Q329 662 313 662Q267 662 246 645T224 579V494Q224 460 214 437T192 400Q178 383 161 372V324Q178 314 192 296Q204 281 214 258T224 201V112Q224 65 245 48T313 31Q329 31 329 16V-57Z" />
<glyph unicode="|" glyph-name="bar" horiz-adv-x="299" d="M108 -131Q94 -131 94 -118V747Q94 760 108 760H191Q204 760 204 747V-118Q204 -131 191 -131H108Z" />
<glyph unicode="}" glyph-name="braceright" horiz-adv-x="366" d="M53 -72Q37 -72 37 -57V16Q37 31 53 31Q99 31 120 48T142 112V201Q142 234 151 257T173 296Q187 314 205 324V372Q187 383 173 400Q161 414 152 437T142 494V579Q142 627 121 644T53 662Q37 662
37 677V750Q37 765 53 765Q93 765 129 757T193 729T237 675T253 590V493Q253 465 260 445T279 411T302 390T322 383Q328 383 332 379T337 368V327Q337 321 333 317T322 312Q314 312 302 306T279 286T261 251T253 202V101Q253 50 237 17T194 -36T130 -64T53 -72Z"
/>
<glyph unicode="&#xa0;" glyph-name="space" horiz-adv-x="250" />
<glyph unicode="&#xa1;" glyph-name="exclamdown" horiz-adv-x="280" d="M173 345Q187 345 187 332L198 -254Q198 -267 184 -267H98Q85 -267 85 -254L96 332Q96 345 109 345H173ZM76 501Q76 529 95 548T141 567Q169 567 188 548T207 501Q207 474 188 455T141 436Q114
436 95 455T76 501Z" />
<glyph unicode="&#xa2;" glyph-name="cent" horiz-adv-x="590" d="M266 -13Q253 -13 253 0V54Q210 61 173 81T108 132T65 207T49 304Q49 359 66 402T111 477T176 527T253 552V623Q253 636 266 636H324Q338 636 338 623V548Q383 539 408 520T442 485H445L442 536Q442
549 455 549H509Q523 549 523 536V358Q523 345 509 345H444Q431 345 431 358V373Q431 388 422 404T396 433T356 454T306 462Q281 462 255 452T208 423T174 373T160 304Q160 265 173 235T207 184T255 153T311 142Q341 142 366 151T410 172T441 196T457 214Q462 219
467 219Q471 219 476 216L517 174Q523 168 523 163Q523 158 520 154Q516 147 503 132T468 101T413 70T338 52V0Q338 -13 324 -13H266Z" />
<glyph unicode="&#xa3;" glyph-name="sterling" horiz-adv-x="653" d="M310 246Q307 198 282 160T228 99H589Q602 99 602 86V13Q602 0 589 0H79Q66 0 66 13V81Q66 97 77 104Q84 109 103 119T141 145T176 186T191 245V246H56Q43 246 43 258V309Q43 322 56 322H166Q155
341 143 360T119 400T101 445T93 498Q93 546 110 587T161 659T244 707T358 724Q414 724 458 708T534 663T582 593T599 502V486Q599 473 586 473H497Q484 473 484 486V502Q484 553 450 586T358 620Q329 620 304 613T258 589T227 547T215 487Q215 463 223 442T244
402T270 363T294 322H493Q506 322 506 309V258Q506 246 493 246H310Z" />
<glyph unicode="&#xa4;" glyph-name="currency" horiz-adv-x="645" d="M322 93Q230 93 168 137L104 64Q99 58 92 58Q86 58 82 62L74 70Q68 74 68 81Q68 87 72 91L136 164Q104 197 86 243T68 348Q68 405 86 450T136 528L72 602Q68 606 68 611Q68 618 74 623L82
630Q87 635 92 635Q99 635 104 629L168 555Q200 576 238 587T322 599Q366 599 404 588T474 555L539 629Q543 635 550 635Q555 635 560 630L569 623Q575 618 575 612Q575 607 570 602L506 528Q539 496 557 451T576 348Q576 290 558 243T506 163L570 91Q575 86 575
80Q575 74 569 70L560 62Q556 58 550 58Q543 58 539 64L475 137Q443 116 405 105T322 93ZM322 185Q352 185 378 196T424 229T454 280T465 347Q465 384 454 414T423 464T377 495T322 506Q293 506 267 495T221 464T190 414T178 347Q178 310 189 280T219 229T265 197T322
185Z" />
<glyph unicode="&#xa5;" glyph-name="yen" horiz-adv-x="750" d="M317 282Q316 283 304 302T274 353H151Q138 353 138 366V410Q138 424 151 424H231Q214 451 197 479T164 534T134 583T110 622H42Q29 622 29 635V705Q29 718 42 718H300Q313 718 313 705V635Q313
622 300 622H239L375 380H380L514 622H450Q437 622 437 635V705Q437 718 450 718H705Q719 718 719 705V635Q719 622 705 622H637Q626 606 612 583T582 534T549 480T515 424H596Q609 424 609 410V366Q609 353 596 353H472L429 282H551Q565 282 565 269V225Q565 212
551 212H429V96H504Q517 96 517 83V13Q517 0 504 0H242Q229 0 229 13V83Q229 96 242 96H317V212H196Q182 212 182 225V269Q182 282 196 282H317Z" />
<glyph unicode="&#xa6;" glyph-name="brokenbar" horiz-adv-x="302" d="M109 410Q96 410 96 423V747Q96 760 109 760H193Q206 760 206 747V423Q206 410 193 410H109ZM109 -131Q96 -131 96 -118V206Q96 219 109 219H193Q206 219 206 206V-118Q206 -131 193 -131H109Z" />
<glyph unicode="&#xa7;" glyph-name="section" horiz-adv-x="686" d="M632 199Q632 165 623 134T593 77Q611 57 621 32T632 -26Q632 -66 618 -103T574 -169T497 -215T385 -232Q333 -232 294 -220T226 -190T180 -155T156 -126L158 -212Q158 -225 144 -225H68Q55
-225 55 -212V24Q55 37 68 37H155Q168 37 168 24V11Q168 7 177 -15T208 -61T268 -105T361 -125Q427 -125 464 -99T502 -26Q502 10 471 30T391 64T288 93T185 132T106 194T74 297Q74 333 84 362T112 415Q94 435 84 461T74 522Q74 565 90 602T136 666T210 708T309
724Q381 724 427 703T499 651L497 706V708Q497 719 510 719H586Q599 719 599 706V480Q599 466 586 466H499Q486 466 486 480V504Q486 519 478 538T450 574T400 604T324 616Q264 616 231 590T197 522Q197 484 229 463T309 426T414 397T519 359T600 299T632 199ZM507
199Q507 234 479 254T406 290T310 318T209 351Q192 328 192 297Q192 261 220 239T291 202T387 173T488 141Q507 166 507 199Z" />
<glyph unicode="&#xa8;" glyph-name="dieresis" horiz-adv-x="331" d="M130 607Q130 584 115 569T76 553Q54 553 39 568T23 607Q23 630 38 645T76 661Q99 661 114 646T130 607ZM309 607Q309 584 293 569T254 553Q231 553 216 568T201 607Q201 630 216 645T254
661Q277 661 293 646T309 607Z" />
<glyph unicode="&#xa9;" glyph-name="copyright" horiz-adv-x="701" d="M648 348Q648 288 624 234T560 140T465 75T351 51Q291 51 237 75T143 139T78 234T54 348Q54 408 78 462T142 556T237 621T351 645Q411 645 465 621T559 557T624 462T648 348ZM585 348Q585
396 567 438T517 512T442 562T351 581Q302 581 260 563T186 513T136 439T117 348Q117 300 135 258T185 184T259 134T351 115Q399 115 442 133T516 183T566 257T585 348ZM484 265Q489 260 489 257Q489 254 481 241T455 213T412 187T349 175Q316 175 286 187T232
221T196 276T182 351Q182 393 195 425T232 480T285 515T349 527Q386 527 413 515T456 488T481 460T489 444Q489 440 485 437L447 410Q443 408 441 408Q439 408 436 412Q427 428 408 443T349 458Q312 458 284 432T255 352Q255 298 284 271T352 244Q378 244 394 251T419
268T434 284T442 292Q443 292 447 290L484 265Z" />
<glyph unicode="&#xaa;" glyph-name="ordfeminine" horiz-adv-x="357" d="M135 471Q98 471 74 490T49 545Q49 620 164 620H214V622Q214 645 204 658T162 671Q128 671 113 661T95 651Q90 651 88 654L66 682Q64 684 64 686Q64 688 67 690Q76 699 90 707Q102 713
120 718T165 724Q272 724 272 619V523H299Q305 523 305 518V481Q305 475 299 475H244Q221 475 221 497V511H220Q217 508 211 502T195 488T170 476T135 471ZM154 522Q177 522 191 530T214 549V585L167 586Q137 587 124 579T111 554Q111 538 122 530T154 522Z" />
<glyph unicode="&#xab;" glyph-name="guillemotleft" horiz-adv-x="579" d="M57 214Q42 224 42 239V262Q42 269 46 275T57 286L284 443Q290 445 292 445Q299 445 299 437V377Q299 363 284 353L135 250L284 147Q299 137 299 123V63Q299 54 291 54Q287 54 284 57L57
214ZM274 214Q259 224 259 239V262Q259 269 263 275T274 286L502 443Q506 445 509 445Q516 445 516 437V377Q516 363 502 353L352 250L502 147Q516 136 516 123V63Q516 54 509 54Q505 54 502 57L274 214Z" />
<glyph unicode="&#xac;" glyph-name="logicalnot" horiz-adv-x="641" d="M490 141Q477 141 477 154V314H78Q72 314 68 318T63 328V388Q63 395 67 399T78 403H554Q568 403 568 388V154Q568 141 555 141H490Z" />
<glyph unicode="&#xae;" glyph-name="registered" horiz-adv-x="701" d="M648 348Q648 288 624 234T560 140T465 75T351 51Q291 51 237 75T143 139T78 234T54 348Q54 408 78 462T142 556T237 621T351 645Q411 645 465 621T559 557T624 462T648 348ZM351 108Q400
108 444 127T520 178T571 254T590 348Q590 397 571 441T520 517T444 568T351 587Q301 587 258 568T182 517T130 441T111 348Q111 298 130 255T181 179T257 127T351 108ZM441 179Q431 179 426 185T416 201L365 298Q359 309 354 313T341 318H304V236H337Q343 236
343 231V185Q343 179 337 179H219Q214 179 214 185V231Q214 236 219 236H245V469H219Q214 469 214 475V521Q214 526 219 526H365Q415 526 447 500T479 420Q479 383 461 359T411 325Q414 321 417 315T426 300L460 237H493Q498 237 498 232V185Q498 179 493 179H441ZM362
370Q417 370 417 419Q417 442 403 455T362 469H304V370H362Z" />
<glyph unicode="&#xaf;" glyph-name="macron" horiz-adv-x="399" d="M46 552Q32 552 32 567V626Q32 632 36 636T46 641H353Q359 641 363 637T367 626V567Q367 552 353 552H46Z" />
<glyph unicode="&#xb0;" glyph-name="degree" horiz-adv-x="263" d="M130 417Q102 417 80 436T58 496Q58 529 79 551T130 573Q162 573 183 551T205 496Q205 456 183 437T130 417ZM130 460Q143 460 152 469T162 496Q162 511 153 520T130 530Q119 530 110 521T100
496Q100 478 109 469T130 460Z" />
<glyph unicode="&#xb1;" glyph-name="plusminus" horiz-adv-x="552" d="M238 177Q224 177 224 191V338H78Q64 338 64 354V426Q64 441 78 441H224V595Q224 608 238 608H320Q333 608 333 595V441H474Q488 441 488 426V354Q488 338 474 338H333V191Q333 177 320 177H238ZM78
25Q64 25 64 40V112Q64 128 78 128H474Q488 128 488 112V40Q488 25 474 25H78Z" />
<glyph unicode="&#xb2;" glyph-name="twosuperior" horiz-adv-x="400" d="M72 362Q63 362 63 370V397Q63 434 77 458T114 498T161 525T208 547T244 572T258 609Q258 635 242 648T199 662Q166 662 148 647T130 603Q130 596 123 596H73Q66 596 66 603Q66 626 74
648T98 687T139 714T199 724Q232 724 256 715T297 691T322 655T330 614Q330 582 317 560T282 523T237 497T190 475T152 451T132 419H273V452Q273 460 281 460H328Q336 460 336 452V370Q336 362 327 362H72Z" />
<glyph unicode="&#xb3;" glyph-name="threesuperior" horiz-adv-x="367" d="M177 359Q141 359 117 369T77 391T55 413T48 423Q48 425 50 427L85 459Q87 461 89 461Q90 461 94 459Q105 447 124 434T177 420Q245 420 245 469Q245 493 229 506T178 520H156Q149 520
149 527V563Q149 571 156 571H172Q182 571 193 573T213 580T228 595T234 618Q234 637 221 649T179 662Q155 662 141 651T126 621Q126 613 119 613H70Q63 613 63 621Q63 668 93 696T179 724Q213 724 236 715T275 691T296 660T303 627Q303 606 296 592T280 568T261
553T248 548Q252 547 263 543T285 529T305 502T314 460Q314 415 277 387T177 359Z" />
<glyph unicode="&#xb4;" glyph-name="acute" horiz-adv-x="311" d="M92 564Q87 561 83 561Q75 561 71 567L36 608Q32 612 32 618Q32 625 38 630L209 781Q213 785 218 785Q225 785 230 780L275 727Q278 722 278 717Q278 711 273 706L92 564Z" />
<glyph unicode="&#xb5;" glyph-name="mu" horiz-adv-x="608" d="M465 0Q420 0 420 44V78H417Q414 72 406 58T381 30T337 4T269 -7Q250 -7 234 -5T202 3V-212Q202 -225 189 -225H107Q94 -225 94 -212V404H41Q28 404 28 417V479Q28 492 41 492H158Q203 492 203 448V200Q203
149 224 119T298 88Q329 88 350 99T383 123T401 149T407 162V404H358Q346 404 346 417V479Q346 492 358 492H503Q516 492 516 479V88H568Q581 88 581 75V13Q581 0 568 0H465Z" />
<glyph unicode="&#xb6;" glyph-name="paragraph" horiz-adv-x="734" d="M517 -78Q504 -78 504 -65V619H434V-65Q434 -78 421 -78H333Q319 -78 319 -65V236H279Q225 236 180 250T103 293T52 366T34 473Q34 534 52 580T101 657T176 703T269 718H657Q670 718 670
705V632Q670 619 657 619H619V-65Q619 -78 606 -78H517Z" />
<glyph unicode="&#xb7;" glyph-name="periodcentered" horiz-adv-x="238" d="M174 298Q174 274 158 259T119 243Q96 243 80 258T64 298Q64 321 80 337T119 353Q142 353 158 337T174 298Z" />
<glyph unicode="&#xb8;" glyph-name="cedilla" horiz-adv-x="241" d="M120 -159Q102 -159 88 -155T64 -147T47 -138T39 -133Q33 -130 33 -122Q33 -117 35 -114L46 -93Q50 -87 56 -87Q63 -87 74 -95T112 -103Q143 -103 143 -82Q143 -70 133 -66T112 -61T90 -58T80
-50Q80 -49 82 -43L102 18H158L144 -23Q147 -23 157 -24T179 -30T200 -47T209 -81Q209 -117 186 -138T120 -159Z" />
<glyph unicode="&#xb9;" glyph-name="onesuperior" horiz-adv-x="338" d="M81 362Q72 362 72 371V412Q72 420 81 420H154V647L88 599Q84 597 83 597Q79 597 78 600L52 636Q51 637 51 639Q51 642 55 646L153 718Q156 721 165 721H215Q223 721 223 712L224 420H284Q293
420 293 412V371Q293 362 284 362H81Z" />
<glyph unicode="&#xba;" glyph-name="ordmasculine" horiz-adv-x="334" d="M167 471Q143 471 121 480T83 505T56 545T46 599Q46 629 56 652T82 691T121 715T167 724Q191 724 212 716T250 691T277 652T287 599Q287 570 278 546T252 506T213 480T167 471ZM167 523Q194
523 214 542T235 598Q235 635 214 654T167 673Q142 673 121 654T99 598Q99 562 119 543T167 523Z" />
<glyph unicode="&#xbb;" glyph-name="guillemotright" horiz-adv-x="579" d="M294 57Q291 54 287 54Q280 54 280 63V123Q280 130 284 136T294 147L444 250L294 353Q289 358 285 364T280 377V437Q280 446 287 446Q289 446 294 443L522 286Q528 281 532 275T537
262V239Q537 224 522 214L294 57ZM77 57Q72 54 69 54Q63 54 63 63V123Q63 130 67 136T77 147L227 250L77 353Q63 363 63 377V437Q63 446 70 446Q72 446 77 443L305 286Q311 281 315 275T320 262V239Q320 232 316 226T305 214L77 57Z" />
<glyph unicode="&#xbc;" glyph-name="onequarter" horiz-adv-x="684" d="M182 -74Q172 -74 172 -66Q172 -63 173 -61L411 747Q414 760 428 760H487Q498 760 498 752Q498 749 497 747L258 -61Q254 -74 241 -74H182ZM49 362Q39 362 39 371V412Q39 420 49 420H122V647L56
599Q52 597 51 597Q47 597 46 600L20 636Q19 637 19 639Q19 642 23 646L120 718Q124 721 132 721H183Q190 721 190 712L191 420H251Q261 420 261 412V371Q261 362 251 362H49ZM487 0Q480 0 480 7V52Q480 58 487 58H550V112H387Q380 112 380 118V153Q380 160 388
171L544 351Q549 356 551 357T558 359H611Q618 359 618 353V166H655Q662 166 662 159V118Q662 112 655 112H618V58H651Q657 58 657 52V7Q657 0 651 0H487ZM550 275L448 159H550V275Z" />
<glyph unicode="&#xbd;" glyph-name="onehalf" horiz-adv-x="734" d="M182 -74Q172 -74 172 -66Q172 -63 173 -61L411 747Q414 760 428 760H487Q498 760 498 752Q498 749 497 747L258 -61Q254 -74 241 -74H182ZM49 362Q39 362 39 371V412Q39 420 49 420H122V647L56
599Q52 597 51 597Q47 597 46 600L20 636Q19 637 19 639Q19 642 23 646L120 718Q124 721 132 721H183Q190 721 190 712L191 420H251Q261 420 261 412V371Q261 362 251 362H49ZM400 0Q391 0 391 8V35Q391 72 405 96T442 136T489 163T536 185T572 210T586 247Q586
273 570 286T527 300Q494 300 476 285T458 241Q458 234 451 234H401Q394 234 394 241Q394 264 402 286T426 325T467 352T527 362Q560 362 584 353T625 329T650 293T658 252Q658 220 645 198T610 161T565 135T518 113T480 89T460 57H601V90Q601 98 609 98H656Q664
98 664 90V8Q664 0 655 0H400Z" />
<glyph unicode="&#xbe;" glyph-name="threequarters" horiz-adv-x="724" d="M220 -74Q210 -74 210 -65Q210 -64 210 -64T211 -61L449 747Q453 760 467 760H526Q536 760 536 753Q536 749 535 747L297 -61Q293 -74 280 -74H220ZM526 0Q519 0 519 7V52Q519 58 526
58H589V112H426Q419 112 419 118V153Q419 158 420 161T427 171L582 351Q587 356 590 357T597 359H650Q657 359 657 353V166H694Q701 166 701 159V118Q701 112 694 112H657V58H690Q696 58 696 52V7Q696 0 690 0H526ZM589 275L486 159H589V275ZM144 359Q108 359 84
369T44 391T22 413T15 423Q15 425 17 427L52 459Q54 461 56 461Q57 461 61 459Q72 447 91 434T144 420Q212 420 212 469Q212 493 196 506T145 520H123Q116 520 116 527V563Q116 571 123 571H139Q149 571 160 573T180 580T195 595T201 618Q201 637 188 649T146 662Q122
662 108 651T93 621Q93 613 86 613H37Q30 613 30 621Q30 668 60 696T146 724Q180 724 203 715T242 691T263 660T270 627Q270 606 263 592T247 568T228 553T215 548Q219 547 230 543T252 529T272 502T281 460Q281 415 244 387T144 359Z" />
<glyph unicode="&#xbf;" glyph-name="questiondown" horiz-adv-x="540" d="M343 293Q356 293 356 280Q356 222 341 182T303 112T254 61T205 19T167 -25T152 -79Q152 -131 182 -163T268 -195Q304 -195 328 -184T368 -152T390 -104T397 -44Q397 -31 410 -31H498Q511
-31 511 -44Q511 -94 499 -140T459 -221T384 -278T268 -299Q209 -299 165 -282T91 -235T46 -166T31 -84Q31 -36 47 -2T87 58T139 105T191 151T231 206T247 280Q247 293 261 293H343ZM226 433Q226 462 247 483T297 504Q327 504 347 483T368 433Q368 404 348 384T297
363Q268 363 247 383T226 433Z" />
<glyph unicode="&#xc0;" glyph-name="Agrave" horiz-adv-x="725" d="M480 0Q467 0 467 13V83Q467 96 480 96H547L497 234H239L189 96H257Q270 96 270 83V13Q270 0 257 0H10Q-3 0 -3 13V83Q-3 96 10 96H77L276 622H214Q200 622 200 635V705Q200 718 214 718H377Q405
718 419 706T444 668L661 96H727Q741 96 741 83V13Q741 0 727 0H480ZM371 577H364L273 321H465L371 577ZM420 793Q415 787 409 787Q405 787 399 791L218 933Q213 938 213 943Q213 948 216 954L261 1006Q265 1012 273 1012Q278 1012 282 1008L453 856Q459 851 459
845Q459 839 455 835L420 793Z" />
<glyph unicode="&#xc1;" glyph-name="Aacute" horiz-adv-x="725" d="M480 0Q467 0 467 13V83Q467 96 480 96H547L497 234H239L189 96H257Q270 96 270 83V13Q270 0 257 0H10Q-3 0 -3 13V83Q-3 96 10 96H77L276 622H214Q200 622 200 635V705Q200 718 214 718H377Q405
718 419 706T444 668L661 96H727Q741 96 741 83V13Q741 0 727 0H480ZM371 577H364L273 321H465L371 577ZM371 790Q366 787 362 787Q354 787 350 793L315 834Q311 838 311 844Q311 851 317 856L488 1007Q492 1011 497 1011Q504 1011 509 1006L554 953Q557 948 557
943Q557 937 552 932L371 790Z" />
<glyph unicode="&#xc2;" glyph-name="Acircumflex" horiz-adv-x="725" d="M480 0Q467 0 467 13V83Q467 96 480 96H547L497 234H239L189 96H257Q270 96 270 83V13Q270 0 257 0H10Q-3 0 -3 13V83Q-3 96 10 96H77L276 622H214Q200 622 200 635V705Q200 718 214 718H377Q405
718 419 706T444 668L661 96H727Q741 96 741 83V13Q741 0 727 0H480ZM371 577H364L273 321H465L371 577ZM503 794Q498 788 492 788Q487 788 483 792L363 895L244 792Q240 788 235 788Q227 788 223 794L189 834Q185 840 185 844Q185 851 191 856L354 1000Q358 1004
363 1004Q369 1004 375 998L536 856Q542 850 542 844Q542 838 538 834L503 794Z" />
<glyph unicode="&#xc3;" glyph-name="Atilde" horiz-adv-x="725" d="M480 0Q467 0 467 13V83Q467 96 480 96H547L497 234H239L189 96H257Q270 96 270 83V13Q270 0 257 0H10Q-3 0 -3 13V83Q-3 96 10 96H77L276 622H214Q200 622 200 635V705Q200 718 214 718H377Q405
718 419 706T444 668L661 96H727Q741 96 741 83V13Q741 0 727 0H480ZM371 577H364L273 321H465L371 577ZM519 925Q532 925 532 912Q532 852 508 818T433 783Q403 783 384 791T349 810T321 828T290 837Q273 837 265 828T257 786Q257 773 244 773H201Q188 773 188
786Q188 843 212 876T286 909Q314 909 333 900T367 881T397 862T429 853Q446 853 454 865T463 912Q463 925 476 925H519Z" />
<glyph unicode="&#xc4;" glyph-name="Adieresis" horiz-adv-x="725" d="M480 0Q467 0 467 13V83Q467 96 480 96H547L497 234H239L189 96H257Q270 96 270 83V13Q270 0 257 0H10Q-3 0 -3 13V83Q-3 96 10 96H77L276 622H214Q200 622 200 635V705Q200 718 214 718H377Q405
718 419 706T444 668L661 96H727Q741 96 741 83V13Q741 0 727 0H480ZM371 577H364L273 321H465L371 577ZM329 833Q329 810 314 795T275 779Q253 779 238 794T222 833Q222 856 237 871T275 887Q298 887 313 872T329 833ZM508 833Q508 810 492 795T453 779Q430 779
415 794T400 833Q400 856 415 871T453 887Q476 887 492 872T508 833Z" />
<glyph unicode="&#xc5;" glyph-name="Aring" horiz-adv-x="725" d="M480 0Q467 0 467 13V83Q467 96 480 96H547L497 234H239L189 96H257Q270 96 270 83V13Q270 0 257 0H10Q-3 0 -3 13V83Q-3 96 10 96H77L276 622H214Q200 622 200 635V705Q200 718 214 718H377Q405
718 419 706T444 668L661 96H727Q741 96 741 83V13Q741 0 727 0H480ZM371 577H364L273 321H465L371 577ZM420 831Q412 814 396 805T363 795Q335 795 318 814T300 859Q300 888 320 904T364 920Q392 920 409 901T426 857Q426 843 420 831ZM386 849Q388 855 388 858Q388
867 381 874T364 882Q353 882 346 876T339 858Q339 848 346 841T363 834Q371 834 377 837T386 849Z" />
<glyph unicode="&#xc6;" glyph-name="AE" horiz-adv-x="1011" d="M403 0Q390 0 390 13V83Q390 96 403 96H476V311H271L184 96H252Q265 96 265 83V13Q265 0 252 0H4Q-9 0 -9 13V83Q-9 96 4 96H71L288 622H227Q214 622 214 635V705Q214 718 227 718H949Q962 718
962 705V525Q962 512 949 512H869Q856 512 856 525V622H588V407H811Q825 407 825 394V324Q825 311 811 311H588V96H855V193Q855 206 869 206H949Q962 206 962 193V13Q962 0 949 0H403ZM476 622H400L310 407H476V622Z" />
<glyph unicode="&#xc7;" glyph-name="Ccedilla" horiz-adv-x="754" d="M382 -159Q364 -159 350 -155T326 -147T309 -138T301 -133Q295 -130 295 -122Q295 -117 297 -114L308 -93Q312 -87 318 -87Q325 -87 336 -95T374 -103Q405 -103 405 -82Q405 -70 395 -66T374
-61T352 -58T342 -50Q342 -49 344 -43L356 -5Q291 1 235 29T136 104T70 217T46 363Q46 450 74 517T149 631T258 700T386 724Q431 724 466 715T526 691T569 660T597 627L595 705Q595 718 608 718H685Q698 718 698 705V476Q698 463 685 463H598Q584 463 584 476V486Q584
504 571 527T533 571T473 605T393 619Q350 619 309 603T237 554T186 473T166 360Q166 296 186 247T240 165T315 115T401 98Q468 98 511 119T582 166T622 213T642 235Q644 235 649 232L710 191Q716 185 716 180Q716 176 713 170Q708 161 691 133T638 75T547 21T411
-6L406 -23Q409 -23 419 -24T441 -30T462 -47T471 -81Q471 -117 448 -138T382 -159Z" />
<glyph unicode="&#xc8;" glyph-name="Egrave" horiz-adv-x="673" d="M58 0Q45 0 45 13V83Q45 96 58 96H131V622H58Q45 622 45 635V705Q45 718 58 718H604Q617 718 617 705V525Q617 512 604 512H524Q511 512 511 525V622H243V407H466Q480 407 480 394V324Q480 311
466 311H243V96H510V193Q510 206 524 206H604Q617 206 617 193V13Q617 0 604 0H58ZM383 793Q378 787 372 787Q368 787 362 791L181 933Q176 938 176 943Q176 948 179 954L224 1006Q228 1012 236 1012Q241 1012 245 1008L416 856Q422 851 422 845Q422 839 418 835L383
793Z" />
<glyph unicode="&#xc9;" glyph-name="Eacute" horiz-adv-x="673" d="M297 790Q292 787 288 787Q280 787 276 793L241 834Q237 838 237 844Q237 851 243 856L414 1007Q418 1011 423 1011Q430 1011 435 1006L480 953Q483 948 483 943Q483 937 478 932L297 790ZM58
0Q45 0 45 13V83Q45 96 58 96H131V622H58Q45 622 45 635V705Q45 718 58 718H604Q617 718 617 705V525Q617 512 604 512H524Q511 512 511 525V622H243V407H466Q480 407 480 394V324Q480 311 466 311H243V96H510V193Q510 206 524 206H604Q617 206 617 193V13Q617
0 604 0H58Z" />
<glyph unicode="&#xca;" glyph-name="Ecircumflex" horiz-adv-x="673" d="M451 794Q446 788 440 788Q435 788 431 792L311 895L192 792Q188 788 183 788Q175 788 171 794L137 834Q133 840 133 844Q133 851 139 856L302 1000Q306 1004 311 1004Q317 1004 323 998L484
856Q490 850 490 844Q490 838 486 834L451 794ZM58 0Q45 0 45 13V83Q45 96 58 96H131V622H58Q45 622 45 635V705Q45 718 58 718H604Q617 718 617 705V525Q617 512 604 512H524Q511 512 511 525V622H243V407H466Q480 407 480 394V324Q480 311 466 311H243V96H510V193Q510
206 524 206H604Q617 206 617 193V13Q617 0 604 0H58Z" />
<glyph unicode="&#xcb;" glyph-name="Edieresis" horiz-adv-x="673" d="M301 833Q301 810 286 795T247 779Q225 779 210 794T194 833Q194 856 209 871T247 887Q270 887 285 872T301 833ZM480 833Q480 810 464 795T425 779Q402 779 387 794T372 833Q372 856 387
871T425 887Q448 887 464 872T480 833ZM58 0Q45 0 45 13V83Q45 96 58 96H131V622H58Q45 622 45 635V705Q45 718 58 718H604Q617 718 617 705V525Q617 512 604 512H524Q511 512 511 525V622H243V407H466Q480 407 480 394V324Q480 311 466 311H243V96H510V193Q510
206 524 206H604Q617 206 617 193V13Q617 0 604 0H58Z" />
<glyph unicode="&#xcc;" glyph-name="Igrave" horiz-adv-x="375" d="M58 0Q45 0 45 13V83Q45 96 58 96H131V622H58Q45 622 45 635V705Q45 718 58 718H316Q330 718 330 705V635Q330 622 316 622H243V96H316Q330 96 330 83V13Q330 0 316 0H58ZM215 778Q210 772 204
772Q200 772 194 776L13 918Q8 923 8 928Q8 933 11 939L56 991Q60 997 68 997Q73 997 77 993L248 841Q254 836 254 830Q254 824 250 820L215 778Z" />
<glyph unicode="&#xcd;" glyph-name="Iacute" horiz-adv-x="375" d="M58 0Q45 0 45 13V83Q45 96 58 96H131V622H58Q45 622 45 635V705Q45 718 58 718H316Q330 718 330 705V635Q330 622 316 622H243V96H316Q330 96 330 83V13Q330 0 316 0H58ZM187 773Q182 770 178
770Q170 770 166 776L131 817Q127 821 127 827Q127 834 133 839L304 990Q308 994 313 994Q320 994 325 989L370 936Q373 931 373 926Q373 920 368 915L187 773Z" />
<glyph unicode="&#xce;" glyph-name="Icircumflex" horiz-adv-x="375" d="M57 0Q44 0 44 13V83Q44 96 57 96H130V622H57Q44 622 44 635V705Q44 718 57 718H315Q329 718 329 705V635Q329 622 315 622H242V96H315Q329 96 329 83V13Q329 0 315 0H57ZM331 794Q326
788 320 788Q315 788 311 792L191 895L72 792Q68 788 63 788Q55 788 51 794L17 834Q13 840 13 844Q13 851 19 856L182 1000Q186 1004 191 1004Q197 1004 203 998L364 856Q370 850 370 844Q370 838 366 834L331 794Z" />
<glyph unicode="&#xcf;" glyph-name="Idieresis" horiz-adv-x="375" d="M58 0Q45 0 45 13V83Q45 96 58 96H131V622H58Q45 622 45 635V705Q45 718 58 718H316Q330 718 330 705V635Q330 622 316 622H243V96H316Q330 96 330 83V13Q330 0 316 0H58ZM157 833Q157 810
142 795T103 779Q81 779 66 794T50 833Q50 856 65 871T103 887Q126 887 141 872T157 833ZM336 833Q336 810 320 795T281 779Q258 779 243 794T228 833Q228 856 243 871T281 887Q304 887 320 872T336 833Z" />
<glyph unicode="&#xd0;" glyph-name="Eth" horiz-adv-x="740" d="M58 0Q45 0 45 13V83Q45 96 58 96H131V312H65Q59 312 55 316T50 326V386Q50 393 54 397T65 401H131V622H58Q45 622 45 635V705Q45 718 58 718H329Q408 718 475 694T590 624T666 511T694 357Q694
273 669 207T600 95T494 25T359 0H58ZM320 96Q444 96 509 158T575 355Q575 485 510 553T314 622H243V401H376Q390 401 390 386V326Q390 312 376 312H243V96H320Z" />
<glyph unicode="&#xd1;" glyph-name="Ntilde" horiz-adv-x="804" d="M601 0Q578 0 567 9T544 36L290 431Q280 446 272 461T258 488Q251 502 246 515H243V96H316Q330 96 330 83V13Q330 0 316 0H58Q45 0 45 13V83Q45 96 58 96H131V619H58Q45 619 45 632V705Q45 718
58 718H210Q234 718 245 706T268 677L515 294Q527 275 537 256T554 222T565 198T570 188H573V622H500Q487 622 487 635V705Q487 718 500 718H758Q772 718 772 705V635Q772 622 758 622H685V13Q685 0 672 0H601ZM572 925Q585 925 585 912Q585 852 561 818T486 783Q456
783 437 791T402 810T374 828T343 837Q326 837 318 828T310 786Q310 773 297 773H254Q241 773 241 786Q241 843 265 876T339 909Q367 909 386 900T420 881T450 862T482 853Q499 853 507 865T516 912Q516 925 529 925H572Z" />
<glyph unicode="&#xd2;" glyph-name="Ograve" horiz-adv-x="796" d="M398 -7Q324 -7 260 20T148 96T73 213T45 363Q45 450 75 517T154 631T267 700T398 724Q465 724 529 701T642 631T721 518T751 363Q751 278 724 210T650 93T538 19T398 -7ZM398 98Q443 98 485
115T559 167T611 249T631 360Q631 424 611 472T558 553T483 602T398 619Q355 619 314 603T239 554T186 473T165 360Q165 298 184 250T236 167T311 116T398 98ZM438 793Q433 787 427 787Q423 787 417 791L236 933Q231 938 231 943Q231 948 234 954L279 1006Q283
1012 291 1012Q296 1012 300 1008L471 856Q477 851 477 845Q477 839 473 835L438 793Z" />
<glyph unicode="&#xd3;" glyph-name="Oacute" horiz-adv-x="796" d="M332 790Q327 787 323 787Q315 787 311 793L276 834Q272 838 272 844Q272 851 278 856L449 1007Q453 1011 458 1011Q465 1011 470 1006L515 953Q518 948 518 943Q518 937 513 932L332 790ZM398
-7Q324 -7 260 20T148 96T73 213T45 363Q45 450 75 517T154 631T267 700T398 724Q465 724 529 701T642 631T721 518T751 363Q751 278 724 210T650 93T538 19T398 -7ZM398 98Q443 98 485 115T559 167T611 249T631 360Q631 424 611 472T558 553T483 602T398 619Q355
619 314 603T239 554T186 473T165 360Q165 298 184 250T236 167T311 116T398 98Z" />
<glyph unicode="&#xd4;" glyph-name="Ocircumflex" horiz-adv-x="796" d="M539 794Q534 788 528 788Q523 788 519 792L399 895L280 792Q276 788 271 788Q263 788 259 794L225 834Q221 840 221 844Q221 851 227 856L390 1000Q394 1004 399 1004Q405 1004 411 998L572
856Q578 850 578 844Q578 838 574 834L539 794ZM398 -7Q324 -7 260 20T148 96T73 213T45 363Q45 450 75 517T154 631T267 700T398 724Q465 724 529 701T642 631T721 518T751 363Q751 278 724 210T650 93T538 19T398 -7ZM398 98Q443 98 485 115T559 167T611 249T631
360Q631 424 611 472T558 553T483 602T398 619Q355 619 314 603T239 554T186 473T165 360Q165 298 184 250T236 167T311 116T398 98Z" />
<glyph unicode="&#xd5;" glyph-name="Otilde" horiz-adv-x="796" d="M398 -7Q324 -7 260 20T148 96T73 213T45 363Q45 450 75 517T154 631T267 700T398 724Q465 724 529 701T642 631T721 518T751 363Q751 278 724 210T650 93T538 19T398 -7ZM398 98Q443 98 485
115T559 167T611 249T631 360Q631 424 611 472T558 553T483 602T398 619Q355 619 314 603T239 554T186 473T165 360Q165 298 184 250T236 167T311 116T398 98ZM571 925Q584 925 584 912Q584 852 560 818T485 783Q455 783 436 791T401 810T373 828T342 837Q325 837
317 828T309 786Q309 773 296 773H253Q240 773 240 786Q240 843 264 876T338 909Q366 909 385 900T419 881T449 862T481 853Q498 853 506 865T515 912Q515 925 528 925H571Z" />
<glyph unicode="&#xd6;" glyph-name="Odieresis" horiz-adv-x="796" d="M364 833Q364 810 349 795T310 779Q288 779 273 794T257 833Q257 856 272 871T310 887Q333 887 348 872T364 833ZM543 833Q543 810 527 795T488 779Q465 779 450 794T435 833Q435 856 450
871T488 887Q511 887 527 872T543 833ZM398 -7Q324 -7 260 20T148 96T73 213T45 363Q45 450 75 517T154 631T267 700T398 724Q465 724 529 701T642 631T721 518T751 363Q751 278 724 210T650 93T538 19T398 -7ZM398 98Q443 98 485 115T559 167T611 249T631 360Q631
424 611 472T558 553T483 602T398 619Q355 619 314 603T239 554T186 473T165 360Q165 298 184 250T236 167T311 116T398 98Z" />
<glyph unicode="&#xd7;" glyph-name="multiply" horiz-adv-x="484" d="M367 114Q363 110 357 110Q351 110 347 114L246 216L143 113Q138 109 133 109Q128 109 124 113L67 171Q62 176 62 180Q62 185 67 190L169 292L69 393Q64 398 64 403Q64 407 69 414L121 466Q125
470 130 470Q137 470 142 465L242 365L336 459Q341 464 346 464Q351 464 355 460L412 403Q417 396 417 393Q417 389 412 384L318 290L420 187Q424 181 424 176Q424 171 420 167L367 114Z" />
<glyph unicode="&#xd8;" glyph-name="Oslash" horiz-adv-x="796" d="M398 -7Q364 -7 331 -1L320 -39Q317 -53 304 -53H255Q244 -53 244 -43Q244 -42 244 -42T245 -39L262 19Q214 38 174 71T106 148T61 246T45 363Q45 450 75 517T154 631T267 700T398 724Q416 724
433 722T469 717L484 768Q488 781 502 781H550Q560 781 560 773Q560 770 559 768L538 697Q583 679 622 648T689 575T734 480T751 363Q751 278 724 210T650 93T538 19T398 -7ZM167 360Q167 273 202 214T293 125L438 614Q428 616 418 617T398 618Q355 618 314 602T240
553T187 473T167 360ZM398 100Q443 100 485 117T559 168T610 249T630 360Q630 447 595 504T506 590L362 103Q380 100 398 100Z" />
<glyph unicode="&#xd9;" glyph-name="Ugrave" horiz-adv-x="762" d="M542 622H469Q456 622 456 635V705Q456 718 469 718H727Q740 718 740 705V635Q740 622 727 622H654V269Q654 132 581 63T382 -7Q319 -7 268 10T182 62T127 148T107 269V622H35Q22 622 22 635V705Q22
718 35 718H293Q306 718 306 705V635Q306 622 293 622H220V265Q220 231 227 201T253 148T303 112T382 98Q424 98 454 110T503 144T532 195T542 260V622ZM468 793Q463 787 457 787Q453 787 447 791L266 933Q261 938 261 943Q261 948 264 954L309 1006Q313 1012 321
1012Q326 1012 330 1008L501 856Q507 851 507 845Q507 839 503 835L468 793Z" />
<glyph unicode="&#xda;" glyph-name="Uacute" horiz-adv-x="762" d="M351 790Q346 787 342 787Q334 787 330 793L295 834Q291 838 291 844Q291 851 297 856L468 1007Q472 1011 477 1011Q484 1011 489 1006L534 953Q537 948 537 943Q537 937 532 932L351 790ZM542
622H469Q456 622 456 635V705Q456 718 469 718H727Q740 718 740 705V635Q740 622 727 622H654V269Q654 132 581 63T382 -7Q319 -7 268 10T182 62T127 148T107 269V622H35Q22 622 22 635V705Q22 718 35 718H293Q306 718 306 705V635Q306 622 293 622H220V265Q220
231 227 201T253 148T303 112T382 98Q424 98 454 110T503 144T532 195T542 260V622Z" />
<glyph unicode="&#xdb;" glyph-name="Ucircumflex" horiz-adv-x="762" d="M522 794Q517 788 511 788Q506 788 502 792L382 895L263 792Q259 788 254 788Q246 788 242 794L208 834Q204 840 204 844Q204 851 210 856L373 1000Q377 1004 382 1004Q388 1004 394 998L555
856Q561 850 561 844Q561 838 557 834L522 794ZM542 622H469Q456 622 456 635V705Q456 718 469 718H727Q740 718 740 705V635Q740 622 727 622H654V269Q654 132 581 63T382 -7Q319 -7 268 10T182 62T127 148T107 269V622H35Q22 622 22 635V705Q22 718 35 718H293Q306
718 306 705V635Q306 622 293 622H220V265Q220 231 227 201T253 148T303 112T382 98Q424 98 454 110T503 144T532 195T542 260V622Z" />
<glyph unicode="&#xdc;" glyph-name="Udieresis" horiz-adv-x="762" d="M344 833Q344 810 329 795T290 779Q268 779 253 794T237 833Q237 856 252 871T290 887Q313 887 328 872T344 833ZM523 833Q523 810 507 795T468 779Q445 779 430 794T415 833Q415 856 430
871T468 887Q491 887 507 872T523 833ZM542 622H469Q456 622 456 635V705Q456 718 469 718H727Q740 718 740 705V635Q740 622 727 622H654V269Q654 132 581 63T382 -7Q319 -7 268 10T182 62T127 148T107 269V622H35Q22 622 22 635V705Q22 718 35 718H293Q306 718
306 705V635Q306 622 293 622H220V265Q220 231 227 201T253 148T303 112T382 98Q424 98 454 110T503 144T532 195T542 260V622Z" />
<glyph unicode="&#xdd;" glyph-name="Yacute" horiz-adv-x="671" d="M204 0Q191 0 191 13V83Q191 96 204 96H279V282Q278 283 267 302T237 352T196 421T150 496T107 567T72 622H4Q-9 622 -9 635V705Q-9 718 4 718H262Q275 718 275 705V635Q275 622 262 622H201L337
380H342L476 622H412Q399 622 399 635V705Q399 718 412 718H667Q681 718 681 705V635Q681 622 667 622H599Q585 601 565 568T521 497T475 421T434 353T404 303T391 282V96H466Q479 96 479 83V13Q479 0 466 0H204ZM272 790Q267 787 263 787Q255 787 251 793L216
834Q212 838 212 844Q212 851 218 856L389 1007Q393 1011 398 1011Q405 1011 410 1006L455 953Q458 948 458 943Q458 937 453 932L272 790Z" />
<glyph unicode="&#xde;" glyph-name="Thorn" horiz-adv-x="633" d="M63 0Q50 0 50 13V76Q50 89 63 89H126V629H66Q53 629 53 642V705Q53 718 66 718H220Q233 718 233 705V584H360Q415 584 460 570T537 529T586 461T604 368Q604 265 539 212T348 159H229V89H317Q329
89 329 76V13Q329 0 317 0H63ZM359 248Q419 248 454 276T490 368Q490 400 480 423T452 460T410 481T359 488H230V248H359Z" />
<glyph unicode="&#xdf;" glyph-name="germandbls" horiz-adv-x="692" d="M39 0Q26 0 26 13V76Q26 89 39 89H93V478Q93 536 111 582T160 659T235 707T327 724Q376 724 411 712T470 681T504 636T516 584Q516 542 497 519T454 478T412 442T392 390Q392 364 413 348T465
320T532 296T600 264T652 215T673 138Q673 108 659 81T618 34T554 2T473 -10Q410 -10 371 10T308 57T275 107T262 140Q260 144 260 147Q260 153 269 158L317 180Q320 181 324 181Q331 181 335 174Q337 171 344 155T365 122T403 91T463 77Q502 77 529 95T556 143Q556
173 537 190T488 220T424 243T361 271T312 314T292 383Q292 423 309 445T348 485T387 519T405 564Q405 587 385 607T319 627Q296 627 275 619T238 592T213 545T203 478V89H242Q255 89 255 76V13Q255 0 242 0H39Z" />
<glyph unicode="&#xe0;" glyph-name="agrave" horiz-adv-x="560" d="M430 0Q385 0 385 44V89H383Q378 82 366 67T332 35T276 6T198 -7Q125 -7 79 30T33 133Q33 173 51 202T104 251T186 280T294 289H371V299Q371 357 341 380T259 404Q222 404 196 398T153 383T127
368T115 361Q113 361 113 361T110 360Q104 360 100 366L61 416Q57 420 57 424Q57 427 62 432Q63 433 75 444T113 467T175 489T265 499Q313 499 353 488T421 453T464 390T480 296V88H533Q546 88 546 75V13Q546 0 533 0H430ZM371 217H301Q268 217 240 214T192 204T159
183T147 150Q147 121 170 103T234 85Q260 85 282 92T321 111T350 135T371 158V217ZM344 567Q339 561 333 561Q329 561 323 565L142 707Q137 712 137 717Q137 722 140 728L185 780Q189 786 197 786Q202 786 206 782L377 630Q383 625 383 619Q383 613 379 609L344
567Z" />
<glyph unicode="&#xe1;" glyph-name="aacute" horiz-adv-x="560" d="M430 0Q385 0 385 44V89H383Q378 82 366 67T332 35T276 6T198 -7Q125 -7 79 30T33 133Q33 173 51 202T104 251T186 280T294 289H371V299Q371 357 341 380T259 404Q222 404 196 398T153 383T127
368T115 361Q113 361 113 361T110 360Q104 360 100 366L61 416Q57 420 57 424Q57 427 62 432Q63 433 75 444T113 467T175 489T265 499Q313 499 353 488T421 453T464 390T480 296V88H533Q546 88 546 75V13Q546 0 533 0H430ZM371 217H301Q268 217 240 214T192 204T159
183T147 150Q147 121 170 103T234 85Q260 85 282 92T321 111T350 135T371 158V217ZM245 564Q240 561 236 561Q228 561 224 567L189 608Q185 612 185 618Q185 625 191 630L362 781Q366 785 371 785Q378 785 383 780L428 727Q431 722 431 717Q431 711 426 706L245
564Z" />
<glyph unicode="&#xe2;" glyph-name="acircumflex" horiz-adv-x="560" d="M430 0Q385 0 385 44V89H383Q378 82 366 67T332 35T276 6T198 -7Q125 -7 79 30T33 133Q33 173 51 202T104 251T186 280T294 289H371V299Q371 357 341 380T259 404Q222 404 196 398T153
383T127 368T115 361Q113 361 113 361T110 360Q104 360 100 366L61 416Q57 420 57 424Q57 427 62 432Q63 433 75 444T113 467T175 489T265 499Q313 499 353 488T421 453T464 390T480 296V88H533Q546 88 546 75V13Q546 0 533 0H430ZM371 217H301Q268 217 240 214T192
204T159 183T147 150Q147 121 170 103T234 85Q260 85 282 92T321 111T350 135T371 158V217ZM428 568Q423 562 417 562Q412 562 408 566L288 669L169 566Q165 562 160 562Q152 562 148 568L114 608Q110 614 110 618Q110 625 116 630L279 774Q283 778 288 778Q294
778 300 772L461 630Q467 624 467 618Q467 612 463 608L428 568Z" />
<glyph unicode="&#xe3;" glyph-name="atilde" horiz-adv-x="560" d="M430 0Q385 0 385 44V89H383Q378 82 366 67T332 35T276 6T198 -7Q125 -7 79 30T33 133Q33 173 51 202T104 251T186 280T294 289H371V299Q371 357 341 380T259 404Q222 404 196 398T153 383T127
368T115 361Q113 361 113 361T110 360Q104 360 100 366L61 416Q57 420 57 424Q57 427 62 432Q63 433 75 444T113 467T175 489T265 499Q313 499 353 488T421 453T464 390T480 296V88H533Q546 88 546 75V13Q546 0 533 0H430ZM371 217H301Q268 217 240 214T192 204T159
183T147 150Q147 121 170 103T234 85Q260 85 282 92T321 111T350 135T371 158V217ZM449 699Q462 699 462 686Q462 626 438 592T363 557Q333 557 314 565T279 584T251 602T220 611Q203 611 195 602T187 560Q187 547 174 547H131Q118 547 118 560Q118 617 142 650T216
683Q244 683 263 674T297 655T327 636T359 627Q376 627 384 639T393 686Q393 699 406 699H449Z" />
<glyph unicode="&#xe4;" glyph-name="adieresis" horiz-adv-x="560" d="M430 0Q385 0 385 44V89H383Q378 82 366 67T332 35T276 6T198 -7Q125 -7 79 30T33 133Q33 173 51 202T104 251T186 280T294 289H371V299Q371 357 341 380T259 404Q222 404 196 398T153 383T127
368T115 361Q113 361 113 361T110 360Q104 360 100 366L61 416Q57 420 57 424Q57 427 62 432Q63 433 75 444T113 467T175 489T265 499Q313 499 353 488T421 453T464 390T480 296V88H533Q546 88 546 75V13Q546 0 533 0H430ZM371 217H301Q268 217 240 214T192 204T159
183T147 150Q147 121 170 103T234 85Q260 85 282 92T321 111T350 135T371 158V217ZM258 607Q258 584 243 569T204 553Q182 553 167 568T151 607Q151 630 166 645T204 661Q227 661 242 646T258 607ZM437 607Q437 584 421 569T382 553Q359 553 344 568T329 607Q329
630 344 645T382 661Q405 661 421 646T437 607Z" />
<glyph unicode="&#xe5;" glyph-name="aring" horiz-adv-x="560" d="M430 0Q385 0 385 44V89H383Q378 82 366 67T332 35T276 6T198 -7Q125 -7 79 30T33 133Q33 173 51 202T104 251T186 280T294 289H371V299Q371 357 341 380T259 404Q222 404 196 398T153 383T127
368T115 361Q113 361 113 361T110 360Q104 360 100 366L61 416Q57 420 57 424Q57 427 62 432Q63 433 75 444T113 467T175 489T265 499Q313 499 353 488T421 453T464 390T480 296V88H533Q546 88 546 75V13Q546 0 533 0H430ZM371 217H301Q268 217 240 214T192 204T159
183T147 150Q147 121 170 103T234 85Q260 85 282 92T321 111T350 135T371 158V217ZM348 605Q340 588 324 579T291 569Q263 569 246 588T228 633Q228 662 248 678T292 694Q320 694 337 675T354 631Q354 617 348 605ZM314 623Q316 629 316 632Q316 641 309 648T292
656Q281 656 274 650T267 632Q267 622 274 615T291 608Q299 608 305 611T314 623Z" />
<glyph unicode="&#xe6;" glyph-name="ae" horiz-adv-x="883" d="M484 227Q487 190 500 164T534 120T580 94T633 86Q664 86 690 95T735 115T766 139T782 157Q785 163 791 163Q797 163 801 159L839 119Q845 113 845 107Q845 102 842 99Q838 92 823 75T781 39T715
8T624 -6Q556 -6 500 22T410 105V104Q399 88 381 69T336 33T275 5T198 -7Q125 -7 79 30T33 133Q33 173 51 202T104 251T186 280T294 289H371V299Q371 357 342 380T259 404Q222 404 196 398T153 383T127 368T115 361Q113 361 113 361T110 360Q104 360 100 366L61
416Q57 420 57 424Q57 427 62 432Q63 433 75 444T113 467T175 489T265 499Q324 499 368 482T438 425Q473 462 519 481T614 500Q729 500 785 433T842 242Q842 227 828 227H484ZM376 167Q374 174 373 191T371 217H302Q269 217 241 214T191 203T159 182T147 150Q147
121 171 103T236 85Q269 85 294 96T336 123T363 151T376 167ZM737 299Q735 344 706 377T618 411Q568 411 532 384T487 299H737Z" />
<glyph unicode="&#xe7;" glyph-name="ccedilla" horiz-adv-x="559" d="M277 -159Q259 -159 245 -155T221 -147T204 -138T196 -133Q190 -130 190 -122Q190 -117 192 -114L203 -93Q207 -87 213 -87Q220 -87 231 -95T269 -103Q300 -103 300 -82Q300 -70 290 -66T269
-61T247 -58T237 -50Q237 -49 239 -43L251 -4Q206 2 168 21T101 73T56 150T39 248Q39 309 59 355T113 434T190 482T279 499Q315 499 341 491T385 472T415 449T432 429H433L432 479Q432 493 445 493H499Q512 493 512 479V301Q512 288 499 288H434Q420 288 420 301V317Q420
332 411 348T386 377T347 398T295 406Q270 406 244 396T197 366T163 317T150 247Q150 208 162 178T196 127T244 96T300 85Q330 85 355 94T400 115T431 139T447 157Q451 163 457 163Q461 163 466 160L506 118Q513 112 513 106Q513 101 510 98Q505 91 491 75T452
41T390 10T306 -6L301 -23Q304 -23 314 -24T336 -30T357 -47T366 -81Q366 -117 343 -138T277 -159Z" />
<glyph unicode="&#xe8;" glyph-name="egrave" horiz-adv-x="551" d="M151 226Q154 189 167 163T201 119T247 93T300 85Q331 85 357 94T402 114T433 138T449 156Q452 162 458 162Q464 162 468 158L506 118Q512 112 512 106Q512 101 509 98Q505 91 490 74T448 38T382
7T291 -7Q239 -7 194 10T114 60T59 140T39 248Q39 309 60 355T115 434T193 482T281 499Q396 499 452 432T509 241Q509 226 495 226H151ZM404 298Q402 343 373 376T285 410Q235 410 199 383T154 298H404ZM356 567Q351 561 345 561Q341 561 335 565L154 707Q149 712
149 717Q149 722 152 728L197 780Q201 786 209 786Q214 786 218 782L389 630Q395 625 395 619Q395 613 391 609L356 567Z" />
<glyph unicode="&#xe9;" glyph-name="eacute" horiz-adv-x="551" d="M261 564Q256 561 252 561Q244 561 240 567L205 608Q201 612 201 618Q201 625 207 630L378 781Q382 785 387 785Q394 785 399 780L444 727Q447 722 447 717Q447 711 442 706L261 564ZM151 226Q154
189 167 163T201 119T247 93T300 85Q331 85 357 94T402 114T433 138T449 156Q452 162 458 162Q464 162 468 158L506 118Q512 112 512 106Q512 101 509 98Q505 91 490 74T448 38T382 7T291 -7Q239 -7 194 10T114 60T59 140T39 248Q39 309 60 355T115 434T193 482T281
499Q396 499 452 432T509 241Q509 226 495 226H151ZM404 298Q402 343 373 376T285 410Q235 410 199 383T154 298H404Z" />
<glyph unicode="&#xea;" glyph-name="ecircumflex" horiz-adv-x="551" d="M429 568Q424 562 418 562Q413 562 409 566L289 669L170 566Q166 562 161 562Q153 562 149 568L115 608Q111 614 111 618Q111 625 117 630L280 774Q284 778 289 778Q295 778 301 772L462
630Q468 624 468 618Q468 612 464 608L429 568ZM151 226Q154 189 167 163T201 119T247 93T300 85Q331 85 357 94T402 114T433 138T449 156Q452 162 458 162Q464 162 468 158L506 118Q512 112 512 106Q512 101 509 98Q505 91 490 74T448 38T382 7T291 -7Q239 -7
194 10T114 60T59 140T39 248Q39 309 60 355T115 434T193 482T281 499Q396 499 452 432T509 241Q509 226 495 226H151ZM404 298Q402 343 373 376T285 410Q235 410 199 383T154 298H404Z" />
<glyph unicode="&#xeb;" glyph-name="edieresis" horiz-adv-x="551" d="M248 607Q248 584 233 569T194 553Q172 553 157 568T141 607Q141 630 156 645T194 661Q217 661 232 646T248 607ZM427 607Q427 584 411 569T372 553Q349 553 334 568T319 607Q319 630 334
645T372 661Q395 661 411 646T427 607ZM151 226Q154 189 167 163T201 119T247 93T300 85Q331 85 357 94T402 114T433 138T449 156Q452 162 458 162Q464 162 468 158L506 118Q512 112 512 106Q512 101 509 98Q505 91 490 74T448 38T382 7T291 -7Q239 -7 194 10T114
60T59 140T39 248Q39 309 60 355T115 434T193 482T281 499Q396 499 452 432T509 241Q509 226 495 226H151ZM404 298Q402 343 373 376T285 410Q235 410 199 383T154 298H404Z" />
<glyph unicode="&#xec;" glyph-name="igrave" horiz-adv-x="304" d="M51 0Q38 0 38 13V75Q38 88 51 88H104V404H51Q38 404 38 417V479Q38 492 51 492H199Q213 492 213 479V88H261Q274 88 274 75V13Q274 0 261 0H51ZM157 564Q152 558 146 558Q142 558 136 562L-45
704Q-50 709 -50 714Q-50 719 -47 725L-2 777Q2 783 10 783Q15 783 19 779L190 627Q196 622 196 616Q196 610 192 606L157 564Z" />
<glyph unicode="&#xed;" glyph-name="iacute" horiz-adv-x="304" d="M158 564Q153 561 149 561Q141 561 137 567L102 608Q98 612 98 618Q98 625 104 630L275 781Q279 785 284 785Q291 785 296 780L341 727Q344 722 344 717Q344 711 339 706L158 564ZM51 0Q38 0
38 13V75Q38 88 51 88H104V404H51Q38 404 38 417V479Q38 492 51 492H199Q213 492 213 479V88H261Q274 88 274 75V13Q274 0 261 0H51Z" />
<glyph unicode="&#xee;" glyph-name="icircumflex" horiz-adv-x="304" d="M292 568Q287 562 281 562Q276 562 272 566L152 669L33 566Q29 562 24 562Q16 562 12 568L-22 608Q-26 614 -26 618Q-26 625 -20 630L143 774Q147 778 152 778Q158 778 164 772L325 630Q331
624 331 618Q331 612 327 608L292 568ZM50 0Q37 0 37 13V75Q37 88 50 88H103V404H50Q37 404 37 417V479Q37 492 50 492H198Q212 492 212 479V88H260Q273 88 273 75V13Q273 0 260 0H50Z" />
<glyph unicode="&#xef;" glyph-name="idieresis" horiz-adv-x="304" d="M117 607Q117 584 102 569T63 553Q41 553 26 568T10 607Q10 630 25 645T63 661Q86 661 101 646T117 607ZM296 607Q296 584 280 569T241 553Q218 553 203 568T188 607Q188 630 203 645T241
661Q264 661 280 646T296 607ZM51 0Q38 0 38 13V75Q38 88 51 88H104V404H51Q38 404 38 417V479Q38 492 51 492H199Q213 492 213 479V88H261Q274 88 274 75V13Q274 0 261 0H51Z" />
<glyph unicode="&#xf0;" glyph-name="eth" horiz-adv-x="619" d="M491 636Q532 588 553 518T575 356Q575 271 557 204T504 90T418 18T299 -7Q237 -7 189 11T108 62T58 139T41 234Q41 282 56 322T103 391T182 437T295 453Q358 453 399 439T460 413Q452 508 418
562L373 516Q368 511 363 511Q357 511 352 516L326 543Q321 548 321 553Q321 559 326 564L371 609Q338 630 291 630Q258 630 237 623T202 606T184 582T178 557Q178 544 165 544H90Q77 544 77 557Q77 593 91 623T132 676T199 711T290 724Q378 724 443 680L486 722Q490
726 496 726Q503 726 507 722L531 696Q535 692 535 685Q535 679 531 676L491 636ZM296 87Q378 87 418 149T462 331Q445 341 407 356T313 371Q273 371 243 360T193 330T162 284T152 229Q152 166 189 127T296 87Z" />
<glyph unicode="&#xf1;" glyph-name="ntilde" horiz-adv-x="612" d="M463 0Q417 0 417 44V292Q417 343 396 373T323 404Q291 404 270 393T237 368T219 343T214 330V88H261Q274 88 274 75V13Q274 0 261 0H52Q39 0 39 13V75Q39 88 52 88H104V404H52Q39 404 39 417V479Q39
492 52 492H187Q200 492 200 479L199 413H202Q205 418 214 432T242 461T288 487T357 499Q438 499 482 451T526 324V88H579Q593 88 593 75V13Q593 0 579 0H463ZM465 699Q478 699 478 686Q478 626 454 592T379 557Q349 557 330 565T295 584T267 602T236 611Q219 611
211 602T203 560Q203 547 190 547H147Q134 547 134 560Q134 617 158 650T232 683Q260 683 279 674T313 655T343 636T375 627Q392 627 400 639T409 686Q409 699 422 699H465Z" />
<glyph unicode="&#xf2;" glyph-name="ograve" horiz-adv-x="588" d="M294 -7Q238 -7 191 11T111 62T59 142T40 248Q40 306 59 353T113 432T193 481T294 499Q348 499 394 482T475 432T528 353T548 248Q548 189 530 142T478 62T397 11T294 -7ZM294 85Q324 85 350
96T396 129T426 180T437 247Q437 284 426 314T395 364T349 395T294 406Q265 406 239 395T194 364T163 314T151 247Q151 210 162 180T192 129T237 97T294 85ZM339 567Q334 561 328 561Q324 561 318 565L137 707Q132 712 132 717Q132 722 135 728L180 780Q184 786
192 786Q197 786 201 782L372 630Q378 625 378 619Q378 613 374 609L339 567Z" />
<glyph unicode="&#xf3;" glyph-name="oacute" horiz-adv-x="588" d="M273 564Q268 561 264 561Q256 561 252 567L217 608Q213 612 213 618Q213 625 219 630L390 781Q394 785 399 785Q406 785 411 780L456 727Q459 722 459 717Q459 711 454 706L273 564ZM294 -7Q238
-7 191 11T111 62T59 142T40 248Q40 306 59 353T113 432T193 481T294 499Q348 499 394 482T475 432T528 353T548 248Q548 189 530 142T478 62T397 11T294 -7ZM294 85Q324 85 350 96T396 129T426 180T437 247Q437 284 426 314T395 364T349 395T294 406Q265 406 239
395T194 364T163 314T151 247Q151 210 162 180T192 129T237 97T294 85Z" />
<glyph unicode="&#xf4;" glyph-name="ocircumflex" horiz-adv-x="588" d="M441 568Q436 562 430 562Q425 562 421 566L301 669L182 566Q178 562 173 562Q165 562 161 568L127 608Q123 614 123 618Q123 625 129 630L292 774Q296 778 301 778Q307 778 313 772L474
630Q480 624 480 618Q480 612 476 608L441 568ZM294 -7Q238 -7 191 11T111 62T59 142T40 248Q40 306 59 353T113 432T193 481T294 499Q348 499 394 482T475 432T528 353T548 248Q548 189 530 142T478 62T397 11T294 -7ZM294 85Q324 85 350 96T396 129T426 180T437
247Q437 284 426 314T395 364T349 395T294 406Q265 406 239 395T194 364T163 314T151 247Q151 210 162 180T192 129T237 97T294 85Z" />
<glyph unicode="&#xf5;" glyph-name="otilde" horiz-adv-x="588" d="M294 -7Q238 -7 191 11T111 62T59 142T40 248Q40 306 59 353T113 432T193 481T294 499Q348 499 394 482T475 432T528 353T548 248Q548 189 530 142T478 62T397 11T294 -7ZM294 85Q324 85 350
96T396 129T426 180T437 247Q437 284 426 314T395 364T349 395T294 406Q265 406 239 395T194 364T163 314T151 247Q151 210 162 180T192 129T237 97T294 85ZM464 699Q477 699 477 686Q477 626 453 592T378 557Q348 557 329 565T294 584T266 602T235 611Q218 611
210 602T202 560Q202 547 189 547H146Q133 547 133 560Q133 617 157 650T231 683Q259 683 278 674T312 655T342 636T374 627Q391 627 399 639T408 686Q408 699 421 699H464Z" />
<glyph unicode="&#xf6;" glyph-name="odieresis" horiz-adv-x="588" d="M262 607Q262 584 247 569T208 553Q186 553 171 568T155 607Q155 630 170 645T208 661Q231 661 246 646T262 607ZM441 607Q441 584 425 569T386 553Q363 553 348 568T333 607Q333 630 348
645T386 661Q409 661 425 646T441 607ZM294 -7Q238 -7 191 11T111 62T59 142T40 248Q40 306 59 353T113 432T193 481T294 499Q348 499 394 482T475 432T528 353T548 248Q548 189 530 142T478 62T397 11T294 -7ZM294 85Q324 85 350 96T396 129T426 180T437 247Q437
284 426 314T395 364T349 395T294 406Q265 406 239 395T194 364T163 314T151 247Q151 210 162 180T192 129T237 97T294 85Z" />
<glyph unicode="&#xf7;" glyph-name="divide" horiz-adv-x="464" d="M72 239Q66 239 62 243T57 254V326Q57 333 61 337T72 342H392Q406 342 406 326V254Q406 239 392 239H72ZM290 141Q290 118 274 102T235 86Q212 86 196 102T179 141Q179 164 195 180T235 197Q258
197 274 181T290 141ZM290 440Q290 417 274 401T235 385Q212 385 196 401T179 440Q179 463 195 480T235 497Q258 497 274 480T290 440Z" />
<glyph unicode="&#xf8;" glyph-name="oslash" horiz-adv-x="588" d="M294 -7Q246 -7 206 5L195 -16Q188 -29 179 -29H150Q138 -29 138 -21Q138 -20 140 -16L160 25Q104 56 72 113T40 248Q40 306 59 353T113 432T193 481T294 499Q346 499 392 482L399 496Q406 510
417 510H446Q456 510 456 501Q456 498 455 496L437 461Q488 429 518 375T548 248Q548 189 530 142T478 62T397 11T294 -7ZM151 247Q151 203 165 170T206 115L348 395Q321 406 294 406Q265 406 239 395T194 364T163 314T151 247ZM294 85Q324 85 350 96T396 129T426
180T437 247Q437 287 425 317T390 368L250 92Q270 85 294 85Z" />
<glyph unicode="&#xf9;" glyph-name="ugrave" horiz-adv-x="601" d="M458 0Q413 0 413 44V78H410Q407 72 399 58T374 30T330 4T262 -7Q221 -7 189 5T134 41T99 97T87 168V404H34Q21 404 21 417V479Q21 492 34 492H151Q196 492 196 448V200Q196 149 217 119T291
88Q322 88 343 99T376 123T394 149T400 162V404H351Q339 404 339 417V479Q339 492 351 492H496Q509 492 509 479V88H561Q574 88 574 75V13Q574 0 561 0H458ZM325 567Q320 561 314 561Q310 561 304 565L123 707Q118 712 118 717Q118 722 121 728L166 780Q170 786
178 786Q183 786 187 782L358 630Q364 625 364 619Q364 613 360 609L325 567Z" />
<glyph unicode="&#xfa;" glyph-name="uacute" horiz-adv-x="601" d="M227 564Q222 561 218 561Q210 561 206 567L171 608Q167 612 167 618Q167 625 173 630L344 781Q348 785 353 785Q360 785 365 780L410 727Q413 722 413 717Q413 711 408 706L227 564ZM458 0Q413
0 413 44V78H410Q407 72 399 58T374 30T330 4T262 -7Q221 -7 189 5T134 41T99 97T87 168V404H34Q21 404 21 417V479Q21 492 34 492H151Q196 492 196 448V200Q196 149 217 119T291 88Q322 88 343 99T376 123T394 149T400 162V404H351Q339 404 339 417V479Q339 492
351 492H496Q509 492 509 479V88H561Q574 88 574 75V13Q574 0 561 0H458Z" />
<glyph unicode="&#xfb;" glyph-name="ucircumflex" horiz-adv-x="601" d="M421 568Q416 562 410 562Q405 562 401 566L281 669L162 566Q158 562 153 562Q145 562 141 568L107 608Q103 614 103 618Q103 625 109 630L272 774Q276 778 281 778Q287 778 293 772L454
630Q460 624 460 618Q460 612 456 608L421 568ZM458 0Q413 0 413 44V78H410Q407 72 399 58T374 30T330 4T262 -7Q221 -7 189 5T134 41T99 97T87 168V404H34Q21 404 21 417V479Q21 492 34 492H151Q196 492 196 448V200Q196 149 217 119T291 88Q322 88 343 99T376
123T394 149T400 162V404H351Q339 404 339 417V479Q339 492 351 492H496Q509 492 509 479V88H561Q574 88 574 75V13Q574 0 561 0H458Z" />
<glyph unicode="&#xfc;" glyph-name="udieresis" horiz-adv-x="601" d="M249 607Q249 584 234 569T195 553Q173 553 158 568T142 607Q142 630 157 645T195 661Q218 661 233 646T249 607ZM428 607Q428 584 412 569T373 553Q350 553 335 568T320 607Q320 630 335
645T373 661Q396 661 412 646T428 607ZM458 0Q413 0 413 44V78H410Q407 72 399 58T374 30T330 4T262 -7Q221 -7 189 5T134 41T99 97T87 168V404H34Q21 404 21 417V479Q21 492 34 492H151Q196 492 196 448V200Q196 149 217 119T291 88Q322 88 343 99T376 123T394
149T400 162V404H351Q339 404 339 417V479Q339 492 351 492H496Q509 492 509 479V88H561Q574 88 574 75V13Q574 0 561 0H458Z" />
<glyph unicode="&#xfd;" glyph-name="yacute" horiz-adv-x="584" d="M509 -13Q509 -70 490 -112T437 -181T357 -221T259 -235Q211 -235 176 -226T116 -204T78 -181T59 -165Q53 -161 53 -152Q53 -147 55 -145L92 -92Q95 -88 100 -88Q106 -88 115 -96T141 -113T185
-131T256 -139Q288 -139 316 -132T366 -110T399 -71T412 -13V78H410Q407 72 399 58T373 30T329 4T261 -7Q180 -7 134 41T87 168L86 404H33Q20 404 20 417V479Q20 492 33 492H150Q195 492 195 448V200Q195 149 217 119T290 89Q321 89 342 100T376 124T394 149T399
162V404H351Q338 404 338 417V479Q338 492 351 492H495Q508 492 508 479L509 -13ZM227 564Q222 561 218 561Q210 561 206 567L171 608Q167 612 167 618Q167 625 173 630L344 781Q348 785 353 785Q360 785 365 780L410 727Q413 722 413 717Q413 711 408 706L227
564Z" />
<glyph unicode="&#xfe;" glyph-name="thorn" horiz-adv-x="597" d="M24 -226Q10 -226 10 -213V-151Q10 -138 24 -138H76V629H27Q13 629 13 642V704Q13 717 27 717H172Q186 717 186 704V424Q205 456 241 477T332 499Q381 499 422 482T494 432T540 352T557 246Q557
190 542 144T497 64T427 12T333 -7Q299 -7 274 1T229 21T199 47T181 74H179Q179 67 180 60Q180 54 180 48T181 37V-138H248Q262 -138 262 -151V-213Q262 -226 248 -226H24ZM314 85Q343 85 367 96T410 128T438 178T449 244Q449 281 439 311T411 362T368 394T314
406Q286 406 262 396T220 365T192 315T181 245Q181 206 191 177T220 127T262 96T314 85Z" />
<glyph unicode="&#xff;" glyph-name="ydieresis" horiz-adv-x="584" d="M509 -13Q509 -70 490 -112T437 -181T357 -221T259 -235Q211 -235 176 -226T116 -204T78 -181T59 -165Q53 -161 53 -152Q53 -147 55 -145L92 -92Q95 -88 100 -88Q106 -88 115 -96T141 -113T185
-131T256 -139Q288 -139 316 -132T366 -110T399 -71T412 -13V78H410Q407 72 399 58T373 30T329 4T261 -7Q180 -7 134 41T87 168L86 404H33Q20 404 20 417V479Q20 492 33 492H150Q195 492 195 448V200Q195 149 217 119T290 89Q321 89 342 100T376 124T394 149T399
162V404H351Q338 404 338 417V479Q338 492 351 492H495Q508 492 508 479L509 -13ZM248 607Q248 584 233 569T194 553Q172 553 157 568T141 607Q141 630 156 645T194 661Q217 661 232 646T248 607ZM427 607Q427 584 411 569T372 553Q349 553 334 568T319 607Q319
630 334 645T372 661Q395 661 411 646T427 607Z" />
<glyph unicode="&#x100;" glyph-name="Amacron" horiz-adv-x="725" d="M480 0Q467 0 467 13V83Q467 96 480 96H547L497 234H239L189 96H257Q270 96 270 83V13Q270 0 257 0H10Q-3 0 -3 13V83Q-3 96 10 96H77L276 622H214Q200 622 200 635V705Q200 718 214 718H377Q405
718 419 706T444 668L661 96H727Q741 96 741 83V13Q741 0 727 0H480ZM371 577H364L273 321H465L371 577ZM204 778Q190 778 190 793V852Q190 858 194 862T204 867H511Q517 867 521 863T525 852V793Q525 778 511 778H204Z" />
<glyph unicode="&#x101;" glyph-name="amacron" horiz-adv-x="560" d="M430 0Q385 0 385 44V89H383Q378 82 366 67T332 35T276 6T198 -7Q125 -7 79 30T33 133Q33 173 51 202T104 251T186 280T294 289H371V299Q371 357 341 380T259 404Q222 404 196 398T153 383T127
368T115 361Q113 361 113 361T110 360Q104 360 100 366L61 416Q57 420 57 424Q57 427 62 432Q63 433 75 444T113 467T175 489T265 499Q313 499 353 488T421 453T464 390T480 296V88H533Q546 88 546 75V13Q546 0 533 0H430ZM371 217H301Q268 217 240 214T192 204T159
183T147 150Q147 121 170 103T234 85Q260 85 282 92T321 111T350 135T371 158V217ZM126 552Q112 552 112 567V626Q112 632 116 636T126 641H433Q439 641 443 637T447 626V567Q447 552 433 552H126Z" />
<glyph unicode="&#x102;" glyph-name="Abreve" horiz-adv-x="725" d="M480 0Q467 0 467 13V83Q467 96 480 96H547L497 234H239L189 96H257Q270 96 270 83V13Q270 0 257 0H10Q-3 0 -3 13V83Q-3 96 10 96H77L276 622H214Q200 622 200 635V705Q200 718 214 718H377Q405
718 419 706T444 668L661 96H727Q741 96 741 83V13Q741 0 727 0H480ZM371 577H364L273 321H465L371 577ZM490 936Q504 936 504 922Q504 853 462 818T356 782Q293 782 252 817T211 922Q211 936 225 936H277Q291 936 291 922Q291 888 310 870T356 851Q385 851 404
869T424 922Q424 936 438 936H490Z" />
<glyph unicode="&#x103;" glyph-name="abreve" horiz-adv-x="560" d="M430 0Q385 0 385 44V89H383Q378 82 366 67T332 35T276 6T198 -7Q125 -7 79 30T33 133Q33 173 51 202T104 251T186 280T294 289H371V299Q371 357 341 380T259 404Q222 404 196 398T153 383T127
368T115 361Q113 361 113 361T110 360Q104 360 100 366L61 416Q57 420 57 424Q57 427 62 432Q63 433 75 444T113 467T175 489T265 499Q313 499 353 488T421 453T464 390T480 296V88H533Q546 88 546 75V13Q546 0 533 0H430ZM371 217H301Q268 217 240 214T192 204T159
183T147 150Q147 121 170 103T234 85Q260 85 282 92T321 111T350 135T371 158V217ZM413 710Q427 710 427 696Q427 627 385 592T279 556Q216 556 175 591T134 696Q134 710 148 710H200Q214 710 214 696Q214 662 233 644T279 625Q308 625 327 643T347 696Q347 710
361 710H413Z" />
<glyph unicode="&#x104;" glyph-name="Aogonek" horiz-adv-x="725" d="M738 -120Q740 -126 740 -127Q740 -134 733 -139Q731 -140 725 -144T708 -154T682 -164T649 -168Q610 -168 588 -147T565 -91Q565 -71 572 -56T591 -30T614 -11T638 0H480Q467 0 467 13V83Q467
96 480 96H547L497 234H239L189 96H257Q270 96 270 83V13Q270 0 257 0H10Q-3 0 -3 13V83Q-3 96 10 96H77L276 622H214Q200 622 200 635V705Q200 718 214 718H377Q405 718 419 706T444 668L661 96H727Q741 96 741 83V13Q741 0 727 0H703Q695 -4 684 -11T662 -28T644
-50T637 -78Q637 -92 646 -99T666 -107Q683 -107 695 -100T715 -93Q722 -93 725 -99L738 -120ZM371 577H364L273 321H465L371 577Z" />
<glyph unicode="&#x105;" glyph-name="aogonek" horiz-adv-x="560" d="M541 -120Q543 -126 543 -127Q543 -134 536 -139Q534 -140 528 -144T511 -154T485 -164T452 -168Q413 -168 391 -147T368 -91Q368 -71 375 -56T394 -30T417 -11T441 0H430Q385 0 385 44V89H383Q378
82 366 67T332 35T276 6T198 -7Q125 -7 79 30T33 133Q33 173 51 202T104 251T186 280T294 289H371V299Q371 357 341 380T259 404Q222 404 196 398T153 383T127 368T115 361Q113 361 113 361T110 360Q104 360 100 366L61 416Q57 420 57 424Q57 427 62 432Q63 433
75 444T113 467T175 489T265 499Q313 499 353 488T421 453T464 390T480 296V88H533Q546 88 546 75V13Q546 0 533 0H506Q498 -4 487 -11T465 -28T447 -50T440 -78Q440 -92 449 -99T469 -107Q486 -107 498 -100T518 -93Q525 -93 528 -99L541 -120ZM371 217H301Q268
217 240 214T192 204T159 183T147 150Q147 121 170 103T234 85Q260 85 282 92T321 111T350 135T371 158V217Z" />
<glyph unicode="&#x106;" glyph-name="Cacute" horiz-adv-x="754" d="M356 790Q351 787 347 787Q339 787 335 793L300 834Q296 838 296 844Q296 851 302 856L473 1007Q477 1011 482 1011Q489 1011 494 1006L539 953Q542 948 542 943Q542 937 537 932L356 790ZM710
191Q716 185 716 180Q716 176 713 170Q710 164 701 149T675 113T634 72T575 34T495 5T393 -7Q321 -7 258 18T148 92T73 208T46 363Q46 450 74 517T149 631T258 700T386 724Q431 724 466 715T526 691T569 660T597 627L595 705Q595 718 608 718H685Q698 718 698 705V476Q698
463 685 463H598Q584 463 584 476V486Q584 504 571 527T533 571T473 605T393 619Q350 619 309 603T237 554T186 473T166 360Q166 296 186 247T240 165T315 115T401 98Q468 98 511 119T582 166T622 213T642 235Q644 235 649 232L710 191Z" />
<glyph unicode="&#x107;" glyph-name="cacute" horiz-adv-x="559" d="M284 564Q279 561 275 561Q267 561 263 567L228 608Q224 612 224 618Q224 625 230 630L401 781Q405 785 410 785Q417 785 422 780L467 727Q470 722 470 717Q470 711 465 706L284 564ZM506 118Q513
112 513 106Q513 101 510 98Q505 91 490 74T448 38T382 7T291 -7Q239 -7 194 10T114 60T59 140T39 248Q39 309 59 355T113 434T190 482T279 499Q315 499 341 491T385 472T415 449T432 429H433L432 479Q432 493 445 493H499Q512 493 512 479V301Q512 288 499 288H434Q420
288 420 301V317Q420 332 411 348T386 377T347 398T295 406Q270 406 244 396T197 366T163 317T150 247Q150 208 162 178T196 127T244 96T300 85Q330 85 355 94T400 115T431 139T447 157Q451 163 457 163Q461 163 466 160L506 118Z" />
<glyph unicode="&#x108;" glyph-name="Ccircumflex" horiz-adv-x="754" d="M530 794Q525 788 519 788Q514 788 510 792L390 895L271 792Q267 788 262 788Q254 788 250 794L216 834Q212 840 212 844Q212 851 218 856L381 1000Q385 1004 390 1004Q396 1004 402 998L563
856Q569 850 569 844Q569 838 565 834L530 794ZM710 191Q716 185 716 180Q716 176 713 170Q710 164 701 149T675 113T634 72T575 34T495 5T393 -7Q321 -7 258 18T148 92T73 208T46 363Q46 450 74 517T149 631T258 700T386 724Q431 724 466 715T526 691T569 660T597
627L595 705Q595 718 608 718H685Q698 718 698 705V476Q698 463 685 463H598Q584 463 584 476V486Q584 504 571 527T533 571T473 605T393 619Q350 619 309 603T237 554T186 473T166 360Q166 296 186 247T240 165T315 115T401 98Q468 98 511 119T582 166T622 213T642
235Q644 235 649 232L710 191Z" />
<glyph unicode="&#x109;" glyph-name="ccircumflex" horiz-adv-x="559" d="M424 568Q419 562 413 562Q408 562 404 566L284 669L165 566Q161 562 156 562Q148 562 144 568L110 608Q106 614 106 618Q106 625 112 630L275 774Q279 778 284 778Q290 778 296 772L457
630Q463 624 463 618Q463 612 459 608L424 568ZM506 118Q513 112 513 106Q513 101 510 98Q505 91 490 74T448 38T382 7T291 -7Q239 -7 194 10T114 60T59 140T39 248Q39 309 59 355T113 434T190 482T279 499Q315 499 341 491T385 472T415 449T432 429H433L432 479Q432
493 445 493H499Q512 493 512 479V301Q512 288 499 288H434Q420 288 420 301V317Q420 332 411 348T386 377T347 398T295 406Q270 406 244 396T197 366T163 317T150 247Q150 208 162 178T196 127T244 96T300 85Q330 85 355 94T400 115T431 139T447 157Q451 163 457
163Q461 163 466 160L506 118Z" />
<glyph unicode="&#x10a;" glyph-name="Cdotaccent" horiz-adv-x="754" d="M710 191Q716 185 716 180Q716 176 713 170Q710 164 701 149T675 113T634 72T575 34T495 5T393 -7Q321 -7 258 18T148 92T73 208T46 363Q46 450 74 517T149 631T258 700T386 724Q431 724
466 715T526 691T569 660T597 627L595 705Q595 718 608 718H685Q698 718 698 705V476Q698 463 685 463H598Q584 463 584 476V486Q584 504 571 527T533 571T473 605T393 619Q350 619 309 603T237 554T186 473T166 360Q166 296 186 247T240 165T315 115T401 98Q468
98 511 119T582 166T622 213T642 235Q644 235 649 232L710 191ZM457 847Q457 823 441 807T400 790Q377 790 361 806T344 847Q344 870 360 887T400 904Q424 904 440 887T457 847Z" />
<glyph unicode="&#x10b;" glyph-name="cdotaccent" horiz-adv-x="559" d="M506 118Q513 112 513 106Q513 101 510 98Q505 91 490 74T448 38T382 7T291 -7Q239 -7 194 10T114 60T59 140T39 248Q39 309 59 355T113 434T190 482T279 499Q315 499 341 491T385 472T415
449T432 429H433L432 479Q432 493 445 493H499Q512 493 512 479V301Q512 288 499 288H434Q420 288 420 301V317Q420 332 411 348T386 377T347 398T295 406Q270 406 244 396T197 366T163 317T150 247Q150 208 162 178T196 127T244 96T300 85Q330 85 355 94T400 115T431
139T447 157Q451 163 457 163Q461 163 466 160L506 118ZM345 621Q345 597 329 581T288 564Q265 564 249 580T232 621Q232 644 248 661T288 678Q312 678 328 661T345 621Z" />
<glyph unicode="&#x10c;" glyph-name="Ccaron" horiz-adv-x="754" d="M403 799Q397 793 391 793Q386 793 382 797L219 941Q213 945 213 952Q213 957 217 963L251 1003Q255 1008 262 1008Q267 1008 272 1005L391 900L511 1005Q515 1008 521 1008Q527 1008 531 1003L566
963Q570 959 570 953Q570 947 564 941L403 799ZM710 191Q716 185 716 180Q716 176 713 170Q710 164 701 149T675 113T634 72T575 34T495 5T393 -7Q321 -7 258 18T148 92T73 208T46 363Q46 450 74 517T149 631T258 700T386 724Q431 724 466 715T526 691T569 660T597
627L595 705Q595 718 608 718H685Q698 718 698 705V476Q698 463 685 463H598Q584 463 584 476V486Q584 504 571 527T533 571T473 605T393 619Q350 619 309 603T237 554T186 473T166 360Q166 296 186 247T240 165T315 115T401 98Q468 98 511 119T582 166T622 213T642
235Q644 235 649 232L710 191Z" />
<glyph unicode="&#x10d;" glyph-name="ccaron" horiz-adv-x="559" d="M310 573Q304 567 298 567Q293 567 289 571L126 715Q120 719 120 726Q120 731 124 737L158 777Q162 782 169 782Q174 782 179 779L298 674L418 779Q422 782 428 782Q434 782 438 777L473 737Q477
733 477 727Q477 721 471 715L310 573ZM506 118Q513 112 513 106Q513 101 510 98Q505 91 490 74T448 38T382 7T291 -7Q239 -7 194 10T114 60T59 140T39 248Q39 309 59 355T113 434T190 482T279 499Q315 499 341 491T385 472T415 449T432 429H433L432 479Q432 493
445 493H499Q512 493 512 479V301Q512 288 499 288H434Q420 288 420 301V317Q420 332 411 348T386 377T347 398T295 406Q270 406 244 396T197 366T163 317T150 247Q150 208 162 178T196 127T244 96T300 85Q330 85 355 94T400 115T431 139T447 157Q451 163 457 163Q461
163 466 160L506 118Z" />
<glyph unicode="&#x10e;" glyph-name="Dcaron" horiz-adv-x="740" d="M366 799Q360 793 354 793Q349 793 345 797L182 941Q176 945 176 952Q176 957 180 963L214 1003Q218 1008 225 1008Q230 1008 235 1005L354 900L474 1005Q478 1008 484 1008Q490 1008 494 1003L529
963Q533 959 533 953Q533 947 527 941L366 799ZM58 0Q45 0 45 13V83Q45 96 58 96H131V622H58Q45 622 45 635V705Q45 718 58 718H329Q408 718 475 694T590 624T666 511T694 357Q694 273 669 207T600 95T494 25T359 0H58ZM320 96Q443 96 508 158T574 355Q574 485
508 553T314 622H243V96H320Z" />
<glyph unicode="&#x10f;" glyph-name="dcaron" horiz-adv-x="615" d="M578 570Q578 573 585 575T602 581T619 596T627 625Q627 629 627 631T626 635Q625 637 625 638Q623 636 620 635Q614 633 606 633Q585 633 570 648T554 688Q554 711 570 727T609 743Q638 743
655 722T673 660Q673 596 649 568T586 539Q578 539 578 544V570ZM470 0Q425 0 425 44V85H423Q418 72 406 56T374 26T327 3T265 -7Q215 -7 174 10T103 61T57 141T40 249Q40 304 56 350T101 429T173 480T267 499Q300 499 325 491T369 471T399 444T416 418H417Q416
423 416 429V453V630H364Q350 630 350 643V705Q350 718 364 718H510Q523 718 523 705V88H573Q586 88 586 75V13Q586 0 573 0H470ZM284 85Q312 85 336 96T378 128T406 179T416 247Q416 286 405 316T376 366T334 397T284 407Q226 407 187 365T148 248Q148 175 185
130T284 85Z" />
<glyph unicode="&#x110;" glyph-name="Dcroat" horiz-adv-x="740" d="M58 0Q45 0 45 13V83Q45 96 58 96H131V312H65Q59 312 55 316T50 326V386Q50 393 54 397T65 401H131V622H58Q45 622 45 635V705Q45 718 58 718H329Q408 718 475 694T590 624T666 511T694 357Q694
273 669 207T600 95T494 25T359 0H58ZM320 96Q444 96 510 158T576 355Q576 485 510 553T314 622H243V401H376Q390 401 390 386V326Q390 312 376 312H243V96H320Z" />
<glyph unicode="&#x111;" glyph-name="dcroat" horiz-adv-x="615" d="M470 0Q425 0 425 44V85H423Q418 72 406 56T374 26T327 3T265 -7Q215 -7 174 10T103 61T57 141T40 249Q40 304 56 350T101 429T173 480T267 499Q300 499 325 491T369 471T399 444T416 418H417Q416
423 416 429V453V541H311Q300 541 300 552V571Q300 582 311 582H416V630H364Q350 630 350 643V705Q350 718 364 718H510Q523 718 523 705V582H574Q585 582 585 571V552Q585 541 574 541H523V88H573Q586 88 586 75V13Q586 0 573 0H470ZM284 85Q312 85 336 96T378
128T406 179T416 247Q416 286 405 316T376 366T334 397T284 407Q226 407 187 365T148 248Q148 175 185 130T284 85Z" />
<glyph unicode="&#x112;" glyph-name="Emacron" horiz-adv-x="673" d="M58 0Q45 0 45 13V83Q45 96 58 96H131V622H58Q45 622 45 635V705Q45 718 58 718H604Q617 718 617 705V525Q617 512 604 512H524Q511 512 511 525V622H243V407H466Q480 407 480 394V324Q480
311 466 311H243V96H510V193Q510 206 524 206H604Q617 206 617 193V13Q617 0 604 0H58ZM178 778Q164 778 164 793V852Q164 858 168 862T178 867H485Q491 867 495 863T499 852V793Q499 778 485 778H178Z" />
<glyph unicode="&#x113;" glyph-name="emacron" horiz-adv-x="551" d="M151 226Q154 189 167 163T201 119T247 93T300 85Q331 85 357 94T402 114T433 138T449 156Q452 162 458 162Q464 162 468 158L506 118Q512 112 512 106Q512 101 509 98Q505 91 490 74T448
38T382 7T291 -7Q239 -7 194 10T114 60T59 140T39 248Q39 309 60 355T115 434T193 482T281 499Q396 499 452 432T509 241Q509 226 495 226H151ZM404 298Q402 343 373 376T285 410Q235 410 199 383T154 298H404ZM125 552Q111 552 111 567V626Q111 632 115 636T125
641H432Q438 641 442 637T446 626V567Q446 552 432 552H125Z" />
<glyph unicode="&#x114;" glyph-name="Ebreve" horiz-adv-x="673" d="M58 0Q45 0 45 13V83Q45 96 58 96H131V622H58Q45 622 45 635V705Q45 718 58 718H604Q617 718 617 705V525Q617 512 604 512H524Q511 512 511 525V622H243V407H466Q480 407 480 394V324Q480
311 466 311H243V96H510V193Q510 206 524 206H604Q617 206 617 193V13Q617 0 604 0H58ZM461 936Q475 936 475 922Q475 853 433 818T327 782Q264 782 223 817T182 922Q182 936 196 936H248Q262 936 262 922Q262 888 281 870T327 851Q356 851 375 869T395 922Q395
936 409 936H461Z" />
<glyph unicode="&#x115;" glyph-name="ebreve" horiz-adv-x="551" d="M151 226Q154 189 167 163T201 119T247 93T300 85Q331 85 357 94T402 114T433 138T449 156Q452 162 458 162Q464 162 468 158L506 118Q512 112 512 106Q512 101 509 98Q505 91 490 74T448 38T382
7T291 -7Q239 -7 194 10T114 60T59 140T39 248Q39 309 60 355T115 434T193 482T281 499Q396 499 452 432T509 241Q509 226 495 226H151ZM404 298Q402 343 373 376T285 410Q235 410 199 383T154 298H404ZM427 710Q441 710 441 696Q441 627 399 592T293 556Q230 556
189 591T148 696Q148 710 162 710H214Q228 710 228 696Q228 662 247 644T293 625Q322 625 341 643T361 696Q361 710 375 710H427Z" />
<glyph unicode="&#x116;" glyph-name="Edotaccent" horiz-adv-x="673" d="M58 0Q45 0 45 13V83Q45 96 58 96H131V622H58Q45 622 45 635V705Q45 718 58 718H604Q617 718 617 705V525Q617 512 604 512H524Q511 512 511 525V622H243V407H466Q480 407 480 394V324Q480
311 466 311H243V96H510V193Q510 206 524 206H604Q617 206 617 193V13Q617 0 604 0H58ZM384 847Q384 823 368 807T327 790Q304 790 288 806T271 847Q271 870 287 887T327 904Q351 904 367 887T384 847Z" />
<glyph unicode="&#x117;" glyph-name="edotaccent" horiz-adv-x="551" d="M151 226Q154 189 167 163T201 119T247 93T300 85Q331 85 357 94T402 114T433 138T449 156Q452 162 458 162Q464 162 468 158L506 118Q512 112 512 106Q512 101 509 98Q505 91 490 74T448
38T382 7T291 -7Q239 -7 194 10T114 60T59 140T39 248Q39 309 60 355T115 434T193 482T281 499Q396 499 452 432T509 241Q509 226 495 226H151ZM404 298Q402 343 373 376T285 410Q235 410 199 383T154 298H404ZM345 621Q345 597 329 581T288 564Q265 564 249 580T232
621Q232 644 248 661T288 678Q312 678 328 661T345 621Z" />
<glyph unicode="&#x118;" glyph-name="Eogonek" horiz-adv-x="673" d="M573 0Q565 -4 554 -11T532 -28T514 -50T507 -78Q507 -92 516 -99T536 -107Q553 -107 565 -100T585 -93Q592 -93 595 -99L608 -120Q610 -126 610 -127Q610 -134 603 -139Q601 -140 595 -144T578
-154T552 -164T519 -168Q480 -168 458 -147T435 -91Q435 -71 442 -56T461 -30T484 -11T508 0H58Q45 0 45 13V83Q45 96 58 96H131V622H58Q45 622 45 635V705Q45 718 58 718H604Q617 718 617 705V525Q617 512 604 512H524Q511 512 511 525V622H243V407H466Q480 407
480 394V324Q480 311 466 311H243V96H510V193Q510 206 524 206H604Q617 206 617 193V13Q617 0 604 0H573Z" />
<glyph unicode="&#x119;" glyph-name="eogonek" horiz-adv-x="551" d="M151 226Q154 189 167 163T201 119T247 93T300 85Q331 85 357 94T402 114T433 138T449 156Q452 162 458 162Q464 162 468 158L506 118Q512 112 512 106Q512 101 509 98Q505 92 493 77T460
46T407 16T336 -4Q327 -9 317 -16T298 -32T283 -53T277 -78Q277 -92 286 -99T306 -107Q323 -107 335 -100T355 -93Q362 -93 365 -99L378 -120Q380 -126 380 -127Q380 -134 373 -139Q371 -140 365 -144T348 -154T322 -164T289 -168Q250 -168 228 -147T205 -91Q205
-57 224 -37T264 -6Q217 -2 176 17T105 68T57 146T39 248Q39 309 60 355T115 434T193 482T281 499Q396 499 452 432T509 241Q509 226 495 226H151ZM404 298Q402 343 373 376T285 410Q235 410 199 383T154 298H404Z" />
<glyph unicode="&#x11a;" glyph-name="Ecaron" horiz-adv-x="673" d="M351 799Q345 793 339 793Q334 793 330 797L167 941Q161 945 161 952Q161 957 165 963L199 1003Q203 1008 210 1008Q215 1008 220 1005L339 900L459 1005Q463 1008 469 1008Q475 1008 479 1003L514
963Q518 959 518 953Q518 947 512 941L351 799ZM58 0Q45 0 45 13V83Q45 96 58 96H131V622H58Q45 622 45 635V705Q45 718 58 718H604Q617 718 617 705V525Q617 512 604 512H524Q511 512 511 525V622H243V407H466Q480 407 480 394V324Q480 311 466 311H243V96H510V193Q510
206 524 206H604Q617 206 617 193V13Q617 0 604 0H58Z" />
<glyph unicode="&#x11b;" glyph-name="ecaron" horiz-adv-x="551" d="M298 573Q292 567 286 567Q281 567 277 571L114 715Q108 719 108 726Q108 731 112 737L146 777Q150 782 157 782Q162 782 167 779L286 674L406 779Q410 782 416 782Q422 782 426 777L461 737Q465
733 465 727Q465 721 459 715L298 573ZM151 226Q154 189 167 163T201 119T247 93T300 85Q331 85 357 94T402 114T433 138T449 156Q452 162 458 162Q464 162 468 158L506 118Q512 112 512 106Q512 101 509 98Q505 91 490 74T448 38T382 7T291 -7Q239 -7 194 10T114
60T59 140T39 248Q39 309 60 355T115 434T193 482T281 499Q396 499 452 432T509 241Q509 226 495 226H151ZM404 298Q402 343 373 376T285 410Q235 410 199 383T154 298H404Z" />
<glyph unicode="&#x11c;" glyph-name="Gcircumflex" horiz-adv-x="774" d="M536 794Q531 788 525 788Q520 788 516 792L396 895L277 792Q273 788 268 788Q260 788 256 794L222 834Q218 840 218 844Q218 851 224 856L387 1000Q391 1004 396 1004Q402 1004 408 998L569
856Q575 850 575 844Q575 838 571 834L536 794ZM626 0Q613 0 613 13L614 74Q582 43 530 18T396 -7Q322 -7 259 18T148 92T73 208T46 363Q46 451 75 518T152 631T261 700T389 724Q434 724 468 716T528 695T570 667T597 636L595 705Q595 718 608 718H685Q698 718
698 705V484Q698 472 685 472H598Q584 472 584 484V496Q584 514 571 535T534 575T474 606T396 619Q351 619 309 601T236 550T185 468T166 360Q166 297 186 248T240 166T316 116T403 98Q442 98 473 106T529 126T572 153T602 183V251H421Q408 251 408 265V330Q408
344 421 344H698Q711 344 711 330V13Q711 0 698 0H626Z" />
<glyph unicode="&#x11d;" glyph-name="gcircumflex" horiz-adv-x="611" d="M440 568Q435 562 429 562Q424 562 420 566L300 669L181 566Q177 562 172 562Q164 562 160 568L126 608Q122 614 122 618Q122 625 128 630L291 774Q295 778 300 778Q306 778 312 772L473
630Q479 624 479 618Q479 612 475 608L440 568ZM272 -235Q223 -235 188 -226T128 -204T90 -181T72 -165Q65 -161 65 -153Q65 -150 68 -145L105 -92Q108 -88 113 -88Q119 -88 127 -96T153 -114T197 -132T268 -141Q300 -141 327 -134T374 -111T405 -71T416 -13V80Q410
67 398 52T368 24T323 2T263 -7Q212 -7 171 11T100 64T56 144T40 246Q40 305 56 352T103 431T174 481T265 499Q299 499 325 491T371 469T403 442T421 415H423L422 479Q422 492 435 492H570Q583 492 583 479V417Q583 404 570 404H521V-13Q521 -70 502 -112T449 -181T370
-221T272 -235ZM283 85Q310 85 334 95T376 126T405 176T416 245Q416 284 406 314T377 365T335 395T283 406Q253 406 229 395T186 362T158 311T148 244Q148 171 186 128T283 85Z" />
<glyph unicode="&#x11e;" glyph-name="Gbreve" horiz-adv-x="774" d="M626 0Q613 0 613 13L614 74Q582 43 530 18T396 -7Q322 -7 259 18T148 92T73 208T46 363Q46 451 75 518T152 631T261 700T389 724Q434 724 468 716T528 695T570 667T597 636L595 705Q595 718
608 718H685Q698 718 698 705V484Q698 472 685 472H598Q584 472 584 484V496Q584 514 571 535T534 575T474 606T396 619Q351 619 309 601T236 550T185 468T166 360Q166 297 186 248T240 166T316 116T403 98Q442 98 473 106T529 126T572 153T602 183V251H421Q408
251 408 265V330Q408 344 421 344H698Q711 344 711 330V13Q711 0 698 0H626ZM540 936Q554 936 554 922Q554 853 512 818T406 782Q343 782 302 817T261 922Q261 936 275 936H327Q341 936 341 922Q341 888 360 870T406 851Q435 851 454 869T474 922Q474 936 488 936H540Z"
/>
<glyph unicode="&#x11f;" glyph-name="gbreve" horiz-adv-x="611" d="M272 -235Q223 -235 188 -226T128 -204T90 -181T72 -165Q65 -161 65 -153Q65 -150 68 -145L105 -92Q108 -88 113 -88Q119 -88 127 -96T153 -114T197 -132T268 -141Q300 -141 327 -134T374 -111T405
-71T416 -13V80Q410 67 398 52T368 24T323 2T263 -7Q212 -7 171 11T100 64T56 144T40 246Q40 305 56 352T103 431T174 481T265 499Q299 499 325 491T371 469T403 442T421 415H423L422 479Q422 492 435 492H570Q583 492 583 479V417Q583 404 570 404H521V-13Q521
-70 502 -112T449 -181T370 -221T272 -235ZM283 85Q310 85 334 95T376 126T405 176T416 245Q416 284 406 314T377 365T335 395T283 406Q253 406 229 395T186 362T158 311T148 244Q148 171 186 128T283 85ZM435 710Q449 710 449 696Q449 627 407 592T301 556Q238
556 197 591T156 696Q156 710 170 710H222Q236 710 236 696Q236 662 255 644T301 625Q330 625 349 643T369 696Q369 710 383 710H435Z" />
<glyph unicode="&#x120;" glyph-name="Gdotaccent" horiz-adv-x="774" d="M626 0Q613 0 613 13L614 74Q582 43 530 18T396 -7Q322 -7 259 18T148 92T73 208T46 363Q46 451 75 518T152 631T261 700T389 724Q434 724 468 716T528 695T570 667T597 636L595 705Q595
718 608 718H685Q698 718 698 705V484Q698 472 685 472H598Q584 472 584 484V496Q584 514 571 535T534 575T474 606T396 619Q351 619 309 601T236 550T185 468T166 360Q166 297 186 248T240 166T316 116T403 98Q442 98 473 106T529 126T572 153T602 183V251H421Q408
251 408 265V330Q408 344 421 344H698Q711 344 711 330V13Q711 0 698 0H626ZM451 847Q451 823 435 807T394 790Q371 790 355 806T338 847Q338 870 354 887T394 904Q418 904 434 887T451 847Z" />
<glyph unicode="&#x121;" glyph-name="gdotaccent" horiz-adv-x="611" d="M272 -235Q223 -235 188 -226T128 -204T90 -181T72 -165Q65 -161 65 -153Q65 -150 68 -145L105 -92Q108 -88 113 -88Q119 -88 127 -96T153 -114T197 -132T268 -141Q300 -141 327 -134T374
-111T405 -71T416 -13V80Q410 67 398 52T368 24T323 2T263 -7Q212 -7 171 11T100 64T56 144T40 246Q40 305 56 352T103 431T174 481T265 499Q299 499 325 491T371 469T403 442T421 415H423L422 479Q422 492 435 492H570Q583 492 583 479V417Q583 404 570 404H521V-13Q521
-70 502 -112T449 -181T370 -221T272 -235ZM283 85Q310 85 334 95T376 126T405 176T416 245Q416 284 406 314T377 365T335 395T283 406Q253 406 229 395T186 362T158 311T148 244Q148 171 186 128T283 85ZM361 621Q361 597 345 581T304 564Q281 564 265 580T248
621Q248 644 264 661T304 678Q328 678 344 661T361 621Z" />
<glyph unicode="&#x122;" glyph-name="Gcommaaccent" horiz-adv-x="774" d="M366 -219Q366 -215 373 -213T390 -207T407 -193T415 -164Q415 -161 415 -159T414 -155Q413 -153 413 -152Q411 -153 408 -154Q402 -156 394 -156Q373 -156 358 -141T342 -101Q342 -78
358 -62T397 -46Q426 -46 443 -67T461 -129Q461 -193 437 -221T374 -250Q366 -250 366 -244V-219ZM626 0Q613 0 613 13L614 74Q582 43 530 18T396 -7Q322 -7 259 18T148 92T73 208T46 363Q46 451 75 518T152 631T261 700T389 724Q434 724 468 716T528 695T570 667T597
636L595 705Q595 718 608 718H685Q698 718 698 705V484Q698 472 685 472H598Q584 472 584 484V496Q584 514 571 535T534 575T474 606T396 619Q351 619 309 601T236 550T185 468T166 360Q166 297 186 248T240 166T316 116T403 98Q442 98 473 106T529 126T572 153T602
183V251H421Q408 251 408 265V330Q408 344 421 344H698Q711 344 711 330V13Q711 0 698 0H626Z" />
<glyph unicode="&#x123;" glyph-name="gcommaaccent" horiz-adv-x="611" d="M272 -235Q223 -235 188 -226T128 -204T90 -181T72 -165Q65 -161 65 -153Q65 -150 68 -145L105 -92Q108 -88 113 -88Q119 -88 127 -96T153 -114T197 -132T268 -141Q300 -141 327 -134T374
-111T405 -71T416 -13V80Q410 67 398 52T368 24T323 2T263 -7Q212 -7 171 11T100 64T56 144T40 246Q40 305 56 352T103 431T174 481T265 499Q299 499 325 491T371 469T403 442T421 415H423L422 479Q422 492 435 492H570Q583 492 583 479V417Q583 404 570 404H521V-13Q521
-70 502 -112T449 -181T370 -221T272 -235ZM283 85Q310 85 334 95T376 126T405 176T416 245Q416 284 406 314T377 365T335 395T283 406Q253 406 229 395T186 362T158 311T148 244Q148 171 186 128T283 85ZM323 706Q323 703 316 701T299 695T282 680T274 651Q274
643 275 641Q275 639 276 638Q278 639 281 640Q283 641 286 642T295 643Q317 643 332 628T348 588Q348 565 332 549T292 533Q263 533 246 554T228 616Q228 680 252 708T315 737Q323 737 323 732V706Z" />
<glyph unicode="&#x124;" glyph-name="Hcircumflex" horiz-adv-x="819" d="M555 794Q550 788 544 788Q539 788 535 792L415 895L296 792Q292 788 287 788Q279 788 275 794L241 834Q237 840 237 844Q237 851 243 856L406 1000Q410 1004 415 1004Q421 1004 427 998L588
856Q594 850 594 844Q594 838 590 834L555 794ZM503 0Q490 0 490 13V83Q490 96 503 96H576V311H243V96H316Q330 96 330 83V13Q330 0 316 0H58Q45 0 45 13V83Q45 96 58 96H131V622H58Q45 622 45 635V705Q45 718 58 718H316Q330 718 330 705V635Q330 622 316 622H243V406H576V622H503Q490
622 490 635V705Q490 718 503 718H761Q774 718 774 705V635Q774 622 761 622H688V96H761Q774 96 774 83V13Q774 0 761 0H503Z" />
<glyph unicode="&#x125;" glyph-name="hcircumflex" horiz-adv-x="600" d="M431 759Q426 753 420 753Q415 753 411 757L291 860L172 757Q168 753 163 753Q155 753 151 759L117 799Q113 805 113 809Q113 816 119 821L282 965Q286 969 291 969Q297 969 303 963L464
821Q470 815 470 809Q470 803 466 799L431 759ZM450 0Q404 0 404 44V292Q404 343 383 373T310 403Q277 403 256 392T223 366T206 341T201 329V88H249Q262 88 262 75V13Q262 0 249 0H39Q26 0 26 13V75Q26 88 39 88H92V630H39Q26 630 26 643V705Q26 718 39 718H188Q201
718 201 705V494Q201 488 201 479T199 460T197 442T195 429H198Q205 439 216 451T245 474T286 492T343 499Q424 499 469 451T514 324V88H566Q580 88 580 75V13Q580 0 566 0H450Z" />
<glyph unicode="&#x126;" glyph-name="Hbar" horiz-adv-x="819" d="M503 0Q490 0 490 13V83Q490 96 503 96H576V311H243V96H316Q330 96 330 83V13Q330 0 316 0H58Q45 0 45 13V83Q45 96 58 96H131V483H76Q65 483 65 494V524Q65 535 76 535H131V622H58Q45 622 45
635V705Q45 718 58 718H316Q330 718 330 705V635Q330 622 316 622H243V535H576V622H503Q490 622 490 635V705Q490 718 503 718H761Q774 718 774 705V635Q774 622 761 622H688V535H729Q740 535 740 524V494Q740 483 729 483H688V96H761Q774 96 774 83V13Q774 0 761
0H503ZM576 483H243V406H576V483Z" />
<glyph unicode="&#x127;" glyph-name="hbar" horiz-adv-x="600" d="M450 0Q404 0 404 44V292Q404 343 383 373T310 403Q277 403 256 392T223 366T206 341T201 329V88H249Q262 88 262 75V13Q262 0 249 0H39Q26 0 26 13V75Q26 88 39 88H92V548H35Q24 548 24 559V578Q24
589 35 589H92V630H39Q26 630 26 643V705Q26 718 39 718H188Q201 718 201 705V589H298Q309 589 309 578V559Q309 548 298 548H201V494Q201 480 200 459T196 429H198Q205 439 216 451T245 474T286 492T343 499Q424 499 468 451T513 324L514 88H566Q580 88 580 75V13Q580
0 566 0H450Z" />
<glyph unicode="&#x128;" glyph-name="Itilde" horiz-adv-x="375" d="M58 0Q45 0 45 13V83Q45 96 58 96H131V622H58Q45 622 45 635V705Q45 718 58 718H316Q330 718 330 705V635Q330 622 316 622H243V96H316Q330 96 330 83V13Q330 0 316 0H58ZM349 925Q362 925
362 912Q362 852 338 818T263 783Q233 783 214 791T179 810T151 828T120 837Q103 837 95 828T87 786Q87 773 74 773H31Q18 773 18 786Q18 843 42 876T116 909Q144 909 163 900T197 881T227 862T259 853Q276 853 284 865T293 912Q293 925 306 925H349Z" />
<glyph unicode="&#x129;" glyph-name="itilde" horiz-adv-x="304" d="M51 0Q38 0 38 13V75Q38 88 51 88H104V404H51Q38 404 38 417V479Q38 492 51 492H199Q213 492 213 479V88H261Q274 88 274 75V13Q274 0 261 0H51ZM298 699Q311 699 311 686Q311 626 287 592T212
557Q182 557 163 565T128 584T100 602T69 611Q52 611 44 602T36 560Q36 547 23 547H-20Q-33 547 -33 560Q-33 617 -9 650T65 683Q93 683 112 674T146 655T176 636T208 627Q225 627 233 639T242 686Q242 699 255 699H298Z" />
<glyph unicode="&#x12a;" glyph-name="Imacron" horiz-adv-x="375" d="M58 0Q45 0 45 13V83Q45 96 58 96H131V622H58Q45 622 45 635V705Q45 718 58 718H316Q330 718 330 705V635Q330 622 316 622H243V96H316Q330 96 330 83V13Q330 0 316 0H58ZM36 778Q22 778 22
793V852Q22 858 26 862T36 867H343Q349 867 353 863T357 852V793Q357 778 343 778H36Z" />
<glyph unicode="&#x12b;" glyph-name="imacron" horiz-adv-x="304" d="M51 0Q38 0 38 13V75Q38 88 51 88H104V404H51Q38 404 38 417V479Q38 492 51 492H199Q213 492 213 479V88H261Q274 88 274 75V13Q274 0 261 0H51ZM-11 552Q-25 552 -25 567V626Q-25 632 -21
636T-11 641H296Q302 641 306 637T310 626V567Q310 552 296 552H-11Z" />
<glyph unicode="&#x12c;" glyph-name="Ibreve" horiz-adv-x="375" d="M58 0Q45 0 45 13V83Q45 96 58 96H131V622H58Q45 622 45 635V705Q45 718 58 718H316Q330 718 330 705V635Q330 622 316 622H243V96H316Q330 96 330 83V13Q330 0 316 0H58ZM324 936Q338 936
338 922Q338 853 296 818T190 782Q127 782 86 817T45 922Q45 936 59 936H111Q125 936 125 922Q125 888 144 870T190 851Q219 851 238 869T258 922Q258 936 272 936H324Z" />
<glyph unicode="&#x12d;" glyph-name="ibreve" horiz-adv-x="304" d="M51 0Q38 0 38 13V75Q38 88 51 88H104V404H51Q38 404 38 417V479Q38 492 51 492H199Q213 492 213 479V88H261Q274 88 274 75V13Q274 0 261 0H51ZM280 710Q294 710 294 696Q294 627 252 592T146
556Q83 556 42 591T1 696Q1 710 15 710H67Q81 710 81 696Q81 662 100 644T146 625Q175 625 194 643T214 696Q214 710 228 710H280Z" />
<glyph unicode="&#x12e;" glyph-name="Iogonek" horiz-adv-x="375" d="M328 -120Q330 -126 330 -127Q330 -134 323 -139Q321 -140 315 -144T298 -154T272 -164T239 -168Q200 -168 178 -147T155 -91Q155 -71 162 -56T181 -30T204 -11T228 0H58Q45 0 45 13V83Q45
96 58 96H131V622H58Q45 622 45 635V705Q45 718 58 718H316Q330 718 330 705V635Q330 622 316 622H243V96H316Q330 96 330 83V13Q330 0 316 0H293Q285 -4 274 -11T252 -28T234 -50T227 -78Q227 -92 236 -99T256 -107Q273 -107 285 -100T305 -93Q312 -93 315 -99L328
-120Z" />
<glyph unicode="&#x12f;" glyph-name="iogonek" horiz-adv-x="304" d="M250 -120Q252 -126 252 -127Q252 -134 245 -139Q243 -140 237 -144T220 -154T194 -164T161 -168Q122 -168 100 -147T77 -91Q77 -71 84 -56T103 -30T126 -11T150 0H51Q38 0 38 13V75Q38 88
51 88H104V404H51Q38 404 38 417V479Q38 492 51 492H199Q213 492 213 479V88H261Q274 88 274 75V13Q274 0 261 0H215Q207 -4 196 -11T174 -28T156 -50T149 -78Q149 -92 158 -99T178 -107Q195 -107 207 -100T227 -93Q234 -93 237 -99L250 -120ZM228 642Q228 612
207 591T155 570Q125 570 104 591T83 642Q83 672 104 693T155 715Q185 715 206 694T228 642Z" />
<glyph unicode="&#x130;" glyph-name="Idotaccent" horiz-adv-x="375" d="M58 0Q45 0 45 13V83Q45 96 58 96H131V622H58Q45 622 45 635V705Q45 718 58 718H316Q330 718 330 705V635Q330 622 316 622H243V96H316Q330 96 330 83V13Q330 0 316 0H58ZM246 847Q246
823 230 807T189 790Q166 790 150 806T133 847Q133 870 149 887T189 904Q213 904 229 887T246 847Z" />
<glyph unicode="&#x131;" glyph-name="dotlessi" horiz-adv-x="304" d="M51 0Q38 0 38 13V75Q38 88 51 88H104V404H51Q38 404 38 417V479Q38 492 51 492H199Q213 492 213 479V88H261Q274 88 274 75V13Q274 0 261 0H51Z" />
<glyph unicode="&#x134;" glyph-name="Jcircumflex" horiz-adv-x="453" d="M426 794Q421 788 415 788Q410 788 406 792L286 895L167 792Q163 788 158 788Q150 788 146 794L112 834Q108 840 108 844Q108 851 114 856L277 1000Q281 1004 286 1004Q292 1004 298 998L459
856Q465 850 465 844Q465 838 461 834L426 794ZM232 622H159Q146 622 146 635V705Q146 718 159 718H417Q430 718 430 705V635Q430 622 417 622H344V285Q344 206 326 152T270 64T176 15T45 0Q32 0 32 13V83Q32 96 45 96Q99 96 135 107T192 141T223 197T232 273V622Z"
/>
<glyph unicode="&#x135;" glyph-name="jcircumflex" horiz-adv-x="278" d="M93 404H40Q27 404 27 417V479Q27 492 40 492H189Q202 492 202 479V-54Q202 -145 157 -190T28 -235Q-8 -235 -32 -226T-71 -205Q-88 -192 -97 -175Q-97 -170 -93 -166L-60 -121Q-55 -116
-48 -116Q-44 -116 -40 -120T-28 -128T-11 -136T17 -140Q55 -140 74 -118T93 -54V404ZM275 568Q270 562 264 562Q259 562 255 566L135 669L16 566Q12 562 7 562Q-1 562 -5 568L-39 608Q-43 614 -43 618Q-43 625 -37 630L126 774Q130 778 135 778Q141 778 147 772L308
630Q314 624 314 618Q314 612 310 608L275 568Z" />
<glyph unicode="&#x136;" glyph-name="Kcommaaccent" horiz-adv-x="745" d="M360 -219Q360 -215 367 -213T384 -207T401 -193T409 -164Q409 -161 409 -159T408 -155Q407 -153 407 -152Q405 -153 402 -154Q396 -156 388 -156Q367 -156 352 -141T336 -101Q336 -78
352 -62T391 -46Q420 -46 437 -67T455 -129Q455 -193 431 -221T368 -250Q360 -250 360 -244V-219ZM602 0Q579 0 564 14T536 55L450 233Q446 241 441 249T426 264T403 275T367 280H243V96H335Q348 96 348 83V13Q348 0 335 0H58Q45 0 45 13V83Q45 96 58 96H131V622H58Q45
622 45 635V705Q45 718 58 718H298Q311 718 311 705V635Q311 622 298 622H243V371H327Q375 371 411 383T472 425T508 503T521 622H453Q440 622 440 635V705Q440 718 453 718H699Q712 718 712 705V635Q712 622 699 622H632Q631 507 599 435T507 325Q530 314 543
294T570 247L642 96H705Q718 96 718 83V13Q718 0 705 0H602Z" />
<glyph unicode="&#x137;" glyph-name="kcommaaccent" horiz-adv-x="600" d="M261 -219Q261 -215 268 -213T285 -207T302 -193T310 -164Q310 -161 310 -159T309 -155Q308 -153 308 -152Q306 -153 303 -154Q297 -156 289 -156Q268 -156 253 -141T237 -101Q237 -78
253 -62T292 -46Q321 -46 338 -67T356 -129Q356 -193 332 -221T269 -250Q261 -250 261 -244V-219ZM492 0Q474 0 460 9T434 35L285 237L201 163V88H249Q262 88 262 75V13Q262 0 249 0H39Q26 0 26 13V75Q26 88 39 88H92V630H39Q26 630 26 643V705Q26 718 39 718H188Q201
718 201 705V265L355 404H321Q308 404 308 417V479Q308 492 321 492H530Q543 492 543 479V417Q543 404 530 404H479L359 300L517 88H568Q581 88 581 75V13Q581 0 568 0H492Z" />
<glyph unicode="&#x138;" glyph-name="kgreenlandic" horiz-adv-x="614" d="M492 0Q474 0 460 9T434 35L285 237L201 163V88H249Q262 88 262 75V13Q262 0 249 0H39Q26 0 26 13V75Q26 88 39 88H92V404H39Q26 404 26 417V479Q26 492 39 492H188Q201 492 201 479V265L355
404H321Q308 404 308 417V479Q308 492 321 492H530Q543 492 543 479V417Q543 404 530 404H479L359 300L517 88H568Q581 88 581 75V13Q581 0 568 0H492Z" />
<glyph unicode="&#x139;" glyph-name="Lacute" horiz-adv-x="639" d="M260 790Q255 787 251 787Q243 787 239 793L204 834Q200 838 200 844Q200 851 206 856L377 1007Q381 1011 386 1011Q393 1011 398 1006L443 953Q446 948 446 943Q446 937 441 932L260 790ZM58
0Q45 0 45 13V83Q45 96 58 96H131V622H58Q45 622 45 635V705Q45 718 58 718H314Q330 718 330 703V637Q330 622 314 622H243V96H516V193Q516 206 529 206H609Q622 206 622 193V15Q622 0 607 0H58Z" />
<glyph unicode="&#x13a;" glyph-name="lacute" horiz-adv-x="301" d="M120 761Q115 758 111 758Q103 758 99 764L64 805Q60 809 60 815Q60 822 66 827L237 978Q241 982 246 982Q253 982 258 977L303 924Q306 919 306 914Q306 908 301 903L120 761ZM44 0Q30 0 30
13V75Q30 88 44 88H96V630H44Q30 630 30 643V705Q30 718 44 718H181Q205 718 205 696V88H252Q266 88 266 75V13Q266 0 252 0H44Z" />
<glyph unicode="&#x13b;" glyph-name="Lcommaaccent" horiz-adv-x="639" d="M285 -219Q285 -215 292 -213T309 -207T326 -193T334 -164Q334 -161 334 -159T333 -155Q332 -153 332 -152Q330 -153 327 -154Q321 -156 313 -156Q292 -156 277 -141T261 -101Q261 -78
277 -62T316 -46Q345 -46 362 -67T380 -129Q380 -193 356 -221T293 -250Q285 -250 285 -244V-219ZM58 0Q45 0 45 13V83Q45 96 58 96H131V622H58Q45 622 45 635V705Q45 718 58 718H314Q330 718 330 703V637Q330 622 314 622H243V96H516V193Q516 206 529 206H609Q622
206 622 193V15Q622 0 607 0H58Z" />
<glyph unicode="&#x13c;" glyph-name="lcommaaccent" horiz-adv-x="301" d="M116 -219Q116 -215 123 -213T140 -207T157 -193T165 -164Q165 -161 165 -159T164 -155Q163 -153 163 -152Q161 -153 158 -154Q152 -156 144 -156Q123 -156 108 -141T92 -101Q92 -78
108 -62T147 -46Q176 -46 193 -67T211 -129Q211 -193 187 -221T124 -250Q116 -250 116 -244V-219ZM44 0Q30 0 30 13V75Q30 88 44 88H96V630H44Q30 630 30 643V705Q30 718 44 718H181Q205 718 205 696V88H252Q266 88 266 75V13Q266 0 252 0H44Z" />
<glyph unicode="&#x13d;" glyph-name="Lcaron" horiz-adv-x="639" d="M376 543Q376 546 383 548T400 554T417 569T425 598Q425 602 425 604T424 608Q423 610 423 611Q421 609 418 608Q412 606 404 606Q383 606 368 621T352 661Q352 684 368 700T407 716Q436 716
453 695T471 633Q471 569 447 541T384 512Q376 512 376 517V543ZM58 0Q45 0 45 13V83Q45 96 58 96H131V622H58Q45 622 45 635V705Q45 718 58 718H314Q330 718 330 703V637Q330 622 314 622H243V96H516V193Q516 206 529 206H609Q622 206 622 193V15Q622 0 607 0H58Z"
/>
<glyph unicode="&#x13e;" glyph-name="lcaron" horiz-adv-x="301" d="M271 570Q271 573 278 575T295 581T312 596T320 625Q320 629 320 631T319 635Q318 637 318 638Q316 636 313 635Q307 633 299 633Q278 633 263 648T247 688Q247 711 263 727T302 743Q331 743
348 722T366 660Q366 596 342 568T279 539Q271 539 271 544V570ZM44 0Q30 0 30 13V75Q30 88 44 88H96V630H44Q30 630 30 643V705Q30 718 44 718H181Q205 718 205 696V88H252Q266 88 266 75V13Q266 0 252 0H44Z" />
<glyph unicode="&#x13f;" glyph-name="Ldot" horiz-adv-x="639" d="M58 0Q45 0 45 13V83Q45 96 58 96H131V622H58Q45 622 45 635V705Q45 718 58 718H314Q330 718 330 703V637Q330 622 314 622H243V96H516V193Q516 206 529 206H609Q622 206 622 193V15Q622 0 607
0H58ZM407 303Q407 279 391 263T350 246Q327 246 311 262T294 303Q294 326 310 343T350 360Q374 360 390 343T407 303Z" />
<glyph unicode="&#x140;" glyph-name="ldot" horiz-adv-x="345" d="M44 0Q30 0 30 13V75Q30 88 44 88H96V630H44Q30 630 30 643V705Q30 718 44 718H181Q205 718 205 696V88H252Q266 88 266 75V13Q266 0 252 0H44ZM372 367Q372 343 356 327T315 310Q292 310 276
326T259 367Q259 390 275 407T315 424Q339 424 355 407T372 367Z" />
<glyph unicode="&#x141;" glyph-name="Lslash" horiz-adv-x="641" d="M58 0Q45 0 45 13V83Q45 96 58 96H131V249L76 194Q69 189 65 189Q59 189 54 194L30 219Q25 221 25 229Q25 235 30 240L131 341V622H58Q45 622 45 635V705Q45 718 58 718H314Q330 718 330 703V637Q330
622 314 622H243V453L331 541Q337 545 342 545Q346 545 352 541L377 516Q381 512 381 505Q381 499 377 495L243 361V96H516V193Q516 206 529 206H609Q622 206 622 193V15Q622 0 607 0H58Z" />
<glyph unicode="&#x142;" glyph-name="lslash" horiz-adv-x="338" d="M75 0Q61 0 61 13V75Q61 88 75 88H127V269L52 194Q47 189 41 189Q36 189 31 194L7 218Q2 222 2 228Q2 235 7 239L127 359V630H75Q61 630 61 643V705Q61 718 75 718H212Q236 718 236 696V468L308
540Q312 544 319 544Q325 544 329 540L353 516Q358 511 358 505Q358 500 353 495L236 378V88H283Q297 88 297 75V13Q297 0 283 0H75Z" />
<glyph unicode="&#x143;" glyph-name="Nacute" horiz-adv-x="804" d="M345 790Q340 787 336 787Q328 787 324 793L289 834Q285 838 285 844Q285 851 291 856L462 1007Q466 1011 471 1011Q478 1011 483 1006L528 953Q531 948 531 943Q531 937 526 932L345 790ZM601
0Q578 0 567 9T544 36L290 431Q280 446 272 461T258 488Q251 502 246 515H243V96H316Q330 96 330 83V13Q330 0 316 0H58Q45 0 45 13V83Q45 96 58 96H131V619H58Q45 619 45 632V705Q45 718 58 718H210Q234 718 245 706T268 677L515 294Q527 275 537 256T554 222T565
198T570 188H573V622H500Q487 622 487 635V705Q487 718 500 718H758Q772 718 772 705V635Q772 622 758 622H685V13Q685 0 672 0H601Z" />
<glyph unicode="&#x144;" glyph-name="nacute" horiz-adv-x="612" d="M263 564Q258 561 254 561Q246 561 242 567L207 608Q203 612 203 618Q203 625 209 630L380 781Q384 785 389 785Q396 785 401 780L446 727Q449 722 449 717Q449 711 444 706L263 564ZM463 0Q417
0 417 44V292Q417 343 396 373T323 404Q291 404 270 393T237 368T219 343T214 330V88H261Q274 88 274 75V13Q274 0 261 0H52Q39 0 39 13V75Q39 88 52 88H104V404H52Q39 404 39 417V479Q39 492 52 492H187Q200 492 200 479L199 413H202Q205 418 214 432T242 461T288
487T357 499Q438 499 482 451T526 324V88H579Q593 88 593 75V13Q593 0 579 0H463Z" />
<glyph unicode="&#x145;" glyph-name="Ncommaaccent" horiz-adv-x="804" d="M371 -219Q371 -215 378 -213T395 -207T412 -193T420 -164Q420 -161 420 -159T419 -155Q418 -153 418 -152Q416 -153 413 -154Q407 -156 399 -156Q378 -156 363 -141T347 -101Q347 -78
363 -62T402 -46Q431 -46 448 -67T466 -129Q466 -193 442 -221T379 -250Q371 -250 371 -244V-219ZM601 0Q578 0 567 9T544 36L290 431Q280 446 272 461T258 488Q251 502 246 515H243V96H316Q330 96 330 83V13Q330 0 316 0H58Q45 0 45 13V83Q45 96 58 96H131V619H58Q45
619 45 632V705Q45 718 58 718H210Q234 718 245 706T268 677L515 294Q527 275 537 256T554 222T565 198T570 188H573V622H500Q487 622 487 635V705Q487 718 500 718H758Q772 718 772 705V635Q772 622 758 622H685V13Q685 0 672 0H601Z" />
<glyph unicode="&#x146;" glyph-name="ncommaaccent" horiz-adv-x="612" d="M271 -219Q271 -215 278 -213T295 -207T312 -193T320 -164Q320 -161 320 -159T319 -155Q318 -153 318 -152Q316 -153 313 -154Q307 -156 299 -156Q278 -156 263 -141T247 -101Q247 -78
263 -62T302 -46Q331 -46 348 -67T366 -129Q366 -193 342 -221T279 -250Q271 -250 271 -244V-219ZM463 0Q417 0 417 44V292Q417 343 396 373T323 404Q291 404 270 393T237 368T219 343T214 330V88H261Q274 88 274 75V13Q274 0 261 0H52Q39 0 39 13V75Q39 88 52
88H104V404H52Q39 404 39 417V479Q39 492 52 492H187Q200 492 200 479L199 413H202Q205 418 214 432T242 461T288 487T357 499Q438 499 482 451T526 324V88H579Q593 88 593 75V13Q593 0 579 0H463Z" />
<glyph unicode="&#x147;" glyph-name="Ncaron" horiz-adv-x="804" d="M417 799Q411 793 405 793Q400 793 396 797L233 941Q227 945 227 952Q227 957 231 963L265 1003Q269 1008 276 1008Q281 1008 286 1005L405 900L525 1005Q529 1008 535 1008Q541 1008 545 1003L580
963Q584 959 584 953Q584 947 578 941L417 799ZM601 0Q578 0 567 9T544 36L290 431Q280 446 272 461T258 488Q251 502 246 515H243V96H316Q330 96 330 83V13Q330 0 316 0H58Q45 0 45 13V83Q45 96 58 96H131V619H58Q45 619 45 632V705Q45 718 58 718H210Q234 718
245 706T268 677L515 294Q527 275 537 256T554 222T565 198T570 188H573V622H500Q487 622 487 635V705Q487 718 500 718H758Q772 718 772 705V635Q772 622 758 622H685V13Q685 0 672 0H601Z" />
<glyph unicode="&#x148;" glyph-name="ncaron" horiz-adv-x="612" d="M317 573Q311 567 305 567Q300 567 296 571L133 715Q127 719 127 726Q127 731 131 737L165 777Q169 782 176 782Q181 782 186 779L305 674L425 779Q429 782 435 782Q441 782 445 777L480 737Q484
733 484 727Q484 721 478 715L317 573ZM463 0Q417 0 417 44V292Q417 343 396 373T323 404Q291 404 270 393T237 368T219 343T214 330V88H261Q274 88 274 75V13Q274 0 261 0H52Q39 0 39 13V75Q39 88 52 88H104V404H52Q39 404 39 417V479Q39 492 52 492H187Q200 492
200 479L199 413H202Q205 418 214 432T242 461T288 487T357 499Q438 499 482 451T526 324V88H579Q593 88 593 75V13Q593 0 579 0H463Z" />
<glyph unicode="&#x149;" glyph-name="napostrophe" horiz-adv-x="612" d="M-2 573Q-2 577 5 579T22 585T39 599T47 628Q47 631 47 633T46 637Q45 639 45 640Q43 639 40 638Q34 636 26 636Q5 636 -10 651T-26 691Q-26 714 -10 730T29 746Q58 746 75 725T93 663Q93
599 69 571T6 542Q-2 542 -2 548V573ZM463 0Q417 0 417 44V292Q417 343 396 373T323 404Q291 404 270 393T237 368T219 343T214 330V88H261Q274 88 274 75V13Q274 0 261 0H52Q39 0 39 13V75Q39 88 52 88H104V404H52Q39 404 39 417V479Q39 492 52 492H187Q200 492
200 479L199 413H202Q205 418 214 432T242 461T288 487T357 499Q438 499 482 451T526 324V88H579Q593 88 593 75V13Q593 0 579 0H463Z" />
<glyph unicode="&#x14a;" glyph-name="Eng" horiz-adv-x="804" d="M385 -135Q438 -135 473 -127T530 -102T561 -60T570 -1V7Q562 12 556 19T544 36L290 431Q280 446 272 461T258 488Q251 502 246 515H243V96H316Q330 96 330 83V13Q330 0 316 0H58Q45 0 45 13V83Q45
96 58 96H131V619H58Q45 619 45 632V705Q45 718 58 718H210Q234 718 245 706T268 677L515 294Q527 275 537 256T554 222T565 198T570 188H573V622H500Q487 622 487 635V705Q487 718 500 718H758Q772 718 772 705V635Q772 622 758 622H685V10Q684 -46 668 -90T617
-166T524 -215T385 -232Q371 -232 371 -218V-148Q371 -135 385 -135Z" />
<glyph unicode="&#x14b;" glyph-name="eng" horiz-adv-x="596" d="M526 -54Q526 -145 482 -190T352 -235Q326 -235 307 -230T273 -216T249 -200T234 -187Q227 -183 227 -175Q227 -170 231 -166L264 -121Q269 -116 276 -116Q280 -116 285 -120T297 -128T314 -136T342
-140Q379 -140 398 -118T417 -54V292Q417 343 396 373T323 404Q291 404 270 393T237 368T219 343T214 330V88H261Q274 88 274 75V13Q274 0 261 0H52Q39 0 39 13V75Q39 88 52 88H104V404H52Q39 404 39 417V479Q39 492 52 492H187Q200 492 200 479L199 413H202Q205
418 214 432T242 461T288 487T357 499Q438 499 482 451T526 324V-54Z" />
<glyph unicode="&#x14c;" glyph-name="Omacron" horiz-adv-x="796" d="M250 778Q236 778 236 793V852Q236 858 240 862T250 867H557Q563 867 567 863T571 852V793Q571 778 557 778H250ZM398 -7Q324 -7 260 20T148 96T73 213T45 363Q45 450 75 517T154 631T267
700T398 724Q465 724 529 701T642 631T721 518T751 363Q751 278 724 210T650 93T538 19T398 -7ZM398 98Q443 98 485 115T559 167T611 249T631 360Q631 424 611 472T558 553T483 602T398 619Q355 619 314 603T239 554T186 473T165 360Q165 298 184 250T236 167T311
116T398 98Z" />
<glyph unicode="&#x14d;" glyph-name="omacron" horiz-adv-x="588" d="M140 552Q126 552 126 567V626Q126 632 130 636T140 641H447Q453 641 457 637T461 626V567Q461 552 447 552H140ZM294 -7Q238 -7 191 11T111 62T59 142T40 248Q40 306 59 353T113 432T193
481T294 499Q348 499 394 482T475 432T528 353T548 248Q548 189 530 142T478 62T397 11T294 -7ZM294 85Q324 85 350 96T396 129T426 180T437 247Q437 284 426 314T395 364T349 395T294 406Q265 406 239 395T194 364T163 314T151 247Q151 210 162 180T192 129T237
97T294 85Z" />
<glyph unicode="&#x14e;" glyph-name="Obreve" horiz-adv-x="796" d="M398 -7Q324 -7 260 20T148 96T73 213T45 363Q45 450 75 517T154 631T267 700T398 724Q465 724 529 701T642 631T721 518T751 363Q751 278 724 210T650 93T538 19T398 -7ZM398 98Q443 98 485
115T559 167T611 249T631 360Q631 424 611 472T558 553T483 602T398 619Q355 619 314 603T239 554T186 473T165 360Q165 298 184 250T236 167T311 116T398 98ZM536 936Q550 936 550 922Q550 853 508 818T402 782Q339 782 298 817T257 922Q257 936 271 936H323Q337
936 337 922Q337 888 356 870T402 851Q431 851 450 869T470 922Q470 936 484 936H536Z" />
<glyph unicode="&#x14f;" glyph-name="obreve" horiz-adv-x="588" d="M294 -7Q238 -7 191 11T111 62T59 142T40 248Q40 306 59 353T113 432T193 481T294 499Q348 499 394 482T475 432T528 353T548 248Q548 189 530 142T478 62T397 11T294 -7ZM294 85Q324 85 350
96T396 129T426 180T437 247Q437 284 426 314T395 364T349 395T294 406Q265 406 239 395T194 364T163 314T151 247Q151 210 162 180T192 129T237 97T294 85ZM432 710Q446 710 446 696Q446 627 404 592T298 556Q235 556 194 591T153 696Q153 710 167 710H219Q233
710 233 696Q233 662 252 644T298 625Q327 625 346 643T366 696Q366 710 380 710H432Z" />
<glyph unicode="&#x150;" glyph-name="Ohungarumlaut" horiz-adv-x="796" d="M307 804Q302 801 298 801Q290 801 286 807L251 849Q247 853 247 859Q247 865 253 870L424 1022Q428 1026 433 1026Q440 1026 445 1020L490 967Q493 962 493 957Q493 951 488 946L307
804ZM502 804Q497 801 492 801Q484 801 480 807L446 849Q441 854 441 858Q441 866 448 870L618 1022Q622 1026 627 1026Q635 1026 640 1020L684 967Q687 962 687 957Q687 950 683 946L502 804ZM398 -7Q324 -7 260 20T148 96T73 213T45 363Q45 450 75 517T154 631T267
700T398 724Q465 724 529 701T642 631T721 518T751 363Q751 278 724 210T650 93T538 19T398 -7ZM398 98Q443 98 485 115T559 167T611 249T631 360Q631 424 611 472T558 553T483 602T398 619Q355 619 314 603T239 554T186 473T165 360Q165 298 184 250T236 167T311
116T398 98Z" />
<glyph unicode="&#x151;" glyph-name="ohungarumlaut" horiz-adv-x="588" d="M159 578Q154 575 150 575Q142 575 138 581L103 623Q99 627 99 633Q99 639 105 644L276 796Q280 800 285 800Q292 800 297 794L342 741Q345 736 345 731Q345 725 340 720L159 578ZM354
578Q349 575 344 575Q336 575 332 581L298 623Q293 628 293 632Q293 640 300 644L470 796Q474 800 479 800Q487 800 492 794L536 741Q539 736 539 731Q539 724 535 720L354 578ZM294 -7Q238 -7 191 11T111 62T59 142T40 248Q40 306 59 353T113 432T193 481T294
499Q348 499 394 482T475 432T528 353T548 248Q548 189 530 142T478 62T397 11T294 -7ZM294 85Q324 85 350 96T396 129T426 180T437 247Q437 284 426 314T395 364T349 395T294 406Q265 406 239 395T194 364T163 314T151 247Q151 210 162 180T192 129T237 97T294
85Z" />
<glyph unicode="&#x152;" glyph-name="OE" horiz-adv-x="938" d="M396 0Q322 0 258 26T147 99T72 214T45 363Q45 449 74 515T152 627T264 695T394 718H868Q882 718 882 705V525Q882 512 868 512H790Q777 512 777 525V622H509V407H732Q745 407 745 394V324Q745
311 732 311H509V96H776V193Q776 206 789 206H868Q882 206 882 193V13Q882 0 868 0H396ZM394 615Q352 614 311 598T238 550T187 471T167 360Q167 299 186 252T236 172T309 122T394 104V615Z" />
<glyph unicode="&#x153;" glyph-name="oe" horiz-adv-x="951" d="M551 226Q554 189 567 163T601 119T647 93T700 85Q731 85 757 94T802 114T833 138T849 156Q852 162 858 162Q864 162 868 158L906 118Q912 112 912 106Q912 101 909 98Q905 91 890 74T848 38T782
7T691 -7Q631 -7 580 15T494 81Q460 39 409 16T294 -7Q238 -7 191 11T111 62T59 142T40 248Q40 306 59 353T113 432T193 481T294 499Q357 499 408 476T494 411Q529 455 578 477T681 499Q796 499 852 432T909 241Q909 226 895 226H551ZM294 85Q324 85 350 96T396
129T426 180T437 247Q437 284 426 314T395 364T349 395T294 406Q265 406 239 395T194 364T163 314T151 247Q151 210 162 180T192 129T237 97T294 85ZM804 298Q802 343 773 376T685 410Q635 410 599 383T554 298H804Z" />
<glyph unicode="&#x154;" glyph-name="Racute" horiz-adv-x="706" d="M282 790Q277 787 273 787Q265 787 261 793L226 834Q222 838 222 844Q222 851 228 856L399 1007Q403 1011 408 1011Q415 1011 420 1006L465 953Q468 948 468 943Q468 937 463 932L282 790ZM563
0Q539 0 524 14T496 55L410 230Q400 249 387 264T348 279H243V96H333Q346 96 346 83V13Q346 0 333 0H58Q45 0 45 13V83Q45 96 58 96H131V622H58Q45 622 45 635V705Q45 718 58 718H378Q431 718 475 703T552 660T603 589T622 494Q622 419 588 371T488 300Q508 283
531 240L605 96H668Q681 96 681 83V13Q681 0 668 0H563ZM350 368Q424 368 465 395T506 490Q506 527 494 552T461 593T412 615T350 622H243V368H350Z" />
<glyph unicode="&#x155;" glyph-name="racute" horiz-adv-x="439" d="M202 564Q197 561 193 561Q185 561 181 567L146 608Q142 612 142 618Q142 625 148 630L319 781Q323 785 328 785Q335 785 340 780L385 727Q388 722 388 717Q388 711 383 706L202 564ZM52 0Q39
0 39 13V75Q39 88 52 88H104V404H52Q39 404 39 417V479Q39 492 52 492H187Q200 492 200 479V361H203Q216 398 243 428Q255 441 270 453T306 474T353 490T411 496Q426 496 426 481V403Q426 388 411 388H383Q344 388 313 375T260 339T226 289T214 231V88H261Q274
88 274 75V13Q274 0 261 0H52Z" />
<glyph unicode="&#x156;" glyph-name="Rcommaaccent" horiz-adv-x="706" d="M316 -219Q316 -215 323 -213T340 -207T357 -193T365 -164Q365 -161 365 -159T364 -155Q363 -153 363 -152Q361 -153 358 -154Q352 -156 344 -156Q323 -156 308 -141T292 -101Q292 -78
308 -62T347 -46Q376 -46 393 -67T411 -129Q411 -193 387 -221T324 -250Q316 -250 316 -244V-219ZM563 0Q539 0 524 14T496 55L410 230Q400 249 387 264T348 279H243V96H333Q346 96 346 83V13Q346 0 333 0H58Q45 0 45 13V83Q45 96 58 96H131V622H58Q45 622 45 635V705Q45
718 58 718H378Q431 718 475 703T552 660T603 589T622 494Q622 419 588 371T488 300Q508 283 531 240L605 96H668Q681 96 681 83V13Q681 0 668 0H563ZM350 368Q424 368 465 395T506 490Q506 527 494 552T461 593T412 615T350 622H243V368H350Z" />
<glyph unicode="&#x157;" glyph-name="rcommaaccent" horiz-adv-x="439" d="M132 -219Q132 -215 139 -213T156 -207T173 -193T181 -164Q181 -161 181 -159T180 -155Q179 -153 179 -152Q177 -153 174 -154Q168 -156 160 -156Q139 -156 124 -141T108 -101Q108 -78
124 -62T163 -46Q192 -46 209 -67T227 -129Q227 -193 203 -221T140 -250Q132 -250 132 -244V-219ZM52 0Q39 0 39 13V75Q39 88 52 88H104V404H52Q39 404 39 417V479Q39 492 52 492H187Q200 492 200 479V361H203Q216 398 243 428Q255 441 270 453T306 474T353 490T411
496Q426 496 426 481V403Q426 388 411 388H383Q344 388 313 375T260 339T226 289T214 231V88H261Q274 88 274 75V13Q274 0 261 0H52Z" />
<glyph unicode="&#x158;" glyph-name="Rcaron" horiz-adv-x="706" d="M348 799Q342 793 336 793Q331 793 327 797L164 941Q158 945 158 952Q158 957 162 963L196 1003Q200 1008 207 1008Q212 1008 217 1005L336 900L456 1005Q460 1008 466 1008Q472 1008 476 1003L511
963Q515 959 515 953Q515 947 509 941L348 799ZM563 0Q539 0 524 14T496 55L410 230Q400 249 387 264T348 279H243V96H333Q346 96 346 83V13Q346 0 333 0H58Q45 0 45 13V83Q45 96 58 96H131V622H58Q45 622 45 635V705Q45 718 58 718H378Q431 718 475 703T552 660T603
589T622 494Q622 419 588 371T488 300Q508 283 531 240L605 96H668Q681 96 681 83V13Q681 0 668 0H563ZM350 368Q424 368 465 395T506 490Q506 527 494 552T461 593T412 615T350 622H243V368H350Z" />
<glyph unicode="&#x159;" glyph-name="rcaron" horiz-adv-x="439" d="M209 573Q203 567 197 567Q192 567 188 571L25 715Q19 719 19 726Q19 731 23 737L57 777Q61 782 68 782Q73 782 78 779L197 674L317 779Q321 782 327 782Q333 782 337 777L372 737Q376 733
376 727Q376 721 370 715L209 573ZM52 0Q39 0 39 13V75Q39 88 52 88H104V404H52Q39 404 39 417V479Q39 492 52 492H187Q200 492 200 479V361H203Q216 398 243 428Q255 441 270 453T306 474T353 490T411 496Q426 496 426 481V403Q426 388 411 388H383Q344 388 313
375T260 339T226 289T214 231V88H261Q274 88 274 75V13Q274 0 261 0H52Z" />
<glyph unicode="&#x15a;" glyph-name="Sacute" horiz-adv-x="675" d="M316 790Q311 787 307 787Q299 787 295 793L260 834Q256 838 256 844Q256 851 262 856L433 1007Q437 1011 442 1011Q449 1011 454 1006L499 953Q502 948 502 943Q502 937 497 932L316 790ZM67
0Q53 0 53 13V248Q53 261 67 261H154Q167 261 167 248V234Q167 230 176 209T208 163T269 119T364 99Q432 99 468 125T505 197Q505 234 473 255T393 291T289 320T185 358T105 420T73 522Q73 565 89 602T135 666T209 708T308 724Q380 724 425 703T497 651L495 706Q495
719 508 719H585Q597 719 597 706V480Q597 466 585 466H497Q484 466 484 480V504Q484 519 476 538T448 575T398 605T322 618Q260 618 227 591T193 522Q193 492 212 473T261 439T331 414T411 392T491 366T561 329T611 276T630 199Q630 159 616 122T572 56T496 10T383
-7Q330 -7 290 6T223 38T179 74T155 104L156 13Q156 0 143 0H67Z" />
<glyph unicode="&#x15b;" glyph-name="sacute" horiz-adv-x="505" d="M228 564Q223 561 219 561Q211 561 207 567L172 608Q168 612 168 618Q168 625 174 630L345 781Q349 785 354 785Q361 785 366 780L411 727Q414 722 414 717Q414 711 409 706L228 564ZM275 -7Q238
-7 211 1T165 21T136 43T123 58H121Q121 47 122 38Q123 30 123 24T124 15Q124 0 109 0H58Q43 0 43 15V166Q43 181 57 181H117Q131 181 131 166V152Q140 132 157 116Q171 102 195 92T258 81Q302 81 325 96T348 140Q348 163 327 175T273 197T204 215T135 240T82 282T60
352Q60 419 107 459T233 499Q287 499 320 483T372 443H374Q373 452 372 460Q371 466 371 471T371 478Q371 485 375 488T386 492H434Q448 492 448 478V331Q448 325 444 321T433 317H374Q359 317 359 331V342Q359 352 353 364T333 386T298 403T248 410Q216 410 192
395T168 351Q168 325 190 312T245 289T316 271T387 247T442 206T464 136Q464 109 454 84T422 38T363 5T275 -7Z" />
<glyph unicode="&#x15c;" glyph-name="Scircumflex" horiz-adv-x="675" d="M483 794Q478 788 472 788Q467 788 463 792L343 895L224 792Q220 788 215 788Q207 788 203 794L169 834Q165 840 165 844Q165 851 171 856L334 1000Q338 1004 343 1004Q349 1004 355 998L516
856Q522 850 522 844Q522 838 518 834L483 794ZM67 0Q53 0 53 13V248Q53 261 67 261H154Q167 261 167 248V234Q167 230 176 209T208 163T269 119T364 99Q432 99 468 125T505 197Q505 234 473 255T393 291T289 320T185 358T105 420T73 522Q73 565 89 602T135 666T209
708T308 724Q380 724 425 703T497 651L495 706Q495 719 508 719H585Q597 719 597 706V480Q597 466 585 466H497Q484 466 484 480V504Q484 519 476 538T448 575T398 605T322 618Q260 618 227 591T193 522Q193 492 212 473T261 439T331 414T411 392T491 366T561 329T611
276T630 199Q630 159 616 122T572 56T496 10T383 -7Q330 -7 290 6T223 38T179 74T155 104L156 13Q156 0 143 0H67Z" />
<glyph unicode="&#x15d;" glyph-name="scircumflex" horiz-adv-x="505" d="M386 568Q381 562 375 562Q370 562 366 566L246 669L127 566Q123 562 118 562Q110 562 106 568L72 608Q68 614 68 618Q68 625 74 630L237 774Q241 778 246 778Q252 778 258 772L419 630Q425
624 425 618Q425 612 421 608L386 568ZM275 -7Q238 -7 211 1T165 21T136 43T123 58H121Q121 47 122 38Q123 30 123 24T124 15Q124 0 109 0H58Q43 0 43 15V166Q43 181 57 181H117Q131 181 131 166V152Q140 132 157 116Q171 102 195 92T258 81Q302 81 325 96T348
140Q348 163 327 175T273 197T204 215T135 240T82 282T60 352Q60 419 107 459T233 499Q287 499 320 483T372 443H374Q373 452 372 460Q371 466 371 471T371 478Q371 485 375 488T386 492H434Q448 492 448 478V331Q448 325 444 321T433 317H374Q359 317 359 331V342Q359
352 353 364T333 386T298 403T248 410Q216 410 192 395T168 351Q168 325 190 312T245 289T316 271T387 247T442 206T464 136Q464 109 454 84T422 38T363 5T275 -7Z" />
<glyph unicode="&#x15e;" glyph-name="Scedilla" horiz-adv-x="675" d="M342 -159Q324 -159 310 -155T286 -147T269 -138T261 -133Q255 -130 255 -122Q255 -117 257 -114L268 -93Q272 -87 278 -87Q285 -87 296 -95T334 -103Q365 -103 365 -82Q365 -70 355 -66T334
-61T312 -58T302 -50Q302 -49 304 -43L318 0Q281 7 253 21T205 50T173 80T155 104L156 13Q156 0 143 0H67Q53 0 53 13V248Q53 261 67 261H154Q167 261 167 248V234Q167 230 176 209T208 163T269 119T364 99Q432 99 468 125T505 197Q505 235 473 256T393 292T289
321T185 358T105 420T73 522Q73 565 89 602T135 666T209 708T308 724Q380 724 425 703T497 651L495 706Q495 719 508 719H585Q597 719 597 706V480Q597 466 585 466H497Q484 466 484 480V504Q484 519 476 538T448 575T398 605T322 618Q260 618 227 591T193 522Q193
483 225 461T306 423T411 393T516 356T597 297T630 199Q630 159 616 122T572 56T496 10T383 -7H371L366 -23Q369 -23 379 -24T401 -30T422 -47T431 -81Q431 -117 408 -138T342 -159Z" />
<glyph unicode="&#x15f;" glyph-name="scedilla" horiz-adv-x="505" d="M255 -159Q237 -159 223 -155T199 -147T182 -138T174 -133Q168 -130 168 -122Q168 -117 170 -114L181 -93Q185 -87 191 -87Q198 -87 209 -95T247 -103Q278 -103 278 -82Q278 -70 268 -66T247
-61T225 -58T215 -50Q215 -49 217 -43L230 -3Q204 1 185 10T153 28T133 46T123 58H121Q121 47 122 38Q123 30 123 24T124 15Q124 0 109 0H58Q43 0 43 15V166Q43 181 57 181H117Q131 181 131 166V152Q140 132 157 116Q171 102 195 92T258 81Q302 81 325 96T348 140Q348
163 327 175T273 196T204 214T135 239T82 281T60 352Q60 419 107 459T233 499Q287 499 320 483T372 443H374Q373 452 372 460Q371 466 371 471T371 478Q371 485 375 488T386 492H434Q448 492 448 478V331Q448 325 444 321T433 317H374Q359 317 359 331V342Q359
352 353 364T333 386T298 403T248 410Q216 410 192 395T168 351Q168 325 190 312T245 289T316 271T387 247T442 206T464 136Q464 109 455 84T424 39T368 7T284 -7L279 -23Q282 -23 292 -24T314 -30T335 -47T344 -81Q344 -117 321 -138T255 -159Z" />
<glyph unicode="&#x160;" glyph-name="Scaron" horiz-adv-x="675" d="M359 799Q353 793 347 793Q342 793 338 797L175 941Q169 945 169 952Q169 957 173 963L207 1003Q211 1008 218 1008Q223 1008 228 1005L347 900L467 1005Q471 1008 477 1008Q483 1008 487 1003L522
963Q526 959 526 953Q526 947 520 941L359 799ZM67 0Q53 0 53 13V248Q53 261 67 261H154Q167 261 167 248V234Q167 230 176 209T208 163T269 119T364 99Q432 99 468 125T505 197Q505 234 473 255T393 291T289 320T185 358T105 420T73 522Q73 565 89 602T135 666T209
708T308 724Q380 724 425 703T497 651L495 706Q495 719 508 719H585Q597 719 597 706V480Q597 466 585 466H497Q484 466 484 480V504Q484 519 476 538T448 575T398 605T322 618Q260 618 227 591T193 522Q193 492 212 473T261 439T331 414T411 392T491 366T561 329T611
276T630 199Q630 159 616 122T572 56T496 10T383 -7Q330 -7 290 6T223 38T179 74T155 104L156 13Q156 0 143 0H67Z" />
<glyph unicode="&#x161;" glyph-name="scaron" horiz-adv-x="505" d="M267 573Q261 567 255 567Q250 567 246 571L83 715Q77 719 77 726Q77 731 81 737L115 777Q119 782 126 782Q131 782 136 779L255 674L375 779Q379 782 385 782Q391 782 395 777L430 737Q434
733 434 727Q434 721 428 715L267 573ZM275 -7Q238 -7 211 1T165 21T136 43T123 58H121Q121 47 122 38Q123 30 123 24T124 15Q124 0 109 0H58Q43 0 43 15V166Q43 181 57 181H117Q131 181 131 166V152Q140 132 157 116Q171 102 195 92T258 81Q302 81 325 96T348
140Q348 163 327 175T273 197T204 215T135 240T82 282T60 352Q60 419 107 459T233 499Q287 499 320 483T372 443H374Q373 452 372 460Q371 466 371 471T371 478Q371 485 375 488T386 492H434Q448 492 448 478V331Q448 325 444 321T433 317H374Q359 317 359 331V342Q359
352 353 364T333 386T298 403T248 410Q216 410 192 395T168 351Q168 325 190 312T245 289T316 271T387 247T442 206T464 136Q464 109 454 84T422 38T363 5T275 -7Z" />
<glyph unicode="&#x162;" glyph-name="Tcommaaccent" horiz-adv-x="677" d="M307 -219Q307 -215 314 -213T331 -207T348 -193T356 -164Q356 -161 356 -159T355 -155Q354 -153 354 -152Q352 -153 349 -154Q343 -156 335 -156Q314 -156 299 -141T283 -101Q283 -78
299 -62T338 -46Q367 -46 384 -67T402 -129Q402 -193 378 -221T315 -250Q307 -250 307 -244V-219ZM213 0Q198 0 198 15V81Q198 96 213 96H284V622H125V526Q125 510 111 510H34Q19 510 19 526V703Q19 718 34 718H643Q657 718 657 703V526Q657 510 643 510H566Q551
510 551 526V622H396V96H464Q478 96 478 81V15Q478 0 464 0H213Z" />
<glyph unicode="&#x163;" glyph-name="tcommaaccent" horiz-adv-x="387" d="M167 -219Q167 -215 174 -213T191 -207T208 -193T216 -164Q216 -161 216 -159T215 -155Q214 -153 214 -152Q212 -153 209 -154Q203 -156 195 -156Q174 -156 159 -141T143 -101Q143 -78
159 -62T198 -46Q227 -46 244 -67T262 -129Q262 -193 238 -221T175 -250Q167 -250 167 -244V-219ZM383 62Q386 57 386 53Q386 54 381 45T361 24T322 3T261 -7Q178 -7 133 38T88 174V404H36Q20 404 20 419V477Q20 492 36 492H88V599Q88 605 92 609T102 614H182Q189
614 193 610T197 599V492H323Q329 492 333 488T338 477V419Q338 412 334 408T323 404H197V175Q197 133 215 110T272 87Q289 87 299 91T317 99T328 108T337 112Q342 112 349 107L383 62Z" />
<glyph unicode="&#x164;" glyph-name="Tcaron" horiz-adv-x="677" d="M337 799Q331 793 325 793Q320 793 316 797L153 941Q147 945 147 952Q147 957 151 963L185 1003Q189 1008 196 1008Q201 1008 206 1005L325 900L445 1005Q449 1008 455 1008Q461 1008 465 1003L500
963Q504 959 504 953Q504 947 498 941L337 799ZM213 0Q198 0 198 15V81Q198 96 213 96H284V622H125V526Q125 510 111 510H34Q19 510 19 526V703Q19 718 34 718H643Q657 718 657 703V526Q657 510 643 510H566Q551 510 551 526V622H396V96H464Q478 96 478 81V15Q478
0 464 0H213Z" />
<glyph unicode="&#x165;" glyph-name="tcaron" horiz-adv-x="387" d="M245 567Q245 570 252 572T269 578T286 593T294 622Q294 626 294 628T293 632Q292 634 292 635Q290 633 287 632Q281 630 273 630Q252 630 237 645T221 685Q221 708 237 724T276 740Q305 740
322 719T340 657Q340 593 316 565T253 536Q245 536 245 541V567ZM383 62Q386 57 386 53Q386 54 381 45T361 24T322 3T261 -7Q178 -7 133 38T88 174V404H36Q20 404 20 419V477Q20 492 36 492H88V599Q88 605 92 609T102 614H182Q189 614 193 610T197 599V492H323Q329
492 333 488T338 477V419Q338 412 334 408T323 404H197V175Q197 133 215 110T272 87Q289 87 299 91T317 99T328 108T337 112Q342 112 349 107L383 62Z" />
<glyph unicode="&#x166;" glyph-name="Tbar" horiz-adv-x="677" d="M213 0Q198 0 198 15V81Q198 96 213 96H284V279H190Q175 279 175 294V353Q175 368 190 368H284V622H128V526Q128 510 114 510H34Q19 510 19 526V703Q19 718 34 718H643Q657 718 657 703V526Q657
510 643 510H563Q548 510 548 526V622H396V368H490Q506 368 506 353V294Q506 279 490 279H396V96H464Q478 96 478 81V15Q478 0 464 0H213Z" />
<glyph unicode="&#x167;" glyph-name="tbar" horiz-adv-x="389" d="M383 62Q386 57 386 53Q386 54 381 45T361 25T323 3T261 -7Q178 -7 133 38T88 174V253H38Q27 253 27 264V283Q27 294 38 294H88V404H36Q20 404 20 419V477Q20 492 36 492H88V599Q88 605 92 609T102
614H182Q189 614 193 610T197 599V492H323Q329 492 333 488T338 477V419Q338 412 334 408T323 404H197V294H285Q296 294 296 283V264Q296 253 285 253H197V175Q197 133 215 110T272 87Q289 87 299 91T317 99T328 108T337 112Q342 112 349 107L383 62Z" />
<glyph unicode="&#x168;" glyph-name="Utilde" horiz-adv-x="762" d="M542 622H469Q456 622 456 635V705Q456 718 469 718H727Q740 718 740 705V635Q740 622 727 622H654V269Q654 132 581 63T382 -7Q319 -7 268 10T182 62T127 148T107 269V622H35Q22 622 22 635V705Q22
718 35 718H293Q306 718 306 705V635Q306 622 293 622H220V265Q220 231 227 201T253 148T303 112T382 98Q424 98 454 110T503 144T532 195T542 260V622ZM560 925Q573 925 573 912Q573 852 549 818T474 783Q444 783 425 791T390 810T362 828T331 837Q314 837 306
828T298 786Q298 773 285 773H242Q229 773 229 786Q229 843 253 876T327 909Q355 909 374 900T408 881T438 862T470 853Q487 853 495 865T504 912Q504 925 517 925H560Z" />
<glyph unicode="&#x169;" glyph-name="utilde" horiz-adv-x="601" d="M458 0Q413 0 413 44V78H410Q407 72 399 58T374 30T330 4T262 -7Q221 -7 189 5T134 41T99 97T87 168V404H34Q21 404 21 417V479Q21 492 34 492H151Q196 492 196 448V200Q196 149 217 119T291
88Q322 88 343 99T376 123T394 149T400 162V404H351Q339 404 339 417V479Q339 492 351 492H496Q509 492 509 479V88H561Q574 88 574 75V13Q574 0 561 0H458ZM448 699Q461 699 461 686Q461 626 437 592T362 557Q332 557 313 565T278 584T250 602T219 611Q202 611
194 602T186 560Q186 547 173 547H130Q117 547 117 560Q117 617 141 650T215 683Q243 683 262 674T296 655T326 636T358 627Q375 627 383 639T392 686Q392 699 405 699H448Z" />
<glyph unicode="&#x16a;" glyph-name="Umacron" horiz-adv-x="762" d="M542 622H469Q456 622 456 635V705Q456 718 469 718H727Q740 718 740 705V635Q740 622 727 622H654V269Q654 132 581 63T382 -7Q319 -7 268 10T182 62T127 148T107 269V622H35Q22 622 22 635V705Q22
718 35 718H293Q306 718 306 705V635Q306 622 293 622H220V265Q220 231 227 201T253 148T303 112T382 98Q424 98 454 110T503 144T532 195T542 260V622ZM220 778Q206 778 206 793V852Q206 858 210 862T220 867H527Q533 867 537 863T541 852V793Q541 778 527 778H220Z"
/>
<glyph unicode="&#x16b;" glyph-name="umacron" horiz-adv-x="601" d="M458 0Q413 0 413 44V78H410Q407 72 399 58T374 30T330 4T262 -7Q221 -7 189 5T134 41T99 97T87 168V404H34Q21 404 21 417V479Q21 492 34 492H151Q196 492 196 448V200Q196 149 217 119T291
88Q322 88 343 99T376 123T394 149T400 162V404H351Q339 404 339 417V479Q339 492 351 492H496Q509 492 509 479V88H561Q574 88 574 75V13Q574 0 561 0H458ZM132 552Q118 552 118 567V626Q118 632 122 636T132 641H439Q445 641 449 637T453 626V567Q453 552 439
552H132Z" />
<glyph unicode="&#x16c;" glyph-name="Ubreve" horiz-adv-x="762" d="M542 622H469Q456 622 456 635V705Q456 718 469 718H727Q740 718 740 705V635Q740 622 727 622H654V269Q654 132 581 63T382 -7Q319 -7 268 10T182 62T127 148T107 269V622H35Q22 622 22 635V705Q22
718 35 718H293Q306 718 306 705V635Q306 622 293 622H220V265Q220 231 227 201T253 148T303 112T382 98Q424 98 454 110T503 144T532 195T542 260V622ZM518 936Q532 936 532 922Q532 853 490 818T384 782Q321 782 280 817T239 922Q239 936 253 936H305Q319 936
319 922Q319 888 338 870T384 851Q413 851 432 869T452 922Q452 936 466 936H518Z" />
<glyph unicode="&#x16d;" glyph-name="ubreve" horiz-adv-x="601" d="M458 0Q413 0 413 44V78H410Q407 72 399 58T374 30T330 4T262 -7Q221 -7 189 5T134 41T99 97T87 168V404H34Q21 404 21 417V479Q21 492 34 492H151Q196 492 196 448V200Q196 149 217 119T291
88Q322 88 343 99T376 123T394 149T400 162V404H351Q339 404 339 417V479Q339 492 351 492H496Q509 492 509 479V88H561Q574 88 574 75V13Q574 0 561 0H458ZM415 710Q429 710 429 696Q429 627 387 592T281 556Q218 556 177 591T136 696Q136 710 150 710H202Q216
710 216 696Q216 662 235 644T281 625Q310 625 329 643T349 696Q349 710 363 710H415Z" />
<glyph unicode="&#x16e;" glyph-name="Uring" horiz-adv-x="762" d="M439 831Q431 814 415 805T382 795Q354 795 337 814T319 859Q319 888 339 904T383 920Q411 920 428 901T445 857Q445 843 439 831ZM405 849Q407 855 407 858Q407 867 400 874T383 882Q372 882
365 876T358 858Q358 848 365 841T382 834Q390 834 396 837T405 849ZM542 622H469Q456 622 456 635V705Q456 718 469 718H727Q740 718 740 705V635Q740 622 727 622H654V269Q654 132 581 63T382 -7Q319 -7 268 10T182 62T127 148T107 269V622H35Q22 622 22 635V705Q22
718 35 718H293Q306 718 306 705V635Q306 622 293 622H220V265Q220 231 227 201T253 148T303 112T382 98Q424 98 454 110T503 144T532 195T542 260V622Z" />
<glyph unicode="&#x16f;" glyph-name="uring" horiz-adv-x="601" d="M347 605Q339 588 323 579T290 569Q262 569 245 588T227 633Q227 662 247 678T291 694Q319 694 336 675T353 631Q353 617 347 605ZM313 623Q315 629 315 632Q315 641 308 648T291 656Q280 656
273 650T266 632Q266 622 273 615T290 608Q298 608 304 611T313 623ZM458 0Q413 0 413 44V78H410Q407 72 399 58T374 30T330 4T262 -7Q221 -7 189 5T134 41T99 97T87 168V404H34Q21 404 21 417V479Q21 492 34 492H151Q196 492 196 448V200Q196 149 217 119T291
88Q322 88 343 99T376 123T394 149T400 162V404H351Q339 404 339 417V479Q339 492 351 492H496Q509 492 509 479V88H561Q574 88 574 75V13Q574 0 561 0H458Z" />
<glyph unicode="&#x170;" glyph-name="Uhungarumlaut" horiz-adv-x="762" d="M542 622H469Q456 622 456 635V705Q456 718 469 718H727Q740 718 740 705V635Q740 622 727 622H654V269Q654 132 581 63T382 -7Q319 -7 268 10T182 62T127 148T107 269V622H35Q22 622
22 635V705Q22 718 35 718H293Q306 718 306 705V635Q306 622 293 622H220V265Q220 231 227 201T253 148T303 112T382 98Q424 98 454 110T503 144T532 195T542 260V622ZM266 804Q261 801 257 801Q249 801 245 807L210 849Q206 853 206 859Q206 865 212 870L383 1022Q387
1026 392 1026Q399 1026 404 1020L449 967Q452 962 452 957Q452 951 447 946L266 804ZM461 804Q456 801 451 801Q443 801 439 807L405 849Q400 854 400 858Q400 866 407 870L577 1022Q581 1026 586 1026Q594 1026 599 1020L643 967Q646 962 646 957Q646 950 642
946L461 804Z" />
<glyph unicode="&#x171;" glyph-name="uhungarumlaut" horiz-adv-x="601" d="M458 0Q413 0 413 44V78H410Q407 72 399 58T374 30T330 4T262 -7Q221 -7 189 5T134 41T99 97T87 168V404H34Q21 404 21 417V479Q21 492 34 492H151Q196 492 196 448V200Q196 149 217
119T291 88Q322 88 343 99T376 123T394 149T400 162V404H351Q339 404 339 417V479Q339 492 351 492H496Q509 492 509 479V88H561Q574 88 574 75V13Q574 0 561 0H458ZM145 578Q140 575 136 575Q128 575 124 581L89 623Q85 627 85 633Q85 639 91 644L262 796Q266
800 271 800Q278 800 283 794L328 741Q331 736 331 731Q331 725 326 720L145 578ZM340 578Q335 575 330 575Q322 575 318 581L284 623Q279 628 279 632Q279 640 286 644L456 796Q460 800 465 800Q473 800 478 794L522 741Q525 736 525 731Q525 724 521 720L340
578Z" />
<glyph unicode="&#x172;" glyph-name="Uogonek" horiz-adv-x="762" d="M542 622H469Q456 622 456 635V705Q456 718 469 718H727Q740 718 740 705V635Q740 622 727 622H654V269Q654 141 592 73T420 -5Q411 -10 402 -17T384 -34T370 -54T364 -78Q364 -92 373 -99T393
-107Q410 -107 422 -100T442 -93Q449 -93 452 -99L465 -120Q467 -126 467 -127Q467 -134 460 -139Q458 -140 452 -144T435 -154T409 -164T376 -168Q337 -168 315 -147T292 -91Q292 -57 311 -37T351 -6Q238 2 173 71T107 269V622H35Q22 622 22 635V705Q22 718 35
718H293Q306 718 306 705V635Q306 622 293 622H220V265Q220 231 227 201T253 148T303 112T382 98Q424 98 454 110T503 144T532 195T542 260V622Z" />
<glyph unicode="&#x173;" glyph-name="uogonek" horiz-adv-x="601" d="M543 0Q535 -4 524 -11T502 -28T484 -50T477 -78Q477 -92 486 -99T506 -107Q523 -107 535 -100T555 -93Q562 -93 565 -99L578 -120Q580 -126 580 -127Q580 -134 573 -139Q571 -140 565 -144T548
-154T522 -164T489 -168Q450 -168 428 -147T405 -91Q405 -71 412 -56T431 -30T454 -11T478 0H458Q413 0 413 44V78H410Q407 72 399 58T374 30T330 4T262 -7Q221 -7 189 5T134 41T99 97T87 168V404H34Q21 404 21 417V479Q21 492 34 492H151Q196 492 196 448V200Q196
149 217 119T291 88Q322 88 343 99T376 123T394 149T400 162V404H351Q339 404 339 417V479Q339 492 351 492H496Q509 492 509 479V88H561Q574 88 574 75V13Q574 0 561 0H543Z" />
<glyph unicode="&#x174;" glyph-name="Wcircumflex" horiz-adv-x="1011" d="M615 794Q610 788 604 788Q599 788 595 792L475 895L356 792Q352 788 347 788Q339 788 335 794L301 834Q297 840 297 844Q297 851 303 856L466 1000Q470 1004 475 1004Q481 1004 487
998L648 856Q654 850 654 844Q654 838 650 834L615 794ZM670 0Q645 0 632 11T611 48L507 506H502L400 48Q393 22 380 11T341 0H295Q270 0 258 11T237 48L67 622H6Q-7 622 -7 635V705Q-7 718 6 718H256Q270 718 270 705V635Q270 622 256 622H188L315 144H322L453
718H557L689 144H696L823 622H755Q741 622 741 635V705Q741 718 755 718H1005Q1019 718 1019 705V635Q1019 622 1005 622H943L774 48Q766 22 754 11T716 0H670Z" />
<glyph unicode="&#x175;" glyph-name="wcircumflex" horiz-adv-x="833" d="M558 568Q553 562 547 562Q542 562 538 566L418 669L299 566Q295 562 290 562Q282 562 278 568L244 608Q240 614 240 618Q240 625 246 630L409 774Q413 778 418 778Q424 778 430 772L591
630Q597 624 597 618Q597 612 593 608L558 568ZM519 0Q504 0 497 6T486 26L418 319H415L345 26Q341 0 313 0H229Q215 0 209 6T198 26L74 404H22Q9 404 9 417V479Q9 492 22 492H230Q243 492 243 479V417Q243 404 230 404H188L273 104H275L354 404H325Q312 404 312
417V479Q312 492 325 492H508Q521 492 521 479V417Q521 404 508 404H481L558 104H560L644 404H603Q589 404 589 417V479Q589 492 603 492H810Q823 492 823 479V417Q823 404 810 404H756L634 26Q629 13 623 7T602 0H519Z" />
<glyph unicode="&#x176;" glyph-name="Ycircumflex" horiz-adv-x="671" d="M204 0Q191 0 191 13V83Q191 96 204 96H279V282Q278 283 267 302T237 352T196 421T150 496T107 567T72 622H4Q-9 622 -9 635V705Q-9 718 4 718H262Q275 718 275 705V635Q275 622 262 622H201L337
380H342L476 622H412Q399 622 399 635V705Q399 718 412 718H667Q681 718 681 705V635Q681 622 667 622H599Q585 601 565 568T521 497T475 421T434 353T404 303T391 282V96H466Q479 96 479 83V13Q479 0 466 0H204ZM442 794Q437 788 431 788Q426 788 422 792L302
895L183 792Q179 788 174 788Q166 788 162 794L128 834Q124 840 124 844Q124 851 130 856L293 1000Q297 1004 302 1004Q308 1004 314 998L475 856Q481 850 481 844Q481 838 477 834L442 794Z" />
<glyph unicode="&#x177;" glyph-name="ycircumflex" horiz-adv-x="584" d="M509 -13Q509 -70 490 -112T437 -181T357 -221T259 -235Q211 -235 176 -226T116 -204T78 -181T59 -165Q53 -161 53 -152Q53 -147 55 -145L92 -92Q95 -88 100 -88Q106 -88 115 -96T141
-113T185 -131T256 -139Q288 -139 316 -132T366 -110T399 -71T412 -13V78H410Q407 72 399 58T373 30T329 4T261 -7Q180 -7 134 41T87 168L86 404H33Q20 404 20 417V479Q20 492 33 492H150Q195 492 195 448V200Q195 149 217 119T290 89Q321 89 342 100T376 124T394
149T399 162V404H351Q338 404 338 417V479Q338 492 351 492H495Q508 492 508 479L509 -13ZM420 568Q415 562 409 562Q404 562 400 566L280 669L161 566Q157 562 152 562Q144 562 140 568L106 608Q102 614 102 618Q102 625 108 630L271 774Q275 778 280 778Q286
778 292 772L453 630Q459 624 459 618Q459 612 455 608L420 568Z" />
<glyph unicode="&#x178;" glyph-name="Ydieresis" horiz-adv-x="671" d="M204 0Q191 0 191 13V83Q191 96 204 96H279V282Q278 283 267 302T237 352T196 421T150 496T107 567T72 622H4Q-9 622 -9 635V705Q-9 718 4 718H262Q275 718 275 705V635Q275 622 262 622H201L337
380H342L476 622H412Q399 622 399 635V705Q399 718 412 718H667Q681 718 681 705V635Q681 622 667 622H599Q585 601 565 568T521 497T475 421T434 353T404 303T391 282V96H466Q479 96 479 83V13Q479 0 466 0H204ZM293 833Q293 810 278 795T239 779Q217 779 202
794T186 833Q186 856 201 871T239 887Q262 887 277 872T293 833ZM472 833Q472 810 456 795T417 779Q394 779 379 794T364 833Q364 856 379 871T417 887Q440 887 456 872T472 833Z" />
<glyph unicode="&#x179;" glyph-name="Zacute" horiz-adv-x="658" d="M280 790Q275 787 271 787Q263 787 259 793L224 834Q220 838 220 844Q220 851 226 856L397 1007Q401 1011 406 1011Q413 1011 418 1006L463 953Q466 948 466 943Q466 937 461 932L280 790ZM64
0Q49 0 49 15V76Q49 85 57 96T73 118L461 622H156V537Q156 523 141 523H64Q49 523 49 537V703Q49 718 64 718H595Q609 718 609 703V651Q609 637 602 625T585 601L197 96H502V181Q502 195 517 195H595Q609 195 609 181V15Q609 0 595 0H64Z" />
<glyph unicode="&#x17a;" glyph-name="zacute" horiz-adv-x="549" d="M248 564Q243 561 239 561Q231 561 227 567L192 608Q188 612 188 618Q188 625 194 630L365 781Q369 785 374 785Q381 785 386 780L431 727Q434 722 434 717Q434 711 429 706L248 564ZM61 0Q48
0 48 13V67Q48 84 53 91T67 107L365 404H135V333Q135 320 122 320H61Q48 320 48 333V479Q48 492 61 492H488Q501 492 501 479V430Q501 407 482 390L183 88H414V158Q414 171 427 171H488Q501 171 501 158V13Q501 0 488 0H61Z" />
<glyph unicode="&#x17b;" glyph-name="Zdotaccent" horiz-adv-x="658" d="M64 0Q49 0 49 15V76Q49 85 57 96T73 118L461 622H156V537Q156 523 141 523H64Q49 523 49 537V703Q49 718 64 718H595Q609 718 609 703V651Q609 637 602 625T585 601L197 96H502V181Q502
195 517 195H595Q609 195 609 181V15Q609 0 595 0H64ZM398 847Q398 823 382 807T341 790Q318 790 302 806T285 847Q285 870 301 887T341 904Q365 904 381 887T398 847Z" />
<glyph unicode="&#x17c;" glyph-name="zdotaccent" horiz-adv-x="549" d="M61 0Q48 0 48 13V67Q48 84 53 91T67 107L365 404H135V333Q135 320 122 320H61Q48 320 48 333V479Q48 492 61 492H488Q501 492 501 479V430Q501 407 482 390L183 88H414V158Q414 171 427
171H488Q501 171 501 158V13Q501 0 488 0H61ZM334 621Q334 597 318 581T277 564Q254 564 238 580T221 621Q221 644 237 661T277 678Q301 678 317 661T334 621Z" />
<glyph unicode="&#x17d;" glyph-name="Zcaron" horiz-adv-x="658" d="M352 799Q346 793 340 793Q335 793 331 797L168 941Q162 945 162 952Q162 957 166 963L200 1003Q204 1008 211 1008Q216 1008 221 1005L340 900L460 1005Q464 1008 470 1008Q476 1008 480 1003L515
963Q519 959 519 953Q519 947 513 941L352 799ZM64 0Q49 0 49 15V76Q49 85 57 96T73 118L461 622H156V537Q156 523 141 523H64Q49 523 49 537V703Q49 718 64 718H595Q609 718 609 703V651Q609 637 602 625T585 601L197 96H502V181Q502 195 517 195H595Q609 195
609 181V15Q609 0 595 0H64Z" />
<glyph unicode="&#x17e;" glyph-name="zcaron" horiz-adv-x="549" d="M287 573Q281 567 275 567Q270 567 266 571L103 715Q97 719 97 726Q97 731 101 737L135 777Q139 782 146 782Q151 782 156 779L275 674L395 779Q399 782 405 782Q411 782 415 777L450 737Q454
733 454 727Q454 721 448 715L287 573ZM61 0Q48 0 48 13V67Q48 84 53 91T67 107L365 404H135V333Q135 320 122 320H61Q48 320 48 333V479Q48 492 61 492H488Q501 492 501 479V430Q501 407 482 390L183 88H414V158Q414 171 427 171H488Q501 171 501 158V13Q501 0
488 0H61Z" />
<glyph unicode="&#x17f;" glyph-name="longs" horiz-adv-x="340" d="M52 0Q39 0 39 13V75Q39 88 52 88H104V404H51Q38 404 38 417V479Q38 492 51 492H104V544Q104 635 149 680T278 725Q304 725 324 719T358 705T383 689T398 676Q405 669 405 665Q405 663 401 657L367
611Q360 606 356 606Q352 606 348 609T336 617T318 626T290 630Q252 630 233 608T214 544V88H299Q312 88 312 75V13Q312 0 299 0H52Z" />
<glyph unicode="&#x192;" glyph-name="florin" horiz-adv-x="551" d="M218 404H165Q151 404 151 417V479Q151 492 165 492H218V544Q218 635 263 680T392 725Q418 725 438 719T472 705T497 689T512 676Q519 669 519 664Q519 661 516 657L480 611Q475 606 470 606Q467
606 462 609T450 617T431 626T404 630Q366 630 347 608T328 544V492H455Q468 492 468 479V417Q468 404 455 404H328V-54Q328 -144 283 -189T154 -235Q128 -235 108 -229T74 -215T49 -199T34 -186Q28 -180 28 -175Q28 -172 31 -167L66 -121Q71 -116 76 -116Q79 -116
83 -119T95 -127T114 -135T143 -139Q181 -139 199 -117T218 -53V404Z" />
<glyph unicode="&#x1fc;" glyph-name="AEacute" horiz-adv-x="1011" d="M544 790Q539 787 535 787Q527 787 523 793L488 834Q484 838 484 844Q484 851 490 856L661 1007Q665 1011 670 1011Q677 1011 682 1006L727 953Q730 948 730 943Q730 937 725 932L544 790ZM403
0Q390 0 390 13V83Q390 96 403 96H476V311H271L184 96H252Q265 96 265 83V13Q265 0 252 0H4Q-9 0 -9 13V83Q-9 96 4 96H71L288 622H227Q214 622 214 635V705Q214 718 227 718H949Q962 718 962 705V525Q962 512 949 512H869Q856 512 856 525V622H588V407H811Q825
407 825 394V324Q825 311 811 311H588V96H855V193Q855 206 869 206H949Q962 206 962 193V13Q962 0 949 0H403ZM476 622H400L310 407H476V622Z" />
<glyph unicode="&#x1fd;" glyph-name="aeacute" horiz-adv-x="883" d="M430 564Q425 561 421 561Q413 561 409 567L374 608Q370 612 370 618Q370 625 376 630L547 781Q551 785 556 785Q563 785 568 780L613 727Q616 722 616 717Q616 711 611 706L430 564ZM484
227Q487 190 500 164T534 120T580 94T633 86Q664 86 690 95T735 115T766 139T782 157Q785 163 791 163Q797 163 801 159L839 119Q845 113 845 107Q845 102 842 99Q838 92 823 75T781 39T715 8T624 -6Q556 -6 500 22T410 105V104Q399 88 381 69T336 33T275 5T198
-7Q125 -7 79 30T33 133Q33 173 51 202T104 251T186 280T294 289H371V299Q371 357 342 380T259 404Q222 404 196 398T153 383T127 368T115 361Q113 361 113 361T110 360Q104 360 100 366L61 416Q57 420 57 424Q57 427 62 432Q63 433 75 444T113 467T175 489T265
499Q324 499 368 482T438 425Q473 462 519 481T614 500Q729 500 785 433T842 242Q842 227 828 227H484ZM376 167Q374 174 373 191T371 217H302Q269 217 241 214T191 203T159 182T147 150Q147 121 171 103T236 85Q269 85 294 96T336 123T363 151T376 167ZM737 299Q735
344 706 377T618 411Q568 411 532 384T487 299H737Z" />
<glyph unicode="&#x1fe;" glyph-name="Oslashacute" horiz-adv-x="796" d="M398 -7Q364 -7 331 -1L320 -39Q317 -53 304 -53H255Q244 -53 244 -43Q244 -42 244 -42T245 -39L262 19Q214 38 174 71T106 148T61 246T45 363Q45 450 75 517T154 631T267 700T398 724Q416
724 433 722T469 717L484 768Q488 781 502 781H550Q560 781 560 773Q560 770 559 768L538 697Q583 679 622 648T689 575T734 480T751 363Q751 278 724 210T650 93T538 19T398 -7ZM167 360Q167 273 202 214T293 125L438 614Q428 616 418 617T398 618Q355 618 314
602T240 553T187 473T167 360ZM398 100Q443 100 485 117T559 168T610 249T630 360Q630 447 595 504T506 590L362 103Q380 100 398 100ZM394 796Q389 793 385 793Q377 793 373 799L338 840Q334 844 334 850Q334 857 340 862L511 1013Q515 1017 520 1017Q527 1017
532 1012L577 959Q580 954 580 949Q580 943 575 938L394 796Z" />
<glyph unicode="&#x1ff;" glyph-name="oslashacute" horiz-adv-x="588" d="M294 -7Q246 -7 206 5L195 -16Q188 -29 179 -29H150Q138 -29 138 -21Q138 -20 140 -16L160 25Q104 56 72 113T40 248Q40 306 59 353T113 432T193 481T294 499Q346 499 392 482L399 496Q406
510 417 510H446Q456 510 456 501Q456 498 455 496L437 461Q488 429 518 375T548 248Q548 189 530 142T478 62T397 11T294 -7ZM151 247Q151 203 165 170T206 115L348 395Q321 406 294 406Q265 406 239 395T194 364T163 314T151 247ZM294 85Q324 85 350 96T396 129T426
180T437 247Q437 287 425 317T390 368L250 92Q270 85 294 85ZM291 564Q286 561 282 561Q274 561 270 567L235 608Q231 612 231 618Q231 625 237 630L408 781Q412 785 417 785Q424 785 429 780L474 727Q477 722 477 717Q477 711 472 706L291 564Z" />
<glyph unicode="&#x218;" glyph-name="Scommaaccent" horiz-adv-x="675" d="M321 -219Q321 -215 328 -213T345 -207T362 -193T370 -164Q370 -161 370 -159T369 -155Q368 -153 368 -152Q366 -153 363 -154Q357 -156 349 -156Q328 -156 313 -141T297 -101Q297 -78
313 -62T352 -46Q381 -46 398 -67T416 -129Q416 -193 392 -221T329 -250Q321 -250 321 -244V-219ZM67 0Q53 0 53 13V248Q53 261 67 261H154Q167 261 167 248V234Q167 230 176 209T208 163T269 119T364 99Q432 99 468 125T505 197Q505 234 473 255T393 291T289 320T185
358T105 420T73 522Q73 565 89 602T135 666T209 708T308 724Q380 724 425 703T497 651L495 706Q495 719 508 719H585Q597 719 597 706V480Q597 466 585 466H497Q484 466 484 480V504Q484 519 476 538T448 575T398 605T322 618Q260 618 227 591T193 522Q193 492
212 473T261 439T331 414T411 392T491 366T561 329T611 276T630 199Q630 159 616 122T572 56T496 10T383 -7Q330 -7 290 6T223 38T179 74T155 104L156 13Q156 0 143 0H67Z" />
<glyph unicode="&#x219;" glyph-name="scommaaccent" horiz-adv-x="505" d="M240 -219Q240 -215 247 -213T264 -207T281 -193T289 -164Q289 -161 289 -159T288 -155Q287 -153 287 -152Q285 -153 282 -154Q276 -156 268 -156Q247 -156 232 -141T216 -101Q216 -78
232 -62T271 -46Q300 -46 317 -67T335 -129Q335 -193 311 -221T248 -250Q240 -250 240 -244V-219ZM275 -7Q238 -7 211 1T165 21T136 43T123 58H121Q121 47 122 38Q123 30 123 24T124 15Q124 0 109 0H58Q43 0 43 15V166Q43 181 57 181H117Q131 181 131 166V152Q140
132 157 116Q171 102 195 92T258 81Q302 81 325 96T348 140Q348 163 327 175T273 197T204 215T135 240T82 282T60 352Q60 419 107 459T233 499Q287 499 320 483T372 443H374Q373 452 372 460Q371 466 371 471T371 478Q371 485 375 488T386 492H434Q448 492 448
478V331Q448 325 444 321T433 317H374Q359 317 359 331V342Q359 352 353 364T333 386T298 403T248 410Q216 410 192 395T168 351Q168 325 190 312T245 289T316 271T387 247T442 206T464 136Q464 109 454 84T422 38T363 5T275 -7Z" />
<glyph unicode="&#x2c6;" glyph-name="circumflex" horiz-adv-x="420" d="M349 568Q344 562 338 562Q333 562 329 566L209 669L90 566Q86 562 81 562Q73 562 69 568L35 608Q31 614 31 618Q31 625 37 630L200 774Q204 778 209 778Q215 778 221 772L382 630Q388
624 388 618Q388 612 384 608L349 568Z" />
<glyph unicode="&#x2c7;" glyph-name="caron" horiz-adv-x="420" d="M221 573Q215 567 209 567Q204 567 200 571L37 715Q31 719 31 726Q31 731 35 737L69 777Q73 782 80 782Q85 782 90 779L209 674L329 779Q333 782 339 782Q345 782 349 777L384 737Q388 733 388
727Q388 721 382 715L221 573Z" />
<glyph unicode="&#x2d8;" glyph-name="breve" horiz-adv-x="357" d="M311 710Q325 710 325 696Q325 627 283 592T177 556Q114 556 73 591T32 696Q32 710 46 710H98Q112 710 112 696Q112 662 131 644T177 625Q206 625 225 643T245 696Q245 710 259 710H311Z" />
<glyph unicode="&#x2d9;" glyph-name="dotaccent" horiz-adv-x="176" d="M145 621Q145 597 129 581T88 564Q65 564 49 580T32 621Q32 644 48 661T88 678Q112 678 128 661T145 621Z" />
<glyph unicode="&#x2da;" glyph-name="ring" horiz-adv-x="223" d="M169 605Q161 588 145 579T112 569Q84 569 67 588T49 633Q49 662 69 678T113 694Q141 694 158 675T175 631Q175 617 169 605ZM135 623Q137 629 137 632Q137 641 130 648T113 656Q102 656 95 650T88
632Q88 622 95 615T112 608Q120 608 126 611T135 623Z" />
<glyph unicode="&#x2db;" glyph-name="ogonek" horiz-adv-x="240" d="M205 -120Q207 -126 207 -127Q207 -134 200 -139Q198 -140 192 -144T175 -154T149 -164T116 -168Q77 -168 55 -147T32 -91Q32 -65 44 -47T73 -18T104 -1T127 5H181Q178 4 166 -2T140 -19T115
-45T104 -78Q104 -92 113 -99T133 -107Q150 -107 162 -100T182 -93Q189 -93 192 -99L205 -120Z" />
<glyph unicode="&#x2dc;" glyph-name="tilde" horiz-adv-x="404" d="M361 699Q374 699 374 686Q374 626 350 592T275 557Q245 557 226 565T191 584T163 602T132 611Q115 611 107 602T99 560Q99 547 86 547H43Q30 547 30 560Q30 617 54 650T128 683Q156 683 175
674T209 655T239 636T271 627Q288 627 296 639T305 686Q305 699 318 699H361Z" />
<glyph unicode="&#x2dd;" glyph-name="hungarumlaut" horiz-adv-x="505" d="M92 578Q87 575 83 575Q75 575 71 581L36 623Q32 627 32 633Q32 639 38 644L209 796Q213 800 218 800Q225 800 230 794L275 741Q278 736 278 731Q278 725 273 720L92 578ZM287 578Q282
575 277 575Q269 575 265 581L231 623Q226 628 226 632Q226 640 233 644L403 796Q407 800 412 800Q420 800 425 794L469 741Q472 736 472 731Q472 724 468 720L287 578Z" />
<glyph unicode="&#x1e80;" glyph-name="Wgrave" horiz-adv-x="1011" d="M670 0Q645 0 632 11T611 48L507 506H502L400 48Q393 22 380 11T341 0H295Q270 0 258 11T237 48L67 622H6Q-7 622 -7 635V705Q-7 718 6 718H256Q270 718 270 705V635Q270 622 256 622H188L315
144H322L453 718H557L689 144H696L823 622H755Q741 622 741 635V705Q741 718 755 718H1005Q1019 718 1019 705V635Q1019 622 1005 622H943L774 48Q766 22 754 11T716 0H670ZM565 793Q560 787 554 787Q550 787 544 791L363 933Q358 938 358 943Q358 948 361 954L406
1006Q410 1012 418 1012Q423 1012 427 1008L598 856Q604 851 604 845Q604 839 600 835L565 793Z" />
<glyph unicode="&#x1e81;" glyph-name="wgrave" horiz-adv-x="833" d="M519 0Q504 0 497 6T486 26L418 319H415L345 26Q341 0 313 0H229Q215 0 209 6T198 26L74 404H22Q9 404 9 417V479Q9 492 22 492H230Q243 492 243 479V417Q243 404 230 404H188L273 104H275L354
404H325Q312 404 312 417V479Q312 492 325 492H508Q521 492 521 479V417Q521 404 508 404H481L558 104H560L644 404H603Q589 404 589 417V479Q589 492 603 492H810Q823 492 823 479V417Q823 404 810 404H756L634 26Q629 13 623 7T602 0H519ZM450 567Q445 561 439
561Q435 561 429 565L248 707Q243 712 243 717Q243 722 246 728L291 780Q295 786 303 786Q308 786 312 782L483 630Q489 625 489 619Q489 613 485 609L450 567Z" />
<glyph unicode="&#x1e82;" glyph-name="Wacute" horiz-adv-x="1011" d="M483 790Q478 787 474 787Q466 787 462 793L427 834Q423 838 423 844Q423 851 429 856L600 1007Q604 1011 609 1011Q616 1011 621 1006L666 953Q669 948 669 943Q669 937 664 932L483 790ZM670
0Q645 0 632 11T611 48L507 506H502L400 48Q393 22 380 11T341 0H295Q270 0 258 11T237 48L67 622H6Q-7 622 -7 635V705Q-7 718 6 718H256Q270 718 270 705V635Q270 622 256 622H188L315 144H322L453 718H557L689 144H696L823 622H755Q741 622 741 635V705Q741
718 755 718H1005Q1019 718 1019 705V635Q1019 622 1005 622H943L774 48Q766 22 754 11T716 0H670Z" />
<glyph unicode="&#x1e83;" glyph-name="wacute" horiz-adv-x="833" d="M389 564Q384 561 380 561Q372 561 368 567L333 608Q329 612 329 618Q329 625 335 630L506 781Q510 785 515 785Q522 785 527 780L572 727Q575 722 575 717Q575 711 570 706L389 564ZM519
0Q504 0 497 6T486 26L418 319H415L345 26Q341 0 313 0H229Q215 0 209 6T198 26L74 404H22Q9 404 9 417V479Q9 492 22 492H230Q243 492 243 479V417Q243 404 230 404H188L273 104H275L354 404H325Q312 404 312 417V479Q312 492 325 492H508Q521 492 521 479V417Q521
404 508 404H481L558 104H560L644 404H603Q589 404 589 417V479Q589 492 603 492H810Q823 492 823 479V417Q823 404 810 404H756L634 26Q629 13 623 7T602 0H519Z" />
<glyph unicode="&#x1e84;" glyph-name="Wdieresis" horiz-adv-x="1011" d="M467 833Q467 810 452 795T413 779Q391 779 376 794T360 833Q360 856 375 871T413 887Q436 887 451 872T467 833ZM646 833Q646 810 630 795T591 779Q568 779 553 794T538 833Q538 856
553 871T591 887Q614 887 630 872T646 833ZM670 0Q645 0 632 11T611 48L507 506H502L400 48Q393 22 380 11T341 0H295Q270 0 258 11T237 48L67 622H6Q-7 622 -7 635V705Q-7 718 6 718H256Q270 718 270 705V635Q270 622 256 622H188L315 144H322L453 718H557L689
144H696L823 622H755Q741 622 741 635V705Q741 718 755 718H1005Q1019 718 1019 705V635Q1019 622 1005 622H943L774 48Q766 22 754 11T716 0H670Z" />
<glyph unicode="&#x1e85;" glyph-name="wdieresis" horiz-adv-x="833" d="M386 607Q386 584 371 569T332 553Q310 553 295 568T279 607Q279 630 294 645T332 661Q355 661 370 646T386 607ZM565 607Q565 584 549 569T510 553Q487 553 472 568T457 607Q457 630 472
645T510 661Q533 661 549 646T565 607ZM519 0Q504 0 497 6T486 26L418 319H415L345 26Q341 0 313 0H229Q215 0 209 6T198 26L74 404H22Q9 404 9 417V479Q9 492 22 492H230Q243 492 243 479V417Q243 404 230 404H188L273 104H275L354 404H325Q312 404 312 417V479Q312
492 325 492H508Q521 492 521 479V417Q521 404 508 404H481L558 104H560L644 404H603Q589 404 589 417V479Q589 492 603 492H810Q823 492 823 479V417Q823 404 810 404H756L634 26Q629 13 623 7T602 0H519Z" />
<glyph unicode="&#x1ef2;" glyph-name="Ygrave" horiz-adv-x="671" d="M204 0Q191 0 191 13V83Q191 96 204 96H279V282Q278 283 267 302T237 352T196 421T150 496T107 567T72 622H4Q-9 622 -9 635V705Q-9 718 4 718H262Q275 718 275 705V635Q275 622 262 622H201L337
380H342L476 622H412Q399 622 399 635V705Q399 718 412 718H667Q681 718 681 705V635Q681 622 667 622H599Q585 601 565 568T521 497T475 421T434 353T404 303T391 282V96H466Q479 96 479 83V13Q479 0 466 0H204ZM418 793Q413 787 407 787Q403 787 397 791L216
933Q211 938 211 943Q211 948 214 954L259 1006Q263 1012 271 1012Q276 1012 280 1008L451 856Q457 851 457 845Q457 839 453 835L418 793Z" />
<glyph unicode="&#x1ef3;" glyph-name="ygrave" horiz-adv-x="584" d="M509 -13Q509 -70 490 -112T437 -181T357 -221T259 -235Q211 -235 176 -226T116 -204T78 -181T59 -165Q53 -161 53 -152Q53 -147 55 -145L92 -92Q95 -88 100 -88Q106 -88 115 -96T141 -113T185
-131T256 -139Q288 -139 316 -132T366 -110T399 -71T412 -13V78H410Q407 72 399 58T373 30T329 4T261 -7Q180 -7 134 41T87 168L86 404H33Q20 404 20 417V479Q20 492 33 492H150Q195 492 195 448V200Q195 149 217 119T290 89Q321 89 342 100T376 124T394 149T399
162V404H351Q338 404 338 417V479Q338 492 351 492H495Q508 492 508 479L509 -13ZM312 567Q307 561 301 561Q297 561 291 565L110 707Q105 712 105 717Q105 722 108 728L153 780Q157 786 165 786Q170 786 174 782L345 630Q351 625 351 619Q351 613 347 609L312
567Z" />
<glyph unicode="&#x2013;" glyph-name="endash" horiz-adv-x="624" d="M81 211Q75 211 71 215T66 226V299Q66 305 70 309T81 313H543Q558 313 558 299V226Q558 211 543 211H81Z" />
<glyph unicode="&#x2014;" glyph-name="emdash" horiz-adv-x="948" d="M81 211Q75 211 71 215T66 226V299Q66 305 70 309T81 313H867Q882 313 882 299V226Q882 211 867 211H81Z" />
<glyph unicode="&#x2018;" glyph-name="quoteleft" horiz-adv-x="210" d="M140 767Q140 764 133 762T116 756T99 741T91 712Q91 704 92 702Q92 700 93 699Q95 700 98 701Q100 702 103 703T112 704Q134 704 149 689T165 649Q165 626 149 610T109 594Q80 594 63
615T45 677Q45 741 69 769T132 798Q140 798 140 793V767Z" />
<glyph unicode="&#x2019;" glyph-name="quoteright" horiz-adv-x="215" d="M73 570Q73 573 80 575T97 581T114 596T122 625Q122 629 122 631T121 635Q120 637 120 638Q118 636 115 635Q109 633 101 633Q80 633 65 648T49 688Q49 711 65 727T104 743Q133 743 150
722T168 660Q168 596 144 568T81 539Q73 539 73 544V570Z" />
<glyph unicode="&#x201a;" glyph-name="quotesinglbase" horiz-adv-x="238" d="M85 -71Q85 -67 92 -65T109 -59T125 -45T133 -16Q133 -12 133 -10T132 -6Q131 -4 131 -3Q130 -4 127 -5Q121 -7 113 -7Q91 -7 76 8T60 47Q60 70 76 86T115 102Q145 102 162 81T180
20Q180 -45 156 -73T92 -101Q85 -101 85 -96V-71Z" />
<glyph unicode="&#x201c;" glyph-name="quotedblleft" horiz-adv-x="382" d="M312 767Q312 761 305 761Q290 761 277 750T264 712Q264 704 265 702Q265 700 266 699Q267 700 270 701Q272 702 275 703T284 704Q306 704 321 689T336 649Q336 626 320 610T281 594Q252
594 235 615T218 677Q218 741 242 769T305 798Q312 798 312 793V767ZM140 767Q140 764 133 762T116 756T99 741T91 712Q91 704 92 702Q92 700 93 699Q95 700 98 701Q100 702 103 703T112 704Q134 704 149 689T165 649Q165 626 149 610T109 594Q80 594 63 615T45
677Q45 741 69 769T132 798Q140 798 140 793V767Z" />
<glyph unicode="&#x201d;" glyph-name="quotedblright" horiz-adv-x="387" d="M73 570Q73 573 80 575T97 581T114 596T122 625Q122 629 122 631T121 635Q120 637 120 638Q118 636 115 635Q109 633 101 633Q80 633 65 648T49 688Q49 711 65 727T104 743Q133 743
150 722T168 660Q168 596 144 568T81 539Q73 539 73 544V570ZM246 570Q246 573 253 575T270 582T286 596T294 625Q294 629 294 631T293 635Q292 637 292 638Q290 636 287 635Q281 633 274 633Q252 633 237 648T221 688Q221 711 237 727T276 743Q305 743 322 722T340
660Q340 596 316 568T253 539Q246 539 246 544V570Z" />
<glyph unicode="&#x201e;" glyph-name="quotedblbase" horiz-adv-x="402" d="M85 -71Q85 -67 92 -65T109 -59T125 -45T133 -16Q133 -12 133 -10T132 -6Q131 -4 131 -3Q130 -4 127 -5Q121 -7 113 -7Q91 -7 76 8T60 47Q60 70 76 86T115 102Q145 102 162 81T180 20Q180
-45 156 -73T92 -101Q85 -101 85 -96V-71ZM249 -71Q249 -67 256 -65T273 -59T289 -45T297 -16Q297 -12 297 -10T296 -6Q295 -4 295 -3Q294 -4 291 -5Q285 -7 277 -7Q255 -7 240 8T224 47Q224 70 240 86T279 102Q308 102 325 81T343 20Q343 -45 319 -73T256 -101Q249
-101 249 -96V-71Z" />
<glyph unicode="&#x2020;" glyph-name="dagger" horiz-adv-x="481" d="M212 -131Q199 -131 199 -118L189 471H54Q48 471 44 475T39 485V558Q39 565 43 569T54 573H189V747Q189 760 202 760H286Q299 760 299 747V573H426Q441 573 441 558V485Q441 471 426 471H299L288
-118Q288 -131 276 -131H212Z" />
<glyph unicode="&#x2021;" glyph-name="daggerdbl" horiz-adv-x="498" d="M300 71L297 -118Q297 -131 284 -131H221Q208 -131 208 -118L204 71H63Q48 71 48 87V159Q48 174 63 174H197V471H63Q48 471 48 485V558Q48 573 63 573H197V747Q197 760 211 760H295Q308
760 308 747V573H435Q450 573 450 558V485Q450 471 435 471H304V174H435Q450 174 450 159V87Q450 71 435 71H300Z" />
<glyph unicode="&#x2022;" glyph-name="bullet" horiz-adv-x="356" d="M178 239Q133 239 109 264T85 335Q85 378 109 405T178 432Q221 432 246 405T272 335Q272 290 247 265T178 239Z" />
<glyph unicode="&#x2026;" glyph-name="ellipsis" horiz-adv-x="505" d="M171 48Q171 24 155 9T115 -7Q92 -7 76 8T60 48Q60 71 76 87T115 103Q138 103 154 87T171 48ZM309 48Q309 24 293 9T254 -7Q230 -7 215 8T199 48Q199 71 214 87T254 103Q277 103 293 87T309
48ZM446 48Q446 24 430 9T390 -7Q367 -7 351 8T335 48Q335 71 351 87T390 103Q413 103 429 87T446 48Z" />
<glyph unicode="&#x2030;" glyph-name="perthousand" horiz-adv-x="1117" d="M183 359Q114 359 74 408T34 544Q34 628 75 676T183 724Q250 724 290 676T331 544Q331 457 292 408T183 359ZM183 428Q218 428 237 457T257 542Q257 655 183 655Q147 655 128 626T109
542Q109 488 128 458T183 428ZM599 -7Q530 -7 490 42T450 178Q450 220 461 253T491 309T538 345T599 358Q666 358 707 310T748 178Q748 91 708 42T599 -7ZM599 62Q634 62 653 91T673 176Q673 289 599 289Q564 289 544 260T524 176Q524 122 544 92T599 62ZM232 -74Q221
-74 221 -66Q221 -63 222 -61L461 747Q464 760 478 760H534Q544 760 544 752Q544 749 543 747L304 -61Q301 -74 287 -74H232ZM936 -7Q867 -7 827 42T787 178Q787 262 828 310T936 358Q1003 358 1043 310T1084 178Q1084 91 1045 42T936 -7ZM936 62Q971 62 990 91T1009
176Q1009 289 936 289Q900 289 881 260T861 176Q861 122 881 92T936 62Z" />
<glyph unicode="&#x2044;" glyph-name="fraction" horiz-adv-x="356" d="M12 -74Q2 -74 2 -66Q2 -63 3 -61L241 747Q245 760 258 760H342Q352 760 352 753Q352 749 351 747L113 -61Q109 -74 96 -74H12Z" />
<glyph unicode="&#x2070;" glyph-name="zerosuperior" horiz-adv-x="396" d="M199 359Q130 359 90 408T49 544Q49 628 90 676T199 724Q232 724 259 712T305 676T336 619T347 544Q347 457 308 408T199 359ZM199 428Q234 428 253 457T272 542Q272 655 199 655Q162
655 143 626T124 542Q124 488 143 458T199 428Z" />
<glyph unicode="&#x20ac;" glyph-name="Euro" horiz-adv-x="708" d="M111 317Q110 327 110 336T110 356Q110 365 110 374T111 392H52Q39 392 39 405V455Q39 469 52 469H124Q140 527 171 574T245 654T342 706T458 724Q500 724 533 716T592 696T634 674T658 659Q663
654 663 650Q663 645 660 641L609 581Q606 575 599 575Q595 575 586 581T560 596T519 611T461 618Q389 618 334 577T252 469H507Q520 469 520 455V405Q520 392 507 392H232Q231 384 231 376T231 359Q231 336 234 317H447Q460 317 460 304V254Q460 241 447 241H255Q283
177 337 139T461 100Q494 100 518 106T559 120T586 134T600 141Q606 141 609 136L660 75Q663 70 663 67Q663 62 658 57Q651 52 635 42T593 21T534 2T458 -7Q397 -7 344 10T247 60T173 138T125 241H52Q39 241 39 254V304Q39 317 52 317H111Z" />
<glyph unicode="&#x2122;" glyph-name="trademark" horiz-adv-x="1091" d="M176 288Q167 288 167 297V347Q167 356 176 356H219V650H127V593Q127 585 118 585H67Q64 585 61 587T58 593V710Q58 714 61 716T67 718H447Q456 718 456 710V593Q456 585 447 585H396Q387
585 387 593V650H299V356H341Q350 356 350 347V297Q350 288 341 288H176ZM861 288Q853 288 853 296V349Q853 356 861 356H894V597H893L797 349Q788 327 765 327Q743 327 734 349L637 597H636V356H669Q677 356 677 349V296Q677 288 669 288H515Q508 288 508 296V349Q508
356 515 356H557V650H515Q508 650 508 657V710Q508 718 515 718H630Q644 718 651 712T663 694L739 507Q743 496 747 483T755 460T761 442T764 435H766Q770 447 774 459Q778 470 783 482T793 507L867 694Q872 705 879 711T901 718H1015Q1023 718 1023 710V657Q1023
650 1015 650H973V356H1015Q1023 356 1023 349V296Q1023 288 1015 288H861Z" />
<glyph unicode="&#x2126;" glyph-name="Omega" horiz-adv-x="811" d="M463 0Q449 0 449 13V206Q449 217 460 217Q494 217 526 230T583 268T623 329T638 410Q638 462 618 501T565 566T491 605T406 619Q363 619 321 606T246 566T193 501T173 410Q173 365 188 329T228
268T285 230T351 217Q362 217 362 206V13Q362 0 348 0H62Q49 0 49 13V76Q49 88 62 88H278V145Q229 156 188 180T116 238T70 317T53 413Q53 489 82 547T161 644T274 704T405 724Q472 724 536 704T649 645T728 547T758 413Q758 361 742 317T695 239T624 180T534 145V88H750Q762
88 762 76V13Q762 0 750 0H463Z" />
<glyph unicode="&#x2153;" glyph-name="onethird" horiz-adv-x="723" d="M202 -74Q192 -74 192 -66Q192 -63 193 -61L431 747Q434 760 448 760H504Q514 760 514 752Q514 749 513 747L274 -61Q271 -74 258 -74H202ZM551 -4Q519 -4 497 3T459 21T436 41T423 56Q421
58 421 60Q421 61 423 65L458 97Q460 99 462 99Q464 99 467 96Q478 85 497 72T551 58Q619 58 619 107Q619 157 552 157H530Q523 157 523 164V201Q523 208 530 208H545Q566 208 586 218T607 256Q607 275 594 287T552 299Q528 299 514 288T500 258Q500 250 493 250H443Q436
250 436 258Q436 305 466 333T552 361Q586 361 609 352T648 328T670 297T677 264Q677 243 670 229T653 205T634 191T621 186Q625 185 636 181T658 166T678 140T687 98Q687 53 650 25T551 -4ZM63 362Q54 362 54 371V412Q54 420 63 420H136V647L71 599Q67 597 66
597Q62 597 61 600L35 636Q33 638 33 639Q33 642 37 646L136 718Q139 721 147 721H198Q205 721 205 712L206 420H266Q275 420 275 412V371Q275 362 266 362H63Z" />
<glyph unicode="&#x2202;" glyph-name="partialdiff" horiz-adv-x="634" d="M311 453Q375 453 414 439T472 412V415Q472 519 436 574T325 630Q293 630 271 623T234 606T213 582T205 557Q204 544 190 544H115Q104 544 104 556Q104 589 119 619T164 673T236 710T334
724Q452 724 518 644T585 416Q585 319 564 241T501 108T401 23T267 -7Q210 -7 166 9T92 55T47 124T32 210Q32 262 49 307T101 384T188 434T311 453ZM273 87Q354 87 404 146T467 329Q460 333 447 340T416 354T373 366T319 371Q275 371 243 359T188 324T154 274T143
213Q143 156 176 122T273 87Z" />
<glyph unicode="&#x2212;" glyph-name="minus" horiz-adv-x="490" d="M85 211Q71 211 71 226V299Q71 313 85 313H405Q411 313 415 309T420 299V226Q420 219 416 215T405 211H85Z" />
<glyph unicode="&#x222b;" glyph-name="integral'" horiz-adv-x="458" d="M204 544Q204 635 249 680T378 725Q404 725 424 719T458 705T483 689T498 676Q505 670 505 665Q505 661 502 657L467 611Q460 606 456 606Q453 606 448 609T436 617T417 626T390 630Q352
630 333 608T314 544V-54Q314 -144 269 -189T141 -235Q115 -235 95 -229T60 -215T36 -199T21 -186Q14 -180 14 -174Q14 -172 17 -167L52 -121Q57 -116 63 -116Q66 -116 70 -119T82 -127T101 -135T129 -139Q167 -139 185 -117T204 -53V544V544Z" />
<glyph unicode="&#x2248;" glyph-name="approxequal" horiz-adv-x="484" d="M402 455Q414 455 414 442Q414 382 391 348T316 313Q286 313 267 322T232 341T204 361T173 370Q156 370 148 359T139 316Q139 303 126 303H83Q71 303 71 316Q71 373 94 406T169 439Q197
439 216 430T250 411T279 391T311 382Q328 382 337 394T346 442Q346 455 359 455H402ZM402 292Q414 292 414 279Q414 219 391 185T316 150Q286 150 267 159T232 178T204 198T173 207Q156 207 148 196T139 154Q139 141 126 141H83Q71 141 71 154Q71 211 94 244T169
277Q197 277 216 268T250 249T279 229T311 220Q328 220 337 232T346 279Q346 292 359 292H402Z" />
<glyph unicode="&#x2260;" glyph-name="notequal" horiz-adv-x="490" d="M223 89L211 51Q208 38 195 38H141Q131 38 131 46Q131 49 132 51L143 89H77Q63 89 63 103V176Q63 191 77 191H174L213 323H77Q70 323 67 327T63 338V411Q63 417 66 421T77 426H244L260 481Q264
493 278 493H331Q341 493 341 486Q341 483 340 481L323 426H411Q418 426 422 422T426 411V338Q426 332 422 328T411 323H293L253 191H411Q426 191 426 176V103Q426 89 411 89H223Z" />
<glyph unicode="&#xf6c3;" glyph-name="commaaccent" horiz-adv-x="183" d="M56 -219Q56 -215 63 -213T80 -207T97 -193T105 -164Q105 -161 105 -159T104 -155Q103 -153 103 -152Q101 -153 98 -154Q92 -156 84 -156Q63 -156 48 -141T32 -101Q32 -78 48 -62T87
-46Q116 -46 133 -67T151 -129Q151 -193 127 -221T64 -250Q56 -250 56 -244V-219Z" />
<glyph unicode="&#xfb00;" glyph-name="ff" horiz-adv-x="760" d="M437 0Q423 0 423 13V75Q423 88 437 88H489V404H214V88H299Q312 88 312 75V13Q312 0 299 0H52Q39 0 39 13V75Q39 88 52 88H104V404H51Q38 404 38 417V479Q38 492 51 492H104V544Q104 635 149 680T278
725Q304 725 324 719T358 705T383 689T398 676Q405 669 405 665Q405 663 401 657L367 611Q360 606 356 606Q352 606 348 609T336 617T318 626T290 630Q252 630 233 608T214 544V492H489V544Q489 635 534 680T663 725Q689 725 709 719T743 705T768 689T783 676Q789
670 789 665Q789 661 786 657L751 611Q746 606 741 606Q737 606 733 609T721 617T703 626T674 630Q636 630 618 608T599 544V492H726Q739 492 739 479V417Q739 404 726 404H599V88H683Q697 88 697 75V13Q697 0 683 0H437Z" />
<glyph unicode="&#xfb01;" glyph-name="fi" horiz-adv-x="692" d="M439 0Q426 0 426 13V75Q426 88 439 88H491V404H214V88H299Q312 88 312 75V13Q312 0 299 0H52Q39 0 39 13V75Q39 88 52 88H104V404H51Q38 404 38 417V479Q38 492 51 492H104V544Q104 635 149 680T278
725Q304 725 324 719T358 705T383 689T398 676Q405 669 405 665Q405 663 401 657L367 611Q360 606 356 606Q352 606 348 609T336 617T318 626T290 630Q252 630 233 608T214 544V492H588Q601 492 601 479V88H648Q662 88 662 75V13Q662 0 648 0H439ZM611 642Q611
612 590 591T538 570Q508 570 487 591T466 642Q466 672 487 693T538 715Q568 715 589 694T611 642Z" />
<glyph unicode="&#xfb02;" glyph-name="fl" horiz-adv-x="691" d="M52 0Q39 0 39 13V75Q39 88 52 88H104V404H51Q38 404 38 417V479Q38 492 51 492H104V544Q104 635 149 680T278 725Q304 725 324 719T358 705T383 689T398 676Q405 669 405 665Q405 663 401 657L367
611Q360 606 356 606Q352 606 348 609T336 617T318 626T290 630Q252 630 233 608T214 544V492H342Q355 492 355 479V417Q355 404 342 404H214V88H299Q312 88 312 75V13Q312 0 299 0H52ZM434 0Q421 0 421 13V75Q421 88 434 88H486V630H448Q435 630 435 643V705Q435
718 448 718H572Q596 718 596 696V88H643Q656 88 656 75V13Q656 0 643 0H434Z" />
<glyph unicode="&#xfb03;" glyph-name="ffi" horiz-adv-x="1076" d="M824 0Q811 0 811 13V75Q811 88 824 88H876V404H599V88H683Q697 88 697 75V13Q697 0 683 0H437Q423 0 423 13V75Q423 88 437 88H489V404H214V88H299Q312 88 312 75V13Q312 0 299 0H52Q39 0 39
13V75Q39 88 52 88H104V404H51Q38 404 38 417V479Q38 492 51 492H104V544Q104 635 149 680T278 725Q304 725 324 719T358 705T383 689T398 676Q405 669 405 665Q405 663 401 657L367 611Q360 606 356 606Q352 606 348 609T336 617T318 626T290 630Q252 630 233
608T214 544V492H489V544Q489 635 534 680T663 725Q689 725 709 719T743 705T768 689T783 676Q789 670 789 665Q789 661 786 657L751 611Q746 606 741 606Q737 606 733 609T721 617T703 626T674 630Q636 630 618 608T599 544V492H972Q986 492 986 479V88H1033Q1046
88 1046 75V13Q1046 0 1033 0H824ZM996 642Q996 612 975 591T923 570Q893 570 872 591T851 642Q851 672 872 693T923 715Q953 715 974 694T996 642Z" />
<glyph unicode="&#xfb04;" glyph-name="ffl" horiz-adv-x="1076" d="M437 0Q423 0 423 13V75Q423 88 437 88H489V404H214V88H299Q312 88 312 75V13Q312 0 299 0H52Q39 0 39 13V75Q39 88 52 88H104V404H51Q38 404 38 417V479Q38 492 51 492H104V544Q104 635 149
680T278 725Q304 725 324 719T358 705T383 689T398 676Q405 669 405 665Q405 663 401 657L367 611Q360 606 356 606Q352 606 348 609T336 617T318 626T290 630Q252 630 233 608T214 544V492H489V544Q489 635 534 680T663 725Q689 725 709 719T743 705T768 689T783
676Q789 670 789 665Q789 661 786 657L751 611Q746 606 741 606Q737 606 733 609T721 617T703 626T674 630Q636 630 618 608T599 544V492H726Q739 492 739 479V417Q739 404 726 404H599V88H683Q697 88 697 75V13Q697 0 683 0H437ZM819 0Q805 0 805 13V75Q805 88
819 88H870V630H832Q819 630 819 643V705Q819 718 832 718H957Q980 718 980 696V88H1028Q1041 88 1041 75V13Q1041 0 1028 0H819Z" />
</font>
</defs>
</svg>
