<?xml version="1.0" standalone="no"?> <!DOCTYPE svg PUBLIC "-//W3C//DTD SVG 1.0//EN" "http://www.w3.org/TR/2001/REC-SVG-20010904/DTD/svg10.dtd" > <svg xmlns="http://www.w3.org/2000/svg" width="100%" height="100%">
<defs >
<font id="Sanchez-Regular" horiz-adv-x="584" ><font-face
    font-family="Sanchez"
    units-per-em="1000"
    panose-1="2 0 0 0 0 0 0 0 0 0"
    ascent="1205"
    descent="-329"
    alphabetic="0" />
<missing-glyph horiz-adv-x="313" />
<glyph unicode=" " glyph-name="space" horiz-adv-x="250" />
<glyph unicode="!" glyph-name="exclam" horiz-adv-x="276" d="M116 148Q103 148 103 160L94 748Q94 760 107 760H170Q182 760 182 748L173 160Q173 148 161 148H116ZM192 4Q192 -19 177 -34T139 -49Q116 -49 101 -34T86 4Q86 27 101 42T139 57Q161 57 176 42T192 4Z" />
<glyph unicode="&quot;" glyph-name="quotedbl" horiz-adv-x="321" d="M78 561Q64 561 64 574L60 737Q60 750 73 750H116Q130 750 130 737L125 574Q123 561 111 561H78ZM209 561Q196 561 196 574L191 737Q191 750 205 750H248Q262 750 262 737L256 574Q256 561
243 561H209Z" />
<glyph unicode="#" glyph-name="numbersign" horiz-adv-x="612" d="M409 112L378 5Q375 -7 362 -7H313Q303 -7 303 1Q303 2 303 2T304 5L335 112H204L174 5Q169 -7 158 -7H109Q99 -7 99 0Q99 3 100 5L130 112H50Q38 112 38 124V161Q38 173 50 173H148L184 299H105Q92
299 92 312V348Q92 361 105 361H202L234 470Q237 483 250 483H299Q308 483 308 474V470L276 361H407L438 470Q443 483 455 483H504Q513 483 513 475Q513 474 513 473T512 470L480 361H561Q573 361 573 348V312Q573 299 561 299H462L426 173H507Q519 173 519 161V124Q519
112 507 112H409ZM389 299H258L221 173H352L389 299Z" />
<glyph unicode="$" glyph-name="dollar" horiz-adv-x="659" d="M313 -84Q301 -84 301 -72V0Q233 14 192 46T129 110H126L128 43V41Q128 31 116 31H61Q49 31 49 43V231Q49 244 61 244H123Q135 244 135 231V225Q135 219 146 195T182 144T248 96T349 74Q426 74 469
105T513 195Q513 228 494 249T444 286T373 311T292 333T211 359T140 395T90 450T71 530Q71 570 86 604T129 665T199 706T293 724V793Q293 805 305 805H359Q371 805 371 793V718Q418 710 450 690T501 645L499 684Q499 696 512 696H566Q579 696 579 684V501Q579 488
566 488H505Q493 488 493 501V519Q493 534 484 555T452 595T396 628T312 642Q244 642 205 610T165 530Q165 495 184 472T235 433T307 406T390 384T472 360T544 325T595 273T615 196Q615 156 602 121T560 57T487 12T380 -7V-72Q380 -84 367 -84H313Z" />
<glyph unicode="%" glyph-name="percent" horiz-adv-x="747" d="M179 359Q144 359 118 372T72 410T44 469T34 544Q34 583 44 616T72 673T118 710T179 724Q213 724 240 711T285 673T314 616T324 544Q324 503 315 469T286 411T240 373T179 359ZM179 414Q219 414
241 447T264 542Q264 604 242 636T179 669Q139 669 117 636T94 542Q94 481 116 448T179 414ZM567 -7Q532 -7 506 6T460 44T432 103T422 178Q422 217 432 250T460 307T506 344T567 358Q601 358 627 345T672 307T701 250T711 178Q711 137 702 103T674 45T628 7T567
-7ZM567 48Q607 48 629 81T652 176Q652 238 630 270T567 303Q526 303 504 270T482 176Q482 115 504 82T567 48ZM221 -74Q211 -74 211 -66Q211 -64 212 -62L454 748Q457 760 471 760H509Q518 760 518 752V748L275 -62Q272 -74 260 -74H221Z" />
<glyph unicode="&amp;" glyph-name="ampersand" horiz-adv-x="677" d="M525 0Q496 0 474 33L455 61Q424 29 383 11T281 -7Q219 -7 175 11T102 59T59 124T45 195Q45 244 61 280T103 340T156 381T209 407Q200 417 190 433T170 469T155 512T148 561Q148 600 161 630T196
681T249 713T315 724Q346 724 375 715T428 687T465 638T480 567Q480 529 467 501T432 452T385 414T331 384L459 203Q473 231 476 266T480 354Q480 366 493 366H631Q643 366 643 354V305Q643 293 631 293H561Q559 258 548 214T512 126L548 73H611Q624 73 624 61V12Q624
0 611 0H525ZM253 344Q236 337 215 326T175 298T143 256T130 197Q130 165 142 141T175 101T223 76T282 67Q327 67 358 78T412 120L253 344ZM290 442Q309 451 328 460T362 483T386 516T395 564Q395 599 376 624T319 650Q280 650 257 627T233 560Q233 542 239 526T254
494T272 465T290 442Z" />
<glyph unicode="&apos;" glyph-name="quotesingle" horiz-adv-x="189" d="M78 561Q64 561 64 574L60 737Q60 750 73 750H116Q130 750 130 737L125 574Q123 561 111 561H78Z" />
<glyph unicode="(" glyph-name="parenleft" horiz-adv-x="409" d="M383 -53Q383 -66 370 -66Q314 -66 257 -42T153 34T77 164T48 351Q48 458 77 536T152 665T256 740T370 765Q383 765 383 752V701Q383 688 370 688Q330 688 288 668T211 606T154 500T131 348Q131
259 153 195T211 90T289 30T370 11Q383 11 383 -2V-53Z" />
<glyph unicode=")" glyph-name="parenright" horiz-adv-x="409" d="M26 -3Q26 11 39 11Q78 11 120 30T198 89T256 194T279 347Q279 435 257 499T199 605T122 667T39 687Q26 687 26 700V751Q26 764 39 764Q95 764 152 740T256 665T332 536T361 350Q361 242 332
164T257 34T153 -42T39 -67Q26 -67 26 -53V-3Z" />
<glyph unicode="*" glyph-name="asterisk" horiz-adv-x="435" d="M200 420Q187 420 187 433L198 546L130 457Q125 452 119 452Q114 452 110 456L87 480Q82 485 82 490Q82 495 88 500L178 569L63 557Q49 557 49 570V604Q49 617 60 617H63L178 603L87 675Q82 678
82 684Q82 689 87 694L110 718Q116 722 120 722Q125 722 129 718L200 629L187 742Q187 755 200 755H234Q248 755 248 742L236 628L305 718Q308 722 314 722Q320 722 324 718L348 695Q352 691 352 684Q352 678 348 675L258 602L371 618Q385 618 385 605V571Q385
557 371 557L261 568L348 500Q352 496 352 491Q352 485 348 481L324 457Q319 452 314 452Q308 452 305 457L234 544L248 433Q248 420 234 420H200Z" />
<glyph unicode="+" glyph-name="plus" horiz-adv-x="498" d="M223 68Q211 68 211 81V238H56Q42 238 42 251V302Q42 315 56 315H211V478Q211 491 223 491H280Q293 491 293 478V315H442Q456 315 456 302V251Q456 238 442 238H293V81Q293 68 280 68H223Z" />
<glyph unicode="," glyph-name="comma" horiz-adv-x="231" d="M82 -73Q82 -70 89 -68T105 -61T121 -45T129 -14Q129 -11 129 -9T128 -5Q127 -3 127 -2Q126 -4 123 -5Q117 -7 108 -7Q91 -7 78 5T65 39Q65 59 78 72T112 86Q138 86 153 67T168 13Q168 -47 144 -72T88
-97Q82 -97 82 -92V-73Z" />
<glyph unicode="-" glyph-name="hyphen" horiz-adv-x="476" d="M83 222Q69 222 69 235V286Q69 299 83 299H394Q407 299 407 286V235Q407 222 394 222H83Z" />
<glyph unicode="." glyph-name="period" horiz-adv-x="222" d="M159 40Q159 20 145 7T111 -7Q91 -7 78 6T64 40Q64 60 77 73T111 87Q131 87 145 74T159 40Z" />
<glyph unicode="/" glyph-name="slash" horiz-adv-x="403" d="M47 -74Q37 -74 37 -67Q37 -64 38 -62L280 748Q283 760 296 760H355Q364 760 364 752V748L122 -62Q117 -74 106 -74H47Z" />
<glyph unicode="0" glyph-name="zero" horiz-adv-x="688" d="M344 -7Q275 -7 221 20T131 95T75 212T55 363Q55 442 74 508T131 622T222 697T344 724Q412 724 465 697T556 622T613 508T633 363Q633 281 614 213T558 96T467 20T344 -7ZM344 72Q438 72 490 146T542
360Q542 427 528 480T489 569T426 625T344 645Q252 645 199 570T145 360Q145 223 198 148T344 72Z" />
<glyph unicode="1" glyph-name="one" horiz-adv-x="478" d="M63 0Q50 0 50 12V61Q50 73 63 73H225V624L87 525Q82 522 79 522Q74 522 70 528L42 569Q39 572 39 576Q39 581 45 586L219 711Q229 718 237 718H298Q311 718 311 706V73H456Q468 73 468 61V12Q468 0 456 0H63Z" />
<glyph unicode="2" glyph-name="two" horiz-adv-x="629" d="M64 0Q51 0 51 12V41Q51 97 69 138T117 210T185 264T262 307T340 346T408 387T456 438T474 506Q474 534 463 559T431 604T381 634T317 645Q273 645 241 634T188 602T157 556T146 499Q146 487 134 487H70Q58
487 58 499Q58 541 73 581T119 653T200 704T317 724Q377 724 423 707T500 660T548 592T564 511Q564 447 534 403T457 327T356 270T254 217T173 156T136 73H489V145Q489 157 501 157H558Q571 157 571 145V12Q571 0 558 0H64Z" />
<glyph unicode="3" glyph-name="three" horiz-adv-x="603" d="M403 377Q415 377 439 369T487 341T529 287T547 199Q547 152 528 114T475 49T392 8T284 -7Q222 -7 178 9T106 46T62 86T41 110Q36 115 36 118Q36 122 41 127L84 167Q88 171 92 171Q95 171 101 167Q113
157 128 141T164 110T214 83T284 72Q365 72 411 110T457 210Q457 276 413 306T287 337H247Q235 337 235 349V395Q235 401 238 405T247 410H279Q300 410 327 414T378 430T418 465T435 525Q435 549 427 570T401 608T356 635T289 645Q253 645 227 634T185 606T160
569T152 528Q152 516 140 516H81Q68 516 68 528Q68 573 83 609T128 670T198 710T289 724Q353 724 397 706T470 661T512 599T525 533Q525 493 510 464T474 415T433 387T403 378V377Z" />
<glyph unicode="4" glyph-name="four" horiz-adv-x="595" d="M251 0Q239 0 239 12V61Q239 73 251 73H365V223H31Q19 223 19 235V282Q19 291 21 297T32 314L344 695Q356 710 363 714T381 718H438Q451 718 451 706V296H530Q543 296 543 283V235Q543 223 530 223H451V73H538Q550
73 550 61V12Q550 0 538 0H251ZM365 610L107 293H365V610Z" />
<glyph unicode="5" glyph-name="five" horiz-adv-x="602" d="M289 -7Q228 -7 184 9T111 45T67 85T46 110Q41 113 41 118Q41 122 46 127L89 167Q93 171 97 171Q101 171 107 167Q118 156 132 140T167 108T217 83T289 72Q372 72 417 114T463 235Q463 304 417 345T289
387Q257 387 228 382T175 371T133 359T104 354Q96 354 91 359T85 379V708Q85 720 98 720H498Q510 720 510 708V580Q510 568 498 568H441Q429 568 429 580V645H172V445Q180 447 215 456T307 466Q367 466 413 449T490 401T537 327T553 231Q553 177 534 133T481 58T398
10T289 -7Z" />
<glyph unicode="6" glyph-name="six" horiz-adv-x="642" d="M347 463Q407 463 452 446T529 399T575 326T591 231Q591 180 573 137T522 61T440 11T332 -7Q265 -7 214 19T128 92T75 206T57 353Q57 437 75 505T129 622T219 697T345 724Q395 724 435 710T504 672T548
613T564 537Q564 525 552 525H493Q481 525 481 537Q481 553 474 572T450 607T408 634T345 645Q255 645 207 582T149 410Q160 417 178 426T222 443T278 457T347 463ZM331 72Q371 72 403 84T456 117T489 169T501 234Q501 302 456 343T329 384Q291 384 261 377T207
361T169 343T147 329Q151 209 197 141T331 72Z" />
<glyph unicode="7" glyph-name="seven" horiz-adv-x="553" d="M215 0Q203 0 203 12Q203 123 220 198T263 325T319 413T376 483T420 554T440 645H105V568Q105 556 92 556H35Q23 556 23 568V706Q23 718 35 718H524Q536 718 536 706V675Q536 625 526 588T498 519T458
461T413 404T368 339T329 258T302 152T291 13Q291 0 278 0H215Z" />
<glyph unicode="8" glyph-name="eight" horiz-adv-x="642" d="M444 384Q455 384 479 375T527 345T569 289T588 203Q588 157 570 119T518 52T434 9T322 -7Q259 -7 209 8T125 52T72 118T54 203Q54 254 72 289T115 345T163 375T198 384V386Q189 386 170 394T131 421T96
467T81 536Q81 567 94 600T135 661T209 706T321 724Q387 724 432 707T506 662T548 602T561 536Q561 496 546 468T512 421T473 395T444 386V384ZM308 342Q227 342 186 309T144 211Q144 147 190 110T321 72Q406 72 452 109T498 211Q498 274 457 308T334 342H308ZM471
526Q471 550 462 571T435 609T388 635T321 645Q282 645 254 636T208 610T180 572T171 526Q171 488 186 466T225 431T273 415T319 411Q341 411 367 415T417 431T455 465T471 526Z" />
<glyph unicode="9" glyph-name="nine" horiz-adv-x="639" d="M293 254Q233 254 188 271T111 318T65 391T49 486Q49 537 67 580T118 656T200 706T308 724Q375 724 426 698T512 625T565 511T583 364Q583 280 565 212T511 95T421 20T295 -7Q245 -7 205 7T136 45T92
104T76 180Q76 192 88 192H147Q159 192 159 180Q159 163 166 145T190 110T232 83T295 72Q384 72 432 134T490 306Q479 299 461 290T418 273T362 260T293 254ZM309 645Q268 645 237 633T184 600T151 548T139 483Q139 415 184 374T311 333Q348 333 379 340T433 356T471
374T492 388Q488 508 442 576T309 645Z" />
<glyph unicode=":" glyph-name="colon" horiz-adv-x="233" d="M164 40Q164 20 150 7T116 -7Q96 -7 83 6T69 40Q69 60 82 73T116 87Q136 87 150 74T164 40ZM164 440Q164 420 150 407T116 393Q96 393 83 406T69 440Q69 460 82 474T116 488Q136 488 150 474T164 440Z" />
<glyph unicode=";" glyph-name="semicolon" horiz-adv-x="248" d="M169 440Q169 420 155 407T121 393Q101 393 88 406T74 440Q74 460 87 474T121 488Q141 488 155 474T169 440ZM90 -73Q90 -70 97 -68T113 -61T129 -45T137 -14Q137 -11 137 -9T136 -5Q135 -3 135
-2Q134 -4 131 -5Q125 -7 116 -7Q99 -7 86 5T73 39Q73 59 86 72T120 86Q146 86 161 67T176 13Q176 -46 152 -70T96 -95Q90 -95 90 -90V-73Z" />
<glyph unicode="&lt;" glyph-name="less" horiz-adv-x="474" d="M54 226Q40 232 40 245V263Q40 276 54 282L389 443Q391 444 394 444Q402 444 402 435V392Q402 378 389 372L142 254L389 136Q402 131 402 117V74Q402 65 394 65Q391 65 389 66L54 226Z" />
<glyph unicode="=" glyph-name="equal" horiz-adv-x="494" d="M87 335Q74 335 74 349V399Q74 413 87 413H407Q420 413 420 399V349Q420 335 407 335H87ZM87 100Q74 100 74 113V164Q74 177 87 177H407Q420 177 420 164V113Q420 100 407 100H87Z" />
<glyph unicode="&gt;" glyph-name="greater" horiz-adv-x="475" d="M435 245Q435 232 421 226L86 66Q84 65 80 65Q73 65 73 74V117Q73 131 86 136L333 254L86 372Q73 378 73 392V435Q73 444 80 444Q84 444 86 443L421 282Q435 276 435 263V245Z" />
<glyph unicode="?" glyph-name="question" horiz-adv-x="531" d="M207 130Q194 130 194 142Q194 199 209 239T247 310T297 364T346 409T384 456T400 515Q400 572 365 608T265 645Q226 645 199 632T154 597T129 544T120 479Q120 467 108 467H47Q34 467 34 479Q34
524 45 568T83 646T154 702T265 724Q320 724 362 708T432 664T475 599T490 518Q490 471 474 438T435 379T384 329T333 280T293 221T277 142Q277 130 264 130H207ZM295 7Q295 -16 279 -32T239 -49Q216 -49 200 -33T183 7Q183 30 199 46T239 63Q262 63 278 47T295
7Z" />
<glyph unicode="@" glyph-name="at" horiz-adv-x="800" d="M638 -62Q639 -64 639 -68Q639 -75 632 -78Q606 -91 572 -102Q543 -111 501 -118T405 -126Q330 -126 266 -99T153 -25T78 88T51 230Q51 312 82 384T166 510T289 594T439 625Q516 625 576 602T677 540T739
448T761 336Q761 269 741 219T687 135T610 85T521 68Q498 68 487 74T475 97Q475 103 476 106L479 127Q479 127 473 117T454 96T422 75T377 65Q351 65 326 74T280 103T246 155T233 235Q233 283 249 322T292 388T354 429T428 444Q449 444 464 440T488 429T504 415T513
403L517 423Q520 434 530 434H565Q575 434 575 424V422L537 127H555Q580 127 604 140T648 180T680 245T692 334Q692 383 675 423T624 493T544 538T439 555Q371 555 314 528T215 456T150 352T126 230Q126 167 148 115T208 25T296 -34T405 -55Q456 -55 493 -50T556
-38Q585 -31 606 -21Q610 -19 612 -19Q619 -19 622 -27L638 -62ZM502 324Q501 330 498 340T486 360T463 378T428 386Q404 386 381 376T339 347T310 300T298 237Q298 207 306 186T327 152T357 134T391 128Q411 128 428 137T458 161T479 191T489 221L502 324Z" />
<glyph unicode="A" glyph-name="A" horiz-adv-x="719" d="M499 0Q486 0 486 12V61Q486 73 499 73H568L505 243H222L159 73H229Q242 73 242 61V12Q242 0 229 0H6Q-6 0 -6 12V61Q-6 73 6 73H74L289 645H234Q221 645 221 657V706Q221 718 234 718H368Q392 718 405
708T427 675L655 73H722Q735 73 735 61V12Q735 0 722 0H499ZM366 617H359L250 316H478L366 617Z" />
<glyph unicode="B" glyph-name="B" horiz-adv-x="674" d="M58 0Q46 0 46 12V61Q46 73 58 73H135V645H58Q46 645 46 657V706Q46 718 58 718H379Q430 718 469 704T535 664T575 603T589 526Q589 475 566 437T500 375Q572 354 600 309T628 205Q628 160 613 123T568
58T491 15T380 0H58ZM369 73Q406 73 437 81T491 106T525 149T538 212Q538 275 496 305T375 335H220V73H369ZM369 404Q392 404 415 410T457 431T487 466T499 519Q499 556 487 580T454 619T409 639T359 645H220V404H369Z" />
<glyph unicode="C" glyph-name="C" horiz-adv-x="748" d="M700 181Q705 177 705 171Q705 167 702 161Q696 149 677 122T621 66T528 15T391 -7Q320 -7 258 19T150 93T78 209T51 363Q51 448 78 515T152 629T260 699T387 724Q436 724 473 714T538 687T582 652T611
617L610 706Q610 718 622 718H677Q689 718 689 706V488Q689 475 677 475H616Q603 475 603 488V497Q603 517 588 543T545 591T478 629T391 645Q346 645 302 628T221 575T163 486T141 360Q141 288 163 234T222 144T303 90T396 72Q453 72 494 86T565 122T612 165T639
203Q643 212 650 212Q652 212 657 209L700 181Z" />
<glyph unicode="D" glyph-name="D" horiz-adv-x="739" d="M58 0Q46 0 46 12V61Q46 73 58 73H135V645H58Q46 645 46 657V706Q46 718 58 718H326Q408 718 475 694T589 623T662 511T688 360Q688 276 664 209T595 96T487 25T344 0H58ZM320 73Q456 73 527 144T598 358Q598
425 581 478T528 568T440 625T317 645H220V73H320Z" />
<glyph unicode="E" glyph-name="E" horiz-adv-x="659" d="M58 0Q46 0 46 12V61Q46 73 58 73H135V645H58Q46 645 46 657V706Q46 718 58 718H591Q603 718 603 706V546Q603 534 591 534H534Q522 534 522 546V645H220V395H473Q486 395 486 383V334Q486 322 473 322H220V73H521V171Q521
183 534 183H591Q603 183 603 171V12Q603 0 591 0H58Z" />
<glyph unicode="F" glyph-name="F" horiz-adv-x="610" d="M58 0Q46 0 46 12V61Q46 73 58 73H135V645H58Q46 645 46 657V706Q46 718 58 718H573Q586 718 586 706V546Q586 534 573 534H516Q504 534 504 546V645H220V395H456Q468 395 468 383V334Q468 322 456 322H220V73H333Q345
73 345 61V12Q345 0 333 0H58Z" />
<glyph unicode="G" glyph-name="G" horiz-adv-x="769" d="M639 0Q627 0 627 12V81Q612 65 591 50T541 22T476 1T395 -7Q322 -7 259 19T150 93T78 209T51 363Q51 450 79 517T155 630T264 700T391 724Q440 724 476 715T539 692T583 661T611 629L610 706Q610 718
622 718H677Q689 718 689 706V500Q689 488 677 488H616Q603 488 603 500V512Q603 532 588 555T546 598T481 631T396 645Q347 645 301 626T220 569T163 479T141 360Q141 289 163 236T222 146T305 91T399 72Q444 72 479 81T542 104T588 136T620 169V256H433Q421 256
421 269V316Q421 329 433 329H691Q703 329 703 316V12Q703 0 691 0H639Z" />
<glyph unicode="H" glyph-name="H" horiz-adv-x="814" d="M517 0Q505 0 505 12V61Q505 73 517 73H594V322H220V73H297Q310 73 310 61V12Q310 0 297 0H58Q46 0 46 12V61Q46 73 58 73H135V645H58Q46 645 46 657V706Q46 718 58 718H297Q310 718 310 706V657Q310 645
297 645H220V395H594V645H517Q505 645 505 657V706Q505 718 517 718H756Q768 718 768 706V657Q768 645 756 645H679V73H756Q768 73 768 61V12Q768 0 756 0H517Z" />
<glyph unicode="I" glyph-name="I" horiz-adv-x="356" d="M58 0Q46 0 46 12V61Q46 73 58 73H135V645H58Q46 645 46 657V706Q46 718 58 718H297Q310 718 310 706V657Q310 645 297 645H220V73H297Q310 73 310 61V12Q310 0 297 0H58Z" />
<glyph unicode="J" glyph-name="J" horiz-adv-x="445" d="M243 645H166Q154 645 154 657V706Q154 718 166 718H405Q418 718 418 706V657Q418 645 405 645H328V271Q328 196 311 145T258 61T169 14T44 0Q32 0 32 12V61Q32 73 44 73Q101 73 139 85T200 120T233 179T243
260V645Z" />
<glyph unicode="K" glyph-name="K" horiz-adv-x="732" d="M611 0Q588 0 576 12T552 48L457 239Q452 248 447 257T431 275T405 288T361 293H220V73H313Q325 73 325 61V12Q325 0 313 0H58Q46 0 46 12V61Q46 73 58 73H135V645H58Q46 645 46 657V706Q46 718 58 718H281Q293
718 293 706V657Q293 645 281 645H220V362H325Q375 362 414 375T479 421T520 507T535 645H466Q454 645 454 657V706Q454 718 466 718H687Q700 718 700 706V657Q700 645 687 645H619Q618 515 582 439T482 328Q508 315 521 295T549 248L635 73H696Q709 73 709 61V12Q709
0 696 0H611Z" />
<glyph unicode="L" glyph-name="L" horiz-adv-x="639" d="M58 0Q46 0 46 12V61Q46 73 58 73H135V645H58Q46 645 46 657V706Q46 718 58 718H296Q310 718 310 705V658Q310 645 296 645H220V73H540V171Q540 183 552 183H609Q622 183 622 171V13Q622 0 608 0H58Z" />
<glyph unicode="M" glyph-name="M" horiz-adv-x="912" d="M624 0Q612 0 612 12V61Q612 73 624 73H691V601H690L500 101Q488 71 455 71Q440 71 427 78T409 101L222 601H220V73H287Q300 73 300 61V12Q300 0 287 0H58Q46 0 46 12V61Q46 73 58 73H135V645H58Q46 645
46 657V706Q46 718 58 718H229Q248 718 259 709T276 684L411 324Q417 307 424 286T439 244Q447 221 454 198H458Q458 198 462 211T474 243T489 283T504 322L639 684Q646 700 657 709T687 718H853Q866 718 866 706V657Q866 645 853 645H777V73H853Q866 73 866 61V12Q866
0 853 0H624Z" />
<glyph unicode="N" glyph-name="N" horiz-adv-x="802" d="M615 0Q594 0 584 8T564 31L272 484Q261 501 252 517T236 547Q228 562 222 576H220V73H297Q310 73 310 61V12Q310 0 297 0H58Q46 0 46 12V61Q46 73 58 73H135V643H58Q46 643 46 655V706Q46 718 58 718H192Q214
718 225 708T244 684L533 238Q545 218 555 200T574 167Q583 149 590 134H592V645H515Q503 645 503 657V706Q503 718 515 718H754Q767 718 767 706V657Q767 645 754 645H677V12Q677 0 665 0H615Z" />
<glyph unicode="O" glyph-name="O" horiz-adv-x="795" d="M398 -7Q324 -7 261 20T151 95T77 212T50 363Q50 448 79 515T156 629T267 699T398 724Q466 724 529 700T640 629T717 516T746 363Q746 279 720 211T646 94T536 20T398 -7ZM398 72Q446 72 492 90T574 145T633
235T656 360Q656 432 633 485T572 574T489 627T398 645Q353 645 307 628T224 575T164 486T140 360Q140 289 162 236T221 146T304 91T398 72Z" />
<glyph unicode="P" glyph-name="P" horiz-adv-x="633" d="M58 0Q46 0 46 12V61Q46 73 58 73H135V645H58Q46 645 46 657V706Q46 718 58 718H366Q417 718 461 703T537 658T588 586T606 491Q606 385 540 328T354 271H220V73H318Q330 73 330 61V12Q330 0 318 0H58ZM346
344Q426 344 471 377T516 490Q516 531 502 560T465 608T411 636T347 645H220V344H346Z" />
<glyph unicode="Q" glyph-name="Q" horiz-adv-x="795" d="M734 -75Q734 -77 734 -77T735 -79Q735 -86 727 -91Q724 -93 714 -97T687 -106T648 -114T600 -118Q531 -118 479 -99T393 -57T343 -15T326 4Q266 15 216 45T128 122T71 230T50 363Q50 448 79 515T156 629T267
699T398 724Q466 724 529 700T640 629T717 516T746 363Q746 284 723 219T658 107T559 30T435 -5Q436 -6 447 -11T479 -23T530 -34T600 -39Q639 -39 662 -33T703 -19Q707 -17 710 -17Q715 -17 718 -23L734 -75ZM398 72Q446 72 492 90T574 145T633 235T656 360Q656
432 633 485T572 574T489 627T398 645Q353 645 307 628T224 575T164 486T140 360Q140 289 162 236T221 146T304 91T398 72Z" />
<glyph unicode="R" glyph-name="R" horiz-adv-x="694" d="M566 0Q544 0 531 12T506 48L412 239Q401 262 388 276T349 291H220V73H312Q324 73 324 61V12Q324 0 312 0H58Q46 0 46 12V61Q46 73 58 73H135V645H58Q46 645 46 657V706Q46 718 58 718H367Q418 718 462
704T539 663T589 596T608 502Q608 424 571 375T461 306Q484 288 508 239L592 73H652Q665 73 665 61V12Q665 0 652 0H566ZM345 360Q384 360 416 367T470 390T505 433T518 499Q518 541 504 569T467 614T412 638T345 645H220V360H345Z" />
<glyph unicode="S" glyph-name="S" horiz-adv-x="669" d="M69 0Q56 0 56 12V243Q56 255 69 255H130Q142 255 142 243V229Q142 223 153 198T189 146T257 96T361 74Q442 74 487 105T533 193Q533 226 514 247T462 283T389 309T306 331T222 357T149 394T98 449T78
530Q78 571 94 606T140 668T213 709T311 724Q388 724 435 701T508 645L507 707V709Q507 719 519 719H574Q586 719 586 707V491Q586 478 574 478H512Q500 478 500 491V519Q500 534 491 555T460 595T405 629T320 643Q249 643 209 611T168 530Q168 497 187 475T239
437T312 411T395 388T479 362T552 326T603 273T623 196Q623 155 609 119T564 54T487 10T373 -7Q320 -7 280 6T211 38T164 78T135 115L136 12Q136 0 123 0H69Z" />
<glyph unicode="T" glyph-name="T" horiz-adv-x="668" d="M217 0Q203 0 203 13V60Q203 73 217 73H292V645H101V547Q101 533 88 533H33Q19 533 19 547V705Q19 718 33 718H635Q648 718 648 705V547Q648 533 635 533H580Q567 533 567 547V645H377V73H448Q461 73 461
60V13Q461 0 448 0H217Z" />
<glyph unicode="U" glyph-name="U" horiz-adv-x="766" d="M565 645H489Q476 645 476 657V706Q476 718 489 718H728Q740 718 740 706V657Q740 645 728 645H651V269Q651 131 581 62T384 -7Q257 -7 186 62T114 269V645H38Q26 645 26 657V706Q26 718 38 718H277Q289
718 289 706V657Q289 645 277 645H200V266Q200 225 209 190T239 128T295 87T384 72Q433 72 467 86T523 125T555 184T565 260V645Z" />
<glyph unicode="V" glyph-name="V" horiz-adv-x="723" d="M343 0Q323 0 313 10T295 40L63 645H-2Q-14 645 -14 657V706Q-14 718 -2 718H224Q236 718 236 706V657Q236 645 224 645H155L359 102H365L568 645H500Q487 645 487 657V706Q487 718 500 718H725Q738 718
738 706V657Q738 645 725 645H659L428 40Q420 20 411 10T382 0H343Z" />
<glyph unicode="W" glyph-name="W" horiz-adv-x="999" d="M663 0Q625 0 616 40L500 549H497L383 40Q374 0 335 0H298Q278 0 268 10T251 40L67 645H4Q-9 645 -9 657V706Q-9 718 4 718H229Q242 718 242 706V657Q242 645 229 645H159L314 102H320L459 718H539L679
102H685L840 645H770Q757 645 757 657V706Q757 718 770 718H995Q1008 718 1008 706V657Q1008 645 995 645H931L748 40Q742 20 732 10T701 0H663Z" />
<glyph unicode="X" glyph-name="X" horiz-adv-x="753" d="M476 0Q464 0 464 12V61Q464 73 476 73H537L372 289L207 73H272Q284 73 284 61V12Q284 0 272 0H31Q19 0 19 12V61Q19 73 31 73H108L326 350L102 645H32Q20 645 20 657V706Q20 718 32 718H273Q285 718 285
706V657Q285 645 273 645H204L377 417L549 646H484Q472 646 472 658V707Q472 719 484 719H725Q737 719 737 707V658Q737 646 725 646H648L424 355L639 73H717Q730 73 730 61V12Q730 0 717 0H476Z" />
<glyph unicode="Y" glyph-name="Y" horiz-adv-x="648" d="M203 0Q191 0 191 12V61Q191 73 203 73H281V287L72 645H4Q-8 645 -8 657V706Q-8 718 4 718H234Q247 718 247 706V657Q247 645 234 645H169L325 364H329L483 645H415Q403 645 403 657V706Q403 718 415 718H644Q657
718 657 706V657Q657 645 644 645H576L366 287V73H445Q457 73 457 61V12Q457 0 445 0H203Z" />
<glyph unicode="Z" glyph-name="Z" horiz-adv-x="641" d="M62 0Q49 0 49 13V56Q48 63 54 72T68 90L483 645H131V563Q131 550 117 550H62Q49 550 49 563V705Q49 718 62 718H579Q592 718 592 705V668Q592 658 585 648T571 627L157 73H510V155Q510 168 524 168H579Q592
168 592 155V13Q592 0 579 0H62Z" />
<glyph unicode="[" glyph-name="bracketleft" horiz-adv-x="355" d="M111 -71Q98 -71 98 -59V754Q98 766 111 766H312Q326 766 326 752V700Q326 687 312 687H182V8H312Q326 8 326 -6V-58Q326 -71 312 -71H111Z" />
<glyph unicode="\" glyph-name="backslash" horiz-adv-x="403" d="M364 -62Q365 -64 365 -67Q365 -74 355 -74H296Q284 -74 280 -62L38 748Q37 749 37 752Q37 760 47 760H106Q119 760 122 748L364 -62Z" />
<glyph unicode="]" glyph-name="bracketright" horiz-adv-x="355" d="M257 -59Q257 -71 244 -71H43Q29 -71 29 -58V-6Q29 8 43 8H173V687H43Q29 687 29 700V752Q29 766 43 766H244Q257 766 257 754V-59Z" />
<glyph unicode="_" glyph-name="underscore" horiz-adv-x="613" d="M81 -100Q68 -100 68 -87V-36Q68 -23 81 -23H532Q545 -23 545 -36V-87Q545 -100 532 -100H81Z" />
<glyph unicode="`" glyph-name="grave" horiz-adv-x="291" d="M227 575Q222 569 217 569Q214 569 208 573L40 707Q35 712 35 717Q35 721 38 726L70 763Q75 768 80 768Q84 768 89 765L250 623Q255 619 255 613Q255 608 252 604L227 575Z" />
<glyph unicode="a" glyph-name="a" horiz-adv-x="556" d="M441 0Q419 0 409 9T398 42V93H396Q389 84 375 67T338 34T280 5T201 -7Q166 -7 136 2T84 29T50 72T37 131Q37 174 56 204T111 253T196 280T305 289H389V302Q389 373 353 401T259 429Q219 429 191 422T145
405T118 389T108 381Q106 380 102 380Q96 380 93 384L65 419Q62 422 62 426Q62 431 67 435Q69 437 80 447T115 469T175 490T262 499Q310 499 349 489T415 454T457 392T472 299V67H528Q540 67 540 55V12Q540 0 528 0H441ZM389 222H309Q271 222 237 219T178 207T138
183T123 142Q123 108 150 86T224 64Q256 64 282 73T329 97T365 126T389 154V222Z" />
<glyph unicode="b" glyph-name="b" horiz-adv-x="593" d="M91 0Q78 0 78 12V651H25Q13 651 13 663V706Q13 718 25 718H149Q161 718 161 706V440Q161 438 161 432T159 419Q158 411 158 401H161Q168 419 182 436T217 468T265 490T325 499Q376 499 417 481T488 429T533
350T549 249Q549 190 533 143T487 63T416 11T324 -7Q290 -7 263 1T215 24T180 57T158 94H157V12Q157 0 145 0H91ZM312 63Q346 63 374 76T423 114T455 172T467 248Q467 290 455 324T422 381T373 416T312 429Q281 429 254 417T205 382T172 325T160 247Q160 205 171
171T203 113T252 76T312 63Z" />
<glyph unicode="c" glyph-name="c" horiz-adv-x="554" d="M499 116Q505 110 505 105Q505 104 494 87T456 48T389 10T289 -7Q238 -7 194 10T116 60T64 140T44 248Q44 309 64 355T117 434T193 482T281 499Q315 499 341 492T386 473T419 449T440 425H441V480V482Q441
493 453 493H491Q503 493 503 480V310Q503 298 491 298H446Q433 298 433 310V327Q433 343 423 361T395 394T351 419T291 429Q263 429 234 418T181 383T142 326T127 247Q127 202 141 168T179 111T233 75T294 63Q326 63 353 72T400 93T434 119T453 141Q457 147 463
147Q466 147 471 144L499 116Z" />
<glyph unicode="d" glyph-name="d" horiz-adv-x="609" d="M481 0Q458 0 448 9T437 42V98H436Q429 80 415 61T379 27T331 3T269 -7Q219 -7 178 11T107 62T61 143T44 249Q44 304 60 350T106 429T177 480T270 499Q303 499 329 491T376 470T410 440T432 406H433Q432
411 432 416V434V651H376Q363 651 363 663V706Q363 718 376 718H503Q515 718 515 706V67H568Q580 67 580 55V12Q580 0 568 0H481ZM281 63Q313 63 341 76T389 113T421 171T433 247Q433 291 421 325T388 382T340 417T281 429Q249 429 221 417T171 381T138 324T126
248Q126 206 137 172T169 114T218 77T281 63Z" />
<glyph unicode="e" glyph-name="e" horiz-adv-x="548" d="M128 227Q130 184 145 153T183 102T235 73T294 63Q336 63 366 76T418 104T450 133T463 146Q466 146 471 143L499 116Q504 109 504 105Q486 74 456 49Q430 28 390 11T289 -7Q238 -7 194 10T116 60T64 140T44
248Q44 309 64 355T117 434T192 482T279 499Q390 499 446 431T502 240Q502 227 489 227H128ZM421 294Q418 351 383 390T282 429Q226 429 183 396T130 294H421Z" />
<glyph unicode="f" glyph-name="f" horiz-adv-x="351" d="M51 0Q39 0 39 12V55Q39 67 51 67H107V425H49Q37 425 37 437V480Q37 492 49 492H107V554Q107 639 150 681T268 724Q290 724 307 719T337 707T358 694T369 684Q375 679 375 674Q375 671 371 667L348 636Q341
631 338 631Q335 631 332 634T321 642T304 649T276 653Q235 653 213 628T190 553V492H318Q330 492 330 480V437Q330 425 318 425H190V67H278Q290 67 290 55V12Q290 0 278 0H51Z" />
<glyph unicode="g" glyph-name="g" horiz-adv-x="605" d="M274 -234Q224 -234 189 -225T131 -203T95 -181T80 -168Q74 -164 74 -157Q74 -153 77 -150L103 -113Q106 -109 111 -109Q115 -109 120 -112Q123 -115 133 -123T162 -141T207 -157T272 -164Q305 -164 334
-156T385 -131T419 -86T432 -19V95Q424 77 410 59T375 26T328 2T268 -7Q217 -7 176 12T105 64T60 144T44 247Q44 305 60 351T107 431T178 481T269 499Q303 499 330 491T377 468T412 437T435 401H437L436 480Q436 492 448 492H566Q578 492 578 480V437Q578 425 566
425H512V-19Q512 -75 494 -115T444 -182T369 -221T274 -234ZM280 63Q312 63 340 75T388 111T421 169T433 246Q433 290 421 324T388 381T339 417T280 429Q247 429 219 417T171 380T138 322T126 245Q126 204 137 171T170 113T219 76T280 63Z" />
<glyph unicode="h" glyph-name="h" horiz-adv-x="593" d="M464 0Q441 0 431 9T420 42V305Q420 362 394 394T311 427Q272 427 247 414T206 384T185 354T178 341V67H231Q243 67 243 55V12Q243 0 231 0H39Q27 0 27 12V55Q27 67 39 67H95V651H39Q27 651 27 663V706Q27
718 39 718H166Q178 718 178 706V483Q178 477 178 468T177 450T175 433T174 422H176Q183 432 195 445T225 471T270 491T331 499Q412 499 457 452T503 325V67H559Q572 67 572 55V12Q572 0 559 0H464Z" />
<glyph unicode="i" glyph-name="i" horiz-adv-x="284" d="M50 0Q38 0 38 12V55Q38 67 50 67H106V425H50Q38 425 38 437V480Q38 492 50 492H176Q189 492 189 480V67H242Q254 67 254 55V12Q254 0 242 0H50ZM205 642Q205 618 188 601T146 584Q121 584 104 601T87
642Q87 667 104 684T146 702Q170 702 187 685T205 642Z" />
<glyph unicode="j" glyph-name="j" horiz-adv-x="260" d="M96 425H40Q28 425 28 437V480Q28 492 40 492H167Q179 492 179 480V-64Q179 -149 136 -191T18 -234Q-4 -234 -21 -229T-50 -218T-71 -205T-82 -195Q-88 -191 -88 -185Q-88 -180 -84 -176L-62 -146Q-57
-141 -51 -141Q-48 -141 -44 -144T-34 -152T-17 -160T10 -164Q51 -164 73 -139T96 -63V425ZM195 642Q195 618 178 601T136 584Q111 584 94 601T77 642Q77 667 94 684T136 702Q160 702 177 685T195 642Z" />
<glyph unicode="k" glyph-name="k" horiz-adv-x="587" d="M498 0Q481 0 469 8T445 31L278 257L178 167V67H231Q243 67 243 55V12Q243 0 231 0H39Q27 0 27 12V55Q27 67 39 67H95V651H39Q27 651 27 663V706Q27 718 39 718H166Q178 718 178 706V258L360 425H324Q312
425 312 437V480Q312 492 324 492H516Q528 492 528 480V437Q528 425 516 425H465L336 309L515 67H559Q571 67 571 55V12Q571 0 559 0H498Z" />
<glyph unicode="l" glyph-name="l" horiz-adv-x="282" d="M44 0Q31 0 31 12V55Q31 67 44 67H100V651H44Q31 651 31 663V706Q31 718 44 718H155Q170 718 176 712T182 693V67H235Q248 67 248 55V12Q248 0 235 0H44Z" />
<glyph unicode="m" glyph-name="m" horiz-adv-x="915" d="M786 0Q763 0 753 9T742 42V305Q742 362 715 395T632 429Q605 429 585 421T549 402T525 379T509 358Q511 349 513 339T515 318V67H571Q583 67 583 55V12Q583 0 571 0H379Q367 0 367 12V55Q367 67 379 67H432V305Q432
362 406 395T323 429Q284 429 259 415T218 385T197 355T190 341V67H238Q251 67 251 55V12Q251 0 238 0H51Q39 0 39 12V55Q39 67 51 67H107V425H51Q39 425 39 437V480Q39 492 51 492H149Q166 492 173 486T181 462L180 412H183Q187 419 198 434T228 463T275 488T345
499Q399 499 437 477T494 416Q500 424 511 438T541 465T588 489T655 499Q736 499 780 452T825 325V67H881Q893 67 893 55V12Q893 0 881 0H786Z" />
<glyph unicode="n" glyph-name="n" horiz-adv-x="605" d="M476 0Q453 0 443 9T432 42V305Q432 362 406 395T323 429Q285 429 260 416T219 386T197 356T190 342V67H243Q255 67 255 55V12Q255 0 243 0H51Q39 0 39 12V55Q39 67 51 67H107V425H51Q39 425 39 437V480Q39
492 51 492H169Q181 492 181 480L180 412H183Q187 419 198 434T227 463T274 488T344 499Q425 499 470 452T515 325V67H571Q584 67 584 55V12Q584 0 571 0H476Z" />
<glyph unicode="o" glyph-name="o" horiz-adv-x="586" d="M293 -7Q240 -7 195 11T116 62T63 142T44 248Q44 307 63 353T116 432T195 482T293 499Q345 499 390 482T469 432T522 353T542 248Q542 189 523 142T471 62T393 11T293 -7ZM293 63Q327 63 357 76T409 113T445
171T458 247Q458 290 445 323T408 380T356 416T293 429Q261 429 231 417T178 381T142 324T128 247Q128 205 141 171T176 113T229 76T293 63Z" />
<glyph unicode="p" glyph-name="p" horiz-adv-x="606" d="M38 -225Q26 -225 26 -213V-170Q26 -158 38 -158H92V425H40Q28 425 28 437V480Q28 492 40 492H158Q170 492 170 480L169 401H171Q179 419 193 436T228 468T276 490T337 499Q387 499 428 482T499 431T545
352T562 247Q562 191 547 145T502 65T431 12T338 -7Q305 -7 278 1T231 24T197 55T175 91H172Q172 82 173 73Q174 65 174 58T175 45V-158H240Q252 -158 252 -170V-213Q252 -225 240 -225H38ZM326 63Q359 63 387 76T436 113T468 170T480 245Q480 288 468 322T436
380T387 416T326 429Q297 429 270 418T221 383T186 324T173 238Q173 196 186 163T220 108T269 75T326 63Z" />
<glyph unicode="q" glyph-name="q" horiz-adv-x="593" d="M367 -225Q354 -225 354 -213V-170Q354 -158 367 -158H432V50Q432 55 432 62T433 77Q434 86 435 95H432Q424 77 410 59T376 26T329 2T269 -7Q218 -7 176 12T105 64T60 144T44 247Q44 305 60 351T107 431T178
481T269 499Q303 499 330 491T377 468T412 437T435 402H437L436 480Q436 492 448 492H503Q515 492 515 480V-158H568Q580 -158 580 -170V-213Q580 -225 568 -225H367ZM281 63Q312 63 340 75T388 111T421 169T433 246Q433 290 421 324T388 381T340 417T281 429Q248
429 220 417T171 380T138 322T126 246Q126 204 138 171T170 113T219 76T281 63Z" />
<glyph unicode="r" glyph-name="r" horiz-adv-x="424" d="M51 0Q39 0 39 12V55Q39 67 51 67H107V425H51Q39 425 39 437V480Q39 492 51 492H169Q181 492 181 480V355H184Q197 393 224 424Q247 450 289 472T399 494Q412 494 412 481V428Q412 415 399 415H378Q333
415 298 399T239 358T203 300T190 235V67H243Q255 67 255 55V12Q255 0 243 0H51Z" />
<glyph unicode="s" glyph-name="s" horiz-adv-x="495" d="M268 -7Q229 -7 201 2T153 23T124 47T110 65H108Q108 51 109 40Q110 30 110 22T111 13Q111 0 98 0H59Q45 0 45 13V163Q45 176 58 176H102Q115 176 115 163V143Q126 121 144 103Q160 88 187 76T257 63Q311
63 338 81T365 135Q365 162 343 176T287 201T214 221T142 246T86 288T63 357Q63 390 76 416T111 461T164 489T231 499Q287 499 320 482T373 441H375Q374 452 373 460Q372 467 372 472T372 479Q372 492 386 492H422Q435 492 435 479V339Q435 326 421 326H378Q365
326 365 339V353Q365 363 359 376T337 401T299 421T241 429Q222 429 205 425T175 412T153 390T145 358Q145 330 167 314T224 288T298 268T372 243T429 202T452 134Q452 107 442 82T410 37T353 5T268 -7Z" />
<glyph unicode="t" glyph-name="t" horiz-adv-x="360" d="M356 51Q359 46 359 43Q359 37 354 32Q351 29 343 23T323 10T293 -2T253 -7Q178 -7 136 35T93 163V425H36Q22 425 22 438V479Q22 492 36 492H93V593Q93 607 106 607H162Q176 607 176 593V492H302Q316 492
316 479V438Q316 425 302 425H176V165Q176 114 198 89T261 63Q278 63 288 66T305 74T316 83T323 87Q327 87 332 82L356 51Z" />
<glyph unicode="u" glyph-name="u" horiz-adv-x="594" d="M467 0Q445 0 435 9T424 42V79H421Q416 70 407 56T379 27T333 3T265 -7Q184 -7 138 40T91 167V425H34Q22 425 22 437V480Q22 492 34 492H130Q152 492 162 483T173 450V187Q173 130 200 97T283 63Q320 63
345 76T387 106T409 135T416 150V425H362Q350 425 350 437V480Q350 492 362 492H486Q498 492 498 480V67H554Q567 67 567 55V12Q567 0 554 0H467Z" />
<glyph unicode="v" glyph-name="v" horiz-adv-x="580" d="M253 0Q243 0 239 3T231 18L72 425H19Q7 425 7 437V480Q7 492 19 492H205Q217 492 217 480V437Q217 425 205 425H163L288 88H290L421 425H376Q364 425 364 437V480Q364 492 376 492H562Q574 492 574 480V437Q574
425 562 425H506L346 18Q341 7 338 4T323 0H253Z" />
<glyph unicode="w" glyph-name="w" horiz-adv-x="803" d="M512 0Q500 0 495 5T487 21L403 356H400L314 21Q311 10 306 5T289 0H232Q221 0 217 5T208 21L74 425H21Q9 425 9 437V480Q9 492 21 492H207Q220 492 220 480V437Q220 425 207 425H162L262 88H264L352 425H314Q302
425 302 437V480Q302 492 314 492H489Q502 492 502 480V437Q502 425 489 425H454L539 88H541L641 425H596Q583 425 583 437V480Q583 492 596 492H782Q794 492 794 480V437Q794 425 782 425H726L593 21Q589 10 585 5T569 0H512Z" />
<glyph unicode="x" glyph-name="x" horiz-adv-x="570" d="M342 0Q329 0 329 12V55Q329 67 342 67H390L278 198L169 67H209Q222 67 222 55V12Q222 0 209 0H41Q28 0 28 12V55Q28 67 41 67H80L237 247L87 425H41Q29 425 29 437V480Q29 492 41 492H229Q241 492 241
480V437Q241 425 229 425H182L295 291L400 424H360Q347 424 347 436V479Q347 491 360 491H528Q541 491 541 479V436Q541 424 528 424H489L337 242L486 67H529Q542 67 542 55V12Q542 0 529 0H342Z" />
<glyph unicode="y" glyph-name="y" horiz-adv-x="579" d="M498 -19Q498 -75 480 -115T430 -182T355 -221T260 -234Q211 -234 176 -225T117 -203T82 -181T66 -168Q60 -162 60 -157Q60 -153 63 -150L89 -113Q92 -109 97 -109Q101 -109 106 -112Q110 -115 120 -123T148
-139T194 -155T259 -162Q292 -162 322 -155T374 -130T410 -85T423 -19V79H421Q416 70 407 56T379 27T332 3T264 -7Q183 -7 137 40T91 167L90 425H34Q22 425 22 437V480Q22 492 34 492H129Q152 492 162 483T173 450V187Q173 130 200 98T283 65Q320 65 345 78T386
106T408 135T415 150V425H362Q350 425 350 437V480Q350 492 362 492H486Q498 492 498 480V-19Z" />
<glyph unicode="z" glyph-name="z" horiz-adv-x="542" d="M62 0Q50 0 50 12V53Q50 67 54 73T65 87L388 425H120V348Q120 336 108 336H62Q50 336 50 348V480Q50 492 62 492H480Q492 492 492 480V445Q492 426 477 413L149 67H422V146Q422 158 434 158H480Q492 158
492 146V12Q492 0 480 0H62Z" />
<glyph unicode="{" glyph-name="braceleft" horiz-adv-x="333" d="M296 -59Q296 -72 282 -72Q248 -72 218 -65T164 -39T128 9T114 84V204Q114 232 106 253T87 289T65 311T45 319Q32 319 32 333V364Q32 377 45 377Q53 377 64 384T87 406T106 442T114 493V607Q114
652 127 682T164 731T217 757T282 765Q296 765 296 752V700Q296 687 282 687Q238 687 218 667T198 600V494Q198 460 188 436T165 396Q151 378 133 365V331Q151 318 165 300Q177 284 187 260T198 203V91Q198 44 218 25T282 6Q296 6 296 -7V-59Z" />
<glyph unicode="|" glyph-name="bar" horiz-adv-x="279" d="M110 -131Q97 -131 97 -119V748Q97 760 110 760H169Q181 760 181 748V-119Q181 -131 169 -131H110Z" />
<glyph unicode="}" glyph-name="braceright" horiz-adv-x="333" d="M51 -72Q37 -72 37 -59V-7Q37 6 51 6Q95 6 115 25T135 91V203Q135 236 145 260T167 300Q181 318 200 331V365Q181 378 167 396Q155 412 145 436T135 494V600Q135 647 115 667T51 687Q37 687 37
700V752Q37 765 51 765Q85 765 115 758T169 732T205 683T219 607V493Q219 464 227 443T246 407T268 385T288 377Q302 377 302 364V333Q302 319 288 319Q280 319 269 312T246 290T227 254T219 204V84Q219 39 206 9T169 -39T116 -64T51 -72Z" />
<glyph unicode="&#xa0;" glyph-name="space" horiz-adv-x="250" />
<glyph unicode="&#xa1;" glyph-name="exclamdown" horiz-adv-x="260" d="M154 345Q167 345 167 333L176 -255Q176 -267 163 -267H100Q88 -267 88 -255L97 333Q97 345 109 345H154ZM78 489Q78 512 93 527T131 542Q154 542 169 527T184 489Q184 466 169 451T131
436Q109 436 94 451T78 489Z" />
<glyph unicode="&#xa2;" glyph-name="cent" d="M271 -13Q259 -13 259 -1V53Q215 59 178 78T113 130T69 206T53 305Q53 360 70 403T115 478T181 529T259 553V624Q259 636 271 636H314Q327 636 327 624V551Q376 544 406 524T450 481H453L450 537Q450 549 462 549H500Q513
549 513 537V367Q513 355 500 355H455Q443 355 443 367V384Q443 400 433 417T405 450T360 475T301 485Q273 485 244 474T191 439T152 383T137 304Q137 259 151 225T189 168T243 132T304 120Q336 120 363 129T410 150T443 175T462 198Q466 204 472 204Q475 204 480
201L509 172Q514 167 514 162Q514 161 504 146T472 111T415 73T327 51V-1Q327 -13 314 -13H271Z" />
<glyph unicode="&#xa3;" glyph-name="sterling" horiz-adv-x="631" d="M278 253V243Q278 216 270 192T249 145T219 106T186 75H566Q578 75 578 63V12Q578 0 566 0H79Q66 0 66 12V60Q66 69 69 73T77 82Q86 88 104 100T141 131T174 176T189 236Q189 240 189 244T188
253H56Q44 253 44 265V302Q44 315 56 315H167Q157 336 145 356T122 399T104 446T97 500Q97 551 115 592T166 663T246 708T351 724Q402 724 443 710T513 669T558 604T574 518V502Q574 490 562 490H500Q488 490 488 502V519Q488 573 451 609T351 646Q319 646 290
638T238 611T202 564T188 494Q188 468 196 446T215 402T239 359T262 315H468Q480 315 480 302V265Q480 253 468 253H278Z" />
<glyph unicode="&#xa4;" glyph-name="currency" horiz-adv-x="642" d="M320 93Q232 93 169 139L103 62Q98 57 93 57Q88 57 84 61L75 69Q70 73 70 79Q70 83 73 88L139 164Q107 197 89 243T71 348Q71 405 88 450T138 528L73 604Q70 607 70 612Q70 618 75 622L84
630Q88 634 93 634Q98 634 103 629L168 553Q232 599 320 599Q363 599 401 587T472 552L538 629Q543 634 548 634Q553 634 557 630L567 622Q572 617 572 612Q572 608 568 604L502 526Q533 494 551 449T569 348Q569 290 551 244T501 165L568 88Q572 84 572 79Q572
74 567 69L557 61Q553 57 548 57Q543 57 538 62L471 139Q408 93 320 93ZM320 163Q354 163 384 176T436 213T472 271T485 347Q485 390 472 423T435 480T382 516T320 529Q288 529 258 517T205 481T168 424T154 347Q154 305 167 271T203 213T256 176T320 163Z" />
<glyph unicode="&#xa5;" glyph-name="yen" horiz-adv-x="725" d="M319 273V287L279 355H153Q141 355 141 368V400Q141 413 153 413H245L110 645H42Q30 645 30 657V706Q30 718 42 718H272Q285 718 285 706V657Q285 645 272 645H207L363 364H367L521 645H453Q441
645 441 657V706Q441 718 453 718H682Q695 718 695 706V657Q695 645 682 645H614L478 413H569Q581 413 581 400V368Q581 355 569 355H444L404 287V273H527Q540 273 540 260V228Q540 215 527 215H404V73H483Q495 73 495 61V12Q495 0 483 0H241Q229 0 229 12V61Q229
73 241 73H319V215H194Q181 215 181 228V260Q181 273 194 273H319Z" />
<glyph unicode="&#xa6;" glyph-name="brokenbar" horiz-adv-x="281" d="M111 410Q99 410 99 422V748Q99 760 111 760H170Q183 760 183 748V422Q183 410 170 410H111ZM111 -131Q99 -131 99 -119V207Q99 219 111 219H170Q183 219 183 207V-119Q183 -131 170 -131H111Z" />
<glyph unicode="&#xa7;" glyph-name="section" horiz-adv-x="679" d="M623 196Q623 163 614 132T584 75Q602 55 612 30T623 -29Q623 -70 609 -106T564 -171T487 -215T373 -232Q320 -232 280 -219T211 -187T164 -147T135 -110L136 -213Q136 -225 123 -225H69Q56
-225 56 -213V18Q56 30 69 30H130Q142 30 142 18V4Q142 -2 153 -27T189 -79T257 -129T361 -151Q442 -151 487 -120T533 -32Q533 11 500 35T415 75T306 105T196 142T112 203T78 305Q78 371 117 419Q99 440 89 467T78 530Q78 571 94 606T140 668T213 709T311 724Q388
724 435 701T508 645L507 707V709Q507 719 519 719H574Q586 719 586 707V491Q586 478 574 478H512Q500 478 500 491V519Q500 534 491 555T460 595T405 629T320 643Q249 643 209 611T168 530Q168 486 201 461T286 420T395 389T505 352T589 293T623 196ZM533 193Q533
221 517 241T474 276T412 301T339 322T263 342T190 367Q168 339 168 305Q168 276 184 256T227 220T289 194T362 172T438 152T511 127Q533 155 533 193Z" />
<glyph unicode="&#xa8;" glyph-name="dieresis" horiz-adv-x="313" d="M119 598Q119 579 106 566T74 553Q55 553 43 566T30 598Q30 617 42 630T74 643Q93 643 106 630T119 598ZM284 598Q284 579 271 566T238 553Q219 553 207 566T194 598Q194 617 206 630T238
643Q257 643 270 630T284 598Z" />
<glyph unicode="&#xa9;" glyph-name="copyright" horiz-adv-x="708" d="M651 348Q651 288 627 234T563 140T468 75T354 51Q294 51 240 75T146 139T81 234T57 348Q57 408 81 462T145 556T240 621T354 645Q414 645 468 621T562 557T627 462T651 348ZM599 348Q599
399 580 443T527 521T450 573T354 592Q303 592 259 573T181 521T129 444T110 348Q110 297 129 253T181 175T258 123T354 104Q405 104 449 123T527 175T579 252T599 348ZM488 265Q493 260 493 257Q493 254 485 241T459 213T415 187T352 175Q319 175 289 187T237
221T201 276T187 351Q187 393 200 425T236 480T289 515T352 527Q388 527 415 516T459 489T484 461T493 444Q493 441 489 437L460 417Q456 415 454 415Q452 415 449 419Q444 428 437 437T418 453T390 466T352 471Q331 471 312 464T279 442T255 405T246 352Q246 321
255 299T279 261T313 239T354 231Q377 231 393 236T421 248T438 264T449 280Q452 285 455 285Q456 285 460 283L488 265Z" />
<glyph unicode="&#xaa;" glyph-name="ordfeminine" horiz-adv-x="356" d="M138 471Q103 471 77 490T51 546Q51 582 79 600T162 619H221V622Q221 650 211 666T162 682Q127 682 111 672T93 661Q92 661 92 661T90 660Q87 660 86 663L70 684Q68 686 68 688Q68 689
70 691Q79 700 92 707Q103 713 120 718T163 724Q219 724 243 697T268 620V514H296Q302 514 302 509V481Q302 475 296 475H248Q237 475 232 479T226 496V509H225Q221 505 214 499T197 486T172 476T138 471ZM150 512Q176 512 193 522T221 544V587L164 588Q130 589
115 580T100 551Q100 533 113 523T150 512Z" />
<glyph unicode="&#xab;" glyph-name="guillemotleft" horiz-adv-x="556" d="M60 213Q47 223 47 236V258Q47 264 51 269T60 279L280 432Q286 434 288 434Q293 434 293 427V383Q293 369 280 361L115 246L280 132Q293 122 293 110V66Q293 58 287 58Q283 58 280 61L60
213ZM257 213Q244 223 244 236V258Q244 264 248 269T257 279L478 432Q482 434 485 434Q491 434 491 427V383Q491 377 487 371T478 361L313 246L478 132Q483 127 487 122T491 110V66Q491 58 485 58Q481 58 478 61L257 213Z" />
<glyph unicode="&#xac;" glyph-name="logicalnot" horiz-adv-x="633" d="M498 141Q486 141 486 153V324H83Q69 324 69 337V380Q69 393 83 393H544Q557 393 557 380V153Q557 141 545 141H498Z" />
<glyph unicode="&#xae;" glyph-name="registered" horiz-adv-x="708" d="M651 348Q651 288 627 234T563 140T468 75T354 51Q294 51 240 75T146 139T81 234T57 348Q57 408 81 462T145 556T240 621T354 645Q414 645 468 621T562 557T627 462T651 348ZM354 100Q405
100 450 119T529 172T582 251T602 348Q602 399 583 444T530 523T451 576T354 596Q303 596 258 577T179 524T126 445T106 348Q106 297 125 252T178 173T257 120T354 100ZM453 179Q443 179 438 185T428 201L377 300Q371 311 366 316T351 322H299V225H336Q342 225
342 220V185Q342 179 336 179H219Q214 179 214 185V220Q214 225 219 225H250V480H219Q214 480 214 486V521Q214 526 219 526H367Q416 526 448 502T481 423Q481 385 463 361T412 328Q416 323 420 315T430 298L467 226H499Q504 226 504 221V185Q504 179 499 179H453ZM364
365Q431 365 431 422Q431 451 413 465T364 480H299V365H364Z" />
<glyph unicode="&#xaf;" glyph-name="macron" horiz-adv-x="392" d="M48 554Q35 554 35 567V609Q35 623 48 623H344Q357 623 357 609V567Q357 554 344 554H48Z" />
<glyph unicode="&#xb0;" glyph-name="degree" horiz-adv-x="266" d="M132 419Q104 419 83 438T61 496Q61 528 82 549T132 571Q163 571 184 550T205 496Q205 457 183 438T132 419ZM132 457Q146 457 156 466T167 496Q167 513 157 523T132 533Q119 533 109 523T99
496Q99 476 109 467T132 457Z" />
<glyph unicode="&#xb1;" glyph-name="plusminus" horiz-adv-x="545" d="M247 161Q234 161 234 174V331H79Q66 331 66 345V395Q66 409 79 409H234V572Q234 584 247 584H304Q316 584 316 572V409H466Q479 409 479 395V345Q479 331 466 331H316V174Q316 161 304 161H247ZM79
32Q66 32 66 45V95Q66 109 79 109H466Q479 109 479 95V45Q479 32 466 32H79Z" />
<glyph unicode="&#xb2;" glyph-name="twosuperior" horiz-adv-x="396" d="M75 362Q65 362 65 371V393Q65 430 80 453T117 493T165 520T213 543T250 572T265 614Q265 642 247 657T199 673Q162 673 142 657T122 611Q122 603 116 603H76Q69 603 69 611Q69 632 76
652T99 688T139 714T199 724Q230 724 253 716T291 692T315 658T323 617Q323 584 308 562T271 523T223 496T173 472T134 446T115 409H278V445Q278 453 286 453H321Q329 453 329 445V371Q329 362 319 362H75Z" />
<glyph unicode="&#xb3;" glyph-name="threesuperior" horiz-adv-x="364" d="M175 359Q144 359 122 367T86 385T64 404T53 417Q51 419 51 421Q51 423 53 425L79 449Q81 451 83 451Q84 451 88 449Q93 443 100 436T118 423T142 413T175 409Q252 409 252 467Q252 496
233 511T176 527H158Q151 527 151 534V563Q151 570 158 570H172Q183 570 195 572T217 581T233 598T240 624Q240 646 225 659T177 673Q150 673 135 660T119 628Q119 620 112 620H74Q67 620 67 628Q67 671 97 697T177 724Q209 724 231 715T268 692T289 662T296 629Q296
609 289 595T273 572T253 557T238 551Q244 550 255 545T279 530T299 503T308 461Q308 415 272 387T175 359Z" />
<glyph unicode="&#xb4;" glyph-name="acute" horiz-adv-x="291" d="M82 572Q77 569 74 569Q67 569 63 575L38 604Q34 610 34 613Q34 618 40 623L201 764Q205 768 210 768Q215 768 220 763L252 725Q255 720 255 716Q255 711 250 706L82 572Z" />
<glyph unicode="&#xb5;" glyph-name="mu" horiz-adv-x="601" d="M473 0Q451 0 441 9T430 42V79H427Q422 70 413 56T385 27T339 3T271 -7Q216 -7 179 14V-213Q179 -225 167 -225H109Q97 -225 97 -213V425H40Q28 425 28 437V480Q28 492 40 492H136Q158 492 168 483T179
450V187Q179 130 206 97T289 63Q326 63 351 76T393 106T415 135T422 150V425H368Q356 425 356 437V480Q356 492 368 492H492Q504 492 504 480V67H560Q573 67 573 55V12Q573 0 560 0H473Z" />
<glyph unicode="&#xb6;" glyph-name="paragraph" horiz-adv-x="685" d="M491 -78Q479 -78 479 -66V643H407V-66Q407 -78 395 -78H333Q320 -78 320 -66V236H280Q226 236 181 250T104 293T53 366T35 473Q35 534 53 580T102 657T177 703T270 718H610Q622 718 622
706V655Q622 643 610 643H566V-66Q566 -78 554 -78H491Z" />
<glyph unicode="&#xb7;" glyph-name="periodcentered" horiz-adv-x="230" d="M162 290Q162 270 149 257T115 243Q95 243 82 256T68 290Q68 310 81 323T115 337Q135 337 148 324T162 290Z" />
<glyph unicode="&#xb8;" glyph-name="cedilla" horiz-adv-x="236" d="M113 -156Q83 -156 65 -146T41 -133Q36 -130 36 -124Q36 -123 38 -117L48 -95Q51 -89 56 -89Q62 -89 73 -97T109 -105Q142 -105 142 -82Q142 -71 132 -68T110 -63T88 -60T78 -50Q78 -46 79
-44L99 17H151L136 -25Q138 -25 148 -25T170 -31T191 -48T201 -81Q201 -116 178 -136T113 -156Z" />
<glyph unicode="&#xb9;" glyph-name="onesuperior" horiz-adv-x="332" d="M86 362Q76 362 76 372V401Q76 410 86 410H158V660L85 605Q81 603 80 603Q76 603 75 606L54 634Q53 635 53 637Q53 640 57 644L154 718Q158 721 167 721H206Q214 721 214 712L215 410H276Q286
410 286 401V372Q286 362 276 362H86Z" />
<glyph unicode="&#xba;" glyph-name="ordmasculine" horiz-adv-x="340" d="M170 471Q146 471 124 480T86 505T59 545T49 599Q49 629 59 652T85 691T124 715T170 724Q194 724 215 716T253 691T280 652T290 599Q290 570 281 546T255 506T216 480T170 471ZM170 513Q201
513 224 534T247 598Q247 640 223 661T170 683Q156 683 142 678T117 661T99 635T92 598Q92 556 115 535T170 513Z" />
<glyph unicode="&#xbb;" glyph-name="guillemotright" horiz-adv-x="556" d="M275 61Q273 60 271 59T267 58Q262 58 262 66V110Q262 116 266 121T275 132L440 246L275 361Q270 365 266 371T262 383V427Q262 435 268 435Q272 435 275 432L496 279Q501 275 505 270T509
258V236Q509 223 496 213L275 61ZM78 61Q76 60 74 59T70 58Q65 58 65 66V110Q65 122 78 132L243 246L78 361Q65 369 65 383V427Q65 435 71 435Q75 435 78 432L298 279Q312 270 312 258V236Q312 223 298 213L78 61Z" />
<glyph unicode="&#xbc;" glyph-name="onequarter" horiz-adv-x="656" d="M171 -74Q161 -74 161 -67Q161 -64 162 -62L404 748Q407 760 420 760H464Q473 760 473 752V748L230 -62Q227 -74 215 -74H171ZM54 362Q44 362 44 372V401Q44 410 54 410H126V660L53 605Q49
603 48 603Q44 603 43 606L22 634Q21 635 21 637Q21 640 25 644L122 718Q126 721 135 721H174Q182 721 182 712L183 410H244Q254 410 254 401V372Q254 362 244 362H54ZM475 0Q469 0 469 7V42Q469 48 475 48H532V114H363Q357 114 357 120V150Q357 156 364 166L522
348Q528 356 531 357T540 359H581Q588 359 588 353V159H626Q633 159 633 153V120Q633 114 626 114H588V48H620Q626 48 626 42V7Q626 0 620 0H475ZM532 289L413 155H532V289Z" />
<glyph unicode="&#xbd;" glyph-name="onehalf" horiz-adv-x="701" d="M185 -74Q175 -74 175 -67Q175 -64 176 -62L418 748Q421 760 434 760H478Q487 760 487 752V748L244 -62Q241 -74 229 -74H185ZM68 362Q58 362 58 372V401Q58 410 68 410H140V660L67 605Q63
603 62 603Q58 603 57 606L36 634Q35 635 35 637Q35 640 39 644L136 718Q140 721 149 721H188Q196 721 196 712L197 410H258Q268 410 268 401V372Q268 362 258 362H68ZM407 0Q397 0 397 9V31Q397 68 412 91T449 131T497 158T545 181T582 210T597 252Q597 280 579
295T531 311Q494 311 474 295T454 249Q454 241 448 241H408Q401 241 401 249Q401 270 408 290T431 326T471 352T531 362Q562 362 585 354T623 330T647 296T655 255Q655 222 640 200T603 161T555 134T505 110T466 84T447 47H610V83Q610 91 618 91H653Q661 91 661
83V9Q661 0 651 0H407Z" />
<glyph unicode="&#xbe;" glyph-name="threequarters" horiz-adv-x="700" d="M213 -74Q203 -74 203 -66Q203 -65 203 -65T204 -62L446 748Q450 760 463 760H507Q516 760 516 753Q516 750 515 748L273 -62Q270 -74 257 -74H213ZM518 0Q512 0 512 7V42Q512 48 518
48H575V114H406Q400 114 400 120V150Q400 154 401 157T407 166L564 348Q570 356 574 357T583 359H624Q631 359 631 353V159H669Q676 159 676 153V120Q676 114 669 114H631V48H663Q669 48 669 42V7Q669 0 663 0H518ZM575 289L455 155H575V289ZM142 359Q111 359 89
367T53 385T31 404T20 417Q18 419 18 421Q18 423 20 425L46 449Q48 451 50 451Q51 451 55 449Q60 443 67 436T85 423T109 413T142 409Q219 409 219 467Q219 496 200 511T143 527H125Q118 527 118 534V563Q118 570 125 570H139Q150 570 162 572T184 581T200 598T207
624Q207 646 192 659T144 673Q117 673 102 660T86 628Q86 620 79 620H41Q34 620 34 628Q34 671 64 697T144 724Q176 724 198 715T235 692T256 662T263 629Q263 609 256 595T240 572T220 557T205 551Q211 550 222 545T246 530T266 503T275 461Q275 415 239 387T142
359Z" />
<glyph unicode="&#xbf;" glyph-name="questiondown" horiz-adv-x="519" d="M317 320Q329 320 329 308Q329 251 314 211T276 140T226 86T177 41T139 -7T123 -65Q123 -122 158 -158T258 -195Q297 -195 324 -182T369 -147T395 -94T403 -29Q403 -17 415 -17H477Q489
-17 489 -29Q489 -74 478 -118T440 -196T369 -252T258 -274Q203 -274 161 -258T91 -214T48 -149T33 -68Q33 -21 49 12T88 71T139 120T190 169T230 228T246 308Q246 320 259 320H317ZM228 446Q228 469 244 485T284 502Q308 502 324 486T340 446Q340 423 324 407T284
390Q261 390 245 406T228 446Z" />
<glyph unicode="&#xc0;" glyph-name="Agrave" horiz-adv-x="719" d="M499 0Q486 0 486 12V61Q486 73 499 73H568L505 243H222L159 73H229Q242 73 242 61V12Q242 0 229 0H6Q-6 0 -6 12V61Q-6 73 6 73H74L289 645H234Q221 645 221 657V706Q221 718 234 718H368Q392
718 405 708T427 675L655 73H722Q735 73 735 61V12Q735 0 722 0H499ZM366 617H359L250 316H478L366 617ZM427 801Q422 795 417 795Q414 795 408 799L240 933Q235 938 235 943Q235 947 238 952L270 989Q275 994 280 994Q284 994 289 991L450 849Q455 845 455 839Q455
834 452 830L427 801Z" />
<glyph unicode="&#xc1;" glyph-name="Aacute" horiz-adv-x="719" d="M499 0Q486 0 486 12V61Q486 73 499 73H568L505 243H222L159 73H229Q242 73 242 61V12Q242 0 229 0H6Q-6 0 -6 12V61Q-6 73 6 73H74L289 645H234Q221 645 221 657V706Q221 718 234 718H368Q392
718 405 708T427 675L655 73H722Q735 73 735 61V12Q735 0 722 0H499ZM366 617H359L250 316H478L366 617ZM359 798Q354 795 351 795Q344 795 340 801L315 830Q311 836 311 839Q311 844 317 849L478 990Q482 994 487 994Q492 994 497 989L529 951Q532 946 532 942Q532
937 527 932L359 798Z" />
<glyph unicode="&#xc2;" glyph-name="Acircumflex" horiz-adv-x="719" d="M499 0Q486 0 486 12V61Q486 73 499 73H568L505 243H222L159 73H229Q242 73 242 61V12Q242 0 229 0H6Q-6 0 -6 12V61Q-6 73 6 73H74L289 645H234Q221 645 221 657V706Q221 718 234 718H368Q392
718 405 708T427 675L655 73H722Q735 73 735 61V12Q735 0 722 0H499ZM366 617H359L250 316H478L366 617ZM505 801Q501 796 495 796Q490 796 486 799L363 904L240 799Q235 796 232 796Q225 796 221 801L197 830Q193 836 193 839Q193 844 199 849L354 985Q358 989
363 989Q369 989 373 984L528 849Q533 842 533 838Q533 833 530 830L505 801Z" />
<glyph unicode="&#xc3;" glyph-name="Atilde" horiz-adv-x="719" d="M499 0Q486 0 486 12V61Q486 73 499 73H568L505 243H222L159 73H229Q242 73 242 61V12Q242 0 229 0H6Q-6 0 -6 12V61Q-6 73 6 73H74L289 645H234Q221 645 221 657V706Q221 718 234 718H368Q392
718 405 708T427 675L655 73H722Q735 73 735 61V12Q735 0 722 0H499ZM366 617H359L250 316H478L366 617ZM508 915Q520 915 520 903Q520 847 499 816T430 785Q402 785 384 792T351 809T323 825T292 833Q276 833 269 824T261 786Q261 774 249 774H212Q200 774 200
786Q200 838 222 867T289 896Q315 896 333 889T366 872T395 856T427 848Q444 848 451 859T459 903Q459 915 471 915H508Z" />
<glyph unicode="&#xc4;" glyph-name="Adieresis" horiz-adv-x="719" d="M499 0Q486 0 486 12V61Q486 73 499 73H568L505 243H222L159 73H229Q242 73 242 61V12Q242 0 229 0H6Q-6 0 -6 12V61Q-6 73 6 73H74L289 645H234Q221 645 221 657V706Q221 718 234 718H368Q392
718 405 708T427 675L655 73H722Q735 73 735 61V12Q735 0 722 0H499ZM366 617H359L250 316H478L366 617ZM326 824Q326 805 313 792T281 779Q262 779 250 792T237 824Q237 843 249 856T281 869Q300 869 313 856T326 824ZM491 824Q491 805 478 792T445 779Q426 779
414 792T401 824Q401 843 413 856T445 869Q464 869 477 856T491 824Z" />
<glyph unicode="&#xc5;" glyph-name="Aring" horiz-adv-x="719" d="M499 0Q486 0 486 12V61Q486 73 499 73H568L505 243H222L159 73H229Q242 73 242 61V12Q242 0 229 0H6Q-6 0 -6 12V61Q-6 73 6 73H74L289 645H234Q221 645 221 657V706Q221 718 234 718H368Q392
718 405 708T427 675L655 73H722Q735 73 735 61V12Q735 0 722 0H499ZM366 617H359L250 316H478L366 617ZM442 858Q442 824 418 800T360 775Q326 775 302 799T277 858Q277 892 301 916T360 940Q394 940 418 916T442 858ZM393 858Q393 872 384 881T360 891Q346 891
337 882T327 858Q327 844 336 835T360 825Q374 825 383 834T393 858Z" />
<glyph unicode="&#xc6;" glyph-name="AE" horiz-adv-x="987" d="M390 0Q378 0 378 12V61Q378 73 390 73H467V322H259L154 73H224Q236 73 236 61V12Q236 0 224 0H0Q-12 0 -12 12V61Q-12 73 0 73H68L310 645H255Q243 645 243 657V706Q243 718 255 718H919Q931 718
931 706V546Q931 534 919 534H866Q854 534 854 546V645H552V395H805Q818 395 818 383V334Q818 322 805 322H552V73H853V171Q853 183 866 183H919Q931 183 931 171V12Q931 0 919 0H390ZM467 645H396L289 395H467V645Z" />
<glyph unicode="&#xc7;" glyph-name="Ccedilla" horiz-adv-x="748" d="M375 -156Q345 -156 327 -146T303 -133Q298 -130 298 -124Q298 -123 300 -117L310 -95Q313 -89 318 -89Q324 -89 335 -97T371 -105Q404 -105 404 -82Q404 -71 394 -68T372 -63T350 -60T340
-50Q340 -46 341 -44L353 -5Q288 1 233 30T138 106T74 219T51 363Q51 448 78 515T152 629T260 699T387 724Q436 724 473 714T538 687T582 652T611 617L610 706Q610 718 622 718H677Q689 718 689 706V488Q689 475 677 475H616Q603 475 603 488V497Q603 517 588 543T545
591T478 629T391 645Q346 645 302 628T221 575T163 486T141 360Q141 288 163 234T222 144T303 90T396 72Q453 72 494 86T565 122T612 165T639 203Q643 212 650 212Q652 212 657 209L700 181Q705 177 705 171Q705 167 702 161Q696 149 677 123T623 68T534 18T404
-6L398 -25Q400 -25 410 -25T432 -31T453 -48T463 -81Q463 -116 440 -136T375 -156Z" />
<glyph unicode="&#xc8;" glyph-name="Egrave" horiz-adv-x="659" d="M58 0Q46 0 46 12V61Q46 73 58 73H135V645H58Q46 645 46 657V706Q46 718 58 718H591Q603 718 603 706V546Q603 534 591 534H534Q522 534 522 546V645H220V395H473Q486 395 486 383V334Q486 322
473 322H220V73H521V171Q521 183 534 183H591Q603 183 603 171V12Q603 0 591 0H58ZM376 801Q371 795 366 795Q363 795 357 799L189 933Q184 938 184 943Q184 947 187 952L219 989Q224 994 229 994Q233 994 238 991L399 849Q404 845 404 839Q404 834 401 830L376
801Z" />
<glyph unicode="&#xc9;" glyph-name="Eacute" horiz-adv-x="659" d="M269 798Q264 795 261 795Q254 795 250 801L225 830Q221 836 221 839Q221 844 227 849L388 990Q392 994 397 994Q402 994 407 989L439 951Q442 946 442 942Q442 937 437 932L269 798ZM58 0Q46
0 46 12V61Q46 73 58 73H135V645H58Q46 645 46 657V706Q46 718 58 718H591Q603 718 603 706V546Q603 534 591 534H534Q522 534 522 546V645H220V395H473Q486 395 486 383V334Q486 322 473 322H220V73H521V171Q521 183 534 183H591Q603 183 603 171V12Q603 0 591
0H58Z" />
<glyph unicode="&#xca;" glyph-name="Ecircumflex" horiz-adv-x="659" d="M443 801Q439 796 433 796Q428 796 424 799L301 904L178 799Q173 796 170 796Q163 796 159 801L135 830Q131 836 131 839Q131 844 137 849L292 985Q296 989 301 989Q307 989 311 984L466
849Q471 842 471 838Q471 833 468 830L443 801ZM58 0Q46 0 46 12V61Q46 73 58 73H135V645H58Q46 645 46 657V706Q46 718 58 718H591Q603 718 603 706V546Q603 534 591 534H534Q522 534 522 546V645H220V395H473Q486 395 486 383V334Q486 322 473 322H220V73H521V171Q521
183 534 183H591Q603 183 603 171V12Q603 0 591 0H58Z" />
<glyph unicode="&#xcb;" glyph-name="Edieresis" horiz-adv-x="659" d="M280 824Q280 805 267 792T235 779Q216 779 204 792T191 824Q191 843 203 856T235 869Q254 869 267 856T280 824ZM445 824Q445 805 432 792T399 779Q380 779 368 792T355 824Q355 843 367
856T399 869Q418 869 431 856T445 824ZM58 0Q46 0 46 12V61Q46 73 58 73H135V645H58Q46 645 46 657V706Q46 718 58 718H591Q603 718 603 706V546Q603 534 591 534H534Q522 534 522 546V645H220V395H473Q486 395 486 383V334Q486 322 473 322H220V73H521V171Q521
183 534 183H591Q603 183 603 171V12Q603 0 591 0H58Z" />
<glyph unicode="&#xcc;" glyph-name="Igrave" horiz-adv-x="356" d="M58 0Q46 0 46 12V61Q46 73 58 73H135V645H58Q46 645 46 657V706Q46 718 58 718H297Q310 718 310 706V657Q310 645 297 645H220V73H297Q310 73 310 61V12Q310 0 297 0H58ZM205 779Q200 773 195
773Q192 773 186 777L18 911Q13 916 13 921Q13 925 16 930L48 967Q53 972 58 972Q62 972 67 969L228 827Q233 823 233 817Q233 812 230 808L205 779Z" />
<glyph unicode="&#xcd;" glyph-name="Iacute" horiz-adv-x="356" d="M58 0Q46 0 46 12V61Q46 73 58 73H135V645H58Q46 645 46 657V706Q46 718 58 718H297Q310 718 310 706V657Q310 645 297 645H220V73H297Q310 73 310 61V12Q310 0 297 0H58ZM168 774Q163 771 160
771Q153 771 149 777L124 806Q120 812 120 815Q120 820 126 825L287 966Q291 970 296 970Q301 970 306 965L338 927Q341 922 341 918Q341 913 336 908L168 774Z" />
<glyph unicode="&#xce;" glyph-name="Icircumflex" horiz-adv-x="356" d="M57 0Q45 0 45 12V61Q45 73 57 73H134V645H57Q45 645 45 657V706Q45 718 57 718H296Q309 718 309 706V657Q309 645 296 645H219V73H296Q309 73 309 61V12Q309 0 296 0H57ZM322 801Q318
796 312 796Q307 796 303 799L180 904L57 799Q52 796 49 796Q42 796 38 801L14 830Q10 836 10 839Q10 844 16 849L171 985Q175 989 180 989Q186 989 190 984L345 849Q350 842 350 838Q350 833 347 830L322 801Z" />
<glyph unicode="&#xcf;" glyph-name="Idieresis" horiz-adv-x="356" d="M58 0Q46 0 46 12V61Q46 73 58 73H135V645H58Q46 645 46 657V706Q46 718 58 718H297Q310 718 310 706V657Q310 645 297 645H220V73H297Q310 73 310 61V12Q310 0 297 0H58ZM143 824Q143 805
130 792T98 779Q79 779 67 792T54 824Q54 843 66 856T98 869Q117 869 130 856T143 824ZM308 824Q308 805 295 792T262 779Q243 779 231 792T218 824Q218 843 230 856T262 869Q281 869 294 856T308 824Z" />
<glyph unicode="&#xd0;" glyph-name="Eth" horiz-adv-x="739" d="M58 0Q46 0 46 12V61Q46 73 58 73H135V324H67Q53 324 53 337V379Q53 393 67 393H135V645H58Q46 645 46 657V706Q46 718 58 718H326Q408 718 475 694T589 623T662 511T688 360Q688 276 664 209T595
96T487 25T344 0H58ZM320 73Q457 73 527 144T598 358Q598 425 581 478T528 568T440 625T317 645H220V393H372Q385 393 385 379V337Q385 324 372 324H220V73H320Z" />
<glyph unicode="&#xd1;" glyph-name="Ntilde" horiz-adv-x="802" d="M615 0Q594 0 584 8T564 31L272 484Q261 501 252 517T236 547Q228 562 222 576H220V73H297Q310 73 310 61V12Q310 0 297 0H58Q46 0 46 12V61Q46 73 58 73H135V643H58Q46 643 46 655V706Q46 718
58 718H192Q214 718 225 708T244 684L533 238Q545 218 555 200T574 167Q583 149 590 134H592V645H515Q503 645 503 657V706Q503 718 515 718H754Q767 718 767 706V657Q767 645 754 645H677V12Q677 0 665 0H615ZM562 915Q574 915 574 903Q574 847 553 816T484 785Q456
785 438 792T405 809T377 825T346 833Q330 833 323 824T315 786Q315 774 303 774H266Q254 774 254 786Q254 838 276 867T343 896Q369 896 387 889T420 872T449 856T481 848Q498 848 505 859T513 903Q513 915 525 915H562Z" />
<glyph unicode="&#xd2;" glyph-name="Ograve" horiz-adv-x="795" d="M398 -7Q324 -7 261 20T151 95T77 212T50 363Q50 448 79 515T156 629T267 699T398 724Q466 724 529 700T640 629T717 516T746 363Q746 279 720 211T646 94T536 20T398 -7ZM398 72Q446 72 492
90T574 145T633 235T656 360Q656 432 633 485T572 574T489 627T398 645Q353 645 307 628T224 575T164 486T140 360Q140 289 162 236T221 146T304 91T398 72ZM451 801Q446 795 441 795Q438 795 432 799L264 933Q259 938 259 943Q259 947 262 952L294 989Q299 994
304 994Q308 994 313 991L474 849Q479 845 479 839Q479 834 476 830L451 801Z" />
<glyph unicode="&#xd3;" glyph-name="Oacute" horiz-adv-x="795" d="M332 798Q327 795 324 795Q317 795 313 801L288 830Q284 836 284 839Q284 844 290 849L451 990Q455 994 460 994Q465 994 470 989L502 951Q505 946 505 942Q505 937 500 932L332 798ZM398 -7Q324
-7 261 20T151 95T77 212T50 363Q50 448 79 515T156 629T267 699T398 724Q466 724 529 700T640 629T717 516T746 363Q746 279 720 211T646 94T536 20T398 -7ZM398 72Q446 72 492 90T574 145T633 235T656 360Q656 432 633 485T572 574T489 627T398 645Q353 645 307
628T224 575T164 486T140 360Q140 289 162 236T221 146T304 91T398 72Z" />
<glyph unicode="&#xd4;" glyph-name="Ocircumflex" horiz-adv-x="795" d="M539 801Q535 796 529 796Q524 796 520 799L397 904L274 799Q269 796 266 796Q259 796 255 801L231 830Q227 836 227 839Q227 844 233 849L388 985Q392 989 397 989Q403 989 407 984L562
849Q567 842 567 838Q567 833 564 830L539 801ZM398 -7Q324 -7 261 20T151 95T77 212T50 363Q50 448 79 515T156 629T267 699T398 724Q466 724 529 700T640 629T717 516T746 363Q746 279 720 211T646 94T536 20T398 -7ZM398 72Q446 72 492 90T574 145T633 235T656
360Q656 432 633 485T572 574T489 627T398 645Q353 645 307 628T224 575T164 486T140 360Q140 289 162 236T221 146T304 91T398 72Z" />
<glyph unicode="&#xd5;" glyph-name="Otilde" horiz-adv-x="795" d="M398 -7Q324 -7 261 20T151 95T77 212T50 363Q50 448 79 515T156 629T267 699T398 724Q466 724 529 700T640 629T717 516T746 363Q746 279 720 211T646 94T536 20T398 -7ZM398 72Q446 72 492
90T574 145T633 235T656 360Q656 432 633 485T572 574T489 627T398 645Q353 645 307 628T224 575T164 486T140 360Q140 289 162 236T221 146T304 91T398 72ZM553 915Q565 915 565 903Q565 847 544 816T475 785Q447 785 429 792T396 809T368 825T337 833Q321 833
314 824T306 786Q306 774 294 774H257Q245 774 245 786Q245 838 267 867T334 896Q360 896 378 889T411 872T440 856T472 848Q489 848 496 859T504 903Q504 915 516 915H553Z" />
<glyph unicode="&#xd6;" glyph-name="Odieresis" horiz-adv-x="795" d="M360 824Q360 805 347 792T315 779Q296 779 284 792T271 824Q271 843 283 856T315 869Q334 869 347 856T360 824ZM525 824Q525 805 512 792T479 779Q460 779 448 792T435 824Q435 843 447
856T479 869Q498 869 511 856T525 824ZM398 -7Q324 -7 261 20T151 95T77 212T50 363Q50 448 79 515T156 629T267 699T398 724Q466 724 529 700T640 629T717 516T746 363Q746 279 720 211T646 94T536 20T398 -7ZM398 72Q446 72 492 90T574 145T633 235T656 360Q656
432 633 485T572 574T489 627T398 645Q353 645 307 628T224 575T164 486T140 360Q140 289 162 236T221 146T304 91T398 72Z" />
<glyph unicode="&#xd7;" glyph-name="multiply" horiz-adv-x="473" d="M367 120Q363 116 358 116Q352 116 349 120L239 230L130 120Q126 116 121 116Q116 116 112 120L74 160Q69 165 69 169Q69 173 74 178L182 287L72 397Q68 401 68 406Q68 412 72 416L109 453Q115
457 118 457Q123 457 128 452L238 342L340 445Q344 449 349 449Q354 449 358 445L397 406Q401 402 401 397Q401 392 397 389L295 286L404 176Q408 170 408 166Q408 161 404 158L367 120Z" />
<glyph unicode="&#xd8;" glyph-name="Oslash" horiz-adv-x="795" d="M398 -7Q378 -7 360 -5T324 0L312 -39Q309 -52 297 -52H259Q249 -52 249 -43Q249 -42 249 -42T250 -39L267 17Q219 36 179 69T111 146T66 245T50 363Q50 448 79 515T156 629T267 699T398 724Q437
724 475 715L492 770Q496 782 509 782H546Q555 782 555 775Q555 772 554 770L532 698Q578 680 617 649T684 576T729 480T746 363Q746 279 720 211T646 94T536 20T398 -7ZM142 360Q142 310 153 268T185 193T232 137T291 98L452 638Q425 644 398 644Q353 644 308
627T225 574T165 486T142 360ZM398 74Q446 74 492 92T574 146T632 235T654 360Q654 410 643 451T611 524T565 579T508 617L347 79Q360 76 372 75T398 74Z" />
<glyph unicode="&#xd9;" glyph-name="Ugrave" horiz-adv-x="766" d="M565 645H489Q476 645 476 657V706Q476 718 489 718H728Q740 718 740 706V657Q740 645 728 645H651V269Q651 131 581 62T384 -7Q257 -7 186 62T114 269V645H38Q26 645 26 657V706Q26 718 38
718H277Q289 718 289 706V657Q289 645 277 645H200V266Q200 225 209 190T239 128T295 87T384 72Q433 72 467 86T523 125T555 184T565 260V645ZM466 801Q461 795 456 795Q453 795 447 799L279 933Q274 938 274 943Q274 947 277 952L309 989Q314 994 319 994Q323
994 328 991L489 849Q494 845 494 839Q494 834 491 830L466 801Z" />
<glyph unicode="&#xda;" glyph-name="Uacute" horiz-adv-x="766" d="M353 798Q348 795 345 795Q338 795 334 801L309 830Q305 836 305 839Q305 844 311 849L472 990Q476 994 481 994Q486 994 491 989L523 951Q526 946 526 942Q526 937 521 932L353 798ZM565 645H489Q476
645 476 657V706Q476 718 489 718H728Q740 718 740 706V657Q740 645 728 645H651V269Q651 131 581 62T384 -7Q257 -7 186 62T114 269V645H38Q26 645 26 657V706Q26 718 38 718H277Q289 718 289 706V657Q289 645 277 645H200V266Q200 225 209 190T239 128T295 87T384
72Q433 72 467 86T523 125T555 184T565 260V645Z" />
<glyph unicode="&#xdb;" glyph-name="Ucircumflex" horiz-adv-x="766" d="M526 801Q522 796 516 796Q511 796 507 799L384 904L261 799Q256 796 253 796Q246 796 242 801L218 830Q214 836 214 839Q214 844 220 849L375 985Q379 989 384 989Q390 989 394 984L549
849Q554 842 554 838Q554 833 551 830L526 801ZM565 645H489Q476 645 476 657V706Q476 718 489 718H728Q740 718 740 706V657Q740 645 728 645H651V269Q651 131 581 62T384 -7Q257 -7 186 62T114 269V645H38Q26 645 26 657V706Q26 718 38 718H277Q289 718 289 706V657Q289
645 277 645H200V266Q200 225 209 190T239 128T295 87T384 72Q433 72 467 86T523 125T555 184T565 260V645Z" />
<glyph unicode="&#xdc;" glyph-name="Udieresis" horiz-adv-x="766" d="M344 824Q344 805 331 792T299 779Q280 779 268 792T255 824Q255 843 267 856T299 869Q318 869 331 856T344 824ZM509 824Q509 805 496 792T463 779Q444 779 432 792T419 824Q419 843 431
856T463 869Q482 869 495 856T509 824ZM565 645H489Q476 645 476 657V706Q476 718 489 718H728Q740 718 740 706V657Q740 645 728 645H651V269Q651 131 581 62T384 -7Q257 -7 186 62T114 269V645H38Q26 645 26 657V706Q26 718 38 718H277Q289 718 289 706V657Q289
645 277 645H200V266Q200 225 209 190T239 128T295 87T384 72Q433 72 467 86T523 125T555 184T565 260V645Z" />
<glyph unicode="&#xdd;" glyph-name="Yacute" horiz-adv-x="648" d="M203 0Q191 0 191 12V61Q191 73 203 73H281V287L72 645H4Q-8 645 -8 657V706Q-8 718 4 718H234Q247 718 247 706V657Q247 645 234 645H169L325 364H329L483 645H415Q403 645 403 657V706Q403
718 415 718H644Q657 718 657 706V657Q657 645 644 645H576L366 287V73H445Q457 73 457 61V12Q457 0 445 0H203ZM264 798Q259 795 256 795Q249 795 245 801L220 830Q216 836 216 839Q216 844 222 849L383 990Q387 994 392 994Q397 994 402 989L434 951Q437 946
437 942Q437 937 432 932L264 798Z" />
<glyph unicode="&#xde;" glyph-name="Thorn" horiz-adv-x="630" d="M61 0Q49 0 49 12V57Q49 69 61 69H132V649H63Q51 649 51 661V706Q51 718 63 718H201Q214 718 214 706V584H356Q408 584 452 570T529 529T579 462T597 369Q597 266 533 213T345 159H211V69H306Q318
69 318 57V12Q318 0 306 0H61ZM353 228Q388 228 417 235T466 260T498 304T510 369Q510 408 497 435T463 479T413 503T353 511H212V228H353Z" />
<glyph unicode="&#xdf;" glyph-name="germandbls" horiz-adv-x="671" d="M39 0Q27 0 27 12V57Q27 69 39 69H97V482Q97 539 114 584T162 660T233 707T318 724Q362 724 394 713T449 684T481 641T492 590Q492 562 483 543T458 510T427 485T395 460T371 430T361 388Q361
358 382 341T435 311T504 287T573 257T626 211T648 137Q648 105 632 78T589 30T526 -1T447 -12Q385 -12 347 8T286 53T254 102T242 132Q240 136 240 139Q240 144 248 149L283 165Q286 166 290 166Q297 166 300 159Q301 157 308 141T331 106T373 72T441 57Q492 57
526 80T560 139Q560 172 540 190T489 222T422 245T356 272T305 314T284 383Q284 412 293 432T316 467T346 493T376 516T399 542T408 577Q408 604 387 626T314 649Q287 649 263 638T220 606T192 554T181 482V69H221Q233 69 233 57V12Q233 0 221 0H39Z" />
<glyph unicode="&#xe0;" glyph-name="agrave" horiz-adv-x="556" d="M441 0Q419 0 409 9T398 42V93H396Q389 84 375 67T338 34T280 5T201 -7Q166 -7 136 2T84 29T50 72T37 131Q37 174 56 204T111 253T196 280T305 289H389V302Q389 373 353 401T259 429Q219 429
191 422T145 405T118 389T108 381Q106 380 102 380Q96 380 93 384L65 419Q62 422 62 426Q62 431 67 435Q69 437 80 447T115 469T175 490T262 499Q310 499 349 489T415 454T457 392T472 299V67H528Q540 67 540 55V12Q540 0 528 0H441ZM389 222H309Q271 222 237 219T178
207T138 183T123 142Q123 108 150 86T224 64Q256 64 282 73T329 97T365 126T389 154V222ZM343 575Q338 569 333 569Q330 569 324 573L156 707Q151 712 151 717Q151 721 154 726L186 763Q191 768 196 768Q200 768 205 765L366 623Q371 619 371 613Q371 608 368 604L343
575Z" />
<glyph unicode="&#xe1;" glyph-name="aacute" horiz-adv-x="556" d="M441 0Q419 0 409 9T398 42V93H396Q389 84 375 67T338 34T280 5T201 -7Q166 -7 136 2T84 29T50 72T37 131Q37 174 56 204T111 253T196 280T305 289H389V302Q389 373 353 401T259 429Q219 429
191 422T145 405T118 389T108 381Q106 380 102 380Q96 380 93 384L65 419Q62 422 62 426Q62 431 67 435Q69 437 80 447T115 469T175 490T262 499Q310 499 349 489T415 454T457 392T472 299V67H528Q540 67 540 55V12Q540 0 528 0H441ZM389 222H309Q271 222 237 219T178
207T138 183T123 142Q123 108 150 86T224 64Q256 64 282 73T329 97T365 126T389 154V222ZM237 572Q232 569 229 569Q222 569 218 575L193 604Q189 610 189 613Q189 618 195 623L356 764Q360 768 365 768Q370 768 375 763L407 725Q410 720 410 716Q410 711 405 706L237
572Z" />
<glyph unicode="&#xe2;" glyph-name="acircumflex" horiz-adv-x="556" d="M441 0Q419 0 409 9T398 42V93H396Q389 84 375 67T338 34T280 5T201 -7Q166 -7 136 2T84 29T50 72T37 131Q37 174 56 204T111 253T196 280T305 289H389V302Q389 373 353 401T259 429Q219
429 191 422T145 405T118 389T108 381Q106 380 102 380Q96 380 93 384L65 419Q62 422 62 426Q62 431 67 435Q69 437 80 447T115 469T175 490T262 499Q310 499 349 489T415 454T457 392T472 299V67H528Q540 67 540 55V12Q540 0 528 0H441ZM389 222H309Q271 222 237
219T178 207T138 183T123 142Q123 108 150 86T224 64Q256 64 282 73T329 97T365 126T389 154V222ZM422 575Q418 570 412 570Q407 570 403 573L280 678L157 573Q152 570 149 570Q142 570 138 575L114 604Q110 610 110 613Q110 618 116 623L271 759Q275 763 280 763Q286
763 290 758L445 623Q450 616 450 612Q450 607 447 604L422 575Z" />
<glyph unicode="&#xe3;" glyph-name="atilde" horiz-adv-x="556" d="M441 0Q419 0 409 9T398 42V93H396Q389 84 375 67T338 34T280 5T201 -7Q166 -7 136 2T84 29T50 72T37 131Q37 174 56 204T111 253T196 280T305 289H389V302Q389 373 353 401T259 429Q219 429
191 422T145 405T118 389T108 381Q106 380 102 380Q96 380 93 384L65 419Q62 422 62 426Q62 431 67 435Q69 437 80 447T115 469T175 490T262 499Q310 499 349 489T415 454T457 392T472 299V67H528Q540 67 540 55V12Q540 0 528 0H441ZM389 222H309Q271 222 237 219T178
207T138 183T123 142Q123 108 150 86T224 64Q256 64 282 73T329 97T365 126T389 154V222ZM427 689Q439 689 439 677Q439 621 418 590T349 559Q321 559 303 566T270 583T242 599T211 607Q195 607 188 598T180 560Q180 548 168 548H131Q119 548 119 560Q119 612 141
641T208 670Q234 670 252 663T285 646T314 630T346 622Q363 622 370 633T378 677Q378 689 390 689H427Z" />
<glyph unicode="&#xe4;" glyph-name="adieresis" horiz-adv-x="556" d="M441 0Q419 0 409 9T398 42V93H396Q389 84 375 67T338 34T280 5T201 -7Q166 -7 136 2T84 29T50 72T37 131Q37 174 56 204T111 253T196 280T305 289H389V302Q389 373 353 401T259 429Q219
429 191 422T145 405T118 389T108 381Q106 380 102 380Q96 380 93 384L65 419Q62 422 62 426Q62 431 67 435Q69 437 80 447T115 469T175 490T262 499Q310 499 349 489T415 454T457 392T472 299V67H528Q540 67 540 55V12Q540 0 528 0H441ZM389 222H309Q271 222 237
219T178 207T138 183T123 142Q123 108 150 86T224 64Q256 64 282 73T329 97T365 126T389 154V222ZM252 598Q252 579 239 566T207 553Q188 553 176 566T163 598Q163 617 175 630T207 643Q226 643 239 630T252 598ZM417 598Q417 579 404 566T371 553Q352 553 340
566T327 598Q327 617 339 630T371 643Q390 643 403 630T417 598Z" />
<glyph unicode="&#xe5;" glyph-name="aring" horiz-adv-x="556" d="M441 0Q419 0 409 9T398 42V93H396Q389 84 375 67T338 34T280 5T201 -7Q166 -7 136 2T84 29T50 72T37 131Q37 174 56 204T111 253T196 280T305 289H389V302Q389 373 353 401T259 429Q219 429
191 422T145 405T118 389T108 381Q106 380 102 380Q96 380 93 384L65 419Q62 422 62 426Q62 431 67 435Q69 437 80 447T115 469T175 490T262 499Q310 499 349 489T415 454T457 392T472 299V67H528Q540 67 540 55V12Q540 0 528 0H441ZM389 222H309Q271 222 237 219T178
207T138 183T123 142Q123 108 150 86T224 64Q256 64 282 73T329 97T365 126T389 154V222ZM372 632Q372 598 348 574T290 549Q256 549 232 573T207 632Q207 666 231 690T290 714Q324 714 348 690T372 632ZM323 632Q323 646 314 655T290 665Q276 665 267 656T257
632Q257 618 266 609T290 599Q304 599 313 608T323 632Z" />
<glyph unicode="&#xe6;" glyph-name="ae" horiz-adv-x="893" d="M474 227Q476 184 491 153T529 102T581 73T640 63Q682 63 712 76T764 104T796 133T809 146Q812 146 817 143L845 116Q850 109 850 105Q832 74 802 49Q776 28 736 11T635 -7Q566 -7 511 23T423 111Q412
95 394 75T348 36T284 6T201 -7Q166 -7 136 2T84 29T50 72T37 131Q37 174 56 204T111 253T196 280T305 289H389V303Q389 374 353 401T259 429Q219 429 191 422T145 405T118 389T108 381Q106 380 102 380Q96 380 93 384L65 419Q62 422 62 426Q62 431 67 435Q69 437
80 447T115 469T175 490T262 499Q328 499 373 479T442 411Q476 454 524 476T625 499Q736 499 792 431T848 240Q848 227 835 227H474ZM396 167Q393 177 391 194T389 222H310Q271 222 237 219T178 207T138 183T123 142Q123 108 150 86T226 63Q269 63 300 78T352 113T383
148T396 167ZM767 294Q764 351 729 390T628 429Q572 429 529 396T476 294H767Z" />
<glyph unicode="&#xe7;" glyph-name="ccedilla" horiz-adv-x="554" d="M271 -156Q241 -156 223 -146T199 -133Q194 -130 194 -124Q194 -123 196 -117L206 -95Q209 -89 214 -89Q220 -89 231 -97T267 -105Q300 -105 300 -82Q300 -71 290 -68T268 -63T246 -60T236
-50Q236 -46 237 -44L250 -4Q206 2 169 21T103 73T60 150T44 248Q44 309 64 355T117 434T193 482T281 499Q315 499 341 492T386 473T419 449T440 425H441V480V482Q441 493 453 493H491Q503 493 503 480V310Q503 298 491 298H446Q433 298 433 310V327Q433 343 423
361T395 394T351 419T291 429Q263 429 234 418T181 383T142 326T127 247Q127 202 141 168T179 111T233 75T294 63Q326 63 353 72T400 93T434 119T453 141Q457 147 463 147Q466 147 471 144L499 116Q505 110 505 105Q505 103 494 86T458 49T394 12T300 -7L294 -25Q296
-25 306 -25T328 -31T349 -48T359 -81Q359 -116 336 -136T271 -156Z" />
<glyph unicode="&#xe8;" glyph-name="egrave" horiz-adv-x="548" d="M128 227Q130 184 145 153T183 102T235 73T294 63Q336 63 366 76T418 104T450 133T463 146Q466 146 471 143L499 116Q504 109 504 105Q486 74 456 49Q430 28 390 11T289 -7Q238 -7 194 10T116
60T64 140T44 248Q44 309 64 355T117 434T192 482T279 499Q390 499 446 431T502 240Q502 227 489 227H128ZM421 294Q418 351 383 390T282 429Q226 429 183 396T130 294H421ZM352 575Q347 569 342 569Q339 569 333 573L165 707Q160 712 160 717Q160 721 163 726L195
763Q200 768 205 768Q209 768 214 765L375 623Q380 619 380 613Q380 608 377 604L352 575Z" />
<glyph unicode="&#xe9;" glyph-name="eacute" horiz-adv-x="548" d="M253 572Q248 569 245 569Q238 569 234 575L209 604Q205 610 205 613Q205 618 211 623L372 764Q376 768 381 768Q386 768 391 763L423 725Q426 720 426 716Q426 711 421 706L253 572ZM128 227Q130
184 145 153T183 102T235 73T294 63Q336 63 366 76T418 104T450 133T463 146Q466 146 471 143L499 116Q504 109 504 105Q486 74 456 49Q430 28 390 11T289 -7Q238 -7 194 10T116 60T64 140T44 248Q44 309 64 355T117 434T192 482T279 499Q390 499 446 431T502 240Q502
227 489 227H128ZM421 294Q418 351 383 390T282 429Q226 429 183 396T130 294H421Z" />
<glyph unicode="&#xea;" glyph-name="ecircumflex" horiz-adv-x="548" d="M423 575Q419 570 413 570Q408 570 404 573L281 678L158 573Q153 570 150 570Q143 570 139 575L115 604Q111 610 111 613Q111 618 117 623L272 759Q276 763 281 763Q287 763 291 758L446
623Q451 616 451 612Q451 607 448 604L423 575ZM128 227Q130 184 145 153T183 102T235 73T294 63Q336 63 366 76T418 104T450 133T463 146Q466 146 471 143L499 116Q504 109 504 105Q486 74 456 49Q430 28 390 11T289 -7Q238 -7 194 10T116 60T64 140T44 248Q44
309 64 355T117 434T192 482T279 499Q390 499 446 431T502 240Q502 227 489 227H128ZM421 294Q418 351 383 390T282 429Q226 429 183 396T130 294H421Z" />
<glyph unicode="&#xeb;" glyph-name="edieresis" horiz-adv-x="548" d="M240 598Q240 579 227 566T195 553Q176 553 164 566T151 598Q151 617 163 630T195 643Q214 643 227 630T240 598ZM405 598Q405 579 392 566T359 553Q340 553 328 566T315 598Q315 617 327
630T359 643Q378 643 391 630T405 598ZM128 227Q130 184 145 153T183 102T235 73T294 63Q336 63 366 76T418 104T450 133T463 146Q466 146 471 143L499 116Q504 109 504 105Q486 74 456 49Q430 28 390 11T289 -7Q238 -7 194 10T116 60T64 140T44 248Q44 309 64
355T117 434T192 482T279 499Q390 499 446 431T502 240Q502 227 489 227H128ZM421 294Q418 351 383 390T282 429Q226 429 183 396T130 294H421Z" />
<glyph unicode="&#xec;" glyph-name="igrave" horiz-adv-x="284" d="M50 0Q38 0 38 12V55Q38 67 50 67H106V425H50Q38 425 38 437V480Q38 492 50 492H176Q189 492 189 480V67H242Q254 67 254 55V12Q254 0 242 0H50ZM149 570Q144 564 139 564Q136 564 130 568L-38
702Q-43 707 -43 712Q-43 716 -40 721L-8 758Q-3 763 2 763Q6 763 11 760L172 618Q177 614 177 608Q177 603 174 599L149 570Z" />
<glyph unicode="&#xed;" glyph-name="iacute" horiz-adv-x="284" d="M141 572Q136 569 133 569Q126 569 122 575L97 604Q93 610 93 613Q93 618 99 623L260 764Q264 768 269 768Q274 768 279 763L311 725Q314 720 314 716Q314 711 309 706L141 572ZM50 0Q38 0 38
12V55Q38 67 50 67H106V425H50Q38 425 38 437V480Q38 492 50 492H176Q189 492 189 480V67H242Q254 67 254 55V12Q254 0 242 0H50Z" />
<glyph unicode="&#xee;" glyph-name="icircumflex" horiz-adv-x="284" d="M283 575Q279 570 273 570Q268 570 264 573L141 678L18 573Q13 570 10 570Q3 570 -1 575L-25 604Q-29 610 -29 613Q-29 618 -23 623L132 759Q136 763 141 763Q147 763 151 758L306 623Q311
616 311 612Q311 607 308 604L283 575ZM49 0Q37 0 37 12V55Q37 67 49 67H105V425H49Q37 425 37 437V480Q37 492 49 492H175Q188 492 188 480V67H241Q253 67 253 55V12Q253 0 241 0H49Z" />
<glyph unicode="&#xef;" glyph-name="idieresis" horiz-adv-x="284" d="M110 598Q110 579 97 566T65 553Q46 553 34 566T21 598Q21 617 33 630T65 643Q84 643 97 630T110 598ZM275 598Q275 579 262 566T229 553Q210 553 198 566T185 598Q185 617 197 630T229 643Q248
643 261 630T275 598ZM50 0Q38 0 38 12V55Q38 67 50 67H106V425H50Q38 425 38 437V480Q38 492 50 492H176Q189 492 189 480V67H242Q254 67 254 55V12Q254 0 242 0H50Z" />
<glyph unicode="&#xf0;" glyph-name="eth" horiz-adv-x="618" d="M486 639Q528 590 549 518T570 353Q570 272 553 206T502 93T417 19T299 -7Q240 -7 193 11T113 61T63 136T45 231Q45 280 61 321T108 392T186 437T295 454Q332 454 361 449T414 437T454 421T482
405Q473 521 429 582L379 532Q374 527 369 527Q365 527 360 532L340 552Q336 555 336 561Q336 567 340 571L390 621Q370 635 345 643T290 651Q252 651 227 643T187 621T166 592T159 562Q159 550 147 550H93Q81 550 81 562Q81 597 96 627T138 678T203 712T289 724Q381
724 446 676L492 721Q495 725 501 725Q506 725 510 721L529 702Q533 696 533 692Q533 687 529 683L486 639ZM298 66Q389 66 435 136T484 337Q476 343 461 352T422 369T370 384T306 390Q264 390 232 378T176 345T141 293T129 228Q129 192 140 163T173 112T226 78T298
66Z" />
<glyph unicode="&#xf1;" glyph-name="ntilde" horiz-adv-x="605" d="M476 0Q453 0 443 9T432 42V305Q432 362 406 395T323 429Q285 429 260 416T219 386T197 356T190 342V67H243Q255 67 255 55V12Q255 0 243 0H51Q39 0 39 12V55Q39 67 51 67H107V425H51Q39 425
39 437V480Q39 492 51 492H169Q181 492 181 480L180 412H183Q187 419 198 434T227 463T274 488T344 499Q425 499 470 452T515 325V67H571Q584 67 584 55V12Q584 0 571 0H476ZM456 689Q468 689 468 677Q468 621 447 590T378 559Q350 559 332 566T299 583T271 599T240
607Q224 607 217 598T209 560Q209 548 197 548H160Q148 548 148 560Q148 612 170 641T237 670Q263 670 281 663T314 646T343 630T375 622Q392 622 399 633T407 677Q407 689 419 689H456Z" />
<glyph unicode="&#xf2;" glyph-name="ograve" horiz-adv-x="586" d="M293 -7Q240 -7 195 11T116 62T63 142T44 248Q44 307 63 353T116 432T195 482T293 499Q345 499 390 482T469 432T522 353T542 248Q542 189 523 142T471 62T393 11T293 -7ZM293 63Q327 63 357
76T409 113T445 171T458 247Q458 290 445 323T408 380T356 416T293 429Q261 429 231 417T178 381T142 324T128 247Q128 205 141 171T176 113T229 76T293 63ZM333 575Q328 569 323 569Q320 569 314 573L146 707Q141 712 141 717Q141 721 144 726L176 763Q181 768
186 768Q190 768 195 765L356 623Q361 619 361 613Q361 608 358 604L333 575Z" />
<glyph unicode="&#xf3;" glyph-name="oacute" horiz-adv-x="586" d="M267 572Q262 569 259 569Q252 569 248 575L223 604Q219 610 219 613Q219 618 225 623L386 764Q390 768 395 768Q400 768 405 763L437 725Q440 720 440 716Q440 711 435 706L267 572ZM293 -7Q240
-7 195 11T116 62T63 142T44 248Q44 307 63 353T116 432T195 482T293 499Q345 499 390 482T469 432T522 353T542 248Q542 189 523 142T471 62T393 11T293 -7ZM293 63Q327 63 357 76T409 113T445 171T458 247Q458 290 445 323T408 380T356 416T293 429Q261 429 231
417T178 381T142 324T128 247Q128 205 141 171T176 113T229 76T293 63Z" />
<glyph unicode="&#xf4;" glyph-name="ocircumflex" horiz-adv-x="586" d="M440 575Q436 570 430 570Q425 570 421 573L298 678L175 573Q170 570 167 570Q160 570 156 575L132 604Q128 610 128 613Q128 618 134 623L289 759Q293 763 298 763Q304 763 308 758L463
623Q468 616 468 612Q468 607 465 604L440 575ZM293 -7Q240 -7 195 11T116 62T63 142T44 248Q44 307 63 353T116 432T195 482T293 499Q345 499 390 482T469 432T522 353T542 248Q542 189 523 142T471 62T393 11T293 -7ZM293 63Q327 63 357 76T409 113T445 171T458
247Q458 290 445 323T408 380T356 416T293 429Q261 429 231 417T178 381T142 324T128 247Q128 205 141 171T176 113T229 76T293 63Z" />
<glyph unicode="&#xf5;" glyph-name="otilde" horiz-adv-x="586" d="M293 -7Q240 -7 195 11T116 62T63 142T44 248Q44 307 63 353T116 432T195 482T293 499Q345 499 390 482T469 432T522 353T542 248Q542 189 523 142T471 62T393 11T293 -7ZM293 63Q327 63 357
76T409 113T445 171T458 247Q458 290 445 323T408 380T356 416T293 429Q261 429 231 417T178 381T142 324T128 247Q128 205 141 171T176 113T229 76T293 63ZM448 689Q460 689 460 677Q460 621 439 590T370 559Q342 559 324 566T291 583T263 599T232 607Q216 607
209 598T201 560Q201 548 189 548H152Q140 548 140 560Q140 612 162 641T229 670Q255 670 273 663T306 646T335 630T367 622Q384 622 391 633T399 677Q399 689 411 689H448Z" />
<glyph unicode="&#xf6;" glyph-name="odieresis" horiz-adv-x="586" d="M258 598Q258 579 245 566T213 553Q194 553 182 566T169 598Q169 617 181 630T213 643Q232 643 245 630T258 598ZM423 598Q423 579 410 566T377 553Q358 553 346 566T333 598Q333 617 345
630T377 643Q396 643 409 630T423 598ZM293 -7Q240 -7 195 11T116 62T63 142T44 248Q44 307 63 353T116 432T195 482T293 499Q345 499 390 482T469 432T522 353T542 248Q542 189 523 142T471 62T393 11T293 -7ZM293 63Q327 63 357 76T409 113T445 171T458 247Q458
290 445 323T408 380T356 416T293 429Q261 429 231 417T178 381T142 324T128 247Q128 205 141 171T176 113T229 76T293 63Z" />
<glyph unicode="&#xf7;" glyph-name="divide" horiz-adv-x="469" d="M79 239Q65 239 65 253V303Q65 317 79 317H390Q403 317 403 303V253Q403 239 390 239H79ZM283 144Q283 124 270 111T236 97Q216 97 202 110T188 144Q188 164 202 178T236 192Q256 192 269 178T283
144ZM283 415Q283 395 270 382T236 368Q216 368 202 381T188 415Q188 435 202 449T236 463Q256 463 269 449T283 415Z" />
<glyph unicode="&#xf8;" glyph-name="oslash" horiz-adv-x="586" d="M293 -7Q269 -7 247 -4T204 7L192 -17Q186 -29 177 -29H150Q139 -29 139 -22Q139 -21 141 -17L162 26Q108 57 76 113T44 248Q44 307 63 353T116 432T195 482T293 499Q319 499 344 494T392 480L401
497Q406 510 418 510H445Q454 510 454 502Q454 499 453 497L434 460Q483 428 512 375T542 248Q542 189 523 142T471 62T393 11T293 -7ZM128 247Q128 195 146 156T197 94L359 415Q328 429 293 429Q261 429 231 417T178 381T142 324T128 247ZM293 63Q327 63 357 76T409
113T445 171T458 247Q458 295 442 331T398 390L238 72Q263 63 293 63Z" />
<glyph unicode="&#xf9;" glyph-name="ugrave" horiz-adv-x="594" d="M467 0Q445 0 435 9T424 42V79H421Q416 70 407 56T379 27T333 3T265 -7Q184 -7 138 40T91 167V425H34Q22 425 22 437V480Q22 492 34 492H130Q152 492 162 483T173 450V187Q173 130 200 97T283
63Q320 63 345 76T387 106T409 135T416 150V425H362Q350 425 350 437V480Q350 492 362 492H486Q498 492 498 480V67H554Q567 67 567 55V12Q567 0 554 0H467ZM328 575Q323 569 318 569Q315 569 309 573L141 707Q136 712 136 717Q136 721 139 726L171 763Q176 768
181 768Q185 768 190 765L351 623Q356 619 356 613Q356 608 353 604L328 575Z" />
<glyph unicode="&#xfa;" glyph-name="uacute" horiz-adv-x="594" d="M224 572Q219 569 216 569Q209 569 205 575L180 604Q176 610 176 613Q176 618 182 623L343 764Q347 768 352 768Q357 768 362 763L394 725Q397 720 397 716Q397 711 392 706L224 572ZM467 0Q445
0 435 9T424 42V79H421Q416 70 407 56T379 27T333 3T265 -7Q184 -7 138 40T91 167V425H34Q22 425 22 437V480Q22 492 34 492H130Q152 492 162 483T173 450V187Q173 130 200 97T283 63Q320 63 345 76T387 106T409 135T416 150V425H362Q350 425 350 437V480Q350 492
362 492H486Q498 492 498 480V67H554Q567 67 567 55V12Q567 0 554 0H467Z" />
<glyph unicode="&#xfb;" glyph-name="ucircumflex" horiz-adv-x="594" d="M424 575Q420 570 414 570Q409 570 405 573L282 678L159 573Q154 570 151 570Q144 570 140 575L116 604Q112 610 112 613Q112 618 118 623L273 759Q277 763 282 763Q288 763 292 758L447
623Q452 616 452 612Q452 607 449 604L424 575ZM467 0Q445 0 435 9T424 42V79H421Q416 70 407 56T379 27T333 3T265 -7Q184 -7 138 40T91 167V425H34Q22 425 22 437V480Q22 492 34 492H130Q152 492 162 483T173 450V187Q173 130 200 97T283 63Q320 63 345 76T387
106T409 135T416 150V425H362Q350 425 350 437V480Q350 492 362 492H486Q498 492 498 480V67H554Q567 67 567 55V12Q567 0 554 0H467Z" />
<glyph unicode="&#xfc;" glyph-name="udieresis" horiz-adv-x="594" d="M246 598Q246 579 233 566T201 553Q182 553 170 566T157 598Q157 617 169 630T201 643Q220 643 233 630T246 598ZM411 598Q411 579 398 566T365 553Q346 553 334 566T321 598Q321 617 333
630T365 643Q384 643 397 630T411 598ZM467 0Q445 0 435 9T424 42V79H421Q416 70 407 56T379 27T333 3T265 -7Q184 -7 138 40T91 167V425H34Q22 425 22 437V480Q22 492 34 492H130Q152 492 162 483T173 450V187Q173 130 200 97T283 63Q320 63 345 76T387 106T409
135T416 150V425H362Q350 425 350 437V480Q350 492 362 492H486Q498 492 498 480V67H554Q567 67 567 55V12Q567 0 554 0H467Z" />
<glyph unicode="&#xfd;" glyph-name="yacute" horiz-adv-x="579" d="M498 -19Q498 -75 480 -115T430 -182T355 -221T260 -234Q211 -234 176 -225T117 -203T82 -181T66 -168Q60 -162 60 -157Q60 -153 63 -150L89 -113Q92 -109 97 -109Q101 -109 106 -112Q110 -115
120 -123T148 -139T194 -155T259 -162Q292 -162 322 -155T374 -130T410 -85T423 -19V79H421Q416 70 407 56T379 27T332 3T264 -7Q183 -7 137 40T91 167L90 425H34Q22 425 22 437V480Q22 492 34 492H129Q152 492 162 483T173 450V187Q173 130 200 98T283 65Q320
65 345 78T386 106T408 135T415 150V425H362Q350 425 350 437V480Q350 492 362 492H486Q498 492 498 480V-19ZM224 572Q219 569 216 569Q209 569 205 575L180 604Q176 610 176 613Q176 618 182 623L343 764Q347 768 352 768Q357 768 362 763L394 725Q397 720 397
716Q397 711 392 706L224 572Z" />
<glyph unicode="&#xfe;" glyph-name="thorn" horiz-adv-x="594" d="M26 -226Q13 -226 13 -213V-171Q13 -158 26 -158H82V650H28Q15 650 15 662V705Q15 717 28 717H152Q165 717 165 705V407Q185 447 225 473T325 499Q374 499 415 482T487 431T533 352T550 247Q550
191 534 145T489 65T418 12T325 -7Q292 -7 265 1T218 24T184 55T162 91H160Q160 84 161 78Q161 73 161 67T162 55V-158H227Q240 -158 240 -171V-213Q240 -226 227 -226H26ZM313 63Q346 63 374 76T423 113T456 170T468 245Q468 288 456 322T423 380T374 416T313
429Q281 429 254 417T206 382T173 324T161 246Q161 203 173 169T205 112T253 76T313 63Z" />
<glyph unicode="&#xff;" glyph-name="ydieresis" horiz-adv-x="579" d="M498 -19Q498 -75 480 -115T430 -182T355 -221T260 -234Q211 -234 176 -225T117 -203T82 -181T66 -168Q60 -162 60 -157Q60 -153 63 -150L89 -113Q92 -109 97 -109Q101 -109 106 -112Q110
-115 120 -123T148 -139T194 -155T259 -162Q292 -162 322 -155T374 -130T410 -85T423 -19V79H421Q416 70 407 56T379 27T332 3T264 -7Q183 -7 137 40T91 167L90 425H34Q22 425 22 437V480Q22 492 34 492H129Q152 492 162 483T173 450V187Q173 130 200 98T283 65Q320
65 345 78T386 106T408 135T415 150V425H362Q350 425 350 437V480Q350 492 362 492H486Q498 492 498 480V-19ZM246 598Q246 579 233 566T201 553Q182 553 170 566T157 598Q157 617 169 630T201 643Q220 643 233 630T246 598ZM411 598Q411 579 398 566T365 553Q346
553 334 566T321 598Q321 617 333 630T365 643Q384 643 397 630T411 598Z" />
<glyph unicode="&#x100;" glyph-name="Amacron" horiz-adv-x="719" d="M499 0Q486 0 486 12V61Q486 73 499 73H568L505 243H222L159 73H229Q242 73 242 61V12Q242 0 229 0H6Q-6 0 -6 12V61Q-6 73 6 73H74L289 645H234Q221 645 221 657V706Q221 718 234 718H368Q392
718 405 708T427 675L655 73H722Q735 73 735 61V12Q735 0 722 0H499ZM366 617H359L250 316H478L366 617ZM211 780Q198 780 198 793V835Q198 849 211 849H507Q520 849 520 835V793Q520 780 507 780H211Z" />
<glyph unicode="&#x101;" glyph-name="amacron" horiz-adv-x="556" d="M441 0Q419 0 409 9T398 42V93H396Q389 84 375 67T338 34T280 5T201 -7Q166 -7 136 2T84 29T50 72T37 131Q37 174 56 204T111 253T196 280T305 289H389V302Q389 373 353 401T259 429Q219 429
191 422T145 405T118 389T108 381Q106 380 102 380Q96 380 93 384L65 419Q62 422 62 426Q62 431 67 435Q69 437 80 447T115 469T175 490T262 499Q310 499 349 489T415 454T457 392T472 299V67H528Q540 67 540 55V12Q540 0 528 0H441ZM389 222H309Q271 222 237 219T178
207T138 183T123 142Q123 108 150 86T224 64Q256 64 282 73T329 97T365 126T389 154V222ZM126 554Q113 554 113 567V609Q113 623 126 623H422Q435 623 435 609V567Q435 554 422 554H126Z" />
<glyph unicode="&#x102;" glyph-name="Abreve" horiz-adv-x="719" d="M499 0Q486 0 486 12V61Q486 73 499 73H568L505 243H222L159 73H229Q242 73 242 61V12Q242 0 229 0H6Q-6 0 -6 12V61Q-6 73 6 73H74L289 645H234Q221 645 221 657V706Q221 718 234 718H368Q392
718 405 708T427 675L655 73H722Q735 73 735 61V12Q735 0 722 0H499ZM366 617H359L250 316H478L366 617ZM486 941Q499 941 499 928Q499 859 459 824T358 789Q298 789 259 824T219 928Q219 941 232 941H274Q287 941 287 928Q287 890 308 870T358 850Q387 850 409
870T431 928Q431 941 444 941H486Z" />
<glyph unicode="&#x103;" glyph-name="abreve" horiz-adv-x="556" d="M441 0Q419 0 409 9T398 42V93H396Q389 84 375 67T338 34T280 5T201 -7Q166 -7 136 2T84 29T50 72T37 131Q37 174 56 204T111 253T196 280T305 289H389V302Q389 373 353 401T259 429Q219 429
191 422T145 405T118 389T108 381Q106 380 102 380Q96 380 93 384L65 419Q62 422 62 426Q62 431 67 435Q69 437 80 447T115 469T175 490T262 499Q310 499 349 489T415 454T457 392T472 299V67H528Q540 67 540 55V12Q540 0 528 0H441ZM389 222H309Q271 222 237 219T178
207T138 183T123 142Q123 108 150 86T224 64Q256 64 282 73T329 97T365 126T389 154V222ZM408 715Q421 715 421 702Q421 633 381 598T280 563Q220 563 181 598T141 702Q141 715 154 715H196Q209 715 209 702Q209 664 230 644T280 624Q309 624 331 644T353 702Q353
715 366 715H408Z" />
<glyph unicode="&#x104;" glyph-name="Aogonek" horiz-adv-x="719" d="M731 -120Q733 -126 733 -127Q733 -134 727 -137Q722 -140 703 -150T654 -161Q618 -161 597 -141T575 -88Q575 -68 583 -53T602 -28T626 -10T648 0H499Q486 0 486 12V61Q486 73 499 73H568L505
243H222L159 73H229Q242 73 242 61V12Q242 0 229 0H6Q-6 0 -6 12V61Q-6 73 6 73H74L289 645H234Q221 645 221 657V706Q221 718 234 718H368Q392 718 405 708T427 675L655 73H722Q735 73 735 61V12Q735 0 722 0H705Q697 -4 686 -11T664 -27T645 -50T637 -79Q637
-93 645 -100T665 -108Q682 -108 692 -102T711 -95Q716 -95 719 -99L731 -120ZM366 617H359L250 316H478L366 617Z" />
<glyph unicode="&#x105;" glyph-name="aogonek" horiz-adv-x="556" d="M535 -120Q537 -126 537 -127Q537 -134 531 -137Q526 -140 507 -150T458 -161Q422 -161 401 -141T379 -88Q379 -68 387 -53T406 -28T430 -10T452 0H441Q419 0 409 9T398 42V93H396Q389 84
375 67T338 34T280 5T201 -7Q166 -7 136 2T84 29T50 72T37 131Q37 174 56 204T111 253T196 280T305 289H389V302Q389 373 353 401T259 429Q219 429 191 422T145 405T118 389T108 381Q106 380 102 380Q96 380 93 384L65 419Q62 422 62 426Q62 431 67 435Q69 437
80 447T115 469T175 490T262 499Q310 499 349 489T415 454T457 392T472 299V67H528Q540 67 540 55V12Q540 0 528 0H509Q501 -4 490 -11T468 -27T449 -50T441 -79Q441 -93 449 -100T469 -108Q486 -108 496 -102T515 -95Q520 -95 523 -99L535 -120ZM389 222H309Q271
222 237 219T178 207T138 183T123 142Q123 108 150 86T224 64Q256 64 282 73T329 97T365 126T389 154V222Z" />
<glyph unicode="&#x106;" glyph-name="Cacute" horiz-adv-x="748" d="M339 798Q334 795 331 795Q324 795 320 801L295 830Q291 836 291 839Q291 844 297 849L458 990Q462 994 467 994Q472 994 477 989L509 951Q512 946 512 942Q512 937 507 932L339 798ZM700 181Q705
177 705 171Q705 167 702 161Q696 149 677 122T621 66T528 15T391 -7Q320 -7 258 19T150 93T78 209T51 363Q51 448 78 515T152 629T260 699T387 724Q436 724 473 714T538 687T582 652T611 617L610 706Q610 718 622 718H677Q689 718 689 706V488Q689 475 677 475H616Q603
475 603 488V497Q603 517 588 543T545 591T478 629T391 645Q346 645 302 628T221 575T163 486T141 360Q141 288 163 234T222 144T303 90T396 72Q453 72 494 86T565 122T612 165T639 203Q643 212 650 212Q652 212 657 209L700 181Z" />
<glyph unicode="&#x107;" glyph-name="cacute" horiz-adv-x="554" d="M281 572Q276 569 273 569Q266 569 262 575L237 604Q233 610 233 613Q233 618 239 623L400 764Q404 768 409 768Q414 768 419 763L451 725Q454 720 454 716Q454 711 449 706L281 572ZM499 116Q505
110 505 105Q505 104 494 87T456 48T389 10T289 -7Q238 -7 194 10T116 60T64 140T44 248Q44 309 64 355T117 434T193 482T281 499Q315 499 341 492T386 473T419 449T440 425H441V480V482Q441 493 453 493H491Q503 493 503 480V310Q503 298 491 298H446Q433 298
433 310V327Q433 343 423 361T395 394T351 419T291 429Q263 429 234 418T181 383T142 326T127 247Q127 202 141 168T179 111T233 75T294 63Q326 63 353 72T400 93T434 119T453 141Q457 147 463 147Q466 147 471 144L499 116Z" />
<glyph unicode="&#x108;" glyph-name="Ccircumflex" horiz-adv-x="748" d="M526 801Q522 796 516 796Q511 796 507 799L384 904L261 799Q256 796 253 796Q246 796 242 801L218 830Q214 836 214 839Q214 844 220 849L375 985Q379 989 384 989Q390 989 394 984L549
849Q554 842 554 838Q554 833 551 830L526 801ZM700 181Q705 177 705 171Q705 167 702 161Q696 149 677 122T621 66T528 15T391 -7Q320 -7 258 19T150 93T78 209T51 363Q51 448 78 515T152 629T260 699T387 724Q436 724 473 714T538 687T582 652T611 617L610 706Q610
718 622 718H677Q689 718 689 706V488Q689 475 677 475H616Q603 475 603 488V497Q603 517 588 543T545 591T478 629T391 645Q346 645 302 628T221 575T163 486T141 360Q141 288 163 234T222 144T303 90T396 72Q453 72 494 86T565 122T612 165T639 203Q643 212 650
212Q652 212 657 209L700 181Z" />
<glyph unicode="&#x109;" glyph-name="ccircumflex" horiz-adv-x="554" d="M428 575Q424 570 418 570Q413 570 409 573L286 678L163 573Q158 570 155 570Q148 570 144 575L120 604Q116 610 116 613Q116 618 122 623L277 759Q281 763 286 763Q292 763 296 758L451
623Q456 616 456 612Q456 607 453 604L428 575ZM499 116Q505 110 505 105Q505 104 494 87T456 48T389 10T289 -7Q238 -7 194 10T116 60T64 140T44 248Q44 309 64 355T117 434T193 482T281 499Q315 499 341 492T386 473T419 449T440 425H441V480V482Q441 493 453
493H491Q503 493 503 480V310Q503 298 491 298H446Q433 298 433 310V327Q433 343 423 361T395 394T351 419T291 429Q263 429 234 418T181 383T142 326T127 247Q127 202 141 168T179 111T233 75T294 63Q326 63 353 72T400 93T434 119T453 141Q457 147 463 147Q466
147 471 144L499 116Z" />
<glyph unicode="&#x10a;" glyph-name="Cdotaccent" horiz-adv-x="748" d="M700 181Q705 177 705 171Q705 167 702 161Q696 149 677 122T621 66T528 15T391 -7Q320 -7 258 19T150 93T78 209T51 363Q51 448 78 515T152 629T260 699T387 724Q436 724 473 714T538
687T582 652T611 617L610 706Q610 718 622 718H677Q689 718 689 706V488Q689 475 677 475H616Q603 475 603 488V497Q603 517 588 543T545 591T478 629T391 645Q346 645 302 628T221 575T163 486T141 360Q141 288 163 234T222 144T303 90T396 72Q453 72 494 86T565
122T612 165T639 203Q643 212 650 212Q652 212 657 209L700 181ZM453 844Q453 822 438 807T401 792Q379 792 364 807T349 844Q349 866 364 881T401 897Q423 897 438 882T453 844Z" />
<glyph unicode="&#x10b;" glyph-name="cdotaccent" horiz-adv-x="554" d="M499 116Q505 110 505 105Q505 104 494 87T456 48T389 10T289 -7Q238 -7 194 10T116 60T64 140T44 248Q44 309 64 355T117 434T193 482T281 499Q315 499 341 492T386 473T419 449T440 425H441V480V482Q441
493 453 493H491Q503 493 503 480V310Q503 298 491 298H446Q433 298 433 310V327Q433 343 423 361T395 394T351 419T291 429Q263 429 234 418T181 383T142 326T127 247Q127 202 141 168T179 111T233 75T294 63Q326 63 353 72T400 93T434 119T453 141Q457 147 463
147Q466 147 471 144L499 116ZM340 618Q340 596 325 581T288 566Q266 566 251 581T236 618Q236 640 251 655T288 671Q310 671 325 656T340 618Z" />
<glyph unicode="&#x10c;" glyph-name="Ccaron" horiz-adv-x="748" d="M395 804Q391 799 385 799Q380 799 376 803L221 939Q215 943 215 949Q215 952 219 958L243 986Q247 991 253 991Q257 991 262 988L385 883L508 988Q512 991 517 991Q523 991 527 986L552 958Q555
953 555 950Q555 944 550 939L395 804ZM700 181Q705 177 705 171Q705 167 702 161Q696 149 677 122T621 66T528 15T391 -7Q320 -7 258 19T150 93T78 209T51 363Q51 448 78 515T152 629T260 699T387 724Q436 724 473 714T538 687T582 652T611 617L610 706Q610 718
622 718H677Q689 718 689 706V488Q689 475 677 475H616Q603 475 603 488V497Q603 517 588 543T545 591T478 629T391 645Q346 645 302 628T221 575T163 486T141 360Q141 288 163 234T222 144T303 90T396 72Q453 72 494 86T565 122T612 165T639 203Q643 212 650 212Q652
212 657 209L700 181Z" />
<glyph unicode="&#x10d;" glyph-name="ccaron" horiz-adv-x="554" d="M306 578Q302 573 296 573Q291 573 287 577L132 713Q126 717 126 723Q126 726 130 732L154 760Q158 765 164 765Q168 765 173 762L296 657L419 762Q423 765 428 765Q434 765 438 760L463 732Q466
727 466 724Q466 718 461 713L306 578ZM499 116Q505 110 505 105Q505 104 494 87T456 48T389 10T289 -7Q238 -7 194 10T116 60T64 140T44 248Q44 309 64 355T117 434T193 482T281 499Q315 499 341 492T386 473T419 449T440 425H441V480V482Q441 493 453 493H491Q503
493 503 480V310Q503 298 491 298H446Q433 298 433 310V327Q433 343 423 361T395 394T351 419T291 429Q263 429 234 418T181 383T142 326T127 247Q127 202 141 168T179 111T233 75T294 63Q326 63 353 72T400 93T434 119T453 141Q457 147 463 147Q466 147 471 144L499
116Z" />
<glyph unicode="&#x10e;" glyph-name="Dcaron" horiz-adv-x="739" d="M367 804Q363 799 357 799Q352 799 348 803L193 939Q187 943 187 949Q187 952 191 958L215 986Q219 991 225 991Q229 991 234 988L357 883L480 988Q484 991 489 991Q495 991 499 986L524 958Q527
953 527 950Q527 944 522 939L367 804ZM58 0Q46 0 46 12V61Q46 73 58 73H135V645H58Q46 645 46 657V706Q46 718 58 718H326Q408 718 475 694T589 623T662 511T688 360Q688 276 664 209T595 96T487 25T344 0H58ZM320 73Q456 73 527 144T598 358Q598 425 581 478T528
568T440 625T317 645H220V73H320Z" />
<glyph unicode="&#x10f;" glyph-name="dcaron" horiz-adv-x="609" d="M561 584Q561 587 568 589T585 596T601 611T609 643Q609 646 609 648T608 652Q607 654 607 655Q606 653 603 652Q597 650 588 650Q571 650 558 662T545 696Q545 716 558 729T592 743Q618 743
632 724T647 670Q647 610 624 585T568 560Q561 560 561 565V584ZM481 0Q458 0 448 9T437 42V98H436Q429 80 415 61T379 27T331 3T269 -7Q219 -7 178 11T107 62T61 143T44 249Q44 304 60 350T106 429T177 480T270 499Q303 499 329 491T376 470T410 440T432 406H433Q432
411 432 416V434V651H376Q363 651 363 663V706Q363 718 376 718H503Q515 718 515 706V67H568Q580 67 580 55V12Q580 0 568 0H481ZM281 63Q313 63 341 76T389 113T421 171T433 247Q433 291 421 325T388 382T340 417T281 429Q249 429 221 417T171 381T138 324T126
248Q126 206 137 172T169 114T218 77T281 63Z" />
<glyph unicode="&#x110;" glyph-name="Dcroat" horiz-adv-x="739" d="M58 0Q46 0 46 12V61Q46 73 58 73H135V324H67Q53 324 53 337V379Q53 393 67 393H135V645H58Q46 645 46 657V706Q46 718 58 718H326Q408 718 475 694T589 623T662 511T688 360Q688 276 664 209T595
96T487 25T344 0H58ZM320 73Q457 73 528 144T599 358Q599 425 582 478T529 568T440 625T317 645H220V393H372Q385 393 385 379V337Q385 324 372 324H220V73H320Z" />
<glyph unicode="&#x111;" glyph-name="dcroat" horiz-adv-x="609" d="M481 0Q458 0 448 9T437 42V98H436Q429 80 415 61T379 27T331 3T269 -7Q219 -7 178 11T107 62T61 143T44 249Q44 304 60 350T106 429T177 480T270 499Q303 499 329 491T376 470T410 440T432
406H433Q432 411 432 416V434V555H304Q293 555 293 566V582Q293 593 304 593H432V651H376Q363 651 363 663V706Q363 718 376 718H503Q515 718 515 706V593H568Q579 593 579 582V566Q579 555 568 555H515V67H568Q580 67 580 55V12Q580 0 568 0H481ZM281 63Q313 63
341 76T389 113T421 171T433 247Q433 291 421 325T388 382T340 417T281 429Q249 429 221 417T171 381T138 324T126 248Q126 206 137 172T169 114T218 77T281 63Z" />
<glyph unicode="&#x112;" glyph-name="Emacron" horiz-adv-x="659" d="M58 0Q46 0 46 12V61Q46 73 58 73H135V645H58Q46 645 46 657V706Q46 718 58 718H591Q603 718 603 706V546Q603 534 591 534H534Q522 534 522 546V645H220V395H473Q486 395 486 383V334Q486
322 473 322H220V73H521V171Q521 183 534 183H591Q603 183 603 171V12Q603 0 591 0H58ZM166 780Q153 780 153 793V835Q153 849 166 849H462Q475 849 475 835V793Q475 780 462 780H166Z" />
<glyph unicode="&#x113;" glyph-name="emacron" horiz-adv-x="548" d="M128 227Q130 184 145 153T183 102T235 73T294 63Q336 63 366 76T418 104T450 133T463 146Q466 146 471 143L499 116Q504 109 504 105Q486 74 456 49Q430 28 390 11T289 -7Q238 -7 194 10T116
60T64 140T44 248Q44 309 64 355T117 434T192 482T279 499Q390 499 446 431T502 240Q502 227 489 227H128ZM421 294Q418 351 383 390T282 429Q226 429 183 396T130 294H421ZM127 554Q114 554 114 567V609Q114 623 127 623H423Q436 623 436 609V567Q436 554 423
554H127Z" />
<glyph unicode="&#x114;" glyph-name="Ebreve" horiz-adv-x="659" d="M58 0Q46 0 46 12V61Q46 73 58 73H135V645H58Q46 645 46 657V706Q46 718 58 718H591Q603 718 603 706V546Q603 534 591 534H534Q522 534 522 546V645H220V395H473Q486 395 486 383V334Q486
322 473 322H220V73H521V171Q521 183 534 183H591Q603 183 603 171V12Q603 0 591 0H58ZM440 941Q453 941 453 928Q453 859 413 824T312 789Q252 789 213 824T173 928Q173 941 186 941H228Q241 941 241 928Q241 890 262 870T312 850Q341 850 363 870T385 928Q385
941 398 941H440Z" />
<glyph unicode="&#x115;" glyph-name="ebreve" horiz-adv-x="548" d="M128 227Q130 184 145 153T183 102T235 73T294 63Q336 63 366 76T418 104T450 133T463 146Q466 146 471 143L499 116Q504 109 504 105Q486 74 456 49Q430 28 390 11T289 -7Q238 -7 194 10T116
60T64 140T44 248Q44 309 64 355T117 434T192 482T279 499Q390 499 446 431T502 240Q502 227 489 227H128ZM421 294Q418 351 383 390T282 429Q226 429 183 396T130 294H421ZM418 715Q431 715 431 702Q431 633 391 598T290 563Q230 563 191 598T151 702Q151 715
164 715H206Q219 715 219 702Q219 664 240 644T290 624Q319 624 341 644T363 702Q363 715 376 715H418Z" />
<glyph unicode="&#x116;" glyph-name="Edotaccent" horiz-adv-x="659" d="M58 0Q46 0 46 12V61Q46 73 58 73H135V645H58Q46 645 46 657V706Q46 718 58 718H591Q603 718 603 706V546Q603 534 591 534H534Q522 534 522 546V645H220V395H473Q486 395 486 383V334Q486
322 473 322H220V73H521V171Q521 183 534 183H591Q603 183 603 171V12Q603 0 591 0H58ZM364 844Q364 822 349 807T312 792Q290 792 275 807T260 844Q260 866 275 881T312 897Q334 897 349 882T364 844Z" />
<glyph unicode="&#x117;" glyph-name="edotaccent" horiz-adv-x="548" d="M128 227Q130 184 145 153T183 102T235 73T294 63Q336 63 366 76T418 104T450 133T463 146Q466 146 471 143L499 116Q504 109 504 105Q486 74 456 49Q430 28 390 11T289 -7Q238 -7 194
10T116 60T64 140T44 248Q44 309 64 355T117 434T192 482T279 499Q390 499 446 431T502 240Q502 227 489 227H128ZM421 294Q418 351 383 390T282 429Q226 429 183 396T130 294H421ZM333 618Q333 596 318 581T281 566Q259 566 244 581T229 618Q229 640 244 655T281
671Q303 671 318 656T333 618Z" />
<glyph unicode="&#x118;" glyph-name="Eogonek" horiz-adv-x="659" d="M570 0Q562 -4 551 -11T529 -27T510 -50T502 -79Q502 -93 510 -100T530 -108Q547 -108 557 -102T576 -95Q581 -95 584 -99L596 -120Q598 -126 598 -127Q598 -134 592 -137Q587 -140 568 -150T519
-161Q483 -161 462 -141T440 -88Q440 -68 448 -53T467 -28T491 -10T513 0H58Q46 0 46 12V61Q46 73 58 73H135V645H58Q46 645 46 657V706Q46 718 58 718H591Q603 718 603 706V546Q603 534 591 534H534Q522 534 522 546V645H220V395H473Q486 395 486 383V334Q486
322 473 322H220V73H521V171Q521 183 534 183H591Q603 183 603 171V12Q603 0 591 0H570Z" />
<glyph unicode="&#x119;" glyph-name="eogonek" horiz-adv-x="548" d="M128 227Q130 184 145 153T183 102T235 73T294 63Q336 63 366 76T418 104T450 133T463 146Q466 146 471 143L499 116Q504 109 504 105Q504 104 495 90T465 57T411 21T331 -4Q322 -9 312 -16T292
-32T277 -53T270 -79Q270 -93 278 -100T298 -108Q315 -108 325 -102T344 -95Q349 -95 352 -99L364 -120Q366 -126 366 -127Q366 -134 360 -137Q355 -140 336 -150T287 -161Q251 -161 230 -141T208 -88Q208 -71 213 -58T227 -35T246 -18T267 -6Q220 -3 180 16T109
67T62 145T44 248Q44 309 64 355T117 434T192 482T279 499Q390 499 446 431T502 240Q502 227 489 227H128ZM421 294Q418 351 383 390T282 429Q226 429 183 396T130 294H421Z" />
<glyph unicode="&#x11a;" glyph-name="Ecaron" horiz-adv-x="659" d="M329 804Q325 799 319 799Q314 799 310 803L155 939Q149 943 149 949Q149 952 153 958L177 986Q181 991 187 991Q191 991 196 988L319 883L442 988Q446 991 451 991Q457 991 461 986L486 958Q489
953 489 950Q489 944 484 939L329 804ZM58 0Q46 0 46 12V61Q46 73 58 73H135V645H58Q46 645 46 657V706Q46 718 58 718H591Q603 718 603 706V546Q603 534 591 534H534Q522 534 522 546V645H220V395H473Q486 395 486 383V334Q486 322 473 322H220V73H521V171Q521
183 534 183H591Q603 183 603 171V12Q603 0 591 0H58Z" />
<glyph unicode="&#x11b;" glyph-name="ecaron" horiz-adv-x="548" d="M289 578Q285 573 279 573Q274 573 270 577L115 713Q109 717 109 723Q109 726 113 732L137 760Q141 765 147 765Q151 765 156 762L279 657L402 762Q406 765 411 765Q417 765 421 760L446 732Q449
727 449 724Q449 718 444 713L289 578ZM128 227Q130 184 145 153T183 102T235 73T294 63Q336 63 366 76T418 104T450 133T463 146Q466 146 471 143L499 116Q504 109 504 105Q486 74 456 49Q430 28 390 11T289 -7Q238 -7 194 10T116 60T64 140T44 248Q44 309 64
355T117 434T192 482T279 499Q390 499 446 431T502 240Q502 227 489 227H128ZM421 294Q418 351 383 390T282 429Q226 429 183 396T130 294H421Z" />
<glyph unicode="&#x11c;" glyph-name="Gcircumflex" horiz-adv-x="769" d="M535 801Q531 796 525 796Q520 796 516 799L393 904L270 799Q265 796 262 796Q255 796 251 801L227 830Q223 836 223 839Q223 844 229 849L384 985Q388 989 393 989Q399 989 403 984L558
849Q563 842 563 838Q563 833 560 830L535 801ZM639 0Q627 0 627 12V81Q612 65 591 50T541 22T476 1T395 -7Q322 -7 259 19T150 93T78 209T51 363Q51 450 79 517T155 630T264 700T391 724Q440 724 476 715T539 692T583 661T611 629L610 706Q610 718 622 718H677Q689
718 689 706V500Q689 488 677 488H616Q603 488 603 500V512Q603 532 588 555T546 598T481 631T396 645Q347 645 301 626T220 569T163 479T141 360Q141 289 163 236T222 146T305 91T399 72Q444 72 479 81T542 104T588 136T620 169V256H433Q421 256 421 269V316Q421
329 433 329H691Q703 329 703 316V12Q703 0 691 0H639Z" />
<glyph unicode="&#x11d;" glyph-name="gcircumflex" horiz-adv-x="605" d="M444 575Q440 570 434 570Q429 570 425 573L302 678L179 573Q174 570 171 570Q164 570 160 575L136 604Q132 610 132 613Q132 618 138 623L293 759Q297 763 302 763Q308 763 312 758L467
623Q472 616 472 612Q472 607 469 604L444 575ZM274 -234Q224 -234 189 -225T131 -203T95 -181T80 -168Q74 -164 74 -157Q74 -153 77 -150L103 -113Q106 -109 111 -109Q115 -109 120 -112Q123 -115 133 -123T162 -141T207 -157T272 -164Q305 -164 334 -156T385
-131T419 -86T432 -19V95Q424 77 410 59T375 26T328 2T268 -7Q217 -7 176 12T105 64T60 144T44 247Q44 305 60 351T107 431T178 481T269 499Q303 499 330 491T377 468T412 437T435 401H437L436 480Q436 492 448 492H566Q578 492 578 480V437Q578 425 566 425H512V-19Q512
-75 494 -115T444 -182T369 -221T274 -234ZM280 63Q312 63 340 75T388 111T421 169T433 246Q433 290 421 324T388 381T339 417T280 429Q247 429 219 417T171 380T138 322T126 245Q126 204 137 171T170 113T219 76T280 63Z" />
<glyph unicode="&#x11e;" glyph-name="Gbreve" horiz-adv-x="769" d="M639 0Q627 0 627 12V81Q612 65 591 50T541 22T476 1T395 -7Q322 -7 259 19T150 93T78 209T51 363Q51 450 79 517T155 630T264 700T391 724Q440 724 476 715T539 692T583 661T611 629L610 706Q610
718 622 718H677Q689 718 689 706V500Q689 488 677 488H616Q603 488 603 500V512Q603 532 588 555T546 598T481 631T396 645Q347 645 301 626T220 569T163 479T141 360Q141 289 163 236T222 146T305 91T399 72Q444 72 479 81T542 104T588 136T620 169V256H433Q421
256 421 269V316Q421 329 433 329H691Q703 329 703 316V12Q703 0 691 0H639ZM527 941Q540 941 540 928Q540 859 500 824T399 789Q339 789 300 824T260 928Q260 941 273 941H315Q328 941 328 928Q328 890 349 870T399 850Q428 850 450 870T472 928Q472 941 485 941H527Z"
/>
<glyph unicode="&#x11f;" glyph-name="gbreve" horiz-adv-x="605" d="M274 -234Q224 -234 189 -225T131 -203T95 -181T80 -168Q74 -164 74 -157Q74 -153 77 -150L103 -113Q106 -109 111 -109Q115 -109 120 -112Q123 -115 133 -123T162 -141T207 -157T272 -164Q305
-164 334 -156T385 -131T419 -86T432 -19V95Q424 77 410 59T375 26T328 2T268 -7Q217 -7 176 12T105 64T60 144T44 247Q44 305 60 351T107 431T178 481T269 499Q303 499 330 491T377 468T412 437T435 401H437L436 480Q436 492 448 492H566Q578 492 578 480V437Q578
425 566 425H512V-19Q512 -75 494 -115T444 -182T369 -221T274 -234ZM280 63Q312 63 340 75T388 111T421 169T433 246Q433 290 421 324T388 381T339 417T280 429Q247 429 219 417T171 380T138 322T126 245Q126 204 137 171T170 113T219 76T280 63ZM431 715Q444
715 444 702Q444 633 404 598T303 563Q243 563 204 598T164 702Q164 715 177 715H219Q232 715 232 702Q232 664 253 644T303 624Q332 624 354 644T376 702Q376 715 389 715H431Z" />
<glyph unicode="&#x120;" glyph-name="Gdotaccent" horiz-adv-x="769" d="M639 0Q627 0 627 12V81Q612 65 591 50T541 22T476 1T395 -7Q322 -7 259 19T150 93T78 209T51 363Q51 450 79 517T155 630T264 700T391 724Q440 724 476 715T539 692T583 661T611 629L610
706Q610 718 622 718H677Q689 718 689 706V500Q689 488 677 488H616Q603 488 603 500V512Q603 532 588 555T546 598T481 631T396 645Q347 645 301 626T220 569T163 479T141 360Q141 289 163 236T222 146T305 91T399 72Q444 72 479 81T542 104T588 136T620 169V256H433Q421
256 421 269V316Q421 329 433 329H691Q703 329 703 316V12Q703 0 691 0H639ZM444 844Q444 822 429 807T392 792Q370 792 355 807T340 844Q340 866 355 881T392 897Q414 897 429 882T444 844Z" />
<glyph unicode="&#x121;" glyph-name="gdotaccent" horiz-adv-x="605" d="M274 -234Q224 -234 189 -225T131 -203T95 -181T80 -168Q74 -164 74 -157Q74 -153 77 -150L103 -113Q106 -109 111 -109Q115 -109 120 -112Q123 -115 133 -123T162 -141T207 -157T272 -164Q305
-164 334 -156T385 -131T419 -86T432 -19V95Q424 77 410 59T375 26T328 2T268 -7Q217 -7 176 12T105 64T60 144T44 247Q44 305 60 351T107 431T178 481T269 499Q303 499 330 491T377 468T412 437T435 401H437L436 480Q436 492 448 492H566Q578 492 578 480V437Q578
425 566 425H512V-19Q512 -75 494 -115T444 -182T369 -221T274 -234ZM280 63Q312 63 340 75T388 111T421 169T433 246Q433 290 421 324T388 381T339 417T280 429Q247 429 219 417T171 380T138 322T126 245Q126 204 137 171T170 113T219 76T280 63ZM358 618Q358
596 343 581T306 566Q284 566 269 581T254 618Q254 640 269 655T306 671Q328 671 343 656T358 618Z" />
<glyph unicode="&#x122;" glyph-name="Gcommaaccent" horiz-adv-x="769" d="M361 -205Q361 -202 368 -200T385 -193T401 -178T409 -146Q409 -143 409 -142T408 -138Q407 -136 407 -135Q406 -137 403 -138Q397 -140 388 -140Q371 -140 358 -127T345 -93Q345 -73
358 -60T392 -46Q418 -46 432 -65T447 -119Q447 -179 424 -204T368 -230Q361 -230 361 -224V-205ZM639 0Q627 0 627 12V81Q612 65 591 50T541 22T476 1T395 -7Q322 -7 259 19T150 93T78 209T51 363Q51 450 79 517T155 630T264 700T391 724Q440 724 476 715T539
692T583 661T611 629L610 706Q610 718 622 718H677Q689 718 689 706V500Q689 488 677 488H616Q603 488 603 500V512Q603 532 588 555T546 598T481 631T396 645Q347 645 301 626T220 569T163 479T141 360Q141 289 163 236T222 146T305 91T399 72Q444 72 479 81T542
104T588 136T620 169V256H433Q421 256 421 269V316Q421 329 433 329H691Q703 329 703 316V12Q703 0 691 0H639Z" />
<glyph unicode="&#x123;" glyph-name="gcommaaccent" horiz-adv-x="605" d="M274 -234Q224 -234 189 -225T131 -203T95 -181T80 -168Q74 -164 74 -157Q74 -153 77 -150L103 -113Q106 -109 111 -109Q115 -109 120 -112Q123 -115 133 -123T162 -141T207 -157T272
-164Q305 -164 334 -156T385 -131T419 -86T432 -19V95Q424 77 410 59T375 26T328 2T268 -7Q217 -7 176 12T105 64T60 144T44 247Q44 305 60 351T107 431T178 481T269 499Q303 499 330 491T377 468T412 437T435 401H437L436 480Q436 492 448 492H566Q578 492 578
480V437Q578 425 566 425H512V-19Q512 -75 494 -115T444 -182T369 -221T274 -234ZM280 63Q312 63 340 75T388 111T421 169T433 246Q433 290 421 324T388 381T339 417T280 429Q247 429 219 417T171 380T138 322T126 245Q126 204 137 171T170 113T219 76T280 63ZM327
692Q327 689 320 687T303 680T287 665T279 633Q279 626 280 624Q280 622 281 621Q283 622 286 623Q288 624 291 625T300 626Q318 626 331 614T344 580Q344 560 330 547T296 533Q270 533 256 552T241 606Q241 666 264 691T320 716Q327 716 327 711V692Z" />
<glyph unicode="&#x124;" glyph-name="Hcircumflex" horiz-adv-x="814" d="M557 801Q553 796 547 796Q542 796 538 799L415 904L292 799Q287 796 284 796Q277 796 273 801L249 830Q245 836 245 839Q245 844 251 849L406 985Q410 989 415 989Q421 989 425 984L580
849Q585 842 585 838Q585 833 582 830L557 801ZM517 0Q505 0 505 12V61Q505 73 517 73H594V322H220V73H297Q310 73 310 61V12Q310 0 297 0H58Q46 0 46 12V61Q46 73 58 73H135V645H58Q46 645 46 657V706Q46 718 58 718H297Q310 718 310 706V657Q310 645 297 645H220V395H594V645H517Q505
645 505 657V706Q505 718 517 718H756Q768 718 768 706V657Q768 645 756 645H679V73H756Q768 73 768 61V12Q768 0 756 0H517Z" />
<glyph unicode="&#x125;" glyph-name="hcircumflex" horiz-adv-x="593" d="M435 766Q431 761 425 761Q420 761 416 764L293 869L170 764Q165 761 162 761Q155 761 151 766L127 795Q123 801 123 804Q123 809 129 814L284 950Q288 954 293 954Q299 954 303 949L458
814Q463 807 463 803Q463 798 460 795L435 766ZM464 0Q441 0 431 9T420 42V305Q420 362 394 394T311 427Q272 427 247 414T206 384T185 354T178 341V67H231Q243 67 243 55V12Q243 0 231 0H39Q27 0 27 12V55Q27 67 39 67H95V651H39Q27 651 27 663V706Q27 718 39
718H166Q178 718 178 706V483Q178 477 178 468T177 450T175 433T174 422H176Q183 432 195 445T225 471T270 491T331 499Q412 499 457 452T503 325V67H559Q572 67 572 55V12Q572 0 559 0H464Z" />
<glyph unicode="&#x126;" glyph-name="Hbar" horiz-adv-x="814" d="M517 0Q505 0 505 12V61Q505 73 517 73H594V322H220V73H297Q310 73 310 61V12Q310 0 297 0H58Q46 0 46 12V61Q46 73 58 73H135V491H73Q62 491 62 502V526Q62 537 73 537H135V645H58Q46 645 46
657V706Q46 718 58 718H297Q310 718 310 706V657Q310 645 297 645H220V537H594V645H517Q505 645 505 657V706Q505 718 517 718H756Q768 718 768 706V657Q768 645 756 645H679V537H726Q737 537 737 526V502Q737 491 726 491H679V73H756Q768 73 768 61V12Q768 0 756
0H517ZM594 491H220V395H594V491Z" />
<glyph unicode="&#x127;" glyph-name="hbar" horiz-adv-x="593" d="M464 0Q441 0 431 9T420 42V305Q420 362 394 394T311 427Q272 427 247 414T206 384T185 354T178 341V67H231Q243 67 243 55V12Q243 0 231 0H39Q27 0 27 12V55Q27 67 39 67H95V559H37Q26 559 26
570V586Q26 597 37 597H95V651H39Q27 651 27 663V706Q27 718 39 718H166Q178 718 178 706V597H301Q312 597 312 586V570Q312 559 301 559H178V483Q178 477 178 468T177 449T175 433T174 422H176Q183 432 195 445T225 471T270 491T331 499Q412 499 456 452T502 325L503
67H559Q572 67 572 55V12Q572 0 559 0H464Z" />
<glyph unicode="&#x128;" glyph-name="Itilde" horiz-adv-x="356" d="M58 0Q46 0 46 12V61Q46 73 58 73H135V645H58Q46 645 46 657V706Q46 718 58 718H297Q310 718 310 706V657Q310 645 297 645H220V73H297Q310 73 310 61V12Q310 0 297 0H58ZM327 915Q339 915
339 903Q339 847 318 816T249 785Q221 785 203 792T170 809T142 825T111 833Q95 833 88 824T80 786Q80 774 68 774H31Q19 774 19 786Q19 838 41 867T108 896Q134 896 152 889T185 872T214 856T246 848Q263 848 270 859T278 903Q278 915 290 915H327Z" />
<glyph unicode="&#x129;" glyph-name="itilde" horiz-adv-x="284" d="M50 0Q38 0 38 12V55Q38 67 50 67H106V425H50Q38 425 38 437V480Q38 492 50 492H176Q189 492 189 480V67H242Q254 67 254 55V12Q254 0 242 0H50ZM278 689Q290 689 290 677Q290 621 269 590T200
559Q172 559 154 566T121 583T93 599T62 607Q46 607 39 598T31 560Q31 548 19 548H-18Q-30 548 -30 560Q-30 612 -8 641T59 670Q85 670 103 663T136 646T165 630T197 622Q214 622 221 633T229 677Q229 689 241 689H278Z" />
<glyph unicode="&#x12a;" glyph-name="Imacron" horiz-adv-x="356" d="M58 0Q46 0 46 12V61Q46 73 58 73H135V645H58Q46 645 46 657V706Q46 718 58 718H297Q310 718 310 706V657Q310 645 297 645H220V73H297Q310 73 310 61V12Q310 0 297 0H58ZM31 780Q18 780 18
793V835Q18 849 31 849H327Q340 849 340 835V793Q340 780 327 780H31Z" />
<glyph unicode="&#x12b;" glyph-name="imacron" horiz-adv-x="284" d="M50 0Q38 0 38 12V55Q38 67 50 67H106V425H50Q38 425 38 437V480Q38 492 50 492H176Q189 492 189 480V67H242Q254 67 254 55V12Q254 0 242 0H50ZM-15 554Q-28 554 -28 567V609Q-28 623 -15
623H281Q294 623 294 609V567Q294 554 281 554H-15Z" />
<glyph unicode="&#x12c;" glyph-name="Ibreve" horiz-adv-x="356" d="M58 0Q46 0 46 12V61Q46 73 58 73H135V645H58Q46 645 46 657V706Q46 718 58 718H297Q310 718 310 706V657Q310 645 297 645H220V73H297Q310 73 310 61V12Q310 0 297 0H58ZM308 941Q321 941
321 928Q321 859 281 824T180 789Q120 789 81 824T41 928Q41 941 54 941H96Q109 941 109 928Q109 890 130 870T180 850Q209 850 231 870T253 928Q253 941 266 941H308Z" />
<glyph unicode="&#x12d;" glyph-name="ibreve" horiz-adv-x="284" d="M50 0Q38 0 38 12V55Q38 67 50 67H106V425H50Q38 425 38 437V480Q38 492 50 492H176Q189 492 189 480V67H242Q254 67 254 55V12Q254 0 242 0H50ZM268 715Q281 715 281 702Q281 633 241 598T140
563Q80 563 41 598T1 702Q1 715 14 715H56Q69 715 69 702Q69 664 90 644T140 624Q169 624 191 644T213 702Q213 715 226 715H268Z" />
<glyph unicode="&#x12e;" glyph-name="Iogonek" horiz-adv-x="356" d="M307 -120Q309 -126 309 -127Q309 -134 303 -137Q298 -140 279 -150T230 -161Q194 -161 173 -141T151 -88Q151 -68 159 -53T178 -28T202 -10T224 0H58Q46 0 46 12V61Q46 73 58 73H135V645H58Q46
645 46 657V706Q46 718 58 718H297Q310 718 310 706V657Q310 645 297 645H220V73H297Q310 73 310 61V12Q310 0 297 0H281Q273 -4 262 -11T240 -27T221 -50T213 -79Q213 -93 221 -100T241 -108Q258 -108 268 -102T287 -95Q292 -95 295 -99L307 -120Z" />
<glyph unicode="&#x12f;" glyph-name="iogonek" horiz-adv-x="284" d="M228 -120Q230 -126 230 -127Q230 -134 224 -137Q219 -140 200 -150T151 -161Q115 -161 94 -141T72 -88Q72 -68 80 -53T99 -28T123 -10T145 0H50Q38 0 38 12V55Q38 67 50 67H106V425H50Q38
425 38 437V480Q38 492 50 492H176Q189 492 189 480V67H242Q254 67 254 55V12Q254 0 242 0H202Q194 -4 183 -11T161 -27T142 -50T134 -79Q134 -93 142 -100T162 -108Q179 -108 189 -102T208 -95Q213 -95 216 -99L228 -120ZM205 642Q205 618 188 601T146 584Q121
584 104 601T87 642Q87 667 104 684T146 702Q170 702 187 685T205 642Z" />
<glyph unicode="&#x130;" glyph-name="Idotaccent" horiz-adv-x="356" d="M58 0Q46 0 46 12V61Q46 73 58 73H135V645H58Q46 645 46 657V706Q46 718 58 718H297Q310 718 310 706V657Q310 645 297 645H220V73H297Q310 73 310 61V12Q310 0 297 0H58ZM232 844Q232
822 217 807T180 792Q158 792 143 807T128 844Q128 866 143 881T180 897Q202 897 217 882T232 844Z" />
<glyph unicode="&#x131;" glyph-name="dotlessi" horiz-adv-x="284" d="M50 0Q38 0 38 12V55Q38 67 50 67H106V425H50Q38 425 38 437V480Q38 492 50 492H176Q189 492 189 480V67H242Q254 67 254 55V12Q254 0 242 0H50Z" />
<glyph unicode="&#x134;" glyph-name="Jcircumflex" horiz-adv-x="445" d="M427 801Q423 796 417 796Q412 796 408 799L285 904L162 799Q157 796 154 796Q147 796 143 801L119 830Q115 836 115 839Q115 844 121 849L276 985Q280 989 285 989Q291 989 295 984L450
849Q455 842 455 838Q455 833 452 830L427 801ZM243 645H166Q154 645 154 657V706Q154 718 166 718H405Q418 718 418 706V657Q418 645 405 645H328V271Q328 196 311 145T258 61T169 14T44 0Q32 0 32 12V61Q32 73 44 73Q101 73 139 85T200 120T233 179T243 260V645Z"
/>
<glyph unicode="&#x135;" glyph-name="jcircumflex" horiz-adv-x="260" d="M96 425H40Q28 425 28 437V480Q28 492 40 492H167Q179 492 179 480V-64Q179 -149 136 -191T18 -234Q-4 -234 -21 -229T-50 -218T-71 -205T-82 -195Q-88 -191 -88 -185Q-88 -180 -84 -176L-62
-146Q-57 -141 -51 -141Q-48 -141 -45 -144T-34 -152T-17 -159T10 -163Q51 -163 73 -138T96 -63V425ZM270 575Q266 570 260 570Q255 570 251 573L128 678L5 573Q0 570 -3 570Q-10 570 -14 575L-38 604Q-42 610 -42 613Q-42 618 -36 623L119 759Q123 763 128 763Q134
763 138 758L293 623Q298 616 298 612Q298 607 295 604L270 575Z" />
<glyph unicode="&#x136;" glyph-name="Kcommaaccent" horiz-adv-x="732" d="M354 -205Q354 -202 361 -200T378 -193T394 -178T402 -146Q402 -143 402 -142T401 -138Q400 -136 400 -135Q399 -137 396 -138Q390 -140 381 -140Q364 -140 351 -127T338 -93Q338 -73
351 -60T385 -46Q411 -46 425 -65T440 -119Q440 -179 417 -204T361 -230Q354 -230 354 -224V-205ZM611 0Q588 0 576 12T552 48L457 239Q452 248 447 257T431 275T405 288T361 293H220V73H313Q325 73 325 61V12Q325 0 313 0H58Q46 0 46 12V61Q46 73 58 73H135V645H58Q46
645 46 657V706Q46 718 58 718H281Q293 718 293 706V657Q293 645 281 645H220V362H325Q375 362 414 375T479 421T520 507T535 645H466Q454 645 454 657V706Q454 718 466 718H687Q700 718 700 706V657Q700 645 687 645H619Q618 515 582 439T482 328Q508 315 521
295T549 248L635 73H696Q709 73 709 61V12Q709 0 696 0H611Z" />
<glyph unicode="&#x137;" glyph-name="kcommaaccent" horiz-adv-x="587" d="M262 -205Q262 -202 269 -200T286 -193T302 -178T310 -146Q310 -143 310 -142T309 -138Q308 -136 308 -135Q307 -137 304 -138Q298 -140 289 -140Q272 -140 259 -127T246 -93Q246 -73
259 -60T293 -46Q319 -46 333 -65T348 -119Q348 -179 325 -204T269 -230Q262 -230 262 -224V-205ZM498 0Q481 0 469 8T445 31L278 257L178 167V67H231Q243 67 243 55V12Q243 0 231 0H39Q27 0 27 12V55Q27 67 39 67H95V651H39Q27 651 27 663V706Q27 718 39 718H166Q178
718 178 706V258L360 425H324Q312 425 312 437V480Q312 492 324 492H516Q528 492 528 480V437Q528 425 516 425H465L336 309L515 67H559Q571 67 571 55V12Q571 0 559 0H498Z" />
<glyph unicode="&#x138;" glyph-name="kgreenlandic" horiz-adv-x="599" d="M348 309L527 67H571Q583 67 583 55V12Q583 0 571 0H510Q493 0 481 8T457 31L290 257L190 167V67H243Q255 67 255 55V12Q255 0 243 0H51Q39 0 39 12V55Q39 67 51 67H107V425H51Q39 425
39 437V480Q39 492 51 492H178Q190 492 190 480V258L372 425H336Q324 425 324 437V480Q324 492 336 492H528Q540 492 540 480V437Q540 425 528 425H477L348 309Z" />
<glyph unicode="&#x139;" glyph-name="Lacute" horiz-adv-x="639" d="M254 798Q249 795 246 795Q239 795 235 801L210 830Q206 836 206 839Q206 844 212 849L373 990Q377 994 382 994Q387 994 392 989L424 951Q427 946 427 942Q427 937 422 932L254 798ZM58 0Q46
0 46 12V61Q46 73 58 73H135V645H58Q46 645 46 657V706Q46 718 58 718H296Q310 718 310 705V658Q310 645 296 645H220V73H540V171Q540 183 552 183H609Q622 183 622 171V13Q622 0 608 0H58Z" />
<glyph unicode="&#x13a;" glyph-name="lacute" horiz-adv-x="282" d="M121 761Q116 758 113 758Q106 758 102 764L77 793Q73 799 73 802Q73 807 79 812L240 953Q244 957 249 957Q254 957 259 952L291 914Q294 909 294 905Q294 900 289 895L121 761ZM44 0Q31 0
31 12V55Q31 67 44 67H100V651H44Q31 651 31 663V706Q31 718 44 718H155Q170 718 176 712T182 693V67H235Q248 67 248 55V12Q248 0 235 0H44Z" />
<glyph unicode="&#x13b;" glyph-name="Lcommaaccent" horiz-adv-x="639" d="M280 -205Q280 -202 287 -200T304 -193T320 -178T328 -146Q328 -143 328 -142T327 -138Q326 -136 326 -135Q325 -137 322 -138Q316 -140 307 -140Q290 -140 277 -127T264 -93Q264 -73
277 -60T311 -46Q337 -46 351 -65T366 -119Q366 -179 343 -204T287 -230Q280 -230 280 -224V-205ZM58 0Q46 0 46 12V61Q46 73 58 73H135V645H58Q46 645 46 657V706Q46 718 58 718H296Q310 718 310 705V658Q310 645 296 645H220V73H540V171Q540 183 552 183H609Q622
183 622 171V13Q622 0 608 0H58Z" />
<glyph unicode="&#x13c;" glyph-name="lcommaaccent" horiz-adv-x="282" d="M109 -205Q109 -202 116 -200T133 -193T149 -178T157 -146Q157 -143 157 -142T156 -138Q155 -136 155 -135Q154 -137 151 -138Q145 -140 136 -140Q119 -140 106 -127T93 -93Q93 -73 106
-60T140 -46Q166 -46 180 -65T195 -119Q195 -179 172 -204T116 -230Q109 -230 109 -224V-205ZM44 0Q31 0 31 12V55Q31 67 44 67H100V651H44Q31 651 31 663V706Q31 718 44 718H155Q170 718 176 712T182 693V67H235Q248 67 248 55V12Q248 0 235 0H44Z" />
<glyph unicode="&#x13d;" glyph-name="Lcaron" horiz-adv-x="639" d="M344 557Q344 560 351 562T368 569T384 584T392 616Q392 619 392 621T391 625Q390 627 390 628Q389 626 386 625Q380 623 371 623Q354 623 341 635T328 669Q328 689 341 702T375 716Q401 716
415 697T430 643Q430 583 407 558T351 533Q344 533 344 538V557ZM58 0Q46 0 46 12V61Q46 73 58 73H135V645H58Q46 645 46 657V706Q46 718 58 718H296Q310 718 310 705V658Q310 645 296 645H220V73H540V171Q540 183 552 183H609Q622 183 622 171V13Q622 0 608 0H58Z"
/>
<glyph unicode="&#x13e;" glyph-name="lcaron" horiz-adv-x="282" d="M243 584Q243 587 250 589T267 596T283 611T291 643Q291 646 291 648T290 652Q289 654 289 655Q288 653 285 652Q279 650 270 650Q253 650 240 662T227 696Q227 716 240 729T274 743Q300 743
314 724T329 670Q329 610 306 585T250 560Q243 560 243 565V584ZM44 0Q31 0 31 12V55Q31 67 44 67H100V651H44Q31 651 31 663V706Q31 718 44 718H155Q170 718 176 712T182 693V67H235Q248 67 248 55V12Q248 0 235 0H44Z" />
<glyph unicode="&#x13f;" glyph-name="Ldot" horiz-adv-x="639" d="M58 0Q46 0 46 12V61Q46 73 58 73H135V645H58Q46 645 46 657V706Q46 718 58 718H296Q310 718 310 705V658Q310 645 296 645H220V73H540V171Q540 183 552 183H609Q622 183 622 171V13Q622 0 608
0H58ZM374 281Q374 259 359 244T322 229Q300 229 285 244T270 281Q270 303 285 318T322 334Q344 334 359 319T374 281Z" />
<glyph unicode="&#x140;" glyph-name="ldot" horiz-adv-x="322" d="M44 0Q31 0 31 12V55Q31 67 44 67H100V651H44Q31 651 31 663V706Q31 718 44 718H155Q170 718 176 712T182 693V67H235Q248 67 248 55V12Q248 0 235 0H44ZM343 363Q343 341 328 326T291 311Q269
311 254 326T239 363Q239 385 254 400T291 416Q313 416 328 401T343 363Z" />
<glyph unicode="&#x141;" glyph-name="Lslash" horiz-adv-x="641" d="M58 0Q46 0 46 12V61Q46 73 58 73H135V266L69 200Q64 195 59 195Q55 195 50 200L31 219Q26 222 26 228Q26 233 31 238L135 342V645H58Q46 645 46 657V706Q46 718 58 718H296Q310 718 310 705V658Q310
645 296 645H220V427L334 541Q340 545 343 545Q347 545 353 541L372 522Q376 518 376 512Q376 506 372 502L220 350V73H540V171Q540 183 552 183H609Q622 183 622 171V13Q622 0 608 0H58Z" />
<glyph unicode="&#x142;" glyph-name="lslash" horiz-adv-x="331" d="M84 0Q71 0 71 12V55Q71 67 84 67H140V289L50 200Q45 195 40 195Q36 195 31 200L13 218Q8 223 8 227Q8 232 13 237L140 364V651H84Q71 651 71 663V706Q71 718 84 718H195Q210 718 216 712T222
693V446L316 540Q320 544 325 544Q331 544 335 540L353 522Q357 518 357 512Q357 506 353 502L222 371V67H275Q288 67 288 55V12Q288 0 275 0H84Z" />
<glyph unicode="&#x143;" glyph-name="Nacute" horiz-adv-x="802" d="M348 798Q343 795 340 795Q333 795 329 801L304 830Q300 836 300 839Q300 844 306 849L467 990Q471 994 476 994Q481 994 486 989L518 951Q521 946 521 942Q521 937 516 932L348 798ZM615 0Q594
0 584 8T564 31L272 484Q261 501 252 517T236 547Q228 562 222 576H220V73H297Q310 73 310 61V12Q310 0 297 0H58Q46 0 46 12V61Q46 73 58 73H135V643H58Q46 643 46 655V706Q46 718 58 718H192Q214 718 225 708T244 684L533 238Q545 218 555 200T574 167Q583 149
590 134H592V645H515Q503 645 503 657V706Q503 718 515 718H754Q767 718 767 706V657Q767 645 754 645H677V12Q677 0 665 0H615Z" />
<glyph unicode="&#x144;" glyph-name="nacute" horiz-adv-x="605" d="M258 572Q253 569 250 569Q243 569 239 575L214 604Q210 610 210 613Q210 618 216 623L377 764Q381 768 386 768Q391 768 396 763L428 725Q431 720 431 716Q431 711 426 706L258 572ZM476 0Q453
0 443 9T432 42V305Q432 362 406 395T323 429Q285 429 260 416T219 386T197 356T190 342V67H243Q255 67 255 55V12Q255 0 243 0H51Q39 0 39 12V55Q39 67 51 67H107V425H51Q39 425 39 437V480Q39 492 51 492H169Q181 492 181 480L180 412H183Q187 419 198 434T227
463T274 488T344 499Q425 499 470 452T515 325V67H571Q584 67 584 55V12Q584 0 571 0H476Z" />
<glyph unicode="&#x145;" glyph-name="Ncommaaccent" horiz-adv-x="802" d="M375 -205Q375 -202 382 -200T399 -193T415 -178T423 -146Q423 -143 423 -142T422 -138Q421 -136 421 -135Q420 -137 417 -138Q411 -140 402 -140Q385 -140 372 -127T359 -93Q359 -73
372 -60T406 -46Q432 -46 446 -65T461 -119Q461 -179 438 -204T382 -230Q375 -230 375 -224V-205ZM615 0Q594 0 584 8T564 31L272 484Q261 501 252 517T236 547Q228 562 222 576H220V73H297Q310 73 310 61V12Q310 0 297 0H58Q46 0 46 12V61Q46 73 58 73H135V643H58Q46
643 46 655V706Q46 718 58 718H192Q214 718 225 708T244 684L533 238Q545 218 555 200T574 167Q583 149 590 134H592V645H515Q503 645 503 657V706Q503 718 515 718H754Q767 718 767 706V657Q767 645 754 645H677V12Q677 0 665 0H615Z" />
<glyph unicode="&#x146;" glyph-name="ncommaaccent" horiz-adv-x="605" d="M273 -205Q273 -202 280 -200T297 -193T313 -178T321 -146Q321 -143 321 -142T320 -138Q319 -136 319 -135Q318 -137 315 -138Q309 -140 300 -140Q283 -140 270 -127T257 -93Q257 -73
270 -60T304 -46Q330 -46 344 -65T359 -119Q359 -179 336 -204T280 -230Q273 -230 273 -224V-205ZM476 0Q453 0 443 9T432 42V305Q432 362 406 395T323 429Q285 429 260 416T219 386T197 356T190 342V67H243Q255 67 255 55V12Q255 0 243 0H51Q39 0 39 12V55Q39
67 51 67H107V425H51Q39 425 39 437V480Q39 492 51 492H169Q181 492 181 480L180 412H183Q187 419 198 434T227 463T274 488T344 499Q425 499 470 452T515 325V67H571Q584 67 584 55V12Q584 0 571 0H476Z" />
<glyph unicode="&#x147;" glyph-name="Ncaron" horiz-adv-x="802" d="M419 804Q415 799 409 799Q404 799 400 803L245 939Q239 943 239 949Q239 952 243 958L267 986Q271 991 277 991Q281 991 286 988L409 883L532 988Q536 991 541 991Q547 991 551 986L576 958Q579
953 579 950Q579 944 574 939L419 804ZM615 0Q594 0 584 8T564 31L272 484Q261 501 252 517T236 547Q228 562 222 576H220V73H297Q310 73 310 61V12Q310 0 297 0H58Q46 0 46 12V61Q46 73 58 73H135V643H58Q46 643 46 655V706Q46 718 58 718H192Q214 718 225 708T244
684L533 238Q545 218 555 200T574 167Q583 149 590 134H592V645H515Q503 645 503 657V706Q503 718 515 718H754Q767 718 767 706V657Q767 645 754 645H677V12Q677 0 665 0H615Z" />
<glyph unicode="&#x148;" glyph-name="ncaron" horiz-adv-x="605" d="M317 578Q313 573 307 573Q302 573 298 577L143 713Q137 717 137 723Q137 726 141 732L165 760Q169 765 175 765Q179 765 184 762L307 657L430 762Q434 765 439 765Q445 765 449 760L474 732Q477
727 477 724Q477 718 472 713L317 578ZM476 0Q453 0 443 9T432 42V305Q432 362 406 395T323 429Q285 429 260 416T219 386T197 356T190 342V67H243Q255 67 255 55V12Q255 0 243 0H51Q39 0 39 12V55Q39 67 51 67H107V425H51Q39 425 39 437V480Q39 492 51 492H169Q181
492 181 480L180 412H183Q187 419 198 434T227 463T274 488T344 499Q425 499 470 452T515 325V67H571Q584 67 584 55V12Q584 0 571 0H476Z" />
<glyph unicode="&#x149;" glyph-name="napostrophe" horiz-adv-x="605" d="M4 575Q4 578 11 580T28 587T44 602T52 634Q52 637 52 638T51 642Q50 644 50 645Q49 643 46 642Q40 640 31 640Q14 640 1 653T-12 687Q-12 707 1 720T35 734Q61 734 75 715T90 661Q90
601 67 576T11 550Q4 550 4 556V575ZM476 0Q453 0 443 9T432 42V305Q432 362 406 395T323 429Q285 429 260 416T219 386T197 356T190 342V67H243Q255 67 255 55V12Q255 0 243 0H51Q39 0 39 12V55Q39 67 51 67H107V425H51Q39 425 39 437V480Q39 492 51 492H169Q181
492 181 480L180 412H183Q187 419 198 434T227 463T274 488T344 499Q425 499 470 452T515 325V67H571Q584 67 584 55V12Q584 0 571 0H476Z" />
<glyph unicode="&#x14a;" glyph-name="Eng" horiz-adv-x="802" d="M392 -158Q448 -158 486 -149T547 -120T580 -71T590 -1V4Q580 8 575 15T564 31L272 484Q261 501 252 517T236 547Q228 562 222 576H220V73H297Q310 73 310 61V12Q310 0 297 0H58Q46 0 46 12V61Q46
73 58 73H135V643H58Q46 643 46 655V706Q46 718 58 718H192Q214 718 225 708T244 684L533 238Q545 218 555 200T574 167Q583 149 590 134H592V645H515Q503 645 503 657V706Q503 718 515 718H754Q767 718 767 706V657Q767 645 754 645H677V9Q676 -51 660 -96T610
-171T522 -216T392 -232Q379 -232 379 -219V-170Q379 -158 392 -158Z" />
<glyph unicode="&#x14b;" glyph-name="eng" horiz-adv-x="590" d="M515 -64Q515 -149 472 -191T354 -234Q332 -234 315 -229T286 -218T265 -205T254 -195Q248 -191 248 -185Q248 -180 252 -176L274 -146Q279 -141 285 -141Q288 -141 291 -144T302 -152T319 -159T347
-163Q387 -163 409 -138T432 -63V305Q432 362 406 395T323 429Q285 429 260 416T219 386T197 356T190 342V67H243Q255 67 255 55V12Q255 0 243 0H51Q39 0 39 12V55Q39 67 51 67H107V425H51Q39 425 39 437V480Q39 492 51 492H169Q181 492 181 480L180 412H183Q187
419 198 434T227 463T274 488T344 499Q425 499 470 452T515 325V-64Z" />
<glyph unicode="&#x14c;" glyph-name="Omacron" horiz-adv-x="795" d="M252 780Q239 780 239 793V835Q239 849 252 849H548Q561 849 561 835V793Q561 780 548 780H252ZM398 -7Q324 -7 261 20T151 95T77 212T50 363Q50 448 79 515T156 629T267 699T398 724Q466
724 529 700T640 629T717 516T746 363Q746 279 720 211T646 94T536 20T398 -7ZM398 72Q446 72 492 90T574 145T633 235T656 360Q656 432 633 485T572 574T489 627T398 645Q353 645 307 628T224 575T164 486T140 360Q140 289 162 236T221 146T304 91T398 72Z" />
<glyph unicode="&#x14d;" glyph-name="omacron" horiz-adv-x="586" d="M145 554Q132 554 132 567V609Q132 623 145 623H441Q454 623 454 609V567Q454 554 441 554H145ZM293 -7Q240 -7 195 11T116 62T63 142T44 248Q44 307 63 353T116 432T195 482T293 499Q345
499 390 482T469 432T522 353T542 248Q542 189 523 142T471 62T393 11T293 -7ZM293 63Q327 63 357 76T409 113T445 171T458 247Q458 290 445 323T408 380T356 416T293 429Q261 429 231 417T178 381T142 324T128 247Q128 205 141 171T176 113T229 76T293 63Z" />
<glyph unicode="&#x14e;" glyph-name="Obreve" horiz-adv-x="795" d="M398 -7Q324 -7 261 20T151 95T77 212T50 363Q50 448 79 515T156 629T267 699T398 724Q466 724 529 700T640 629T717 516T746 363Q746 279 720 211T646 94T536 20T398 -7ZM398 72Q446 72 492
90T574 145T633 235T656 360Q656 432 633 485T572 574T489 627T398 645Q353 645 307 628T224 575T164 486T140 360Q140 289 162 236T221 146T304 91T398 72ZM529 941Q542 941 542 928Q542 859 502 824T401 789Q341 789 302 824T262 928Q262 941 275 941H317Q330
941 330 928Q330 890 351 870T401 850Q430 850 452 870T474 928Q474 941 487 941H529Z" />
<glyph unicode="&#x14f;" glyph-name="obreve" horiz-adv-x="586" d="M293 -7Q240 -7 195 11T116 62T63 142T44 248Q44 307 63 353T116 432T195 482T293 499Q345 499 390 482T469 432T522 353T542 248Q542 189 523 142T471 62T393 11T293 -7ZM293 63Q327 63 357
76T409 113T445 171T458 247Q458 290 445 323T408 380T356 416T293 429Q261 429 231 417T178 381T142 324T128 247Q128 205 141 171T176 113T229 76T293 63ZM424 715Q437 715 437 702Q437 633 397 598T296 563Q236 563 197 598T157 702Q157 715 170 715H212Q225
715 225 702Q225 664 246 644T296 624Q325 624 347 644T369 702Q369 715 382 715H424Z" />
<glyph unicode="&#x150;" glyph-name="Ohungarumlaut" horiz-adv-x="795" d="M311 807Q306 804 303 804Q296 804 292 810L267 839Q263 845 263 848Q263 853 269 858L430 999Q434 1003 439 1003Q444 1003 449 998L481 960Q484 955 484 951Q484 946 479 941L311
807ZM484 807Q479 804 475 804Q468 804 464 810L440 839Q436 843 436 848Q436 853 442 858L602 999Q606 1003 611 1003Q617 1003 622 998L653 960Q656 955 656 951Q656 945 652 941L484 807ZM398 -7Q324 -7 261 20T151 95T77 212T50 363Q50 448 79 515T156 629T267
699T398 724Q466 724 529 700T640 629T717 516T746 363Q746 279 720 211T646 94T536 20T398 -7ZM398 72Q446 72 492 90T574 145T633 235T656 360Q656 432 633 485T572 574T489 627T398 645Q353 645 307 628T224 575T164 486T140 360Q140 289 162 236T221 146T304
91T398 72Z" />
<glyph unicode="&#x151;" glyph-name="ohungarumlaut" horiz-adv-x="586" d="M160 581Q155 578 152 578Q145 578 141 584L116 613Q112 619 112 622Q112 627 118 632L279 773Q283 777 288 777Q293 777 298 772L330 734Q333 729 333 725Q333 720 328 715L160 581ZM333
581Q328 578 324 578Q317 578 313 584L289 613Q285 617 285 622Q285 627 291 632L451 773Q455 777 460 777Q466 777 471 772L502 734Q505 729 505 725Q505 719 501 715L333 581ZM293 -7Q240 -7 195 11T116 62T63 142T44 248Q44 307 63 353T116 432T195 482T293
499Q345 499 390 482T469 432T522 353T542 248Q542 189 523 142T471 62T393 11T293 -7ZM293 63Q327 63 357 76T409 113T445 171T458 247Q458 290 445 323T408 380T356 416T293 429Q261 429 231 417T178 381T142 324T128 247Q128 205 141 171T176 113T229 76T293
63Z" />
<glyph unicode="&#x152;" glyph-name="OE" horiz-adv-x="919" d="M395 0Q322 0 259 26T150 99T77 214T50 363Q50 447 78 513T154 624T264 694T394 718H850Q863 718 863 706V546Q863 534 850 534H795Q782 534 782 546V645H481V395H734Q746 395 746 383V334Q746
322 734 322H481V73H782V171Q782 183 794 183H850Q863 183 863 171V12Q863 0 850 0H395ZM394 640Q349 639 304 622T223 570T165 483T142 360Q142 290 163 238T220 151T301 98T394 79V640Z" />
<glyph unicode="&#x153;" glyph-name="oe" horiz-adv-x="964" d="M544 227Q546 184 561 153T599 102T651 73T710 63Q752 63 782 76T834 104T866 133T879 146Q882 146 887 143L915 116Q920 109 920 105Q902 74 872 49Q846 28 806 11T705 -7Q641 -7 588 20T501 99Q468
48 414 21T293 -7Q240 -7 195 11T116 62T63 142T44 248Q44 307 63 353T116 432T195 482T293 499Q359 499 413 472T500 395Q533 446 585 472T695 499Q806 499 862 431T918 240Q918 227 905 227H544ZM293 63Q327 63 357 76T409 113T445 171T458 247Q458 290 445 323T408
380T356 416T293 429Q261 429 231 417T178 381T142 324T128 247Q128 205 141 171T176 113T229 76T293 63ZM837 294Q834 351 799 390T698 429Q642 429 599 396T546 294H837Z" />
<glyph unicode="&#x154;" glyph-name="Racute" horiz-adv-x="694" d="M272 798Q267 795 264 795Q257 795 253 801L228 830Q224 836 224 839Q224 844 230 849L391 990Q395 994 400 994Q405 994 410 989L442 951Q445 946 445 942Q445 937 440 932L272 798ZM566 0Q544
0 531 12T506 48L412 239Q401 262 388 276T349 291H220V73H312Q324 73 324 61V12Q324 0 312 0H58Q46 0 46 12V61Q46 73 58 73H135V645H58Q46 645 46 657V706Q46 718 58 718H367Q418 718 462 704T539 663T589 596T608 502Q608 424 571 375T461 306Q484 288 508 239L592
73H652Q665 73 665 61V12Q665 0 652 0H566ZM345 360Q384 360 416 367T470 390T505 433T518 499Q518 541 504 569T467 614T412 638T345 645H220V360H345Z" />
<glyph unicode="&#x155;" glyph-name="racute" horiz-adv-x="424" d="M197 572Q192 569 189 569Q182 569 178 575L153 604Q149 610 149 613Q149 618 155 623L316 764Q320 768 325 768Q330 768 335 763L367 725Q370 720 370 716Q370 711 365 706L197 572ZM51 0Q39
0 39 12V55Q39 67 51 67H107V425H51Q39 425 39 437V480Q39 492 51 492H169Q181 492 181 480V355H184Q197 393 224 424Q247 450 289 472T399 494Q412 494 412 481V428Q412 415 399 415H378Q333 415 298 399T239 358T203 300T190 235V67H243Q255 67 255 55V12Q255
0 243 0H51Z" />
<glyph unicode="&#x156;" glyph-name="Rcommaaccent" horiz-adv-x="694" d="M308 -205Q308 -202 315 -200T332 -193T348 -178T356 -146Q356 -143 356 -142T355 -138Q354 -136 354 -135Q353 -137 350 -138Q344 -140 335 -140Q318 -140 305 -127T292 -93Q292 -73
305 -60T339 -46Q365 -46 379 -65T394 -119Q394 -179 371 -204T315 -230Q308 -230 308 -224V-205ZM566 0Q544 0 531 12T506 48L412 239Q401 262 388 276T349 291H220V73H312Q324 73 324 61V12Q324 0 312 0H58Q46 0 46 12V61Q46 73 58 73H135V645H58Q46 645 46 657V706Q46
718 58 718H367Q418 718 462 704T539 663T589 596T608 502Q608 424 571 375T461 306Q484 288 508 239L592 73H652Q665 73 665 61V12Q665 0 652 0H566ZM345 360Q384 360 416 367T470 390T505 433T518 499Q518 541 504 569T467 614T412 638T345 645H220V360H345Z"
/>
<glyph unicode="&#x157;" glyph-name="rcommaaccent" horiz-adv-x="424" d="M119 -205Q119 -202 126 -200T143 -193T159 -178T167 -146Q167 -143 167 -142T166 -138Q165 -136 165 -135Q164 -137 161 -138Q155 -140 146 -140Q129 -140 116 -127T103 -93Q103 -73
116 -60T150 -46Q176 -46 190 -65T205 -119Q205 -179 182 -204T126 -230Q119 -230 119 -224V-205ZM51 0Q39 0 39 12V55Q39 67 51 67H107V425H51Q39 425 39 437V480Q39 492 51 492H169Q181 492 181 480V355H184Q197 393 224 424Q247 450 289 472T399 494Q412 494
412 481V428Q412 415 399 415H378Q333 415 298 399T239 358T203 300T190 235V67H243Q255 67 255 55V12Q255 0 243 0H51Z" />
<glyph unicode="&#x158;" glyph-name="Rcaron" horiz-adv-x="694" d="M339 804Q335 799 329 799Q324 799 320 803L165 939Q159 943 159 949Q159 952 163 958L187 986Q191 991 197 991Q201 991 206 988L329 883L452 988Q456 991 461 991Q467 991 471 986L496 958Q499
953 499 950Q499 944 494 939L339 804ZM566 0Q544 0 531 12T506 48L412 239Q401 262 388 276T349 291H220V73H312Q324 73 324 61V12Q324 0 312 0H58Q46 0 46 12V61Q46 73 58 73H135V645H58Q46 645 46 657V706Q46 718 58 718H367Q418 718 462 704T539 663T589 596T608
502Q608 424 571 375T461 306Q484 288 508 239L592 73H652Q665 73 665 61V12Q665 0 652 0H566ZM345 360Q384 360 416 367T470 390T505 433T518 499Q518 541 504 569T467 614T412 638T345 645H220V360H345Z" />
<glyph unicode="&#x159;" glyph-name="rcaron" horiz-adv-x="424" d="M209 578Q205 573 199 573Q194 573 190 577L35 713Q29 717 29 723Q29 726 33 732L57 760Q61 765 67 765Q71 765 76 762L199 657L322 762Q326 765 331 765Q337 765 341 760L366 732Q369 727
369 724Q369 718 364 713L209 578ZM51 0Q39 0 39 12V55Q39 67 51 67H107V425H51Q39 425 39 437V480Q39 492 51 492H169Q181 492 181 480V355H184Q197 393 224 424Q247 450 289 472T399 494Q412 494 412 481V428Q412 415 399 415H378Q333 415 298 399T239 358T203
300T190 235V67H243Q255 67 255 55V12Q255 0 243 0H51Z" />
<glyph unicode="&#x15a;" glyph-name="Sacute" horiz-adv-x="669" d="M298 798Q293 795 290 795Q283 795 279 801L254 830Q250 836 250 839Q250 844 256 849L417 990Q421 994 426 994Q431 994 436 989L468 951Q471 946 471 942Q471 937 466 932L298 798ZM69 0Q56
0 56 12V243Q56 255 69 255H130Q142 255 142 243V229Q142 223 153 198T189 146T257 96T361 74Q442 74 487 105T533 193Q533 226 514 247T462 283T389 309T306 331T222 357T149 394T98 449T78 530Q78 571 94 606T140 668T213 709T311 724Q388 724 435 701T508 645L507
707V709Q507 719 519 719H574Q586 719 586 707V491Q586 478 574 478H512Q500 478 500 491V519Q500 534 491 555T460 595T405 629T320 643Q249 643 209 611T168 530Q168 497 187 475T239 437T312 411T395 388T479 362T552 326T603 273T623 196Q623 155 609 119T564
54T487 10T373 -7Q320 -7 280 6T211 38T164 78T135 115L136 12Q136 0 123 0H69Z" />
<glyph unicode="&#x15b;" glyph-name="sacute" horiz-adv-x="495" d="M206 572Q201 569 198 569Q191 569 187 575L162 604Q158 610 158 613Q158 618 164 623L325 764Q329 768 334 768Q339 768 344 763L376 725Q379 720 379 716Q379 711 374 706L206 572ZM268 -7Q229
-7 201 2T153 23T124 47T110 65H108Q108 51 109 40Q110 30 110 22T111 13Q111 0 98 0H59Q45 0 45 13V163Q45 176 58 176H102Q115 176 115 163V143Q126 121 144 103Q160 88 187 76T257 63Q311 63 338 81T365 135Q365 162 343 176T287 201T214 221T142 246T86 288T63
357Q63 390 76 416T111 461T164 489T231 499Q287 499 320 482T373 441H375Q374 452 373 460Q372 467 372 472T372 479Q372 492 386 492H422Q435 492 435 479V339Q435 326 421 326H378Q365 326 365 339V353Q365 363 359 376T337 401T299 421T241 429Q222 429 205
425T175 412T153 390T145 358Q145 330 167 314T224 288T298 268T372 243T429 202T452 134Q452 107 442 82T410 37T353 5T268 -7Z" />
<glyph unicode="&#x15c;" glyph-name="Scircumflex" horiz-adv-x="669" d="M480 801Q476 796 470 796Q465 796 461 799L338 904L215 799Q210 796 207 796Q200 796 196 801L172 830Q168 836 168 839Q168 844 174 849L329 985Q333 989 338 989Q344 989 348 984L503
849Q508 842 508 838Q508 833 505 830L480 801ZM69 0Q56 0 56 12V243Q56 255 69 255H130Q142 255 142 243V229Q142 223 153 198T189 146T257 96T361 74Q442 74 487 105T533 193Q533 226 514 247T462 283T389 309T306 331T222 357T149 394T98 449T78 530Q78 571
94 606T140 668T213 709T311 724Q388 724 435 701T508 645L507 707V709Q507 719 519 719H574Q586 719 586 707V491Q586 478 574 478H512Q500 478 500 491V519Q500 534 491 555T460 595T405 629T320 643Q249 643 209 611T168 530Q168 497 187 475T239 437T312 411T395
388T479 362T552 326T603 273T623 196Q623 155 609 119T564 54T487 10T373 -7Q320 -7 280 6T211 38T164 78T135 115L136 12Q136 0 123 0H69Z" />
<glyph unicode="&#x15d;" glyph-name="scircumflex" horiz-adv-x="495" d="M382 575Q378 570 372 570Q367 570 363 573L240 678L117 573Q112 570 109 570Q102 570 98 575L74 604Q70 610 70 613Q70 618 76 623L231 759Q235 763 240 763Q246 763 250 758L405 623Q410
616 410 612Q410 607 407 604L382 575ZM268 -7Q229 -7 201 2T153 23T124 47T110 65H108Q108 51 109 40Q110 30 110 22T111 13Q111 0 98 0H59Q45 0 45 13V163Q45 176 58 176H102Q115 176 115 163V143Q126 121 144 103Q160 88 187 76T257 63Q311 63 338 81T365 135Q365
162 343 176T287 201T214 221T142 246T86 288T63 357Q63 390 76 416T111 461T164 489T231 499Q287 499 320 482T373 441H375Q374 452 373 460Q372 467 372 472T372 479Q372 492 386 492H422Q435 492 435 479V339Q435 326 421 326H378Q365 326 365 339V353Q365 363
359 376T337 401T299 421T241 429Q222 429 205 425T175 412T153 390T145 358Q145 330 167 314T224 288T298 268T372 243T429 202T452 134Q452 107 442 82T410 37T353 5T268 -7Z" />
<glyph unicode="&#x15e;" glyph-name="Scedilla" horiz-adv-x="669" d="M335 -156Q305 -156 287 -146T263 -133Q258 -130 258 -124Q258 -123 260 -117L270 -95Q273 -89 278 -89Q284 -89 295 -97T331 -105Q364 -105 364 -82Q364 -71 354 -68T332 -63T310 -60T300
-50Q300 -46 301 -44L314 -2Q275 5 246 19T194 50T158 84T135 115L136 12Q136 0 123 0H69Q56 0 56 12V243Q56 255 69 255H130Q142 255 142 243V229Q142 223 153 198T189 146T257 96T361 74Q442 74 487 105T533 193Q533 226 514 247T462 283T389 308T306 330T222
356T149 393T98 449T78 530Q78 571 94 606T140 668T213 709T311 724Q388 724 435 701T508 645L507 707V709Q507 719 519 719H574Q586 719 586 707V491Q586 478 574 478H512Q500 478 500 491V519Q500 534 491 555T460 595T405 629T320 643Q249 643 209 611T168 530Q168
486 201 461T286 419T395 389T505 353T589 294T623 196Q623 155 609 119T564 54T487 10T373 -7H364L358 -25Q360 -25 370 -25T392 -31T413 -48T423 -81Q423 -116 400 -136T335 -156Z" />
<glyph unicode="&#x15f;" glyph-name="scedilla" horiz-adv-x="495" d="M246 -156Q216 -156 198 -146T174 -133Q169 -130 169 -124Q169 -123 171 -117L181 -95Q184 -89 189 -89Q195 -89 206 -97T242 -105Q275 -105 275 -82Q275 -71 265 -68T243 -63T221 -60T211
-50Q211 -46 212 -44L225 -3Q197 1 177 10T142 29T121 49T110 65H108Q108 51 109 40Q110 30 110 22T111 13Q111 0 98 0H59Q45 0 45 13V163Q45 176 58 176H102Q115 176 115 163V143Q126 121 144 103Q160 88 187 76T257 63Q311 63 338 81T365 135Q365 161 343 176T287
201T214 220T142 246T86 288T63 357Q63 390 76 416T111 461T164 489T231 499Q287 499 320 482T373 441H375Q374 452 373 460Q372 467 372 472T372 479Q372 492 386 492H422Q435 492 435 479V339Q435 326 421 326H378Q365 326 365 339V353Q365 363 359 376T337 401T299
421T241 429Q222 429 205 425T175 412T153 390T145 358Q145 329 167 313T224 287T298 267T372 242T429 202T452 134Q452 107 443 82T412 38T357 6T275 -7L269 -25Q271 -25 281 -25T303 -31T324 -48T334 -81Q334 -116 311 -136T246 -156Z" />
<glyph unicode="&#x160;" glyph-name="Scaron" horiz-adv-x="669" d="M351 804Q347 799 341 799Q336 799 332 803L177 939Q171 943 171 949Q171 952 175 958L199 986Q203 991 209 991Q213 991 218 988L341 883L464 988Q468 991 473 991Q479 991 483 986L508 958Q511
953 511 950Q511 944 506 939L351 804ZM69 0Q56 0 56 12V243Q56 255 69 255H130Q142 255 142 243V229Q142 223 153 198T189 146T257 96T361 74Q442 74 487 105T533 193Q533 226 514 247T462 283T389 309T306 331T222 357T149 394T98 449T78 530Q78 571 94 606T140
668T213 709T311 724Q388 724 435 701T508 645L507 707V709Q507 719 519 719H574Q586 719 586 707V491Q586 478 574 478H512Q500 478 500 491V519Q500 534 491 555T460 595T405 629T320 643Q249 643 209 611T168 530Q168 497 187 475T239 437T312 411T395 388T479
362T552 326T603 273T623 196Q623 155 609 119T564 54T487 10T373 -7Q320 -7 280 6T211 38T164 78T135 115L136 12Q136 0 123 0H69Z" />
<glyph unicode="&#x161;" glyph-name="scaron" horiz-adv-x="495" d="M256 578Q252 573 246 573Q241 573 237 577L82 713Q76 717 76 723Q76 726 80 732L104 760Q108 765 114 765Q118 765 123 762L246 657L369 762Q373 765 378 765Q384 765 388 760L413 732Q416
727 416 724Q416 718 411 713L256 578ZM268 -7Q229 -7 201 2T153 23T124 47T110 65H108Q108 51 109 40Q110 30 110 22T111 13Q111 0 98 0H59Q45 0 45 13V163Q45 176 58 176H102Q115 176 115 163V143Q126 121 144 103Q160 88 187 76T257 63Q311 63 338 81T365 135Q365
162 343 176T287 201T214 221T142 246T86 288T63 357Q63 390 76 416T111 461T164 489T231 499Q287 499 320 482T373 441H375Q374 452 373 460Q372 467 372 472T372 479Q372 492 386 492H422Q435 492 435 479V339Q435 326 421 326H378Q365 326 365 339V353Q365 363
359 376T337 401T299 421T241 429Q222 429 205 425T175 412T153 390T145 358Q145 330 167 314T224 288T298 268T372 243T429 202T452 134Q452 107 442 82T410 37T353 5T268 -7Z" />
<glyph unicode="&#x162;" glyph-name="Tcommaaccent" horiz-adv-x="668" d="M301 -205Q301 -202 308 -200T325 -193T341 -178T349 -146Q349 -143 349 -142T348 -138Q347 -136 347 -135Q346 -137 343 -138Q337 -140 328 -140Q311 -140 298 -127T285 -93Q285 -73
298 -60T332 -46Q358 -46 372 -65T387 -119Q387 -179 364 -204T308 -230Q301 -230 301 -224V-205ZM217 0Q203 0 203 13V60Q203 73 217 73H292V645H101V547Q101 533 88 533H33Q19 533 19 547V705Q19 718 33 718H635Q648 718 648 705V547Q648 533 635 533H580Q567
533 567 547V645H377V73H448Q461 73 461 60V13Q461 0 448 0H217Z" />
<glyph unicode="&#x163;" glyph-name="tcommaaccent" horiz-adv-x="360" d="M160 -205Q160 -202 167 -200T184 -193T200 -178T208 -146Q208 -143 208 -142T207 -138Q206 -136 206 -135Q205 -137 202 -138Q196 -140 187 -140Q170 -140 157 -127T144 -93Q144 -73
157 -60T191 -46Q217 -46 231 -65T246 -119Q246 -179 223 -204T167 -230Q160 -230 160 -224V-205ZM356 51Q359 46 359 43Q359 37 354 32Q351 29 343 23T323 10T293 -2T253 -7Q178 -7 136 35T93 163V425H36Q22 425 22 438V479Q22 492 36 492H93V593Q93 607 106 607H162Q176
607 176 593V492H302Q316 492 316 479V438Q316 425 302 425H176V165Q176 114 198 89T261 63Q278 63 288 66T305 74T316 83T323 87Q327 87 332 82L356 51Z" />
<glyph unicode="&#x164;" glyph-name="Tcaron" horiz-adv-x="668" d="M323 804Q319 799 313 799Q308 799 304 803L149 939Q143 943 143 949Q143 952 147 958L171 986Q175 991 181 991Q185 991 190 988L313 883L436 988Q440 991 445 991Q451 991 455 986L480 958Q483
953 483 950Q483 944 478 939L323 804ZM217 0Q203 0 203 13V60Q203 73 217 73H292V645H101V547Q101 533 88 533H33Q19 533 19 547V705Q19 718 33 718H635Q648 718 648 705V547Q648 533 635 533H580Q567 533 567 547V645H377V73H448Q461 73 461 60V13Q461 0 448
0H217Z" />
<glyph unicode="&#x165;" glyph-name="tcaron" horiz-adv-x="360" d="M223 564Q223 567 230 569T247 576T263 591T271 623Q271 626 271 628T270 632Q269 634 269 635Q268 633 265 632Q259 630 250 630Q233 630 220 642T207 676Q207 696 220 709T254 723Q280 723
294 704T309 650Q309 590 286 565T230 540Q223 540 223 545V564ZM356 51Q359 46 359 43Q359 37 354 32Q351 29 343 23T323 10T293 -2T253 -7Q178 -7 136 35T93 163V425H36Q22 425 22 438V479Q22 492 36 492H93V593Q93 607 106 607H162Q176 607 176 593V492H302Q316
492 316 479V438Q316 425 302 425H176V165Q176 114 198 89T261 63Q278 63 288 66T305 74T316 83T323 87Q327 87 332 82L356 51Z" />
<glyph unicode="&#x166;" glyph-name="Tbar" horiz-adv-x="668" d="M217 0Q203 0 203 13V60Q203 73 217 73H292V290H189Q176 290 176 304V346Q176 359 189 359H292V645H103V547Q103 533 90 533H33Q19 533 19 547V705Q19 718 33 718H635Q648 718 648 705V547Q648
533 635 533H578Q565 533 565 547V645H377V359H481Q495 359 495 346V304Q495 290 481 290H377V73H448Q461 73 461 60V13Q461 0 448 0H217Z" />
<glyph unicode="&#x167;" glyph-name="tbar" horiz-adv-x="363" d="M356 51Q359 46 359 43Q359 37 354 32Q351 29 343 23T323 10T293 -2T253 -7Q178 -7 136 35T93 163V255H37Q26 255 26 266V282Q26 293 37 293H93V425H36Q22 425 22 438V479Q22 492 36 492H93V593Q93
607 106 607H162Q176 607 176 593V492H302Q316 492 316 479V438Q316 425 302 425H176V293H278Q289 293 289 282V266Q289 255 278 255H176V165Q176 114 198 89T261 63Q278 63 288 66T305 74T316 83T323 87Q327 87 332 82L356 51Z" />
<glyph unicode="&#x168;" glyph-name="Utilde" horiz-adv-x="766" d="M565 645H489Q476 645 476 657V706Q476 718 489 718H728Q740 718 740 706V657Q740 645 728 645H651V269Q651 131 581 62T384 -7Q257 -7 186 62T114 269V645H38Q26 645 26 657V706Q26 718 38
718H277Q289 718 289 706V657Q289 645 277 645H200V266Q200 225 209 190T239 128T295 87T384 72Q433 72 467 86T523 125T555 184T565 260V645ZM543 915Q555 915 555 903Q555 847 534 816T465 785Q437 785 419 792T386 809T358 825T327 833Q311 833 304 824T296
786Q296 774 284 774H247Q235 774 235 786Q235 838 257 867T324 896Q350 896 368 889T401 872T430 856T462 848Q479 848 486 859T494 903Q494 915 506 915H543Z" />
<glyph unicode="&#x169;" glyph-name="utilde" horiz-adv-x="594" d="M467 0Q445 0 435 9T424 42V79H421Q416 70 407 56T379 27T333 3T265 -7Q184 -7 138 40T91 167V425H34Q22 425 22 437V480Q22 492 34 492H130Q152 492 162 483T173 450V187Q173 130 200 97T283
63Q320 63 345 76T387 106T409 135T416 150V425H362Q350 425 350 437V480Q350 492 362 492H486Q498 492 498 480V67H554Q567 67 567 55V12Q567 0 554 0H467ZM434 689Q446 689 446 677Q446 621 425 590T356 559Q328 559 310 566T277 583T249 599T218 607Q202 607
195 598T187 560Q187 548 175 548H138Q126 548 126 560Q126 612 148 641T215 670Q241 670 259 663T292 646T321 630T353 622Q370 622 377 633T385 677Q385 689 397 689H434Z" />
<glyph unicode="&#x16a;" glyph-name="Umacron" horiz-adv-x="766" d="M565 645H489Q476 645 476 657V706Q476 718 489 718H728Q740 718 740 706V657Q740 645 728 645H651V269Q651 131 581 62T384 -7Q257 -7 186 62T114 269V645H38Q26 645 26 657V706Q26 718 38
718H277Q289 718 289 706V657Q289 645 277 645H200V266Q200 225 209 190T239 128T295 87T384 72Q433 72 467 86T523 125T555 184T565 260V645ZM230 780Q217 780 217 793V835Q217 849 230 849H526Q539 849 539 835V793Q539 780 526 780H230Z" />
<glyph unicode="&#x16b;" glyph-name="umacron" horiz-adv-x="594" d="M467 0Q445 0 435 9T424 42V79H421Q416 70 407 56T379 27T333 3T265 -7Q184 -7 138 40T91 167V425H34Q22 425 22 437V480Q22 492 34 492H130Q152 492 162 483T173 450V187Q173 130 200 97T283
63Q320 63 345 76T387 106T409 135T416 150V425H362Q350 425 350 437V480Q350 492 362 492H486Q498 492 498 480V67H554Q567 67 567 55V12Q567 0 554 0H467ZM136 554Q123 554 123 567V609Q123 623 136 623H432Q445 623 445 609V567Q445 554 432 554H136Z" />
<glyph unicode="&#x16c;" glyph-name="Ubreve" horiz-adv-x="766" d="M565 645H489Q476 645 476 657V706Q476 718 489 718H728Q740 718 740 706V657Q740 645 728 645H651V269Q651 131 581 62T384 -7Q257 -7 186 62T114 269V645H38Q26 645 26 657V706Q26 718 38
718H277Q289 718 289 706V657Q289 645 277 645H200V266Q200 225 209 190T239 128T295 87T384 72Q433 72 467 86T523 125T555 184T565 260V645ZM516 941Q529 941 529 928Q529 859 489 824T388 789Q328 789 289 824T249 928Q249 941 262 941H304Q317 941 317 928Q317
890 338 870T388 850Q417 850 439 870T461 928Q461 941 474 941H516Z" />
<glyph unicode="&#x16d;" glyph-name="ubreve" horiz-adv-x="594" d="M467 0Q445 0 435 9T424 42V79H421Q416 70 407 56T379 27T333 3T265 -7Q184 -7 138 40T91 167V425H34Q22 425 22 437V480Q22 492 34 492H130Q152 492 162 483T173 450V187Q173 130 200 97T283
63Q320 63 345 76T387 106T409 135T416 150V425H362Q350 425 350 437V480Q350 492 362 492H486Q498 492 498 480V67H554Q567 67 567 55V12Q567 0 554 0H467ZM409 715Q422 715 422 702Q422 633 382 598T281 563Q221 563 182 598T142 702Q142 715 155 715H197Q210
715 210 702Q210 664 231 644T281 624Q310 624 332 644T354 702Q354 715 367 715H409Z" />
<glyph unicode="&#x16e;" glyph-name="Uring" horiz-adv-x="766" d="M565 645H489Q476 645 476 657V706Q476 718 489 718H728Q740 718 740 706V657Q740 645 728 645H651V269Q651 131 581 62T384 -7Q257 -7 186 62T114 269V645H38Q26 645 26 657V706Q26 718 38
718H277Q289 718 289 706V657Q289 645 277 645H200V266Q200 225 209 190T239 128T295 87T384 72Q433 72 467 86T523 125T555 184T565 260V645ZM466 858Q466 824 442 800T384 775Q350 775 326 799T301 858Q301 892 325 916T384 940Q418 940 442 916T466 858ZM417
858Q417 872 408 881T384 891Q370 891 361 882T351 858Q351 844 360 835T384 825Q398 825 407 834T417 858Z" />
<glyph unicode="&#x16f;" glyph-name="uring" horiz-adv-x="594" d="M371 632Q371 598 347 574T289 549Q255 549 231 573T206 632Q206 666 230 690T289 714Q323 714 347 690T371 632ZM322 632Q322 646 313 655T289 665Q275 665 266 656T256 632Q256 618 265 609T289
599Q303 599 312 608T322 632ZM467 0Q445 0 435 9T424 42V79H421Q416 70 407 56T379 27T333 3T265 -7Q184 -7 138 40T91 167V425H34Q22 425 22 437V480Q22 492 34 492H130Q152 492 162 483T173 450V187Q173 130 200 97T283 63Q320 63 345 76T387 106T409 135T416
150V425H362Q350 425 350 437V480Q350 492 362 492H486Q498 492 498 480V67H554Q567 67 567 55V12Q567 0 554 0H467Z" />
<glyph unicode="&#x170;" glyph-name="Uhungarumlaut" horiz-adv-x="766" d="M565 645H489Q476 645 476 657V706Q476 718 489 718H728Q740 718 740 706V657Q740 645 728 645H651V269Q651 131 581 62T384 -7Q257 -7 186 62T114 269V645H38Q26 645 26 657V706Q26
718 38 718H277Q289 718 289 706V657Q289 645 277 645H200V266Q200 225 209 190T239 128T295 87T384 72Q433 72 467 86T523 125T555 184T565 260V645ZM272 807Q267 804 264 804Q257 804 253 810L228 839Q224 845 224 848Q224 853 230 858L391 999Q395 1003 400
1003Q405 1003 410 998L442 960Q445 955 445 951Q445 946 440 941L272 807ZM445 807Q440 804 436 804Q429 804 425 810L401 839Q397 843 397 848Q397 853 403 858L563 999Q567 1003 572 1003Q578 1003 583 998L614 960Q617 955 617 951Q617 945 613 941L445 807Z"
/>
<glyph unicode="&#x171;" glyph-name="uhungarumlaut" horiz-adv-x="594" d="M467 0Q445 0 435 9T424 42V79H421Q416 70 407 56T379 27T333 3T265 -7Q184 -7 138 40T91 167V425H34Q22 425 22 437V480Q22 492 34 492H130Q152 492 162 483T173 450V187Q173 130 200
97T283 63Q320 63 345 76T387 106T409 135T416 150V425H362Q350 425 350 437V480Q350 492 362 492H486Q498 492 498 480V67H554Q567 67 567 55V12Q567 0 554 0H467ZM155 581Q150 578 147 578Q140 578 136 584L111 613Q107 619 107 622Q107 627 113 632L274 773Q278
777 283 777Q288 777 293 772L325 734Q328 729 328 725Q328 720 323 715L155 581ZM328 581Q323 578 319 578Q312 578 308 584L284 613Q280 617 280 622Q280 627 286 632L446 773Q450 777 455 777Q461 777 466 772L497 734Q500 729 500 725Q500 719 496 715L328
581Z" />
<glyph unicode="&#x172;" glyph-name="Uogonek" horiz-adv-x="765" d="M565 645H489Q476 645 476 657V706Q476 718 489 718H728Q740 718 740 706V657Q740 645 728 645H651V269Q651 140 590 71T416 -6Q407 -11 397 -18T379 -34T365 -54T359 -79Q359 -93 367 -100T387
-108Q404 -108 414 -102T433 -95Q438 -95 441 -99L453 -120Q455 -126 455 -127Q455 -134 449 -137Q444 -140 425 -150T376 -161Q340 -161 319 -141T297 -88Q297 -71 302 -58T316 -35T335 -18T356 -6Q241 1 178 69T114 269V645H38Q26 645 26 657V706Q26 718 38 718H277Q289
718 289 706V657Q289 645 277 645H200V266Q200 225 209 190T239 128T295 87T384 72Q433 72 467 86T523 125T555 184T565 260V645Z" />
<glyph unicode="&#x173;" glyph-name="uogonek" horiz-adv-x="594" d="M540 0Q532 -4 521 -11T499 -27T480 -50T472 -79Q472 -93 480 -100T500 -108Q517 -108 527 -102T546 -95Q551 -95 554 -99L566 -120Q568 -126 568 -127Q568 -134 562 -137Q557 -140 538 -150T489
-161Q453 -161 432 -141T410 -88Q410 -68 418 -53T437 -28T461 -10T483 0H467Q445 0 435 9T424 42V79H421Q416 70 407 56T379 27T333 3T265 -7Q184 -7 138 40T91 167V425H34Q22 425 22 437V480Q22 492 34 492H130Q152 492 162 483T173 450V187Q173 130 200 97T283
63Q320 63 345 76T387 106T409 135T416 150V425H362Q350 425 350 437V480Q350 492 362 492H486Q498 492 498 480V67H554Q567 67 567 55V12Q567 0 554 0H540Z" />
<glyph unicode="&#x174;" glyph-name="Wcircumflex" horiz-adv-x="999" d="M623 801Q619 796 613 796Q608 796 604 799L481 904L358 799Q353 796 350 796Q343 796 339 801L315 830Q311 836 311 839Q311 844 317 849L472 985Q476 989 481 989Q487 989 491 984L646
849Q651 842 651 838Q651 833 648 830L623 801ZM663 0Q625 0 616 40L500 549H497L383 40Q374 0 335 0H298Q278 0 268 10T251 40L67 645H4Q-9 645 -9 657V706Q-9 718 4 718H229Q242 718 242 706V657Q242 645 229 645H159L314 102H320L459 718H539L679 102H685L840
645H770Q757 645 757 657V706Q757 718 770 718H995Q1008 718 1008 706V657Q1008 645 995 645H931L748 40Q742 20 732 10T701 0H663Z" />
<glyph unicode="&#x175;" glyph-name="wcircumflex" horiz-adv-x="803" d="M546 575Q542 570 536 570Q531 570 527 573L404 678L281 573Q276 570 273 570Q266 570 262 575L238 604Q234 610 234 613Q234 618 240 623L395 759Q399 763 404 763Q410 763 414 758L569
623Q574 616 574 612Q574 607 571 604L546 575ZM512 0Q500 0 495 5T487 21L403 356H400L314 21Q311 10 306 5T289 0H232Q221 0 217 5T208 21L74 425H21Q9 425 9 437V480Q9 492 21 492H207Q220 492 220 480V437Q220 425 207 425H162L262 88H264L352 425H314Q302
425 302 437V480Q302 492 314 492H489Q502 492 502 480V437Q502 425 489 425H454L539 88H541L641 425H596Q583 425 583 437V480Q583 492 596 492H782Q794 492 794 480V437Q794 425 782 425H726L593 21Q589 10 585 5T569 0H512Z" />
<glyph unicode="&#x176;" glyph-name="Ycircumflex" horiz-adv-x="648" d="M203 0Q191 0 191 12V61Q191 73 203 73H281V287L72 645H4Q-8 645 -8 657V706Q-8 718 4 718H234Q247 718 247 706V657Q247 645 234 645H169L325 364H329L483 645H415Q403 645 403 657V706Q403
718 415 718H644Q657 718 657 706V657Q657 645 644 645H576L366 287V73H445Q457 73 457 61V12Q457 0 445 0H203ZM448 801Q444 796 438 796Q433 796 429 799L306 904L183 799Q178 796 175 796Q168 796 164 801L140 830Q136 836 136 839Q136 844 142 849L297 985Q301
989 306 989Q312 989 316 984L471 849Q476 842 476 838Q476 833 473 830L448 801Z" />
<glyph unicode="&#x177;" glyph-name="ycircumflex" horiz-adv-x="579" d="M498 -19Q498 -75 480 -115T430 -182T355 -221T260 -234Q211 -234 176 -225T117 -203T82 -181T66 -168Q60 -162 60 -157Q60 -153 63 -150L89 -113Q92 -109 97 -109Q101 -109 106 -112Q110
-115 120 -123T148 -139T194 -155T259 -162Q292 -162 322 -155T374 -130T410 -85T423 -19V79H421Q416 70 407 56T379 27T332 3T264 -7Q183 -7 137 40T91 167L90 425H34Q22 425 22 437V480Q22 492 34 492H129Q152 492 162 483T173 450V187Q173 130 200 98T283 65Q320
65 345 78T386 106T408 135T415 150V425H362Q350 425 350 437V480Q350 492 362 492H486Q498 492 498 480V-19ZM423 575Q419 570 413 570Q408 570 404 573L281 678L158 573Q153 570 150 570Q143 570 139 575L115 604Q111 610 111 613Q111 618 117 623L272 759Q276
763 281 763Q287 763 291 758L446 623Q451 616 451 612Q451 607 448 604L423 575Z" />
<glyph unicode="&#x178;" glyph-name="Ydieresis" horiz-adv-x="648" d="M203 0Q191 0 191 12V61Q191 73 203 73H281V287L72 645H4Q-8 645 -8 657V706Q-8 718 4 718H234Q247 718 247 706V657Q247 645 234 645H169L325 364H329L483 645H415Q403 645 403 657V706Q403
718 415 718H644Q657 718 657 706V657Q657 645 644 645H576L366 287V73H445Q457 73 457 61V12Q457 0 445 0H203ZM285 824Q285 805 272 792T240 779Q221 779 209 792T196 824Q196 843 208 856T240 869Q259 869 272 856T285 824ZM450 824Q450 805 437 792T404 779Q385
779 373 792T360 824Q360 843 372 856T404 869Q423 869 436 856T450 824Z" />
<glyph unicode="&#x179;" glyph-name="Zacute" horiz-adv-x="641" d="M274 798Q269 795 266 795Q259 795 255 801L230 830Q226 836 226 839Q226 844 232 849L393 990Q397 994 402 994Q407 994 412 989L444 951Q447 946 447 942Q447 937 442 932L274 798ZM62 0Q49
0 49 13V56Q48 63 54 72T68 90L483 645H131V563Q131 550 117 550H62Q49 550 49 563V705Q49 718 62 718H579Q592 718 592 705V668Q592 658 585 648T571 627L157 73H510V155Q510 168 524 168H579Q592 168 592 155V13Q592 0 579 0H62Z" />
<glyph unicode="&#x17a;" glyph-name="zacute" horiz-adv-x="542" d="M236 572Q231 569 228 569Q221 569 217 575L192 604Q188 610 188 613Q188 618 194 623L355 764Q359 768 364 768Q369 768 374 763L406 725Q409 720 409 716Q409 711 404 706L236 572ZM62 0Q50
0 50 12V53Q50 67 54 73T65 87L388 425H120V348Q120 336 108 336H62Q50 336 50 348V480Q50 492 62 492H480Q492 492 492 480V445Q492 426 477 413L149 67H422V146Q422 158 434 158H480Q492 158 492 146V12Q492 0 480 0H62Z" />
<glyph unicode="&#x17b;" glyph-name="Zdotaccent" horiz-adv-x="641" d="M62 0Q49 0 49 13V56Q48 63 54 72T68 90L483 645H131V563Q131 550 117 550H62Q49 550 49 563V705Q49 718 62 718H579Q592 718 592 705V668Q592 658 585 648T571 627L157 73H510V155Q510
168 524 168H579Q592 168 592 155V13Q592 0 579 0H62ZM388 844Q388 822 373 807T336 792Q314 792 299 807T284 844Q284 866 299 881T336 897Q358 897 373 882T388 844Z" />
<glyph unicode="&#x17c;" glyph-name="zdotaccent" horiz-adv-x="542" d="M62 0Q50 0 50 12V53Q50 67 54 73T65 87L388 425H120V348Q120 336 108 336H62Q50 336 50 348V480Q50 492 62 492H480Q492 492 492 480V445Q492 426 477 413L149 67H422V146Q422 158 434
158H480Q492 158 492 146V12Q492 0 480 0H62ZM330 618Q330 596 315 581T278 566Q256 566 241 581T226 618Q226 640 241 655T278 671Q300 671 315 656T330 618Z" />
<glyph unicode="&#x17d;" glyph-name="Zcaron" horiz-adv-x="641" d="M345 804Q341 799 335 799Q330 799 326 803L171 939Q165 943 165 949Q165 952 169 958L193 986Q197 991 203 991Q207 991 212 988L335 883L458 988Q462 991 467 991Q473 991 477 986L502 958Q505
953 505 950Q505 944 500 939L345 804ZM62 0Q49 0 49 13V56Q48 63 54 72T68 90L483 645H131V563Q131 550 117 550H62Q49 550 49 563V705Q49 718 62 718H579Q592 718 592 705V668Q592 658 585 648T571 627L157 73H510V155Q510 168 524 168H579Q592 168 592 155V13Q592
0 579 0H62Z" />
<glyph unicode="&#x17e;" glyph-name="zcaron" horiz-adv-x="542" d="M287 578Q283 573 277 573Q272 573 268 577L113 713Q107 717 107 723Q107 726 111 732L135 760Q139 765 145 765Q149 765 154 762L277 657L400 762Q404 765 409 765Q415 765 419 760L444 732Q447
727 447 724Q447 718 442 713L287 578ZM62 0Q50 0 50 12V53Q50 67 54 73T65 87L388 425H120V348Q120 336 108 336H62Q50 336 50 348V480Q50 492 62 492H480Q492 492 492 480V445Q492 426 477 413L149 67H422V146Q422 158 434 158H480Q492 158 492 146V12Q492 0
480 0H62Z" />
<glyph unicode="&#x17f;" glyph-name="longs" horiz-adv-x="317" d="M51 0Q39 0 39 12V55Q39 67 51 67H107V425H49Q37 425 37 437V480Q37 492 49 492H107V554Q107 639 150 681T268 724Q290 724 307 719T337 707T358 694T369 684Q375 679 375 674Q375 671 371 667L348
636Q341 631 338 631Q335 631 332 634T321 642T304 649T276 653Q235 653 213 628T190 553V67H278Q290 67 290 55V12Q290 0 278 0H51Z" />
<glyph unicode="&#x192;" glyph-name="florin" horiz-adv-x="517" d="M214 425H157Q144 425 144 437V480Q144 492 157 492H214V554Q214 639 257 681T375 724Q397 724 414 719T444 707T465 694T476 684Q482 678 482 674Q482 670 479 667L455 636Q450 631 445 631Q443
631 439 634T428 642T410 649T383 653Q342 653 320 628T297 553V492H425Q437 492 437 480V437Q437 425 425 425H297V-63Q297 -148 255 -191T137 -234Q115 -234 98 -229T68 -217T47 -204T36 -194Q30 -190 30 -184Q30 -181 33 -176L57 -146Q62 -141 66 -141Q69 -141
72 -144T83 -151T101 -158T129 -162Q170 -162 192 -138T214 -62V425Z" />
<glyph unicode="&#x1fc;" glyph-name="AEacute" horiz-adv-x="987" d="M534 798Q529 795 526 795Q519 795 515 801L490 830Q486 836 486 839Q486 844 492 849L653 990Q657 994 662 994Q667 994 672 989L704 951Q707 946 707 942Q707 937 702 932L534 798ZM390
0Q378 0 378 12V61Q378 73 390 73H467V322H259L154 73H224Q236 73 236 61V12Q236 0 224 0H0Q-12 0 -12 12V61Q-12 73 0 73H68L310 645H255Q243 645 243 657V706Q243 718 255 718H919Q931 718 931 706V546Q931 534 919 534H866Q854 534 854 546V645H552V395H805Q818
395 818 383V334Q818 322 805 322H552V73H853V171Q853 183 866 183H919Q931 183 931 171V12Q931 0 919 0H390ZM467 645H396L289 395H467V645Z" />
<glyph unicode="&#x1fd;" glyph-name="aeacute" horiz-adv-x="893" d="M434 572Q429 569 426 569Q419 569 415 575L390 604Q386 610 386 613Q386 618 392 623L553 764Q557 768 562 768Q567 768 572 763L604 725Q607 720 607 716Q607 711 602 706L434 572ZM474
227Q476 184 491 153T529 102T581 73T640 63Q682 63 712 76T764 104T796 133T809 146Q812 146 817 143L845 116Q850 109 850 105Q832 74 802 49Q776 28 736 11T635 -7Q566 -7 511 23T423 111Q412 95 394 75T348 36T284 6T201 -7Q166 -7 136 2T84 29T50 72T37 131Q37
174 56 204T111 253T196 280T305 289H389V303Q389 374 353 401T259 429Q219 429 191 422T145 405T118 389T108 381Q106 380 102 380Q96 380 93 384L65 419Q62 422 62 426Q62 431 67 435Q69 437 80 447T115 469T175 490T262 499Q328 499 373 479T442 411Q476 454
524 476T625 499Q736 499 792 431T848 240Q848 227 835 227H474ZM396 167Q393 177 391 194T389 222H310Q271 222 237 219T178 207T138 183T123 142Q123 108 150 86T226 63Q269 63 300 78T352 113T383 148T396 167ZM767 294Q764 351 729 390T628 429Q572 429 529
396T476 294H767Z" />
<glyph unicode="&#x1fe;" glyph-name="Oslashacute" horiz-adv-x="795" d="M398 -7Q378 -7 360 -5T324 0L312 -39Q309 -52 297 -52H259Q249 -52 249 -43Q249 -42 249 -42T250 -39L267 17Q219 36 179 69T111 146T66 245T50 363Q50 448 79 515T156 629T267 699T398
724Q437 724 475 715L492 770Q496 782 509 782H546Q555 782 555 775Q555 772 554 770L532 698Q578 680 617 649T684 576T729 480T746 363Q746 279 720 211T646 94T536 20T398 -7ZM142 360Q142 310 153 268T185 193T232 137T291 98L452 638Q425 644 398 644Q353
644 308 627T225 574T165 486T142 360ZM398 74Q446 74 492 92T574 146T632 235T654 360Q654 410 643 451T611 524T565 579T508 617L347 79Q360 76 372 75T398 74ZM399 802Q394 799 391 799Q384 799 380 805L355 834Q351 840 351 843Q351 848 357 853L518 994Q522
998 527 998Q532 998 537 993L569 955Q572 950 572 946Q572 941 567 936L399 802Z" />
<glyph unicode="&#x1ff;" glyph-name="oslashacute" horiz-adv-x="586" d="M293 -7Q269 -7 247 -4T204 7L192 -17Q186 -29 177 -29H150Q139 -29 139 -22Q139 -21 141 -17L162 26Q108 57 76 113T44 248Q44 307 63 353T116 432T195 482T293 499Q319 499 344 494T392
480L401 497Q406 510 418 510H445Q454 510 454 502Q454 499 453 497L434 460Q483 428 512 375T542 248Q542 189 523 142T471 62T393 11T293 -7ZM128 247Q128 195 146 156T197 94L359 415Q328 429 293 429Q261 429 231 417T178 381T142 324T128 247ZM293 63Q327
63 357 76T409 113T445 171T458 247Q458 295 442 331T398 390L238 72Q263 63 293 63ZM285 572Q280 569 277 569Q270 569 266 575L241 604Q237 610 237 613Q237 618 243 623L404 764Q408 768 413 768Q418 768 423 763L455 725Q458 720 458 716Q458 711 453 706L285
572Z" />
<glyph unicode="&#x218;" glyph-name="Scommaaccent" horiz-adv-x="669" d="M316 -205Q316 -202 323 -200T340 -193T356 -178T364 -146Q364 -143 364 -142T363 -138Q362 -136 362 -135Q361 -137 358 -138Q352 -140 343 -140Q326 -140 313 -127T300 -93Q300 -73
313 -60T347 -46Q373 -46 387 -65T402 -119Q402 -179 379 -204T323 -230Q316 -230 316 -224V-205ZM69 0Q56 0 56 12V243Q56 255 69 255H130Q142 255 142 243V229Q142 223 153 198T189 146T257 96T361 74Q442 74 487 105T533 193Q533 226 514 247T462 283T389 309T306
331T222 357T149 394T98 449T78 530Q78 571 94 606T140 668T213 709T311 724Q388 724 435 701T508 645L507 707V709Q507 719 519 719H574Q586 719 586 707V491Q586 478 574 478H512Q500 478 500 491V519Q500 534 491 555T460 595T405 629T320 643Q249 643 209 611T168
530Q168 497 187 475T239 437T312 411T395 388T479 362T552 326T603 273T623 196Q623 155 609 119T564 54T487 10T373 -7Q320 -7 280 6T211 38T164 78T135 115L136 12Q136 0 123 0H69Z" />
<glyph unicode="&#x219;" glyph-name="scommaaccent" horiz-adv-x="495" d="M223 -205Q223 -202 230 -200T247 -193T263 -178T271 -146Q271 -143 271 -142T270 -138Q269 -136 269 -135Q268 -137 265 -138Q259 -140 250 -140Q233 -140 220 -127T207 -93Q207 -73
220 -60T254 -46Q280 -46 294 -65T309 -119Q309 -179 286 -204T230 -230Q223 -230 223 -224V-205ZM268 -7Q229 -7 201 2T153 23T124 47T110 65H108Q108 51 109 40Q110 30 110 22T111 13Q111 0 98 0H59Q45 0 45 13V163Q45 176 58 176H102Q115 176 115 163V143Q126
121 144 103Q160 88 187 76T257 63Q311 63 338 81T365 135Q365 162 343 176T287 201T214 221T142 246T86 288T63 357Q63 390 76 416T111 461T164 489T231 499Q287 499 320 482T373 441H375Q374 452 373 460Q372 467 372 472T372 479Q372 492 386 492H422Q435 492
435 479V339Q435 326 421 326H378Q365 326 365 339V353Q365 363 359 376T337 401T299 421T241 429Q222 429 205 425T175 412T153 390T145 358Q145 330 167 314T224 288T298 268T372 243T429 202T452 134Q452 107 442 82T410 37T353 5T268 -7Z" />
<glyph unicode="&#x2c6;" glyph-name="circumflex" horiz-adv-x="410" d="M346 575Q342 570 336 570Q331 570 327 573L204 678L81 573Q76 570 73 570Q66 570 62 575L38 604Q34 610 34 613Q34 618 40 623L195 759Q199 763 204 763Q210 763 214 758L369 623Q374
616 374 612Q374 607 371 604L346 575Z" />
<glyph unicode="&#x2c7;" glyph-name="caron" horiz-adv-x="410" d="M214 578Q210 573 204 573Q199 573 195 577L40 713Q34 717 34 723Q34 726 38 732L62 760Q66 765 72 765Q76 765 81 762L204 657L327 762Q331 765 336 765Q342 765 346 760L371 732Q374 727 374
724Q374 718 369 713L214 578Z" />
<glyph unicode="&#x2d8;" glyph-name="breve" horiz-adv-x="350" d="M302 715Q315 715 315 702Q315 633 275 598T174 563Q114 563 75 598T35 702Q35 715 48 715H90Q103 715 103 702Q103 664 124 644T174 624Q203 624 225 644T247 702Q247 715 260 715H302Z" />
<glyph unicode="&#x2d9;" glyph-name="dotaccent" horiz-adv-x="173" d="M139 618Q139 596 124 581T87 566Q65 566 50 581T35 618Q35 640 50 655T87 671Q109 671 124 656T139 618Z" />
<glyph unicode="&#x2da;" glyph-name="ring" horiz-adv-x="225" d="M196 632Q196 598 172 574T114 549Q80 549 56 573T31 632Q31 666 55 690T114 714Q148 714 172 690T196 632ZM147 632Q147 646 138 655T114 665Q100 665 91 656T81 632Q81 618 90 609T114 599Q128
599 137 608T147 632Z" />
<glyph unicode="&#x2db;" glyph-name="ogonek" horiz-adv-x="229" d="M191 -120Q193 -126 193 -127Q193 -134 187 -137Q182 -140 163 -150T114 -161Q78 -161 57 -141T35 -88Q35 -61 48 -44T78 -15Q97 -3 122 4H174Q172 3 160 -3T133 -19T108 -45T97 -79Q97 -93
105 -100T125 -108Q142 -108 152 -102T171 -95Q176 -95 179 -99L191 -120Z" />
<glyph unicode="&#x2dc;" glyph-name="tilde" horiz-adv-x="384" d="M340 689Q352 689 352 677Q352 621 331 590T262 559Q234 559 216 566T183 583T155 599T124 607Q108 607 101 598T93 560Q93 548 81 548H44Q32 548 32 560Q32 612 54 641T121 670Q147 670 165
663T198 646T227 630T259 622Q276 622 283 633T291 677Q291 689 303 689H340Z" />
<glyph unicode="&#x2dd;" glyph-name="hungarumlaut" horiz-adv-x="463" d="M82 581Q77 578 74 578Q67 578 63 584L38 613Q34 619 34 622Q34 627 40 632L201 773Q205 777 210 777Q215 777 220 772L252 734Q255 729 255 725Q255 720 250 715L82 581ZM255 581Q250
578 246 578Q239 578 235 584L211 613Q207 617 207 622Q207 627 213 632L373 773Q377 777 382 777Q388 777 393 772L424 734Q427 729 427 725Q427 719 423 715L255 581Z" />
<glyph unicode="&#x1e80;" glyph-name="Wgrave" horiz-adv-x="999" d="M663 0Q625 0 616 40L500 549H497L383 40Q374 0 335 0H298Q278 0 268 10T251 40L67 645H4Q-9 645 -9 657V706Q-9 718 4 718H229Q242 718 242 706V657Q242 645 229 645H159L314 102H320L459
718H539L679 102H685L840 645H770Q757 645 757 657V706Q757 718 770 718H995Q1008 718 1008 706V657Q1008 645 995 645H931L748 40Q742 20 732 10T701 0H663ZM546 801Q541 795 536 795Q533 795 527 799L359 933Q354 938 354 943Q354 947 357 952L389 989Q394 994
399 994Q403 994 408 991L569 849Q574 845 574 839Q574 834 571 830L546 801Z" />
<glyph unicode="&#x1e81;" glyph-name="wgrave" horiz-adv-x="803" d="M512 0Q500 0 495 5T487 21L403 356H400L314 21Q311 10 306 5T289 0H232Q221 0 217 5T208 21L74 425H21Q9 425 9 437V480Q9 492 21 492H207Q220 492 220 480V437Q220 425 207 425H162L262
88H264L352 425H314Q302 425 302 437V480Q302 492 314 492H489Q502 492 502 480V437Q502 425 489 425H454L539 88H541L641 425H596Q583 425 583 437V480Q583 492 596 492H782Q794 492 794 480V437Q794 425 782 425H726L593 21Q589 10 585 5T569 0H512ZM454 575Q449
569 444 569Q441 569 435 573L267 707Q262 712 262 717Q262 721 265 726L297 763Q302 768 307 768Q311 768 316 765L477 623Q482 619 482 613Q482 608 479 604L454 575Z" />
<glyph unicode="&#x1e82;" glyph-name="Wacute" horiz-adv-x="999" d="M494 798Q489 795 486 795Q479 795 475 801L450 830Q446 836 446 839Q446 844 452 849L613 990Q617 994 622 994Q627 994 632 989L664 951Q667 946 667 942Q667 937 662 932L494 798ZM663
0Q625 0 616 40L500 549H497L383 40Q374 0 335 0H298Q278 0 268 10T251 40L67 645H4Q-9 645 -9 657V706Q-9 718 4 718H229Q242 718 242 706V657Q242 645 229 645H159L314 102H320L459 718H539L679 102H685L840 645H770Q757 645 757 657V706Q757 718 770 718H995Q1008
718 1008 706V657Q1008 645 995 645H931L748 40Q742 20 732 10T701 0H663Z" />
<glyph unicode="&#x1e83;" glyph-name="wacute" horiz-adv-x="803" d="M362 572Q357 569 354 569Q347 569 343 575L318 604Q314 610 314 613Q314 618 320 623L481 764Q485 768 490 768Q495 768 500 763L532 725Q535 720 535 716Q535 711 530 706L362 572ZM512
0Q500 0 495 5T487 21L403 356H400L314 21Q311 10 306 5T289 0H232Q221 0 217 5T208 21L74 425H21Q9 425 9 437V480Q9 492 21 492H207Q220 492 220 480V437Q220 425 207 425H162L262 88H264L352 425H314Q302 425 302 437V480Q302 492 314 492H489Q502 492 502 480V437Q502
425 489 425H454L539 88H541L641 425H596Q583 425 583 437V480Q583 492 596 492H782Q794 492 794 480V437Q794 425 782 425H726L593 21Q589 10 585 5T569 0H512Z" />
<glyph unicode="&#x1e84;" glyph-name="Wdieresis" horiz-adv-x="999" d="M461 824Q461 805 448 792T416 779Q397 779 385 792T372 824Q372 843 384 856T416 869Q435 869 448 856T461 824ZM626 824Q626 805 613 792T580 779Q561 779 549 792T536 824Q536 843 548
856T580 869Q599 869 612 856T626 824ZM663 0Q625 0 616 40L500 549H497L383 40Q374 0 335 0H298Q278 0 268 10T251 40L67 645H4Q-9 645 -9 657V706Q-9 718 4 718H229Q242 718 242 706V657Q242 645 229 645H159L314 102H320L459 718H539L679 102H685L840 645H770Q757
645 757 657V706Q757 718 770 718H995Q1008 718 1008 706V657Q1008 645 995 645H931L748 40Q742 20 732 10T701 0H663Z" />
<glyph unicode="&#x1e85;" glyph-name="wdieresis" horiz-adv-x="803" d="M369 598Q369 579 356 566T324 553Q305 553 293 566T280 598Q280 617 292 630T324 643Q343 643 356 630T369 598ZM534 598Q534 579 521 566T488 553Q469 553 457 566T444 598Q444 617 456
630T488 643Q507 643 520 630T534 598ZM512 0Q500 0 495 5T487 21L403 356H400L314 21Q311 10 306 5T289 0H232Q221 0 217 5T208 21L74 425H21Q9 425 9 437V480Q9 492 21 492H207Q220 492 220 480V437Q220 425 207 425H162L262 88H264L352 425H314Q302 425 302
437V480Q302 492 314 492H489Q502 492 502 480V437Q502 425 489 425H454L539 88H541L641 425H596Q583 425 583 437V480Q583 492 596 492H782Q794 492 794 480V437Q794 425 782 425H726L593 21Q589 10 585 5T569 0H512Z" />
<glyph unicode="&#x1ef2;" glyph-name="Ygrave" horiz-adv-x="648" d="M203 0Q191 0 191 12V61Q191 73 203 73H281V287L72 645H4Q-8 645 -8 657V706Q-8 718 4 718H234Q247 718 247 706V657Q247 645 234 645H169L325 364H329L483 645H415Q403 645 403 657V706Q403
718 415 718H644Q657 718 657 706V657Q657 645 644 645H576L366 287V73H445Q457 73 457 61V12Q457 0 445 0H203ZM408 801Q403 795 398 795Q395 795 389 799L221 933Q216 938 216 943Q216 947 219 952L251 989Q256 994 261 994Q265 994 270 991L431 849Q436 845
436 839Q436 834 433 830L408 801Z" />
<glyph unicode="&#x1ef3;" glyph-name="ygrave" horiz-adv-x="579" d="M498 -19Q498 -75 480 -115T430 -182T355 -221T260 -234Q211 -234 176 -225T117 -203T82 -181T66 -168Q60 -162 60 -157Q60 -153 63 -150L89 -113Q92 -109 97 -109Q101 -109 106 -112Q110
-115 120 -123T148 -139T194 -155T259 -162Q292 -162 322 -155T374 -130T410 -85T423 -19V79H421Q416 70 407 56T379 27T332 3T264 -7Q183 -7 137 40T91 167L90 425H34Q22 425 22 437V480Q22 492 34 492H129Q152 492 162 483T173 450V187Q173 130 200 98T283 65Q320
65 345 78T386 106T408 135T415 150V425H362Q350 425 350 437V480Q350 492 362 492H486Q498 492 498 480V-19ZM320 575Q315 569 310 569Q307 569 301 573L133 707Q128 712 128 717Q128 721 131 726L163 763Q168 768 173 768Q177 768 182 765L343 623Q348 619 348
613Q348 608 345 604L320 575Z" />
<glyph unicode="&#x2013;" glyph-name="endash" horiz-adv-x="616" d="M83 222Q69 222 69 235V286Q69 299 83 299H534Q547 299 547 286V235Q547 222 534 222H83Z" />
<glyph unicode="&#x2014;" glyph-name="emdash" horiz-adv-x="941" d="M83 222Q69 222 69 235V286Q69 299 83 299H859Q872 299 872 286V235Q872 222 859 222H83Z" />
<glyph unicode="&#x2018;" glyph-name="quoteleft" horiz-adv-x="202" d="M136 753Q136 750 129 748T112 741T96 726T88 694Q88 687 89 685Q89 683 90 682Q92 683 95 684Q97 685 100 686T109 687Q127 687 140 675T153 641Q153 621 139 608T105 594Q79 594 65 613T50
667Q50 727 73 752T129 777Q136 777 136 772V753Z" />
<glyph unicode="&#x2019;" glyph-name="quoteright" horiz-adv-x="205" d="M70 584Q70 587 77 589T94 596T110 611T118 643Q118 646 118 648T117 652Q116 654 116 655Q115 653 112 652Q106 650 97 650Q80 650 67 662T54 696Q54 716 67 729T101 743Q127 743 141
724T156 670Q156 610 133 585T77 560Q70 560 70 565V584Z" />
<glyph unicode="&#x201a;" glyph-name="quotesinglbase" horiz-adv-x="231" d="M82 -73Q82 -70 89 -68T105 -61T121 -45T129 -14Q129 -11 129 -9T128 -5Q127 -3 127 -2Q126 -4 123 -5Q117 -7 108 -7Q91 -7 78 5T65 39Q65 59 78 72T112 86Q138 86 153 67T168 13Q168
-47 144 -72T88 -97Q82 -97 82 -92V-73Z" />
<glyph unicode="&#x201c;" glyph-name="quotedblleft" horiz-adv-x="364" d="M299 753Q299 750 292 748T275 741T259 726T251 694Q251 687 252 685Q252 683 253 682Q254 683 257 684Q259 685 263 686T272 687Q289 687 302 675T315 641Q315 621 302 608T268 594Q242
594 228 613T213 667Q213 727 236 752T292 777Q299 777 299 772V753ZM136 753Q136 750 129 748T112 741T96 726T88 694Q88 687 89 685Q89 683 90 682Q92 683 95 684Q97 685 100 686T109 687Q127 687 140 675T153 641Q153 621 139 608T105 594Q79 594 65 613T50
667Q50 727 73 752T129 777Q136 777 136 772V753Z" />
<glyph unicode="&#x201d;" glyph-name="quotedblright" horiz-adv-x="368" d="M70 584Q70 587 77 589T94 596T110 611T118 643Q118 646 118 648T117 652Q116 654 116 655Q115 653 112 652Q106 650 97 650Q80 650 67 662T54 696Q54 716 67 729T101 743Q127 743
141 724T156 670Q156 610 133 585T77 560Q70 560 70 565V584ZM233 584Q233 587 240 589T257 596T273 611T281 643Q281 646 281 648T280 652Q279 654 279 655Q277 653 274 652Q268 650 260 650Q243 650 230 662T216 696Q216 716 230 729T264 743Q290 743 304 724T319
670Q319 610 296 585T240 560Q233 560 233 565V584Z" />
<glyph unicode="&#x201e;" glyph-name="quotedblbase" horiz-adv-x="381" d="M82 -73Q82 -70 89 -68T105 -61T121 -45T129 -14Q129 -11 129 -9T128 -5Q127 -3 127 -2Q126 -4 123 -5Q117 -7 108 -7Q91 -7 78 5T65 39Q65 59 78 72T112 86Q138 86 153 67T168 13Q168
-47 144 -72T88 -97Q82 -97 82 -92V-73ZM232 -73Q232 -70 239 -68T256 -61T272 -46T280 -14Q280 -11 280 -9T279 -5Q278 -3 278 -2Q277 -4 274 -5Q268 -7 259 -7Q242 -7 229 5T216 39Q216 59 229 72T263 86Q289 86 303 67T318 13Q318 -47 295 -72T239 -97Q232 -97
232 -92V-73Z" />
<glyph unicode="&#x2020;" glyph-name="dagger" horiz-adv-x="435" d="M198 -131Q186 -131 186 -119L178 496H57Q43 496 43 509V560Q43 573 57 573H178V748Q178 760 191 760H250Q262 760 262 748V573H378Q391 573 391 560V509Q391 496 378 496H262L254 -119Q254
-131 242 -131H198Z" />
<glyph unicode="&#x2021;" glyph-name="daggerdbl" horiz-adv-x="449" d="M263 71L261 -119Q261 -131 249 -131H205Q193 -131 193 -119L190 71H64Q50 71 50 85V135Q50 149 64 149H185V496H64Q50 496 50 509V560Q50 573 64 573H185V748Q185 760 198 760H257Q269
760 269 748V573H385Q398 573 398 560V509Q398 496 385 496H266V149H385Q398 149 398 135V85Q398 71 385 71H263Z" />
<glyph unicode="&#x2022;" glyph-name="bullet" horiz-adv-x="363" d="M181 239Q136 239 112 264T88 335Q88 378 112 405T181 432Q224 432 249 405T275 335Q275 290 250 265T181 239Z" />
<glyph unicode="&#x2026;" glyph-name="ellipsis" horiz-adv-x="468" d="M159 40Q159 20 145 7T111 -7Q91 -7 78 6T64 40Q64 60 77 73T111 87Q131 87 145 74T159 40ZM282 40Q282 20 269 7T235 -7Q215 -7 202 6T188 40Q188 60 201 73T235 87Q255 87 268 74T282
40ZM404 40Q404 20 391 7T357 -7Q337 -7 324 6T310 40Q310 60 323 73T357 87Q377 87 390 74T404 40Z" />
<glyph unicode="&#x2030;" glyph-name="perthousand" horiz-adv-x="1076" d="M180 359Q145 359 119 372T73 410T45 469T35 544Q35 583 45 616T73 673T119 710T180 724Q214 724 240 711T285 673T314 616T324 544Q324 503 315 469T287 411T241 373T180 359ZM180
414Q220 414 242 447T264 542Q264 604 242 636T180 669Q139 669 117 636T95 542Q95 481 117 448T180 414ZM567 -7Q498 -7 461 44T423 178Q423 217 433 250T461 307T506 344T567 358Q601 358 628 345T673 307T702 250T712 178Q712 137 703 103T674 45T628 7T567
-7ZM567 48Q608 48 630 81T652 176Q652 238 630 270T567 303Q527 303 505 270T482 176Q482 115 504 82T567 48ZM222 -74Q212 -74 212 -67Q212 -64 213 -62L455 748Q458 760 471 760H510Q519 760 519 753Q519 750 518 748L276 -62Q273 -74 260 -74H222ZM897 -7Q828
-7 791 44T753 178Q753 217 763 250T791 307T836 344T897 358Q931 358 958 345T1003 307T1032 250T1042 178Q1042 137 1033 103T1004 45T958 7T897 -7ZM897 48Q937 48 959 81T982 176Q982 238 960 270T897 303Q857 303 835 270T812 176Q812 115 834 82T897 48Z"
/>
<glyph unicode="&#x2044;" glyph-name="fraction" horiz-adv-x="342" d="M16 -74Q6 -74 6 -66Q6 -64 7 -62L249 748Q252 760 265 760H325Q334 760 334 753Q334 751 334 751T333 748L91 -62Q88 -74 75 -74H16Z" />
<glyph unicode="&#x2070;" glyph-name="zerosuperior" horiz-adv-x="393" d="M197 359Q162 359 136 372T90 410T62 469T52 544Q52 583 62 616T90 673T136 710T197 724Q231 724 257 711T302 673T331 616T341 544Q341 503 332 469T304 411T258 373T197 359ZM197
414Q237 414 259 447T281 542Q281 604 259 636T197 669Q156 669 134 636T112 542Q112 481 134 448T197 414Z" />
<glyph unicode="&#x20ac;" glyph-name="Euro" horiz-adv-x="699" d="M118 308Q115 332 115 357Q115 368 115 379T117 401H52Q40 401 40 413V449Q40 462 52 462H127Q141 520 170 568T242 650T339 704T456 724Q498 724 533 715T595 695T635 672T650 657Q650 653
647 649L611 606Q608 601 602 601Q597 601 594 604Q575 618 542 631T458 644Q415 644 378 630T311 592T258 535T222 462H490Q502 462 502 449V413Q502 401 490 401H208Q207 390 207 380T206 359Q206 345 207 333T210 308H432Q444 308 444 296V259Q444 247 432 247H225Q239
209 261 178T314 123T380 87T458 74Q508 74 541 86T594 113Q597 116 602 116Q608 116 611 111L647 68Q650 63 650 60Q650 55 636 44T596 22T534 2T456 -7Q394 -7 341 11T246 63T174 144T129 247H52Q40 247 40 259V296Q40 308 52 308H118Z" />
<glyph unicode="&#x2122;" glyph-name="trademark" horiz-adv-x="1086" d="M179 288Q171 288 171 296V334Q171 342 179 342H225V664H114V610Q114 602 106 602H67Q59 602 59 610V711Q59 718 67 718H444Q452 718 452 711V610Q452 602 444 602H405Q397 602 397 610V664H289V342H334Q342
342 342 334V296Q342 288 334 288H179ZM865 288Q858 288 858 295V335Q858 342 865 342H904V629H903L791 349Q784 330 764 330Q745 330 739 349L626 629H625V342H664Q671 342 671 335V295Q671 288 664 288H520Q513 288 513 295V335Q513 342 520 342H564V664H520Q513
664 513 671V711Q513 718 520 718H623Q643 718 651 698L739 484Q743 474 747 462T755 438T761 420T764 412H765Q765 412 767 419T773 437T782 460T791 484L877 698Q881 708 887 713T906 718H1010Q1017 718 1017 711V671Q1017 664 1010 664H966V342H1010Q1017 342
1017 335V295Q1017 288 1010 288H865Z" />
<glyph unicode="&#x2126;" glyph-name="Omega" horiz-adv-x="810" d="M464 0Q451 0 451 12V181Q451 192 462 192Q499 192 535 206T599 247T645 315T663 410Q663 470 640 514T579 587T496 630T405 645Q360 645 314 631T231 587T171 514T147 410Q147 356 164 315T210
247T275 206T348 192Q359 192 359 181V12Q359 0 346 0H62Q50 0 50 12V56Q50 67 62 67H292V134Q241 143 198 167T124 227T75 310T57 413Q57 487 86 545T163 642T274 703T405 724Q473 724 536 703T647 643T724 545T753 413Q753 357 736 310T687 227T612 167T518 134V67H748Q760
67 760 56V12Q760 0 748 0H464Z" />
<glyph unicode="&#x2153;" glyph-name="onethird" horiz-adv-x="692" d="M195 -74Q185 -74 185 -67Q185 -64 186 -62L428 748Q431 760 444 760H483Q492 760 492 752V748L249 -62Q246 -74 234 -74H195ZM522 -4Q491 -4 469 4T433 22T411 41T400 54Q398 56 398 58Q398
60 400 62L426 86Q428 88 430 88Q431 88 435 86Q441 80 448 73T465 60T489 50T522 46Q599 46 599 104Q599 133 580 148T523 164H505Q498 164 498 171V200Q498 207 505 207H519Q530 207 542 209T564 218T580 235T587 261Q587 283 572 296T524 310Q497 310 482 297T466
265Q466 257 459 257H421Q414 257 414 265Q414 308 444 334T524 361Q556 361 578 352T615 329T636 299T643 266Q643 246 636 232T620 209T600 194T585 188Q591 187 602 182T626 167T646 140T655 98Q655 52 619 24T522 -4ZM67 362Q57 362 57 372V401Q57 410 67 410H139V660L67
605Q63 603 62 603Q58 603 57 606L36 634Q34 636 34 637Q34 640 38 644L136 718Q140 721 148 721H188Q195 721 195 712L196 410H257Q267 410 267 401V372Q267 362 257 362H67Z" />
<glyph unicode="&#x2202;" glyph-name="partialdiff" horiz-adv-x="630" d="M309 454Q346 454 376 449T428 437T466 421T492 405V413Q492 525 451 588T325 651Q288 651 262 643T220 621T195 592T185 562Q183 550 171 550H118Q107 550 107 561Q107 594 123 624T168
676T239 711T332 724Q393 724 439 702T516 640T562 543T578 416Q578 323 558 246T497 112T399 25T265 -7Q210 -7 168 9T96 53T51 121T35 207Q35 261 52 306T104 384T190 435T309 454ZM271 66Q364 66 419 135T488 336Q482 341 468 350T431 368T380 383T313 390Q268
390 232 377T171 339T132 282T118 211Q118 146 157 106T271 66Z" />
<glyph unicode="&#x2212;" glyph-name="minus" horiz-adv-x="485" d="M87 222Q74 222 74 235V286Q74 299 87 299H398Q412 299 412 286V235Q412 222 398 222H87Z" />
<glyph unicode="&#x222b;" glyph-name="integral'" horiz-adv-x="424" d="M214 554Q214 639 257 681T375 724Q397 724 414 719T444 707T465 694T476 684Q482 678 482 674Q482 670 479 667L455 636Q450 631 445 631Q443 631 439 634T428 642T410 649T383 653Q342
653 320 628T297 553V-63Q297 -148 255 -191T137 -234Q115 -234 98 -229T68 -217T47 -204T36 -194Q30 -190 30 -184Q30 -181 33 -176L57 -146Q62 -141 66 -141Q69 -141 72 -144T83 -151T101 -158T129 -162Q170 -162 192 -138T214 -62V554V554Z" />
<glyph unicode="&#x2248;" glyph-name="approxequal" horiz-adv-x="464" d="M381 442Q393 442 393 430Q393 374 372 343T303 312Q275 312 257 319T224 336T196 352T165 360Q149 360 142 351T134 313Q134 301 122 301H85Q73 301 73 313Q73 365 95 394T162 423Q188
423 206 416T239 399T268 383T300 375Q317 375 324 386T332 430Q332 442 344 442H381ZM381 285Q393 285 393 273Q393 217 372 186T303 155Q275 155 257 162T224 179T196 195T165 203Q149 203 142 194T134 156Q134 144 122 144H85Q73 144 73 156Q73 208 95 237T162
266Q188 266 206 259T239 242T268 226T300 218Q317 218 324 229T332 273Q332 285 344 285H381Z" />
<glyph unicode="&#x2260;" glyph-name="notequal" horiz-adv-x="477" d="M218 100L204 53Q201 41 188 41H148Q138 41 138 49Q138 51 139 53L153 100H78Q65 100 65 113V164Q65 177 78 177H176L224 335H78Q65 335 65 349V399Q65 413 78 413H247L267 479Q271 491
284 491H324Q333 491 333 484Q333 481 332 479L312 413H398Q412 413 412 399V349Q412 335 398 335H289L241 177H398Q412 177 412 164V113Q412 100 398 100H218Z" />
<glyph unicode="&#xf6c3;" glyph-name="commaaccent" horiz-adv-x="172" d="M51 -205Q51 -202 58 -200T75 -193T91 -178T99 -146Q99 -143 99 -142T98 -138Q97 -136 97 -135Q96 -137 93 -138Q87 -140 78 -140Q61 -140 48 -127T35 -93Q35 -73 48 -60T82 -46Q108
-46 122 -65T137 -119Q137 -179 114 -204T58 -230Q51 -230 51 -224V-205Z" />
<glyph unicode="&#xfb00;" glyph-name="ff" horiz-adv-x="717" d="M417 0Q404 0 404 12V55Q404 67 417 67H473V425H190V67H278Q290 67 290 55V12Q290 0 278 0H51Q39 0 39 12V55Q39 67 51 67H107V425H49Q37 425 37 437V480Q37 492 49 492H107V554Q107 639 150 681T268
724Q290 724 307 719T337 707T358 694T369 684Q375 679 375 674Q375 671 371 667L348 636Q341 631 338 631Q335 631 332 634T321 642T304 649T276 653Q235 653 213 628T190 553V492H473V554Q473 639 515 681T633 724Q655 724 672 719T703 707T724 694T735 684Q737
681 738 679T740 674Q740 670 737 667L713 636Q708 631 704 631Q701 631 697 634T687 642T669 649T641 653Q600 653 578 628T556 553V492H683Q696 492 696 480V437Q696 425 683 425H556V67H643Q656 67 656 55V12Q656 0 643 0H417Z" />
<glyph unicode="&#xfb01;" glyph-name="fi" horiz-adv-x="655" d="M421 0Q409 0 409 12V55Q409 67 421 67H477V425H190V67H278Q290 67 290 55V12Q290 0 278 0H51Q39 0 39 12V55Q39 67 51 67H107V425H49Q37 425 37 437V480Q37 492 49 492H107V554Q107 639 150 681T268
724Q290 724 307 719T337 707T358 694T369 684Q375 679 375 674Q375 671 371 667L348 636Q341 631 338 631Q335 631 332 634T321 642T304 649T276 653Q235 653 213 628T190 553V492H548Q560 492 560 480V67H613Q626 67 626 55V12Q626 0 613 0H421ZM573 642Q573
618 556 601T514 584Q489 584 472 601T455 642Q455 667 472 684T514 702Q538 702 555 685T573 642Z" />
<glyph unicode="&#xfb02;" glyph-name="fl" horiz-adv-x="656" d="M51 0Q39 0 39 12V55Q39 67 51 67H107V425H49Q37 425 37 437V480Q37 492 49 492H107V554Q107 639 150 681T268 724Q290 724 307 719T337 707T358 694T369 684Q375 679 375 674Q375 671 371 667L348
636Q341 631 338 631Q335 631 332 634T321 642T304 649T276 653Q235 653 213 628T190 553V492H318Q330 492 330 480V437Q330 425 318 425H190V67H278Q290 67 290 55V12Q290 0 278 0H51ZM418 0Q406 0 406 12V55Q406 67 418 67H474V651H427Q415 651 415 663V706Q415
718 427 718H529Q545 718 551 712T557 693V67H610Q622 67 622 55V12Q622 0 610 0H418Z" />
<glyph unicode="&#xfb03;" glyph-name="ffi" horiz-adv-x="1020" d="M787 0Q775 0 775 12V55Q775 67 787 67H843V425H556V67H643Q656 67 656 55V12Q656 0 643 0H417Q404 0 404 12V55Q404 67 417 67H473V425H190V67H278Q290 67 290 55V12Q290 0 278 0H51Q39 0 39
12V55Q39 67 51 67H107V425H49Q37 425 37 437V480Q37 492 49 492H107V554Q107 639 150 681T268 724Q290 724 307 719T337 707T358 694T369 684Q375 679 375 674Q375 671 371 667L348 636Q341 631 338 631Q335 631 332 634T321 642T304 649T276 653Q235 653 213
628T190 553V492H473V554Q473 639 515 681T633 724Q655 724 672 719T703 707T724 694T735 684Q737 681 738 679T740 674Q740 670 737 667L713 636Q708 631 704 631Q701 631 697 634T687 642T669 649T641 653Q600 653 578 628T556 553V492H913Q926 492 926 480V67H979Q991
67 991 55V12Q991 0 979 0H787ZM939 642Q939 618 922 601T880 584Q855 584 838 601T821 642Q821 667 838 684T880 702Q904 702 921 685T939 642Z" />
<glyph unicode="&#xfb04;" glyph-name="ffl" horiz-adv-x="1022" d="M417 0Q404 0 404 12V55Q404 67 417 67H473V425H190V67H278Q290 67 290 55V12Q290 0 278 0H51Q39 0 39 12V55Q39 67 51 67H107V425H49Q37 425 37 437V480Q37 492 49 492H107V554Q107 639 150
681T268 724Q290 724 307 719T337 707T358 694T369 684Q375 679 375 674Q375 671 371 667L348 636Q341 631 338 631Q335 631 332 634T321 642T304 649T276 653Q235 653 213 628T190 553V492H473V554Q473 639 515 681T633 724Q655 724 672 719T703 707T724 694T735
684Q737 681 738 679T740 674Q740 670 737 667L713 636Q708 631 704 631Q701 631 697 634T687 642T669 649T641 653Q600 653 578 628T556 553V492H683Q696 492 696 480V437Q696 425 683 425H556V67H643Q656 67 656 55V12Q656 0 643 0H417ZM784 0Q771 0 771 12V55Q771
67 784 67H839V651H792Q780 651 780 663V706Q780 718 792 718H895Q910 718 916 712T922 693V67H975Q988 67 988 55V12Q988 0 975 0H784Z" />
</font>
</defs>
</svg>
