<?xml version="1.0" standalone="no"?> <!DOCTYPE svg PUBLIC "-//W3C//DTD SVG 1.0//EN" "http://www.w3.org/TR/2001/REC-SVG-20010904/DTD/svg10.dtd" > <svg xmlns="http://www.w3.org/2000/svg" width="100%" height="100%">
<defs >
<font id="Sanchez-Bold" horiz-adv-x="604" ><font-face
    font-family="Sanchez"
    units-per-em="1000"
    panose-1="2 0 0 0 0 0 0 0 0 0"
    ascent="1205"
    descent="-329"
    alphabetic="0" />
<missing-glyph horiz-adv-x="313" />
<glyph unicode=" " glyph-name="space" horiz-adv-x="250" />
<glyph unicode="!" glyph-name="exclam" horiz-adv-x="306" d="M112 148Q98 148 98 162L85 746Q85 760 99 760H206Q220 760 220 746L207 162Q207 148 194 148H112ZM231 -20Q231 -52 209 -74T154 -97Q122 -97 100 -75T77 -20Q77 12 99 34T154 57Q186 57 208 35T231 -20Z" />
<glyph unicode="&quot;" glyph-name="quotedbl" horiz-adv-x="377" d="M77 542Q61 542 61 558L54 734Q54 750 69 750H144Q160 750 160 734L152 558Q150 542 136 542H77ZM241 542Q225 542 225 558L217 734Q217 750 233 750H308Q324 750 324 734L315 558Q313 542
299 542H241Z" />
<glyph unicode="#" glyph-name="numbersign" horiz-adv-x="630" d="M437 100L410 7Q407 -7 392 -7H309Q298 -7 298 2Q298 5 299 7L326 100H225L199 7Q194 -7 181 -7H97Q86 -7 86 2Q86 5 87 7L114 100H49Q36 100 36 114V176Q36 190 49 190H139L167 286H101Q87 286
87 300V362Q87 376 101 376H193L220 468Q225 482 238 482H321Q332 482 332 473Q332 470 331 468L305 376H405L432 468Q437 482 450 482H533Q544 482 544 473Q544 470 543 468L516 376H579Q593 376 593 362V300Q593 286 579 286H490L462 190H528Q542 190 542 176V114Q542
100 528 100H437ZM379 286H278L250 190H351L379 286Z" />
<glyph unicode="$" glyph-name="dollar" horiz-adv-x="671" d="M300 -82Q286 -82 286 -68V0Q243 17 214 38T170 83H166L168 45V43Q168 31 155 31H59Q45 31 45 45V250Q45 264 59 264H169Q183 264 183 250V240Q183 238 190 220T217 180T268 141T351 123Q402 123
431 145T461 204Q461 235 432 252T358 284T262 312T166 351T93 414T63 515Q63 558 78 595T121 660T189 704T281 724V792Q281 806 294 806H388Q402 806 402 792V718Q428 709 448 692T482 656L479 683Q479 697 493 697H588Q602 697 602 683V474Q602 460 588 460H479Q465
460 465 474V491Q465 506 457 523T431 556T385 581T318 591Q270 591 243 570T216 515Q216 480 246 461T323 427T423 399T523 362T600 301T631 201Q631 163 619 127T579 62T510 15T408 -7V-68Q408 -82 394 -82H300Z" />
<glyph unicode="%" glyph-name="percent" horiz-adv-x="812" d="M186 359Q117 359 75 406T32 544Q32 587 44 621T76 677T125 712T186 724Q252 724 295 678T338 544Q338 454 297 407T186 359ZM186 441Q250 441 250 542Q250 643 186 643Q154 643 137 617T120 542Q120
493 137 467T186 441ZM627 -7Q558 -7 516 40T473 178Q473 221 485 255T517 311T566 346T627 358Q693 358 736 312T779 178Q779 88 738 41T627 -7ZM627 75Q691 75 691 176Q691 277 627 277Q595 277 578 251T561 176Q561 127 578 101T627 75ZM240 -74Q229 -74 229
-64Q229 -63 229 -63T230 -60L466 746Q469 760 484 760H554Q565 760 565 751Q565 748 564 746L328 -60Q325 -74 311 -74H240Z" />
<glyph unicode="&amp;" glyph-name="ampersand" horiz-adv-x="690" d="M510 0Q496 1 485 9T462 35L453 48Q422 22 383 8T292 -7Q230 -7 183 9T104 54T56 120T39 198Q39 244 54 278T91 336T141 377T193 405Q184 415 174 430T156 463T141 503T135 549Q135 588 148
620T185 675T243 711T320 724Q404 724 455 680T506 554Q506 520 494 492T461 442T416 401T365 369L454 245Q461 263 463 287T465 360Q465 374 479 374H647Q661 374 661 360V293Q661 279 647 279H576Q573 247 563 210T532 137L552 109H622Q636 109 636 95V14Q636
0 622 0H510ZM261 313Q247 306 233 297T206 274T185 245T177 206Q177 157 209 131T294 104Q324 104 347 111T387 138L261 313ZM306 451Q323 460 338 468T363 488T380 513T386 548Q386 575 371 594T327 614Q295 614 278 595T260 544Q260 514 276 491T306 451Z" />
<glyph unicode="&apos;" glyph-name="quotesingle" horiz-adv-x="214" d="M77 542Q61 542 61 558L54 734Q54 750 69 750H144Q160 750 160 734L152 558Q150 542 136 542H77Z" />
<glyph unicode="(" glyph-name="parenleft" horiz-adv-x="429" d="M396 -54Q396 -70 380 -70Q324 -70 264 -46T155 29T74 160T42 351Q42 462 73 540T154 669T264 742T380 765Q396 765 396 749V657Q396 641 380 641Q345 641 308 623T241 568T191 476T171 348Q171
274 190 219T240 128T308 73T380 55Q396 55 396 39V-54Z" />
<glyph unicode=")" glyph-name="parenright" horiz-adv-x="429" d="M33 38Q33 55 49 55Q84 55 121 73T188 127T238 219T258 348Q258 421 239 476T189 567T121 622T49 640Q41 640 37 645T33 656V749Q33 765 49 765Q105 765 165 742T274 669T355 541T387 351Q387
240 356 160T275 29T165 -46T49 -70Q33 -70 33 -54V38Z" />
<glyph unicode="*" glyph-name="asterisk" horiz-adv-x="440" d="M192 412Q176 412 176 428L195 533L139 444Q134 438 127 438Q119 438 115 443L78 482Q72 486 72 494Q72 500 78 505L169 563L61 543H58Q53 543 49 548T45 559V613Q45 629 57 629H61L168 606L77
668Q72 670 72 679Q72 687 77 691L115 729Q122 734 128 734Q135 734 138 729L199 640L176 746V748Q176 753 181 757T192 761H247Q253 761 258 758T263 748V746L243 639L302 729Q305 735 312 735Q317 735 325 729L363 691Q368 686 368 679Q368 671 363 668L274 606L379
630H381Q387 630 391 625T395 614V559Q395 543 379 543L275 560L363 505Q368 500 368 495Q368 489 363 482L325 444Q319 438 312 438Q304 438 301 444L242 531L263 428V425Q263 420 258 416T247 412H192Z" />
<glyph unicode="+" glyph-name="plus" horiz-adv-x="514" d="M207 62Q193 62 193 76V215H55Q39 215 39 231V324Q39 340 55 340H193V486Q193 500 207 500H312Q326 500 326 486V340H458Q475 340 475 324V231Q475 215 458 215H326V76Q326 62 312 62H207Z" />
<glyph unicode="," glyph-name="comma" horiz-adv-x="245" d="M88 -68Q88 -62 96 -62Q111 -62 124 -51T137 -18Q137 -14 137 -12T136 -7Q135 -5 135 -4Q133 -5 130 -6Q124 -8 117 -8Q91 -8 74 10T56 54Q56 80 74 98T118 117Q151 117 170 93T190 25Q190 -43 166
-74T96 -105Q88 -105 88 -100V-68Z" />
<glyph unicode="-" glyph-name="hyphen" horiz-adv-x="487" d="M80 202Q64 202 64 217V310Q64 326 80 326H407Q423 326 423 310V217Q423 202 407 202H80Z" />
<glyph unicode="." glyph-name="period" horiz-adv-x="236" d="M181 55Q181 28 163 10T118 -8Q92 -8 74 10T56 55Q56 81 74 99T118 117Q144 117 162 99T181 55Z" />
<glyph unicode="/" glyph-name="slash" horiz-adv-x="433" d="M42 -74Q31 -74 31 -66Q31 -62 32 -60L267 746Q272 760 285 760H390Q401 760 401 751Q401 748 400 746L165 -60Q160 -74 147 -74H42Z" />
<glyph unicode="0" glyph-name="zero" horiz-adv-x="707" d="M356 -7Q287 -7 231 17T134 89T71 205T49 363Q49 451 72 518T137 631T234 700T356 724Q422 724 477 701T573 631T636 518T659 363Q659 274 638 205T576 89T481 18T356 -7ZM356 122Q431 122 471 182T512
360Q512 476 472 536T355 596Q277 596 236 535T195 360Q195 245 238 184T356 122Z" />
<glyph unicode="1" glyph-name="one" horiz-adv-x="522" d="M68 0Q54 0 54 14V102Q54 116 68 116H223V565L106 483Q100 479 97 479Q90 479 86 486L34 561Q31 565 31 570Q31 575 37 581L227 713Q233 718 241 718H345Q359 718 359 704V116H498Q512 116 512 102V14Q512
0 498 0H68Z" />
<glyph unicode="2" glyph-name="two" horiz-adv-x="655" d="M63 0Q49 0 49 14V62Q49 121 66 164T111 239T175 293T248 333T321 366T385 399T430 438T447 490Q447 537 413 566T323 596Q259 596 225 563T190 479Q190 465 177 465H66Q52 465 52 479Q52 529 69 573T120
651T204 704T323 724Q392 724 443 705T527 655T576 583T593 500Q593 437 566 395T498 322T409 271T317 228T242 180T203 116H471V182Q471 196 485 196H585Q599 196 599 182V14Q599 0 585 0H63Z" />
<glyph unicode="3" glyph-name="three" horiz-adv-x="624" d="M449 365Q454 365 474 358T516 333T556 282T574 197Q574 152 555 115T499 50T413 8T300 -7Q227 -7 176 13T93 58T46 103T31 126Q31 131 36 136L116 209Q121 214 125 214Q130 214 135 208Q147 197 162
182T197 154T242 131T299 122Q356 122 391 149T427 221Q427 308 302 308H249Q236 308 236 322V401Q236 416 249 416H285Q305 416 327 419T367 433T398 460T410 506Q410 543 384 570T302 597Q250 597 221 569T192 503Q192 489 178 489H73Q59 489 59 503Q59 605 120
664T302 724Q371 724 419 705T498 656T543 592T557 526Q557 482 542 452T507 403T471 376T449 367V365Z" />
<glyph unicode="4" glyph-name="four" horiz-adv-x="614" d="M203 0Q189 0 189 14V102Q189 116 203 116H338V218H31Q17 218 17 232V302Q17 314 19 321T33 343L333 706Q340 714 344 716T355 718H460Q474 718 474 704V328H550Q564 328 564 314V232Q564 218 550 218H474V116H553Q567
116 567 102V14Q567 0 553 0H203ZM338 540L156 318H338V540Z" />
<glyph unicode="5" glyph-name="five" horiz-adv-x="629" d="M301 -7Q231 -7 180 13T96 57T48 102T32 126Q32 132 37 136L116 209Q123 214 126 214Q131 214 136 208Q147 196 161 182T195 154T241 131T300 122Q366 122 402 155T438 245Q438 292 404 324T296 357Q262
357 233 352T181 341T140 330T110 323Q100 323 91 328T82 355V709Q82 722 96 722H531Q544 722 544 709V550Q544 536 531 536H430Q417 536 417 550V602H220V455Q237 458 266 464T333 470Q397 470 444 453T523 404T569 330T585 236Q585 185 566 141T509 63T420 12T301
-7Z" />
<glyph unicode="6" glyph-name="six" horiz-adv-x="661" d="M366 465Q430 465 476 448T553 401T598 328T613 236Q613 186 595 142T543 65T457 13T340 -7Q274 -7 221 17T129 87T70 202T49 359Q49 449 71 517T135 631T232 700T356 724Q416 724 461 709T536 666T581
602T596 522Q596 509 582 509H477Q463 509 463 522Q463 534 457 547T437 572T403 590T356 598Q287 598 249 554T200 426Q211 431 228 438T267 451T314 461T366 465ZM339 122Q402 122 434 155T467 242Q467 265 459 285T435 320T392 343T329 352Q280 352 246 339T197
318Q203 225 238 174T339 122Z" />
<glyph unicode="7" glyph-name="seven" horiz-adv-x="573" d="M202 0Q188 0 188 14Q188 118 203 189T240 310T289 394T339 459T380 523T400 602H151V524Q151 510 137 510H37Q23 510 23 524V704Q23 718 37 718H546Q559 718 559 704V652Q559 588 542 544T499 462T443
387T388 301T345 183T329 15Q329 0 315 0H202Z" />
<glyph unicode="8" glyph-name="eight" horiz-adv-x="655" d="M482 380Q486 380 506 371T549 342T590 288T608 207Q608 163 591 124T538 56T450 10T328 -7Q259 -7 206 10T118 56T64 124T46 207Q46 255 64 288T104 341T147 371T172 380V383Q168 383 153 390T120
414T88 460T74 532Q74 563 87 597T131 659T209 705T327 724Q397 724 445 706T524 659T567 597T580 532Q580 489 566 461T535 415T502 390T482 383V380ZM317 323Q250 323 221 294T192 222Q192 172 228 143T329 113Q393 113 427 142T462 222Q462 243 455 261T433
293T395 315T339 323H317ZM436 508Q436 547 410 575T326 603Q270 603 244 575T218 508Q218 479 228 461T255 433T291 420T327 416Q344 416 363 419T399 433T425 461T436 508Z" />
<glyph unicode="9" glyph-name="nine" horiz-adv-x="660" d="M294 252Q230 252 184 269T107 316T62 389T47 481Q47 531 65 575T117 652T203 704T320 724Q386 724 439 700T531 630T590 515T611 358Q611 268 589 200T525 86T428 17T304 -7Q244 -7 200 8T125 51T80
115T65 195Q65 208 79 208H183Q197 208 197 195Q197 183 204 170T224 145T258 127T305 119Q372 119 410 163T459 291Q448 286 431 279T393 266T346 256T294 252ZM321 595Q258 595 226 562T194 475Q194 428 226 397T331 365Q379 365 413 377T462 398Q457 492 422
543T321 595Z" />
<glyph unicode=":" glyph-name="colon" horiz-adv-x="253" d="M189 55Q189 28 171 10T126 -8Q100 -8 82 10T64 55Q64 81 82 99T126 117Q152 117 170 99T189 55ZM189 425Q189 399 171 381T126 363Q100 363 82 381T64 425Q64 451 82 469T126 488Q152 488 170 470T189 425Z" />
<glyph unicode=";" glyph-name="semicolon" horiz-adv-x="268" d="M194 425Q194 399 176 381T130 363Q104 363 86 381T68 425Q68 451 86 469T130 488Q157 488 175 470T194 425ZM100 -68Q100 -62 107 -62Q123 -62 135 -51T148 -18Q148 -14 148 -12T147 -7Q146 -5
146 -4Q145 -5 142 -6Q136 -8 128 -8Q103 -8 86 10T68 54Q68 80 86 98T130 117Q163 117 182 93T202 25Q202 -41 177 -71T107 -101Q100 -101 100 -96V-68Z" />
<glyph unicode="&lt;" glyph-name="less" horiz-adv-x="482" d="M51 220Q43 224 39 231T35 245V268Q35 275 39 282T51 293L399 457Q405 459 406 459Q415 459 415 449V376Q415 368 411 361T399 351L199 256L399 162Q406 159 410 152T415 137V64Q415 54 406 54Q405
54 399 56L51 220Z" />
<glyph unicode="=" glyph-name="equal" horiz-adv-x="513" d="M83 313Q68 313 68 329V421Q68 428 72 433T83 438H430Q437 438 441 433T446 421V329Q446 313 430 313H83ZM83 79Q68 79 68 95V187Q68 203 83 203H430Q446 203 446 187V95Q446 79 430 79H83Z" />
<glyph unicode="&gt;" glyph-name="greater" horiz-adv-x="482" d="M447 245Q447 238 443 231T431 220L83 56Q77 54 76 54Q67 54 67 64V137Q67 145 71 152T83 162L283 256L83 351Q76 354 72 361T67 376V449Q67 459 76 459Q77 459 83 457L431 293Q439 289 443 282T447
268V245Z" />
<glyph unicode="?" glyph-name="question" horiz-adv-x="568" d="M196 132Q182 132 182 146Q182 205 197 245T234 315T283 364T332 403T370 442T385 493Q385 540 359 568T285 597Q253 597 231 587T196 558T176 514T170 459Q170 445 156 445H46Q32 445 32 459Q32
513 44 561T86 645T164 702T285 723Q348 723 394 704T471 654T517 583T532 499Q532 449 516 415T476 355T423 309T371 266T330 215T314 146Q314 132 300 132H196ZM337 -13Q337 -31 331 -46T313 -72T286 -90T254 -97Q219 -97 195 -73T170 -13Q170 4 176 19T194 45T221
63T254 70Q289 70 313 46T337 -13Z" />
<glyph unicode="@" glyph-name="at" horiz-adv-x="801" d="M646 -56Q647 -59 647 -64Q647 -71 640 -74Q612 -89 576 -100Q545 -110 503 -118T406 -126Q331 -126 266 -100T152 -27T75 85T47 230Q47 316 79 388T165 513T290 595T440 625Q516 625 576 603T679 542T743
451T765 340Q765 272 743 222T684 137T602 85T509 68Q483 68 472 75T461 101V106L462 120Q461 119 456 111T439 92T409 74T366 65Q343 65 319 74T274 103T242 156T229 235Q229 283 245 322T288 388T350 429T424 444Q445 444 459 440T483 429T496 418T502 410L504
423Q507 434 517 434H567Q578 434 578 423V420L545 156H553Q577 156 598 169T635 207T660 264T669 336Q669 378 654 413T609 472T537 511T440 525Q374 525 321 501T231 435T173 340T153 230Q153 168 174 121T230 41T311 -9T407 -26Q458 -26 494 -21T554 -7Q581
1 600 12Q603 15 607 15Q614 15 617 7L646 -56ZM484 319Q484 321 481 328T472 344T454 359T426 366Q405 366 386 358T352 333T329 292T320 237Q320 191 343 173T393 154Q406 154 419 159T443 174T462 196T472 222L484 319Z" />
<glyph unicode="A" glyph-name="A" horiz-adv-x="730" d="M464 0Q450 0 450 14V102Q450 116 464 116H529L489 226H255L214 116H281Q295 116 295 102V14Q295 0 281 0H13Q-1 0 -1 14V102Q-1 116 13 116H80L264 602H196Q182 602 182 616V704Q182 718 196 718H386Q417
718 431 705T459 661L666 116H732Q746 116 746 102V14Q746 0 732 0H464ZM375 541H369L293 325H453L375 541Z" />
<glyph unicode="B" glyph-name="B" horiz-adv-x="685" d="M59 0Q45 0 45 14V102Q45 116 59 116H128V602H59Q45 602 45 616V704Q45 718 59 718H392Q440 718 480 704T548 663T592 600T608 518Q608 470 587 433T529 370Q592 348 619 306T647 207Q647 0 395 0H59ZM378
116Q438 116 473 142T508 220Q508 266 475 289T380 313H264V116H378ZM363 417Q405 417 437 438T469 505Q469 532 460 550T436 580T400 597T356 603H264V417H363Z" />
<glyph unicode="C" glyph-name="C" horiz-adv-x="760" d="M719 200Q725 194 725 189Q725 183 722 179Q718 171 701 141T646 78T547 19T395 -7Q322 -7 258 18T146 91T70 207T42 363Q42 452 70 519T147 632T257 701T385 724Q427 724 460 716T517 695T557 667T585
636L583 704V706Q583 718 596 718H692Q705 718 705 704V466Q705 452 692 452H582Q568 452 568 466V475Q568 492 556 513T522 552T468 582T395 595Q353 595 316 580T250 536T205 462T188 360Q188 303 206 259T255 184T325 138T405 122Q448 122 481 132T538 156T578
188T606 220T623 245T633 255Q637 255 642 252L719 200Z" />
<glyph unicode="D" glyph-name="D" horiz-adv-x="741" d="M59 0Q45 0 45 14V102Q45 116 59 116H128V602H59Q45 602 45 616V704Q45 718 59 718H332Q408 718 475 694T592 624T671 510T700 354Q700 271 674 206T604 94T500 24T372 0H59ZM321 116Q376 116 419 129T491
170T536 244T552 352Q552 477 491 539T312 602H264V116H321Z" />
<glyph unicode="E" glyph-name="E" horiz-adv-x="686" d="M59 0Q45 0 45 14V102Q45 116 59 116H128V602H59Q45 602 45 616V704Q45 718 59 718H616Q630 718 630 704V506Q630 492 616 492H516Q502 492 502 506V602H264V418H460Q474 418 474 404V316Q474 302 460
302H264V116H501V212Q501 226 515 226H616Q629 226 629 212V14Q629 0 616 0H59Z" />
<glyph unicode="F" glyph-name="F" horiz-adv-x="642" d="M59 0Q45 0 45 14V102Q45 116 59 116H128V602H59Q45 602 45 616V704Q45 718 59 718H609Q623 718 623 704V506Q623 492 609 492H508Q495 492 495 506V602H264V418H453Q467 418 467 404V316Q467 302 453
302H264V116H384Q398 116 398 102V14Q398 0 384 0H59Z" />
<glyph unicode="G" glyph-name="G" horiz-adv-x="778" d="M615 0Q601 0 601 14L602 68Q570 38 521 16T397 -7Q323 -7 259 18T146 91T70 207T42 363Q42 452 71 519T148 632T259 701T387 724Q429 724 461 717T517 697T557 671T585 641L583 704V706Q583 718 596 718H692Q705
718 705 704V471Q705 457 692 457H582Q568 457 568 471V482Q568 498 557 518T523 555T469 583T397 595Q354 595 316 579T250 533T205 459T188 360Q188 304 206 260T255 185T325 138T406 122Q440 122 468 128T519 145T558 169T587 195V247H410Q396 247 396 261V342Q396
356 410 356H704Q718 356 718 342V14Q718 0 704 0H615Z" />
<glyph unicode="H" glyph-name="H" horiz-adv-x="824" d="M491 0Q477 0 477 14V102Q477 116 491 116H560V302H264V116H333Q347 116 347 102V14Q347 0 333 0H59Q45 0 45 14V102Q45 116 59 116H128V602H59Q45 602 45 616V704Q45 718 59 718H333Q347 718 347 704V616Q347
602 333 602H264V415H560V602H491Q477 602 477 616V704Q477 718 491 718H765Q779 718 779 704V616Q779 602 765 602H696V116H765Q779 116 779 102V14Q779 0 765 0H491Z" />
<glyph unicode="I" glyph-name="I" horiz-adv-x="392" d="M59 0Q45 0 45 14V102Q45 116 59 116H128V602H59Q45 602 45 616V704Q45 718 59 718H333Q347 718 347 704V616Q347 602 333 602H264V116H333Q347 116 347 102V14Q347 0 333 0H59Z" />
<glyph unicode="J" glyph-name="J" horiz-adv-x="460" d="M222 602H153Q139 602 139 616V704Q139 718 153 718H427Q441 718 441 704V616Q441 602 427 602H358V297Q358 215 338 159T279 67T182 16T46 0Q33 0 33 14V102Q33 116 46 116Q97 116 131 127T185 160T213
213T222 285V602Z" />
<glyph unicode="K" glyph-name="K" horiz-adv-x="757" d="M595 0Q569 0 553 16T523 60L444 227Q440 234 435 241T422 255T403 264T373 268H264V116H354Q368 116 368 102V14Q368 0 354 0H59Q45 0 45 14V102Q45 116 59 116H128V602H59Q45 602 45 616V704Q45 718
59 718H313Q326 718 326 704V616Q326 602 313 602H264V378H329Q376 378 410 390T465 429T497 498T508 602H442Q428 602 428 616V704Q428 718 442 718H709Q723 718 723 704V616Q723 602 709 602H644Q643 501 614 431T529 322Q549 311 562 293T588 246L647 116H712Q727
116 727 102V14Q727 0 712 0H595Z" />
<glyph unicode="L" glyph-name="L" horiz-adv-x="639" d="M59 0Q45 0 45 14V102Q45 116 59 116H128V602H59Q45 602 45 616V704Q45 718 59 718H330Q347 718 347 702V618Q347 602 330 602H264V116H494V212Q494 226 508 226H608Q623 226 623 212V16Q623 9 618 5T606 0H59Z" />
<glyph unicode="M" glyph-name="M" horiz-adv-x="931" d="M619 0Q605 0 605 14V102Q605 116 619 116H666V483H664L525 102Q510 61 465 61Q419 61 404 102L266 483H264V116H312Q326 116 326 102V14Q326 0 312 0H59Q45 0 45 14V102Q45 116 59 116H128V602H59Q45
602 45 616V704Q45 718 59 718H254Q278 718 292 705T315 671L419 399Q427 378 435 356T449 315T459 286T463 274H468Q468 274 471 285T482 314T497 354T514 398L619 671Q627 692 641 705T681 718H872Q886 718 886 704V616Q886 602 872 602H803V116H872Q886 116
886 102V14Q886 0 872 0H619Z" />
<glyph unicode="N" glyph-name="N" horiz-adv-x="806" d="M589 0Q565 0 551 11T526 41L306 385Q298 398 291 411T278 436Q272 449 266 461H264V116H333Q347 116 347 102V14Q347 0 333 0H59Q45 0 45 14V102Q45 116 59 116H128V599H59Q45 599 45 612V704Q45 718
59 718H226Q252 718 265 704T290 671L499 342Q510 324 519 306T536 272T548 246T553 236H556V602H487Q473 602 473 616V704Q473 718 487 718H762Q776 718 776 704V616Q776 602 762 602H692V14Q692 0 678 0H589Z" />
<glyph unicode="O" glyph-name="O" horiz-adv-x="797" d="M399 -7Q323 -7 258 20T144 96T69 213T41 363Q41 452 72 519T153 632T268 701T399 724Q466 724 530 701T644 633T725 520T756 363Q756 277 729 209T653 92T540 19T399 -7ZM399 121Q441 121 479 138T547
186T593 262T610 360Q610 417 593 461T546 535T478 580T398 596Q357 596 319 581T252 535T205 461T187 360Q187 306 204 262T250 187T317 138T399 121Z" />
<glyph unicode="P" glyph-name="P" horiz-adv-x="652" d="M59 0Q45 0 45 14V102Q45 116 59 116H128V602H59Q45 602 45 616V704Q45 718 59 718H385Q439 718 484 700T562 650T613 573T631 475Q631 422 613 380T561 308T480 262T372 246H264V116H352Q366 116 366
102V14Q366 0 352 0H59ZM355 355Q427 355 459 385T492 474Q492 539 453 570T357 602H264V355H355Z" />
<glyph unicode="Q" glyph-name="Q" horiz-adv-x="797" d="M729 -105Q730 -107 730 -110Q730 -119 722 -122Q716 -125 703 -129T671 -138T629 -146T579 -150Q526 -150 484 -138T409 -108T351 -68T312 -28T289 3T282 15Q229 31 185 63T108 140T59 241T41 363Q41
452 72 519T153 632T268 701T399 724Q466 724 530 701T644 633T725 520T756 363Q756 283 732 219T666 107T567 31T441 -4Q442 -6 450 -11T476 -23T520 -34T585 -39Q626 -39 647 -35T685 -22Q691 -20 693 -20Q699 -20 703 -27L729 -105ZM399 122Q441 122 479 139T547
187T593 262T610 360Q610 417 593 461T546 535T478 580T398 596Q357 596 319 581T252 535T205 461T187 360Q187 306 204 262T250 187T317 139T399 122Z" />
<glyph unicode="R" glyph-name="R" horiz-adv-x="716" d="M560 0Q534 0 518 16T488 60L409 221Q401 238 388 253T348 268H264V116H352Q366 116 366 102V14Q366 0 352 0H59Q45 0 45 14V102Q45 116 59 116H128V602H59Q45 602 45 616V704Q45 718 59 718H388Q442 718
487 702T565 655T616 583T635 487Q635 416 603 368T511 295Q521 286 531 273T551 241L617 116H681Q695 116 695 102V14Q695 0 681 0H560ZM354 375Q423 375 459 399T496 483Q496 516 486 538T456 575T411 595T354 602H264V375H354Z" />
<glyph unicode="S" glyph-name="S" horiz-adv-x="680" d="M65 0Q51 0 51 14V252Q51 266 65 266H174Q188 266 188 252V239Q188 236 196 218T224 178T278 140T367 122Q423 122 451 144T480 201Q480 232 450 250T373 283T274 312T175 351T99 414T68 515Q68 560 84
598T131 664T205 708T305 724Q373 724 417 705T488 656L485 705V707Q485 718 499 718H594Q608 718 608 705V470Q608 456 594 456H484Q470 456 470 470V491Q470 506 462 524T437 557T391 584T324 595Q270 595 242 572T214 515Q214 489 232 472T280 442T348 419T425
398T503 371T571 333T619 278T637 201Q637 161 623 124T580 57T504 11T392 -7Q339 -7 300 6T233 37T191 71T172 94L174 14Q174 0 160 0H65Z" />
<glyph unicode="T" glyph-name="T" horiz-adv-x="685" d="M209 0Q193 0 193 16V100Q193 116 209 116H276V602H147V507Q147 500 143 495T131 490H35Q28 490 23 495T18 507V702Q18 709 23 713T35 718H650Q666 718 666 702V507Q666 500 662 495T650 490H554Q547 490
543 495T538 507V602H412V116H477Q493 116 493 100V16Q493 0 477 0H209Z" />
<glyph unicode="U" glyph-name="U" horiz-adv-x="759" d="M521 602H452Q438 602 438 616V704Q438 718 452 718H727Q741 718 741 704V616Q741 602 727 602H657V268Q657 199 638 148T582 62T495 10T381 -7Q318 -7 267 10T178 61T121 147T101 268V602H32Q18 602 18
616V704Q18 718 32 718H307Q321 718 321 704V616Q321 602 307 602H237V265Q237 238 243 212T266 166T311 134T381 122Q417 122 443 132T487 162T512 205T521 259V602Z" />
<glyph unicode="V" glyph-name="V" horiz-adv-x="743" d="M345 0Q316 0 302 13T276 56L64 602H2Q-12 602 -12 616V704Q-12 718 2 718H274Q288 718 288 704V616Q288 602 274 602H212L368 180H376L531 602H470Q455 602 455 616V704Q455 718 470 718H741Q756 718
756 704V616Q756 602 741 602H679L467 56Q455 26 442 13T400 0H345Z" />
<glyph unicode="W" glyph-name="W" horiz-adv-x="1022" d="M675 0Q646 0 631 12T607 56L512 467H507L415 56Q407 24 391 12T346 0H292Q263 0 248 12T224 56L66 602H8Q-6 602 -6 616V704Q-6 718 8 718H280Q294 718 294 704V616Q294 602 280 602H214L315 180H324L447
718H573L698 180H707L808 602H742Q728 602 728 616V704Q728 718 742 718H1014Q1028 718 1028 704V616Q1028 602 1014 602H954L798 56Q789 25 774 13T730 0H675Z" />
<glyph unicode="X" glyph-name="X" horiz-adv-x="783" d="M463 0Q449 0 449 14V102Q449 116 463 116H514L390 273L265 116H318Q332 116 332 102V14Q332 0 318 0H40Q26 0 26 14V102Q26 116 40 116H113L307 352L110 602H40Q26 602 26 616V704Q26 718 40 718H319Q332
718 332 704V616Q332 602 319 602H264L392 434L519 603H466Q453 603 453 617V705Q453 718 466 718H745Q759 718 759 705V617Q759 603 745 603H671L475 354L668 116H742Q756 116 756 102V14Q756 0 742 0H463Z" />
<glyph unicode="Y" glyph-name="Y" horiz-adv-x="692" d="M205 0Q192 0 192 14V102Q192 116 205 116H277V278Q275 280 258 308T213 382T149 484T73 602H5Q-9 602 -9 616V704Q-9 718 5 718H286Q300 718 300 704V616Q300 602 286 602H230L348 394H353L469 602H409Q395
602 395 616V704Q395 718 409 718H688Q702 718 702 704V616Q702 602 688 602H620Q581 542 545 485T480 382T433 309T413 278V116H485Q499 116 499 102V14Q499 0 485 0H205Z" />
<glyph unicode="Z" glyph-name="Z" horiz-adv-x="674" d="M66 0Q50 0 50 16V93Q50 104 58 117T77 143L441 602H178V515Q178 499 162 499H66Q50 499 50 515V702Q50 718 66 718H608Q624 718 624 702V635Q624 618 617 605T598 577L232 116H495V203Q495 219 512 219H608Q624
219 624 203V16Q624 0 608 0H66Z" />
<glyph unicode="[" glyph-name="bracketleft" horiz-adv-x="411" d="M107 -71Q93 -71 93 -57V752Q93 766 107 766L360 765Q377 765 377 749V656Q377 640 360 640H226V54H360Q377 54 377 38V-55Q377 -71 360 -71H107Z" />
<glyph unicode="\" glyph-name="backslash" horiz-adv-x="433" d="M400 -60Q401 -62 401 -66Q401 -74 390 -74H285Q272 -74 267 -60L32 746Q31 748 31 751Q31 760 42 760H147Q160 760 165 746L400 -60Z" />
<glyph unicode="]" glyph-name="bracketright" horiz-adv-x="411" d="M318 -57Q318 -71 304 -71H51Q34 -71 34 -55V38Q34 54 51 54H185V640H51Q34 640 34 656V749Q34 765 51 765L304 766Q318 766 318 752V-57Z" />
<glyph unicode="_" glyph-name="underscore" horiz-adv-x="624" d="M76 -146Q60 -146 60 -130V-38Q60 -22 76 -22H548Q564 -22 564 -38V-130Q564 -146 548 -146H76Z" />
<glyph unicode="`" glyph-name="grave" horiz-adv-x="328" d="M250 560Q244 554 237 554Q231 554 227 558L35 706Q29 710 29 718Q29 721 33 729L89 795Q93 801 102 801Q107 801 112 798L292 636Q298 631 298 624Q298 617 294 613L250 560Z" />
<glyph unicode="a" glyph-name="a" horiz-adv-x="563" d="M420 0Q373 0 373 46V85H371Q368 81 358 66T326 35T273 6T195 -7Q120 -7 75 31T29 135Q29 211 96 248T285 286H355V296Q355 342 330 362T258 383Q223 383 199 377T159 364T134 350T122 344H119Q111 344
107 350L57 413Q53 417 53 421Q53 425 58 430Q59 431 71 441T110 465T175 488T267 499Q315 499 356 488T426 453T471 389T488 293V106H537Q551 106 551 92V14Q551 0 537 0H420ZM355 216H294Q238 216 203 204T168 158Q168 129 188 115T243 101Q264 101 282 107T314
121T338 140T355 159V216Z" />
<glyph unicode="b" glyph-name="b" horiz-adv-x="600" d="M84 0Q70 0 70 14V612H21Q8 612 8 626V704Q8 718 21 718H184Q198 718 198 704V472Q198 471 198 464T196 448L194 426H198Q201 433 211 445T238 470T281 490T340 499Q392 499 433 481T504 429T548 349T564
248Q564 187 547 140T500 60T429 10T339 -7Q304 -7 278 1T233 21T205 45T191 66H189V14Q189 0 175 0H84ZM314 105Q368 105 400 144T433 249Q433 314 399 350T314 387Q291 387 270 379T234 353T209 309T199 248Q199 178 232 142T314 105Z" />
<glyph unicode="c" glyph-name="c" horiz-adv-x="564" d="M513 119Q519 111 519 107Q519 101 516 97Q512 91 497 74T455 39T387 7T294 -7Q241 -7 194 10T111 60T56 140T35 247Q35 308 56 355T110 434T187 482T276 499Q313 499 340 491T384 471T411 448T424 433H426L425
478V480Q425 492 438 492H507Q521 492 521 478V294Q521 280 507 280H423Q408 280 408 294V308Q408 323 400 337T378 362T344 379T299 386Q276 386 254 378T212 352T182 309T170 248Q170 213 181 187T211 142T254 115T305 105Q334 105 358 114T399 134T428 157T441
171Q446 178 453 178Q457 178 462 173L513 119Z" />
<glyph unicode="d" glyph-name="d" horiz-adv-x="620" d="M461 0Q414 0 414 46V74H412Q409 66 398 53T369 26T323 3T261 -7Q212 -7 171 10T100 59T53 139T36 248Q36 303 52 349T98 428T170 480T264 499Q298 499 322 491T363 471T389 447T402 428H404Q403 434 403
441Q402 447 402 454T402 469V612H353Q338 612 338 626V704Q338 718 353 718H516Q530 718 530 704V106H578Q592 106 592 92V14Q592 0 578 0H461ZM286 105Q335 105 368 141T401 248Q401 283 392 309T367 352T330 378T286 387Q235 387 201 351T167 249Q167 184 199
145T286 105Z" />
<glyph unicode="e" glyph-name="e" horiz-adv-x="554" d="M172 225Q175 194 187 172T218 134T258 112T305 105Q335 105 360 113T403 133T431 155T444 169Q448 175 455 175Q460 175 465 171L513 119Q519 111 519 107Q519 101 515 97Q511 91 496 74T454 39T387 7T294
-7Q241 -7 194 10T111 60T56 140T35 247Q35 308 57 355T114 434T193 482T282 499Q400 499 458 432T516 241Q516 225 500 225H172ZM389 297Q388 315 382 333T364 364T333 386T287 395Q241 395 212 372T174 297H389Z" />
<glyph unicode="f" glyph-name="f" horiz-adv-x="396" d="M53 0Q39 0 39 14V92Q39 106 53 106H102V386H52Q38 386 38 400V478Q38 492 52 492H102V536Q102 630 149 678T287 726Q326 726 353 716T397 692T423 668T431 656Q431 652 428 649L383 590Q377 584 372 584Q368
584 363 588T350 597T331 606T302 610Q267 610 251 589T235 535V492H362Q376 492 376 478V400Q376 386 362 386H235V106H318Q331 106 331 92V14Q331 0 318 0H53Z" />
<glyph unicode="g" glyph-name="g" horiz-adv-x="616" d="M270 -236Q222 -236 186 -227T125 -205T85 -180T64 -162Q56 -156 56 -148Q56 -144 59 -141L106 -74Q109 -69 115 -69Q122 -69 131 -77T157 -94T199 -112T264 -120Q327 -120 364 -94T402 -8V67Q398 59 388
47T361 22T318 1T259 -8Q207 -8 166 10T96 63T52 143T36 245Q36 306 53 353T100 433T171 483T261 500Q296 500 322 492T366 471T395 447T409 427H411L410 478Q410 492 424 492H574Q587 492 587 478V400Q587 386 574 386H528V-8Q528 -67 508 -109T453 -180T371 -222T270
-236ZM285 104Q308 104 329 113T366 139T391 183T401 244Q401 315 367 350T285 386Q231 386 199 348T167 243Q167 179 200 142T285 104Z" />
<glyph unicode="h" glyph-name="h" horiz-adv-x="606" d="M438 0Q391 0 391 46V280Q391 326 374 354T309 382Q282 382 265 372T238 350T225 328T221 318V106H264Q278 106 278 92V14Q278 0 264 0H40Q26 0 26 14V92Q26 106 40 106H89V612H40Q26 612 26 626V704Q26
718 40 718H207Q221 718 221 704V504Q221 489 219 468T214 435H217Q224 445 235 456T262 476T301 492T353 499Q393 499 425 486T478 450T511 394T523 323V106H573Q587 106 587 92V14Q587 0 573 0H438Z" />
<glyph unicode="i" glyph-name="i" horiz-adv-x="322" d="M52 0Q39 0 39 14V92Q39 106 52 106H101V386H52Q39 386 39 400V478Q39 492 52 492H220Q234 492 234 478V106H277Q291 106 291 92V14Q291 0 277 0H52ZM248 642Q248 624 242 609T224 583T197 565T164 558Q129
558 104 582T79 642Q79 677 104 702T164 727Q181 727 196 721T223 703T241 676T248 642Z" />
<glyph unicode="j" glyph-name="j" horiz-adv-x="293" d="M90 386H40Q26 386 26 400V478Q26 492 40 492H208Q222 492 222 478V-46Q222 -140 175 -188T37 -236Q-2 -236 -29 -226T-74 -202T-98 -178T-106 -166Q-106 -161 -102 -157L-59 -100Q-53 -94 -46 -94Q-40
-94 -35 -98T-23 -107T-6 -116T22 -120Q57 -120 73 -99T90 -45V386ZM235 642Q235 624 229 609T211 583T184 565T151 558Q116 558 91 582T66 642Q66 677 91 702T151 727Q168 727 183 721T210 703T228 676T235 642Z" />
<glyph unicode="k" glyph-name="k" horiz-adv-x="612" d="M487 0Q467 0 452 10T425 39L291 220L221 160V106H264Q278 106 278 92V14Q278 0 264 0H40Q26 0 26 14V92Q26 106 40 106H89V612H40Q26 612 26 626V704Q26 718 40 718H207Q221 718 221 704V272L351 386H318Q304
386 304 400V478Q304 492 318 492H543Q557 492 557 478V400Q557 386 543 386H491L379 292L518 106H577Q590 106 590 92V14Q590 0 577 0H487Z" />
<glyph unicode="l" glyph-name="l" horiz-adv-x="317" d="M43 0Q29 0 29 14V92Q29 106 43 106H92V612H43Q29 612 29 626V705Q29 719 43 719H205Q225 719 225 699V106H268Q282 106 282 92V14Q282 0 268 0H43Z" />
<glyph unicode="m" glyph-name="m" horiz-adv-x="914" d="M746 0Q699 0 699 46V280Q699 326 682 354T617 383Q596 383 581 376T557 360T542 342T534 326Q535 322 536 317T537 307V106H586Q600 106 600 92V14Q600 0 586 0H361Q348 0 348 14V92Q348 106 361 106H404V280Q404
326 387 354T322 383Q295 383 278 373T251 350T238 328T234 318V106H267Q281 106 281 92V14Q281 0 267 0H53Q39 0 39 14V92Q39 106 53 106H102V386H53Q39 386 39 400V478Q39 492 53 492H194Q205 492 210 488T216 471V413H219Q221 416 229 430T254 459T300 487T370
499Q424 499 460 477T514 417Q517 422 526 435T553 463T598 488T665 499Q705 499 736 486T788 450T820 394T831 323V106H881Q895 106 895 92V14Q895 0 881 0H746Z" />
<glyph unicode="n" glyph-name="n" horiz-adv-x="619" d="M451 0Q404 0 404 46V280Q404 326 387 354T322 383Q296 383 279 374T253 353T239 331T234 319V106H277Q291 106 291 92V14Q291 0 277 0H53Q39 0 39 14V92Q39 106 53 106H102V386H53Q39 386 39 400V478Q39
492 53 492H202Q216 492 216 478V414H219Q221 417 228 430T253 459T298 487T368 499Q408 499 439 486T492 450T525 394T537 323V106H586Q600 106 600 92V14Q600 0 586 0H451Z" />
<glyph unicode="o" glyph-name="o" horiz-adv-x="590" d="M294 -7Q235 -7 188 11T107 62T55 142T36 247Q36 305 55 352T108 431T190 481T295 499Q352 499 399 482T481 431T535 352T554 247Q554 189 536 142T483 62T401 11T294 -7ZM294 105Q349 105 384 143T419
248Q419 313 384 349T295 386Q242 386 207 350T171 248Q171 182 205 144T294 105Z" />
<glyph unicode="p" glyph-name="p" horiz-adv-x="617" d="M39 -226Q25 -226 25 -212V-133Q25 -119 39 -119H87V386H43Q29 386 29 400V478Q29 492 43 492H192Q206 492 206 478L205 427H208Q211 434 221 446T250 470T295 490T356 499Q405 499 446 482T517 433T564
353T581 245Q581 189 566 143T521 64T451 12T357 -7Q323 -7 298 0T256 18T228 40T215 59H212Q212 50 213 42Q214 35 214 29T215 17V-119H284Q298 -119 298 -133V-212Q298 -226 284 -226H39ZM331 104Q383 104 416 141T450 243Q450 309 418 347T331 386Q308 386 287
378T251 351T226 306T216 241Q216 206 226 181T252 138T288 113T331 104Z" />
<glyph unicode="q" glyph-name="q" horiz-adv-x="600" d="M333 -226Q319 -226 319 -212V-133Q319 -119 333 -119H402V20Q402 24 402 32T403 48Q404 58 405 68H402Q399 60 389 48T362 23T319 2T260 -7Q208 -7 167 11T96 63T52 143T36 245Q36 306 53 353T100 433T171
482T261 499Q296 499 322 491T366 471T395 447T409 428H411V478Q411 492 425 492H516Q530 492 530 478V-119H579Q592 -119 592 -133V-212Q592 -226 579 -226H333ZM286 105Q309 105 330 114T366 140T391 184T401 245Q401 316 368 351T286 387Q232 387 200 349T167
244Q167 179 201 142T286 105Z" />
<glyph unicode="r" glyph-name="r" horiz-adv-x="452" d="M53 0Q39 0 39 14V92Q39 106 53 106H102V386H53Q39 386 39 400V478Q39 492 53 492H202Q216 492 216 478V367H220Q234 403 260 432Q283 456 321 476T422 497Q438 497 438 481V381Q438 365 422 365H388Q355
365 327 354T278 323T246 279T234 228V106H277Q291 106 291 92V14Q291 0 277 0H53Z" />
<glyph unicode="s" glyph-name="s" horiz-adv-x="513" d="M282 -7Q247 -7 220 1T175 20T146 40T135 53H133Q133 44 134 37Q134 30 134 24T135 16Q135 0 119 0H57Q40 0 40 16V169Q40 185 56 185H129Q145 185 145 169V159Q153 141 168 128Q181 116 202 107T258 97Q293
97 312 109T332 144Q332 162 312 172T261 190T195 207T129 232T78 276T57 348Q57 414 103 456T234 499Q287 499 319 484T371 445H373Q372 453 371 460Q370 465 370 470T370 476Q370 492 387 492H444Q460 492 460 476V324Q460 317 455 313T443 308H370Q354 308 354
324V333Q354 343 348 354T330 374T299 388T255 394Q226 394 207 382T188 345Q188 323 209 312T262 293T331 277T400 252T453 209T475 137Q475 111 465 85T432 39T373 6T282 -7Z" />
<glyph unicode="t" glyph-name="t" horiz-adv-x="410" d="M407 72Q410 67 410 63Q410 55 404 48Q397 42 386 33T359 15T320 0T268 -7Q178 -7 131 41T83 183V386H35Q19 386 19 402V476Q19 492 35 492H83V604Q83 620 99 620H200Q216 620 216 604V492H341Q357 492
357 476V402Q357 386 341 386H216V184Q216 151 232 130T283 109Q300 109 311 113T329 122T341 131T351 135Q359 135 364 129L407 72Z" />
<glyph unicode="u" glyph-name="u" horiz-adv-x="607" d="M449 0Q403 0 403 46V78H400Q398 74 392 61T370 32T328 5T259 -7Q218 -7 186 6T131 42T96 98T83 169V386H33Q20 386 20 400V478Q20 492 33 492H169Q216 492 216 446V212Q216 166 233 138T298 109Q324 109
341 118T368 139T382 161T386 173V386H342Q328 386 328 400V478Q328 492 342 492H504Q518 492 518 478V106H567Q581 106 581 92V14Q581 0 567 0H449Z" />
<glyph unicode="v" glyph-name="v" horiz-adv-x="613" d="M239 0Q223 0 217 5T205 26L74 386H23Q9 386 9 400V478Q9 492 23 492H248Q261 492 261 478V400Q261 386 248 386H213L306 118H308L402 386H365Q352 386 352 400V478Q352 492 365 492H592Q606 492 606 478V400Q606
386 592 386H539L407 26Q401 10 396 5T373 0H239Z" />
<glyph unicode="w" glyph-name="w" horiz-adv-x="858" d="M524 0Q490 0 486 31L430 287H428L372 31Q368 0 334 0H227Q209 0 202 7T189 31L75 386H23Q10 386 10 400V478Q10 492 23 492H250Q264 492 264 478V400Q264 386 250 386H212L283 118H285L355 386H334Q321
386 321 400V478Q321 492 334 492H524Q538 492 538 478V400Q538 386 524 386H505L574 118H576L646 386H609Q595 386 595 400V478Q595 492 609 492H835Q849 492 849 478V400Q849 386 835 386H783L669 31Q664 15 656 8T631 0H524Z" />
<glyph unicode="x" glyph-name="x" horiz-adv-x="597" d="M329 0Q315 0 315 14V92Q315 106 329 106H362L277 194L205 106H227Q241 106 241 92V14Q241 0 227 0H49Q34 0 34 14V92Q34 106 49 106H91L217 252L86 386H49Q35 386 35 400V478Q35 492 49 492H268Q282 492
282 478V400Q282 386 268 386H233L321 295L391 385H370Q356 385 356 399V478Q356 492 370 492H548Q562 492 562 478V399Q562 385 548 385H505L383 237L513 106H548Q562 106 562 92V14Q562 0 548 0H329Z" />
<glyph unicode="y" glyph-name="y" horiz-adv-x="589" d="M518 -8Q518 -67 498 -109T442 -180T360 -222T259 -236Q211 -236 175 -227T114 -205T74 -180T53 -162Q46 -157 46 -148Q46 -143 48 -141L95 -74Q98 -69 104 -69Q111 -69 121 -77T147 -94T189 -111T254
-119Q285 -119 312 -113T359 -93T390 -58T402 -8V78H399Q397 74 391 61T369 32T327 5T258 -7Q217 -7 185 6T131 42T96 98T84 169L82 386H33Q19 386 19 400V478Q19 492 33 492H168Q215 492 215 446V212Q215 166 232 138T297 110Q323 110 340 119T367 139T381 161T385
173V386H342Q328 386 328 400V478Q328 492 342 492H504Q517 492 517 478L518 -8Z" />
<glyph unicode="z" glyph-name="z" horiz-adv-x="556" d="M60 0Q46 0 46 14V79Q46 99 51 107T68 125L344 386H149V321Q149 307 135 307H60Q46 307 46 321V478Q46 492 60 492H496Q510 492 510 478V418Q510 402 504 392T486 370L212 106H407V169Q407 183 421 183H496Q510
183 510 169V14Q510 0 496 0H60Z" />
<glyph unicode="{" glyph-name="braceleft" horiz-adv-x="395" d="M357 -56Q357 -72 341 -72Q294 -72 253 -64T180 -34T131 24T113 117V201Q113 229 106 248T87 281T65 300T44 306Q28 306 28 322V372Q28 388 44 388Q53 389 64 395T87 413T105 446T113 494V575Q113
631 131 668T180 726T252 756T341 765Q357 765 357 749V656Q357 640 341 640Q293 640 270 624T247 561V495Q247 461 237 439T216 403Q203 387 186 377V318Q203 308 216 292Q227 278 237 256T247 200V131Q247 84 270 69T341 53Q357 53 357 37V-56Z" />
<glyph unicode="|" glyph-name="bar" horiz-adv-x="317" d="M106 -131Q92 -131 92 -117V746Q92 760 106 760H211Q225 760 225 746V-117Q225 -131 211 -131H106Z" />
<glyph unicode="}" glyph-name="braceright" horiz-adv-x="395" d="M54 -72Q38 -72 38 -56V37Q38 53 54 53Q102 53 125 68T148 131V200Q148 233 157 255T178 292Q191 308 209 318V377Q191 387 178 403Q167 417 158 439T148 495V561Q148 608 125 624T54 640Q38
640 38 656V749Q38 765 54 765Q101 765 142 757T215 727T264 668T282 575V494Q282 466 289 446T308 414T331 395T351 388Q367 388 367 372V322Q367 306 351 306Q343 306 331 300T308 281T290 249T282 201V117Q282 61 264 25T215 -33T143 -63T54 -72Z" />
<glyph unicode="&#xa0;" glyph-name="space" horiz-adv-x="250" />
<glyph unicode="&#xa1;" glyph-name="exclamdown" horiz-adv-x="298" d="M190 344Q204 344 204 331L217 -254Q217 -268 203 -268H96Q82 -268 82 -254L95 331Q95 344 108 344H190ZM73 512Q73 544 95 566T150 589Q182 589 204 567T227 512Q227 480 205 458T150 435Q118
435 96 457T73 512Z" />
<glyph unicode="&#xa2;" glyph-name="cent" horiz-adv-x="595" d="M262 -14Q248 -14 248 0V55Q205 63 168 83T104 134T62 208T46 304Q46 358 62 401T107 475T171 526T248 552V622Q248 636 262 636H333Q347 636 347 622V546Q388 535 409 517T435 489H438L435 535Q435
548 449 548H518Q532 548 532 535V350Q532 336 518 336H433Q420 336 420 350V364Q420 379 412 393T389 418T354 435T310 442Q288 442 265 434T224 408T193 365T181 304Q181 269 192 243T222 198T265 171T316 161Q345 161 369 170T410 190T439 213T452 228Q458 234
464 234Q469 234 473 230L524 175Q530 169 530 162Q530 157 527 153Q524 147 511 133T476 102T422 72T347 52V0Q347 -14 333 -14H262Z" />
<glyph unicode="&#xa3;" glyph-name="sterling" horiz-adv-x="672" d="M336 239Q330 201 310 170T265 119H609Q623 119 623 106V14Q623 0 609 0H80Q65 0 65 14V99Q65 118 78 123Q83 126 100 133T137 154T172 188T193 239H56Q42 239 42 253V315Q42 329 56 329H164Q152
346 139 363T115 401T97 444T89 495Q89 541 106 583T157 656T244 705T365 724Q425 724 472 707T553 658T603 583T621 487V472Q621 458 607 458H494Q480 458 480 472V487Q480 535 449 566T365 598Q339 598 316 591T276 570T249 533T239 482Q239 459 248 440T270
402T297 367T322 329H516Q530 329 530 315V253Q530 239 516 239H336Z" />
<glyph unicode="&#xa4;" glyph-name="currency" horiz-adv-x="648" d="M323 93Q230 93 167 136L104 65Q99 59 91 59Q85 59 81 63L73 70Q67 74 67 82Q67 89 71 93L133 164Q101 197 83 243T65 347Q65 404 83 450T134 528L71 601Q67 605 67 611Q67 619 73 624L81
631Q85 635 91 635Q99 635 104 629L168 556Q232 599 324 599Q369 599 407 588T476 557L540 629Q544 635 552 635Q559 635 563 631L571 624Q577 619 577 611Q577 605 573 601L510 530Q544 497 563 451T582 347Q582 289 564 242T511 162L573 93Q577 89 577 82Q577
74 571 70L563 63Q559 59 552 59Q544 59 540 65L478 135Q413 93 323 93ZM323 205Q378 205 413 243T448 348Q448 413 412 449T324 486Q271 486 235 450T199 348Q199 282 233 244T323 205Z" />
<glyph unicode="&#xa5;" glyph-name="yen" horiz-adv-x="771" d="M307 291L271 351H149Q135 351 135 365V419Q135 433 149 433H220Q196 471 169 514T112 602H44Q30 602 30 616V704Q30 718 44 718H325Q339 718 339 704V616Q339 602 325 602H269L387 394H392L508
602H448Q434 602 434 616V704Q434 718 448 718H727Q741 718 741 704V616Q741 602 727 602H659Q630 557 602 514T550 433H620Q634 433 634 419V365Q634 351 620 351H499L461 291H572Q586 291 586 276V223Q586 209 572 209H452V116H524Q538 116 538 102V14Q538 0
524 0H244Q231 0 231 14V102Q231 116 244 116H316V209H197Q183 209 183 223V276Q183 291 197 291H307Z" />
<glyph unicode="&#xa6;" glyph-name="brokenbar" horiz-adv-x="320" d="M107 410Q94 410 94 424V746Q94 760 107 760H213Q227 760 227 746V424Q227 410 213 410H107ZM107 -131Q94 -131 94 -117V205Q94 219 107 219H213Q227 219 227 205V-117Q227 -131 213 -131H107Z" />
<glyph unicode="&#xa7;" glyph-name="section" horiz-adv-x="692" d="M640 201Q640 168 631 136T601 78Q619 58 629 33T640 -24Q640 -64 626 -101T583 -168T507 -214T395 -232Q344 -232 305 -220T238 -193T195 -162T175 -140L177 -211Q177 -225 163 -225H68Q54
-225 54 -211V30Q54 43 68 43H177Q191 43 191 30V17Q191 14 198 -4T225 -45T277 -84T361 -102Q414 -102 444 -80T475 -21Q475 9 445 26T370 57T273 85T176 124T101 188T71 290Q71 328 80 358T107 412Q90 432 81 457T71 515Q71 560 87 598T133 664T208 708T307 724Q376
724 420 705T490 656L488 705V707Q488 718 501 718H597Q611 718 611 705V470Q611 456 597 456H487Q473 456 473 470V491Q473 506 465 523T440 556T394 581T327 592Q278 592 250 571T222 515Q222 490 240 474T287 445T354 422T431 401T507 374T574 336T622 280T640
201ZM483 204Q483 232 460 250T399 282T317 308T228 337Q214 317 214 290Q214 260 237 241T296 207T378 181T467 153Q483 175 483 204Z" />
<glyph unicode="&#xa8;" glyph-name="dieresis" horiz-adv-x="347" d="M140 615Q140 589 122 572T78 554Q52 554 35 571T18 615Q18 641 35 659T78 677Q104 677 122 659T140 615ZM330 615Q330 589 312 572T268 554Q242 554 225 571T207 615Q207 641 224 659T268
677Q294 677 312 659T330 615Z" />
<glyph unicode="&#xa9;" glyph-name="copyright" horiz-adv-x="695" d="M645 348Q645 288 621 234T557 140T462 75T348 51Q288 51 234 75T140 139T75 234T51 348Q51 408 75 462T139 556T234 621T348 645Q408 645 462 621T556 557T621 462T645 348ZM572 348Q572
394 555 435T507 506T435 554T348 572Q301 572 261 555T189 507T141 435T123 348Q123 301 140 261T189 190T260 142T348 124Q394 124 435 141T506 189T554 260T572 348ZM480 266Q485 263 485 258Q485 256 478 243T454 214T411 187T346 175Q313 175 283 187T229
221T192 276T178 351Q178 393 191 425T228 480T282 515T346 527Q384 527 411 515T454 488T478 460T486 444Q486 439 481 436L436 404Q431 401 429 401Q425 401 424 405Q416 419 399 432T346 446Q314 446 288 422T262 352Q262 304 288 280T350 256Q374 256 388 262T410
276T423 290T431 297Q432 297 436 295L480 266Z" />
<glyph unicode="&#xaa;" glyph-name="ordfeminine" horiz-adv-x="358" d="M132 470Q94 470 71 490T47 544Q47 621 166 621H208V623Q208 641 198 651T162 661Q142 661 130 658T110 652T99 645T95 642Q91 642 89 646L63 681Q61 683 61 685Q61 687 64 689Q74 698
89 706Q102 713 121 718T166 724Q218 724 247 699T276 619V532H301Q308 532 308 525V482Q308 474 301 474H240Q217 474 217 498V512H216Q214 510 209 504T194 490T168 476T132 470ZM158 530Q177 530 189 537T208 553V584H170Q143 584 132 578T121 556Q121 530 158
530Z" />
<glyph unicode="&#xab;" glyph-name="guillemotleft" horiz-adv-x="600" d="M54 215Q47 220 43 227T38 241V266Q38 273 42 279T54 291L288 452Q292 455 297 455Q304 455 304 446V372Q304 365 300 358T288 346L152 253L288 160Q295 155 299 149T304 135V61Q304
51 296 51Q292 51 288 54L54 215ZM289 215Q273 225 273 241V266Q273 273 277 279T289 291L523 452Q527 455 531 455Q539 455 539 446V372Q539 365 534 358T523 346L387 253L523 160Q529 155 534 149T539 135V61Q539 51 531 51Q527 51 523 54L289 215Z" />
<glyph unicode="&#xac;" glyph-name="logicalnot" horiz-adv-x="649" d="M483 141Q469 141 469 155V305H74Q58 305 58 321V395Q58 411 74 411H562Q578 411 578 395V155Q578 141 564 141H483Z" />
<glyph unicode="&#xae;" glyph-name="registered" horiz-adv-x="695" d="M645 348Q645 288 621 234T557 140T462 75T348 51Q288 51 234 75T140 139T75 234T51 348Q51 408 75 462T139 556T234 621T348 645Q408 645 462 621T556 557T621 462T645 348ZM348 116Q396
116 438 134T511 183T561 257T579 348Q579 396 561 438T512 511T438 561T348 580Q300 580 258 562T184 512T134 438T115 348Q115 300 133 258T183 184T257 134T348 116ZM430 179Q420 179 415 185T405 201L354 297Q349 307 345 310T333 315H309V245H338Q344 245
344 240V185Q344 179 338 179H218Q213 179 213 185V240Q213 245 218 245H240V460H218Q213 460 213 466V521Q213 526 218 526H363Q414 526 445 499T477 417Q477 342 410 322Q412 320 415 314T423 302L454 246H488Q493 246 493 241V185Q493 179 488 179H430ZM360
374Q385 374 395 386T405 417Q405 435 394 447T360 460H309V374H360Z" />
<glyph unicode="&#xaf;" glyph-name="macron" horiz-adv-x="405" d="M45 550Q29 550 29 566V641Q29 657 45 657H360Q376 657 376 641V566Q376 550 360 550H45Z" />
<glyph unicode="&#xb0;" glyph-name="degree" horiz-adv-x="260" d="M129 416Q100 416 78 435T55 496Q55 530 76 552T129 574Q161 574 182 552T204 496Q204 455 182 436T129 416ZM129 463Q140 463 149 471T158 496Q158 510 150 518T129 527Q118 527 110 519T101
496Q101 479 109 471T129 463Z" />
<glyph unicode="&#xb1;" glyph-name="plusminus" horiz-adv-x="558" d="M229 191Q215 191 215 206V345H77Q61 345 61 361V453Q61 470 77 470H215V616Q215 630 229 630H334Q348 630 348 616V470H481Q497 470 497 453V361Q497 345 481 345H348V206Q348 191 334 191H229ZM77
20Q61 20 61 36V128Q61 144 77 144H481Q497 144 497 128V36Q497 20 481 20H77Z" />
<glyph unicode="&#xb2;" glyph-name="twosuperior" horiz-adv-x="404" d="M70 361Q61 361 61 369V401Q62 439 76 463T112 503T158 529T204 549T239 571T253 604Q253 628 239 640T198 652Q169 652 153 637T137 596Q137 589 130 589H70Q63 589 63 596Q63 621 71
644T97 684T139 712T198 723Q233 723 259 714T302 689T327 653T335 611Q335 580 323 559T291 524T248 499T204 478T168 457T147 428H269V458Q269 466 277 466H335Q343 466 343 458V369Q343 361 334 361H70Z" />
<glyph unicode="&#xb3;" glyph-name="threesuperior" horiz-adv-x="370" d="M180 358Q145 358 120 367T78 389T54 412T46 425Q46 428 48 429L90 468Q92 470 94 470Q96 470 99 467Q110 456 129 443T180 430Q208 430 224 440T240 472Q240 491 226 502T181 513H155Q148
513 148 520V564Q148 571 155 571H173Q183 571 193 573T211 579T224 592T229 613Q229 630 218 641T181 652Q159 652 146 642T133 614Q133 606 126 606H67Q59 606 59 614Q59 665 90 694T181 723Q216 723 240 714T280 690T303 658T310 625Q310 604 303 589T287 565T269
551T257 545Q260 544 270 540T291 526T310 500T319 460Q319 415 281 387T180 358Z" />
<glyph unicode="&#xb4;" glyph-name="acute" horiz-adv-x="328" d="M101 557Q95 553 90 553Q82 553 78 560L33 612Q29 616 29 622Q29 630 35 635L216 797Q220 801 226 801Q234 801 239 795L295 728Q298 723 298 718Q298 710 293 705L101 557Z" />
<glyph unicode="&#xb5;" glyph-name="mu" horiz-adv-x="615" d="M456 0Q410 0 410 46V78H407Q405 74 399 61T377 32T335 5T266 -7Q244 -7 222 -2V-212Q222 -226 208 -226H103Q90 -226 90 -212V386H40Q27 386 27 400V478Q27 492 40 492H176Q223 492 223 446V212Q223
166 240 138T305 109Q331 109 348 118T375 139T389 161T393 173V386H349Q335 386 335 400V478Q335 492 349 492H511Q525 492 525 478V106H574Q588 106 588 92V14Q588 0 574 0H456Z" />
<glyph unicode="&#xb6;" glyph-name="paragraph" horiz-adv-x="777" d="M539 -78Q526 -78 526 -64V599H458V-64Q458 -78 444 -78H332Q318 -78 318 -64V236H278Q224 236 179 250T102 293T51 366T33 473Q33 534 51 580T100 657T175 703T268 718H698Q711 718 711
704V612Q711 599 698 599H665V-64Q665 -78 651 -78H539Z" />
<glyph unicode="&#xb7;" glyph-name="periodcentered" horiz-adv-x="246" d="M185 305Q185 278 167 260T123 242Q96 242 78 260T60 305Q60 331 78 349T123 367Q149 367 167 349T185 305Z" />
<glyph unicode="&#xb8;" glyph-name="cedilla" horiz-adv-x="246" d="M125 -161Q106 -161 90 -157T63 -148T44 -138T36 -132Q30 -129 30 -121Q30 -116 33 -111L45 -91Q49 -85 57 -85Q60 -85 64 -87T74 -93T90 -98T114 -101Q144 -101 144 -81Q144 -69 135 -66T113
-61T92 -58T82 -49Q82 -48 84 -42L105 18H164L151 -21Q154 -21 164 -22T187 -29T208 -47T217 -81Q217 -118 192 -139T125 -161Z" />
<glyph unicode="&#xb9;" glyph-name="onesuperior" horiz-adv-x="343" d="M77 362Q68 362 68 370V421Q68 429 77 429H151V636L91 593Q90 592 87 592Q84 592 81 595L51 638Q49 640 49 641Q49 644 53 648L152 719Q156 721 163 721H224Q231 721 231 713V429H291Q299
429 299 421V370Q299 362 291 362H77Z" />
<glyph unicode="&#xba;" glyph-name="ordmasculine" horiz-adv-x="329" d="M165 471Q141 471 119 480T81 505T54 545T44 599Q44 629 54 652T80 691T119 715T165 724Q189 724 210 716T248 691T275 652T285 599Q285 570 276 546T250 506T211 480T165 471ZM165 532Q188
532 206 549T224 598Q224 630 206 647T165 664Q142 664 123 647T104 598Q104 566 122 549T165 532Z" />
<glyph unicode="&#xbb;" glyph-name="guillemotright" horiz-adv-x="600" d="M311 54Q306 51 303 51Q295 51 295 61V135Q295 142 300 148T311 160L448 253L311 346Q305 351 300 358T295 372V446Q295 455 303 455Q306 455 311 452L546 291Q552 286 557 280T562
266V241Q562 234 558 227T546 215L311 54ZM77 54Q72 51 69 51Q61 51 61 61V135Q61 142 65 148T77 160L213 253L77 346Q70 351 66 358T61 372V446Q61 455 69 455Q72 455 77 452L311 291Q318 286 322 280T327 266V241Q327 234 323 227T311 215L77 54Z" />
<glyph unicode="&#xbc;" glyph-name="onequarter" horiz-adv-x="709" d="M192 -74Q181 -74 181 -66Q181 -62 182 -60L417 746Q422 760 435 760H508Q519 760 519 751Q519 749 519 749T518 746L282 -60Q277 -74 265 -74H192ZM44 362Q35 362 35 370V421Q35 429 44
429H118V636L58 593Q57 592 54 592Q51 592 48 595L18 638Q16 640 16 641Q16 644 20 648L119 719Q123 721 130 721H190Q198 721 198 713V429H257Q266 429 266 421V370Q266 362 257 362H44ZM498 0Q491 0 491 8V60Q491 67 498 67H565V110H408Q401 110 401 117V155Q401
161 402 164T409 175L563 353Q566 358 568 358T574 359H638Q645 359 645 352V172H680Q688 172 688 165V117Q688 110 680 110H645V67H678Q685 67 685 60V8Q685 0 678 0H498ZM565 263L478 163H565V263Z" />
<glyph unicode="&#xbd;" glyph-name="onehalf" horiz-adv-x="763" d="M360 151L298 -60Q295 -74 281 -74H208Q197 -74 197 -65Q197 -62 198 -60L277 211H202Q193 211 193 219V267Q193 291 206 303T236 323T266 339T281 363Q281 371 289 376T301 384L297 387Q289
387 283 405T271 440H305Q313 453 325 462T355 476L434 746Q437 760 452 760H524Q535 760 535 751Q535 748 534 746L455 474Q476 471 489 464T503 443Q503 422 495 410T474 389T447 375T422 363L417 347H477Q479 347 479 350T480 355Q480 352 480 333T481 293T483
254T485 237H554Q563 237 563 229V159Q563 151 554 151H360ZM351 526Q351 506 340 495T314 477T286 462T270 443Q268 453 267 460T265 467V465Q265 464 261 460T250 452T239 445T233 442Q232 441 224 441Q219 441 215 441T211 443Q210 443 206 448T198 459T190
470T186 477V481Q186 498 199 514T242 530Q258 530 282 534T325 538Q336 538 343 536T351 526ZM419 332Q416 332 414 334L402 296H410Q411 297 413 302T419 314Q423 321 426 330Q426 332 419 332ZM271 440H270V443Q271 442 271 440Z" />
<glyph unicode="&#xbe;" glyph-name="threequarters" horiz-adv-x="746" d="M227 -74Q216 -74 216 -65Q216 -62 217 -60L452 746Q457 760 471 760H543Q554 760 554 752Q554 748 553 746L317 -60Q314 -74 300 -74H227ZM533 0Q526 0 526 8V60Q526 67 533 67H601V110H443Q436
110 436 117V155Q436 161 437 164T444 175L598 353Q601 358 603 358T609 359H673Q681 359 681 352V172H716Q723 172 723 165V117Q723 110 716 110H681V67H713Q720 67 720 60V8Q720 0 713 0H533ZM147 358Q112 358 87 367T45 389T21 412T13 425Q13 428 15 429L57
468Q59 470 61 470Q63 470 66 467Q77 456 96 443T147 430Q175 430 191 440T207 472Q207 491 193 502T148 513H122Q115 513 115 520V564Q115 571 122 571H140Q150 571 160 573T178 579T191 592T196 613Q196 630 185 641T148 652Q126 652 113 642T100 614Q100 606
93 606H34Q26 606 26 614Q26 665 57 694T148 723Q183 723 207 714T247 690T270 658T277 625Q277 604 270 589T254 565T236 551T224 545Q227 544 237 540T258 526T277 500T286 460Q286 415 248 387T147 358ZM601 263L513 163H601V263Z" />
<glyph unicode="&#xbf;" glyph-name="questiondown" horiz-adv-x="558" d="M367 270Q380 270 380 256Q380 197 365 157T328 87T279 38T230 -1T192 -41T177 -91Q177 -139 203 -167T277 -195Q309 -195 331 -185T366 -156T386 -112T392 -57Q392 -43 406 -43H516Q530
-43 530 -57Q530 -111 518 -159T476 -243T398 -301T277 -322Q214 -322 168 -303T91 -253T45 -182T30 -98Q30 -48 46 -14T86 46T139 92T191 136T232 187T248 256Q248 270 262 270H367ZM225 422Q225 439 231 454T249 481T276 499T309 506Q344 506 368 482T392 422Q392
387 368 363T309 339Q291 339 276 345T250 363T232 389T225 422Z" />
<glyph unicode="&#xc0;" glyph-name="Agrave" horiz-adv-x="730" d="M464 0Q450 0 450 14V102Q450 116 464 116H529L489 226H255L214 116H281Q295 116 295 102V14Q295 0 281 0H13Q-1 0 -1 14V102Q-1 116 13 116H80L264 602H196Q182 602 182 616V704Q182 718 196
718H386Q417 718 431 705T459 661L666 116H732Q746 116 746 102V14Q746 0 732 0H464ZM375 541H369L293 325H453L375 541ZM414 786Q408 780 401 780Q395 780 391 784L199 932Q193 936 193 944Q193 947 197 955L253 1021Q257 1027 266 1027Q271 1027 276 1024L456
862Q462 857 462 850Q462 843 458 839L414 786Z" />
<glyph unicode="&#xc1;" glyph-name="Aacute" horiz-adv-x="730" d="M464 0Q450 0 450 14V102Q450 116 464 116H529L489 226H255L214 116H281Q295 116 295 102V14Q295 0 281 0H13Q-1 0 -1 14V102Q-1 116 13 116H80L264 602H196Q182 602 182 616V704Q182 718 196
718H386Q417 718 431 705T459 661L666 116H732Q746 116 746 102V14Q746 0 732 0H464ZM375 541H369L293 325H453L375 541ZM381 783Q375 779 370 779Q362 779 358 786L313 838Q309 842 309 848Q309 856 315 861L496 1023Q500 1027 506 1027Q514 1027 519 1021L575
954Q578 949 578 944Q578 936 573 931L381 783Z" />
<glyph unicode="&#xc2;" glyph-name="Acircumflex" horiz-adv-x="730" d="M464 0Q450 0 450 14V102Q450 116 464 116H529L489 226H255L214 116H281Q295 116 295 102V14Q295 0 281 0H13Q-1 0 -1 14V102Q-1 116 13 116H80L264 602H196Q182 602 182 616V704Q182 718
196 718H386Q417 718 431 705T459 661L666 116H732Q746 116 746 102V14Q746 0 732 0H464ZM375 541H369L293 325H453L375 541ZM502 787Q497 781 491 781Q484 781 480 785L364 888L249 785Q245 781 238 781Q230 781 226 787L183 838Q179 842 179 848Q179 856 185
861L354 1012Q358 1016 364 1016Q371 1016 376 1011L544 861Q550 856 550 848Q550 842 546 838L502 787Z" />
<glyph unicode="&#xc3;" glyph-name="Atilde" horiz-adv-x="730" d="M464 0Q450 0 450 14V102Q450 116 464 116H529L489 226H255L214 116H281Q295 116 295 102V14Q295 0 281 0H13Q-1 0 -1 14V102Q-1 116 13 116H80L264 602H196Q182 602 182 616V704Q182 718 196
718H386Q417 718 431 705T459 661L666 116H732Q746 116 746 102V14Q746 0 732 0H464ZM375 541H369L293 325H453L375 541ZM528 933Q542 933 542 919Q542 856 517 819T436 781Q405 781 385 790T349 811T320 831T288 841Q271 841 262 831T253 787Q253 773 239 773H191Q177
773 177 787Q177 847 202 884T283 921Q313 921 333 911T368 890T398 868T430 858Q447 858 456 870T466 919Q466 933 480 933H528Z" />
<glyph unicode="&#xc4;" glyph-name="Adieresis" horiz-adv-x="730" d="M464 0Q450 0 450 14V102Q450 116 464 116H529L489 226H255L214 116H281Q295 116 295 102V14Q295 0 281 0H13Q-1 0 -1 14V102Q-1 116 13 116H80L264 602H196Q182 602 182 616V704Q182 718
196 718H386Q417 718 431 705T459 661L666 116H732Q746 116 746 102V14Q746 0 732 0H464ZM375 541H369L293 325H453L375 541ZM332 841Q332 815 314 798T270 780Q244 780 227 797T210 841Q210 867 227 885T270 903Q296 903 314 885T332 841ZM522 841Q522 815 504
798T460 780Q434 780 417 797T399 841Q399 867 416 885T460 903Q486 903 504 885T522 841Z" />
<glyph unicode="&#xc5;" glyph-name="Aring" horiz-adv-x="730" d="M464 0Q450 0 450 14V102Q450 116 464 116H529L489 226H255L214 116H281Q295 116 295 102V14Q295 0 281 0H13Q-1 0 -1 14V102Q-1 116 13 116H80L264 602H196Q182 602 182 616V704Q182 718 196
718H386Q417 718 431 705T459 661L666 116H732Q746 116 746 102V14Q746 0 732 0H464ZM375 541H369L293 325H453L375 541ZM400 808Q384 797 366 797Q343 797 325 814T306 858Q306 881 322 900T365 919Q388 919 407 901T426 857Q426 843 420 830T400 808ZM380 842Q387
846 387 857Q387 865 381 872T365 879Q357 879 351 873T345 859Q345 850 351 844T367 837Q375 837 380 842Z" />
<glyph unicode="&#xc6;" glyph-name="AE" horiz-adv-x="1033" d="M415 0Q401 0 401 14V102Q401 116 415 116H484V302H282L209 116H276Q290 116 290 102V14Q290 0 276 0H8Q-6 0 -6 14V102Q-6 116 8 116H73L269 602H202Q188 602 188 616V704Q188 718 202 718H972Q986
718 986 704V506Q986 492 972 492H872Q858 492 858 506V602H620V418H816Q830 418 830 404V316Q830 302 816 302H620V116H857V212Q857 226 871 226H971Q985 226 985 212V14Q985 0 971 0H415ZM484 602H404L328 418H484V602Z" />
<glyph unicode="&#xc7;" glyph-name="Ccedilla" horiz-adv-x="760" d="M387 -161Q368 -161 352 -157T325 -148T306 -138T298 -132Q292 -129 292 -121Q292 -116 295 -111L307 -91Q311 -85 319 -85Q322 -85 326 -87T336 -93T352 -98T376 -101Q406 -101 406 -81Q406
-69 397 -66T375 -61T354 -58T344 -49Q344 -48 346 -42L358 -5Q292 1 234 28T134 103T67 215T42 363Q42 452 70 519T147 632T257 701T385 724Q427 724 460 716T517 695T557 667T585 636L583 704V706Q583 718 596 718H692Q705 718 705 704V466Q705 452 692 452H582Q568
452 568 466V475Q568 492 556 513T522 552T468 582T395 595Q353 595 316 580T250 536T205 462T188 360Q188 303 206 259T255 184T325 138T405 122Q448 122 481 132T538 156T578 188T606 220T623 245T633 255Q637 255 642 252L719 200Q725 194 725 189Q725 183 722
179Q720 174 712 159T689 124T650 82T594 41T518 9T418 -6L413 -21Q416 -21 426 -22T449 -29T470 -47T479 -81Q479 -118 454 -139T387 -161Z" />
<glyph unicode="&#xc8;" glyph-name="Egrave" horiz-adv-x="686" d="M59 0Q45 0 45 14V102Q45 116 59 116H128V602H59Q45 602 45 616V704Q45 718 59 718H616Q630 718 630 704V506Q630 492 616 492H516Q502 492 502 506V602H264V418H460Q474 418 474 404V316Q474
302 460 302H264V116H501V212Q501 226 515 226H616Q629 226 629 212V14Q629 0 616 0H59ZM390 786Q384 780 377 780Q371 780 367 784L175 932Q169 936 169 944Q169 947 173 955L229 1021Q233 1027 242 1027Q247 1027 252 1024L432 862Q438 857 438 850Q438 843 434
839L390 786Z" />
<glyph unicode="&#xc9;" glyph-name="Eacute" horiz-adv-x="686" d="M321 783Q315 779 310 779Q302 779 298 786L253 838Q249 842 249 848Q249 856 255 861L436 1023Q440 1027 446 1027Q454 1027 459 1021L515 954Q518 949 518 944Q518 936 513 931L321 783ZM59
0Q45 0 45 14V102Q45 116 59 116H128V602H59Q45 602 45 616V704Q45 718 59 718H616Q630 718 630 704V506Q630 492 616 492H516Q502 492 502 506V602H264V418H460Q474 418 474 404V316Q474 302 460 302H264V116H501V212Q501 226 515 226H616Q629 226 629 212V14Q629
0 616 0H59Z" />
<glyph unicode="&#xca;" glyph-name="Ecircumflex" horiz-adv-x="686" d="M458 787Q453 781 447 781Q440 781 436 785L320 888L205 785Q201 781 194 781Q186 781 182 787L139 838Q135 842 135 848Q135 856 141 861L310 1012Q314 1016 320 1016Q327 1016 332 1011L500
861Q506 856 506 848Q506 842 502 838L458 787ZM59 0Q45 0 45 14V102Q45 116 59 116H128V602H59Q45 602 45 616V704Q45 718 59 718H616Q630 718 630 704V506Q630 492 616 492H516Q502 492 502 506V602H264V418H460Q474 418 474 404V316Q474 302 460 302H264V116H501V212Q501
226 515 226H616Q629 226 629 212V14Q629 0 616 0H59Z" />
<glyph unicode="&#xcb;" glyph-name="Edieresis" horiz-adv-x="686" d="M320 841Q320 815 302 798T258 780Q232 780 215 797T198 841Q198 867 215 885T258 903Q284 903 302 885T320 841ZM510 841Q510 815 492 798T448 780Q422 780 405 797T387 841Q387 867 404
885T448 903Q474 903 492 885T510 841ZM59 0Q45 0 45 14V102Q45 116 59 116H128V602H59Q45 602 45 616V704Q45 718 59 718H616Q630 718 630 704V506Q630 492 616 492H516Q502 492 502 506V602H264V418H460Q474 418 474 404V316Q474 302 460 302H264V116H501V212Q501
226 515 226H616Q629 226 629 212V14Q629 0 616 0H59Z" />
<glyph unicode="&#xcc;" glyph-name="Igrave" horiz-adv-x="392" d="M58 0Q44 0 44 14V102Q44 116 58 116H127V602H58Q44 602 44 616V704Q44 718 58 718H332Q346 718 346 704V616Q346 602 332 602H263V116H332Q346 116 346 102V14Q346 0 332 0H58ZM224 777Q218
771 211 771Q205 771 201 775L9 923Q3 927 3 935Q3 938 7 946L63 1012Q67 1018 76 1018Q81 1018 86 1015L266 853Q272 848 272 841Q272 834 268 830L224 777Z" />
<glyph unicode="&#xcd;" glyph-name="Iacute" horiz-adv-x="392" d="M59 0Q45 0 45 14V102Q45 116 59 116H128V602H59Q45 602 45 616V704Q45 718 59 718H333Q347 718 347 704V616Q347 602 333 602H264V116H333Q347 116 347 102V14Q347 0 333 0H59ZM205 773Q199
769 194 769Q186 769 182 776L137 828Q133 832 133 838Q133 846 139 851L320 1013Q324 1017 330 1017Q338 1017 343 1011L399 944Q402 939 402 934Q402 926 397 921L205 773Z" />
<glyph unicode="&#xce;" glyph-name="Icircumflex" horiz-adv-x="392" d="M59 0Q45 0 45 14V102Q45 116 59 116H128V602H59Q45 602 45 616V704Q45 718 59 718H333Q347 718 347 704V616Q347 602 333 602H264V116H333Q347 116 347 102V14Q347 0 333 0H59ZM339 787Q334
781 328 781Q321 781 317 785L201 888L86 785Q82 781 75 781Q67 781 63 787L20 838Q16 842 16 848Q16 856 22 861L191 1012Q195 1016 201 1016Q208 1016 213 1011L381 861Q387 856 387 848Q387 842 383 838L339 787Z" />
<glyph unicode="&#xcf;" glyph-name="Idieresis" horiz-adv-x="392" d="M59 0Q45 0 45 14V102Q45 116 59 116H128V602H59Q45 602 45 616V704Q45 718 59 718H333Q347 718 347 704V616Q347 602 333 602H264V116H333Q347 116 347 102V14Q347 0 333 0H59ZM169 841Q169
815 151 798T107 780Q81 780 64 797T47 841Q47 867 64 885T107 903Q133 903 151 885T169 841ZM359 841Q359 815 341 798T297 780Q271 780 254 797T236 841Q236 867 253 885T297 903Q323 903 341 885T359 841Z" />
<glyph unicode="&#xd0;" glyph-name="Eth" horiz-adv-x="741" d="M59 0Q45 0 45 14V102Q45 116 59 116H128V301H64Q48 301 48 317V391Q48 408 64 408H128V602H59Q45 602 45 616V704Q45 718 59 718H332Q408 718 475 694T592 624T671 510T700 354Q700 271 674 206T604
94T500 24T372 0H59ZM321 116Q376 116 419 129T493 170T539 244T555 352Q555 477 493 539T312 602H264V408H379Q395 408 395 391V317Q395 301 379 301H264V116H321Z" />
<glyph unicode="&#xd1;" glyph-name="Ntilde" horiz-adv-x="806" d="M589 0Q565 0 551 11T526 41L306 385Q298 398 291 411T278 436Q272 449 266 461H264V116H333Q347 116 347 102V14Q347 0 333 0H59Q45 0 45 14V102Q45 116 59 116H128V599H59Q45 599 45 612V704Q45
718 59 718H226Q252 718 265 704T290 671L499 342Q510 324 519 306T536 272T548 246T553 236H556V602H487Q473 602 473 616V704Q473 718 487 718H762Q776 718 776 704V616Q776 602 762 602H692V14Q692 0 678 0H589ZM581 933Q595 933 595 919Q595 856 570 819T489
781Q458 781 438 790T402 811T373 831T341 841Q324 841 315 831T306 787Q306 773 292 773H244Q230 773 230 787Q230 847 255 884T336 921Q366 921 386 911T421 890T451 868T483 858Q500 858 509 870T519 919Q519 933 533 933H581Z" />
<glyph unicode="&#xd2;" glyph-name="Ograve" horiz-adv-x="797" d="M399 -7Q323 -7 258 20T144 96T69 213T41 363Q41 452 72 519T153 632T268 701T399 724Q466 724 530 701T644 633T725 520T756 363Q756 277 729 209T653 92T540 19T399 -7ZM399 121Q441 121 479
138T547 186T593 262T610 360Q610 417 593 461T546 535T478 580T398 596Q357 596 319 581T252 535T205 461T187 360Q187 306 204 262T250 187T317 138T399 121ZM427 786Q421 780 414 780Q408 780 404 784L212 932Q206 936 206 944Q206 947 210 955L266 1021Q270
1027 279 1027Q284 1027 289 1024L469 862Q475 857 475 850Q475 843 471 839L427 786Z" />
<glyph unicode="&#xd3;" glyph-name="Oacute" horiz-adv-x="797" d="M333 783Q327 779 322 779Q314 779 310 786L265 838Q261 842 261 848Q261 856 267 861L448 1023Q452 1027 458 1027Q466 1027 471 1021L527 954Q530 949 530 944Q530 936 525 931L333 783ZM399
-7Q323 -7 258 20T144 96T69 213T41 363Q41 452 72 519T153 632T268 701T399 724Q466 724 530 701T644 633T725 520T756 363Q756 277 729 209T653 92T540 19T399 -7ZM399 121Q441 121 479 138T547 186T593 262T610 360Q610 417 593 461T546 535T478 580T398 596Q357
596 319 581T252 535T205 461T187 360Q187 306 204 262T250 187T317 138T399 121Z" />
<glyph unicode="&#xd4;" glyph-name="Ocircumflex" horiz-adv-x="797" d="M539 787Q534 781 528 781Q521 781 517 785L401 888L286 785Q282 781 275 781Q267 781 263 787L220 838Q216 842 216 848Q216 856 222 861L391 1012Q395 1016 401 1016Q408 1016 413 1011L581
861Q587 856 587 848Q587 842 583 838L539 787ZM399 -7Q323 -7 258 20T144 96T69 213T41 363Q41 452 72 519T153 632T268 701T399 724Q466 724 530 701T644 633T725 520T756 363Q756 277 729 209T653 92T540 19T399 -7ZM399 121Q441 121 479 138T547 186T593 262T610
360Q610 417 593 461T546 535T478 580T398 596Q357 596 319 581T252 535T205 461T187 360Q187 306 204 262T250 187T317 138T399 121Z" />
<glyph unicode="&#xd5;" glyph-name="Otilde" horiz-adv-x="797" d="M399 -7Q323 -7 258 20T144 96T69 213T41 363Q41 452 72 519T153 632T268 701T399 724Q466 724 530 701T644 633T725 520T756 363Q756 277 729 209T653 92T540 19T399 -7ZM399 121Q441 121 479
138T547 186T593 262T610 360Q610 417 593 461T546 535T478 580T398 596Q357 596 319 581T252 535T205 461T187 360Q187 306 204 262T250 187T317 138T399 121ZM586 933Q600 933 600 919Q600 856 575 819T494 781Q463 781 443 790T407 811T378 831T346 841Q329
841 320 831T311 787Q311 773 297 773H249Q235 773 235 787Q235 847 260 884T341 921Q371 921 391 911T426 890T456 868T488 858Q505 858 514 870T524 919Q524 933 538 933H586Z" />
<glyph unicode="&#xd6;" glyph-name="Odieresis" horiz-adv-x="797" d="M369 841Q369 815 351 798T307 780Q281 780 264 797T247 841Q247 867 264 885T307 903Q333 903 351 885T369 841ZM559 841Q559 815 541 798T497 780Q471 780 454 797T436 841Q436 867 453
885T497 903Q523 903 541 885T559 841ZM399 -7Q323 -7 258 20T144 96T69 213T41 363Q41 452 72 519T153 632T268 701T399 724Q466 724 530 701T644 633T725 520T756 363Q756 277 729 209T653 92T540 19T399 -7ZM399 121Q441 121 479 138T547 186T593 262T610 360Q610
417 593 461T546 535T478 580T398 596Q357 596 319 581T252 535T205 461T187 360Q187 306 204 262T250 187T317 138T399 121Z" />
<glyph unicode="&#xd7;" glyph-name="multiply" horiz-adv-x="493" d="M367 109Q362 104 356 104Q350 104 345 109L251 204L155 107Q148 102 144 102Q139 102 134 107L62 180Q56 186 56 191Q56 195 62 201L157 297L66 389Q61 394 61 400Q61 406 66 411L132 478Q136
482 142 482Q149 482 154 477L246 385L332 472Q339 477 343 477Q346 477 353 472L426 400Q430 395 430 389Q430 384 426 380L339 293L434 198Q438 190 438 186Q438 180 434 176L367 109Z" />
<glyph unicode="&#xd8;" glyph-name="Oslash" horiz-adv-x="797" d="M399 -7Q383 -7 368 -6T338 -2L327 -40Q324 -54 310 -54H251Q240 -54 240 -44Q240 -43 240 -43T241 -40L258 20Q210 40 170 73T102 150T57 247T41 363Q41 452 72 519T153 632T268 701T399 724Q431
724 463 718L477 766Q481 780 495 780H553Q564 780 564 772Q564 768 563 766L542 696Q587 678 626 648T694 576T739 481T756 363Q756 277 729 209T653 92T540 19T399 -7ZM188 360Q188 286 218 233T296 150L426 594Q419 595 412 595T398 596Q357 596 319 581T252
535T206 461T188 360ZM399 122Q441 122 479 139T546 187T592 262T609 360Q609 435 580 487T504 567L374 123Q380 122 386 122T399 122Z" />
<glyph unicode="&#xd9;" glyph-name="Ugrave" horiz-adv-x="759" d="M521 602H452Q438 602 438 616V704Q438 718 452 718H727Q741 718 741 704V616Q741 602 727 602H657V268Q657 199 638 148T582 62T495 10T381 -7Q318 -7 267 10T178 61T121 147T101 268V602H32Q18
602 18 616V704Q18 718 32 718H307Q321 718 321 704V616Q321 602 307 602H237V265Q237 238 243 212T266 166T311 134T381 122Q417 122 443 132T487 162T512 205T521 259V602ZM470 786Q464 780 457 780Q451 780 447 784L255 932Q249 936 249 944Q249 947 253 955L309
1021Q313 1027 322 1027Q327 1027 332 1024L512 862Q518 857 518 850Q518 843 514 839L470 786Z" />
<glyph unicode="&#xda;" glyph-name="Uacute" horiz-adv-x="759" d="M349 783Q343 779 338 779Q330 779 326 786L281 838Q277 842 277 848Q277 856 283 861L464 1023Q468 1027 474 1027Q482 1027 487 1021L543 954Q546 949 546 944Q546 936 541 931L349 783ZM521
602H452Q438 602 438 616V704Q438 718 452 718H727Q741 718 741 704V616Q741 602 727 602H657V268Q657 199 638 148T582 62T495 10T381 -7Q318 -7 267 10T178 61T121 147T101 268V602H32Q18 602 18 616V704Q18 718 32 718H307Q321 718 321 704V616Q321 602 307
602H237V265Q237 238 243 212T266 166T311 134T381 122Q417 122 443 132T487 162T512 205T521 259V602Z" />
<glyph unicode="&#xdb;" glyph-name="Ucircumflex" horiz-adv-x="759" d="M520 787Q515 781 509 781Q502 781 498 785L382 888L267 785Q263 781 256 781Q248 781 244 787L201 838Q197 842 197 848Q197 856 203 861L372 1012Q376 1016 382 1016Q389 1016 394 1011L562
861Q568 856 568 848Q568 842 564 838L520 787ZM521 602H452Q438 602 438 616V704Q438 718 452 718H727Q741 718 741 704V616Q741 602 727 602H657V268Q657 199 638 148T582 62T495 10T381 -7Q318 -7 267 10T178 61T121 147T101 268V602H32Q18 602 18 616V704Q18
718 32 718H307Q321 718 321 704V616Q321 602 307 602H237V265Q237 238 243 212T266 166T311 134T381 122Q417 122 443 132T487 162T512 205T521 259V602Z" />
<glyph unicode="&#xdc;" glyph-name="Udieresis" horiz-adv-x="759" d="M344 841Q344 815 326 798T282 780Q256 780 239 797T222 841Q222 867 239 885T282 903Q308 903 326 885T344 841ZM534 841Q533 815 516 798T472 780Q446 780 429 797T411 841Q411 867 428
885T472 903Q498 903 516 885T534 841ZM521 602H452Q438 602 438 616V704Q438 718 452 718H727Q741 718 741 704V616Q741 602 727 602H657V268Q657 199 638 148T582 62T495 10T381 -7Q318 -7 267 10T178 61T121 147T101 268V602H32Q18 602 18 616V704Q18 718 32
718H307Q321 718 321 704V616Q321 602 307 602H237V265Q237 238 243 212T266 166T311 134T381 122Q417 122 443 132T487 162T512 205T521 259V602Z" />
<glyph unicode="&#xdd;" glyph-name="Yacute" horiz-adv-x="692" d="M205 0Q192 0 192 14V102Q192 116 205 116H277V278Q275 280 258 308T213 382T149 484T73 602H5Q-9 602 -9 616V704Q-9 718 5 718H286Q300 718 300 704V616Q300 602 286 602H230L348 394H353L469
602H409Q395 602 395 616V704Q395 718 409 718H688Q702 718 702 704V616Q702 602 688 602H620Q581 542 545 485T480 382T433 309T413 278V116H485Q499 116 499 102V14Q499 0 485 0H205ZM279 783Q273 779 268 779Q260 779 256 786L211 838Q207 842 207 848Q207 856
213 861L394 1023Q398 1027 404 1027Q412 1027 417 1021L473 954Q476 949 476 944Q476 936 471 931L279 783Z" />
<glyph unicode="&#xde;" glyph-name="Thorn" horiz-adv-x="635" d="M65 0Q51 0 51 14V93Q51 107 65 107H121V611H69Q56 611 56 625V704Q56 718 69 718H236Q250 718 250 704V584H364Q421 584 466 570T544 528T593 460T611 367Q611 264 545 212T351 159H244V107H326Q340
107 340 93V14Q340 0 326 0H65ZM364 266Q414 266 443 290T473 367Q473 394 465 413T442 444T407 462T364 468H246V266H364Z" />
<glyph unicode="&#xdf;" glyph-name="germandbls" horiz-adv-x="711" d="M40 0Q26 0 26 14V93Q26 107 40 107H89V475Q89 534 107 580T159 658T237 707T335 724Q388 724 426 711T489 678T525 631T537 579Q537 537 519 513T478 471T438 436T419 393Q419 371 439
357T490 331T557 305T623 271T674 219T695 139Q695 111 682 85T642 37T579 4T495 -9Q453 -9 422 1T367 26T328 60T303 96T288 127T280 147Q278 151 278 154Q278 160 288 166L346 192Q352 194 355 194Q361 194 365 187Q368 182 374 168T394 137T428 108T482 95Q512
95 532 109T552 147Q552 173 534 189T487 217T426 240T365 268T318 312T299 382Q299 421 315 443T350 481T386 512T402 552Q402 573 383 590T324 608Q305 608 287 602T254 579T231 538T222 475V107H260Q274 107 274 93V14Q274 0 260 0H40Z" />
<glyph unicode="&#xe0;" glyph-name="agrave" horiz-adv-x="563" d="M345 560Q339 554 332 554Q326 554 322 558L130 706Q124 710 124 718Q124 721 128 729L184 795Q188 801 197 801Q202 801 207 798L387 636Q393 631 393 624Q393 617 389 613L345 560ZM420 0Q373
0 373 46V85H371Q368 81 358 66T326 35T273 6T195 -7Q120 -7 75 31T29 135Q29 211 96 248T285 286H355V296Q355 342 330 362T258 383Q223 383 199 377T159 364T134 350T122 344H119Q111 344 107 350L57 413Q53 417 53 421Q53 425 58 430Q59 431 71 441T110 465T175
488T267 499Q315 499 356 488T426 453T471 389T488 293V106H537Q551 106 551 92V14Q551 0 537 0H420ZM355 216H294Q238 216 203 204T168 158Q168 129 188 115T243 101Q264 101 282 107T314 121T338 140T355 159V216Z" />
<glyph unicode="&#xe1;" glyph-name="aacute" horiz-adv-x="563" d="M252 557Q246 553 241 553Q233 553 229 560L184 612Q180 616 180 622Q180 630 186 635L367 797Q371 801 377 801Q385 801 390 795L446 728Q449 723 449 718Q449 710 444 705L252 557ZM420 0Q373
0 373 46V85H371Q368 81 358 66T326 35T273 6T195 -7Q120 -7 75 31T29 135Q29 211 96 248T285 286H355V296Q355 342 330 362T258 383Q223 383 199 377T159 364T134 350T122 344H119Q111 344 107 350L57 413Q53 417 53 421Q53 425 58 430Q59 431 71 441T110 465T175
488T267 499Q315 499 356 488T426 453T471 389T488 293V106H537Q551 106 551 92V14Q551 0 537 0H420ZM355 216H294Q238 216 203 204T168 158Q168 129 188 115T243 101Q264 101 282 107T314 121T338 140T355 159V216Z" />
<glyph unicode="&#xe2;" glyph-name="acircumflex" horiz-adv-x="563" d="M433 561Q428 555 422 555Q415 555 411 559L295 662L180 559Q176 555 169 555Q161 555 157 561L114 612Q110 616 110 622Q110 630 116 635L285 786Q289 790 295 790Q302 790 307 785L475
635Q481 630 481 622Q481 616 477 612L433 561ZM420 0Q373 0 373 46V85H371Q368 81 358 66T326 35T273 6T195 -7Q120 -7 75 31T29 135Q29 211 96 248T285 286H355V296Q355 342 330 362T258 383Q223 383 199 377T159 364T134 350T122 344H119Q111 344 107 350L57
413Q53 417 53 421Q53 425 58 430Q59 431 71 441T110 465T175 488T267 499Q315 499 356 488T426 453T471 389T488 293V106H537Q551 106 551 92V14Q551 0 537 0H420ZM355 216H294Q238 216 203 204T168 158Q168 129 188 115T243 101Q264 101 282 107T314 121T338
140T355 159V216Z" />
<glyph unicode="&#xe3;" glyph-name="atilde" horiz-adv-x="563" d="M467 707Q481 707 481 693Q481 630 456 593T375 555Q344 555 324 564T288 585T259 605T227 615Q210 615 201 605T192 561Q192 547 178 547H130Q116 547 116 561Q116 621 141 658T222 695Q252
695 272 685T307 664T337 642T369 632Q386 632 395 644T405 693Q405 707 419 707H467ZM420 0Q373 0 373 46V85H371Q368 81 358 66T326 35T273 6T195 -7Q120 -7 75 31T29 135Q29 211 96 248T285 286H355V296Q355 342 330 362T258 383Q223 383 199 377T159 364T134
350T122 344H119Q111 344 107 350L57 413Q53 417 53 421Q53 425 58 430Q59 431 71 441T110 465T175 488T267 499Q315 499 356 488T426 453T471 389T488 293V106H537Q551 106 551 92V14Q551 0 537 0H420ZM355 216H294Q238 216 203 204T168 158Q168 129 188 115T243
101Q264 101 282 107T314 121T338 140T355 159V216Z" />
<glyph unicode="&#xe4;" glyph-name="adieresis" horiz-adv-x="563" d="M263 615Q263 589 245 572T201 554Q175 554 158 571T141 615Q141 641 158 659T201 677Q227 677 245 659T263 615ZM453 615Q453 589 435 572T391 554Q365 554 348 571T330 615Q330 641 347
659T391 677Q417 677 435 659T453 615ZM420 0Q373 0 373 46V85H371Q368 81 358 66T326 35T273 6T195 -7Q120 -7 75 31T29 135Q29 211 96 248T285 286H355V296Q355 342 330 362T258 383Q223 383 199 377T159 364T134 350T122 344H119Q111 344 107 350L57 413Q53
417 53 421Q53 425 58 430Q59 431 71 441T110 465T175 488T267 499Q315 499 356 488T426 453T471 389T488 293V106H537Q551 106 551 92V14Q551 0 537 0H420ZM355 216H294Q238 216 203 204T168 158Q168 129 188 115T243 101Q264 101 282 107T314 121T338 140T355
159V216Z" />
<glyph unicode="&#xe5;" glyph-name="aring" horiz-adv-x="563" d="M326 582Q310 571 292 571Q269 571 251 588T232 632Q232 655 248 674T291 693Q314 693 333 675T352 631Q352 617 346 604T326 582ZM306 616Q313 620 313 631Q313 639 307 646T291 653Q283 653
277 647T271 633Q271 624 277 618T293 611Q301 611 306 616ZM420 0Q373 0 373 46V85H371Q368 81 358 66T326 35T273 6T195 -7Q120 -7 75 31T29 135Q29 211 96 248T285 286H355V296Q355 342 330 362T258 383Q223 383 199 377T159 364T134 350T122 344H119Q111 344
107 350L57 413Q53 417 53 421Q53 425 58 430Q59 431 71 441T110 465T175 488T267 499Q315 499 356 488T426 453T471 389T488 293V106H537Q551 106 551 92V14Q551 0 537 0H420ZM355 216H294Q238 216 203 204T168 158Q168 129 188 115T243 101Q264 101 282 107T314
121T338 140T355 159V216Z" />
<glyph unicode="&#xe6;" glyph-name="ae" horiz-adv-x="874" d="M492 225Q495 194 507 172T538 134T578 112T625 105Q655 105 680 113T723 133T751 155T764 169Q768 175 775 175Q780 175 785 171L833 119Q839 111 839 107Q839 101 835 97Q831 91 816 74T774 39T707
7T614 -7Q546 -7 490 20T398 98Q387 82 369 64T325 30T268 4T195 -7Q120 -7 75 31T29 135Q29 212 97 249T285 286H355V295Q355 341 331 362T258 383Q223 383 199 377T159 364T134 350T122 344H119Q111 344 107 350L57 413Q53 417 53 421Q53 425 58 430Q59 431 71
441T110 465T175 488T267 499Q322 499 365 484T435 435Q470 467 513 483T602 499Q720 499 778 432T836 241Q836 225 820 225H492ZM358 166Q357 168 357 175T356 190T355 206T355 216H294Q237 216 203 203T168 158Q168 130 189 116T244 101Q270 101 289 109T323
129T345 150T358 166ZM709 297Q708 314 702 331T684 363T653 386T607 395Q563 395 533 372T494 297H709Z" />
<glyph unicode="&#xe7;" glyph-name="ccedilla" horiz-adv-x="564" d="M281 -161Q262 -161 246 -157T219 -148T200 -138T192 -132Q186 -129 186 -121Q186 -116 189 -111L201 -91Q205 -85 213 -85Q216 -85 220 -87T230 -93T246 -98T270 -101Q300 -101 300 -81Q300
-69 291 -66T269 -61T248 -58T238 -49Q238 -48 240 -42L253 -4Q207 2 167 21T98 73T52 149T35 247Q35 308 56 355T110 434T187 482T276 499Q313 499 340 491T384 471T411 448T424 433H426L425 478V480Q425 492 438 492H507Q521 492 521 478V294Q521 280 507 280H423Q408
280 408 294V308Q408 323 400 337T378 362T344 379T299 386Q276 386 254 378T212 352T182 309T170 248Q170 213 181 187T211 142T254 115T305 105Q334 105 358 114T399 134T428 157T441 171Q446 178 453 178Q457 178 462 173L513 119Q519 111 519 107Q519 101 516
97Q512 91 498 75T459 42T398 10T312 -6L307 -21Q310 -21 320 -22T343 -29T364 -47T373 -81Q373 -118 348 -139T281 -161Z" />
<glyph unicode="&#xe8;" glyph-name="egrave" horiz-adv-x="554" d="M359 560Q353 554 346 554Q340 554 336 558L144 706Q138 710 138 718Q138 721 142 729L198 795Q202 801 211 801Q216 801 221 798L401 636Q407 631 407 624Q407 617 403 613L359 560ZM172 225Q175
194 187 172T218 134T258 112T305 105Q335 105 360 113T403 133T431 155T444 169Q448 175 455 175Q460 175 465 171L513 119Q519 111 519 107Q519 101 515 97Q511 91 496 74T454 39T387 7T294 -7Q241 -7 194 10T111 60T56 140T35 247Q35 308 57 355T114 434T193
482T282 499Q400 499 458 432T516 241Q516 225 500 225H172ZM389 297Q388 315 382 333T364 364T333 386T287 395Q241 395 212 372T174 297H389Z" />
<glyph unicode="&#xe9;" glyph-name="eacute" horiz-adv-x="554" d="M268 557Q262 553 257 553Q249 553 245 560L200 612Q196 616 196 622Q196 630 202 635L383 797Q387 801 393 801Q401 801 406 795L462 728Q465 723 465 718Q465 710 460 705L268 557ZM172 225Q175
194 187 172T218 134T258 112T305 105Q335 105 360 113T403 133T431 155T444 169Q448 175 455 175Q460 175 465 171L513 119Q519 111 519 107Q519 101 515 97Q511 91 496 74T454 39T387 7T294 -7Q241 -7 194 10T111 60T56 140T35 247Q35 308 57 355T114 434T193
482T282 499Q400 499 458 432T516 241Q516 225 500 225H172ZM389 297Q388 315 382 333T364 364T333 386T287 395Q241 395 212 372T174 297H389Z" />
<glyph unicode="&#xea;" glyph-name="ecircumflex" horiz-adv-x="554" d="M435 561Q430 555 424 555Q417 555 413 559L297 662L182 559Q178 555 171 555Q163 555 159 561L116 612Q112 616 112 622Q112 630 118 635L287 786Q291 790 297 790Q304 790 309 785L477
635Q483 630 483 622Q483 616 479 612L435 561ZM172 225Q175 194 187 172T218 134T258 112T305 105Q335 105 360 113T403 133T431 155T444 169Q448 175 455 175Q460 175 465 171L513 119Q519 111 519 107Q519 101 515 97Q511 91 496 74T454 39T387 7T294 -7Q241
-7 194 10T111 60T56 140T35 247Q35 308 57 355T114 434T193 482T282 499Q400 499 458 432T516 241Q516 225 500 225H172ZM389 297Q388 315 382 333T364 364T333 386T287 395Q241 395 212 372T174 297H389Z" />
<glyph unicode="&#xeb;" glyph-name="edieresis" horiz-adv-x="554" d="M256 615Q256 589 238 572T194 554Q168 554 151 571T134 615Q134 641 151 659T194 677Q220 677 238 659T256 615ZM446 615Q446 589 428 572T384 554Q358 554 341 571T323 615Q323 641 340
659T384 677Q410 677 428 659T446 615ZM172 225Q175 194 187 172T218 134T258 112T305 105Q335 105 360 113T403 133T431 155T444 169Q448 175 455 175Q460 175 465 171L513 119Q519 111 519 107Q519 101 515 97Q511 91 496 74T454 39T387 7T294 -7Q241 -7 194
10T111 60T56 140T35 247Q35 308 57 355T114 434T193 482T282 499Q400 499 458 432T516 241Q516 225 500 225H172ZM389 297Q388 315 382 333T364 364T333 386T287 395Q241 395 212 372T174 297H389Z" />
<glyph unicode="&#xec;" glyph-name="igrave" horiz-adv-x="322" d="M51 0Q38 0 38 14V92Q38 106 51 106H100V386H51Q38 386 38 400V478Q38 492 51 492H219Q233 492 233 478V106H276Q290 106 290 92V14Q290 0 276 0H51ZM165 558Q159 552 152 552Q146 552 142 556L-50
704Q-56 708 -56 716Q-56 719 -52 727L4 793Q8 799 17 799Q22 799 27 796L207 634Q213 629 213 622Q213 615 209 611L165 558Z" />
<glyph unicode="&#xed;" glyph-name="iacute" horiz-adv-x="322" d="M173 557Q167 553 162 553Q154 553 150 560L105 612Q101 616 101 622Q101 630 107 635L288 797Q292 801 298 801Q306 801 311 795L367 728Q370 723 370 718Q370 710 365 705L173 557ZM52 0Q39
0 39 14V92Q39 106 52 106H101V386H52Q39 386 39 400V478Q39 492 52 492H220Q234 492 234 478V106H277Q291 106 291 92V14Q291 0 277 0H52Z" />
<glyph unicode="&#xee;" glyph-name="icircumflex" horiz-adv-x="322" d="M300 561Q295 555 289 555Q282 555 278 559L162 662L47 559Q43 555 36 555Q28 555 24 561L-19 612Q-23 616 -23 622Q-23 630 -17 635L152 786Q156 790 162 790Q169 790 174 785L342 635Q348
630 348 622Q348 616 344 612L300 561ZM52 0Q39 0 39 14V92Q39 106 52 106H101V386H52Q39 386 39 400V478Q39 492 52 492H220Q234 492 234 478V106H277Q291 106 291 92V14Q291 0 277 0H52Z" />
<glyph unicode="&#xef;" glyph-name="idieresis" horiz-adv-x="322" d="M123 615Q123 589 105 572T61 554Q35 554 18 571T1 615Q1 641 18 659T61 677Q87 677 105 659T123 615ZM313 615Q313 589 295 572T251 554Q225 554 208 571T190 615Q190 641 207 659T251 677Q277
677 295 659T313 615ZM52 0Q39 0 39 14V92Q39 106 52 106H101V386H52Q39 386 39 400V478Q39 492 52 492H220Q234 492 234 478V106H277Q291 106 291 92V14Q291 0 277 0H52Z" />
<glyph unicode="&#xf0;" glyph-name="eth" horiz-adv-x="620" d="M497 633Q536 586 558 518T580 359Q580 179 507 86T300 -7Q236 -7 187 12T105 65T54 142T37 236Q37 283 52 323T99 392T180 437T296 453Q351 453 386 442T441 419Q435 498 408 543L368 503Q364
498 357 498Q349 498 345 503L313 536Q308 541 308 547Q308 553 313 558L353 597Q325 611 292 611Q264 611 246 606T216 592T200 574T195 553Q195 539 181 539H87Q73 539 73 553Q73 589 87 620T128 675T196 711T291 724Q376 724 441 682L481 722Q486 727 492 727Q497
727 504 722L533 691Q537 687 537 680Q537 673 533 669L497 633ZM295 106Q369 106 403 160T443 324Q426 332 394 343T318 355Q279 355 252 345T207 317T181 277T173 230Q173 174 204 140T295 106Z" />
<glyph unicode="&#xf1;" glyph-name="ntilde" horiz-adv-x="619" d="M451 0Q404 0 404 46V280Q404 326 387 354T322 383Q296 383 279 374T253 353T239 331T234 319V106H277Q291 106 291 92V14Q291 0 277 0H53Q39 0 39 14V92Q39 106 53 106H102V386H53Q39 386 39
400V478Q39 492 53 492H202Q216 492 216 478V414H219Q221 417 228 430T253 459T298 487T368 499Q408 499 439 486T492 450T525 394T537 323V106H586Q600 106 600 92V14Q600 0 586 0H451ZM473 707Q487 707 487 693Q487 630 462 593T381 555Q350 555 330 564T294
585T265 605T233 615Q216 615 207 605T198 561Q198 547 184 547H136Q122 547 122 561Q122 621 147 658T228 695Q258 695 278 685T313 664T343 642T375 632Q392 632 401 644T411 693Q411 707 425 707H473Z" />
<glyph unicode="&#xf2;" glyph-name="ograve" horiz-adv-x="590" d="M294 -7Q235 -7 188 11T107 62T55 142T36 247Q36 305 55 352T108 431T190 481T295 499Q352 499 399 482T481 431T535 352T554 247Q554 189 536 142T483 62T401 11T294 -7ZM294 105Q349 105 384
143T419 248Q419 313 384 349T295 386Q242 386 207 350T171 248Q171 182 205 144T294 105ZM345 560Q339 554 332 554Q326 554 322 558L130 706Q124 710 124 718Q124 721 128 729L184 795Q188 801 197 801Q202 801 207 798L387 636Q393 631 393 624Q393 617 389
613L345 560Z" />
<glyph unicode="&#xf3;" glyph-name="oacute" horiz-adv-x="590" d="M279 557Q273 553 268 553Q260 553 256 560L211 612Q207 616 207 622Q207 630 213 635L394 797Q398 801 404 801Q412 801 417 795L473 728Q476 723 476 718Q476 710 471 705L279 557ZM294 -7Q235
-7 188 11T107 62T55 142T36 247Q36 305 55 352T108 431T190 481T295 499Q352 499 399 482T481 431T535 352T554 247Q554 189 536 142T483 62T401 11T294 -7ZM294 105Q349 105 384 143T419 248Q419 313 384 349T295 386Q242 386 207 350T171 248Q171 182 205 144T294
105Z" />
<glyph unicode="&#xf4;" glyph-name="ocircumflex" horiz-adv-x="590" d="M442 561Q437 555 431 555Q424 555 420 559L304 662L189 559Q185 555 178 555Q170 555 166 561L123 612Q119 616 119 622Q119 630 125 635L294 786Q298 790 304 790Q311 790 316 785L484
635Q490 630 490 622Q490 616 486 612L442 561ZM294 -7Q235 -7 188 11T107 62T55 142T36 247Q36 305 55 352T108 431T190 481T295 499Q352 499 399 482T481 431T535 352T554 247Q554 189 536 142T483 62T401 11T294 -7ZM294 105Q349 105 384 143T419 248Q419 313
384 349T295 386Q242 386 207 350T171 248Q171 182 205 144T294 105Z" />
<glyph unicode="&#xf5;" glyph-name="otilde" horiz-adv-x="590" d="M294 -7Q235 -7 188 11T107 62T55 142T36 247Q36 305 55 352T108 431T190 481T295 499Q352 499 399 482T481 431T535 352T554 247Q554 189 536 142T483 62T401 11T294 -7ZM294 105Q349 105 384
143T419 248Q419 313 384 349T295 386Q242 386 207 350T171 248Q171 182 205 144T294 105ZM478 707Q492 707 492 693Q492 630 467 593T386 555Q355 555 335 564T299 585T270 605T238 615Q221 615 212 605T203 561Q203 547 189 547H141Q127 547 127 561Q127 621
152 658T233 695Q263 695 283 685T318 664T348 642T380 632Q397 632 406 644T416 693Q416 707 430 707H478Z" />
<glyph unicode="&#xf6;" glyph-name="odieresis" horiz-adv-x="590" d="M265 615Q265 589 247 572T203 554Q177 554 160 571T143 615Q143 641 160 659T203 677Q229 677 247 659T265 615ZM455 615Q455 589 437 572T393 554Q367 554 350 571T332 615Q332 641 349
659T393 677Q419 677 437 659T455 615ZM294 -7Q235 -7 188 11T107 62T55 142T36 247Q36 305 55 352T108 431T190 481T295 499Q352 499 399 482T481 431T535 352T554 247Q554 189 536 142T483 62T401 11T294 -7ZM294 105Q349 105 384 143T419 248Q419 313 384 349T295
386Q242 386 207 350T171 248Q171 182 205 144T294 105Z" />
<glyph unicode="&#xf7;" glyph-name="divide" horiz-adv-x="460" d="M66 238Q59 238 55 243T50 255V347Q50 363 66 363H394Q409 363 409 347V255Q409 248 405 243T394 238H66ZM297 138Q297 112 279 94T234 75Q208 75 190 93T172 138Q172 164 190 182T234 201Q260
201 278 183T297 138ZM297 463Q297 437 279 419T234 401Q208 401 190 419T172 463Q172 489 190 507T234 526Q260 526 278 508T297 463Z" />
<glyph unicode="&#xf8;" glyph-name="oslash" horiz-adv-x="590" d="M294 -7Q249 -7 207 4L197 -16Q190 -30 180 -30H149Q138 -30 138 -21Q138 -18 139 -16L159 23Q100 54 68 111T36 247Q36 305 55 352T108 431T190 481T295 499Q321 499 345 495T392 483L398 495Q404
509 416 509H447Q458 509 458 501Q458 497 457 495L440 462Q493 430 523 376T554 247Q554 189 536 142T483 62T401 11T294 -7ZM171 248Q171 173 215 134L339 378Q317 386 295 386Q242 386 207 350T171 248ZM294 105Q349 105 384 143T419 248Q419 280 410 305T383
349L261 109Q274 105 294 105Z" />
<glyph unicode="&#xf9;" glyph-name="ugrave" horiz-adv-x="607" d="M449 0Q403 0 403 46V78H400Q398 74 392 61T370 32T328 5T259 -7Q218 -7 186 6T131 42T96 98T83 169V386H33Q20 386 20 400V478Q20 492 33 492H169Q216 492 216 446V212Q216 166 233 138T298
109Q324 109 341 118T368 139T382 161T386 173V386H342Q328 386 328 400V478Q328 492 342 492H504Q518 492 518 478V106H567Q581 106 581 92V14Q581 0 567 0H449ZM323 560Q317 554 310 554Q304 554 300 558L108 706Q102 710 102 718Q102 721 106 729L162 795Q166
801 175 801Q180 801 185 798L365 636Q371 631 371 624Q371 617 367 613L323 560Z" />
<glyph unicode="&#xfa;" glyph-name="uacute" horiz-adv-x="607" d="M230 557Q224 553 219 553Q211 553 207 560L162 612Q158 616 158 622Q158 630 164 635L345 797Q349 801 355 801Q363 801 368 795L424 728Q427 723 427 718Q427 710 422 705L230 557ZM449 0Q403
0 403 46V78H400Q398 74 392 61T370 32T328 5T259 -7Q218 -7 186 6T131 42T96 98T83 169V386H33Q20 386 20 400V478Q20 492 33 492H169Q216 492 216 446V212Q216 166 233 138T298 109Q324 109 341 118T368 139T382 161T386 173V386H342Q328 386 328 400V478Q328
492 342 492H504Q518 492 518 478V106H567Q581 106 581 92V14Q581 0 567 0H449Z" />
<glyph unicode="&#xfb;" glyph-name="ucircumflex" horiz-adv-x="607" d="M419 561Q414 555 408 555Q401 555 397 559L281 662L166 559Q162 555 155 555Q147 555 143 561L100 612Q96 616 96 622Q96 630 102 635L271 786Q275 790 281 790Q288 790 293 785L461 635Q467
630 467 622Q467 616 463 612L419 561ZM449 0Q403 0 403 46V78H400Q398 74 392 61T370 32T328 5T259 -7Q218 -7 186 6T131 42T96 98T83 169V386H33Q20 386 20 400V478Q20 492 33 492H169Q216 492 216 446V212Q216 166 233 138T298 109Q324 109 341 118T368 139T382
161T386 173V386H342Q328 386 328 400V478Q328 492 342 492H504Q518 492 518 478V106H567Q581 106 581 92V14Q581 0 567 0H449Z" />
<glyph unicode="&#xfc;" glyph-name="udieresis" horiz-adv-x="607" d="M251 615Q251 589 233 572T189 554Q163 554 146 571T129 615Q129 641 146 659T189 677Q215 677 233 659T251 615ZM441 615Q441 589 423 572T379 554Q353 554 336 571T318 615Q318 641 335
659T379 677Q405 677 423 659T441 615ZM449 0Q403 0 403 46V78H400Q398 74 392 61T370 32T328 5T259 -7Q218 -7 186 6T131 42T96 98T83 169V386H33Q20 386 20 400V478Q20 492 33 492H169Q216 492 216 446V212Q216 166 233 138T298 109Q324 109 341 118T368 139T382
161T386 173V386H342Q328 386 328 400V478Q328 492 342 492H504Q518 492 518 478V106H567Q581 106 581 92V14Q581 0 567 0H449Z" />
<glyph unicode="&#xfd;" glyph-name="yacute" horiz-adv-x="589" d="M518 -8Q518 -67 498 -109T442 -180T360 -222T259 -236Q211 -236 175 -227T114 -205T74 -180T53 -162Q46 -157 46 -148Q46 -143 48 -141L95 -74Q98 -69 104 -69Q111 -69 121 -77T147 -94T189
-111T254 -119Q285 -119 312 -113T359 -93T390 -58T402 -8V78H399Q397 74 391 61T369 32T327 5T258 -7Q217 -7 185 6T131 42T96 98T84 169L82 386H33Q19 386 19 400V478Q19 492 33 492H168Q215 492 215 446V212Q215 166 232 138T297 110Q323 110 340 119T367 139T381
161T385 173V386H342Q328 386 328 400V478Q328 492 342 492H504Q517 492 517 478L518 -8ZM229 557Q223 553 218 553Q210 553 206 560L161 612Q157 616 157 622Q157 630 163 635L344 797Q348 801 354 801Q362 801 367 795L423 728Q426 723 426 718Q426 710 421 705L229
557Z" />
<glyph unicode="&#xfe;" glyph-name="thorn" horiz-adv-x="600" d="M22 -227Q8 -227 8 -212V-134Q8 -120 22 -120H71V611H26Q12 611 12 625V704Q12 718 26 718H190Q204 718 204 704V440Q221 463 254 481T339 500Q388 500 429 483T500 434T547 354T564 245Q564
189 549 143T504 64T434 12T340 -7Q306 -7 281 0T239 18T211 40T198 59H196Q196 51 197 44Q197 38 197 32T198 21V-120H267Q281 -120 281 -134V-212Q281 -227 267 -227H22ZM314 104Q366 104 399 141T433 243Q433 309 401 347T314 386Q266 386 233 351T199 244Q199
209 208 183T233 140T270 113T314 104Z" />
<glyph unicode="&#xff;" glyph-name="ydieresis" horiz-adv-x="589" d="M518 -8Q518 -67 498 -109T442 -180T360 -222T259 -236Q211 -236 175 -227T114 -205T74 -180T53 -162Q46 -157 46 -148Q46 -143 48 -141L95 -74Q98 -69 104 -69Q111 -69 121 -77T147 -94T189
-111T254 -119Q285 -119 312 -113T359 -93T390 -58T402 -8V78H399Q397 74 391 61T369 32T327 5T258 -7Q217 -7 185 6T131 42T96 98T84 169L82 386H33Q19 386 19 400V478Q19 492 33 492H168Q215 492 215 446V212Q215 166 232 138T297 110Q323 110 340 119T367 139T381
161T385 173V386H342Q328 386 328 400V478Q328 492 342 492H504Q517 492 517 478L518 -8ZM251 615Q251 589 233 572T189 554Q163 554 146 571T129 615Q129 641 146 659T189 677Q215 677 233 659T251 615ZM441 615Q441 589 423 572T379 554Q353 554 336 571T318
615Q318 641 335 659T379 677Q405 677 423 659T441 615Z" />
<glyph unicode="&#x100;" glyph-name="Amacron" horiz-adv-x="730" d="M464 0Q450 0 450 14V102Q450 116 464 116H529L489 226H255L214 116H281Q295 116 295 102V14Q295 0 281 0H13Q-1 0 -1 14V102Q-1 116 13 116H80L264 602H196Q182 602 182 616V704Q182 718
196 718H386Q417 718 431 705T459 661L666 116H732Q746 116 746 102V14Q746 0 732 0H464ZM375 541H369L293 325H453L375 541ZM198 776Q182 776 182 792V867Q182 883 198 883H513Q529 883 529 867V792Q529 776 513 776H198Z" />
<glyph unicode="&#x101;" glyph-name="amacron" horiz-adv-x="563" d="M127 550Q111 550 111 566V641Q111 657 127 657H442Q458 657 458 641V566Q458 550 442 550H127ZM420 0Q373 0 373 46V85H371Q368 81 358 66T326 35T273 6T195 -7Q120 -7 75 31T29 135Q29 211
96 248T285 286H355V296Q355 342 330 362T258 383Q223 383 199 377T159 364T134 350T122 344H119Q111 344 107 350L57 413Q53 417 53 421Q53 425 58 430Q59 431 71 441T110 465T175 488T267 499Q315 499 356 488T426 453T471 389T488 293V106H537Q551 106 551 92V14Q551
0 537 0H420ZM355 216H294Q238 216 203 204T168 158Q168 129 188 115T243 101Q264 101 282 107T314 121T338 140T355 159V216Z" />
<glyph unicode="&#x102;" glyph-name="Abreve" horiz-adv-x="730" d="M464 0Q450 0 450 14V102Q450 116 464 116H529L489 226H255L214 116H281Q295 116 295 102V14Q295 0 281 0H13Q-1 0 -1 14V102Q-1 116 13 116H80L264 602H196Q182 602 182 616V704Q182 718 196
718H386Q417 718 431 705T459 661L666 116H732Q746 116 746 102V14Q746 0 732 0H464ZM375 541H369L293 325H453L375 541ZM493 932Q509 932 509 916Q509 882 498 856T465 811T416 784T355 775Q322 775 295 784T247 811T216 855T204 916Q204 932 220 932H280Q296
932 296 916Q296 887 313 870T355 852Q382 852 400 869T418 916Q418 932 434 932H493Z" />
<glyph unicode="&#x103;" glyph-name="abreve" horiz-adv-x="563" d="M416 706Q432 706 432 690Q432 656 421 630T388 585T339 558T278 549Q245 549 218 558T170 585T139 629T127 690Q127 706 143 706H203Q219 706 219 690Q219 661 236 644T278 626Q305 626 323
643T341 690Q341 706 357 706H416ZM420 0Q373 0 373 46V85H371Q368 81 358 66T326 35T273 6T195 -7Q120 -7 75 31T29 135Q29 211 96 248T285 286H355V296Q355 342 330 362T258 383Q223 383 199 377T159 364T134 350T122 344H119Q111 344 107 350L57 413Q53 417
53 421Q53 425 58 430Q59 431 71 441T110 465T175 488T267 499Q315 499 356 488T426 453T471 389T488 293V106H537Q551 106 551 92V14Q551 0 537 0H420ZM355 216H294Q238 216 203 204T168 158Q168 129 188 115T243 101Q264 101 282 107T314 121T338 140T355 159V216Z"
/>
<glyph unicode="&#x104;" glyph-name="Aogonek" horiz-adv-x="730" d="M744 -119Q746 -122 746 -128Q746 -136 739 -141Q738 -142 731 -147T712 -158T682 -168T644 -173Q602 -173 579 -152T556 -94Q556 -75 562 -60T579 -33T603 -13T629 0H464Q450 0 450 14V102Q450
116 464 116H529L489 226H255L214 116H281Q295 116 295 102V14Q295 0 281 0H13Q-1 0 -1 14V102Q-1 116 13 116H80L264 602H196Q182 602 182 616V704Q182 718 196 718H386Q417 718 431 705T459 661L666 116H732Q746 116 746 102V14Q746 0 732 0H702Q694 -4 683 -11T662
-28T645 -50T638 -78Q638 -92 646 -99T668 -106Q685 -106 696 -99T719 -92Q726 -92 731 -98L744 -119ZM375 541H369L293 325H453L375 541Z" />
<glyph unicode="&#x105;" glyph-name="aogonek" horiz-adv-x="563" d="M546 -119Q548 -122 548 -128Q548 -136 541 -141Q540 -142 533 -147T514 -158T484 -168T446 -173Q404 -173 381 -152T358 -94Q358 -75 364 -60T381 -33T405 -13T431 0H420Q373 0 373 46V85H371Q368
81 358 66T326 35T273 6T195 -7Q120 -7 75 31T29 135Q29 213 96 250T285 288H355V296Q355 342 330 362T258 383Q223 383 199 377T159 364T134 350T122 344H119Q111 344 107 350L57 413Q53 417 53 421Q53 425 58 430Q59 431 71 441T110 465T175 488T267 499Q315
499 356 488T426 453T471 389T488 293V106H537Q551 106 551 92V14Q551 0 537 0H504Q496 -4 485 -11T464 -28T447 -50T440 -78Q440 -92 448 -99T470 -106Q487 -106 498 -99T521 -92Q528 -92 533 -98L546 -119ZM355 213H294Q238 213 203 201T168 158Q168 132 188
118T243 104Q264 104 282 110T314 124T338 143T355 162V213Z" />
<glyph unicode="&#x106;" glyph-name="Cacute" horiz-adv-x="760" d="M370 783Q364 779 359 779Q351 779 347 786L302 838Q298 842 298 848Q298 856 304 861L485 1023Q489 1027 495 1027Q503 1027 508 1021L564 954Q567 949 567 944Q567 936 562 931L370 783ZM719
200Q725 194 725 189Q725 183 722 179Q718 171 701 141T646 78T547 19T395 -7Q322 -7 258 18T146 91T70 207T42 363Q42 452 70 519T147 632T257 701T385 724Q427 724 460 716T517 695T557 667T585 636L583 704V706Q583 718 596 718H692Q705 718 705 704V466Q705
452 692 452H582Q568 452 568 466V475Q568 492 556 513T522 552T468 582T395 595Q353 595 316 580T250 536T205 462T188 360Q188 303 206 259T255 184T325 138T405 122Q448 122 481 132T538 156T578 188T606 220T623 245T633 255Q637 255 642 252L719 200Z" />
<glyph unicode="&#x107;" glyph-name="cacute" horiz-adv-x="564" d="M287 557Q281 553 276 553Q268 553 264 560L219 612Q215 616 215 622Q215 630 221 635L402 797Q406 801 412 801Q420 801 425 795L481 728Q484 723 484 718Q484 710 479 705L287 557ZM513 119Q519
111 519 107Q519 101 516 97Q512 91 497 74T455 39T387 7T294 -7Q241 -7 194 10T111 60T56 140T35 247Q35 308 56 355T110 434T187 482T276 499Q313 499 340 491T384 471T411 448T424 433H426L425 478V480Q425 492 438 492H507Q521 492 521 478V294Q521 280 507
280H423Q408 280 408 294V308Q408 323 400 337T378 362T344 379T299 386Q276 386 254 378T212 352T182 309T170 248Q170 213 181 187T211 142T254 115T305 105Q334 105 358 114T399 134T428 157T441 171Q446 178 453 178Q457 178 462 173L513 119Z" />
<glyph unicode="&#x108;" glyph-name="Ccircumflex" horiz-adv-x="760" d="M533 787Q528 781 522 781Q515 781 511 785L395 888L280 785Q276 781 269 781Q261 781 257 787L214 838Q210 842 210 848Q210 856 216 861L385 1012Q389 1016 395 1016Q402 1016 407 1011L575
861Q581 856 581 848Q581 842 577 838L533 787ZM719 200Q725 194 725 189Q725 183 722 179Q718 171 701 141T646 78T547 19T395 -7Q322 -7 258 18T146 91T70 207T42 363Q42 452 70 519T147 632T257 701T385 724Q427 724 460 716T517 695T557 667T585 636L583 704V706Q583
718 596 718H692Q705 718 705 704V466Q705 452 692 452H582Q568 452 568 466V475Q568 492 556 513T522 552T468 582T395 595Q353 595 316 580T250 536T205 462T188 360Q188 303 206 259T255 184T325 138T405 122Q448 122 481 132T538 156T578 188T606 220T623 245T633
255Q637 255 642 252L719 200Z" />
<glyph unicode="&#x109;" glyph-name="ccircumflex" horiz-adv-x="564" d="M421 561Q416 555 410 555Q403 555 399 559L283 662L168 559Q164 555 157 555Q149 555 145 561L102 612Q98 616 98 622Q98 630 104 635L273 786Q277 790 283 790Q290 790 295 785L463
635Q469 630 469 622Q469 616 465 612L421 561ZM513 119Q519 111 519 107Q519 101 516 97Q512 91 497 74T455 39T387 7T294 -7Q241 -7 194 10T111 60T56 140T35 247Q35 308 56 355T110 434T187 482T276 499Q313 499 340 491T384 471T411 448T424 433H426L425 478V480Q425
492 438 492H507Q521 492 521 478V294Q521 280 507 280H423Q408 280 408 294V308Q408 323 400 337T378 362T344 379T299 386Q276 386 254 378T212 352T182 309T170 248Q170 213 181 187T211 142T254 115T305 105Q334 105 358 114T399 134T428 157T441 171Q446 178
453 178Q457 178 462 173L513 119Z" />
<glyph unicode="&#x10a;" glyph-name="Cdotaccent" horiz-adv-x="760" d="M719 200Q725 194 725 189Q725 183 722 179Q718 171 701 141T646 78T547 19T395 -7Q322 -7 258 18T146 91T70 207T42 363Q42 452 70 519T147 632T257 701T385 724Q427 724 460 716T517
695T557 667T585 636L583 704V706Q583 718 596 718H692Q705 718 705 704V466Q705 452 692 452H582Q568 452 568 466V475Q568 492 556 513T522 552T468 582T395 595Q353 595 316 580T250 536T205 462T188 360Q188 303 206 259T255 184T325 138T405 122Q448 122 481
132T538 156T578 188T606 220T623 245T633 255Q637 255 642 252L719 200ZM461 849Q461 824 444 807T400 789Q375 789 358 806T340 849Q340 875 357 892T400 910Q426 910 443 893T461 849Z" />
<glyph unicode="&#x10b;" glyph-name="cdotaccent" horiz-adv-x="564" d="M513 119Q519 111 519 107Q519 101 516 97Q512 91 497 74T455 39T387 7T294 -7Q241 -7 194 10T111 60T56 140T35 247Q35 308 56 355T110 434T187 482T276 499Q313 499 340 491T384 471T411
448T424 433H426L425 478V480Q425 492 438 492H507Q521 492 521 478V294Q521 280 507 280H423Q408 280 408 294V308Q408 323 400 337T378 362T344 379T299 386Q276 386 254 378T212 352T182 309T170 248Q170 213 181 187T211 142T254 115T305 105Q334 105 358 114T399
134T428 157T441 171Q446 178 453 178Q457 178 462 173L513 119ZM349 623Q349 598 332 581T288 563Q263 563 246 580T228 623Q228 649 245 666T288 684Q314 684 331 667T349 623Z" />
<glyph unicode="&#x10c;" glyph-name="Ccaron" horiz-adv-x="760" d="M409 794Q403 788 397 788Q391 788 387 792L218 944Q212 948 212 956Q212 963 216 967L259 1018Q263 1023 271 1023Q276 1023 282 1020L397 915L513 1020Q517 1024 524 1024Q530 1024 535 1018L579
967Q583 963 583 956Q583 948 577 944L409 794ZM719 200Q725 194 725 189Q725 183 722 179Q718 171 701 141T646 78T547 19T395 -7Q322 -7 258 18T146 91T70 207T42 363Q42 452 70 519T147 632T257 701T385 724Q427 724 460 716T517 695T557 667T585 636L583 704V706Q583
718 596 718H692Q705 718 705 704V466Q705 452 692 452H582Q568 452 568 466V475Q568 492 556 513T522 552T468 582T395 595Q353 595 316 580T250 536T205 462T188 360Q188 303 206 259T255 184T325 138T405 122Q448 122 481 132T538 156T578 188T606 220T623 245T633
255Q637 255 642 252L719 200Z" />
<glyph unicode="&#x10d;" glyph-name="ccaron" horiz-adv-x="564" d="M313 568Q307 562 301 562Q295 562 291 566L122 718Q116 722 116 730Q116 737 120 741L163 792Q167 797 175 797Q180 797 186 794L301 689L417 794Q421 798 428 798Q434 798 439 792L483 741Q487
737 487 730Q487 722 481 718L313 568ZM513 119Q519 111 519 107Q519 101 516 97Q512 91 497 74T455 39T387 7T294 -7Q241 -7 194 10T111 60T56 140T35 247Q35 308 56 355T110 434T187 482T276 499Q313 499 340 491T384 471T411 448T424 433H426L425 478V480Q425
492 438 492H507Q521 492 521 478V294Q521 280 507 280H423Q408 280 408 294V308Q408 323 400 337T378 362T344 379T299 386Q276 386 254 378T212 352T182 309T170 248Q170 213 181 187T211 142T254 115T305 105Q334 105 358 114T399 134T428 157T441 171Q446 178
453 178Q457 178 462 173L513 119Z" />
<glyph unicode="&#x10e;" glyph-name="Dcaron" horiz-adv-x="741" d="M364 794Q358 788 352 788Q346 788 342 792L173 944Q167 948 167 956Q167 963 171 967L214 1018Q218 1023 226 1023Q231 1023 237 1020L352 915L468 1020Q472 1024 479 1024Q485 1024 490 1018L534
967Q538 963 538 956Q538 948 532 944L364 794ZM59 0Q45 0 45 14V102Q45 116 59 116H128V602H59Q45 602 45 616V704Q45 718 59 718H332Q408 718 475 694T592 624T671 510T700 354Q700 271 674 206T604 94T500 24T372 0H59ZM321 116Q376 116 419 129T491 170T536
244T552 352Q552 477 491 539T312 602H264V116H321Z" />
<glyph unicode="&#x10f;" glyph-name="dcaron" horiz-adv-x="620" d="M593 558Q593 564 601 564Q616 564 629 575T642 609Q642 613 642 615T641 619Q640 621 640 622Q638 621 635 620Q629 618 622 618Q597 618 580 636T562 680Q562 706 580 724T624 743Q656 743
675 719T695 651Q695 583 671 552T601 521Q593 521 593 526V558ZM461 0Q414 0 414 46V74H412Q409 66 398 53T369 26T323 3T261 -7Q212 -7 171 10T100 59T53 139T36 248Q36 303 52 349T98 428T170 480T264 499Q298 499 322 491T363 471T389 447T402 428H404Q403
434 403 441Q402 447 402 454T402 469V612H353Q338 612 338 626V704Q338 718 353 718H516Q530 718 530 704V106H578Q592 106 592 92V14Q592 0 578 0H461ZM286 105Q335 105 368 141T401 248Q401 283 392 309T367 352T330 378T286 387Q235 387 201 351T167 249Q167
184 199 145T286 105Z" />
<glyph unicode="&#x110;" glyph-name="Dcroat" horiz-adv-x="741" d="M59 0Q45 0 45 14V102Q45 116 59 116H128V301H64Q48 301 48 317V391Q48 408 64 408H128V602H59Q45 602 45 616V704Q45 718 59 718H332Q408 718 475 694T592 624T671 510T700 354Q700 271 674
206T604 94T500 24T372 0H59ZM321 116Q376 116 420 129T494 170T540 244T556 352Q556 477 493 539T312 602H264V408H379Q395 408 395 391V317Q395 301 379 301H264V116H321Z" />
<glyph unicode="&#x111;" glyph-name="dcroat" horiz-adv-x="620" d="M461 0Q414 0 414 46V74H412Q409 66 398 53T369 26T323 3T261 -7Q212 -7 171 10T100 59T53 139T36 248Q36 303 52 349T98 428T170 480T264 499Q298 499 322 491T363 471T389 447T402 428H404Q403
434 403 441Q402 447 402 454T402 469V529H318Q307 529 307 540V562Q307 573 318 573H402V612H353Q338 612 338 626V704Q338 718 353 718H516Q530 718 530 704V573H579Q590 573 590 562V540Q590 529 579 529H530V106H578Q592 106 592 92V14Q592 0 578 0H461ZM286
105Q335 105 368 141T401 248Q401 283 392 309T367 352T330 378T286 387Q235 387 201 351T167 249Q167 184 199 145T286 105Z" />
<glyph unicode="&#x112;" glyph-name="Emacron" horiz-adv-x="686" d="M59 0Q45 0 45 14V102Q45 116 59 116H128V602H59Q45 602 45 616V704Q45 718 59 718H616Q630 718 630 704V506Q630 492 616 492H516Q502 492 502 506V602H264V418H460Q474 418 474 404V316Q474
302 460 302H264V116H501V212Q501 226 515 226H616Q629 226 629 212V14Q629 0 616 0H59ZM189 776Q173 776 173 792V867Q173 883 189 883H504Q520 883 520 867V792Q520 776 504 776H189Z" />
<glyph unicode="&#x113;" glyph-name="emacron" horiz-adv-x="554" d="M125 550Q109 550 109 566V641Q109 657 125 657H440Q456 657 456 641V566Q456 550 440 550H125ZM172 225Q175 194 187 172T218 134T258 112T305 105Q335 105 360 113T403 133T431 155T444
169Q448 175 455 175Q460 175 465 171L513 119Q519 111 519 107Q519 101 515 97Q511 91 496 74T454 39T387 7T294 -7Q241 -7 194 10T111 60T56 140T35 247Q35 308 57 355T114 434T193 482T282 499Q400 499 458 432T516 241Q516 225 500 225H172ZM389 297Q388 315
382 333T364 364T333 386T287 395Q241 395 212 372T174 297H389Z" />
<glyph unicode="&#x114;" glyph-name="Ebreve" horiz-adv-x="686" d="M59 0Q45 0 45 14V102Q45 116 59 116H128V602H59Q45 602 45 616V704Q45 718 59 718H616Q630 718 630 704V506Q630 492 616 492H516Q502 492 502 506V602H264V418H460Q474 418 474 404V316Q474
302 460 302H264V116H501V212Q501 226 515 226H616Q629 226 629 212V14Q629 0 616 0H59ZM479 932Q495 932 495 916Q495 882 484 856T451 811T402 784T341 775Q308 775 281 784T233 811T202 855T190 916Q190 932 206 932H266Q282 932 282 916Q282 887 299 870T341
852Q368 852 386 869T404 916Q404 932 420 932H479Z" />
<glyph unicode="&#x115;" glyph-name="ebreve" horiz-adv-x="554" d="M435 706Q451 706 451 690Q451 656 440 630T407 585T358 558T297 549Q264 549 237 558T189 585T158 629T146 690Q146 706 162 706H222Q238 706 238 690Q238 661 255 644T297 626Q324 626 342
643T360 690Q360 706 376 706H435ZM172 225Q175 194 187 172T218 134T258 112T305 105Q335 105 360 113T403 133T431 155T444 169Q448 175 455 175Q460 175 465 171L513 119Q519 111 519 107Q519 101 515 97Q511 91 496 74T454 39T387 7T294 -7Q241 -7 194 10T111
60T56 140T35 247Q35 308 57 355T114 434T193 482T282 499Q400 499 458 432T516 241Q516 225 500 225H172ZM389 297Q388 315 382 333T364 364T333 386T287 395Q241 395 212 372T174 297H389Z" />
<glyph unicode="&#x116;" glyph-name="Edotaccent" horiz-adv-x="686" d="M59 0Q45 0 45 14V102Q45 116 59 116H128V602H59Q45 602 45 616V704Q45 718 59 718H616Q630 718 630 704V506Q630 492 616 492H516Q502 492 502 506V602H264V418H460Q474 418 474 404V316Q474
302 460 302H264V116H501V212Q501 226 515 226H616Q629 226 629 212V14Q629 0 616 0H59ZM401 849Q401 824 384 807T340 789Q315 789 298 806T280 849Q280 875 297 892T340 910Q366 910 383 893T401 849Z" />
<glyph unicode="&#x117;" glyph-name="edotaccent" horiz-adv-x="554" d="M355 623Q355 598 338 581T294 563Q269 563 252 580T234 623Q234 649 251 666T294 684Q320 684 337 667T355 623ZM172 225Q175 194 187 172T218 134T258 112T305 105Q335 105 360 113T403
133T431 155T444 169Q448 175 455 175Q460 175 465 171L513 119Q519 111 519 107Q519 101 515 97Q511 91 496 74T454 39T387 7T294 -7Q241 -7 194 10T111 60T56 140T35 247Q35 308 57 355T114 434T193 482T282 499Q400 499 458 432T516 241Q516 225 500 225H172ZM389
297Q388 315 382 333T364 364T333 386T287 395Q241 395 212 372T174 297H389Z" />
<glyph unicode="&#x118;" glyph-name="Eogonek" horiz-adv-x="686" d="M577 0Q569 -4 558 -11T537 -28T520 -50T513 -78Q513 -92 521 -99T543 -106Q560 -106 571 -99T594 -92Q601 -92 606 -98L619 -119Q621 -122 621 -128Q621 -136 614 -141Q613 -142 606 -147T587
-158T557 -168T519 -173Q477 -173 454 -152T431 -94Q431 -75 437 -60T454 -33T478 -13T504 0H59Q45 0 45 14V102Q45 116 59 116H128V602H59Q45 602 45 616V704Q45 718 59 718H616Q630 718 630 704V506Q630 492 616 492H516Q502 492 502 506V602H264V418H460Q474
418 474 404V316Q474 302 460 302H264V116H501V212Q501 226 515 226H616Q629 226 629 212V14Q629 0 616 0H577Z" />
<glyph unicode="&#x119;" glyph-name="eogonek" horiz-adv-x="554" d="M172 225Q175 194 187 172T218 134T258 112T305 105Q335 105 360 113T403 133T431 155T444 169Q448 175 455 175Q460 175 465 171L513 119Q519 111 519 107Q519 101 515 97Q512 92 500 78T467
48T415 18T344 -3Q335 -8 325 -15T306 -31T291 -53T285 -78Q285 -92 293 -99T315 -106Q332 -106 343 -99T366 -92Q373 -92 378 -98L391 -119Q393 -122 393 -128Q393 -136 386 -141Q385 -142 378 -147T359 -158T329 -168T291 -173Q249 -173 226 -152T203 -94Q203
-61 221 -39T263 -5Q215 -1 174 18T101 70T53 146T35 247Q35 308 57 355T114 434T193 482T282 499Q400 499 458 432T516 241Q516 225 500 225H172ZM389 302Q388 319 382 335T364 365T333 386T287 394Q243 394 213 372T174 302H389Z" />
<glyph unicode="&#x11a;" glyph-name="Ecaron" horiz-adv-x="686" d="M369 794Q363 788 357 788Q351 788 347 792L178 944Q172 948 172 956Q172 963 176 967L219 1018Q223 1023 231 1023Q236 1023 242 1020L357 915L473 1020Q477 1024 484 1024Q490 1024 495 1018L539
967Q543 963 543 956Q543 948 537 944L369 794ZM59 0Q45 0 45 14V102Q45 116 59 116H128V602H59Q45 602 45 616V704Q45 718 59 718H616Q630 718 630 704V506Q630 492 616 492H516Q502 492 502 506V602H264V418H460Q474 418 474 404V316Q474 302 460 302H264V116H501V212Q501
226 515 226H616Q629 226 629 212V14Q629 0 616 0H59Z" />
<glyph unicode="&#x11b;" glyph-name="ecaron" horiz-adv-x="554" d="M305 568Q299 562 293 562Q287 562 283 566L114 718Q108 722 108 730Q108 737 112 741L155 792Q159 797 167 797Q172 797 178 794L293 689L409 794Q413 798 420 798Q426 798 431 792L475 741Q479
737 479 730Q479 722 473 718L305 568ZM172 225Q175 194 187 172T218 134T258 112T305 105Q335 105 360 113T403 133T431 155T444 169Q448 175 455 175Q460 175 465 171L513 119Q519 111 519 107Q519 101 515 97Q511 91 496 74T454 39T387 7T294 -7Q241 -7 194
10T111 60T56 140T35 247Q35 308 57 355T114 434T193 482T282 499Q400 499 458 432T516 241Q516 225 500 225H172ZM389 297Q388 315 382 333T364 364T333 386T287 395Q241 395 212 372T174 297H389Z" />
<glyph unicode="&#x11c;" glyph-name="Gcircumflex" horiz-adv-x="778" d="M537 787Q532 781 526 781Q519 781 515 785L399 888L284 785Q280 781 273 781Q265 781 261 787L218 838Q214 842 214 848Q214 856 220 861L389 1012Q393 1016 399 1016Q406 1016 411 1011L579
861Q585 856 585 848Q585 842 581 838L537 787ZM615 0Q601 0 601 14L602 68Q570 38 521 16T397 -7Q323 -7 259 18T146 91T70 207T42 363Q42 452 71 519T148 632T259 701T387 724Q429 724 461 717T517 697T557 671T585 641L583 704V706Q583 718 596 718H692Q705
718 705 704V471Q705 457 692 457H582Q568 457 568 471V482Q568 498 557 518T523 555T469 583T397 595Q354 595 316 579T250 533T205 459T188 360Q188 304 206 260T255 185T325 138T406 122Q440 122 468 128T519 145T558 169T587 195V247H410Q396 247 396 261V342Q396
356 410 356H704Q718 356 718 342V14Q718 0 704 0H615Z" />
<glyph unicode="&#x11d;" glyph-name="gcircumflex" horiz-adv-x="616" d="M438 561Q433 555 427 555Q420 555 416 559L300 662L185 559Q181 555 174 555Q166 555 162 561L119 612Q115 616 115 622Q115 630 121 635L290 786Q294 790 300 790Q307 790 312 785L480
635Q486 630 486 622Q486 616 482 612L438 561ZM270 -236Q222 -236 186 -227T125 -205T85 -180T64 -162Q56 -156 56 -148Q56 -144 59 -141L106 -74Q109 -69 115 -69Q122 -69 131 -77T157 -94T199 -112T264 -120Q327 -120 364 -94T402 -8V67Q398 59 388 47T361 22T318
1T259 -8Q207 -8 166 10T96 63T52 143T36 245Q36 306 53 353T100 433T171 483T261 500Q296 500 322 492T366 471T395 447T409 427H411L410 478Q410 492 424 492H574Q587 492 587 478V400Q587 386 574 386H528V-8Q528 -67 508 -109T453 -180T371 -222T270 -236ZM285
104Q308 104 329 113T366 139T391 183T401 244Q401 315 367 350T285 386Q231 386 199 348T167 243Q167 179 200 142T285 104Z" />
<glyph unicode="&#x11e;" glyph-name="Gbreve" horiz-adv-x="778" d="M615 0Q601 0 601 14L602 68Q570 38 521 16T397 -7Q323 -7 259 18T146 91T70 207T42 363Q42 452 71 519T148 632T259 701T387 724Q429 724 461 717T517 697T557 671T585 641L583 704V706Q583
718 596 718H692Q705 718 705 704V471Q705 457 692 457H582Q568 457 568 471V482Q568 498 557 518T523 555T469 583T397 595Q354 595 316 579T250 533T205 459T188 360Q188 304 206 260T255 185T325 138T406 122Q440 122 468 128T519 145T558 169T587 195V247H410Q396
247 396 261V342Q396 356 410 356H704Q718 356 718 342V14Q718 0 704 0H615ZM550 932Q566 932 566 916Q566 882 555 856T522 811T473 784T412 775Q379 775 352 784T304 811T273 855T261 916Q261 932 277 932H337Q353 932 353 916Q353 887 370 870T412 852Q439 852
457 869T475 916Q475 932 491 932H550Z" />
<glyph unicode="&#x11f;" glyph-name="gbreve" horiz-adv-x="616" d="M270 -236Q222 -236 186 -227T125 -205T85 -180T64 -162Q56 -156 56 -148Q56 -144 59 -141L106 -74Q109 -69 115 -69Q122 -69 131 -77T157 -94T199 -112T264 -120Q327 -120 364 -94T402 -8V67Q398
59 388 47T361 22T318 1T259 -8Q207 -8 166 10T96 63T52 143T36 245Q36 306 53 353T100 433T171 483T261 500Q296 500 322 492T366 471T395 447T409 427H411L410 478Q410 492 424 492H574Q587 492 587 478V400Q587 386 574 386H528V-8Q528 -67 508 -109T453 -180T371
-222T270 -236ZM285 104Q308 104 329 113T366 139T391 183T401 244Q401 315 367 350T285 386Q231 386 199 348T167 243Q167 179 200 142T285 104ZM438 706Q454 706 454 690Q454 656 443 630T410 585T361 558T300 549Q267 549 240 558T192 585T161 629T149 690Q149
706 165 706H225Q241 706 241 690Q241 661 258 644T300 626Q327 626 345 643T363 690Q363 706 379 706H438Z" />
<glyph unicode="&#x120;" glyph-name="Gdotaccent" horiz-adv-x="778" d="M615 0Q601 0 601 14L602 68Q570 38 521 16T397 -7Q323 -7 259 18T146 91T70 207T42 363Q42 452 71 519T148 632T259 701T387 724Q429 724 461 717T517 697T557 671T585 641L583 704V706Q583
718 596 718H692Q705 718 705 704V471Q705 457 692 457H582Q568 457 568 471V482Q568 498 557 518T523 555T469 583T397 595Q354 595 316 579T250 533T205 459T188 360Q188 304 206 260T255 185T325 138T406 122Q440 122 468 128T519 145T558 169T587 195V247H410Q396
247 396 261V342Q396 356 410 356H704Q718 356 718 342V14Q718 0 704 0H615ZM457 849Q457 824 440 807T396 789Q371 789 354 806T336 849Q336 875 353 892T396 910Q422 910 439 893T457 849Z" />
<glyph unicode="&#x121;" glyph-name="gdotaccent" horiz-adv-x="616" d="M270 -236Q222 -236 186 -227T125 -205T85 -180T64 -162Q56 -156 56 -148Q56 -144 59 -141L106 -74Q109 -69 115 -69Q122 -69 131 -77T157 -94T199 -112T264 -120Q327 -120 364 -94T402
-8V67Q398 59 388 47T361 22T318 1T259 -8Q207 -8 166 10T96 63T52 143T36 245Q36 306 53 353T100 433T171 483T261 500Q296 500 322 492T366 471T395 447T409 427H411L410 478Q410 492 424 492H574Q587 492 587 478V400Q587 386 574 386H528V-8Q528 -67 508 -109T453
-180T371 -222T270 -236ZM285 104Q308 104 329 113T366 139T391 183T401 244Q401 315 367 350T285 386Q231 386 199 348T167 243Q167 179 200 142T285 104ZM363 623Q363 598 346 581T302 563Q277 563 260 580T242 623Q242 649 259 666T302 684Q328 684 345 667T363
623Z" />
<glyph unicode="&#x122;" glyph-name="Gcommaaccent" horiz-adv-x="778" d="M371 -231Q371 -227 378 -225T395 -219T412 -206T420 -180Q420 -176 420 -174T419 -170Q418 -168 418 -167Q416 -168 413 -169Q410 -170 400 -170Q374 -170 357 -153T339 -108Q339 -82
357 -64T401 -45Q434 -45 453 -69T473 -137Q473 -205 449 -236T379 -268Q371 -268 371 -262V-231ZM615 0Q601 0 601 14L602 68Q570 38 521 16T397 -7Q323 -7 259 18T146 91T70 207T42 363Q42 452 71 519T148 632T259 701T387 724Q429 724 461 717T517 697T557 671T585
641L583 704V706Q583 718 596 718H692Q705 718 705 704V471Q705 457 692 457H582Q568 457 568 471V482Q568 498 557 518T523 555T469 583T397 595Q354 595 316 579T250 533T205 459T188 360Q188 304 206 260T255 185T325 138T406 122Q440 122 468 128T519 145T558
169T587 195V247H410Q396 247 396 261V342Q396 356 410 356H704Q718 356 718 342V14Q718 0 704 0H615Z" />
<glyph unicode="&#x123;" glyph-name="gcommaaccent" horiz-adv-x="616" d="M270 -236Q222 -236 186 -227T125 -205T85 -180T64 -162Q56 -156 56 -148Q56 -144 59 -141L106 -74Q109 -69 115 -69Q122 -69 131 -77T157 -94T199 -112T264 -120Q327 -120 364 -94T402
-8V67Q398 59 388 47T361 22T318 1T259 -8Q207 -8 166 10T96 63T52 143T36 245Q36 306 53 353T100 433T171 483T261 500Q296 500 322 492T366 471T395 447T409 427H411L410 478Q410 492 424 492H574Q587 492 587 478V400Q587 386 574 386H528V-8Q528 -67 508 -109T453
-180T371 -222T270 -236ZM285 104Q308 104 329 113T366 139T391 183T401 244Q401 315 367 350T285 386Q231 386 199 348T167 243Q167 179 200 142T285 104ZM318 718Q318 715 311 713T294 707T277 693T269 667Q269 659 270 657Q270 655 271 654Q272 655 275 656Q281
658 289 658Q315 658 332 640T350 596Q350 570 332 552T288 533Q255 533 236 557T216 625Q216 693 240 724T310 755Q318 755 318 750V718Z" />
<glyph unicode="&#x124;" glyph-name="Hcircumflex" horiz-adv-x="824" d="M553 787Q548 781 542 781Q535 781 531 785L415 888L300 785Q296 781 289 781Q281 781 277 787L234 838Q230 842 230 848Q230 856 236 861L405 1012Q409 1016 415 1016Q422 1016 427 1011L595
861Q601 856 601 848Q601 842 597 838L553 787ZM491 0Q477 0 477 14V102Q477 116 491 116H560V302H264V116H333Q347 116 347 102V14Q347 0 333 0H59Q45 0 45 14V102Q45 116 59 116H128V602H59Q45 602 45 616V704Q45 718 59 718H333Q347 718 347 704V616Q347 602
333 602H264V415H560V602H491Q477 602 477 616V704Q477 718 491 718H765Q779 718 779 704V616Q779 602 765 602H696V116H765Q779 116 779 102V14Q779 0 765 0H491Z" />
<glyph unicode="&#x125;" glyph-name="hcircumflex" horiz-adv-x="606" d="M428 752Q423 746 417 746Q410 746 406 750L290 853L175 750Q171 746 164 746Q156 746 152 752L109 803Q105 807 105 813Q105 821 111 826L280 977Q284 981 290 981Q297 981 302 976L470
826Q476 821 476 813Q476 807 472 803L428 752ZM438 0Q391 0 391 46V280Q391 326 374 354T309 382Q282 382 265 372T238 350T225 328T221 318V106H264Q278 106 278 92V14Q278 0 264 0H40Q26 0 26 14V92Q26 106 40 106H89V612H40Q26 612 26 626V704Q26 718 40 718H207Q221
718 221 704V504Q221 489 219 468T214 435H217Q224 445 235 456T262 476T301 492T353 499Q393 499 425 486T478 450T511 394T523 323V106H573Q587 106 587 92V14Q587 0 573 0H438Z" />
<glyph unicode="&#x126;" glyph-name="Hbar" horiz-adv-x="824" d="M491 0Q477 0 477 14V102Q477 116 491 116H560V302H264V116H333Q347 116 347 102V14Q347 0 333 0H59Q45 0 45 14V102Q45 116 59 116H128V476H78Q67 476 67 487V523Q67 534 78 534H128V602H59Q45
602 45 616V704Q45 718 59 718H333Q347 718 347 704V616Q347 602 333 602H264V534H560V602H491Q477 602 477 616V704Q477 718 491 718H765Q779 718 779 704V616Q779 602 765 602H696V534H731Q742 534 742 523V487Q742 476 731 476H696V116H765Q779 116 779 102V14Q779
0 765 0H491ZM560 476H264V415H560V476Z" />
<glyph unicode="&#x127;" glyph-name="hbar" horiz-adv-x="606" d="M438 0Q391 0 391 46V280Q391 326 374 354T309 382Q282 382 265 372T238 350T225 328T221 318V106H264Q278 106 278 92V14Q278 0 264 0H40Q26 0 26 14V92Q26 106 40 106H89V537H33Q22 537 22
548V570Q22 581 33 581H89V612H40Q26 612 26 626V704Q26 718 40 718H207Q221 718 221 704V581H295Q306 581 306 570V548Q306 537 295 537H221V504Q221 488 219 467T215 435H217Q224 445 235 456T262 476T301 492T353 499Q393 499 424 486T477 450T510 394T522 323L523
106H573Q587 106 587 92V14Q587 0 573 0H438Z" />
<glyph unicode="&#x128;" glyph-name="Itilde" horiz-adv-x="392" d="M59 0Q45 0 45 14V102Q45 116 59 116H128V602H59Q45 602 45 616V704Q45 718 59 718H333Q347 718 347 704V616Q347 602 333 602H264V116H333Q347 116 347 102V14Q347 0 333 0H59ZM368 933Q382
933 382 919Q382 856 357 819T276 781Q245 781 225 790T189 811T160 831T128 841Q111 841 102 831T93 787Q93 773 79 773H31Q17 773 17 787Q17 847 42 884T123 921Q153 921 173 911T208 890T238 868T270 858Q287 858 296 870T306 919Q306 933 320 933H368Z" />
<glyph unicode="&#x129;" glyph-name="itilde" horiz-adv-x="322" d="M52 0Q39 0 39 14V92Q39 106 52 106H101V386H52Q39 386 39 400V478Q39 492 52 492H220Q234 492 234 478V106H277Q291 106 291 92V14Q291 0 277 0H52ZM315 707Q329 707 329 693Q329 630 304
593T223 555Q192 555 172 564T136 585T107 605T75 615Q58 615 49 605T40 561Q40 547 26 547H-22Q-36 547 -36 561Q-36 621 -11 658T70 695Q100 695 120 685T155 664T185 642T217 632Q234 632 243 644T253 693Q253 707 267 707H315Z" />
<glyph unicode="&#x12a;" glyph-name="Imacron" horiz-adv-x="392" d="M59 0Q45 0 45 14V102Q45 116 59 116H128V602H59Q45 602 45 616V704Q45 718 59 718H333Q347 718 347 704V616Q347 602 333 602H264V116H333Q347 116 347 102V14Q347 0 333 0H59ZM40 776Q24
776 24 792V867Q24 883 40 883H355Q371 883 371 867V792Q371 776 355 776H40Z" />
<glyph unicode="&#x12b;" glyph-name="imacron" horiz-adv-x="322" d="M52 0Q39 0 39 14V92Q39 106 52 106H101V386H52Q39 386 39 400V478Q39 492 52 492H220Q234 492 234 478V106H277Q291 106 291 92V14Q291 0 277 0H52ZM-6 550Q-22 550 -22 566V641Q-22 657
-6 657H309Q325 657 325 641V566Q325 550 309 550H-6Z" />
<glyph unicode="&#x12c;" glyph-name="Ibreve" horiz-adv-x="392" d="M59 0Q45 0 45 14V102Q45 116 59 116H128V602H59Q45 602 45 616V704Q45 718 59 718H333Q347 718 347 704V616Q347 602 333 602H264V116H333Q347 116 347 102V14Q347 0 333 0H59ZM337 932Q353
932 353 916Q353 882 342 856T309 811T260 784T199 775Q166 775 139 784T91 811T60 855T48 916Q48 932 64 932H124Q140 932 140 916Q140 887 157 870T199 852Q226 852 244 869T262 916Q262 932 278 932H337Z" />
<glyph unicode="&#x12d;" glyph-name="ibreve" horiz-adv-x="322" d="M52 0Q39 0 39 14V92Q39 106 52 106H101V386H52Q39 386 39 400V478Q39 492 52 492H220Q234 492 234 478V106H277Q291 106 291 92V14Q291 0 277 0H52ZM289 706Q305 706 305 690Q305 656 294
630T261 585T212 558T151 549Q118 549 91 558T43 585T12 629T0 690Q0 706 16 706H76Q92 706 92 690Q92 661 109 644T151 626Q178 626 196 643T214 690Q214 706 230 706H289Z" />
<glyph unicode="&#x12e;" glyph-name="Iogonek" horiz-adv-x="392" d="M346 -119Q348 -122 348 -128Q348 -136 341 -141Q340 -142 333 -147T314 -158T284 -168T246 -173Q204 -173 181 -152T158 -94Q158 -75 164 -60T181 -33T205 -13T231 0H59Q45 0 45 14V102Q45
116 59 116H128V602H59Q45 602 45 616V704Q45 718 59 718H333Q347 718 347 704V616Q347 602 333 602H264V116H333Q347 116 347 102V14Q347 0 333 0H304Q296 -4 285 -11T264 -28T247 -50T240 -78Q240 -92 248 -99T270 -106Q287 -106 298 -99T321 -92Q328 -92 333
-98L346 -119Z" />
<glyph unicode="&#x12f;" glyph-name="iogonek" horiz-adv-x="322" d="M270 -119Q272 -122 272 -128Q272 -136 265 -141Q264 -142 257 -147T238 -158T208 -168T170 -173Q128 -173 105 -152T82 -94Q82 -75 88 -60T105 -33T129 -13T155 0H52Q39 0 39 14V92Q39 106
52 106H101V386H52Q39 386 39 400V478Q39 492 52 492H220Q234 492 234 478V106H277Q291 106 291 92V14Q291 0 277 0H228Q220 -4 209 -11T188 -28T171 -50T164 -78Q164 -92 172 -99T194 -106Q211 -106 222 -99T245 -92Q252 -92 257 -98L270 -119ZM248 642Q248 624
242 609T224 583T197 565T164 558Q129 558 104 582T79 642Q79 677 104 702T164 727Q181 727 196 721T223 703T241 676T248 642Z" />
<glyph unicode="&#x130;" glyph-name="Idotaccent" horiz-adv-x="392" d="M59 0Q45 0 45 14V102Q45 116 59 116H128V602H59Q45 602 45 616V704Q45 718 59 718H333Q347 718 347 704V616Q347 602 333 602H264V116H333Q347 116 347 102V14Q347 0 333 0H59ZM258 849Q258
824 241 807T197 789Q172 789 155 806T137 849Q137 875 154 892T197 910Q223 910 240 893T258 849Z" />
<glyph unicode="&#x131;" glyph-name="dotlessi" horiz-adv-x="322" d="M52 0Q39 0 39 14V92Q39 106 52 106H101V386H52Q39 386 39 400V478Q39 492 52 492H220Q234 492 234 478V106H277Q291 106 291 92V14Q291 0 277 0H52Z" />
<glyph unicode="&#x134;" glyph-name="Jcircumflex" horiz-adv-x="460" d="M425 787Q420 781 414 781Q407 781 403 785L287 888L172 785Q168 781 161 781Q153 781 149 787L106 838Q102 842 102 848Q102 856 108 861L277 1012Q281 1016 287 1016Q294 1016 299 1011L467
861Q473 856 473 848Q473 842 469 838L425 787ZM222 602H153Q139 602 139 616V704Q139 718 153 718H427Q441 718 441 704V616Q441 602 427 602H358V297Q358 215 338 159T279 67T182 16T46 0Q33 0 33 14V102Q33 116 46 116Q97 116 131 127T185 160T213 213T222 285V602Z"
/>
<glyph unicode="&#x135;" glyph-name="jcircumflex" horiz-adv-x="293" d="M90 386H40Q26 386 26 400V478Q26 492 40 492H208Q222 492 222 478V-46Q222 -140 175 -188T37 -236Q-2 -236 -29 -226T-74 -202T-98 -178T-106 -166Q-106 -161 -102 -157L-59 -100Q-53
-94 -46 -94Q-40 -94 -35 -98T-23 -107T-6 -116T22 -120Q57 -120 73 -99T90 -45V386ZM280 561Q275 555 269 555Q262 555 258 559L142 662L27 559Q23 555 16 555Q8 555 4 561L-39 612Q-43 616 -43 622Q-43 630 -37 635L132 786Q136 790 142 790Q149 790 154 785L322
635Q328 630 328 622Q328 616 324 612L280 561Z" />
<glyph unicode="&#x136;" glyph-name="Kcommaaccent" horiz-adv-x="757" d="M366 -231Q366 -227 373 -225T390 -219T407 -206T415 -180Q415 -176 415 -174T414 -170Q413 -168 413 -167Q411 -168 408 -169Q405 -170 395 -170Q369 -170 352 -153T334 -108Q334 -82
352 -64T396 -45Q429 -45 448 -69T468 -137Q468 -205 444 -236T374 -268Q366 -268 366 -262V-231ZM595 0Q569 0 553 16T523 60L444 227Q440 234 435 241T422 255T403 264T373 268H264V116H354Q368 116 368 102V14Q368 0 354 0H59Q45 0 45 14V102Q45 116 59 116H128V602H59Q45
602 45 616V704Q45 718 59 718H313Q326 718 326 704V616Q326 602 313 602H264V378H329Q376 378 410 390T465 429T497 498T508 602H442Q428 602 428 616V704Q428 718 442 718H709Q723 718 723 704V616Q723 602 709 602H644Q643 501 614 431T529 322Q549 311 562
293T588 246L647 116H712Q727 116 727 102V14Q727 0 712 0H595Z" />
<glyph unicode="&#x137;" glyph-name="kcommaaccent" horiz-adv-x="612" d="M261 -231Q261 -227 268 -225T285 -219T302 -206T310 -180Q310 -176 310 -174T309 -170Q308 -168 308 -167Q306 -168 303 -169Q300 -170 290 -170Q264 -170 247 -153T229 -108Q229 -82
247 -64T291 -45Q324 -45 343 -69T363 -137Q363 -205 339 -236T269 -268Q261 -268 261 -262V-231ZM487 0Q467 0 452 10T425 39L291 220L221 160V106H264Q278 106 278 92V14Q278 0 264 0H40Q26 0 26 14V92Q26 106 40 106H89V612H40Q26 612 26 626V704Q26 718 40
718H207Q221 718 221 704V272L351 386H318Q304 386 304 400V478Q304 492 318 492H543Q557 492 557 478V400Q557 386 543 386H491L379 292L518 106H577Q590 106 590 92V14Q590 0 577 0H487Z" />
<glyph unicode="&#x138;" glyph-name="kgreenlandic" horiz-adv-x="627" d="M487 0Q467 0 452 10T425 39L291 220L221 160V106H264Q278 106 278 92V14Q278 0 264 0H40Q26 0 26 14V92Q26 106 40 106H89V386H40Q26 386 26 400V478Q26 492 40 492H207Q221 492 221
478V272L351 386H318Q304 386 304 400V478Q304 492 318 492H543Q557 492 557 478V400Q557 386 543 386H491L379 292L518 106H577Q590 106 590 92V14Q590 0 577 0H487Z" />
<glyph unicode="&#x139;" glyph-name="Lacute" horiz-adv-x="639" d="M265 783Q259 779 254 779Q246 779 242 786L197 838Q193 842 193 848Q193 856 199 861L380 1023Q384 1027 390 1027Q398 1027 403 1021L459 954Q462 949 462 944Q462 936 457 931L265 783ZM59
0Q45 0 45 14V102Q45 116 59 116H128V602H59Q45 602 45 616V704Q45 718 59 718H330Q347 718 347 702V618Q347 602 330 602H264V116H494V212Q494 226 508 226H608Q623 226 623 212V16Q623 9 618 5T606 0H59Z" />
<glyph unicode="&#x13a;" glyph-name="lacute" horiz-adv-x="317" d="M119 762Q113 758 108 758Q100 758 96 765L51 817Q47 821 47 827Q47 835 53 840L234 1002Q238 1006 244 1006Q252 1006 257 1000L313 933Q316 928 316 923Q316 915 311 910L119 762ZM43 0Q29
0 29 14V92Q29 106 43 106H92V612H43Q29 612 29 626V705Q29 719 43 719H205Q225 719 225 699V106H268Q282 106 282 92V14Q282 0 268 0H43Z" />
<glyph unicode="&#x13b;" glyph-name="Lcommaaccent" horiz-adv-x="639" d="M290 -231Q290 -227 297 -225T314 -219T331 -206T339 -180Q339 -176 339 -174T338 -170Q337 -168 337 -167Q335 -168 332 -169Q329 -170 319 -170Q293 -170 276 -153T258 -108Q258 -82
276 -64T320 -45Q353 -45 372 -69T392 -137Q392 -205 368 -236T298 -268Q290 -268 290 -262V-231ZM59 0Q45 0 45 14V102Q45 116 59 116H128V602H59Q45 602 45 616V704Q45 718 59 718H330Q347 718 347 702V618Q347 602 330 602H264V116H494V212Q494 226 508 226H608Q623
226 623 212V16Q623 9 618 5T606 0H59Z" />
<glyph unicode="&#x13c;" glyph-name="lcommaaccent" horiz-adv-x="317" d="M124 -231Q124 -227 131 -225T148 -219T165 -206T173 -180Q173 -176 173 -174T172 -170Q171 -168 171 -167Q169 -168 166 -169Q163 -170 153 -170Q127 -170 110 -153T92 -108Q92 -82
110 -64T154 -45Q187 -45 206 -69T226 -137Q226 -205 202 -236T132 -268Q124 -268 124 -262V-231ZM43 0Q29 0 29 14V92Q29 106 43 106H92V612H43Q29 612 29 626V705Q29 719 43 719H205Q225 719 225 699V106H268Q282 106 282 92V14Q282 0 268 0H43Z" />
<glyph unicode="&#x13d;" glyph-name="Lcaron" horiz-adv-x="640" d="M404 531Q404 537 412 537Q427 537 440 548T453 582Q453 586 453 588T452 592Q451 594 451 595Q449 594 446 593Q440 591 433 591Q408 591 391 609T373 653Q373 679 391 697T435 716Q467 716
486 692T506 624Q506 556 482 525T412 494Q404 494 404 499V531ZM59 0Q45 0 45 14V102Q45 116 59 116H128V602H59Q45 602 45 616V704Q45 718 59 718H330Q347 718 347 702V618Q347 602 330 602H264V116H494V212Q494 226 508 226H608Q623 226 623 212V16Q623 9 618
5T606 0H59Z" />
<glyph unicode="&#x13e;" glyph-name="lcaron" horiz-adv-x="317" d="M296 558Q296 564 304 564Q319 564 332 575T345 609Q345 613 345 615T344 619Q343 621 343 622Q341 621 338 620Q332 618 325 618Q300 618 283 636T265 680Q265 706 283 724T327 743Q359 743
378 719T398 651Q398 583 374 552T304 521Q296 521 296 526V558ZM43 0Q29 0 29 14V92Q29 106 43 106H92V612H43Q29 612 29 626V705Q29 719 43 719H205Q225 719 225 699V106H268Q282 106 282 92V14Q282 0 268 0H43Z" />
<glyph unicode="&#x13f;" glyph-name="Ldot" horiz-adv-x="639" d="M59 0Q45 0 45 14V102Q45 116 59 116H128V602H59Q45 602 45 616V704Q45 718 59 718H330Q347 718 347 702V618Q347 602 330 602H264V116H494V212Q494 226 508 226H608Q623 226 623 212V16Q623
9 618 5T606 0H59ZM436 322Q436 297 419 280T375 262Q350 262 333 279T315 322Q315 348 332 365T375 383Q401 383 418 366T436 322Z" />
<glyph unicode="&#x140;" glyph-name="ldot" horiz-adv-x="365" d="M43 0Q29 0 29 14V92Q29 106 43 106H92V612H43Q29 612 29 626V705Q29 719 43 719H205Q225 719 225 699V106H268Q282 106 282 92V14Q282 0 268 0H43ZM397 370Q397 345 380 328T336 310Q311 310
294 327T276 370Q276 396 293 413T336 431Q362 431 379 414T397 370Z" />
<glyph unicode="&#x141;" glyph-name="Lslash" horiz-adv-x="640" d="M60 0Q46 0 46 14V102Q46 116 60 116H129V237L81 189Q77 184 70 184Q62 184 58 189L29 218Q24 222 24 229Q24 236 29 241L129 340V602H60Q46 602 46 616V704Q46 718 60 718H331Q348 718 348
702V618Q348 602 331 602H265V476L329 540Q334 545 340 545Q345 545 352 540L381 511Q386 504 386 499Q386 493 381 488L265 372V116H495V212Q495 226 509 226H609Q624 226 624 212V16Q624 9 619 5T607 0H60Z" />
<glyph unicode="&#x142;" glyph-name="lslash" horiz-adv-x="344" d="M65 0Q51 0 51 14V92Q51 106 65 106H114V249L54 189Q49 184 42 184Q34 184 30 189L1 218Q-4 223 -4 229Q-4 234 1 241L114 353V612H65Q51 612 51 626V705Q51 719 65 719H227Q247 719 247 699V486L301
540Q306 545 313 545Q319 545 324 540L354 511Q358 506 358 499Q358 492 354 488L247 381V106H290Q304 106 304 92V14Q304 0 290 0H65Z" />
<glyph unicode="&#x143;" glyph-name="Nacute" horiz-adv-x="806" d="M343 783Q337 779 332 779Q324 779 320 786L275 838Q271 842 271 848Q271 856 277 861L458 1023Q462 1027 468 1027Q476 1027 481 1021L537 954Q540 949 540 944Q540 936 535 931L343 783ZM589
0Q565 0 551 11T526 41L306 385Q298 398 291 411T278 436Q272 449 266 461H264V116H333Q347 116 347 102V14Q347 0 333 0H59Q45 0 45 14V102Q45 116 59 116H128V599H59Q45 599 45 612V704Q45 718 59 718H226Q252 718 265 704T290 671L499 342Q510 324 519 306T536
272T548 246T553 236H556V602H487Q473 602 473 616V704Q473 718 487 718H762Q776 718 776 704V616Q776 602 762 602H692V14Q692 0 678 0H589Z" />
<glyph unicode="&#x144;" glyph-name="nacute" horiz-adv-x="619" d="M267 557Q261 553 256 553Q248 553 244 560L199 612Q195 616 195 622Q195 630 201 635L382 797Q386 801 392 801Q400 801 405 795L461 728Q464 723 464 718Q464 710 459 705L267 557ZM451 0Q404
0 404 46V280Q404 326 387 354T322 383Q296 383 279 374T253 353T239 331T234 319V106H277Q291 106 291 92V14Q291 0 277 0H53Q39 0 39 14V92Q39 106 53 106H102V386H53Q39 386 39 400V478Q39 492 53 492H202Q216 492 216 478V414H219Q221 417 228 430T253 459T298
487T368 499Q408 499 439 486T492 450T525 394T537 323V106H586Q600 106 600 92V14Q600 0 586 0H451Z" />
<glyph unicode="&#x145;" glyph-name="Ncommaaccent" horiz-adv-x="806" d="M369 -231Q369 -227 376 -225T393 -219T410 -206T418 -180Q418 -176 418 -174T417 -170Q416 -168 416 -167Q414 -168 411 -169Q408 -170 398 -170Q372 -170 355 -153T337 -108Q337 -82
355 -64T399 -45Q432 -45 451 -69T471 -137Q471 -205 447 -236T377 -268Q369 -268 369 -262V-231ZM589 0Q565 0 551 11T526 41L306 385Q298 398 291 411T278 436Q272 449 266 461H264V116H333Q347 116 347 102V14Q347 0 333 0H59Q45 0 45 14V102Q45 116 59 116H128V599H59Q45
599 45 612V704Q45 718 59 718H226Q252 718 265 704T290 671L499 342Q510 324 519 306T536 272T548 246T553 236H556V602H487Q473 602 473 616V704Q473 718 487 718H762Q776 718 776 704V616Q776 602 762 602H692V14Q692 0 678 0H589Z" />
<glyph unicode="&#x146;" glyph-name="ncommaaccent" horiz-adv-x="619" d="M270 -231Q270 -227 277 -225T294 -219T311 -206T319 -180Q319 -176 319 -174T318 -170Q317 -168 317 -167Q315 -168 312 -169Q309 -170 299 -170Q273 -170 256 -153T238 -108Q238 -82
256 -64T300 -45Q333 -45 352 -69T372 -137Q372 -205 348 -236T278 -268Q270 -268 270 -262V-231ZM451 0Q404 0 404 46V280Q404 326 387 354T322 383Q296 383 279 374T253 353T239 331T234 319V106H277Q291 106 291 92V14Q291 0 277 0H53Q39 0 39 14V92Q39 106
53 106H102V386H53Q39 386 39 400V478Q39 492 53 492H202Q216 492 216 478V414H219Q221 417 228 430T253 459T298 487T368 499Q408 499 439 486T492 450T525 394T537 323V106H586Q600 106 600 92V14Q600 0 586 0H451Z" />
<glyph unicode="&#x147;" glyph-name="Ncaron" horiz-adv-x="806" d="M414 794Q408 788 402 788Q396 788 392 792L223 944Q217 948 217 956Q217 963 221 967L264 1018Q268 1023 276 1023Q281 1023 287 1020L402 915L518 1020Q522 1024 529 1024Q535 1024 540 1018L584
967Q588 963 588 956Q588 948 582 944L414 794ZM589 0Q565 0 551 11T526 41L306 385Q298 398 291 411T278 436Q272 449 266 461H264V116H333Q347 116 347 102V14Q347 0 333 0H59Q45 0 45 14V102Q45 116 59 116H128V599H59Q45 599 45 612V704Q45 718 59 718H226Q252
718 265 704T290 671L499 342Q510 324 519 306T536 272T548 246T553 236H556V602H487Q473 602 473 616V704Q473 718 487 718H762Q776 718 776 704V616Q776 602 762 602H692V14Q692 0 678 0H589Z" />
<glyph unicode="&#x148;" glyph-name="ncaron" horiz-adv-x="619" d="M315 568Q309 562 303 562Q297 562 293 566L124 718Q118 722 118 730Q118 737 122 741L165 792Q169 797 177 797Q182 797 188 794L303 689L419 794Q423 798 430 798Q436 798 441 792L485 741Q489
737 489 730Q489 722 483 718L315 568ZM451 0Q404 0 404 46V280Q404 326 387 354T322 383Q296 383 279 374T253 353T239 331T234 319V106H277Q291 106 291 92V14Q291 0 277 0H53Q39 0 39 14V92Q39 106 53 106H102V386H53Q39 386 39 400V478Q39 492 53 492H202Q216
492 216 478V414H219Q221 417 228 430T253 459T298 487T368 499Q408 499 439 486T492 450T525 394T537 323V106H586Q600 106 600 92V14Q600 0 586 0H451Z" />
<glyph unicode="&#x149;" glyph-name="napostrophe" horiz-adv-x="619" d="M-6 571Q-6 575 1 577T18 583T35 596T43 622Q43 626 43 628T42 632Q41 634 41 635Q39 634 36 633Q33 632 23 632Q-3 632 -20 649T-38 694Q-38 720 -20 738T24 757Q57 757 76 733T96 665Q96
597 72 566T2 534Q-6 534 -6 540V571ZM451 0Q404 0 404 46V280Q404 326 387 354T322 383Q296 383 279 374T253 353T239 331T234 319V106H277Q291 106 291 92V14Q291 0 277 0H53Q39 0 39 14V92Q39 106 53 106H102V386H53Q39 386 39 400V478Q39 492 53 492H202Q216
492 216 478V414H219Q221 417 228 430T253 459T298 487T368 499Q408 499 439 486T492 450T525 394T537 323V106H586Q600 106 600 92V14Q600 0 586 0H451Z" />
<glyph unicode="&#x14a;" glyph-name="Eng" horiz-adv-x="806" d="M378 -115Q429 -115 462 -108T516 -86T544 -50T553 0V10Q545 16 539 23T526 41L306 385Q298 398 291 411T278 436Q272 449 266 461H264V116H333Q347 116 347 102V14Q347 0 333 0H59Q45 0 45 14V102Q45
116 59 116H128V599H59Q45 599 45 612V704Q45 718 59 718H226Q252 718 265 704T290 671L499 342Q510 324 519 306T536 272T548 246T553 236H556V602H487Q473 602 473 616V704Q473 718 487 718H762Q776 718 776 704V616Q776 602 762 602H692V11Q691 -42 675 -86T621
-163T525 -213T378 -231Q364 -231 364 -217V-129Q364 -115 378 -115Z" />
<glyph unicode="&#x14b;" glyph-name="eng" horiz-adv-x="601" d="M537 -46Q537 -140 489 -188T351 -236Q312 -236 285 -226T241 -203T217 -179T209 -166Q209 -161 213 -157L255 -100Q261 -94 269 -94Q275 -94 280 -98T292 -107T309 -116T337 -120Q372 -120 388
-99T404 -45V280Q404 326 387 354T322 383Q296 383 279 374T253 353T239 331T234 319V106H277Q291 106 291 92V14Q291 0 277 0H53Q39 0 39 14V92Q39 106 53 106H102V386H53Q39 386 39 400V478Q39 492 53 492H202Q216 492 216 478V414H219Q221 417 228 430T253 459T298
487T368 499Q408 499 439 486T492 450T525 394T537 323V-46Z" />
<glyph unicode="&#x14c;" glyph-name="Omacron" horiz-adv-x="797" d="M248 776Q232 776 232 792V867Q232 883 248 883H563Q579 883 579 867V792Q579 776 563 776H248ZM399 -7Q323 -7 258 20T144 96T69 213T41 363Q41 452 72 519T153 632T268 701T399 724Q466
724 530 701T644 633T725 520T756 363Q756 277 729 209T653 92T540 19T399 -7ZM399 121Q441 121 479 138T547 186T593 262T610 360Q610 417 593 461T546 535T478 580T398 596Q357 596 319 581T252 535T205 461T187 360Q187 306 204 262T250 187T317 138T399 121Z"
/>
<glyph unicode="&#x14d;" glyph-name="omacron" horiz-adv-x="590" d="M137 550Q121 550 121 566V641Q121 657 137 657H452Q468 657 468 641V566Q468 550 452 550H137ZM294 -7Q235 -7 188 11T107 62T55 142T36 247Q36 305 55 352T108 431T190 481T295 499Q352
499 399 482T481 431T535 352T554 247Q554 189 536 142T483 62T401 11T294 -7ZM294 105Q349 105 384 143T419 248Q419 313 384 349T295 386Q242 386 207 350T171 248Q171 182 205 144T294 105Z" />
<glyph unicode="&#x14e;" glyph-name="Obreve" horiz-adv-x="797" d="M399 -7Q323 -7 258 20T144 96T69 213T41 363Q41 452 72 519T153 632T268 701T399 724Q466 724 530 701T644 633T725 520T756 363Q756 277 729 209T653 92T540 19T399 -7ZM399 121Q441 121
479 138T547 186T593 262T610 360Q610 417 593 461T546 535T478 580T398 596Q357 596 319 581T252 535T205 461T187 360Q187 306 204 262T250 187T317 138T399 121ZM542 932Q558 932 558 916Q558 882 547 856T514 811T465 784T404 775Q371 775 344 784T296 811T265
855T253 916Q253 932 269 932H329Q345 932 345 916Q345 887 362 870T404 852Q431 852 449 869T467 916Q467 932 483 932H542Z" />
<glyph unicode="&#x14f;" glyph-name="obreve" horiz-adv-x="590" d="M294 -7Q235 -7 188 11T107 62T55 142T36 247Q36 305 55 352T108 431T190 481T295 499Q352 499 399 482T481 431T535 352T554 247Q554 189 536 142T483 62T401 11T294 -7ZM294 105Q349 105
384 143T419 248Q419 313 384 349T295 386Q242 386 207 350T171 248Q171 182 205 144T294 105ZM438 706Q454 706 454 690Q454 656 443 630T410 585T361 558T300 549Q267 549 240 558T192 585T161 629T149 690Q149 706 165 706H225Q241 706 241 690Q241 661 258
644T300 626Q327 626 345 643T363 690Q363 706 379 706H438Z" />
<glyph unicode="&#x150;" glyph-name="Ohungarumlaut" horiz-adv-x="797" d="M304 802Q298 798 293 798Q285 798 281 805L236 857Q232 861 232 867Q232 875 238 880L419 1042Q423 1046 429 1046Q435 1046 442 1039L498 973Q501 967 501 962Q501 955 496 950L304
802ZM518 802Q512 798 507 798Q499 798 495 805L451 857Q446 862 446 868Q446 876 453 880L633 1042Q637 1046 643 1046Q649 1046 656 1039L712 973Q715 967 715 962Q715 955 710 950L518 802ZM399 -7Q323 -7 258 20T144 96T69 213T41 363Q41 452 72 519T153 632T268
701T399 724Q466 724 530 701T644 633T725 520T756 363Q756 277 729 209T653 92T540 19T399 -7ZM399 121Q441 121 479 138T547 186T593 262T610 360Q610 417 593 461T546 535T478 580T398 596Q357 596 319 581T252 535T205 461T187 360Q187 306 204 262T250 187T317
138T399 121Z" />
<glyph unicode="&#x151;" glyph-name="ohungarumlaut" horiz-adv-x="590" d="M158 576Q152 572 147 572Q139 572 135 579L90 631Q86 635 86 641Q86 649 92 654L273 816Q277 820 283 820Q289 820 296 813L352 747Q355 741 355 736Q355 729 350 724L158 576ZM372
576Q366 572 361 572Q353 572 349 579L305 631Q300 636 300 642Q300 650 307 654L487 816Q491 820 497 820Q503 820 510 813L566 747Q569 741 569 736Q569 729 564 724L372 576ZM294 -7Q235 -7 188 11T107 62T55 142T36 247Q36 305 55 352T108 431T190 481T295
499Q352 499 399 482T481 431T535 352T554 247Q554 189 536 142T483 62T401 11T294 -7ZM294 105Q349 105 384 143T419 248Q419 313 384 349T295 386Q242 386 207 350T171 248Q171 182 205 144T294 105Z" />
<glyph unicode="&#x152;" glyph-name="OE" horiz-adv-x="954" d="M397 0Q322 0 257 26T144 100T69 215T41 363Q41 451 71 517T151 628T265 694T395 718H884Q898 718 898 704V506Q898 492 884 492H786Q772 492 772 506V602H534V418H730Q744 418 744 404V316Q744
302 730 302H534V116H771V212Q771 226 785 226H884Q898 226 898 212V14Q898 0 884 0H397ZM395 594Q354 593 317 578T251 533T205 460T188 360Q188 306 204 263T249 190T315 143T395 125V594Z" />
<glyph unicode="&#x153;" glyph-name="oe" horiz-adv-x="939" d="M556 225Q559 194 571 172T602 134T642 112T689 105Q719 105 744 113T787 133T815 155T828 169Q832 175 839 175Q844 175 849 171L897 119Q903 111 903 107Q903 101 899 97Q895 91 880 74T838 39T771
7T678 -7Q621 -7 572 12T487 67Q453 32 404 13T294 -7Q235 -7 188 11T107 62T55 142T36 247Q36 305 55 352T108 431T190 481T295 499Q355 499 404 480T488 424Q524 461 571 480T666 499Q784 499 842 432T900 241Q900 225 884 225H556ZM294 105Q348 105 382 141T419
241V248Q419 313 384 349T295 386Q242 386 207 350T171 248Q171 182 205 144T294 105ZM773 297Q772 314 766 331T748 363T717 386T671 395Q627 395 597 372T558 297H773Z" />
<glyph unicode="&#x154;" glyph-name="Racute" horiz-adv-x="716" d="M292 783Q286 779 281 779Q273 779 269 786L224 838Q220 842 220 848Q220 856 226 861L407 1023Q411 1027 417 1027Q425 1027 430 1021L486 954Q489 949 489 944Q489 936 484 931L292 783ZM560
0Q534 0 518 16T488 60L409 221Q401 238 388 253T348 268H264V116H352Q366 116 366 102V14Q366 0 352 0H59Q45 0 45 14V102Q45 116 59 116H128V602H59Q45 602 45 616V704Q45 718 59 718H388Q442 718 487 702T565 655T616 583T635 487Q635 416 603 368T511 295Q521
286 531 273T551 241L617 116H681Q695 116 695 102V14Q695 0 681 0H560ZM354 375Q423 375 459 399T496 483Q496 516 486 538T456 575T411 595T354 602H264V375H354Z" />
<glyph unicode="&#x155;" glyph-name="racute" horiz-adv-x="452" d="M207 557Q201 553 196 553Q188 553 184 560L139 612Q135 616 135 622Q135 630 141 635L322 797Q326 801 332 801Q340 801 345 795L401 728Q404 723 404 718Q404 710 399 705L207 557ZM53 0Q39
0 39 14V92Q39 106 53 106H102V386H53Q39 386 39 400V478Q39 492 53 492H202Q216 492 216 478V367H220Q234 403 260 432Q283 456 321 476T422 497Q438 497 438 481V381Q438 365 422 365H388Q355 365 327 354T278 323T246 279T234 228V106H277Q291 106 291 92V14Q291
0 277 0H53Z" />
<glyph unicode="&#x156;" glyph-name="Rcommaaccent" horiz-adv-x="716" d="M323 -231Q323 -227 330 -225T347 -219T364 -206T372 -180Q372 -176 372 -174T371 -170Q370 -168 370 -167Q368 -168 365 -169Q362 -170 352 -170Q326 -170 309 -153T291 -108Q291 -82
309 -64T353 -45Q386 -45 405 -69T425 -137Q425 -205 401 -236T331 -268Q323 -268 323 -262V-231ZM560 0Q534 0 518 16T488 60L409 221Q401 238 388 253T348 268H264V116H352Q366 116 366 102V14Q366 0 352 0H59Q45 0 45 14V102Q45 116 59 116H128V602H59Q45 602
45 616V704Q45 718 59 718H388Q442 718 487 702T565 655T616 583T635 487Q635 416 603 368T511 295Q521 286 531 273T551 241L617 116H681Q695 116 695 102V14Q695 0 681 0H560ZM354 375Q423 375 459 399T496 483Q496 516 486 538T456 575T411 595T354 602H264V375H354Z"
/>
<glyph unicode="&#x157;" glyph-name="rcommaaccent" horiz-adv-x="452" d="M144 -231Q144 -227 151 -225T168 -219T185 -206T193 -180Q193 -176 193 -174T192 -170Q191 -168 191 -167Q189 -168 186 -169Q183 -170 173 -170Q147 -170 130 -153T112 -108Q112 -82
130 -64T174 -45Q207 -45 226 -69T246 -137Q246 -205 222 -236T152 -268Q144 -268 144 -262V-231ZM53 0Q39 0 39 14V92Q39 106 53 106H102V386H53Q39 386 39 400V478Q39 492 53 492H202Q216 492 216 478V367H220Q234 403 260 432Q283 456 321 476T422 497Q438 497
438 481V381Q438 365 422 365H388Q355 365 327 354T278 323T246 279T234 228V106H277Q291 106 291 92V14Q291 0 277 0H53Z" />
<glyph unicode="&#x158;" glyph-name="Rcaron" horiz-adv-x="716" d="M355 794Q349 788 343 788Q337 788 333 792L164 944Q158 948 158 956Q158 963 162 967L205 1018Q209 1023 217 1023Q222 1023 228 1020L343 915L459 1020Q463 1024 470 1024Q476 1024 481 1018L525
967Q529 963 529 956Q529 948 523 944L355 794ZM560 0Q534 0 518 16T488 60L409 221Q401 238 388 253T348 268H264V116H352Q366 116 366 102V14Q366 0 352 0H59Q45 0 45 14V102Q45 116 59 116H128V602H59Q45 602 45 616V704Q45 718 59 718H388Q442 718 487 702T565
655T616 583T635 487Q635 416 603 368T511 295Q521 286 531 273T551 241L617 116H681Q695 116 695 102V14Q695 0 681 0H560ZM354 375Q423 375 459 399T496 483Q496 516 486 538T456 575T411 595T354 602H264V375H354Z" />
<glyph unicode="&#x159;" glyph-name="rcaron" horiz-adv-x="452" d="M208 568Q202 562 196 562Q190 562 186 566L17 718Q11 722 11 730Q11 737 15 741L58 792Q62 797 70 797Q75 797 81 794L196 689L312 794Q316 798 323 798Q329 798 334 792L378 741Q382 737
382 730Q382 722 376 718L208 568ZM52 0Q38 0 38 14V92Q38 106 52 106H101V386H52Q38 386 38 400V478Q38 492 52 492H201Q215 492 215 478V367H219Q233 403 259 432Q282 456 320 476T421 497Q437 497 437 481V381Q437 365 421 365H387Q354 365 326 354T277 323T245
279T233 228V106H276Q290 106 290 92V14Q290 0 276 0H52Z" />
<glyph unicode="&#x15a;" glyph-name="Sacute" horiz-adv-x="680" d="M332 783Q326 779 321 779Q313 779 309 786L264 838Q260 842 260 848Q260 856 266 861L447 1023Q451 1027 457 1027Q465 1027 470 1021L526 954Q529 949 529 944Q529 936 524 931L332 783ZM65
0Q51 0 51 14V252Q51 266 65 266H174Q188 266 188 252V239Q188 236 196 218T224 178T278 140T367 122Q423 122 451 144T480 201Q480 232 450 250T373 283T274 312T175 351T99 414T68 515Q68 560 84 598T131 664T205 708T305 724Q373 724 417 705T488 656L485 705V707Q485
718 499 718H594Q608 718 608 705V470Q608 456 594 456H484Q470 456 470 470V491Q470 506 462 524T437 557T391 584T324 595Q270 595 242 572T214 515Q214 489 232 472T280 442T348 419T425 398T503 371T571 333T619 278T637 201Q637 161 623 124T580 57T504 11T392
-7Q339 -7 300 6T233 37T191 71T172 94L174 14Q174 0 160 0H65Z" />
<glyph unicode="&#x15b;" glyph-name="sacute" horiz-adv-x="513" d="M248 557Q242 553 237 553Q229 553 225 560L180 612Q176 616 176 622Q176 630 182 635L363 797Q367 801 373 801Q381 801 386 795L442 728Q445 723 445 718Q445 710 440 705L248 557ZM282 -7Q247
-7 220 1T175 20T146 40T135 53H133Q133 44 134 37Q134 30 134 24T135 16Q135 0 119 0H57Q40 0 40 16V169Q40 185 56 185H129Q145 185 145 169V159Q153 141 168 128Q181 116 202 107T258 97Q293 97 312 109T332 144Q332 162 312 172T261 190T195 207T129 232T78
276T57 348Q57 414 103 456T234 499Q287 499 319 484T371 445H373Q372 453 371 460Q370 465 370 470T370 476Q370 492 387 492H444Q460 492 460 476V324Q460 317 455 313T443 308H370Q354 308 354 324V333Q354 343 348 354T330 374T299 388T255 394Q226 394 207
382T188 345Q188 323 209 312T262 293T331 277T400 252T453 209T475 137Q475 111 465 85T432 39T373 6T282 -7Z" />
<glyph unicode="&#x15c;" glyph-name="Scircumflex" horiz-adv-x="680" d="M485 787Q480 781 474 781Q467 781 463 785L347 888L232 785Q228 781 221 781Q213 781 209 787L166 838Q162 842 162 848Q162 856 168 861L337 1012Q341 1016 347 1016Q354 1016 359 1011L527
861Q533 856 533 848Q533 842 529 838L485 787ZM65 0Q51 0 51 14V252Q51 266 65 266H174Q188 266 188 252V239Q188 236 196 218T224 178T278 140T367 122Q423 122 451 144T480 201Q480 232 450 250T373 283T274 312T175 351T99 414T68 515Q68 560 84 598T131 664T205
708T305 724Q373 724 417 705T488 656L485 705V707Q485 718 499 718H594Q608 718 608 705V470Q608 456 594 456H484Q470 456 470 470V491Q470 506 462 524T437 557T391 584T324 595Q270 595 242 572T214 515Q214 489 232 472T280 442T348 419T425 398T503 371T571
333T619 278T637 201Q637 161 623 124T580 57T504 11T392 -7Q339 -7 300 6T233 37T191 71T172 94L174 14Q174 0 160 0H65Z" />
<glyph unicode="&#x15d;" glyph-name="scircumflex" horiz-adv-x="513" d="M390 561Q385 555 379 555Q372 555 368 559L252 662L137 559Q133 555 126 555Q118 555 114 561L71 612Q67 616 67 622Q67 630 73 635L242 786Q246 790 252 790Q259 790 264 785L432 635Q438
630 438 622Q438 616 434 612L390 561ZM282 -7Q247 -7 220 1T175 20T146 40T135 53H133Q133 44 134 37Q134 30 134 24T135 16Q135 0 119 0H57Q40 0 40 16V169Q40 185 56 185H129Q145 185 145 169V159Q153 141 168 128Q181 116 202 107T258 97Q293 97 312 109T332
144Q332 162 312 172T261 190T195 207T129 232T78 276T57 348Q57 414 103 456T234 499Q287 499 319 484T371 445H373Q372 453 371 460Q370 465 370 470T370 476Q370 492 387 492H444Q460 492 460 476V324Q460 317 455 313T443 308H370Q354 308 354 324V333Q354
343 348 354T330 374T299 388T255 394Q226 394 207 382T188 345Q188 323 209 312T262 293T331 277T400 252T453 209T475 137Q475 111 465 85T432 39T373 6T282 -7Z" />
<glyph unicode="&#x15e;" glyph-name="Scedilla" horiz-adv-x="680" d="M346 -161Q327 -161 311 -157T284 -148T265 -138T257 -132Q251 -129 251 -121Q251 -116 254 -111L266 -91Q270 -85 278 -85Q281 -85 285 -87T295 -93T311 -98T335 -101Q365 -101 365 -81Q365
-69 356 -66T334 -61T313 -58T303 -49Q303 -48 305 -42L320 1Q285 9 259 22T215 50T187 76T172 94L174 14Q174 0 160 0H65Q51 0 51 14V252Q51 266 65 266H174Q188 266 188 252V239Q188 236 196 218T224 178T278 140T367 122Q423 122 451 144T480 201Q480 232 450
250T373 283T274 312T175 351T99 414T68 515Q68 560 84 598T131 664T205 708T305 724Q373 724 417 705T488 656L485 705V707Q485 718 499 718H594Q608 718 608 705V470Q608 456 594 456H484Q470 456 470 470V491Q470 506 462 524T437 557T391 584T324 595Q270 595
242 572T214 515Q214 489 232 472T280 442T348 419T425 398T503 371T571 333T619 278T637 201Q637 161 623 124T580 57T504 11T392 -7H376L372 -21Q375 -21 385 -22T408 -29T429 -47T438 -81Q438 -118 413 -139T346 -161Z" />
<glyph unicode="&#x15f;" glyph-name="scedilla" horiz-adv-x="514" d="M261 -161Q242 -161 226 -157T199 -148T180 -138T172 -132Q166 -129 166 -121Q166 -116 169 -111L181 -91Q185 -85 193 -85Q196 -85 200 -87T210 -93T226 -98T250 -101Q280 -101 280 -81Q280
-69 271 -66T249 -61T228 -58T218 -49Q218 -48 220 -42L233 -3Q210 2 192 10T162 27T143 43T135 53H133Q133 44 134 37Q134 30 134 24T135 16Q135 0 119 0H57Q40 0 40 16V169Q40 185 56 185H129Q145 185 145 169V159Q153 141 168 128Q181 116 202 107T258 97Q293
97 312 109T332 144Q332 162 312 172T261 190T195 207T129 232T78 276T57 348Q57 414 103 456T234 499Q287 499 319 484T371 445H373Q372 453 371 460Q370 465 370 470T370 476Q370 492 387 492H444Q460 492 460 476V324Q460 317 455 313T443 308H370Q354 308 354
324V333Q354 343 348 354T330 374T299 388T255 394Q226 394 207 382T188 345Q188 323 209 312T262 293T331 277T400 252T453 209T475 137Q475 111 466 86T434 41T377 7T291 -7L287 -21Q290 -21 300 -22T323 -29T344 -47T353 -81Q353 -118 328 -139T261 -161Z" />
<glyph unicode="&#x160;" glyph-name="Scaron" horiz-adv-x="680" d="M365 794Q359 788 353 788Q347 788 343 792L174 944Q168 948 168 956Q168 963 172 967L215 1018Q219 1023 227 1023Q232 1023 238 1020L353 915L469 1020Q473 1024 480 1024Q486 1024 491 1018L535
967Q539 963 539 956Q539 948 533 944L365 794ZM65 0Q51 0 51 14V252Q51 266 65 266H174Q188 266 188 252V239Q188 236 196 218T224 178T278 140T367 122Q423 122 451 144T480 201Q480 232 450 250T373 283T274 312T175 351T99 414T68 515Q68 560 84 598T131 664T205
708T305 724Q373 724 417 705T488 656L485 705V707Q485 718 499 718H594Q608 718 608 705V470Q608 456 594 456H484Q470 456 470 470V491Q470 506 462 524T437 557T391 584T324 595Q270 595 242 572T214 515Q214 489 232 472T280 442T348 419T425 398T503 371T571
333T619 278T637 201Q637 161 623 124T580 57T504 11T392 -7Q339 -7 300 6T233 37T191 71T172 94L174 14Q174 0 160 0H65Z" />
<glyph unicode="&#x161;" glyph-name="scaron" horiz-adv-x="513" d="M276 568Q270 562 264 562Q258 562 254 566L85 718Q79 722 79 730Q79 737 83 741L126 792Q130 797 138 797Q143 797 149 794L264 689L380 794Q384 798 391 798Q397 798 402 792L446 741Q450
737 450 730Q450 722 444 718L276 568ZM282 -7Q247 -7 220 1T175 20T146 40T135 53H133Q133 44 134 37Q134 30 134 24T135 16Q135 0 119 0H57Q40 0 40 16V169Q40 185 56 185H129Q145 185 145 169V159Q153 141 168 128Q181 116 202 107T258 97Q293 97 312 109T332
144Q332 162 312 172T261 190T195 207T129 232T78 276T57 348Q57 414 103 456T234 499Q287 499 319 484T371 445H373Q372 453 371 460Q370 465 370 470T370 476Q370 492 387 492H444Q460 492 460 476V324Q460 317 455 313T443 308H370Q354 308 354 324V333Q354
343 348 354T330 374T299 388T255 394Q226 394 207 382T188 345Q188 323 209 312T262 293T331 277T400 252T453 209T475 137Q475 111 465 85T432 39T373 6T282 -7Z" />
<glyph unicode="&#x162;" glyph-name="Tcommaaccent" horiz-adv-x="685" d="M313 -231Q313 -227 320 -225T337 -219T354 -206T362 -180Q362 -176 362 -174T361 -170Q360 -168 360 -167Q358 -168 355 -169Q352 -170 342 -170Q316 -170 299 -153T281 -108Q281 -82
299 -64T343 -45Q376 -45 395 -69T415 -137Q415 -205 391 -236T321 -268Q313 -268 313 -262V-231ZM209 0Q193 0 193 16V100Q193 116 209 116H276V602H147V507Q147 500 143 495T131 490H35Q28 490 23 495T18 507V702Q18 709 23 713T35 718H650Q666 718 666 702V507Q666
500 662 495T650 490H554Q547 490 543 495T538 507V602H412V116H477Q493 116 493 100V16Q493 0 477 0H209Z" />
<glyph unicode="&#x163;" glyph-name="tcommaaccent" horiz-adv-x="410" d="M173 -231Q173 -227 180 -225T197 -219T214 -206T222 -180Q222 -176 222 -174T221 -170Q220 -168 220 -167Q218 -168 215 -169Q212 -170 202 -170Q176 -170 159 -153T141 -108Q141 -82
159 -64T203 -45Q236 -45 255 -69T275 -137Q275 -205 251 -236T181 -268Q173 -268 173 -262V-231ZM407 72Q410 67 410 63Q410 55 404 48Q397 42 386 33T359 15T320 0T268 -7Q178 -7 131 41T83 183V386H35Q19 386 19 402V476Q19 492 35 492H83V604Q83 620 99 620H200Q216
620 216 604V492H341Q357 492 357 476V402Q357 386 341 386H216V184Q216 151 232 130T283 109Q300 109 311 113T329 122T341 131T351 135Q359 135 364 129L407 72Z" />
<glyph unicode="&#x164;" glyph-name="Tcaron" horiz-adv-x="685" d="M349 794Q343 788 337 788Q331 788 327 792L158 944Q152 948 152 956Q152 963 156 967L199 1018Q203 1023 211 1023Q216 1023 222 1020L337 915L453 1020Q457 1024 464 1024Q470 1024 475 1018L519
967Q523 963 523 956Q523 948 517 944L349 794ZM209 0Q193 0 193 16V100Q193 116 209 116H276V602H147V507Q147 500 143 495T131 490H35Q28 490 23 495T18 507V702Q18 709 23 713T35 718H650Q666 718 666 702V507Q666 500 662 495T650 490H554Q547 490 543 495T538
507V602H412V116H477Q493 116 493 100V16Q493 0 477 0H209Z" />
<glyph unicode="&#x165;" glyph-name="tcaron" horiz-adv-x="410" d="M265 570Q265 576 273 576Q288 576 301 587T314 621Q314 625 314 627T313 631Q312 633 312 634Q310 633 307 632Q301 630 294 630Q269 630 252 648T234 692Q234 718 252 736T296 755Q328 755
347 731T367 663Q367 595 343 564T273 533Q265 533 265 538V570ZM407 72Q410 67 410 63Q410 55 404 48Q397 42 386 33T359 15T320 0T268 -7Q178 -7 131 41T83 183V386H35Q19 386 19 402V476Q19 492 35 492H83V604Q83 620 99 620H200Q216 620 216 604V492H341Q357
492 357 476V402Q357 386 341 386H216V184Q216 151 232 130T283 109Q300 109 311 113T329 122T341 131T351 135Q359 135 364 129L407 72Z" />
<glyph unicode="&#x166;" glyph-name="Tbar" horiz-adv-x="685" d="M209 0Q193 0 193 16V100Q193 116 209 116H276V269H190Q174 269 174 285V359Q174 375 190 375H276V602H151V507Q151 500 147 495T135 490H35Q28 490 23 495T18 507V702Q18 709 23 713T35 718H650Q666
718 666 702V507Q666 500 662 495T650 490H549Q542 490 538 495T533 507V602H412V375H499Q515 375 515 359V285Q515 269 499 269H412V116H477Q493 116 493 100V16Q493 0 477 0H209Z" />
<glyph unicode="&#x167;" glyph-name="tbar" horiz-adv-x="411" d="M407 72Q410 67 410 63Q410 55 404 48Q397 42 386 33T359 15T320 0T268 -7Q178 -7 131 41T83 183V251H39Q28 251 28 262V284Q28 295 39 295H83V386H35Q19 386 19 402V476Q19 492 35 492H83V604Q83
620 99 620H200Q216 620 216 604V492H341Q357 492 357 476V402Q357 386 341 386H216V295H290Q301 295 301 284V262Q301 251 290 251H216V184Q216 151 232 130T283 109Q300 109 311 113T329 122T341 131T351 135Q359 135 364 129L407 72Z" />
<glyph unicode="&#x168;" glyph-name="Utilde" horiz-adv-x="759" d="M521 602H452Q438 602 438 616V704Q438 718 452 718H727Q741 718 741 704V616Q741 602 727 602H657V268Q657 199 638 148T582 62T495 10T381 -7Q318 -7 267 10T178 61T121 147T101 268V602H32Q18
602 18 616V704Q18 718 32 718H307Q321 718 321 704V616Q321 602 307 602H237V265Q237 238 243 212T266 166T311 134T381 122Q417 122 443 132T487 162T512 205T521 259V602ZM574 933Q588 933 588 919Q588 856 563 819T482 781Q451 781 431 790T395 811T366 831T334
841Q317 841 308 831T299 787Q299 773 285 773H237Q223 773 223 787Q223 847 248 884T329 921Q359 921 379 911T414 890T444 868T476 858Q493 858 502 870T512 919Q512 933 526 933H574Z" />
<glyph unicode="&#x169;" glyph-name="utilde" horiz-adv-x="607" d="M449 0Q403 0 403 46V78H400Q398 74 392 61T370 32T328 5T259 -7Q218 -7 186 6T131 42T96 98T83 169V386H33Q20 386 20 400V478Q20 492 33 492H169Q216 492 216 446V212Q216 166 233 138T298
109Q324 109 341 118T368 139T382 161T386 173V386H342Q328 386 328 400V478Q328 492 342 492H504Q518 492 518 478V106H567Q581 106 581 92V14Q581 0 567 0H449ZM460 707Q474 707 474 693Q474 630 449 593T368 555Q337 555 317 564T281 585T252 605T220 615Q203
615 194 605T185 561Q185 547 171 547H123Q109 547 109 561Q109 621 134 658T215 695Q245 695 265 685T300 664T330 642T362 632Q379 632 388 644T398 693Q398 707 412 707H460Z" />
<glyph unicode="&#x16a;" glyph-name="Umacron" horiz-adv-x="759" d="M521 602H452Q438 602 438 616V704Q438 718 452 718H727Q741 718 741 704V616Q741 602 727 602H657V268Q657 199 638 148T582 62T495 10T381 -7Q318 -7 267 10T178 61T121 147T101 268V602H32Q18
602 18 616V704Q18 718 32 718H307Q321 718 321 704V616Q321 602 307 602H237V265Q237 238 243 212T266 166T311 134T381 122Q417 122 443 132T487 162T512 205T521 259V602ZM212 776Q196 776 196 792V867Q196 883 212 883H527Q543 883 543 867V792Q543 776 527
776H212Z" />
<glyph unicode="&#x16b;" glyph-name="umacron" horiz-adv-x="607" d="M449 0Q403 0 403 46V78H400Q398 74 392 61T370 32T328 5T259 -7Q218 -7 186 6T131 42T96 98T83 169V386H33Q20 386 20 400V478Q20 492 33 492H169Q216 492 216 446V212Q216 166 233 138T298
109Q324 109 341 118T368 139T382 161T386 173V386H342Q328 386 328 400V478Q328 492 342 492H504Q518 492 518 478V106H567Q581 106 581 92V14Q581 0 567 0H449ZM129 550Q113 550 113 566V641Q113 657 129 657H444Q460 657 460 641V566Q460 550 444 550H129Z"
/>
<glyph unicode="&#x16c;" glyph-name="Ubreve" horiz-adv-x="759" d="M521 602H452Q438 602 438 616V704Q438 718 452 718H727Q741 718 741 704V616Q741 602 727 602H657V268Q657 199 638 148T582 62T495 10T381 -7Q318 -7 267 10T178 61T121 147T101 268V602H32Q18
602 18 616V704Q18 718 32 718H307Q321 718 321 704V616Q321 602 307 602H237V265Q237 238 243 212T266 166T311 134T381 122Q417 122 443 132T487 162T512 205T521 259V602ZM520 932Q536 932 536 916Q536 882 525 856T492 811T443 784T382 775Q349 775 322 784T274
811T243 855T231 916Q231 932 247 932H307Q323 932 323 916Q323 887 340 870T382 852Q409 852 427 869T445 916Q445 932 461 932H520Z" />
<glyph unicode="&#x16d;" glyph-name="ubreve" horiz-adv-x="607" d="M449 0Q403 0 403 46V78H400Q398 74 392 61T370 32T328 5T259 -7Q218 -7 186 6T131 42T96 98T83 169V386H33Q20 386 20 400V478Q20 492 33 492H169Q216 492 216 446V212Q216 166 233 138T298
109Q324 109 341 118T368 139T382 161T386 173V386H342Q328 386 328 400V478Q328 492 342 492H504Q518 492 518 478V106H567Q581 106 581 92V14Q581 0 567 0H449ZM420 706Q436 706 436 690Q436 656 425 630T392 585T343 558T282 549Q249 549 222 558T174 585T143
629T131 690Q131 706 147 706H207Q223 706 223 690Q223 661 240 644T282 626Q309 626 327 643T345 690Q345 706 361 706H420Z" />
<glyph unicode="&#x16e;" glyph-name="Uring" horiz-adv-x="759" d="M416 808Q400 797 382 797Q359 797 341 814T322 858Q322 881 338 900T381 919Q404 919 423 901T442 857Q442 843 436 830T416 808ZM396 842Q403 846 403 857Q403 865 397 872T381 879Q373 879
367 873T361 859Q361 850 367 844T383 837Q391 837 396 842ZM521 602H452Q438 602 438 616V704Q438 718 452 718H727Q741 718 741 704V616Q741 602 727 602H657V268Q657 199 638 148T582 62T495 10T381 -7Q318 -7 267 10T178 61T121 147T101 268V602H32Q18 602
18 616V704Q18 718 32 718H307Q321 718 321 704V616Q321 602 307 602H237V265Q237 238 243 212T266 166T311 134T381 122Q417 122 443 132T487 162T512 205T521 259V602Z" />
<glyph unicode="&#x16f;" glyph-name="uring" horiz-adv-x="607" d="M325 582Q309 571 291 571Q268 571 250 588T231 632Q231 655 247 674T290 693Q313 693 332 675T351 631Q351 617 345 604T325 582ZM305 616Q312 620 312 631Q312 639 306 646T290 653Q282 653
276 647T270 633Q270 624 276 618T292 611Q300 611 305 616ZM449 0Q403 0 403 46V78H400Q398 74 392 61T370 32T328 5T259 -7Q218 -7 186 6T131 42T96 98T83 169V386H33Q20 386 20 400V478Q20 492 33 492H169Q216 492 216 446V212Q216 166 233 138T298 109Q324
109 341 118T368 139T382 161T386 173V386H342Q328 386 328 400V478Q328 492 342 492H504Q518 492 518 478V106H567Q581 106 581 92V14Q581 0 567 0H449Z" />
<glyph unicode="&#x170;" glyph-name="Uhungarumlaut" horiz-adv-x="759" d="M521 602H452Q438 602 438 616V704Q438 718 452 718H727Q741 718 741 704V616Q741 602 727 602H657V268Q657 199 638 148T582 62T495 10T381 -7Q318 -7 267 10T178 61T121 147T101 268V602H32Q18
602 18 616V704Q18 718 32 718H307Q321 718 321 704V616Q321 602 307 602H237V265Q237 238 243 212T266 166T311 134T381 122Q417 122 443 132T487 162T512 205T521 259V602ZM261 802Q255 798 250 798Q242 798 238 805L193 857Q189 861 189 867Q189 875 195 880L376
1042Q380 1046 386 1046Q392 1046 399 1039L455 973Q458 967 458 962Q458 955 453 950L261 802ZM475 802Q469 798 464 798Q456 798 452 805L408 857Q403 862 403 868Q403 876 410 880L590 1042Q594 1046 600 1046Q606 1046 613 1039L669 973Q672 967 672 962Q672
955 667 950L475 802Z" />
<glyph unicode="&#x171;" glyph-name="uhungarumlaut" horiz-adv-x="607" d="M449 0Q403 0 403 46V78H400Q398 74 392 61T370 32T328 5T259 -7Q218 -7 186 6T131 42T96 98T83 169V386H33Q20 386 20 400V478Q20 492 33 492H169Q216 492 216 446V212Q216 166 233
138T298 109Q324 109 341 118T368 139T382 161T386 173V386H342Q328 386 328 400V478Q328 492 342 492H504Q518 492 518 478V106H567Q581 106 581 92V14Q581 0 567 0H449ZM137 576Q131 572 126 572Q118 572 114 579L69 631Q65 635 65 641Q65 649 71 654L252 816Q256
820 262 820Q268 820 275 813L331 747Q334 741 334 736Q334 729 329 724L137 576ZM351 576Q345 572 340 572Q332 572 328 579L284 631Q279 636 279 642Q279 650 286 654L466 816Q470 820 476 820Q482 820 489 813L545 747Q548 741 548 736Q548 729 543 724L351
576Z" />
<glyph unicode="&#x172;" glyph-name="Uogonek" horiz-adv-x="759" d="M521 602H452Q438 602 438 616V704Q438 718 452 718H727Q741 718 741 704V616Q741 602 727 602H657V268Q657 143 595 75T425 -4Q416 -9 407 -16T389 -33T375 -54T369 -78Q369 -92 377 -99T399
-106Q416 -106 427 -99T450 -92Q457 -92 462 -98L475 -119Q477 -122 477 -128Q477 -136 470 -141Q469 -142 462 -147T443 -158T413 -168T375 -173Q333 -173 310 -152T287 -94Q287 -61 305 -39T346 -5Q290 -1 245 18T168 72T119 155T101 268V602H32Q18 602 18 616V704Q18
718 32 718H307Q321 718 321 704V616Q321 602 307 602H237V265Q237 238 243 212T266 166T311 134T381 122Q417 122 443 132T487 162T512 205T521 259V602Z" />
<glyph unicode="&#x173;" glyph-name="uogonek" horiz-adv-x="607" d="M546 0Q538 -4 527 -11T506 -28T489 -50T482 -78Q482 -92 490 -99T512 -106Q529 -106 540 -99T563 -92Q570 -92 575 -98L588 -119Q590 -122 590 -128Q590 -136 583 -141Q582 -142 575 -147T556
-158T526 -168T488 -173Q446 -173 423 -152T400 -94Q400 -75 406 -60T423 -33T447 -13T473 0H449Q403 0 403 46V78H400Q398 74 392 61T370 32T328 5T259 -7Q218 -7 186 6T131 42T96 98T83 169V386H33Q20 386 20 400V478Q20 492 33 492H169Q216 492 216 446V212Q216
166 233 138T298 109Q324 109 341 118T368 139T382 161T386 173V386H342Q328 386 328 400V478Q328 492 342 492H504Q518 492 518 478V106H567Q581 106 581 92V14Q581 0 567 0H546Z" />
<glyph unicode="&#x174;" glyph-name="Wcircumflex" horiz-adv-x="1022" d="M609 787Q604 781 598 781Q591 781 587 785L471 888L356 785Q352 781 345 781Q337 781 333 787L290 838Q286 842 286 848Q286 856 292 861L461 1012Q465 1016 471 1016Q478 1016 483
1011L651 861Q657 856 657 848Q657 842 653 838L609 787ZM675 0Q646 0 631 12T607 56L512 467H507L415 56Q407 24 391 12T346 0H292Q263 0 248 12T224 56L66 602H8Q-6 602 -6 616V704Q-6 718 8 718H280Q294 718 294 704V616Q294 602 280 602H214L315 180H324L447
718H573L698 180H707L808 602H742Q728 602 728 616V704Q728 718 742 718H1014Q1028 718 1028 704V616Q1028 602 1014 602H954L798 56Q789 25 774 13T730 0H675Z" />
<glyph unicode="&#x175;" glyph-name="wcircumflex" horiz-adv-x="858" d="M568 561Q563 555 557 555Q550 555 546 559L430 662L315 559Q311 555 304 555Q296 555 292 561L249 612Q245 616 245 622Q245 630 251 635L420 786Q424 790 430 790Q437 790 442 785L610
635Q616 630 616 622Q616 616 612 612L568 561ZM524 0Q490 0 486 31L430 287H428L372 31Q368 0 334 0H227Q209 0 202 7T189 31L75 386H23Q10 386 10 400V478Q10 492 23 492H250Q264 492 264 478V400Q264 386 250 386H212L283 118H285L355 386H334Q321 386 321 400V478Q321
492 334 492H524Q538 492 538 478V400Q538 386 524 386H505L574 118H576L646 386H609Q595 386 595 400V478Q595 492 609 492H835Q849 492 849 478V400Q849 386 835 386H783L669 31Q664 15 656 8T631 0H524Z" />
<glyph unicode="&#x176;" glyph-name="Ycircumflex" horiz-adv-x="692" d="M205 0Q192 0 192 14V102Q192 116 205 116H277V278Q275 280 258 308T213 382T149 484T73 602H5Q-9 602 -9 616V704Q-9 718 5 718H286Q300 718 300 704V616Q300 602 286 602H230L348 394H353L469
602H409Q395 602 395 616V704Q395 718 409 718H688Q702 718 702 704V616Q702 602 688 602H620Q581 542 545 485T480 382T433 309T413 278V116H485Q499 116 499 102V14Q499 0 485 0H205ZM438 787Q433 781 427 781Q420 781 416 785L300 888L185 785Q181 781 174 781Q166
781 162 787L119 838Q115 842 115 848Q115 856 121 861L290 1012Q294 1016 300 1016Q307 1016 312 1011L480 861Q486 856 486 848Q486 842 482 838L438 787Z" />
<glyph unicode="&#x177;" glyph-name="ycircumflex" horiz-adv-x="589" d="M518 -8Q518 -67 498 -109T442 -180T360 -222T259 -236Q211 -236 175 -227T114 -205T74 -180T53 -162Q46 -157 46 -148Q46 -143 48 -141L95 -74Q98 -69 104 -69Q111 -69 121 -77T147 -94T189
-111T254 -119Q285 -119 312 -113T359 -93T390 -58T402 -8V78H399Q397 74 391 61T369 32T327 5T258 -7Q217 -7 185 6T131 42T96 98T84 169L82 386H33Q19 386 19 400V478Q19 492 33 492H168Q215 492 215 446V212Q215 166 232 138T297 110Q323 110 340 119T367 139T381
161T385 173V386H342Q328 386 328 400V478Q328 492 342 492H504Q517 492 517 478L518 -8ZM418 561Q413 555 407 555Q400 555 396 559L280 662L165 559Q161 555 154 555Q146 555 142 561L99 612Q95 616 95 622Q95 630 101 635L270 786Q274 790 280 790Q287 790 292
785L460 635Q466 630 466 622Q466 616 462 612L418 561Z" />
<glyph unicode="&#x178;" glyph-name="Ydieresis" horiz-adv-x="692" d="M205 0Q192 0 192 14V102Q192 116 205 116H277V278Q275 280 258 308T213 382T149 484T73 602H5Q-9 602 -9 616V704Q-9 718 5 718H286Q300 718 300 704V616Q300 602 286 602H230L348 394H353L469
602H409Q395 602 395 616V704Q395 718 409 718H688Q702 718 702 704V616Q702 602 688 602H620Q581 542 545 485T480 382T433 309T413 278V116H485Q499 116 499 102V14Q499 0 485 0H205ZM300 841Q300 815 282 798T238 780Q212 780 195 797T178 841Q178 867 195 885T238
903Q264 903 282 885T300 841ZM490 841Q490 815 472 798T428 780Q402 780 385 797T367 841Q367 867 384 885T428 903Q454 903 472 885T490 841Z" />
<glyph unicode="&#x179;" glyph-name="Zacute" horiz-adv-x="674" d="M286 783Q280 779 275 779Q267 779 263 786L218 838Q214 842 214 848Q214 856 220 861L401 1023Q405 1027 411 1027Q419 1027 424 1021L480 954Q483 949 483 944Q483 936 478 931L286 783ZM66
0Q50 0 50 16V93Q50 104 58 117T77 143L441 602H178V515Q178 499 162 499H66Q50 499 50 515V702Q50 718 66 718H608Q624 718 624 702V635Q624 618 617 605T598 577L232 116H495V203Q495 219 512 219H608Q624 219 624 203V16Q624 0 608 0H66Z" />
<glyph unicode="&#x17a;" glyph-name="zacute" horiz-adv-x="556" d="M259 557Q253 553 248 553Q240 553 236 560L191 612Q187 616 187 622Q187 630 193 635L374 797Q378 801 384 801Q392 801 397 795L453 728Q456 723 456 718Q456 710 451 705L259 557ZM60 0Q46
0 46 14V79Q46 99 51 107T68 125L344 386H149V321Q149 307 135 307H60Q46 307 46 321V478Q46 492 60 492H496Q510 492 510 478V418Q510 402 504 392T486 370L212 106H407V169Q407 183 421 183H496Q510 183 510 169V14Q510 0 496 0H60Z" />
<glyph unicode="&#x17b;" glyph-name="Zdotaccent" horiz-adv-x="674" d="M66 0Q50 0 50 16V93Q50 104 58 117T77 143L441 602H178V515Q178 499 162 499H66Q50 499 50 515V702Q50 718 66 718H608Q624 718 624 702V635Q624 618 617 605T598 577L232 116H495V203Q495
219 512 219H608Q624 219 624 203V16Q624 0 608 0H66ZM407 849Q407 824 390 807T346 789Q321 789 304 806T286 849Q286 875 303 892T346 910Q372 910 389 893T407 849Z" />
<glyph unicode="&#x17c;" glyph-name="zdotaccent" horiz-adv-x="556" d="M60 0Q46 0 46 14V79Q46 99 51 107T68 125L344 386H149V321Q149 307 135 307H60Q46 307 46 321V478Q46 492 60 492H496Q510 492 510 478V418Q510 402 504 392T486 370L212 106H407V169Q407
183 421 183H496Q510 183 510 169V14Q510 0 496 0H60ZM337 623Q337 598 320 581T276 563Q251 563 234 580T216 623Q216 649 233 666T276 684Q302 684 319 667T337 623Z" />
<glyph unicode="&#x17d;" glyph-name="Zcaron" horiz-adv-x="674" d="M357 794Q351 788 345 788Q339 788 335 792L166 944Q160 948 160 956Q160 963 164 967L207 1018Q211 1023 219 1023Q224 1023 230 1020L345 915L461 1020Q465 1024 472 1024Q478 1024 483 1018L527
967Q531 963 531 956Q531 948 525 944L357 794ZM66 0Q50 0 50 16V93Q50 104 58 117T77 143L441 602H178V515Q178 499 162 499H66Q50 499 50 515V702Q50 718 66 718H608Q624 718 624 702V635Q624 618 617 605T598 577L232 116H495V203Q495 219 512 219H608Q624 219
624 203V16Q624 0 608 0H66Z" />
<glyph unicode="&#x17e;" glyph-name="zcaron" horiz-adv-x="556" d="M287 568Q281 562 275 562Q269 562 265 566L96 718Q90 722 90 730Q90 737 94 741L137 792Q141 797 149 797Q154 797 160 794L275 689L391 794Q395 798 402 798Q408 798 413 792L457 741Q461
737 461 730Q461 722 455 718L287 568ZM60 0Q46 0 46 14V79Q46 99 51 107T68 125L344 386H149V321Q149 307 135 307H60Q46 307 46 321V478Q46 492 60 492H496Q510 492 510 478V418Q510 402 504 392T486 370L212 106H407V169Q407 183 421 183H496Q510 183 510 169V14Q510
0 496 0H60Z" />
<glyph unicode="&#x17f;" glyph-name="longs" horiz-adv-x="360" d="M53 0Q39 0 39 14V92Q39 106 53 106H102V386H52Q38 386 38 400V478Q38 492 52 492H102V536Q102 630 149 678T287 726Q326 726 353 716T397 692T423 668T431 656Q431 652 428 649L383 590Q377
584 372 584Q368 584 363 588T350 597T331 606T302 610Q267 610 251 589T235 535V106H318Q331 106 331 92V14Q331 0 318 0H53Z" />
<glyph unicode="&#x192;" glyph-name="florin" horiz-adv-x="582" d="M222 386H172Q158 386 158 400V478Q158 492 172 492H222V536Q222 630 269 678T407 726Q445 726 472 716T517 693T543 669T551 656Q551 652 548 649L503 590Q497 584 492 584Q488 584 483 588T470
597T451 606T422 610Q387 610 371 589T355 535V492H482Q496 492 496 478V400Q496 386 482 386H355V-45Q355 -140 308 -188T170 -236Q131 -236 104 -226T59 -202T33 -178T25 -166Q25 -164 29 -158L74 -100Q78 -94 85 -94Q89 -94 94 -98T107 -106T126 -115T155 -119Q190
-119 206 -99T222 -45V386Z" />
<glyph unicode="&#x1fc;" glyph-name="AEacute" horiz-adv-x="1033" d="M553 783Q547 779 542 779Q534 779 530 786L485 838Q481 842 481 848Q481 856 487 861L668 1023Q672 1027 678 1027Q686 1027 691 1021L747 954Q750 949 750 944Q750 936 745 931L553 783ZM415
0Q401 0 401 14V102Q401 116 415 116H484V302H282L209 116H276Q290 116 290 102V14Q290 0 276 0H8Q-6 0 -6 14V102Q-6 116 8 116H73L269 602H202Q188 602 188 616V704Q188 718 202 718H972Q986 718 986 704V506Q986 492 972 492H872Q858 492 858 506V602H620V418H816Q830
418 830 404V316Q830 302 816 302H620V116H857V212Q857 226 871 226H971Q985 226 985 212V14Q985 0 971 0H415ZM484 602H404L328 418H484V602Z" />
<glyph unicode="&#x1fd;" glyph-name="aeacute" horiz-adv-x="874" d="M427 557Q421 553 416 553Q408 553 404 560L359 612Q355 616 355 622Q355 630 361 635L542 797Q546 801 552 801Q560 801 565 795L621 728Q624 723 624 718Q624 710 619 705L427 557ZM492
225Q495 194 507 172T538 134T578 112T625 105Q655 105 680 113T723 133T751 155T764 169Q768 175 775 175Q780 175 785 171L833 119Q839 111 839 107Q839 101 835 97Q831 91 816 74T774 39T707 7T614 -7Q546 -7 490 20T398 98Q387 82 369 64T325 30T268 4T195
-7Q120 -7 75 31T29 135Q29 213 96 250T285 288H355V295Q355 341 331 362T258 383Q223 383 199 377T159 364T134 350T122 344H119Q111 344 107 350L57 413Q53 417 53 421Q53 425 58 430Q59 431 71 441T110 465T175 488T267 499Q322 499 365 484T435 435Q470 467
513 483T602 499Q720 499 778 432T836 241Q836 225 820 225H492ZM358 168Q357 170 357 176T356 190T355 204T355 213H294Q237 213 203 201T168 158Q168 132 189 118T244 103Q270 103 289 111T323 131T345 152T358 168ZM709 302Q708 319 702 335T684 365T653 386T607
394Q563 394 533 372T494 302H709Z" />
<glyph unicode="&#x1fe;" glyph-name="Oslashacute" horiz-adv-x="797" d="M399 -7Q383 -7 368 -6T338 -2L327 -40Q324 -54 310 -54H251Q240 -54 240 -44Q240 -43 240 -43T241 -40L258 20Q210 40 170 73T102 150T57 247T41 363Q41 452 72 519T153 632T268 701T399
724Q431 724 463 718L477 766Q481 780 495 780H553Q564 780 564 772Q564 768 563 766L542 696Q587 678 626 648T694 576T739 481T756 363Q756 277 729 209T653 92T540 19T399 -7ZM188 360Q188 286 218 233T296 150L426 594Q419 595 412 595T398 596Q357 596 319
581T252 535T206 461T188 360ZM399 122Q441 122 479 139T546 187T592 262T609 360Q609 435 580 487T504 567L374 123Q380 122 386 122T399 122ZM390 791Q384 787 379 787Q371 787 367 794L322 846Q318 850 318 856Q318 864 324 869L505 1031Q509 1035 515 1035Q523
1035 528 1029L584 962Q587 957 587 952Q587 944 582 939L390 791Z" />
<glyph unicode="&#x1ff;" glyph-name="oslashacute" horiz-adv-x="590" d="M294 -7Q249 -7 207 4L197 -16Q190 -30 180 -30H149Q138 -30 138 -21Q138 -18 139 -16L159 23Q100 54 68 111T36 247Q36 305 55 352T108 431T190 481T295 499Q321 499 345 495T392 483L398
495Q404 509 416 509H447Q458 509 458 501Q458 497 457 495L440 462Q493 430 523 376T554 247Q554 189 536 142T483 62T401 11T294 -7ZM297 557Q291 553 286 553Q278 553 274 560L229 612Q225 616 225 622Q225 630 231 635L412 797Q416 801 422 801Q430 801 435
795L491 728Q494 723 494 718Q494 710 489 705L297 557ZM171 248Q171 173 215 134L339 378Q317 386 295 386Q242 386 207 350T171 248ZM294 105Q349 105 384 143T419 248Q419 280 410 305T383 349L261 109Q274 105 294 105Z" />
<glyph unicode="&#x218;" glyph-name="Scommaaccent" horiz-adv-x="680" d="M325 -231Q325 -227 332 -225T349 -219T366 -206T374 -180Q374 -176 374 -174T373 -170Q372 -168 372 -167Q370 -168 367 -169Q364 -170 354 -170Q328 -170 311 -153T293 -108Q293 -82
311 -64T355 -45Q388 -45 407 -69T427 -137Q427 -205 403 -236T333 -268Q325 -268 325 -262V-231ZM65 0Q51 0 51 14V252Q51 266 65 266H174Q188 266 188 252V239Q188 236 196 218T224 178T278 140T367 122Q423 122 451 144T480 201Q480 232 450 250T373 283T274
312T175 351T99 414T68 515Q68 560 84 598T131 664T205 708T305 724Q373 724 417 705T488 656L485 705V707Q485 718 499 718H594Q608 718 608 705V470Q608 456 594 456H484Q470 456 470 470V491Q470 506 462 524T437 557T391 584T324 595Q270 595 242 572T214 515Q214
489 232 472T280 442T348 419T425 398T503 371T571 333T619 278T637 201Q637 161 623 124T580 57T504 11T392 -7Q339 -7 300 6T233 37T191 71T172 94L174 14Q174 0 160 0H65Z" />
<glyph unicode="&#x219;" glyph-name="scommaaccent" horiz-adv-x="513" d="M255 -231Q255 -227 262 -225T279 -219T296 -206T304 -180Q304 -176 304 -174T303 -170Q302 -168 302 -167Q300 -168 297 -169Q294 -170 284 -170Q258 -170 241 -153T223 -108Q223 -82
241 -64T285 -45Q318 -45 337 -69T357 -137Q357 -205 333 -236T263 -268Q255 -268 255 -262V-231ZM282 -7Q247 -7 220 1T175 20T146 40T135 53H133Q133 44 134 37Q134 30 134 24T135 16Q135 0 119 0H57Q40 0 40 16V169Q40 185 56 185H129Q145 185 145 169V159Q153
141 168 128Q181 116 202 107T258 97Q293 97 312 109T332 144Q332 162 312 172T261 190T195 207T129 232T78 276T57 348Q57 414 103 456T234 499Q287 499 319 484T371 445H373Q372 453 371 460Q370 465 370 470T370 476Q370 492 387 492H444Q460 492 460 476V324Q460
317 455 313T443 308H370Q354 308 354 324V333Q354 343 348 354T330 374T299 388T255 394Q226 394 207 382T188 345Q188 323 209 312T262 293T331 277T400 252T453 209T475 137Q475 111 465 85T432 39T373 6T282 -7Z" />
<glyph unicode="&#x2c6;" glyph-name="circumflex" horiz-adv-x="429" d="M352 561Q347 555 341 555Q334 555 330 559L214 662L99 559Q95 555 88 555Q80 555 76 561L33 612Q29 616 29 622Q29 630 35 635L204 786Q208 790 214 790Q221 790 226 785L394 635Q400
630 400 622Q400 616 396 612L352 561Z" />
<glyph unicode="&#x2c7;" glyph-name="caron" horiz-adv-x="429" d="M226 568Q220 562 214 562Q208 562 204 566L35 718Q29 722 29 730Q29 737 33 741L76 792Q80 797 88 797Q93 797 99 794L214 689L330 794Q334 798 341 798Q347 798 352 792L396 741Q400 737 400
730Q400 722 394 718L226 568Z" />
<glyph unicode="&#x2d8;" glyph-name="breve" horiz-adv-x="363" d="M318 706Q334 706 334 690Q334 656 323 630T290 585T241 558T180 549Q147 549 120 558T72 585T41 629T29 690Q29 706 45 706H105Q121 706 121 690Q121 661 138 644T180 626Q207 626 225 643T243
690Q243 706 259 706H318Z" />
<glyph unicode="&#x2d9;" glyph-name="dotaccent" horiz-adv-x="179" d="M150 623Q150 598 133 581T89 563Q64 563 47 580T29 623Q29 649 46 666T89 684Q115 684 132 667T150 623Z" />
<glyph unicode="&#x2da;" glyph-name="ring" horiz-adv-x="221" d="M145 582Q129 571 111 571Q88 571 70 588T51 632Q51 655 67 674T110 693Q133 693 152 675T171 631Q171 617 165 604T145 582ZM125 616Q132 620 132 631Q132 639 126 646T110 653Q102 653 96 647T90
633Q90 624 96 618T112 611Q120 611 125 616Z" />
<glyph unicode="&#x2db;" glyph-name="ogonek" horiz-adv-x="249" d="M217 -119Q219 -122 219 -128Q219 -136 212 -141Q211 -142 204 -147T185 -158T155 -168T117 -173Q75 -173 52 -152T29 -94Q29 -69 40 -51T68 -20T101 -1T131 6H188Q188 6 176 0T149 -17T123
-43T111 -78Q111 -92 119 -99T141 -106Q158 -106 169 -99T192 -92Q199 -92 204 -98L217 -119Z" />
<glyph unicode="&#x2dc;" glyph-name="tilde" horiz-adv-x="421" d="M379 707Q393 707 393 693Q393 630 368 593T287 555Q256 555 236 564T200 585T171 605T139 615Q122 615 113 605T104 561Q104 547 90 547H42Q28 547 28 561Q28 621 53 658T134 695Q164 695 184
685T219 664T249 642T281 632Q298 632 307 644T317 693Q317 707 331 707H379Z" />
<glyph unicode="&#x2dd;" glyph-name="hungarumlaut" horiz-adv-x="542" d="M101 576Q95 572 90 572Q82 572 78 579L33 631Q29 635 29 641Q29 649 35 654L216 816Q220 820 226 820Q232 820 239 813L295 747Q298 741 298 736Q298 729 293 724L101 576ZM315 576Q309
572 304 572Q296 572 292 579L248 631Q243 636 243 642Q243 650 250 654L430 816Q434 820 440 820Q446 820 453 813L509 747Q512 741 512 736Q512 729 507 724L315 576Z" />
<glyph unicode="&#x1e80;" glyph-name="Wgrave" horiz-adv-x="1022" d="M675 0Q646 0 631 12T607 56L512 467H507L415 56Q407 24 391 12T346 0H292Q263 0 248 12T224 56L66 602H8Q-6 602 -6 616V704Q-6 718 8 718H280Q294 718 294 704V616Q294 602 280 602H214L315
180H324L447 718H573L698 180H707L808 602H742Q728 602 728 616V704Q728 718 742 718H1014Q1028 718 1028 704V616Q1028 602 1014 602H954L798 56Q789 25 774 13T730 0H675ZM583 786Q577 780 570 780Q564 780 560 784L368 932Q362 936 362 944Q362 947 366 955L422
1021Q426 1027 435 1027Q440 1027 445 1024L625 862Q631 857 631 850Q631 843 627 839L583 786Z" />
<glyph unicode="&#x1e81;" glyph-name="wgrave" horiz-adv-x="858" d="M524 0Q490 0 486 31L430 287H428L372 31Q368 0 334 0H227Q209 0 202 7T189 31L75 386H23Q10 386 10 400V478Q10 492 23 492H250Q264 492 264 478V400Q264 386 250 386H212L283 118H285L355
386H334Q321 386 321 400V478Q321 492 334 492H524Q538 492 538 478V400Q538 386 524 386H505L574 118H576L646 386H609Q595 386 595 400V478Q595 492 609 492H835Q849 492 849 478V400Q849 386 835 386H783L669 31Q664 15 656 8T631 0H524ZM448 560Q442 554 435
554Q429 554 425 558L233 706Q227 710 227 718Q227 721 231 729L287 795Q291 801 300 801Q305 801 310 798L490 636Q496 631 496 624Q496 617 492 613L448 560Z" />
<glyph unicode="&#x1e82;" glyph-name="Wacute" horiz-adv-x="1022" d="M473 783Q467 779 462 779Q454 779 450 786L405 838Q401 842 401 848Q401 856 407 861L588 1023Q592 1027 598 1027Q606 1027 611 1021L667 954Q670 949 670 944Q670 936 665 931L473 783ZM675
0Q646 0 631 12T607 56L512 467H507L415 56Q407 24 391 12T346 0H292Q263 0 248 12T224 56L66 602H8Q-6 602 -6 616V704Q-6 718 8 718H280Q294 718 294 704V616Q294 602 280 602H214L315 180H324L447 718H573L698 180H707L808 602H742Q728 602 728 616V704Q728
718 742 718H1014Q1028 718 1028 704V616Q1028 602 1014 602H954L798 56Q789 25 774 13T730 0H675Z" />
<glyph unicode="&#x1e83;" glyph-name="wacute" horiz-adv-x="858" d="M413 557Q407 553 402 553Q394 553 390 560L345 612Q341 616 341 622Q341 630 347 635L528 797Q532 801 538 801Q546 801 551 795L607 728Q610 723 610 718Q610 710 605 705L413 557ZM524
0Q490 0 486 31L430 287H428L372 31Q368 0 334 0H227Q209 0 202 7T189 31L75 386H23Q10 386 10 400V478Q10 492 23 492H250Q264 492 264 478V400Q264 386 250 386H212L283 118H285L355 386H334Q321 386 321 400V478Q321 492 334 492H524Q538 492 538 478V400Q538
386 524 386H505L574 118H576L646 386H609Q595 386 595 400V478Q595 492 609 492H835Q849 492 849 478V400Q849 386 835 386H783L669 31Q664 15 656 8T631 0H524Z" />
<glyph unicode="&#x1e84;" glyph-name="Wdieresis" horiz-adv-x="1022" d="M472 841Q472 815 454 798T410 780Q384 780 367 797T350 841Q350 867 367 885T410 903Q436 903 454 885T472 841ZM662 841Q662 815 644 798T600 780Q574 780 557 797T539 841Q539 867
556 885T600 903Q626 903 644 885T662 841ZM675 0Q646 0 631 12T607 56L512 467H507L415 56Q407 24 391 12T346 0H292Q263 0 248 12T224 56L66 602H8Q-6 602 -6 616V704Q-6 718 8 718H280Q294 718 294 704V616Q294 602 280 602H214L315 180H324L447 718H573L698
180H707L808 602H742Q728 602 728 616V704Q728 718 742 718H1014Q1028 718 1028 704V616Q1028 602 1014 602H954L798 56Q789 25 774 13T730 0H675Z" />
<glyph unicode="&#x1e85;" glyph-name="wdieresis" horiz-adv-x="858" d="M401 615Q401 589 383 572T339 554Q313 554 296 571T279 615Q279 641 296 659T339 677Q365 677 383 659T401 615ZM591 615Q591 589 573 572T529 554Q503 554 486 571T468 615Q468 641 485
659T529 677Q555 677 573 659T591 615ZM524 0Q490 0 486 31L430 287H428L372 31Q368 0 334 0H227Q209 0 202 7T189 31L75 386H23Q10 386 10 400V478Q10 492 23 492H250Q264 492 264 478V400Q264 386 250 386H212L283 118H285L355 386H334Q321 386 321 400V478Q321
492 334 492H524Q538 492 538 478V400Q538 386 524 386H505L574 118H576L646 386H609Q595 386 595 400V478Q595 492 609 492H835Q849 492 849 478V400Q849 386 835 386H783L669 31Q664 15 656 8T631 0H524Z" />
<glyph unicode="&#x1ef2;" glyph-name="Ygrave" horiz-adv-x="692" d="M205 0Q192 0 192 14V102Q192 116 205 116H277V278Q275 280 258 308T213 382T149 484T73 602H5Q-9 602 -9 616V704Q-9 718 5 718H286Q300 718 300 704V616Q300 602 286 602H230L348 394H353L469
602H409Q395 602 395 616V704Q395 718 409 718H688Q702 718 702 704V616Q702 602 688 602H620Q581 542 545 485T480 382T433 309T413 278V116H485Q499 116 499 102V14Q499 0 485 0H205ZM427 786Q421 780 414 780Q408 780 404 784L212 932Q206 936 206 944Q206 947
210 955L266 1021Q270 1027 279 1027Q284 1027 289 1024L469 862Q475 857 475 850Q475 843 471 839L427 786Z" />
<glyph unicode="&#x1ef3;" glyph-name="ygrave" horiz-adv-x="589" d="M518 -8Q518 -67 498 -109T442 -180T360 -222T259 -236Q211 -236 175 -227T114 -205T74 -180T53 -162Q46 -157 46 -148Q46 -143 48 -141L95 -74Q98 -69 104 -69Q111 -69 121 -77T147 -94T189
-111T254 -119Q285 -119 312 -113T359 -93T390 -58T402 -8V78H399Q397 74 391 61T369 32T327 5T258 -7Q217 -7 185 6T131 42T96 98T84 169L82 386H33Q19 386 19 400V478Q19 492 33 492H168Q215 492 215 446V212Q215 166 232 138T297 110Q323 110 340 119T367 139T381
161T385 173V386H342Q328 386 328 400V478Q328 492 342 492H504Q517 492 517 478L518 -8ZM306 560Q300 554 293 554Q287 554 283 558L91 706Q85 710 85 718Q85 721 89 729L145 795Q149 801 158 801Q163 801 168 798L348 636Q354 631 354 624Q354 617 350 613L306
560Z" />
<glyph unicode="&#x2013;" glyph-name="endash" horiz-adv-x="631" d="M80 202Q64 202 64 217V310Q64 326 80 326H552Q567 326 567 310V217Q567 202 552 202H80Z" />
<glyph unicode="&#x2014;" glyph-name="emdash" horiz-adv-x="954" d="M80 202Q64 202 64 217V310Q64 326 80 326H874Q890 326 890 310V217Q890 202 874 202H80Z" />
<glyph unicode="&#x2018;" glyph-name="quoteleft" horiz-adv-x="217" d="M143 779Q143 776 136 774T119 768T102 754T94 728Q94 720 95 718Q95 716 96 715Q97 716 100 717Q106 719 114 719Q140 719 157 701T175 657Q175 631 157 613T113 594Q80 594 61 618T41
686Q41 754 65 785T135 816Q143 816 143 811V779Z" />
<glyph unicode="&#x2019;" glyph-name="quoteright" horiz-adv-x="224" d="M76 558Q76 564 84 564Q99 564 112 575T125 609Q125 613 125 615T124 619Q123 621 123 622Q121 621 118 620Q112 618 105 618Q80 618 63 636T45 680Q45 706 63 724T107 743Q139 743 158
719T178 651Q178 583 154 552T84 521Q76 521 76 526V558Z" />
<glyph unicode="&#x201a;" glyph-name="quotesinglbase" horiz-adv-x="245" d="M88 -68Q88 -62 96 -62Q111 -62 124 -51T137 -18Q137 -14 137 -12T136 -7Q135 -5 135 -4Q133 -5 130 -6Q124 -8 117 -8Q91 -8 74 10T56 54Q56 80 74 98T118 117Q151 117 170 93T190
25Q190 -43 166 -74T96 -105Q88 -105 88 -100V-68Z" />
<glyph unicode="&#x201c;" glyph-name="quotedblleft" horiz-adv-x="397" d="M324 779Q324 776 317 774T300 768T283 754T275 728Q275 720 276 718Q276 716 277 715Q278 716 281 717Q287 719 295 719Q320 719 337 701T355 657Q355 631 337 613T293 594Q261 594
242 618T222 686Q222 754 246 785T316 816Q324 816 324 811V779ZM143 779Q143 776 136 774T119 768T102 754T94 728Q94 720 95 718Q95 716 96 715Q97 716 100 717Q106 719 114 719Q140 719 157 701T175 657Q175 631 157 613T113 594Q80 594 61 618T41 686Q41 754
65 785T135 816Q143 816 143 811V779Z" />
<glyph unicode="&#x201d;" glyph-name="quotedblright" horiz-adv-x="404" d="M76 558Q76 564 84 564Q99 564 112 575T125 609Q125 613 125 615T124 619Q123 621 123 622Q121 621 118 620Q112 618 105 618Q80 618 63 636T45 680Q45 706 63 724T107 743Q139 743
158 719T178 651Q178 583 154 552T84 521Q76 521 76 526V558ZM257 558Q257 564 265 564Q280 564 293 575T306 609Q306 613 306 615T305 619Q304 621 304 622Q302 621 299 620Q293 618 286 618Q260 618 243 636T225 680Q225 706 243 724T287 743Q320 743 339 719T359
651Q359 583 334 552T265 521Q257 521 257 526V558Z" />
<glyph unicode="&#x201e;" glyph-name="quotedblbase" horiz-adv-x="420" d="M88 -68Q88 -62 96 -62Q111 -62 124 -51T137 -18Q137 -14 137 -12T136 -7Q135 -5 135 -4Q133 -5 130 -6Q124 -8 117 -8Q91 -8 74 10T56 54Q56 80 74 98T118 117Q151 117 170 93T190
25Q190 -43 166 -74T96 -105Q88 -105 88 -100V-68ZM264 -68Q264 -65 271 -63T288 -57T304 -44T312 -18Q312 -14 312 -12T311 -7Q310 -5 310 -4Q309 -5 306 -6Q300 -8 292 -8Q267 -8 250 10T232 54Q232 80 250 98T294 117Q326 117 345 93T365 25Q365 -43 341 -74T271
-105Q264 -105 264 -100V-68Z" />
<glyph unicode="&#x2020;" glyph-name="dagger" horiz-adv-x="521" d="M224 -131Q210 -131 210 -117L198 449H52Q45 449 40 453T35 465V557Q35 564 40 568T52 573H198V746Q198 760 212 760H317Q331 760 331 746V573H469Q485 573 485 557V465Q485 449 469 449H331L319
-117Q319 -131 305 -131H224Z" />
<glyph unicode="&#x2021;" glyph-name="daggerdbl" horiz-adv-x="542" d="M333 72L329 -117Q329 -131 316 -131H234Q220 -131 220 -117L216 72H62Q46 72 46 88V180Q46 196 62 196H208V449H62Q46 449 46 465V557Q46 573 62 573H208V746Q208 760 223 760H328Q341
760 341 746V573H480Q495 573 495 557V465Q495 449 480 449H337V196H480Q495 196 495 180V88Q495 72 480 72H333Z" />
<glyph unicode="&#x2022;" glyph-name="bullet" horiz-adv-x="351" d="M175 239Q130 239 106 264T82 335Q82 378 106 405T175 432Q218 432 243 405T269 335Q269 290 244 265T175 239Z" />
<glyph unicode="&#x2026;" glyph-name="ellipsis" horiz-adv-x="538" d="M181 55Q181 28 163 10T118 -8Q92 -8 74 10T56 55Q56 81 74 99T118 117Q144 117 162 99T181 55ZM333 55Q333 28 315 10T270 -8Q244 -8 226 10T208 55Q208 81 226 99T270 117Q296 117 314
99T333 55ZM482 55Q482 28 464 10T419 -8Q393 -8 375 10T357 55Q357 81 375 99T419 117Q445 117 463 99T482 55Z" />
<glyph unicode="&#x2030;" glyph-name="perthousand" horiz-adv-x="1154" d="M186 359Q117 359 75 406T33 544Q33 587 44 621T76 677T125 712T186 724Q252 724 295 678T338 544Q338 454 297 407T186 359ZM186 441Q250 441 250 542Q250 643 186 643Q154 643 138
617T121 542Q121 493 138 467T186 441ZM627 -7Q558 -7 516 40T474 178Q474 221 485 255T517 311T566 346T627 358Q693 358 736 312T779 178Q779 88 738 41T627 -7ZM627 75Q691 75 691 176Q691 277 627 277Q595 277 578 251T561 176Q561 127 578 101T627 75ZM241
-74Q230 -74 230 -66Q230 -62 231 -60L466 746Q471 760 484 760H554Q565 760 565 752Q565 748 564 746L329 -60Q324 -74 311 -74H241ZM969 -7Q900 -7 858 40T816 178Q816 221 827 255T859 311T908 346T969 358Q1035 358 1078 312T1121 178Q1121 88 1080 41T969
-7ZM969 75Q1033 75 1033 176Q1033 277 969 277Q937 277 921 251T904 176Q904 127 921 101T969 75Z" />
<glyph unicode="&#x2044;" glyph-name="fraction" horiz-adv-x="369" d="M9 -74Q-2 -74 -2 -66Q-2 -62 -1 -60L234 746Q239 760 252 760H358Q368 760 368 752Q368 748 367 746L132 -60Q127 -74 114 -74H9Z" />
<glyph unicode="&#x2070;" glyph-name="zerosuperior" horiz-adv-x="398" d="M200 359Q131 359 89 406T46 544Q46 587 57 621T90 677T139 712T200 724Q266 724 309 678T352 544Q352 454 311 407T200 359ZM200 441Q263 441 263 542Q263 643 200 643Q168 643 151
617T134 542Q134 493 151 467T200 441Z" />
<glyph unicode="&#x20ac;" glyph-name="Euro" horiz-adv-x="716" d="M108 317Q106 325 106 336T106 355Q106 363 106 374T108 393H52Q38 393 38 406V460Q38 474 52 474H122Q138 532 170 578T247 657T345 706T460 724Q506 724 542 714T606 692T649 668T669 654Q675
648 675 643Q675 638 672 634L608 559Q603 553 598 553Q593 553 589 557Q585 560 576 566T551 579T515 591T464 596Q403 596 354 562T278 474H523Q536 474 536 460V406Q536 393 523 393H256Q254 386 254 376T253 359Q253 350 253 338T257 317H460Q474 317 474 303V249Q474
235 460 235H283Q311 184 358 154T464 123Q501 123 525 129T565 142T587 156T598 163Q603 163 608 158L672 82Q675 77 675 73Q675 66 669 62Q665 59 649 48T606 25T543 2T460 -8Q400 -8 346 8T248 56T172 133T123 235H52Q38 235 38 249V303Q38 317 52 317H108Z"
/>
<glyph unicode="&#x2122;" glyph-name="trademark" horiz-adv-x="1095" d="M173 289Q163 289 163 298V359Q163 369 173 369H213V637H139V578Q139 569 129 569H68Q58 569 58 578V709Q58 718 68 718H450Q460 718 460 709V578Q460 569 450 569H388Q379 569 379 578V637H308V369H348Q358
369 358 359V298Q358 289 348 289H173ZM857 289Q849 289 849 297V361Q849 369 857 369H886V569H884L802 350Q792 325 765 325Q739 325 730 350L647 569H645V369H674Q682 369 682 361V297Q682 289 674 289H511Q503 289 503 297V361Q503 369 511 369H552V637H511Q503
637 503 645V710Q503 718 511 718H636Q651 718 659 711T673 690L738 528Q743 515 747 502T756 479T762 462T765 455H767Q771 466 775 478Q779 489 784 501T794 528L859 690Q864 703 872 710T896 718H1020Q1028 718 1028 710V645Q1028 637 1020 637H979V369H1020Q1028
369 1028 361V297Q1028 289 1020 289H857Z" />
<glyph unicode="&#x2126;" glyph-name="Omega" horiz-adv-x="812" d="M462 0Q448 0 448 14V228Q448 239 458 239Q489 239 518 251T569 287T604 341T617 410Q617 455 600 489T553 548T485 584T406 596Q365 596 327 584T260 548T213 490T195 410Q195 372 208 341T243
287T293 252T354 239Q364 239 364 228V14Q364 0 350 0H61Q48 0 48 14V93Q48 106 61 106H265V156Q218 168 178 191T110 248T65 323T49 413Q49 490 79 548T160 645T275 704T406 724Q473 724 537 705T651 646T732 549T763 413Q763 365 747 323T703 248T634 192T547
156V106H751Q765 106 765 93V14Q765 0 751 0H462Z" />
<glyph unicode="&#x2153;" glyph-name="onethird" horiz-adv-x="750" d="M208 -74Q197 -74 197 -65Q197 -62 198 -60L434 746Q437 760 452 760H522Q533 760 533 751Q533 748 532 746L296 -60Q293 -74 279 -74H208ZM576 -3Q541 -3 516 6T475 27T450 49T442 63Q442
66 444 67L486 106Q488 108 490 108Q492 108 495 105Q507 94 526 81T576 68Q604 68 620 78T636 110Q636 151 577 151H551Q544 151 544 158V202Q544 209 551 209H569Q589 209 607 217T625 251Q625 268 614 279T577 290Q555 290 542 280T529 252Q529 244 522 244H463Q455
244 455 252Q455 303 486 332T577 362Q612 362 636 353T676 328T699 296T706 263Q706 242 699 227T683 203T665 189T653 183Q656 182 666 178T687 165T706 139T715 98Q715 53 677 25T576 -3ZM60 362Q51 362 51 370V421Q51 429 60 429H134V636L75 593Q74 592 71
592Q68 592 65 595L34 638Q32 640 32 641Q32 644 36 648L135 719Q139 721 146 721H207Q214 721 214 713V429H273Q282 429 282 421V370Q282 362 273 362H60Z" />
<glyph unicode="&#x2202;" glyph-name="partialdiff" horiz-adv-x="637" d="M312 453Q366 453 401 442T454 420Q452 611 325 611Q297 611 278 606T247 592T229 574T222 553Q221 539 206 539H113Q101 539 101 552Q101 585 116 616T160 671T233 709T336 724Q393
724 439 705T519 646T571 549T590 415Q590 315 568 237T504 104T403 22T268 -7Q209 -7 165 10T90 56T45 126T30 212Q30 263 46 307T97 384T185 434T312 453ZM275 106Q346 106 390 157T449 322Q435 330 403 342T324 355Q282 355 252 343T203 312T174 267T165 215Q165
166 193 136T275 106Z" />
<glyph unicode="&#x2212;" glyph-name="minus" horiz-adv-x="494" d="M83 202Q68 202 68 217V310Q68 326 83 326H411Q427 326 427 310V217Q427 202 411 202H83Z" />
<glyph unicode="&#x222b;" glyph-name="integral'" horiz-adv-x="489" d="M196 536Q196 630 243 678T381 726Q420 726 447 716T491 692T517 668T525 656Q525 652 522 649L477 590Q472 584 466 584Q461 584 456 588T444 597T425 606T396 610Q361 610 345 589T329
535V-45Q329 -140 282 -188T144 -236Q106 -236 79 -226T34 -203T8 -179T0 -166Q0 -163 3 -158L48 -100Q52 -94 59 -94Q63 -94 68 -98T80 -106T100 -115T130 -119Q165 -119 180 -99T196 -45V536V536Z" />
<glyph unicode="&#x2248;" glyph-name="approxequal" horiz-adv-x="501" d="M420 466Q433 466 433 452Q433 389 408 352T327 314Q296 314 276 324T241 346T212 369T180 379Q163 379 154 367T144 319Q144 306 130 306H82Q68 306 68 319Q68 380 94 417T174 454Q204
454 224 444T260 422T290 399T322 389Q339 389 348 402T358 452Q358 466 371 466H420ZM420 298Q433 298 433 284Q433 221 408 184T327 146Q296 146 276 156T241 178T212 201T180 211Q163 211 154 199T144 151Q144 138 130 138H82Q68 138 68 151Q68 212 94 249T174
286Q204 286 224 276T260 254T290 231T322 221Q339 221 348 234T358 284Q358 298 371 298H420Z" />
<glyph unicode="&#x2260;" glyph-name="notequal" horiz-adv-x="501" d="M227 79L218 48Q214 35 200 35H136Q125 35 125 43Q125 46 126 48L134 79H76Q60 79 60 95V187Q60 203 76 203H171L204 313H76Q60 313 60 329V421Q60 428 64 433T76 438H241L255 482Q260 496
273 496H337Q348 496 348 488Q348 484 347 482L334 438H423Q430 438 434 433T439 421V329Q439 313 423 313H297L264 203H423Q439 203 439 187V95Q439 79 423 79H227Z" />
<glyph unicode="&#xf6c3;" glyph-name="commaaccent" horiz-adv-x="192" d="M61 -231Q61 -227 68 -225T85 -219T102 -206T110 -180Q110 -176 110 -174T109 -170Q108 -168 108 -167Q106 -168 103 -169Q100 -170 90 -170Q64 -170 47 -153T29 -108Q29 -82 47 -64T91
-45Q124 -45 143 -69T163 -137Q163 -205 139 -236T69 -268Q61 -268 61 -262V-231Z" />
<glyph unicode="&#xfb00;" glyph-name="ff" horiz-adv-x="798" d="M454 0Q440 0 440 14V92Q440 106 454 106H503V386H235V106H318Q331 106 331 92V14Q331 0 318 0H53Q39 0 39 14V92Q39 106 53 106H102V386H52Q38 386 38 400V478Q38 492 52 492H102V536Q102 630
149 678T287 726Q326 726 353 716T397 692T423 668T431 656Q431 652 428 649L383 590Q377 584 372 584Q368 584 363 588T350 597T331 606T302 610Q267 610 251 589T235 535V492H503V536Q503 630 550 678T688 726Q728 726 755 715T800 691T824 667T832 656Q832 652
829 649L784 590Q779 584 773 584Q768 584 763 588T751 597T732 606T703 610Q668 610 653 589T637 535V492H764Q778 492 778 478V400Q778 386 764 386H637V106H719Q733 106 733 92V14Q733 0 719 0H454Z" />
<glyph unicode="&#xfb01;" glyph-name="fi" horiz-adv-x="724" d="M455 0Q441 0 441 14V92Q441 106 455 106H504V386H235V106H318Q331 106 331 92V14Q331 0 318 0H53Q39 0 39 14V92Q39 106 53 106H102V386H52Q38 386 38 400V478Q38 492 52 492H102V536Q102 630
149 678T287 726Q326 726 353 716T397 692T423 668T431 656Q431 652 428 649L383 590Q377 584 372 584Q368 584 363 588T350 597T331 606T302 610Q267 610 251 589T235 535V492H623Q636 492 636 478V106H680Q694 106 694 92V14Q694 0 680 0H455ZM644 642Q644 624
638 609T620 583T593 565T560 558Q525 558 500 582T475 642Q475 677 500 702T560 727Q577 727 592 721T619 703T637 676T644 642Z" />
<glyph unicode="&#xfb02;" glyph-name="fl" horiz-adv-x="721" d="M53 0Q39 0 39 14V92Q39 106 53 106H102V386H52Q38 386 38 400V478Q38 492 52 492H102V536Q102 630 149 678T287 726Q326 726 353 716T397 692T423 668T431 656Q431 652 428 649L383 590Q377 584
372 584Q368 584 363 588T350 597T331 606T302 610Q267 610 251 589T235 535V492H362Q376 492 376 478V400Q376 386 362 386H235V106H318Q331 106 331 92V14Q331 0 318 0H53ZM448 0Q434 0 434 14V92Q434 106 448 106H497V612H467Q453 612 453 626V705Q453 719 467
719H609Q629 719 629 699V106H672Q686 106 686 92V14Q686 0 672 0H448Z" />
<glyph unicode="&#xfb03;" glyph-name="ffi" horiz-adv-x="1126" d="M856 0Q843 0 843 14V92Q843 106 856 106H905V386H637V106H719Q733 106 733 92V14Q733 0 719 0H454Q440 0 440 14V92Q440 106 454 106H503V386H235V106H318Q331 106 331 92V14Q331 0 318 0H53Q39
0 39 14V92Q39 106 53 106H102V386H52Q38 386 38 400V478Q38 492 52 492H102V536Q102 630 149 678T287 726Q326 726 353 716T397 692T423 668T431 656Q431 652 428 649L383 590Q377 584 372 584Q368 584 363 588T350 597T331 606T302 610Q267 610 251 589T235 535V492H503V536Q503
630 550 678T688 726Q728 726 755 715T800 691T824 667T832 656Q832 652 829 649L784 590Q779 584 773 584Q768 584 763 588T751 597T732 606T703 610Q668 610 653 589T637 535V492H1024Q1038 492 1038 478V106H1081Q1095 106 1095 92V14Q1095 0 1081 0H856ZM1046
642Q1046 607 1021 583T961 558Q926 558 901 582T876 642Q876 677 901 702T961 727Q996 727 1021 702T1046 642Z" />
<glyph unicode="&#xfb04;" glyph-name="ffl" horiz-adv-x="1123" d="M454 0Q440 0 440 14V92Q440 106 454 106H503V386H235V106H318Q331 106 331 92V14Q331 0 318 0H53Q39 0 39 14V92Q39 106 53 106H102V386H52Q38 386 38 400V478Q38 492 52 492H102V536Q102 630
149 678T287 726Q326 726 353 716T397 692T423 668T431 656Q431 652 428 649L383 590Q377 584 372 584Q368 584 363 588T350 597T331 606T302 610Q267 610 251 589T235 535V492H503V536Q503 630 550 678T688 726Q728 726 755 715T800 691T824 667T832 656Q832 652
829 649L784 590Q779 584 773 584Q768 584 763 588T751 597T732 606T703 610Q668 610 653 589T637 535V492H764Q778 492 778 478V400Q778 386 764 386H637V106H719Q733 106 733 92V14Q733 0 719 0H454ZM849 0Q835 0 835 14V92Q835 106 849 106H898V612H868Q854
612 854 626V705Q854 719 868 719H1011Q1031 719 1031 699V106H1074Q1088 106 1088 92V14Q1088 0 1074 0H849Z" />
</font>
</defs>
</svg>
